{"header":{"PPQ":128,"bpm":120,"name":""},"startTime":0,"duration":1,"tracks":[{"startTime":0,"duration":1,"length":21,"notes":[{"name":"C#3","midi":49,"time":0,"velocity":0.7086614173228346,"duration":0.5},{"name":"D#3","midi":51,"time":0,"velocity":0.7086614173228346,"duration":0.5},{"name":"G3","midi":55,"time":0,"velocity":0.7086614173228346,"duration":0.5},{"name":"C4","midi":60,"time":0,"velocity":0.7086614173228346,"duration":0.5},{"name":"A#4","midi":70,"time":0,"velocity":0.7086614173228346,"duration":0.5},{"name":"E5","midi":76,"time":0,"velocity":0.7086614173228346,"duration":0.5},{"name":"A#5","midi":82,"time":0,"velocity":0.7086614173228346,"duration":0.5},{"name":"G6","midi":91,"time":0,"velocity":0.7086614173228346,"duration":0.5},{"name":"D3","midi":50,"time":0.5,"velocity":0.7086614173228346,"duration":0.5},{"name":"F#3","midi":54,"time":0.5,"velocity":0.7086614173228346,"duration":0.5},{"name":"F4","midi":65,"time":0.5,"velocity":0.7086614173228346,"duration":0.5},{"name":"F5","midi":77,"time":0.5,"velocity":0.7086614173228346,"duration":0.5},{"name":"G#5","midi":80,"time":0.5,"velocity":0.7086614173228346,"duration":0.5},{"name":"C6","midi":84,"time":0.5,"velocity":0.7086614173228346,"duration":0.5},{"name":"C#6","midi":85,"time":0.5,"velocity":0.7086614173228346,"duration":0.5},{"name":"G6","midi":91,"time":0.5,"velocity":0.7086614173228346,"duration":0.5},{"name":"A6","midi":93,"time":0.5,"velocity":0.7086614173228346,"duration":0.5},{"name":"C#7","midi":97,"time":0.5,"velocity":0.7086614173228346,"duration":0.5},{"name":"F7","midi":101,"time":0.5,"velocity":0.7086614173228346,"duration":0.5},{"name":"A#7","midi":106,"time":0.5,"velocity":0.7086614173228346,"duration":0.5},{"name":"F8","midi":113,"time":0.5,"velocity":0.7086614173228346,"duration":0.5}],"controlChanges":{},"id":0,"channelNumber":0,"isPercussion":false}]}