{"header":{"PPQ":128,"bpm":120,"name":""},"startTime":0,"duration":11.125,"tracks":[{"startTime":0,"duration":11.125,"length":22,"notes":[{"name":"A4","midi":69,"time":0,"velocity":0.7086614173228346,"duration":1},{"name":"E4","midi":64,"time":1,"velocity":0.7086614173228346,"duration":1},{"name":"E4","midi":64,"time":2,"velocity":0.7086614173228346,"duration":0.25},{"name":"C4","midi":60,"time":2.25,"velocity":0.7086614173228346,"duration":1},{"name":"G3","midi":55,"time":3.25,"velocity":0.7086614173228346,"duration":0.25},{"name":"E3","midi":52,"time":3.5,"velocity":0.7086614173228346,"duration":0.5},{"name":"G3","midi":55,"time":4,"velocity":0.7086614173228346,"duration":0.25},{"name":"E3","midi":52,"time":4.25,"velocity":0.7086614173228346,"duration":0.25},{"name":"G3","midi":55,"time":4.5,"velocity":0.7086614173228346,"duration":0.125},{"name":"A3","midi":57,"time":4.625,"velocity":0.7086614173228346,"duration":0.5},{"name":"B3","midi":59,"time":5.125,"velocity":0.7086614173228346,"duration":0.5},{"name":"B3","midi":59,"time":5.625,"velocity":0.7086614173228346,"duration":0.25},{"name":"B3","midi":59,"time":5.875,"velocity":0.7086614173228346,"duration":0.25},{"name":"A3","midi":57,"time":6.125,"velocity":0.7086614173228346,"duration":0.25},{"name":"C4","midi":60,"time":6.375,"velocity":0.7086614173228346,"duration":1},{"name":"A3","midi":57,"time":7.375,"velocity":0.7086614173228346,"duration":1},{"name":"E3","midi":52,"time":8.375,"velocity":0.7086614173228346,"duration":0.25},{"name":"F3","midi":53,"time":8.625,"velocity":0.7086614173228346,"duration":0.25},{"name":"A3","midi":57,"time":8.875,"velocity":0.7086614173228346,"duration":1},{"name":"G3","midi":55,"time":9.875,"velocity":0.7086614173228346,"duration":0.5},{"name":"G3","midi":55,"time":10.375,"velocity":0.7086614173228346,"duration":0.25},{"name":"F3","midi":53,"time":10.625,"velocity":0.7086614173228346,"duration":0.5}],"controlChanges":{},"id":0,"channelNumber":0,"isPercussion":false}]}