{"header":{"PPQ":128,"bpm":120,"name":""},"startTime":0,"duration":1,"tracks":[{"startTime":0,"duration":1,"length":20,"notes":[{"name":"C#3","midi":49,"time":0,"velocity":0.7086614173228346,"duration":0.5},{"name":"F3","midi":53,"time":0,"velocity":0.7086614173228346,"duration":0.5},{"name":"D#4","midi":63,"time":0,"velocity":0.7086614173228346,"duration":0.5},{"name":"E4","midi":64,"time":0,"velocity":0.7086614173228346,"duration":0.5},{"name":"C#5","midi":73,"time":0,"velocity":0.7086614173228346,"duration":0.5},{"name":"F5","midi":77,"time":0,"velocity":0.7086614173228346,"duration":0.5},{"name":"C6","midi":84,"time":0,"velocity":0.7086614173228346,"duration":0.5},{"name":"D6","midi":86,"time":0,"velocity":0.7086614173228346,"duration":0.5},{"name":"F#6","midi":90,"time":0,"velocity":0.7086614173228346,"duration":0.5},{"name":"D#7","midi":99,"time":0,"velocity":0.7086614173228346,"duration":0.5},{"name":"G7","midi":103,"time":0,"velocity":0.7086614173228346,"duration":0.5},{"name":"E3","midi":52,"time":0.5,"velocity":0.7086614173228346,"duration":0.5},{"name":"C#4","midi":61,"time":0.5,"velocity":0.7086614173228346,"duration":0.5},{"name":"F4","midi":65,"time":0.5,"velocity":0.7086614173228346,"duration":0.5},{"name":"C#5","midi":73,"time":0.5,"velocity":0.7086614173228346,"duration":0.5},{"name":"G5","midi":79,"time":0.5,"velocity":0.7086614173228346,"duration":0.5},{"name":"C6","midi":84,"time":0.5,"velocity":0.7086614173228346,"duration":0.5},{"name":"E6","midi":88,"time":0.5,"velocity":0.7086614173228346,"duration":0.5},{"name":"F#6","midi":90,"time":0.5,"velocity":0.7086614173228346,"duration":0.5},{"name":"F#7","midi":102,"time":0.5,"velocity":0.7086614173228346,"duration":0.5}],"controlChanges":{},"id":0,"channelNumber":0,"isPercussion":false}]}