{"header":{"PPQ":128,"bpm":120,"name":""},"startTime":0,"duration":13.625,"tracks":[{"startTime":0,"duration":13.625,"length":21,"notes":[{"name":"A4","midi":69,"time":0,"velocity":0.7086614173228346,"duration":1},{"name":"F4","midi":65,"time":1,"velocity":0.7086614173228346,"duration":0.5},{"name":"E4","midi":64,"time":1.5,"velocity":0.7086614173228346,"duration":1},{"name":"E4","midi":64,"time":2.5,"velocity":0.7086614173228346,"duration":0.5},{"name":"A4","midi":69,"time":3,"velocity":0.7086614173228346,"duration":1},{"name":"G4","midi":67,"time":4,"velocity":0.7086614173228346,"duration":0.5},{"name":"C5","midi":72,"time":4.5,"velocity":0.7086614173228346,"duration":1},{"name":"A4","midi":69,"time":5.5,"velocity":0.7086614173228346,"duration":0.5},{"name":"B4","midi":71,"time":6,"velocity":0.7086614173228346,"duration":0.5},{"name":"E5","midi":76,"time":6.5,"velocity":0.7086614173228346,"duration":1},{"name":"D5","midi":74,"time":7.5,"velocity":0.7086614173228346,"duration":0.25},{"name":"G5","midi":79,"time":7.75,"velocity":0.7086614173228346,"duration":0.125},{"name":"E5","midi":76,"time":7.875,"velocity":0.7086614173228346,"duration":0.5},{"name":"A5","midi":81,"time":8.375,"velocity":0.7086614173228346,"duration":1},{"name":"F5","midi":77,"time":9.375,"velocity":0.7086614173228346,"duration":0.5},{"name":"A5","midi":81,"time":9.875,"velocity":0.7086614173228346,"duration":1},{"name":"D6","midi":86,"time":10.875,"velocity":0.7086614173228346,"duration":0.25},{"name":"C6","midi":84,"time":11.125,"velocity":0.7086614173228346,"duration":1},{"name":"D6","midi":86,"time":12.125,"velocity":0.7086614173228346,"duration":0.5},{"name":"B5","midi":83,"time":12.625,"velocity":0.7086614173228346,"duration":0.5},{"name":"B5","midi":83,"time":13.125,"velocity":0.7086614173228346,"duration":0.5}],"controlChanges":{},"id":0,"channelNumber":0,"isPercussion":false}]}