{"header":{"PPQ":128,"bpm":120,"name":""},"startTime":0,"duration":12.375,"tracks":[{"startTime":0,"duration":12.375,"length":20,"notes":[{"name":"C5","midi":72,"time":0,"velocity":0.7086614173228346,"duration":1},{"name":"A4","midi":69,"time":1,"velocity":0.7086614173228346,"duration":1},{"name":"F4","midi":65,"time":2,"velocity":0.7086614173228346,"duration":0.25},{"name":"A4","midi":69,"time":2.25,"velocity":0.7086614173228346,"duration":1},{"name":"E4","midi":64,"time":3.25,"velocity":0.7086614173228346,"duration":0.5},{"name":"B3","midi":59,"time":3.75,"velocity":0.7086614173228346,"duration":0.25},{"name":"A3","midi":57,"time":4,"velocity":0.7086614173228346,"duration":1},{"name":"G3","midi":55,"time":5,"velocity":0.7086614173228346,"duration":0.125},{"name":"B3","midi":59,"time":5.125,"velocity":0.7086614173228346,"duration":1},{"name":"B3","midi":59,"time":6.125,"velocity":0.7086614173228346,"duration":0.5},{"name":"G3","midi":55,"time":6.625,"velocity":0.7086614173228346,"duration":1},{"name":"G3","midi":55,"time":7.625,"velocity":0.7086614173228346,"duration":0.5},{"name":"A3","midi":57,"time":8.125,"velocity":0.7086614173228346,"duration":0.25},{"name":"G3","midi":55,"time":8.375,"velocity":0.7086614173228346,"duration":0.5},{"name":"B3","midi":59,"time":8.875,"velocity":0.7086614173228346,"duration":0.5},{"name":"A3","midi":57,"time":9.375,"velocity":0.7086614173228346,"duration":0.25},{"name":"B3","midi":59,"time":9.625,"velocity":0.7086614173228346,"duration":0.5},{"name":"D4","midi":62,"time":10.125,"velocity":0.7086614173228346,"duration":1},{"name":"E4","midi":64,"time":11.125,"velocity":0.7086614173228346,"duration":1},{"name":"E4","midi":64,"time":12.125,"velocity":0.7086614173228346,"duration":0.25}],"controlChanges":{},"id":0,"channelNumber":0,"isPercussion":false}]}