{"header":{"PPQ":128,"bpm":120,"name":""},"startTime":0,"duration":1,"tracks":[{"startTime":0,"duration":1,"length":23,"notes":[{"name":"C3","midi":48,"time":0,"velocity":0.7086614173228346,"duration":0.5},{"name":"D3","midi":50,"time":0,"velocity":0.7086614173228346,"duration":0.5},{"name":"C#4","midi":61,"time":0,"velocity":0.7086614173228346,"duration":0.5},{"name":"F4","midi":65,"time":0,"velocity":0.7086614173228346,"duration":0.5},{"name":"C#5","midi":73,"time":0,"velocity":0.7086614173228346,"duration":0.5},{"name":"D#5","midi":75,"time":0,"velocity":0.7086614173228346,"duration":0.5},{"name":"C6","midi":84,"time":0,"velocity":0.7086614173228346,"duration":0.5},{"name":"B6","midi":95,"time":0,"velocity":0.7086614173228346,"duration":0.5},{"name":"F7","midi":101,"time":0,"velocity":0.7086614173228346,"duration":0.5},{"name":"C#8","midi":109,"time":0,"velocity":0.7086614173228346,"duration":0.5},{"name":"G8","midi":115,"time":0,"velocity":0.7086614173228346,"duration":0.5},{"name":"F#9","midi":126,"time":0,"velocity":0.7086614173228346,"duration":0.5},{"name":"G9","midi":127,"time":0,"velocity":0.7086614173228346,"duration":0.5},{"name":"E3","midi":52,"time":0.5,"velocity":0.7086614173228346,"duration":0.5},{"name":"C#4","midi":61,"time":0.5,"velocity":0.7086614173228346,"duration":0.5},{"name":"A4","midi":69,"time":0.5,"velocity":0.7086614173228346,"duration":0.5},{"name":"G5","midi":79,"time":0.5,"velocity":0.7086614173228346,"duration":0.5},{"name":"G#5","midi":80,"time":0.5,"velocity":0.7086614173228346,"duration":0.5},{"name":"F6","midi":89,"time":0.5,"velocity":0.7086614173228346,"duration":0.5},{"name":"F#6","midi":90,"time":0.5,"velocity":0.7086614173228346,"duration":0.5},{"name":"C#7","midi":97,"time":0.5,"velocity":0.7086614173228346,"duration":0.5},{"name":"F7","midi":101,"time":0.5,"velocity":0.7086614173228346,"duration":0.5},{"name":"C#8","midi":109,"time":0.5,"velocity":0.7086614173228346,"duration":0.5}],"controlChanges":{},"id":0,"channelNumber":0,"isPercussion":false}]}