{"header":{"PPQ":128,"bpm":120,"name":""},"startTime":0,"duration":14.125,"tracks":[{"startTime":0,"duration":14.125,"length":24,"notes":[{"name":"C5","midi":72,"time":0,"velocity":0.7086614173228346,"duration":1},{"name":"A4","midi":69,"time":1,"velocity":0.7086614173228346,"duration":0.5},{"name":"A4","midi":69,"time":1.5,"velocity":0.7086614173228346,"duration":1},{"name":"F4","midi":65,"time":2.5,"velocity":0.7086614173228346,"duration":0.5},{"name":"A4","midi":69,"time":3,"velocity":0.7086614173228346,"duration":1},{"name":"E4","midi":64,"time":4,"velocity":0.7086614173228346,"duration":1},{"name":"C4","midi":60,"time":5,"velocity":0.7086614173228346,"duration":1},{"name":"D4","midi":62,"time":6,"velocity":0.7086614173228346,"duration":0.125},{"name":"B3","midi":59,"time":6.125,"velocity":0.7086614173228346,"duration":0.25},{"name":"A3","midi":57,"time":6.375,"velocity":0.7086614173228346,"duration":1},{"name":"D4","midi":62,"time":7.375,"velocity":0.7086614173228346,"duration":0.25},{"name":"B3","midi":59,"time":7.625,"velocity":0.7086614173228346,"duration":0.5},{"name":"E4","midi":64,"time":8.125,"velocity":0.7086614173228346,"duration":0.25},{"name":"G4","midi":67,"time":8.375,"velocity":0.7086614173228346,"duration":0.125},{"name":"E4","midi":64,"time":8.5,"velocity":0.7086614173228346,"duration":0.5},{"name":"A4","midi":69,"time":9,"velocity":0.7086614173228346,"duration":1},{"name":"B4","midi":71,"time":10,"velocity":0.7086614173228346,"duration":0.125},{"name":"E5","midi":76,"time":10.125,"velocity":0.7086614173228346,"duration":0.25},{"name":"A5","midi":81,"time":10.375,"velocity":0.7086614173228346,"duration":0.25},{"name":"G5","midi":79,"time":10.625,"velocity":0.7086614173228346,"duration":0.5},{"name":"B5","midi":83,"time":11.125,"velocity":0.7086614173228346,"duration":0.5},{"name":"A5","midi":81,"time":11.625,"velocity":0.7086614173228346,"duration":1},{"name":"G5","midi":79,"time":12.625,"velocity":0.7086614173228346,"duration":0.5},{"name":"A5","midi":81,"time":13.125,"velocity":0.7086614173228346,"duration":1}],"controlChanges":{},"id":0,"channelNumber":0,"isPercussion":false}]}