{"header":{"PPQ":128,"bpm":120,"name":""},"startTime":0,"duration":1,"tracks":[{"startTime":0,"duration":1,"length":21,"notes":[{"name":"C3","midi":48,"time":0,"velocity":0.7086614173228346,"duration":0.5},{"name":"A#3","midi":58,"time":0,"velocity":0.7086614173228346,"duration":0.5},{"name":"F4","midi":65,"time":0,"velocity":0.7086614173228346,"duration":0.5},{"name":"G4","midi":67,"time":0,"velocity":0.7086614173228346,"duration":0.5},{"name":"D#5","midi":75,"time":0,"velocity":0.7086614173228346,"duration":0.5},{"name":"G5","midi":79,"time":0,"velocity":0.7086614173228346,"duration":0.5},{"name":"G6","midi":91,"time":0,"velocity":0.7086614173228346,"duration":0.5},{"name":"A#6","midi":94,"time":0,"velocity":0.7086614173228346,"duration":0.5},{"name":"G7","midi":103,"time":0,"velocity":0.7086614173228346,"duration":0.5},{"name":"F3","midi":53,"time":0.5,"velocity":0.7086614173228346,"duration":0.5},{"name":"G#3","midi":56,"time":0.5,"velocity":0.7086614173228346,"duration":0.5},{"name":"G#4","midi":68,"time":0.5,"velocity":0.7086614173228346,"duration":0.5},{"name":"A4","midi":69,"time":0.5,"velocity":0.7086614173228346,"duration":0.5},{"name":"E5","midi":76,"time":0.5,"velocity":0.7086614173228346,"duration":0.5},{"name":"C#6","midi":85,"time":0.5,"velocity":0.7086614173228346,"duration":0.5},{"name":"A6","midi":93,"time":0.5,"velocity":0.7086614173228346,"duration":0.5},{"name":"D#7","midi":99,"time":0.5,"velocity":0.7086614173228346,"duration":0.5},{"name":"F7","midi":101,"time":0.5,"velocity":0.7086614173228346,"duration":0.5},{"name":"G7","midi":103,"time":0.5,"velocity":0.7086614173228346,"duration":0.5},{"name":"F#8","midi":114,"time":0.5,"velocity":0.7086614173228346,"duration":0.5},{"name":"G8","midi":115,"time":0.5,"velocity":0.7086614173228346,"duration":0.5}],"controlChanges":{},"id":0,"channelNumber":0,"isPercussion":false}]}