{"header":{"PPQ":128,"bpm":120,"name":""},"startTime":0,"duration":9.375,"tracks":[{"startTime":0,"duration":9.375,"length":22,"notes":[{"name":"C5","midi":72,"time":0,"velocity":0.7086614173228346,"duration":1},{"name":"G4","midi":67,"time":1,"velocity":0.7086614173228346,"duration":0.25},{"name":"B4","midi":71,"time":1.25,"velocity":0.7086614173228346,"duration":0.25},{"name":"D5","midi":74,"time":1.5,"velocity":0.7086614173228346,"duration":0.25},{"name":"E5","midi":76,"time":1.75,"velocity":0.7086614173228346,"duration":1},{"name":"E5","midi":76,"time":2.75,"velocity":0.7086614173228346,"duration":0.25},{"name":"E5","midi":76,"time":3,"velocity":0.7086614173228346,"duration":0.25},{"name":"G5","midi":79,"time":3.25,"velocity":0.7086614173228346,"duration":0.25},{"name":"E5","midi":76,"time":3.5,"velocity":0.7086614173228346,"duration":0.25},{"name":"G5","midi":79,"time":3.75,"velocity":0.7086614173228346,"duration":0.125},{"name":"G5","midi":79,"time":3.875,"velocity":0.7086614173228346,"duration":0.5},{"name":"A5","midi":81,"time":4.375,"velocity":0.7086614173228346,"duration":0.25},{"name":"A5","midi":81,"time":4.625,"velocity":0.7086614173228346,"duration":0.25},{"name":"F5","midi":77,"time":4.875,"velocity":0.7086614173228346,"duration":0.25},{"name":"D5","midi":74,"time":5.125,"velocity":0.7086614173228346,"duration":0.5},{"name":"A4","midi":69,"time":5.625,"velocity":0.7086614173228346,"duration":1},{"name":"F4","midi":65,"time":6.625,"velocity":0.7086614173228346,"duration":0.25},{"name":"E4","midi":64,"time":6.875,"velocity":0.7086614173228346,"duration":1},{"name":"G4","midi":67,"time":7.875,"velocity":0.7086614173228346,"duration":0.5},{"name":"E4","midi":64,"time":8.375,"velocity":0.7086614173228346,"duration":0.25},{"name":"B3","midi":59,"time":8.625,"velocity":0.7086614173228346,"duration":0.5},{"name":"E4","midi":64,"time":9.125,"velocity":0.7086614173228346,"duration":0.25}],"controlChanges":{},"id":0,"channelNumber":0,"isPercussion":false}]}