{"header":{"PPQ":128,"bpm":120,"name":""},"startTime":0,"duration":11.25,"tracks":[{"startTime":0,"duration":11.25,"length":20,"notes":[{"name":"E4","midi":64,"time":0,"velocity":0.7086614173228346,"duration":0.5},{"name":"A4","midi":69,"time":0.5,"velocity":0.7086614173228346,"duration":1},{"name":"B4","midi":71,"time":1.5,"velocity":0.7086614173228346,"duration":1},{"name":"G4","midi":67,"time":2.5,"velocity":0.7086614173228346,"duration":0.25},{"name":"D4","midi":62,"time":2.75,"velocity":0.7086614173228346,"duration":0.25},{"name":"G4","midi":67,"time":3,"velocity":0.7086614173228346,"duration":0.5},{"name":"G4","midi":67,"time":3.5,"velocity":0.7086614173228346,"duration":0.25},{"name":"F4","midi":65,"time":3.75,"velocity":0.7086614173228346,"duration":0.5},{"name":"G4","midi":67,"time":4.25,"velocity":0.7086614173228346,"duration":0.125},{"name":"A4","midi":69,"time":4.375,"velocity":0.7086614173228346,"duration":1},{"name":"G4","midi":67,"time":5.375,"velocity":0.7086614173228346,"duration":0.5},{"name":"A4","midi":69,"time":5.875,"velocity":0.7086614173228346,"duration":1},{"name":"G4","midi":67,"time":6.875,"velocity":0.7086614173228346,"duration":1},{"name":"D4","midi":62,"time":7.875,"velocity":0.7086614173228346,"duration":0.125},{"name":"D4","midi":62,"time":8,"velocity":0.7086614173228346,"duration":0.25},{"name":"A3","midi":57,"time":8.25,"velocity":0.7086614173228346,"duration":0.25},{"name":"B3","midi":59,"time":8.5,"velocity":0.7086614173228346,"duration":0.5},{"name":"D4","midi":62,"time":9,"velocity":0.7086614173228346,"duration":1},{"name":"E4","midi":64,"time":10,"velocity":0.7086614173228346,"duration":1},{"name":"E4","midi":64,"time":11,"velocity":0.7086614173228346,"duration":0.25}],"controlChanges":{},"id":0,"channelNumber":0,"isPercussion":false}]}