{"header":{"PPQ":128,"bpm":120,"name":""},"startTime":0,"duration":13.75,"tracks":[{"startTime":0,"duration":13.75,"length":28,"notes":[{"name":"F4","midi":65,"time":0,"velocity":0.7086614173228346,"duration":0.5},{"name":"E4","midi":64,"time":0.5,"velocity":0.7086614173228346,"duration":1},{"name":"F4","midi":65,"time":1.5,"velocity":0.7086614173228346,"duration":0.25},{"name":"A4","midi":69,"time":1.75,"velocity":0.7086614173228346,"duration":1},{"name":"E4","midi":64,"time":2.75,"velocity":0.7086614173228346,"duration":0.25},{"name":"E4","midi":64,"time":3,"velocity":0.7086614173228346,"duration":1},{"name":"C4","midi":60,"time":4,"velocity":0.7086614173228346,"duration":0.25},{"name":"G3","midi":55,"time":4.25,"velocity":0.7086614173228346,"duration":0.25},{"name":"A3","midi":57,"time":4.5,"velocity":0.7086614173228346,"duration":0.25},{"name":"B3","midi":59,"time":4.75,"velocity":0.7086614173228346,"duration":0.5},{"name":"A3","midi":57,"time":5.25,"velocity":0.7086614173228346,"duration":1},{"name":"G3","midi":55,"time":6.25,"velocity":0.7086614173228346,"duration":0.125},{"name":"G3","midi":55,"time":6.375,"velocity":0.7086614173228346,"duration":1},{"name":"E3","midi":52,"time":7.375,"velocity":0.7086614173228346,"duration":0.5},{"name":"D3","midi":50,"time":7.875,"velocity":0.7086614173228346,"duration":0.125},{"name":"B2","midi":47,"time":8,"velocity":0.7086614173228346,"duration":0.25},{"name":"F2","midi":41,"time":8.25,"velocity":0.7086614173228346,"duration":0.25},{"name":"A2","midi":45,"time":8.5,"velocity":0.7086614173228346,"duration":0.25},{"name":"E2","midi":40,"time":8.75,"velocity":0.7086614173228346,"duration":0.25},{"name":"F2","midi":41,"time":9,"velocity":0.7086614173228346,"duration":0.25},{"name":"D2","midi":38,"time":9.25,"velocity":0.7086614173228346,"duration":0.25},{"name":"A1","midi":33,"time":9.5,"velocity":0.7086614173228346,"duration":0.25},{"name":"B1","midi":35,"time":9.75,"velocity":0.7086614173228346,"duration":1},{"name":"A1","midi":33,"time":10.75,"velocity":0.7086614173228346,"duration":0.25},{"name":"B1","midi":35,"time":11,"velocity":0.7086614173228346,"duration":0.5},{"name":"D2","midi":38,"time":11.5,"velocity":0.7086614173228346,"duration":1},{"name":"E2","midi":40,"time":12.5,"velocity":0.7086614173228346,"duration":1},{"name":"E2","midi":40,"time":13.5,"velocity":0.7086614173228346,"duration":0.25}],"controlChanges":{},"id":0,"channelNumber":0,"isPercussion":false}]}