{"header":{"PPQ":128,"bpm":120,"name":""},"startTime":0,"duration":1,"tracks":[{"startTime":0,"duration":1,"length":27,"notes":[{"name":"F3","midi":53,"time":0,"velocity":0.7086614173228346,"duration":0.5},{"name":"D#4","midi":63,"time":0,"velocity":0.7086614173228346,"duration":0.5},{"name":"A4","midi":69,"time":0,"velocity":0.7086614173228346,"duration":0.5},{"name":"C#5","midi":73,"time":0,"velocity":0.7086614173228346,"duration":0.5},{"name":"G5","midi":79,"time":0,"velocity":0.7086614173228346,"duration":0.5},{"name":"D#6","midi":87,"time":0,"velocity":0.7086614173228346,"duration":0.5},{"name":"G6","midi":91,"time":0,"velocity":0.7086614173228346,"duration":0.5},{"name":"A#6","midi":94,"time":0,"velocity":0.7086614173228346,"duration":0.5},{"name":"G#7","midi":104,"time":0,"velocity":0.7086614173228346,"duration":0.5},{"name":"F#8","midi":114,"time":0,"velocity":0.7086614173228346,"duration":0.5},{"name":"C#9","midi":121,"time":0,"velocity":0.7086614173228346,"duration":0.5},{"name":"D3","midi":50,"time":0.5,"velocity":0.7086614173228346,"duration":0.5},{"name":"E3","midi":52,"time":0.5,"velocity":0.7086614173228346,"duration":0.5},{"name":"B3","midi":59,"time":0.5,"velocity":0.7086614173228346,"duration":0.5},{"name":"F4","midi":65,"time":0.5,"velocity":0.7086614173228346,"duration":0.5},{"name":"A4","midi":69,"time":0.5,"velocity":0.7086614173228346,"duration":0.5},{"name":"G#5","midi":80,"time":0.5,"velocity":0.7086614173228346,"duration":0.5},{"name":"G6","midi":91,"time":0.5,"velocity":0.7086614173228346,"duration":0.5},{"name":"A6","midi":93,"time":0.5,"velocity":0.7086614173228346,"duration":0.5},{"name":"G7","midi":103,"time":0.5,"velocity":0.7086614173228346,"duration":0.5},{"name":"G#7","midi":104,"time":0.5,"velocity":0.7086614173228346,"duration":0.5},{"name":"C8","midi":108,"time":0.5,"velocity":0.7086614173228346,"duration":0.5},{"name":"G#8","midi":116,"time":0.5,"velocity":0.7086614173228346,"duration":0.5},{"name":"F#9","midi":126,"time":0.5,"velocity":0.7086614173228346,"duration":0.5},{"name":"C10","midi":132,"time":0.5,"velocity":0.7086614173228346,"duration":0.5},{"name":"D#10","midi":135,"time":0.5,"velocity":0.7086614173228346,"duration":0.5},{"name":"G10","midi":139,"time":0.5,"velocity":0.7086614173228346,"duration":0.5}],"controlChanges":{},"id":0,"channelNumber":0,"isPercussion":false}]}