{"header":{"PPQ":128,"bpm":120,"name":""},"startTime":0,"duration":3.5,"tracks":[{"startTime":0,"duration":3.5,"length":28,"notes":[{"name":"E5","midi":76,"time":0,"velocity":0.7086614173228346,"duration":0.125},{"name":"A3","midi":57,"time":0.125,"velocity":0.7086614173228346,"duration":0.125},{"name":"F#4","midi":66,"time":0.25,"velocity":0.7086614173228346,"duration":0.125},{"name":"D3","midi":50,"time":0.375,"velocity":0.7086614173228346,"duration":0.125},{"name":"F#3","midi":54,"time":0.5,"velocity":0.7086614173228346,"duration":0.125},{"name":"A3","midi":57,"time":0.625,"velocity":0.7086614173228346,"duration":0.125},{"name":"C#3","midi":49,"time":0.75,"velocity":0.7086614173228346,"duration":0.125},{"name":"D5","midi":74,"time":0.875,"velocity":0.7086614173228346,"duration":0.125},{"name":"A#5","midi":82,"time":1,"velocity":0.7086614173228346,"duration":0.125},{"name":"F#5","midi":78,"time":1.125,"velocity":0.7086614173228346,"duration":0.125},{"name":"D3","midi":50,"time":1.25,"velocity":0.7086614173228346,"duration":0.125},{"name":"C4","midi":60,"time":1.375,"velocity":0.7086614173228346,"duration":0.125},{"name":"G4","midi":67,"time":1.5,"velocity":0.7086614173228346,"duration":0.125},{"name":"B5","midi":83,"time":1.625,"velocity":0.7086614173228346,"duration":0.125},{"name":"A#4","midi":70,"time":1.75,"velocity":0.7086614173228346,"duration":0.125},{"name":"D6","midi":86,"time":1.875,"velocity":0.7086614173228346,"duration":0.125},{"name":"F#4","midi":66,"time":2,"velocity":0.7086614173228346,"duration":0.125},{"name":"A#5","midi":82,"time":2.125,"velocity":0.7086614173228346,"duration":0.125},{"name":"F#3","midi":54,"time":2.25,"velocity":0.7086614173228346,"duration":0.125},{"name":"F#4","midi":66,"time":2.375,"velocity":0.7086614173228346,"duration":0.125},{"name":"D4","midi":62,"time":2.5,"velocity":0.7086614173228346,"duration":0.125},{"name":"A#5","midi":82,"time":2.625,"velocity":0.7086614173228346,"duration":0.125},{"name":"G#4","midi":68,"time":2.75,"velocity":0.7086614173228346,"duration":0.125},{"name":"A#5","midi":82,"time":2.875,"velocity":0.7086614173228346,"duration":0.125},{"name":"F#5","midi":78,"time":3,"velocity":0.7086614173228346,"duration":0.125},{"name":"A#3","midi":58,"time":3.125,"velocity":0.7086614173228346,"duration":0.125},{"name":"A3","midi":57,"time":3.25,"velocity":0.7086614173228346,"duration":0.125},{"name":"F#3","midi":54,"time":3.375,"velocity":0.7086614173228346,"duration":0.125}],"controlChanges":{},"id":0,"channelNumber":0,"isPercussion":false}]}