{"header":{"PPQ":128,"bpm":120,"name":""},"startTime":0,"duration":11.375,"tracks":[{"startTime":0,"duration":11.375,"length":21,"notes":[{"name":"B4","midi":71,"time":0,"velocity":0.7086614173228346,"duration":0.25},{"name":"E5","midi":76,"time":0.25,"velocity":0.7086614173228346,"duration":0.5},{"name":"A5","midi":81,"time":0.75,"velocity":0.7086614173228346,"duration":1},{"name":"F5","midi":77,"time":1.75,"velocity":0.7086614173228346,"duration":0.25},{"name":"A5","midi":81,"time":2,"velocity":0.7086614173228346,"duration":1},{"name":"G5","midi":79,"time":3,"velocity":0.7086614173228346,"duration":0.5},{"name":"G5","midi":79,"time":3.5,"velocity":0.7086614173228346,"duration":0.25},{"name":"E5","midi":76,"time":3.75,"velocity":0.7086614173228346,"duration":0.25},{"name":"G5","midi":79,"time":4,"velocity":0.7086614173228346,"duration":0.125},{"name":"G5","midi":79,"time":4.125,"velocity":0.7086614173228346,"duration":0.125},{"name":"G5","midi":79,"time":4.25,"velocity":0.7086614173228346,"duration":0.125},{"name":"A5","midi":81,"time":4.375,"velocity":0.7086614173228346,"duration":1},{"name":"C6","midi":84,"time":5.375,"velocity":0.7086614173228346,"duration":1},{"name":"E6","midi":88,"time":6.375,"velocity":0.7086614173228346,"duration":1},{"name":"D6","midi":86,"time":7.375,"velocity":0.7086614173228346,"duration":0.25},{"name":"B5","midi":83,"time":7.625,"velocity":0.7086614173228346,"duration":0.5},{"name":"F5","midi":77,"time":8.125,"velocity":0.7086614173228346,"duration":1},{"name":"A5","midi":81,"time":9.125,"velocity":0.7086614173228346,"duration":0.25},{"name":"E5","midi":76,"time":9.375,"velocity":0.7086614173228346,"duration":0.5},{"name":"B4","midi":71,"time":9.875,"velocity":0.7086614173228346,"duration":0.5},{"name":"A4","midi":69,"time":10.375,"velocity":0.7086614173228346,"duration":1}],"controlChanges":{},"id":0,"channelNumber":0,"isPercussion":false}]}