{"header":{"PPQ":128,"bpm":120,"name":""},"startTime":0,"duration":12.625,"tracks":[{"startTime":0,"duration":12.625,"length":23,"notes":[{"name":"B4","midi":71,"time":0,"velocity":0.7086614173228346,"duration":0.25},{"name":"F4","midi":65,"time":0.25,"velocity":0.7086614173228346,"duration":0.25},{"name":"E4","midi":64,"time":0.5,"velocity":0.7086614173228346,"duration":1},{"name":"D4","midi":62,"time":1.5,"velocity":0.7086614173228346,"duration":0.25},{"name":"A3","midi":57,"time":1.75,"velocity":0.7086614173228346,"duration":0.25},{"name":"C4","midi":60,"time":2,"velocity":0.7086614173228346,"duration":1},{"name":"A3","midi":57,"time":3,"velocity":0.7086614173228346,"duration":1},{"name":"D4","midi":62,"time":4,"velocity":0.7086614173228346,"duration":0.25},{"name":"D4","midi":62,"time":4.25,"velocity":0.7086614173228346,"duration":0.125},{"name":"A3","midi":57,"time":4.375,"velocity":0.7086614173228346,"duration":1},{"name":"G3","midi":55,"time":5.375,"velocity":0.7086614173228346,"duration":0.125},{"name":"F3","midi":53,"time":5.5,"velocity":0.7086614173228346,"duration":1},{"name":"D3","midi":50,"time":6.5,"velocity":0.7086614173228346,"duration":0.25},{"name":"A2","midi":45,"time":6.75,"velocity":0.7086614173228346,"duration":1},{"name":"C3","midi":48,"time":7.75,"velocity":0.7086614173228346,"duration":0.125},{"name":"B2","midi":47,"time":7.875,"velocity":0.7086614173228346,"duration":0.5},{"name":"G2","midi":43,"time":8.375,"velocity":0.7086614173228346,"duration":0.5},{"name":"B2","midi":47,"time":8.875,"velocity":0.7086614173228346,"duration":0.5},{"name":"F2","midi":41,"time":9.375,"velocity":0.7086614173228346,"duration":1},{"name":"A2","midi":45,"time":10.375,"velocity":0.7086614173228346,"duration":0.25},{"name":"E2","midi":40,"time":10.625,"velocity":0.7086614173228346,"duration":0.5},{"name":"B1","midi":35,"time":11.125,"velocity":0.7086614173228346,"duration":0.5},{"name":"A1","midi":33,"time":11.625,"velocity":0.7086614173228346,"duration":1}],"controlChanges":{},"id":0,"channelNumber":0,"isPercussion":false}]}