{"header":{"PPQ":128,"bpm":120,"name":""},"startTime":0,"duration":1,"tracks":[{"startTime":0,"duration":1,"length":22,"notes":[{"name":"F3","midi":53,"time":0,"velocity":0.7086614173228346,"duration":0.5},{"name":"A3","midi":57,"time":0,"velocity":0.7086614173228346,"duration":0.5},{"name":"D#4","midi":63,"time":0,"velocity":0.7086614173228346,"duration":0.5},{"name":"G4","midi":67,"time":0,"velocity":0.7086614173228346,"duration":0.5},{"name":"G#4","midi":68,"time":0,"velocity":0.7086614173228346,"duration":0.5},{"name":"C5","midi":72,"time":0,"velocity":0.7086614173228346,"duration":0.5},{"name":"C#5","midi":73,"time":0,"velocity":0.7086614173228346,"duration":0.5},{"name":"G5","midi":79,"time":0,"velocity":0.7086614173228346,"duration":0.5},{"name":"B5","midi":83,"time":0,"velocity":0.7086614173228346,"duration":0.5},{"name":"C#6","midi":85,"time":0,"velocity":0.7086614173228346,"duration":0.5},{"name":"D3","midi":50,"time":0.5,"velocity":0.7086614173228346,"duration":0.5},{"name":"G3","midi":55,"time":0.5,"velocity":0.7086614173228346,"duration":0.5},{"name":"C#4","midi":61,"time":0.5,"velocity":0.7086614173228346,"duration":0.5},{"name":"B4","midi":71,"time":0.5,"velocity":0.7086614173228346,"duration":0.5},{"name":"F#5","midi":78,"time":0.5,"velocity":0.7086614173228346,"duration":0.5},{"name":"F6","midi":89,"time":0.5,"velocity":0.7086614173228346,"duration":0.5},{"name":"F#6","midi":90,"time":0.5,"velocity":0.7086614173228346,"duration":0.5},{"name":"D7","midi":98,"time":0.5,"velocity":0.7086614173228346,"duration":0.5},{"name":"G#7","midi":104,"time":0.5,"velocity":0.7086614173228346,"duration":0.5},{"name":"E8","midi":112,"time":0.5,"velocity":0.7086614173228346,"duration":0.5},{"name":"F#8","midi":114,"time":0.5,"velocity":0.7086614173228346,"duration":0.5},{"name":"C#9","midi":121,"time":0.5,"velocity":0.7086614173228346,"duration":0.5}],"controlChanges":{},"id":0,"channelNumber":0,"isPercussion":false}]}