{"header":{"PPQ":128,"bpm":120,"name":""},"startTime":0,"duration":14.125,"tracks":[{"startTime":0,"duration":14.125,"length":24,"notes":[{"name":"E4","midi":64,"time":0,"velocity":0.7086614173228346,"duration":0.25},{"name":"E4","midi":64,"time":0.25,"velocity":0.7086614173228346,"duration":1},{"name":"C4","midi":60,"time":1.25,"velocity":0.7086614173228346,"duration":0.25},{"name":"G3","midi":55,"time":1.5,"velocity":0.7086614173228346,"duration":0.25},{"name":"A3","midi":57,"time":1.75,"velocity":0.7086614173228346,"duration":0.25},{"name":"B3","midi":59,"time":2,"velocity":0.7086614173228346,"duration":0.5},{"name":"A3","midi":57,"time":2.5,"velocity":0.7086614173228346,"duration":1},{"name":"D4","midi":62,"time":3.5,"velocity":0.7086614173228346,"duration":1},{"name":"E4","midi":64,"time":4.5,"velocity":0.7086614173228346,"duration":1},{"name":"G4","midi":67,"time":5.5,"velocity":0.7086614173228346,"duration":0.5},{"name":"D4","midi":62,"time":6,"velocity":0.7086614173228346,"duration":1},{"name":"D4","midi":62,"time":7,"velocity":0.7086614173228346,"duration":0.25},{"name":"A3","midi":57,"time":7.25,"velocity":0.7086614173228346,"duration":0.25},{"name":"G3","midi":55,"time":7.5,"velocity":0.7086614173228346,"duration":0.5},{"name":"G3","midi":55,"time":8,"velocity":0.7086614173228346,"duration":0.125},{"name":"G3","midi":55,"time":8.125,"velocity":0.7086614173228346,"duration":1},{"name":"B3","midi":59,"time":9.125,"velocity":0.7086614173228346,"duration":0.5},{"name":"G3","midi":55,"time":9.625,"velocity":0.7086614173228346,"duration":1},{"name":"A3","midi":57,"time":10.625,"velocity":0.7086614173228346,"duration":1},{"name":"G3","midi":55,"time":11.625,"velocity":0.7086614173228346,"duration":0.5},{"name":"F3","midi":53,"time":12.125,"velocity":0.7086614173228346,"duration":0.25},{"name":"E3","midi":52,"time":12.375,"velocity":0.7086614173228346,"duration":1},{"name":"G3","midi":55,"time":13.375,"velocity":0.7086614173228346,"duration":0.25},{"name":"F3","midi":53,"time":13.625,"velocity":0.7086614173228346,"duration":0.5}],"controlChanges":{},"id":0,"channelNumber":0,"isPercussion":false}]}