{"header":{"PPQ":128,"bpm":120,"name":""},"startTime":0,"duration":1,"tracks":[{"startTime":0,"duration":1,"length":23,"notes":[{"name":"G3","midi":55,"time":0,"velocity":0.7086614173228346,"duration":0.5},{"name":"D#4","midi":63,"time":0,"velocity":0.7086614173228346,"duration":0.5},{"name":"G4","midi":67,"time":0,"velocity":0.7086614173228346,"duration":0.5},{"name":"A#4","midi":70,"time":0,"velocity":0.7086614173228346,"duration":0.5},{"name":"G#5","midi":80,"time":0,"velocity":0.7086614173228346,"duration":0.5},{"name":"F#6","midi":90,"time":0,"velocity":0.7086614173228346,"duration":0.5},{"name":"C#7","midi":97,"time":0,"velocity":0.7086614173228346,"duration":0.5},{"name":"C8","midi":108,"time":0,"velocity":0.7086614173228346,"duration":0.5},{"name":"D#8","midi":111,"time":0,"velocity":0.7086614173228346,"duration":0.5},{"name":"F8","midi":113,"time":0,"velocity":0.7086614173228346,"duration":0.5},{"name":"C9","midi":120,"time":0,"velocity":0.7086614173228346,"duration":0.5},{"name":"G9","midi":127,"time":0,"velocity":0.7086614173228346,"duration":0.5},{"name":"G#9","midi":128,"time":0,"velocity":0.7086614173228346,"duration":0.5},{"name":"F10","midi":137,"time":0,"velocity":0.7086614173228346,"duration":0.5},{"name":"D3","midi":50,"time":0.5,"velocity":0.7086614173228346,"duration":0.5},{"name":"F#3","midi":54,"time":0.5,"velocity":0.7086614173228346,"duration":0.5},{"name":"D4","midi":62,"time":0.5,"velocity":0.7086614173228346,"duration":0.5},{"name":"C#5","midi":73,"time":0.5,"velocity":0.7086614173228346,"duration":0.5},{"name":"F5","midi":77,"time":0.5,"velocity":0.7086614173228346,"duration":0.5},{"name":"A5","midi":81,"time":0.5,"velocity":0.7086614173228346,"duration":0.5},{"name":"D#6","midi":87,"time":0.5,"velocity":0.7086614173228346,"duration":0.5},{"name":"A#6","midi":94,"time":0.5,"velocity":0.7086614173228346,"duration":0.5},{"name":"F7","midi":101,"time":0.5,"velocity":0.7086614173228346,"duration":0.5}],"controlChanges":{},"id":0,"channelNumber":0,"isPercussion":false}]}