{"header":{"PPQ":128,"bpm":120,"name":""},"startTime":0,"duration":12,"tracks":[{"startTime":0,"duration":12,"length":26,"notes":[{"name":"F4","midi":65,"time":0,"velocity":0.7086614173228346,"duration":0.25},{"name":"B4","midi":71,"time":0.25,"velocity":0.7086614173228346,"duration":0.5},{"name":"E5","midi":76,"time":0.75,"velocity":0.7086614173228346,"duration":0.5},{"name":"B4","midi":71,"time":1.25,"velocity":0.7086614173228346,"duration":0.5},{"name":"A4","midi":69,"time":1.75,"velocity":0.7086614173228346,"duration":1},{"name":"G4","midi":67,"time":2.75,"velocity":0.7086614173228346,"duration":0.125},{"name":"F4","midi":65,"time":2.875,"velocity":0.7086614173228346,"duration":0.25},{"name":"A4","midi":69,"time":3.125,"velocity":0.7086614173228346,"duration":0.25},{"name":"F4","midi":65,"time":3.375,"velocity":0.7086614173228346,"duration":0.5},{"name":"E4","midi":64,"time":3.875,"velocity":0.7086614173228346,"duration":1},{"name":"G4","midi":67,"time":4.875,"velocity":0.7086614173228346,"duration":0.5},{"name":"F4","midi":65,"time":5.375,"velocity":0.7086614173228346,"duration":0.25},{"name":"A4","midi":69,"time":5.625,"velocity":0.7086614173228346,"duration":0.25},{"name":"E4","midi":64,"time":5.875,"velocity":0.7086614173228346,"duration":0.25},{"name":"A4","midi":69,"time":6.125,"velocity":0.7086614173228346,"duration":1},{"name":"G4","midi":67,"time":7.125,"velocity":0.7086614173228346,"duration":0.125},{"name":"B4","midi":71,"time":7.25,"velocity":0.7086614173228346,"duration":0.25},{"name":"E5","midi":76,"time":7.5,"velocity":0.7086614173228346,"duration":1},{"name":"F5","midi":77,"time":8.5,"velocity":0.7086614173228346,"duration":0.25},{"name":"B5","midi":83,"time":8.75,"velocity":0.7086614173228346,"duration":0.5},{"name":"A5","midi":81,"time":9.25,"velocity":0.7086614173228346,"duration":0.25},{"name":"E5","midi":76,"time":9.5,"velocity":0.7086614173228346,"duration":0.5},{"name":"A5","midi":81,"time":10,"velocity":0.7086614173228346,"duration":1},{"name":"D6","midi":86,"time":11,"velocity":0.7086614173228346,"duration":0.25},{"name":"B5","midi":83,"time":11.25,"velocity":0.7086614173228346,"duration":0.5},{"name":"E6","midi":88,"time":11.75,"velocity":0.7086614173228346,"duration":0.25}],"controlChanges":{},"id":0,"channelNumber":0,"isPercussion":false}]}