{"header":{"PPQ":128,"bpm":120,"name":""},"startTime":0,"duration":1.5,"tracks":[{"startTime":0,"duration":1.5,"length":24,"notes":[{"name":"A3","midi":57,"time":0,"velocity":0.7086614173228346,"duration":0.5},{"name":"F#4","midi":66,"time":0,"velocity":0.7086614173228346,"duration":0.5},{"name":"E5","midi":76,"time":0,"velocity":0.7086614173228346,"duration":0.5},{"name":"F#5","midi":78,"time":0,"velocity":0.7086614173228346,"duration":0.5},{"name":"C#6","midi":85,"time":0,"velocity":0.7086614173228346,"duration":0.5},{"name":"A3","midi":57,"time":0.5,"velocity":0.7086614173228346,"duration":0.5},{"name":"G#4","midi":68,"time":0.5,"velocity":0.7086614173228346,"duration":0.5},{"name":"F5","midi":77,"time":0.5,"velocity":0.7086614173228346,"duration":0.5},{"name":"D#6","midi":87,"time":0.5,"velocity":0.7086614173228346,"duration":0.5},{"name":"F6","midi":89,"time":0.5,"velocity":0.7086614173228346,"duration":0.5},{"name":"A6","midi":93,"time":0.5,"velocity":0.7086614173228346,"duration":0.5},{"name":"G#7","midi":104,"time":0.5,"velocity":0.7086614173228346,"duration":0.5},{"name":"G8","midi":115,"time":0.5,"velocity":0.7086614173228346,"duration":0.5},{"name":"C#9","midi":121,"time":0.5,"velocity":0.7086614173228346,"duration":0.5},{"name":"F3","midi":53,"time":1,"velocity":0.7086614173228346,"duration":0.5},{"name":"D#4","midi":63,"time":1,"velocity":0.7086614173228346,"duration":0.5},{"name":"A4","midi":69,"time":1,"velocity":0.7086614173228346,"duration":0.5},{"name":"F#5","midi":78,"time":1,"velocity":0.7086614173228346,"duration":0.5},{"name":"G#5","midi":80,"time":1,"velocity":0.7086614173228346,"duration":0.5},{"name":"E6","midi":88,"time":1,"velocity":0.7086614173228346,"duration":0.5},{"name":"C#7","midi":97,"time":1,"velocity":0.7086614173228346,"duration":0.5},{"name":"G7","midi":103,"time":1,"velocity":0.7086614173228346,"duration":0.5},{"name":"F#8","midi":114,"time":1,"velocity":0.7086614173228346,"duration":0.5},{"name":"G8","midi":115,"time":1,"velocity":0.7086614173228346,"duration":0.5}],"controlChanges":{},"id":0,"channelNumber":0,"isPercussion":false}]}