{
  "acer campestre_french": {
    "header": {
      "PPQ": 128,
      "bpm": 120,
      "name": ""
    },
    "startTime": 0,
    "duration": 8.875,
    "tracks": [
      {
        "startTime": 0,
        "duration": 8.875,
        "length": 14,
        "notes": [
          {
            "name": "A4",
            "midi": 69,
            "time": 0,
            "velocity": 0.7086614173228346,
            "duration": 1,
            "frequency": 440,
            "pitch": 69,
            "startTime": 0,
            "endTime": 1
          },
          {
            "name": "C5",
            "midi": 72,
            "time": 1,
            "velocity": 0.7086614173228346,
            "duration": 1,
            "frequency": 523.2511306011972,
            "pitch": 72,
            "startTime": 1,
            "endTime": 2
          },
          {
            "name": "E5",
            "midi": 76,
            "time": 2,
            "velocity": 0.7086614173228346,
            "duration": 1,
            "frequency": 659.2551138257398,
            "pitch": 76,
            "startTime": 2,
            "endTime": 3
          },
          {
            "name": "D5",
            "midi": 74,
            "time": 3,
            "velocity": 0.7086614173228346,
            "duration": 0.25,
            "frequency": 587.3295358348151,
            "pitch": 74,
            "startTime": 3,
            "endTime": 3.25
          },
          {
            "name": "G5",
            "midi": 79,
            "time": 3.25,
            "velocity": 0.7086614173228346,
            "duration": 0.125,
            "frequency": 783.9908719634986,
            "pitch": 76,
            "startTime": 3.25,
            "endTime": 3.375
          },
          {
            "name": "C6",
            "midi": 84,
            "time": 3.375,
            "velocity": 0.7086614173228346,
            "duration": 1,
            "frequency": 1046.5022612023945,
            "pitch": 76,
            "startTime": 3.375,
            "endTime": 4.375
          },
          {
            "name": "A5",
            "midi": 81,
            "time": 4.375,
            "velocity": 0.7086614173228346,
            "duration": 1,
            "frequency": 880,
            "pitch": 76,
            "startTime": 4.375,
            "endTime": 5.375
          },
          {
            "name": "F5",
            "midi": 77,
            "time": 5.375,
            "velocity": 0.7086614173228346,
            "duration": 0.5,
            "frequency": 698.4564628660078,
            "pitch": 76,
            "startTime": 5.375,
            "endTime": 5.875
          },
          {
            "name": "B5",
            "midi": 83,
            "time": 5.875,
            "velocity": 0.7086614173228346,
            "duration": 0.25,
            "frequency": 987.7666025122484,
            "pitch": 76,
            "startTime": 5.875,
            "endTime": 6.125
          },
          {
            "name": "E6",
            "midi": 88,
            "time": 6.125,
            "velocity": 0.7086614173228346,
            "duration": 1,
            "frequency": 1318.5102276514797,
            "pitch": 76,
            "startTime": 6.125,
            "endTime": 7.125
          },
          {
            "name": "E6",
            "midi": 88,
            "time": 7.125,
            "velocity": 0.7086614173228346,
            "duration": 0.25,
            "frequency": 1318.5102276514797,
            "pitch": 76,
            "startTime": 7.125,
            "endTime": 7.375
          },
          {
            "name": "F6",
            "midi": 89,
            "time": 7.375,
            "velocity": 0.7086614173228346,
            "duration": 0.25,
            "frequency": 1396.9129257320155,
            "pitch": 76,
            "startTime": 7.375,
            "endTime": 7.625
          },
          {
            "name": "D6",
            "midi": 86,
            "time": 7.625,
            "velocity": 0.7086614173228346,
            "duration": 0.25,
            "frequency": 1174.6590716696303,
            "pitch": 76,
            "startTime": 7.625,
            "endTime": 7.875
          },
          {
            "name": "E6",
            "midi": 88,
            "time": 7.875,
            "velocity": 0.7086614173228346,
            "duration": 1,
            "frequency": 1318.5102276514797,
            "pitch": 76,
            "startTime": 7.875,
            "endTime": 8.875
          }
        ],
        "controlChanges": {},
        "id": 0,
        "channelNumber": 0,
        "isPercussion": false
      }
    ]
  },
  "acer campestre_keyboard": {
    "header": {
      "PPQ": 128,
      "bpm": 120,
      "name": ""
    },
    "startTime": 0,
    "duration": 1.75,
    "tracks": [
      {
        "startTime": 0,
        "duration": 1.75,
        "length": 14,
        "notes": [
          {
            "name": "D3",
            "midi": 50,
            "time": 0,
            "velocity": 0.7086614173228346,
            "duration": 0.125,
            "frequency": 146.8323839587038,
            "pitch": 50,
            "startTime": 0,
            "endTime": 0.125
          },
          {
            "name": "B3",
            "midi": 59,
            "time": 0.125,
            "velocity": 0.7086614173228346,
            "duration": 0.125,
            "frequency": 246.9416506280621,
            "pitch": 59,
            "startTime": 0.125,
            "endTime": 0.25
          },
          {
            "name": "A3",
            "midi": 57,
            "time": 0.25,
            "velocity": 0.7086614173228346,
            "duration": 0.125,
            "frequency": 220,
            "pitch": 57,
            "startTime": 0.25,
            "endTime": 0.375
          },
          {
            "name": "D4",
            "midi": 62,
            "time": 0.375,
            "velocity": 0.7086614173228346,
            "duration": 0.125,
            "frequency": 293.6647679174076,
            "pitch": 62,
            "startTime": 0.375,
            "endTime": 0.5
          },
          {
            "name": "C4",
            "midi": 60,
            "time": 0.5,
            "velocity": 0.7086614173228346,
            "duration": 0.125,
            "frequency": 261.6255653005986,
            "pitch": 60,
            "startTime": 0.5,
            "endTime": 0.625
          },
          {
            "name": "B3",
            "midi": 59,
            "time": 0.625,
            "velocity": 0.7086614173228346,
            "duration": 0.125,
            "frequency": 246.9416506280621,
            "pitch": 59,
            "startTime": 0.625,
            "endTime": 0.75
          },
          {
            "name": "D3",
            "midi": 50,
            "time": 0.75,
            "velocity": 0.7086614173228346,
            "duration": 0.125,
            "frequency": 146.8323839587038,
            "pitch": 50,
            "startTime": 0.75,
            "endTime": 0.875
          },
          {
            "name": "E5",
            "midi": 76,
            "time": 0.875,
            "velocity": 0.7086614173228346,
            "duration": 0.125,
            "frequency": 659.2551138257398,
            "pitch": 76,
            "startTime": 0.875,
            "endTime": 1
          },
          {
            "name": "D6",
            "midi": 86,
            "time": 1,
            "velocity": 0.7086614173228346,
            "duration": 0.125,
            "frequency": 1174.6590716696303,
            "pitch": 76,
            "startTime": 1,
            "endTime": 1.125
          },
          {
            "name": "A3",
            "midi": 57,
            "time": 1.125,
            "velocity": 0.7086614173228346,
            "duration": 0.125,
            "frequency": 220,
            "pitch": 57,
            "startTime": 1.125,
            "endTime": 1.25
          },
          {
            "name": "F#3",
            "midi": 54,
            "time": 1.25,
            "velocity": 0.7086614173228346,
            "duration": 0.125,
            "frequency": 184.99721135581723,
            "pitch": 54,
            "startTime": 1.25,
            "endTime": 1.375
          },
          {
            "name": "F#4",
            "midi": 66,
            "time": 1.375,
            "velocity": 0.7086614173228346,
            "duration": 0.125,
            "frequency": 369.99442271163446,
            "pitch": 66,
            "startTime": 1.375,
            "endTime": 1.5
          },
          {
            "name": "D4",
            "midi": 62,
            "time": 1.5,
            "velocity": 0.7086614173228346,
            "duration": 0.125,
            "frequency": 293.6647679174076,
            "pitch": 62,
            "startTime": 1.5,
            "endTime": 1.625
          },
          {
            "name": "A3",
            "midi": 57,
            "time": 1.625,
            "velocity": 0.7086614173228346,
            "duration": 0.125,
            "frequency": 220,
            "pitch": 57,
            "startTime": 1.625,
            "endTime": 1.75
          }
        ],
        "controlChanges": {},
        "id": 0,
        "channelNumber": 0,
        "isPercussion": false
      }
    ]
  },
  "acer campestre_chords": {
    "header": {
      "PPQ": 128,
      "bpm": 120,
      "name": ""
    },
    "startTime": 0,
    "duration": 1,
    "tracks": [
      {
        "startTime": 0,
        "duration": 1,
        "length": 13,
        "notes": [
          {
            "name": "C#3",
            "midi": 49,
            "time": 0,
            "velocity": 0.7086614173228346,
            "duration": 0.5,
            "frequency": 138.59131548843604,
            "pitch": 49,
            "startTime": 0,
            "endTime": 0.5
          },
          {
            "name": "C4",
            "midi": 60,
            "time": 0,
            "velocity": 0.7086614173228346,
            "duration": 0.5,
            "frequency": 261.6255653005986,
            "pitch": 60,
            "startTime": 0,
            "endTime": 0.5
          },
          {
            "name": "D#4",
            "midi": 63,
            "time": 0,
            "velocity": 0.7086614173228346,
            "duration": 0.5,
            "frequency": 311.12698372208087,
            "pitch": 63,
            "startTime": 0,
            "endTime": 0.5
          },
          {
            "name": "G4",
            "midi": 67,
            "time": 0,
            "velocity": 0.7086614173228346,
            "duration": 0.5,
            "frequency": 391.99543598174927,
            "pitch": 67,
            "startTime": 0,
            "endTime": 0.5
          },
          {
            "name": "C3",
            "midi": 48,
            "time": 0.5,
            "velocity": 0.7086614173228346,
            "duration": 0.5,
            "frequency": 130.8127826502993,
            "pitch": 48,
            "startTime": 0.5,
            "endTime": 1
          },
          {
            "name": "C#3",
            "midi": 49,
            "time": 0.5,
            "velocity": 0.7086614173228346,
            "duration": 0.5,
            "frequency": 138.59131548843604,
            "pitch": 49,
            "startTime": 0.5,
            "endTime": 1
          },
          {
            "name": "F3",
            "midi": 53,
            "time": 0.5,
            "velocity": 0.7086614173228346,
            "duration": 0.5,
            "frequency": 174.61411571650194,
            "pitch": 53,
            "startTime": 0.5,
            "endTime": 1
          },
          {
            "name": "F4",
            "midi": 65,
            "time": 0.5,
            "velocity": 0.7086614173228346,
            "duration": 0.5,
            "frequency": 349.2282314330039,
            "pitch": 65,
            "startTime": 0.5,
            "endTime": 1
          },
          {
            "name": "D#5",
            "midi": 75,
            "time": 0.5,
            "velocity": 0.7086614173228346,
            "duration": 0.5,
            "frequency": 622.2539674441618,
            "pitch": 75,
            "startTime": 0.5,
            "endTime": 1
          },
          {
            "name": "G5",
            "midi": 79,
            "time": 0.5,
            "velocity": 0.7086614173228346,
            "duration": 0.5,
            "frequency": 783.9908719634986,
            "pitch": 76,
            "startTime": 0.5,
            "endTime": 1
          },
          {
            "name": "A5",
            "midi": 81,
            "time": 0.5,
            "velocity": 0.7086614173228346,
            "duration": 0.5,
            "frequency": 880,
            "pitch": 76,
            "startTime": 0.5,
            "endTime": 1
          },
          {
            "name": "G6",
            "midi": 91,
            "time": 0.5,
            "velocity": 0.7086614173228346,
            "duration": 0.5,
            "frequency": 1567.981743926997,
            "pitch": 76,
            "startTime": 0.5,
            "endTime": 1
          },
          {
            "name": "D#7",
            "midi": 99,
            "time": 0.5,
            "velocity": 0.7086614173228346,
            "duration": 0.5,
            "frequency": 2489.015869776647,
            "pitch": 76,
            "startTime": 0.5,
            "endTime": 1
          }
        ],
        "controlChanges": {},
        "id": 0,
        "channelNumber": 0,
        "isPercussion": false
      }
    ]
  },
  "acer cappadocicum_french": {
    "header": {
      "PPQ": 128,
      "bpm": 120,
      "name": ""
    },
    "startTime": 0,
    "duration": 11.375,
    "tracks": [
      {
        "startTime": 0,
        "duration": 11.375,
        "length": 17,
        "notes": [
          {
            "name": "A4",
            "midi": 69,
            "time": 0,
            "velocity": 0.7086614173228346,
            "duration": 1,
            "frequency": 440,
            "pitch": 69,
            "startTime": 0,
            "endTime": 1
          },
          {
            "name": "C5",
            "midi": 72,
            "time": 1,
            "velocity": 0.7086614173228346,
            "duration": 1,
            "frequency": 523.2511306011972,
            "pitch": 72,
            "startTime": 1,
            "endTime": 2
          },
          {
            "name": "E5",
            "midi": 76,
            "time": 2,
            "velocity": 0.7086614173228346,
            "duration": 1,
            "frequency": 659.2551138257398,
            "pitch": 76,
            "startTime": 2,
            "endTime": 3
          },
          {
            "name": "D5",
            "midi": 74,
            "time": 3,
            "velocity": 0.7086614173228346,
            "duration": 0.25,
            "frequency": 587.3295358348151,
            "pitch": 74,
            "startTime": 3,
            "endTime": 3.25
          },
          {
            "name": "G5",
            "midi": 79,
            "time": 3.25,
            "velocity": 0.7086614173228346,
            "duration": 0.125,
            "frequency": 783.9908719634986,
            "pitch": 76,
            "startTime": 3.25,
            "endTime": 3.375
          },
          {
            "name": "C6",
            "midi": 84,
            "time": 3.375,
            "velocity": 0.7086614173228346,
            "duration": 1,
            "frequency": 1046.5022612023945,
            "pitch": 76,
            "startTime": 3.375,
            "endTime": 4.375
          },
          {
            "name": "A5",
            "midi": 81,
            "time": 4.375,
            "velocity": 0.7086614173228346,
            "duration": 1,
            "frequency": 880,
            "pitch": 76,
            "startTime": 4.375,
            "endTime": 5.375
          },
          {
            "name": "B5",
            "midi": 83,
            "time": 5.375,
            "velocity": 0.7086614173228346,
            "duration": 0.25,
            "frequency": 987.7666025122484,
            "pitch": 76,
            "startTime": 5.375,
            "endTime": 5.625
          },
          {
            "name": "B5",
            "midi": 83,
            "time": 5.625,
            "velocity": 0.7086614173228346,
            "duration": 0.25,
            "frequency": 987.7666025122484,
            "pitch": 76,
            "startTime": 5.625,
            "endTime": 5.875
          },
          {
            "name": "A5",
            "midi": 81,
            "time": 5.875,
            "velocity": 0.7086614173228346,
            "duration": 1,
            "frequency": 880,
            "pitch": 76,
            "startTime": 5.875,
            "endTime": 6.875
          },
          {
            "name": "D6",
            "midi": 86,
            "time": 6.875,
            "velocity": 0.7086614173228346,
            "duration": 1,
            "frequency": 1174.6590716696303,
            "pitch": 76,
            "startTime": 6.875,
            "endTime": 7.875
          },
          {
            "name": "A5",
            "midi": 81,
            "time": 7.875,
            "velocity": 0.7086614173228346,
            "duration": 0.25,
            "frequency": 880,
            "pitch": 76,
            "startTime": 7.875,
            "endTime": 8.125
          },
          {
            "name": "C6",
            "midi": 84,
            "time": 8.125,
            "velocity": 0.7086614173228346,
            "duration": 1,
            "frequency": 1046.5022612023945,
            "pitch": 76,
            "startTime": 8.125,
            "endTime": 9.125
          },
          {
            "name": "B5",
            "midi": 83,
            "time": 9.125,
            "velocity": 0.7086614173228346,
            "duration": 0.5,
            "frequency": 987.7666025122484,
            "pitch": 76,
            "startTime": 9.125,
            "endTime": 9.625
          },
          {
            "name": "C6",
            "midi": 84,
            "time": 9.625,
            "velocity": 0.7086614173228346,
            "duration": 1,
            "frequency": 1046.5022612023945,
            "pitch": 76,
            "startTime": 9.625,
            "endTime": 10.625
          },
          {
            "name": "G5",
            "midi": 79,
            "time": 10.625,
            "velocity": 0.7086614173228346,
            "duration": 0.25,
            "frequency": 783.9908719634986,
            "pitch": 76,
            "startTime": 10.625,
            "endTime": 10.875
          },
          {
            "name": "F5",
            "midi": 77,
            "time": 10.875,
            "velocity": 0.7086614173228346,
            "duration": 0.5,
            "frequency": 698.4564628660078,
            "pitch": 76,
            "startTime": 10.875,
            "endTime": 11.375
          }
        ],
        "controlChanges": {},
        "id": 0,
        "channelNumber": 0,
        "isPercussion": false
      }
    ]
  },
  "acer cappadocicum_keyboard": {
    "header": {
      "PPQ": 128,
      "bpm": 120,
      "name": ""
    },
    "startTime": 0,
    "duration": 2.125,
    "tracks": [
      {
        "startTime": 0,
        "duration": 2.125,
        "length": 17,
        "notes": [
          {
            "name": "D3",
            "midi": 50,
            "time": 0,
            "velocity": 0.7086614173228346,
            "duration": 0.125,
            "frequency": 146.8323839587038,
            "pitch": 50,
            "startTime": 0,
            "endTime": 0.125
          },
          {
            "name": "B3",
            "midi": 59,
            "time": 0.125,
            "velocity": 0.7086614173228346,
            "duration": 0.125,
            "frequency": 246.9416506280621,
            "pitch": 59,
            "startTime": 0.125,
            "endTime": 0.25
          },
          {
            "name": "A3",
            "midi": 57,
            "time": 0.25,
            "velocity": 0.7086614173228346,
            "duration": 0.125,
            "frequency": 220,
            "pitch": 57,
            "startTime": 0.25,
            "endTime": 0.375
          },
          {
            "name": "D4",
            "midi": 62,
            "time": 0.375,
            "velocity": 0.7086614173228346,
            "duration": 0.125,
            "frequency": 293.6647679174076,
            "pitch": 62,
            "startTime": 0.375,
            "endTime": 0.5
          },
          {
            "name": "C4",
            "midi": 60,
            "time": 0.5,
            "velocity": 0.7086614173228346,
            "duration": 0.125,
            "frequency": 261.6255653005986,
            "pitch": 60,
            "startTime": 0.5,
            "endTime": 0.625
          },
          {
            "name": "B3",
            "midi": 59,
            "time": 0.625,
            "velocity": 0.7086614173228346,
            "duration": 0.125,
            "frequency": 246.9416506280621,
            "pitch": 59,
            "startTime": 0.625,
            "endTime": 0.75
          },
          {
            "name": "D3",
            "midi": 50,
            "time": 0.75,
            "velocity": 0.7086614173228346,
            "duration": 0.125,
            "frequency": 146.8323839587038,
            "pitch": 50,
            "startTime": 0.75,
            "endTime": 0.875
          },
          {
            "name": "D6",
            "midi": 86,
            "time": 0.875,
            "velocity": 0.7086614173228346,
            "duration": 0.125,
            "frequency": 1174.6590716696303,
            "pitch": 76,
            "startTime": 0.875,
            "endTime": 1
          },
          {
            "name": "D6",
            "midi": 86,
            "time": 1,
            "velocity": 0.7086614173228346,
            "duration": 0.125,
            "frequency": 1174.6590716696303,
            "pitch": 76,
            "startTime": 1,
            "endTime": 1.125
          },
          {
            "name": "D3",
            "midi": 50,
            "time": 1.125,
            "velocity": 0.7086614173228346,
            "duration": 0.125,
            "frequency": 146.8323839587038,
            "pitch": 50,
            "startTime": 1.125,
            "endTime": 1.25
          },
          {
            "name": "A#3",
            "midi": 58,
            "time": 1.25,
            "velocity": 0.7086614173228346,
            "duration": 0.125,
            "frequency": 233.08188075904496,
            "pitch": 58,
            "startTime": 1.25,
            "endTime": 1.375
          },
          {
            "name": "A#5",
            "midi": 82,
            "time": 1.375,
            "velocity": 0.7086614173228346,
            "duration": 0.125,
            "frequency": 932.3275230361799,
            "pitch": 76,
            "startTime": 1.375,
            "endTime": 1.5
          },
          {
            "name": "B3",
            "midi": 59,
            "time": 1.5,
            "velocity": 0.7086614173228346,
            "duration": 0.125,
            "frequency": 246.9416506280621,
            "pitch": 59,
            "startTime": 1.5,
            "endTime": 1.625
          },
          {
            "name": "F#5",
            "midi": 78,
            "time": 1.625,
            "velocity": 0.7086614173228346,
            "duration": 0.125,
            "frequency": 739.9888454232689,
            "pitch": 76,
            "startTime": 1.625,
            "endTime": 1.75
          },
          {
            "name": "B3",
            "midi": 59,
            "time": 1.75,
            "velocity": 0.7086614173228346,
            "duration": 0.125,
            "frequency": 246.9416506280621,
            "pitch": 59,
            "startTime": 1.75,
            "endTime": 1.875
          },
          {
            "name": "D5",
            "midi": 74,
            "time": 1.875,
            "velocity": 0.7086614173228346,
            "duration": 0.125,
            "frequency": 587.3295358348151,
            "pitch": 74,
            "startTime": 1.875,
            "endTime": 2
          },
          {
            "name": "E5",
            "midi": 76,
            "time": 2,
            "velocity": 0.7086614173228346,
            "duration": 0.125,
            "frequency": 659.2551138257398,
            "pitch": 76,
            "startTime": 2,
            "endTime": 2.125
          }
        ],
        "controlChanges": {},
        "id": 0,
        "channelNumber": 0,
        "isPercussion": false
      }
    ]
  },
  "acer cappadocicum_chords": {
    "header": {
      "PPQ": 128,
      "bpm": 120,
      "name": ""
    },
    "startTime": 0,
    "duration": 1,
    "tracks": [
      {
        "startTime": 0,
        "duration": 1,
        "length": 16,
        "notes": [
          {
            "name": "C#3",
            "midi": 49,
            "time": 0,
            "velocity": 0.7086614173228346,
            "duration": 0.5,
            "frequency": 138.59131548843604,
            "pitch": 49,
            "startTime": 0,
            "endTime": 0.5
          },
          {
            "name": "C4",
            "midi": 60,
            "time": 0,
            "velocity": 0.7086614173228346,
            "duration": 0.5,
            "frequency": 261.6255653005986,
            "pitch": 60,
            "startTime": 0,
            "endTime": 0.5
          },
          {
            "name": "D#4",
            "midi": 63,
            "time": 0,
            "velocity": 0.7086614173228346,
            "duration": 0.5,
            "frequency": 311.12698372208087,
            "pitch": 63,
            "startTime": 0,
            "endTime": 0.5
          },
          {
            "name": "G4",
            "midi": 67,
            "time": 0,
            "velocity": 0.7086614173228346,
            "duration": 0.5,
            "frequency": 391.99543598174927,
            "pitch": 67,
            "startTime": 0,
            "endTime": 0.5
          },
          {
            "name": "C3",
            "midi": 48,
            "time": 0.5,
            "velocity": 0.7086614173228346,
            "duration": 0.5,
            "frequency": 130.8127826502993,
            "pitch": 48,
            "startTime": 0.5,
            "endTime": 1
          },
          {
            "name": "C#3",
            "midi": 49,
            "time": 0.5,
            "velocity": 0.7086614173228346,
            "duration": 0.5,
            "frequency": 138.59131548843604,
            "pitch": 49,
            "startTime": 0.5,
            "endTime": 1
          },
          {
            "name": "F3",
            "midi": 53,
            "time": 0.5,
            "velocity": 0.7086614173228346,
            "duration": 0.5,
            "frequency": 174.61411571650194,
            "pitch": 53,
            "startTime": 0.5,
            "endTime": 1
          },
          {
            "name": "F4",
            "midi": 65,
            "time": 0.5,
            "velocity": 0.7086614173228346,
            "duration": 0.5,
            "frequency": 349.2282314330039,
            "pitch": 65,
            "startTime": 0.5,
            "endTime": 1
          },
          {
            "name": "C#5",
            "midi": 73,
            "time": 0.5,
            "velocity": 0.7086614173228346,
            "duration": 0.5,
            "frequency": 554.3652619537442,
            "pitch": 73,
            "startTime": 0.5,
            "endTime": 1
          },
          {
            "name": "C6",
            "midi": 84,
            "time": 0.5,
            "velocity": 0.7086614173228346,
            "duration": 0.5,
            "frequency": 1046.5022612023945,
            "pitch": 76,
            "startTime": 0.5,
            "endTime": 1
          },
          {
            "name": "G#6",
            "midi": 92,
            "time": 0.5,
            "velocity": 0.7086614173228346,
            "duration": 0.5,
            "frequency": 1661.2187903197805,
            "pitch": 76,
            "startTime": 0.5,
            "endTime": 1
          },
          {
            "name": "C7",
            "midi": 96,
            "time": 0.5,
            "velocity": 0.7086614173228346,
            "duration": 0.5,
            "frequency": 2093.004522404789,
            "pitch": 76,
            "startTime": 0.5,
            "endTime": 1
          },
          {
            "name": "F#7",
            "midi": 102,
            "time": 0.5,
            "velocity": 0.7086614173228346,
            "duration": 0.5,
            "frequency": 2959.9553816930757,
            "pitch": 76,
            "startTime": 0.5,
            "endTime": 1
          },
          {
            "name": "C8",
            "midi": 108,
            "time": 0.5,
            "velocity": 0.7086614173228346,
            "duration": 0.5,
            "frequency": 4186.009044809578,
            "pitch": 76,
            "startTime": 0.5,
            "endTime": 1
          },
          {
            "name": "A#8",
            "midi": 118,
            "time": 0.5,
            "velocity": 0.7086614173228346,
            "duration": 0.5,
            "frequency": 7458.620184289437,
            "pitch": 76,
            "startTime": 0.5,
            "endTime": 1
          },
          {
            "name": "F9",
            "midi": 125,
            "time": 0.5,
            "velocity": 0.7086614173228346,
            "duration": 0.5,
            "frequency": 11175.303405856126,
            "pitch": 76,
            "startTime": 0.5,
            "endTime": 1
          }
        ],
        "controlChanges": {},
        "id": 0,
        "channelNumber": 0,
        "isPercussion": false
      }
    ]
  },
  "acer griseum_french": {
    "header": {
      "PPQ": 128,
      "bpm": 120,
      "name": ""
    },
    "startTime": 0,
    "duration": 7.125,
    "tracks": [
      {
        "startTime": 0,
        "duration": 7.125,
        "length": 12,
        "notes": [
          {
            "name": "A4",
            "midi": 69,
            "time": 0,
            "velocity": 0.7086614173228346,
            "duration": 1,
            "frequency": 440,
            "pitch": 69,
            "startTime": 0,
            "endTime": 1
          },
          {
            "name": "C5",
            "midi": 72,
            "time": 1,
            "velocity": 0.7086614173228346,
            "duration": 1,
            "frequency": 523.2511306011972,
            "pitch": 72,
            "startTime": 1,
            "endTime": 2
          },
          {
            "name": "E5",
            "midi": 76,
            "time": 2,
            "velocity": 0.7086614173228346,
            "duration": 1,
            "frequency": 659.2551138257398,
            "pitch": 76,
            "startTime": 2,
            "endTime": 3
          },
          {
            "name": "D5",
            "midi": 74,
            "time": 3,
            "velocity": 0.7086614173228346,
            "duration": 0.25,
            "frequency": 587.3295358348151,
            "pitch": 74,
            "startTime": 3,
            "endTime": 3.25
          },
          {
            "name": "G5",
            "midi": 79,
            "time": 3.25,
            "velocity": 0.7086614173228346,
            "duration": 0.125,
            "frequency": 783.9908719634986,
            "pitch": 76,
            "startTime": 3.25,
            "endTime": 3.375
          },
          {
            "name": "G5",
            "midi": 79,
            "time": 3.375,
            "velocity": 0.7086614173228346,
            "duration": 1,
            "frequency": 783.9908719634986,
            "pitch": 76,
            "startTime": 3.375,
            "endTime": 4.375
          },
          {
            "name": "D5",
            "midi": 74,
            "time": 4.375,
            "velocity": 0.7086614173228346,
            "duration": 0.25,
            "frequency": 587.3295358348151,
            "pitch": 74,
            "startTime": 4.375,
            "endTime": 4.625
          },
          {
            "name": "B4",
            "midi": 71,
            "time": 4.625,
            "velocity": 0.7086614173228346,
            "duration": 0.5,
            "frequency": 493.8833012561242,
            "pitch": 71,
            "startTime": 4.625,
            "endTime": 5.125
          },
          {
            "name": "E5",
            "midi": 76,
            "time": 5.125,
            "velocity": 0.7086614173228346,
            "duration": 0.25,
            "frequency": 659.2551138257398,
            "pitch": 76,
            "startTime": 5.125,
            "endTime": 5.375
          },
          {
            "name": "E5",
            "midi": 76,
            "time": 5.375,
            "velocity": 0.7086614173228346,
            "duration": 1,
            "frequency": 659.2551138257398,
            "pitch": 76,
            "startTime": 5.375,
            "endTime": 6.375
          },
          {
            "name": "G5",
            "midi": 79,
            "time": 6.375,
            "velocity": 0.7086614173228346,
            "duration": 0.25,
            "frequency": 783.9908719634986,
            "pitch": 76,
            "startTime": 6.375,
            "endTime": 6.625
          },
          {
            "name": "F5",
            "midi": 77,
            "time": 6.625,
            "velocity": 0.7086614173228346,
            "duration": 0.5,
            "frequency": 698.4564628660078,
            "pitch": 76,
            "startTime": 6.625,
            "endTime": 7.125
          }
        ],
        "controlChanges": {},
        "id": 0,
        "channelNumber": 0,
        "isPercussion": false
      }
    ]
  },
  "acer griseum_keyboard": {
    "header": {
      "PPQ": 128,
      "bpm": 120,
      "name": ""
    },
    "startTime": 0,
    "duration": 1.5,
    "tracks": [
      {
        "startTime": 0,
        "duration": 1.5,
        "length": 12,
        "notes": [
          {
            "name": "D3",
            "midi": 50,
            "time": 0,
            "velocity": 0.7086614173228346,
            "duration": 0.125,
            "frequency": 146.8323839587038,
            "pitch": 50,
            "startTime": 0,
            "endTime": 0.125
          },
          {
            "name": "B3",
            "midi": 59,
            "time": 0.125,
            "velocity": 0.7086614173228346,
            "duration": 0.125,
            "frequency": 246.9416506280621,
            "pitch": 59,
            "startTime": 0.125,
            "endTime": 0.25
          },
          {
            "name": "A3",
            "midi": 57,
            "time": 0.25,
            "velocity": 0.7086614173228346,
            "duration": 0.125,
            "frequency": 220,
            "pitch": 57,
            "startTime": 0.25,
            "endTime": 0.375
          },
          {
            "name": "D4",
            "midi": 62,
            "time": 0.375,
            "velocity": 0.7086614173228346,
            "duration": 0.125,
            "frequency": 293.6647679174076,
            "pitch": 62,
            "startTime": 0.375,
            "endTime": 0.5
          },
          {
            "name": "C4",
            "midi": 60,
            "time": 0.5,
            "velocity": 0.7086614173228346,
            "duration": 0.125,
            "frequency": 261.6255653005986,
            "pitch": 60,
            "startTime": 0.5,
            "endTime": 0.625
          },
          {
            "name": "G4",
            "midi": 67,
            "time": 0.625,
            "velocity": 0.7086614173228346,
            "duration": 0.125,
            "frequency": 391.99543598174927,
            "pitch": 67,
            "startTime": 0.625,
            "endTime": 0.75
          },
          {
            "name": "D4",
            "midi": 62,
            "time": 0.75,
            "velocity": 0.7086614173228346,
            "duration": 0.125,
            "frequency": 293.6647679174076,
            "pitch": 62,
            "startTime": 0.75,
            "endTime": 0.875
          },
          {
            "name": "F#5",
            "midi": 78,
            "time": 0.875,
            "velocity": 0.7086614173228346,
            "duration": 0.125,
            "frequency": 739.9888454232689,
            "pitch": 76,
            "startTime": 0.875,
            "endTime": 1
          },
          {
            "name": "F#3",
            "midi": 54,
            "time": 1,
            "velocity": 0.7086614173228346,
            "duration": 0.125,
            "frequency": 184.99721135581723,
            "pitch": 54,
            "startTime": 1,
            "endTime": 1.125
          },
          {
            "name": "A3",
            "midi": 57,
            "time": 1.125,
            "velocity": 0.7086614173228346,
            "duration": 0.125,
            "frequency": 220,
            "pitch": 57,
            "startTime": 1.125,
            "endTime": 1.25
          },
          {
            "name": "D5",
            "midi": 74,
            "time": 1.25,
            "velocity": 0.7086614173228346,
            "duration": 0.125,
            "frequency": 587.3295358348151,
            "pitch": 74,
            "startTime": 1.25,
            "endTime": 1.375
          },
          {
            "name": "E5",
            "midi": 76,
            "time": 1.375,
            "velocity": 0.7086614173228346,
            "duration": 0.125,
            "frequency": 659.2551138257398,
            "pitch": 76,
            "startTime": 1.375,
            "endTime": 1.5
          }
        ],
        "controlChanges": {},
        "id": 0,
        "channelNumber": 0,
        "isPercussion": false
      }
    ]
  },
  "acer griseum_chords": {
    "header": {
      "PPQ": 128,
      "bpm": 120,
      "name": ""
    },
    "startTime": 0,
    "duration": 1,
    "tracks": [
      {
        "startTime": 0,
        "duration": 1,
        "length": 11,
        "notes": [
          {
            "name": "C#3",
            "midi": 49,
            "time": 0,
            "velocity": 0.7086614173228346,
            "duration": 0.5,
            "frequency": 138.59131548843604,
            "pitch": 49,
            "startTime": 0,
            "endTime": 0.5
          },
          {
            "name": "C4",
            "midi": 60,
            "time": 0,
            "velocity": 0.7086614173228346,
            "duration": 0.5,
            "frequency": 261.6255653005986,
            "pitch": 60,
            "startTime": 0,
            "endTime": 0.5
          },
          {
            "name": "D#4",
            "midi": 63,
            "time": 0,
            "velocity": 0.7086614173228346,
            "duration": 0.5,
            "frequency": 311.12698372208087,
            "pitch": 63,
            "startTime": 0,
            "endTime": 0.5
          },
          {
            "name": "G4",
            "midi": 67,
            "time": 0,
            "velocity": 0.7086614173228346,
            "duration": 0.5,
            "frequency": 391.99543598174927,
            "pitch": 67,
            "startTime": 0,
            "endTime": 0.5
          },
          {
            "name": "D3",
            "midi": 50,
            "time": 0.5,
            "velocity": 0.7086614173228346,
            "duration": 0.5,
            "frequency": 146.8323839587038,
            "pitch": 50,
            "startTime": 0.5,
            "endTime": 1
          },
          {
            "name": "G3",
            "midi": 55,
            "time": 0.5,
            "velocity": 0.7086614173228346,
            "duration": 0.5,
            "frequency": 195.99771799087463,
            "pitch": 55,
            "startTime": 0.5,
            "endTime": 1
          },
          {
            "name": "F#4",
            "midi": 66,
            "time": 0.5,
            "velocity": 0.7086614173228346,
            "duration": 0.5,
            "frequency": 369.99442271163446,
            "pitch": 66,
            "startTime": 0.5,
            "endTime": 1
          },
          {
            "name": "G4",
            "midi": 67,
            "time": 0.5,
            "velocity": 0.7086614173228346,
            "duration": 0.5,
            "frequency": 391.99543598174927,
            "pitch": 67,
            "startTime": 0.5,
            "endTime": 1
          },
          {
            "name": "D#5",
            "midi": 75,
            "time": 0.5,
            "velocity": 0.7086614173228346,
            "duration": 0.5,
            "frequency": 622.2539674441618,
            "pitch": 75,
            "startTime": 0.5,
            "endTime": 1
          },
          {
            "name": "A#5",
            "midi": 82,
            "time": 0.5,
            "velocity": 0.7086614173228346,
            "duration": 0.5,
            "frequency": 932.3275230361799,
            "pitch": 76,
            "startTime": 0.5,
            "endTime": 1
          },
          {
            "name": "F6",
            "midi": 89,
            "time": 0.5,
            "velocity": 0.7086614173228346,
            "duration": 0.5,
            "frequency": 1396.9129257320155,
            "pitch": 76,
            "startTime": 0.5,
            "endTime": 1
          }
        ],
        "controlChanges": {},
        "id": 0,
        "channelNumber": 0,
        "isPercussion": false
      }
    ]
  },
  "acer negundo_french": {
    "header": {
      "PPQ": 128,
      "bpm": 120,
      "name": ""
    },
    "startTime": 0,
    "duration": 7.875,
    "tracks": [
      {
        "startTime": 0,
        "duration": 7.875,
        "length": 12,
        "notes": [
          {
            "name": "A4",
            "midi": 69,
            "time": 0,
            "velocity": 0.7086614173228346,
            "duration": 1,
            "frequency": 440,
            "pitch": 69,
            "startTime": 0,
            "endTime": 1
          },
          {
            "name": "C5",
            "midi": 72,
            "time": 1,
            "velocity": 0.7086614173228346,
            "duration": 1,
            "frequency": 523.2511306011972,
            "pitch": 72,
            "startTime": 1,
            "endTime": 2
          },
          {
            "name": "E5",
            "midi": 76,
            "time": 2,
            "velocity": 0.7086614173228346,
            "duration": 1,
            "frequency": 659.2551138257398,
            "pitch": 76,
            "startTime": 2,
            "endTime": 3
          },
          {
            "name": "D5",
            "midi": 74,
            "time": 3,
            "velocity": 0.7086614173228346,
            "duration": 0.25,
            "frequency": 587.3295358348151,
            "pitch": 74,
            "startTime": 3,
            "endTime": 3.25
          },
          {
            "name": "G5",
            "midi": 79,
            "time": 3.25,
            "velocity": 0.7086614173228346,
            "duration": 0.125,
            "frequency": 783.9908719634986,
            "pitch": 76,
            "startTime": 3.25,
            "endTime": 3.375
          },
          {
            "name": "G5",
            "midi": 79,
            "time": 3.375,
            "velocity": 0.7086614173228346,
            "duration": 0.5,
            "frequency": 783.9908719634986,
            "pitch": 76,
            "startTime": 3.375,
            "endTime": 3.875
          },
          {
            "name": "E5",
            "midi": 76,
            "time": 3.875,
            "velocity": 0.7086614173228346,
            "duration": 1,
            "frequency": 659.2551138257398,
            "pitch": 76,
            "startTime": 3.875,
            "endTime": 4.875
          },
          {
            "name": "G5",
            "midi": 79,
            "time": 4.875,
            "velocity": 0.7086614173228346,
            "duration": 1,
            "frequency": 783.9908719634986,
            "pitch": 76,
            "startTime": 4.875,
            "endTime": 5.875
          },
          {
            "name": "G5",
            "midi": 79,
            "time": 5.875,
            "velocity": 0.7086614173228346,
            "duration": 0.25,
            "frequency": 783.9908719634986,
            "pitch": 76,
            "startTime": 5.875,
            "endTime": 6.125
          },
          {
            "name": "G5",
            "midi": 79,
            "time": 6.125,
            "velocity": 0.7086614173228346,
            "duration": 0.5,
            "frequency": 783.9908719634986,
            "pitch": 76,
            "startTime": 6.125,
            "endTime": 6.625
          },
          {
            "name": "D5",
            "midi": 74,
            "time": 6.625,
            "velocity": 0.7086614173228346,
            "duration": 1,
            "frequency": 587.3295358348151,
            "pitch": 74,
            "startTime": 6.625,
            "endTime": 7.625
          },
          {
            "name": "A4",
            "midi": 69,
            "time": 7.625,
            "velocity": 0.7086614173228346,
            "duration": 0.25,
            "frequency": 440,
            "pitch": 69,
            "startTime": 7.625,
            "endTime": 7.875
          }
        ],
        "controlChanges": {},
        "id": 0,
        "channelNumber": 0,
        "isPercussion": false
      }
    ]
  },
  "acer negundo_keyboard": {
    "header": {
      "PPQ": 128,
      "bpm": 120,
      "name": ""
    },
    "startTime": 0,
    "duration": 1.5,
    "tracks": [
      {
        "startTime": 0,
        "duration": 1.5,
        "length": 12,
        "notes": [
          {
            "name": "D3",
            "midi": 50,
            "time": 0,
            "velocity": 0.7086614173228346,
            "duration": 0.125,
            "frequency": 146.8323839587038,
            "pitch": 50,
            "startTime": 0,
            "endTime": 0.125
          },
          {
            "name": "B3",
            "midi": 59,
            "time": 0.125,
            "velocity": 0.7086614173228346,
            "duration": 0.125,
            "frequency": 246.9416506280621,
            "pitch": 59,
            "startTime": 0.125,
            "endTime": 0.25
          },
          {
            "name": "A3",
            "midi": 57,
            "time": 0.25,
            "velocity": 0.7086614173228346,
            "duration": 0.125,
            "frequency": 220,
            "pitch": 57,
            "startTime": 0.25,
            "endTime": 0.375
          },
          {
            "name": "D4",
            "midi": 62,
            "time": 0.375,
            "velocity": 0.7086614173228346,
            "duration": 0.125,
            "frequency": 293.6647679174076,
            "pitch": 62,
            "startTime": 0.375,
            "endTime": 0.5
          },
          {
            "name": "C4",
            "midi": 60,
            "time": 0.5,
            "velocity": 0.7086614173228346,
            "duration": 0.125,
            "frequency": 261.6255653005986,
            "pitch": 60,
            "startTime": 0.5,
            "endTime": 0.625
          },
          {
            "name": "C5",
            "midi": 72,
            "time": 0.625,
            "velocity": 0.7086614173228346,
            "duration": 0.125,
            "frequency": 523.2511306011972,
            "pitch": 72,
            "startTime": 0.625,
            "endTime": 0.75
          },
          {
            "name": "A3",
            "midi": 57,
            "time": 0.75,
            "velocity": 0.7086614173228346,
            "duration": 0.125,
            "frequency": 220,
            "pitch": 57,
            "startTime": 0.75,
            "endTime": 0.875
          },
          {
            "name": "G4",
            "midi": 67,
            "time": 0.875,
            "velocity": 0.7086614173228346,
            "duration": 0.125,
            "frequency": 391.99543598174927,
            "pitch": 67,
            "startTime": 0.875,
            "endTime": 1
          },
          {
            "name": "D5",
            "midi": 74,
            "time": 1,
            "velocity": 0.7086614173228346,
            "duration": 0.125,
            "frequency": 587.3295358348151,
            "pitch": 74,
            "startTime": 1,
            "endTime": 1.125
          },
          {
            "name": "C5",
            "midi": 72,
            "time": 1.125,
            "velocity": 0.7086614173228346,
            "duration": 0.125,
            "frequency": 523.2511306011972,
            "pitch": 72,
            "startTime": 1.125,
            "endTime": 1.25
          },
          {
            "name": "A#3",
            "midi": 58,
            "time": 1.25,
            "velocity": 0.7086614173228346,
            "duration": 0.125,
            "frequency": 233.08188075904496,
            "pitch": 58,
            "startTime": 1.25,
            "endTime": 1.375
          },
          {
            "name": "A#5",
            "midi": 82,
            "time": 1.375,
            "velocity": 0.7086614173228346,
            "duration": 0.125,
            "frequency": 932.3275230361799,
            "pitch": 76,
            "startTime": 1.375,
            "endTime": 1.5
          }
        ],
        "controlChanges": {},
        "id": 0,
        "channelNumber": 0,
        "isPercussion": false
      }
    ]
  },
  "acer negundo_chords": {
    "header": {
      "PPQ": 128,
      "bpm": 120,
      "name": ""
    },
    "startTime": 0,
    "duration": 1,
    "tracks": [
      {
        "startTime": 0,
        "duration": 1,
        "length": 11,
        "notes": [
          {
            "name": "C#3",
            "midi": 49,
            "time": 0,
            "velocity": 0.7086614173228346,
            "duration": 0.5,
            "frequency": 138.59131548843604,
            "pitch": 49,
            "startTime": 0,
            "endTime": 0.5
          },
          {
            "name": "C4",
            "midi": 60,
            "time": 0,
            "velocity": 0.7086614173228346,
            "duration": 0.5,
            "frequency": 261.6255653005986,
            "pitch": 60,
            "startTime": 0,
            "endTime": 0.5
          },
          {
            "name": "D#4",
            "midi": 63,
            "time": 0,
            "velocity": 0.7086614173228346,
            "duration": 0.5,
            "frequency": 311.12698372208087,
            "pitch": 63,
            "startTime": 0,
            "endTime": 0.5
          },
          {
            "name": "G4",
            "midi": 67,
            "time": 0,
            "velocity": 0.7086614173228346,
            "duration": 0.5,
            "frequency": 391.99543598174927,
            "pitch": 67,
            "startTime": 0,
            "endTime": 0.5
          },
          {
            "name": "F3",
            "midi": 53,
            "time": 0.5,
            "velocity": 0.7086614173228346,
            "duration": 0.5,
            "frequency": 174.61411571650194,
            "pitch": 53,
            "startTime": 0.5,
            "endTime": 1
          },
          {
            "name": "D#4",
            "midi": 63,
            "time": 0.5,
            "velocity": 0.7086614173228346,
            "duration": 0.5,
            "frequency": 311.12698372208087,
            "pitch": 63,
            "startTime": 0.5,
            "endTime": 1
          },
          {
            "name": "D5",
            "midi": 74,
            "time": 0.5,
            "velocity": 0.7086614173228346,
            "duration": 0.5,
            "frequency": 587.3295358348151,
            "pitch": 74,
            "startTime": 0.5,
            "endTime": 1
          },
          {
            "name": "A#5",
            "midi": 82,
            "time": 0.5,
            "velocity": 0.7086614173228346,
            "duration": 0.5,
            "frequency": 932.3275230361799,
            "pitch": 76,
            "startTime": 0.5,
            "endTime": 1
          },
          {
            "name": "F6",
            "midi": 89,
            "time": 0.5,
            "velocity": 0.7086614173228346,
            "duration": 0.5,
            "frequency": 1396.9129257320155,
            "pitch": 76,
            "startTime": 0.5,
            "endTime": 1
          },
          {
            "name": "C7",
            "midi": 96,
            "time": 0.5,
            "velocity": 0.7086614173228346,
            "duration": 0.5,
            "frequency": 2093.004522404789,
            "pitch": 76,
            "startTime": 0.5,
            "endTime": 1
          },
          {
            "name": "G#7",
            "midi": 104,
            "time": 0.5,
            "velocity": 0.7086614173228346,
            "duration": 0.5,
            "frequency": 3322.437580639561,
            "pitch": 76,
            "startTime": 0.5,
            "endTime": 1
          }
        ],
        "controlChanges": {},
        "id": 0,
        "channelNumber": 0,
        "isPercussion": false
      }
    ]
  },
  "acer platanoides_french": {
    "header": {
      "PPQ": 128,
      "bpm": 120,
      "name": ""
    },
    "startTime": 0,
    "duration": 9.875,
    "tracks": [
      {
        "startTime": 0,
        "duration": 9.875,
        "length": 16,
        "notes": [
          {
            "name": "A4",
            "midi": 69,
            "time": 0,
            "velocity": 0.7086614173228346,
            "duration": 1,
            "frequency": 440,
            "pitch": 69,
            "startTime": 0,
            "endTime": 1
          },
          {
            "name": "C5",
            "midi": 72,
            "time": 1,
            "velocity": 0.7086614173228346,
            "duration": 1,
            "frequency": 523.2511306011972,
            "pitch": 72,
            "startTime": 1,
            "endTime": 2
          },
          {
            "name": "E5",
            "midi": 76,
            "time": 2,
            "velocity": 0.7086614173228346,
            "duration": 1,
            "frequency": 659.2551138257398,
            "pitch": 76,
            "startTime": 2,
            "endTime": 3
          },
          {
            "name": "D5",
            "midi": 74,
            "time": 3,
            "velocity": 0.7086614173228346,
            "duration": 0.25,
            "frequency": 587.3295358348151,
            "pitch": 74,
            "startTime": 3,
            "endTime": 3.25
          },
          {
            "name": "G5",
            "midi": 79,
            "time": 3.25,
            "velocity": 0.7086614173228346,
            "duration": 0.125,
            "frequency": 783.9908719634986,
            "pitch": 76,
            "startTime": 3.25,
            "endTime": 3.375
          },
          {
            "name": "B5",
            "midi": 83,
            "time": 3.375,
            "velocity": 0.7086614173228346,
            "duration": 0.25,
            "frequency": 987.7666025122484,
            "pitch": 76,
            "startTime": 3.375,
            "endTime": 3.625
          },
          {
            "name": "E6",
            "midi": 88,
            "time": 3.625,
            "velocity": 0.7086614173228346,
            "duration": 0.5,
            "frequency": 1318.5102276514797,
            "pitch": 76,
            "startTime": 3.625,
            "endTime": 4.125
          },
          {
            "name": "A6",
            "midi": 93,
            "time": 4.125,
            "velocity": 0.7086614173228346,
            "duration": 1,
            "frequency": 1760,
            "pitch": 76,
            "startTime": 4.125,
            "endTime": 5.125
          },
          {
            "name": "F6",
            "midi": 89,
            "time": 5.125,
            "velocity": 0.7086614173228346,
            "duration": 0.25,
            "frequency": 1396.9129257320155,
            "pitch": 76,
            "startTime": 5.125,
            "endTime": 5.375
          },
          {
            "name": "A6",
            "midi": 93,
            "time": 5.375,
            "velocity": 0.7086614173228346,
            "duration": 1,
            "frequency": 1760,
            "pitch": 76,
            "startTime": 5.375,
            "endTime": 6.375
          },
          {
            "name": "G6",
            "midi": 91,
            "time": 6.375,
            "velocity": 0.7086614173228346,
            "duration": 0.5,
            "frequency": 1567.981743926997,
            "pitch": 76,
            "startTime": 6.375,
            "endTime": 6.875
          },
          {
            "name": "A6",
            "midi": 93,
            "time": 6.875,
            "velocity": 0.7086614173228346,
            "duration": 0.25,
            "frequency": 1760,
            "pitch": 76,
            "startTime": 6.875,
            "endTime": 7.125
          },
          {
            "name": "B6",
            "midi": 95,
            "time": 7.125,
            "velocity": 0.7086614173228346,
            "duration": 0.5,
            "frequency": 1975.5332050244963,
            "pitch": 76,
            "startTime": 7.125,
            "endTime": 7.625
          },
          {
            "name": "D7",
            "midi": 98,
            "time": 7.625,
            "velocity": 0.7086614173228346,
            "duration": 1,
            "frequency": 2349.31814333926,
            "pitch": 76,
            "startTime": 7.625,
            "endTime": 8.625
          },
          {
            "name": "E7",
            "midi": 100,
            "time": 8.625,
            "velocity": 0.7086614173228346,
            "duration": 1,
            "frequency": 2637.0204553029594,
            "pitch": 76,
            "startTime": 8.625,
            "endTime": 9.625
          },
          {
            "name": "E7",
            "midi": 100,
            "time": 9.625,
            "velocity": 0.7086614173228346,
            "duration": 0.25,
            "frequency": 2637.0204553029594,
            "pitch": 76,
            "startTime": 9.625,
            "endTime": 9.875
          }
        ],
        "controlChanges": {},
        "id": 0,
        "channelNumber": 0,
        "isPercussion": false
      }
    ]
  },
  "acer platanoides_keyboard": {
    "header": {
      "PPQ": 128,
      "bpm": 120,
      "name": ""
    },
    "startTime": 0,
    "duration": 2,
    "tracks": [
      {
        "startTime": 0,
        "duration": 2,
        "length": 16,
        "notes": [
          {
            "name": "D3",
            "midi": 50,
            "time": 0,
            "velocity": 0.7086614173228346,
            "duration": 0.125,
            "frequency": 146.8323839587038,
            "pitch": 50,
            "startTime": 0,
            "endTime": 0.125
          },
          {
            "name": "B3",
            "midi": 59,
            "time": 0.125,
            "velocity": 0.7086614173228346,
            "duration": 0.125,
            "frequency": 246.9416506280621,
            "pitch": 59,
            "startTime": 0.125,
            "endTime": 0.25
          },
          {
            "name": "A3",
            "midi": 57,
            "time": 0.25,
            "velocity": 0.7086614173228346,
            "duration": 0.125,
            "frequency": 220,
            "pitch": 57,
            "startTime": 0.25,
            "endTime": 0.375
          },
          {
            "name": "D4",
            "midi": 62,
            "time": 0.375,
            "velocity": 0.7086614173228346,
            "duration": 0.125,
            "frequency": 293.6647679174076,
            "pitch": 62,
            "startTime": 0.375,
            "endTime": 0.5
          },
          {
            "name": "C4",
            "midi": 60,
            "time": 0.5,
            "velocity": 0.7086614173228346,
            "duration": 0.125,
            "frequency": 261.6255653005986,
            "pitch": 60,
            "startTime": 0.5,
            "endTime": 0.625
          },
          {
            "name": "D6",
            "midi": 86,
            "time": 0.625,
            "velocity": 0.7086614173228346,
            "duration": 0.125,
            "frequency": 1174.6590716696303,
            "pitch": 76,
            "startTime": 0.625,
            "endTime": 0.75
          },
          {
            "name": "B5",
            "midi": 83,
            "time": 0.75,
            "velocity": 0.7086614173228346,
            "duration": 0.125,
            "frequency": 987.7666025122484,
            "pitch": 76,
            "startTime": 0.75,
            "endTime": 0.875
          },
          {
            "name": "D3",
            "midi": 50,
            "time": 0.875,
            "velocity": 0.7086614173228346,
            "duration": 0.125,
            "frequency": 146.8323839587038,
            "pitch": 50,
            "startTime": 0.875,
            "endTime": 1
          },
          {
            "name": "F#4",
            "midi": 66,
            "time": 1,
            "velocity": 0.7086614173228346,
            "duration": 0.125,
            "frequency": 369.99442271163446,
            "pitch": 66,
            "startTime": 1,
            "endTime": 1.125
          },
          {
            "name": "D3",
            "midi": 50,
            "time": 1.125,
            "velocity": 0.7086614173228346,
            "duration": 0.125,
            "frequency": 146.8323839587038,
            "pitch": 50,
            "startTime": 1.125,
            "endTime": 1.25
          },
          {
            "name": "C5",
            "midi": 72,
            "time": 1.25,
            "velocity": 0.7086614173228346,
            "duration": 0.125,
            "frequency": 523.2511306011972,
            "pitch": 72,
            "startTime": 1.25,
            "endTime": 1.375
          },
          {
            "name": "A#5",
            "midi": 82,
            "time": 1.375,
            "velocity": 0.7086614173228346,
            "duration": 0.125,
            "frequency": 932.3275230361799,
            "pitch": 76,
            "startTime": 1.375,
            "endTime": 1.5
          },
          {
            "name": "F#5",
            "midi": 78,
            "time": 1.5,
            "velocity": 0.7086614173228346,
            "duration": 0.125,
            "frequency": 739.9888454232689,
            "pitch": 76,
            "startTime": 1.5,
            "endTime": 1.625
          },
          {
            "name": "A#3",
            "midi": 58,
            "time": 1.625,
            "velocity": 0.7086614173228346,
            "duration": 0.125,
            "frequency": 233.08188075904496,
            "pitch": 58,
            "startTime": 1.625,
            "endTime": 1.75
          },
          {
            "name": "A3",
            "midi": 57,
            "time": 1.75,
            "velocity": 0.7086614173228346,
            "duration": 0.125,
            "frequency": 220,
            "pitch": 57,
            "startTime": 1.75,
            "endTime": 1.875
          },
          {
            "name": "F#3",
            "midi": 54,
            "time": 1.875,
            "velocity": 0.7086614173228346,
            "duration": 0.125,
            "frequency": 184.99721135581723,
            "pitch": 54,
            "startTime": 1.875,
            "endTime": 2
          }
        ],
        "controlChanges": {},
        "id": 0,
        "channelNumber": 0,
        "isPercussion": false
      }
    ]
  },
  "acer platanoides_chords": {
    "header": {
      "PPQ": 128,
      "bpm": 120,
      "name": ""
    },
    "startTime": 0,
    "duration": 1,
    "tracks": [
      {
        "startTime": 0,
        "duration": 1,
        "length": 15,
        "notes": [
          {
            "name": "C#3",
            "midi": 49,
            "time": 0,
            "velocity": 0.7086614173228346,
            "duration": 0.5,
            "frequency": 138.59131548843604,
            "pitch": 49,
            "startTime": 0,
            "endTime": 0.5
          },
          {
            "name": "C4",
            "midi": 60,
            "time": 0,
            "velocity": 0.7086614173228346,
            "duration": 0.5,
            "frequency": 261.6255653005986,
            "pitch": 60,
            "startTime": 0,
            "endTime": 0.5
          },
          {
            "name": "D#4",
            "midi": 63,
            "time": 0,
            "velocity": 0.7086614173228346,
            "duration": 0.5,
            "frequency": 311.12698372208087,
            "pitch": 63,
            "startTime": 0,
            "endTime": 0.5
          },
          {
            "name": "G4",
            "midi": 67,
            "time": 0,
            "velocity": 0.7086614173228346,
            "duration": 0.5,
            "frequency": 391.99543598174927,
            "pitch": 67,
            "startTime": 0,
            "endTime": 0.5
          },
          {
            "name": "F3",
            "midi": 53,
            "time": 0.5,
            "velocity": 0.7086614173228346,
            "duration": 0.5,
            "frequency": 174.61411571650194,
            "pitch": 53,
            "startTime": 0.5,
            "endTime": 1
          },
          {
            "name": "E4",
            "midi": 64,
            "time": 0.5,
            "velocity": 0.7086614173228346,
            "duration": 0.5,
            "frequency": 329.6275569128699,
            "pitch": 64,
            "startTime": 0.5,
            "endTime": 1
          },
          {
            "name": "C#5",
            "midi": 73,
            "time": 0.5,
            "velocity": 0.7086614173228346,
            "duration": 0.5,
            "frequency": 554.3652619537442,
            "pitch": 73,
            "startTime": 0.5,
            "endTime": 1
          },
          {
            "name": "A5",
            "midi": 81,
            "time": 0.5,
            "velocity": 0.7086614173228346,
            "duration": 0.5,
            "frequency": 880,
            "pitch": 76,
            "startTime": 0.5,
            "endTime": 1
          },
          {
            "name": "C#6",
            "midi": 85,
            "time": 0.5,
            "velocity": 0.7086614173228346,
            "duration": 0.5,
            "frequency": 1108.7305239074883,
            "pitch": 76,
            "startTime": 0.5,
            "endTime": 1
          },
          {
            "name": "F6",
            "midi": 89,
            "time": 0.5,
            "velocity": 0.7086614173228346,
            "duration": 0.5,
            "frequency": 1396.9129257320155,
            "pitch": 76,
            "startTime": 0.5,
            "endTime": 1
          },
          {
            "name": "G#6",
            "midi": 92,
            "time": 0.5,
            "velocity": 0.7086614173228346,
            "duration": 0.5,
            "frequency": 1661.2187903197805,
            "pitch": 76,
            "startTime": 0.5,
            "endTime": 1
          },
          {
            "name": "F#7",
            "midi": 102,
            "time": 0.5,
            "velocity": 0.7086614173228346,
            "duration": 0.5,
            "frequency": 2959.9553816930757,
            "pitch": 76,
            "startTime": 0.5,
            "endTime": 1
          },
          {
            "name": "C8",
            "midi": 108,
            "time": 0.5,
            "velocity": 0.7086614173228346,
            "duration": 0.5,
            "frequency": 4186.009044809578,
            "pitch": 76,
            "startTime": 0.5,
            "endTime": 1
          },
          {
            "name": "D#8",
            "midi": 111,
            "time": 0.5,
            "velocity": 0.7086614173228346,
            "duration": 0.5,
            "frequency": 4978.031739553294,
            "pitch": 76,
            "startTime": 0.5,
            "endTime": 1
          },
          {
            "name": "G8",
            "midi": 115,
            "time": 0.5,
            "velocity": 0.7086614173228346,
            "duration": 0.5,
            "frequency": 6271.926975707989,
            "pitch": 76,
            "startTime": 0.5,
            "endTime": 1
          }
        ],
        "controlChanges": {},
        "id": 0,
        "channelNumber": 0,
        "isPercussion": false
      }
    ]
  },
  "acer pseudoplatanus_french": {
    "header": {
      "PPQ": 128,
      "bpm": 120,
      "name": ""
    },
    "startTime": 0,
    "duration": 10.375,
    "tracks": [
      {
        "startTime": 0,
        "duration": 10.375,
        "length": 19,
        "notes": [
          {
            "name": "A4",
            "midi": 69,
            "time": 0,
            "velocity": 0.7086614173228346,
            "duration": 1,
            "frequency": 440,
            "pitch": 69,
            "startTime": 0,
            "endTime": 1
          },
          {
            "name": "C5",
            "midi": 72,
            "time": 1,
            "velocity": 0.7086614173228346,
            "duration": 1,
            "frequency": 523.2511306011972,
            "pitch": 72,
            "startTime": 1,
            "endTime": 2
          },
          {
            "name": "E5",
            "midi": 76,
            "time": 2,
            "velocity": 0.7086614173228346,
            "duration": 1,
            "frequency": 659.2551138257398,
            "pitch": 76,
            "startTime": 2,
            "endTime": 3
          },
          {
            "name": "D5",
            "midi": 74,
            "time": 3,
            "velocity": 0.7086614173228346,
            "duration": 0.25,
            "frequency": 587.3295358348151,
            "pitch": 74,
            "startTime": 3,
            "endTime": 3.25
          },
          {
            "name": "G5",
            "midi": 79,
            "time": 3.25,
            "velocity": 0.7086614173228346,
            "duration": 0.125,
            "frequency": 783.9908719634986,
            "pitch": 76,
            "startTime": 3.25,
            "endTime": 3.375
          },
          {
            "name": "B5",
            "midi": 83,
            "time": 3.375,
            "velocity": 0.7086614173228346,
            "duration": 0.25,
            "frequency": 987.7666025122484,
            "pitch": 76,
            "startTime": 3.375,
            "endTime": 3.625
          },
          {
            "name": "E6",
            "midi": 88,
            "time": 3.625,
            "velocity": 0.7086614173228346,
            "duration": 0.25,
            "frequency": 1318.5102276514797,
            "pitch": 76,
            "startTime": 3.625,
            "endTime": 3.875
          },
          {
            "name": "E6",
            "midi": 88,
            "time": 3.875,
            "velocity": 0.7086614173228346,
            "duration": 1,
            "frequency": 1318.5102276514797,
            "pitch": 76,
            "startTime": 3.875,
            "endTime": 4.875
          },
          {
            "name": "G6",
            "midi": 91,
            "time": 4.875,
            "velocity": 0.7086614173228346,
            "duration": 0.25,
            "frequency": 1567.981743926997,
            "pitch": 76,
            "startTime": 4.875,
            "endTime": 5.125
          },
          {
            "name": "D6",
            "midi": 86,
            "time": 5.125,
            "velocity": 0.7086614173228346,
            "duration": 1,
            "frequency": 1174.6590716696303,
            "pitch": 76,
            "startTime": 5.125,
            "endTime": 6.125
          },
          {
            "name": "A5",
            "midi": 81,
            "time": 6.125,
            "velocity": 0.7086614173228346,
            "duration": 0.25,
            "frequency": 880,
            "pitch": 76,
            "startTime": 6.125,
            "endTime": 6.375
          },
          {
            "name": "B5",
            "midi": 83,
            "time": 6.375,
            "velocity": 0.7086614173228346,
            "duration": 0.25,
            "frequency": 987.7666025122484,
            "pitch": 76,
            "startTime": 6.375,
            "endTime": 6.625
          },
          {
            "name": "E6",
            "midi": 88,
            "time": 6.625,
            "velocity": 0.7086614173228346,
            "duration": 0.5,
            "frequency": 1318.5102276514797,
            "pitch": 76,
            "startTime": 6.625,
            "endTime": 7.125
          },
          {
            "name": "A6",
            "midi": 93,
            "time": 7.125,
            "velocity": 0.7086614173228346,
            "duration": 1,
            "frequency": 1760,
            "pitch": 76,
            "startTime": 7.125,
            "endTime": 8.125
          },
          {
            "name": "F6",
            "midi": 89,
            "time": 8.125,
            "velocity": 0.7086614173228346,
            "duration": 0.25,
            "frequency": 1396.9129257320155,
            "pitch": 76,
            "startTime": 8.125,
            "endTime": 8.375
          },
          {
            "name": "A6",
            "midi": 93,
            "time": 8.375,
            "velocity": 0.7086614173228346,
            "duration": 1,
            "frequency": 1760,
            "pitch": 76,
            "startTime": 8.375,
            "endTime": 9.375
          },
          {
            "name": "G6",
            "midi": 91,
            "time": 9.375,
            "velocity": 0.7086614173228346,
            "duration": 0.5,
            "frequency": 1567.981743926997,
            "pitch": 76,
            "startTime": 9.375,
            "endTime": 9.875
          },
          {
            "name": "G6",
            "midi": 91,
            "time": 9.875,
            "velocity": 0.7086614173228346,
            "duration": 0.25,
            "frequency": 1567.981743926997,
            "pitch": 76,
            "startTime": 9.875,
            "endTime": 10.125
          },
          {
            "name": "E6",
            "midi": 88,
            "time": 10.125,
            "velocity": 0.7086614173228346,
            "duration": 0.25,
            "frequency": 1318.5102276514797,
            "pitch": 76,
            "startTime": 10.125,
            "endTime": 10.375
          }
        ],
        "controlChanges": {},
        "id": 0,
        "channelNumber": 0,
        "isPercussion": false
      }
    ]
  },
  "acer pseudoplatanus_keyboard": {
    "header": {
      "PPQ": 128,
      "bpm": 120,
      "name": ""
    },
    "startTime": 0,
    "duration": 2.375,
    "tracks": [
      {
        "startTime": 0,
        "duration": 2.375,
        "length": 19,
        "notes": [
          {
            "name": "D3",
            "midi": 50,
            "time": 0,
            "velocity": 0.7086614173228346,
            "duration": 0.125,
            "frequency": 146.8323839587038,
            "pitch": 50,
            "startTime": 0,
            "endTime": 0.125
          },
          {
            "name": "B3",
            "midi": 59,
            "time": 0.125,
            "velocity": 0.7086614173228346,
            "duration": 0.125,
            "frequency": 246.9416506280621,
            "pitch": 59,
            "startTime": 0.125,
            "endTime": 0.25
          },
          {
            "name": "A3",
            "midi": 57,
            "time": 0.25,
            "velocity": 0.7086614173228346,
            "duration": 0.125,
            "frequency": 220,
            "pitch": 57,
            "startTime": 0.25,
            "endTime": 0.375
          },
          {
            "name": "D4",
            "midi": 62,
            "time": 0.375,
            "velocity": 0.7086614173228346,
            "duration": 0.125,
            "frequency": 293.6647679174076,
            "pitch": 62,
            "startTime": 0.375,
            "endTime": 0.5
          },
          {
            "name": "C4",
            "midi": 60,
            "time": 0.5,
            "velocity": 0.7086614173228346,
            "duration": 0.125,
            "frequency": 261.6255653005986,
            "pitch": 60,
            "startTime": 0.5,
            "endTime": 0.625
          },
          {
            "name": "D6",
            "midi": 86,
            "time": 0.625,
            "velocity": 0.7086614173228346,
            "duration": 0.125,
            "frequency": 1174.6590716696303,
            "pitch": 76,
            "startTime": 0.625,
            "endTime": 0.75
          },
          {
            "name": "F#3",
            "midi": 54,
            "time": 0.75,
            "velocity": 0.7086614173228346,
            "duration": 0.125,
            "frequency": 184.99721135581723,
            "pitch": 54,
            "startTime": 0.75,
            "endTime": 0.875
          },
          {
            "name": "A3",
            "midi": 57,
            "time": 0.875,
            "velocity": 0.7086614173228346,
            "duration": 0.125,
            "frequency": 220,
            "pitch": 57,
            "startTime": 0.875,
            "endTime": 1
          },
          {
            "name": "D5",
            "midi": 74,
            "time": 1,
            "velocity": 0.7086614173228346,
            "duration": 0.125,
            "frequency": 587.3295358348151,
            "pitch": 74,
            "startTime": 1,
            "endTime": 1.125
          },
          {
            "name": "A#3",
            "midi": 58,
            "time": 1.125,
            "velocity": 0.7086614173228346,
            "duration": 0.125,
            "frequency": 233.08188075904496,
            "pitch": 58,
            "startTime": 1.125,
            "endTime": 1.25
          },
          {
            "name": "A#5",
            "midi": 82,
            "time": 1.25,
            "velocity": 0.7086614173228346,
            "duration": 0.125,
            "frequency": 932.3275230361799,
            "pitch": 76,
            "startTime": 1.25,
            "endTime": 1.375
          },
          {
            "name": "D6",
            "midi": 86,
            "time": 1.375,
            "velocity": 0.7086614173228346,
            "duration": 0.125,
            "frequency": 1174.6590716696303,
            "pitch": 76,
            "startTime": 1.375,
            "endTime": 1.5
          },
          {
            "name": "B5",
            "midi": 83,
            "time": 1.5,
            "velocity": 0.7086614173228346,
            "duration": 0.125,
            "frequency": 987.7666025122484,
            "pitch": 76,
            "startTime": 1.5,
            "endTime": 1.625
          },
          {
            "name": "D3",
            "midi": 50,
            "time": 1.625,
            "velocity": 0.7086614173228346,
            "duration": 0.125,
            "frequency": 146.8323839587038,
            "pitch": 50,
            "startTime": 1.625,
            "endTime": 1.75
          },
          {
            "name": "F#4",
            "midi": 66,
            "time": 1.75,
            "velocity": 0.7086614173228346,
            "duration": 0.125,
            "frequency": 369.99442271163446,
            "pitch": 66,
            "startTime": 1.75,
            "endTime": 1.875
          },
          {
            "name": "D3",
            "midi": 50,
            "time": 1.875,
            "velocity": 0.7086614173228346,
            "duration": 0.125,
            "frequency": 146.8323839587038,
            "pitch": 50,
            "startTime": 1.875,
            "endTime": 2
          },
          {
            "name": "C5",
            "midi": 72,
            "time": 2,
            "velocity": 0.7086614173228346,
            "duration": 0.125,
            "frequency": 523.2511306011972,
            "pitch": 72,
            "startTime": 2,
            "endTime": 2.125
          },
          {
            "name": "D5",
            "midi": 74,
            "time": 2.125,
            "velocity": 0.7086614173228346,
            "duration": 0.125,
            "frequency": 587.3295358348151,
            "pitch": 74,
            "startTime": 2.125,
            "endTime": 2.25
          },
          {
            "name": "F#3",
            "midi": 54,
            "time": 2.25,
            "velocity": 0.7086614173228346,
            "duration": 0.125,
            "frequency": 184.99721135581723,
            "pitch": 54,
            "startTime": 2.25,
            "endTime": 2.375
          }
        ],
        "controlChanges": {},
        "id": 0,
        "channelNumber": 0,
        "isPercussion": false
      }
    ]
  },
  "acer pseudoplatanus_chords": {
    "header": {
      "PPQ": 128,
      "bpm": 120,
      "name": ""
    },
    "startTime": 0,
    "duration": 1,
    "tracks": [
      {
        "startTime": 0,
        "duration": 1,
        "length": 18,
        "notes": [
          {
            "name": "C#3",
            "midi": 49,
            "time": 0,
            "velocity": 0.7086614173228346,
            "duration": 0.5,
            "frequency": 138.59131548843604,
            "pitch": 49,
            "startTime": 0,
            "endTime": 0.5
          },
          {
            "name": "C4",
            "midi": 60,
            "time": 0,
            "velocity": 0.7086614173228346,
            "duration": 0.5,
            "frequency": 261.6255653005986,
            "pitch": 60,
            "startTime": 0,
            "endTime": 0.5
          },
          {
            "name": "D#4",
            "midi": 63,
            "time": 0,
            "velocity": 0.7086614173228346,
            "duration": 0.5,
            "frequency": 311.12698372208087,
            "pitch": 63,
            "startTime": 0,
            "endTime": 0.5
          },
          {
            "name": "G4",
            "midi": 67,
            "time": 0,
            "velocity": 0.7086614173228346,
            "duration": 0.5,
            "frequency": 391.99543598174927,
            "pitch": 67,
            "startTime": 0,
            "endTime": 0.5
          },
          {
            "name": "F3",
            "midi": 53,
            "time": 0.5,
            "velocity": 0.7086614173228346,
            "duration": 0.5,
            "frequency": 174.61411571650194,
            "pitch": 53,
            "startTime": 0.5,
            "endTime": 1
          },
          {
            "name": "G3",
            "midi": 55,
            "time": 0.5,
            "velocity": 0.7086614173228346,
            "duration": 0.5,
            "frequency": 195.99771799087463,
            "pitch": 55,
            "startTime": 0.5,
            "endTime": 1
          },
          {
            "name": "D#4",
            "midi": 63,
            "time": 0.5,
            "velocity": 0.7086614173228346,
            "duration": 0.5,
            "frequency": 311.12698372208087,
            "pitch": 63,
            "startTime": 0.5,
            "endTime": 1
          },
          {
            "name": "A#4",
            "midi": 70,
            "time": 0.5,
            "velocity": 0.7086614173228346,
            "duration": 0.5,
            "frequency": 466.1637615180899,
            "pitch": 70,
            "startTime": 0.5,
            "endTime": 1
          },
          {
            "name": "C5",
            "midi": 72,
            "time": 0.5,
            "velocity": 0.7086614173228346,
            "duration": 0.5,
            "frequency": 523.2511306011972,
            "pitch": 72,
            "startTime": 0.5,
            "endTime": 1
          },
          {
            "name": "G#5",
            "midi": 80,
            "time": 0.5,
            "velocity": 0.7086614173228346,
            "duration": 0.5,
            "frequency": 830.6093951598903,
            "pitch": 76,
            "startTime": 0.5,
            "endTime": 1
          },
          {
            "name": "F6",
            "midi": 89,
            "time": 0.5,
            "velocity": 0.7086614173228346,
            "duration": 0.5,
            "frequency": 1396.9129257320155,
            "pitch": 76,
            "startTime": 0.5,
            "endTime": 1
          },
          {
            "name": "E7",
            "midi": 100,
            "time": 0.5,
            "velocity": 0.7086614173228346,
            "duration": 0.5,
            "frequency": 2637.0204553029594,
            "pitch": 76,
            "startTime": 0.5,
            "endTime": 1
          },
          {
            "name": "C#8",
            "midi": 109,
            "time": 0.5,
            "velocity": 0.7086614173228346,
            "duration": 0.5,
            "frequency": 4434.922095629954,
            "pitch": 76,
            "startTime": 0.5,
            "endTime": 1
          },
          {
            "name": "A8",
            "midi": 117,
            "time": 0.5,
            "velocity": 0.7086614173228346,
            "duration": 0.5,
            "frequency": 7040,
            "pitch": 76,
            "startTime": 0.5,
            "endTime": 1
          },
          {
            "name": "C#9",
            "midi": 121,
            "time": 0.5,
            "velocity": 0.7086614173228346,
            "duration": 0.5,
            "frequency": 8869.844191259906,
            "pitch": 76,
            "startTime": 0.5,
            "endTime": 1
          },
          {
            "name": "F9",
            "midi": 125,
            "time": 0.5,
            "velocity": 0.7086614173228346,
            "duration": 0.5,
            "frequency": 11175.303405856126,
            "pitch": 76,
            "startTime": 0.5,
            "endTime": 1
          },
          {
            "name": "A#9",
            "midi": 130,
            "time": 0.5,
            "velocity": 0.7086614173228346,
            "duration": 0.5,
            "frequency": 14917.240368578874,
            "pitch": 76,
            "startTime": 0.5,
            "endTime": 1
          },
          {
            "name": "G10",
            "midi": 139,
            "time": 0.5,
            "velocity": 0.7086614173228346,
            "duration": 0.5,
            "frequency": 25087.70790283195,
            "pitch": 76,
            "startTime": 0.5,
            "endTime": 1
          }
        ],
        "controlChanges": {},
        "id": 0,
        "channelNumber": 0,
        "isPercussion": false
      }
    ]
  },
  "acer saccharinum_french": {
    "header": {
      "PPQ": 128,
      "bpm": 120,
      "name": ""
    },
    "startTime": 0,
    "duration": 10.125,
    "tracks": [
      {
        "startTime": 0,
        "duration": 10.125,
        "length": 16,
        "notes": [
          {
            "name": "A4",
            "midi": 69,
            "time": 0,
            "velocity": 0.7086614173228346,
            "duration": 1,
            "frequency": 440,
            "pitch": 69,
            "startTime": 0,
            "endTime": 1
          },
          {
            "name": "C5",
            "midi": 72,
            "time": 1,
            "velocity": 0.7086614173228346,
            "duration": 1,
            "frequency": 523.2511306011972,
            "pitch": 72,
            "startTime": 1,
            "endTime": 2
          },
          {
            "name": "E5",
            "midi": 76,
            "time": 2,
            "velocity": 0.7086614173228346,
            "duration": 1,
            "frequency": 659.2551138257398,
            "pitch": 76,
            "startTime": 2,
            "endTime": 3
          },
          {
            "name": "D5",
            "midi": 74,
            "time": 3,
            "velocity": 0.7086614173228346,
            "duration": 0.25,
            "frequency": 587.3295358348151,
            "pitch": 74,
            "startTime": 3,
            "endTime": 3.25
          },
          {
            "name": "G5",
            "midi": 79,
            "time": 3.25,
            "velocity": 0.7086614173228346,
            "duration": 0.125,
            "frequency": 783.9908719634986,
            "pitch": 76,
            "startTime": 3.25,
            "endTime": 3.375
          },
          {
            "name": "E5",
            "midi": 76,
            "time": 3.375,
            "velocity": 0.7086614173228346,
            "duration": 0.25,
            "frequency": 659.2551138257398,
            "pitch": 76,
            "startTime": 3.375,
            "endTime": 3.625
          },
          {
            "name": "A5",
            "midi": 81,
            "time": 3.625,
            "velocity": 0.7086614173228346,
            "duration": 1,
            "frequency": 880,
            "pitch": 76,
            "startTime": 3.625,
            "endTime": 4.625
          },
          {
            "name": "C6",
            "midi": 84,
            "time": 4.625,
            "velocity": 0.7086614173228346,
            "duration": 1,
            "frequency": 1046.5022612023945,
            "pitch": 76,
            "startTime": 4.625,
            "endTime": 5.625
          },
          {
            "name": "C6",
            "midi": 84,
            "time": 5.625,
            "velocity": 0.7086614173228346,
            "duration": 1,
            "frequency": 1046.5022612023945,
            "pitch": 76,
            "startTime": 5.625,
            "endTime": 6.625
          },
          {
            "name": "A5",
            "midi": 81,
            "time": 6.625,
            "velocity": 0.7086614173228346,
            "duration": 0.5,
            "frequency": 880,
            "pitch": 76,
            "startTime": 6.625,
            "endTime": 7.125
          },
          {
            "name": "A5",
            "midi": 81,
            "time": 7.125,
            "velocity": 0.7086614173228346,
            "duration": 1,
            "frequency": 880,
            "pitch": 76,
            "startTime": 7.125,
            "endTime": 8.125
          },
          {
            "name": "D6",
            "midi": 86,
            "time": 8.125,
            "velocity": 0.7086614173228346,
            "duration": 0.25,
            "frequency": 1174.6590716696303,
            "pitch": 76,
            "startTime": 8.125,
            "endTime": 8.375
          },
          {
            "name": "B5",
            "midi": 83,
            "time": 8.375,
            "velocity": 0.7086614173228346,
            "duration": 0.5,
            "frequency": 987.7666025122484,
            "pitch": 76,
            "startTime": 8.375,
            "endTime": 8.875
          },
          {
            "name": "G5",
            "midi": 79,
            "time": 8.875,
            "velocity": 0.7086614173228346,
            "duration": 0.5,
            "frequency": 783.9908719634986,
            "pitch": 76,
            "startTime": 8.875,
            "endTime": 9.375
          },
          {
            "name": "G5",
            "midi": 79,
            "time": 9.375,
            "velocity": 0.7086614173228346,
            "duration": 0.25,
            "frequency": 783.9908719634986,
            "pitch": 76,
            "startTime": 9.375,
            "endTime": 9.625
          },
          {
            "name": "F5",
            "midi": 77,
            "time": 9.625,
            "velocity": 0.7086614173228346,
            "duration": 0.5,
            "frequency": 698.4564628660078,
            "pitch": 76,
            "startTime": 9.625,
            "endTime": 10.125
          }
        ],
        "controlChanges": {},
        "id": 0,
        "channelNumber": 0,
        "isPercussion": false
      }
    ]
  },
  "acer saccharinum_keyboard": {
    "header": {
      "PPQ": 128,
      "bpm": 120,
      "name": ""
    },
    "startTime": 0,
    "duration": 2,
    "tracks": [
      {
        "startTime": 0,
        "duration": 2,
        "length": 16,
        "notes": [
          {
            "name": "D3",
            "midi": 50,
            "time": 0,
            "velocity": 0.7086614173228346,
            "duration": 0.125,
            "frequency": 146.8323839587038,
            "pitch": 50,
            "startTime": 0,
            "endTime": 0.125
          },
          {
            "name": "B3",
            "midi": 59,
            "time": 0.125,
            "velocity": 0.7086614173228346,
            "duration": 0.125,
            "frequency": 246.9416506280621,
            "pitch": 59,
            "startTime": 0.125,
            "endTime": 0.25
          },
          {
            "name": "A3",
            "midi": 57,
            "time": 0.25,
            "velocity": 0.7086614173228346,
            "duration": 0.125,
            "frequency": 220,
            "pitch": 57,
            "startTime": 0.25,
            "endTime": 0.375
          },
          {
            "name": "D4",
            "midi": 62,
            "time": 0.375,
            "velocity": 0.7086614173228346,
            "duration": 0.125,
            "frequency": 293.6647679174076,
            "pitch": 62,
            "startTime": 0.375,
            "endTime": 0.5
          },
          {
            "name": "C4",
            "midi": 60,
            "time": 0.5,
            "velocity": 0.7086614173228346,
            "duration": 0.125,
            "frequency": 261.6255653005986,
            "pitch": 60,
            "startTime": 0.5,
            "endTime": 0.625
          },
          {
            "name": "F#3",
            "midi": 54,
            "time": 0.625,
            "velocity": 0.7086614173228346,
            "duration": 0.125,
            "frequency": 184.99721135581723,
            "pitch": 54,
            "startTime": 0.625,
            "endTime": 0.75
          },
          {
            "name": "D3",
            "midi": 50,
            "time": 0.75,
            "velocity": 0.7086614173228346,
            "duration": 0.125,
            "frequency": 146.8323839587038,
            "pitch": 50,
            "startTime": 0.75,
            "endTime": 0.875
          },
          {
            "name": "B3",
            "midi": 59,
            "time": 0.875,
            "velocity": 0.7086614173228346,
            "duration": 0.125,
            "frequency": 246.9416506280621,
            "pitch": 59,
            "startTime": 0.875,
            "endTime": 1
          },
          {
            "name": "B3",
            "midi": 59,
            "time": 1,
            "velocity": 0.7086614173228346,
            "duration": 0.125,
            "frequency": 246.9416506280621,
            "pitch": 59,
            "startTime": 1,
            "endTime": 1.125
          },
          {
            "name": "B4",
            "midi": 71,
            "time": 1.125,
            "velocity": 0.7086614173228346,
            "duration": 0.125,
            "frequency": 493.8833012561242,
            "pitch": 71,
            "startTime": 1.125,
            "endTime": 1.25
          },
          {
            "name": "D3",
            "midi": 50,
            "time": 1.25,
            "velocity": 0.7086614173228346,
            "duration": 0.125,
            "frequency": 146.8323839587038,
            "pitch": 50,
            "startTime": 1.25,
            "endTime": 1.375
          },
          {
            "name": "D4",
            "midi": 62,
            "time": 1.375,
            "velocity": 0.7086614173228346,
            "duration": 0.125,
            "frequency": 293.6647679174076,
            "pitch": 62,
            "startTime": 1.375,
            "endTime": 1.5
          },
          {
            "name": "F#5",
            "midi": 78,
            "time": 1.5,
            "velocity": 0.7086614173228346,
            "duration": 0.125,
            "frequency": 739.9888454232689,
            "pitch": 76,
            "startTime": 1.5,
            "endTime": 1.625
          },
          {
            "name": "C5",
            "midi": 72,
            "time": 1.625,
            "velocity": 0.7086614173228346,
            "duration": 0.125,
            "frequency": 523.2511306011972,
            "pitch": 72,
            "startTime": 1.625,
            "endTime": 1.75
          },
          {
            "name": "D5",
            "midi": 74,
            "time": 1.75,
            "velocity": 0.7086614173228346,
            "duration": 0.125,
            "frequency": 587.3295358348151,
            "pitch": 74,
            "startTime": 1.75,
            "endTime": 1.875
          },
          {
            "name": "E5",
            "midi": 76,
            "time": 1.875,
            "velocity": 0.7086614173228346,
            "duration": 0.125,
            "frequency": 659.2551138257398,
            "pitch": 76,
            "startTime": 1.875,
            "endTime": 2
          }
        ],
        "controlChanges": {},
        "id": 0,
        "channelNumber": 0,
        "isPercussion": false
      }
    ]
  },
  "acer saccharinum_chords": {
    "header": {
      "PPQ": 128,
      "bpm": 120,
      "name": ""
    },
    "startTime": 0,
    "duration": 1,
    "tracks": [
      {
        "startTime": 0,
        "duration": 1,
        "length": 15,
        "notes": [
          {
            "name": "C#3",
            "midi": 49,
            "time": 0,
            "velocity": 0.7086614173228346,
            "duration": 0.5,
            "frequency": 138.59131548843604,
            "pitch": 49,
            "startTime": 0,
            "endTime": 0.5
          },
          {
            "name": "C4",
            "midi": 60,
            "time": 0,
            "velocity": 0.7086614173228346,
            "duration": 0.5,
            "frequency": 261.6255653005986,
            "pitch": 60,
            "startTime": 0,
            "endTime": 0.5
          },
          {
            "name": "D#4",
            "midi": 63,
            "time": 0,
            "velocity": 0.7086614173228346,
            "duration": 0.5,
            "frequency": 311.12698372208087,
            "pitch": 63,
            "startTime": 0,
            "endTime": 0.5
          },
          {
            "name": "G4",
            "midi": 67,
            "time": 0,
            "velocity": 0.7086614173228346,
            "duration": 0.5,
            "frequency": 391.99543598174927,
            "pitch": 67,
            "startTime": 0,
            "endTime": 0.5
          },
          {
            "name": "G3",
            "midi": 55,
            "time": 0.5,
            "velocity": 0.7086614173228346,
            "duration": 0.5,
            "frequency": 195.99771799087463,
            "pitch": 55,
            "startTime": 0.5,
            "endTime": 1
          },
          {
            "name": "C#4",
            "midi": 61,
            "time": 0.5,
            "velocity": 0.7086614173228346,
            "duration": 0.5,
            "frequency": 277.1826309768721,
            "pitch": 61,
            "startTime": 0.5,
            "endTime": 1
          },
          {
            "name": "C5",
            "midi": 72,
            "time": 0.5,
            "velocity": 0.7086614173228346,
            "duration": 0.5,
            "frequency": 523.2511306011972,
            "pitch": 72,
            "startTime": 0.5,
            "endTime": 1
          },
          {
            "name": "C6",
            "midi": 84,
            "time": 0.5,
            "velocity": 0.7086614173228346,
            "duration": 0.5,
            "frequency": 1046.5022612023945,
            "pitch": 76,
            "startTime": 0.5,
            "endTime": 1
          },
          {
            "name": "D6",
            "midi": 86,
            "time": 0.5,
            "velocity": 0.7086614173228346,
            "duration": 0.5,
            "frequency": 1174.6590716696303,
            "pitch": 76,
            "startTime": 0.5,
            "endTime": 1
          },
          {
            "name": "C#7",
            "midi": 97,
            "time": 0.5,
            "velocity": 0.7086614173228346,
            "duration": 0.5,
            "frequency": 2217.461047814977,
            "pitch": 76,
            "startTime": 0.5,
            "endTime": 1
          },
          {
            "name": "G7",
            "midi": 103,
            "time": 0.5,
            "velocity": 0.7086614173228346,
            "duration": 0.5,
            "frequency": 3135.9634878539946,
            "pitch": 76,
            "startTime": 0.5,
            "endTime": 1
          },
          {
            "name": "F#8",
            "midi": 114,
            "time": 0.5,
            "velocity": 0.7086614173228346,
            "duration": 0.5,
            "frequency": 5919.910763386151,
            "pitch": 76,
            "startTime": 0.5,
            "endTime": 1
          },
          {
            "name": "F9",
            "midi": 125,
            "time": 0.5,
            "velocity": 0.7086614173228346,
            "duration": 0.5,
            "frequency": 11175.303405856126,
            "pitch": 76,
            "startTime": 0.5,
            "endTime": 1
          },
          {
            "name": "A#9",
            "midi": 130,
            "time": 0.5,
            "velocity": 0.7086614173228346,
            "duration": 0.5,
            "frequency": 14917.240368578874,
            "pitch": 76,
            "startTime": 0.5,
            "endTime": 1
          },
          {
            "name": "F10",
            "midi": 137,
            "time": 0.5,
            "velocity": 0.7086614173228346,
            "duration": 0.5,
            "frequency": 22350.606811712252,
            "pitch": 76,
            "startTime": 0.5,
            "endTime": 1
          }
        ],
        "controlChanges": {},
        "id": 0,
        "channelNumber": 0,
        "isPercussion": false
      }
    ]
  },
  "aesculus hippocastanum_french": {
    "header": {
      "PPQ": 128,
      "bpm": 120,
      "name": ""
    },
    "startTime": 0,
    "duration": 11.125,
    "tracks": [
      {
        "startTime": 0,
        "duration": 11.125,
        "length": 22,
        "notes": [
          {
            "name": "A4",
            "midi": 69,
            "time": 0,
            "velocity": 0.7086614173228346,
            "duration": 1,
            "frequency": 440,
            "pitch": 69,
            "startTime": 0,
            "endTime": 1
          },
          {
            "name": "E4",
            "midi": 64,
            "time": 1,
            "velocity": 0.7086614173228346,
            "duration": 1,
            "frequency": 329.6275569128699,
            "pitch": 64,
            "startTime": 1,
            "endTime": 2
          },
          {
            "name": "E4",
            "midi": 64,
            "time": 2,
            "velocity": 0.7086614173228346,
            "duration": 0.25,
            "frequency": 329.6275569128699,
            "pitch": 64,
            "startTime": 2,
            "endTime": 2.25
          },
          {
            "name": "C4",
            "midi": 60,
            "time": 2.25,
            "velocity": 0.7086614173228346,
            "duration": 1,
            "frequency": 261.6255653005986,
            "pitch": 60,
            "startTime": 2.25,
            "endTime": 3.25
          },
          {
            "name": "G3",
            "midi": 55,
            "time": 3.25,
            "velocity": 0.7086614173228346,
            "duration": 0.25,
            "frequency": 195.99771799087463,
            "pitch": 55,
            "startTime": 3.25,
            "endTime": 3.5
          },
          {
            "name": "E3",
            "midi": 52,
            "time": 3.5,
            "velocity": 0.7086614173228346,
            "duration": 0.5,
            "frequency": 164.81377845643496,
            "pitch": 52,
            "startTime": 3.5,
            "endTime": 4
          },
          {
            "name": "G3",
            "midi": 55,
            "time": 4,
            "velocity": 0.7086614173228346,
            "duration": 0.25,
            "frequency": 195.99771799087463,
            "pitch": 55,
            "startTime": 4,
            "endTime": 4.25
          },
          {
            "name": "E3",
            "midi": 52,
            "time": 4.25,
            "velocity": 0.7086614173228346,
            "duration": 0.25,
            "frequency": 164.81377845643496,
            "pitch": 52,
            "startTime": 4.25,
            "endTime": 4.5
          },
          {
            "name": "G3",
            "midi": 55,
            "time": 4.5,
            "velocity": 0.7086614173228346,
            "duration": 0.125,
            "frequency": 195.99771799087463,
            "pitch": 55,
            "startTime": 4.5,
            "endTime": 4.625
          },
          {
            "name": "A3",
            "midi": 57,
            "time": 4.625,
            "velocity": 0.7086614173228346,
            "duration": 0.5,
            "frequency": 220,
            "pitch": 57,
            "startTime": 4.625,
            "endTime": 5.125
          },
          {
            "name": "B3",
            "midi": 59,
            "time": 5.125,
            "velocity": 0.7086614173228346,
            "duration": 0.5,
            "frequency": 246.9416506280621,
            "pitch": 59,
            "startTime": 5.125,
            "endTime": 5.625
          },
          {
            "name": "B3",
            "midi": 59,
            "time": 5.625,
            "velocity": 0.7086614173228346,
            "duration": 0.25,
            "frequency": 246.9416506280621,
            "pitch": 59,
            "startTime": 5.625,
            "endTime": 5.875
          },
          {
            "name": "B3",
            "midi": 59,
            "time": 5.875,
            "velocity": 0.7086614173228346,
            "duration": 0.25,
            "frequency": 246.9416506280621,
            "pitch": 59,
            "startTime": 5.875,
            "endTime": 6.125
          },
          {
            "name": "A3",
            "midi": 57,
            "time": 6.125,
            "velocity": 0.7086614173228346,
            "duration": 0.25,
            "frequency": 220,
            "pitch": 57,
            "startTime": 6.125,
            "endTime": 6.375
          },
          {
            "name": "C4",
            "midi": 60,
            "time": 6.375,
            "velocity": 0.7086614173228346,
            "duration": 1,
            "frequency": 261.6255653005986,
            "pitch": 60,
            "startTime": 6.375,
            "endTime": 7.375
          },
          {
            "name": "A3",
            "midi": 57,
            "time": 7.375,
            "velocity": 0.7086614173228346,
            "duration": 1,
            "frequency": 220,
            "pitch": 57,
            "startTime": 7.375,
            "endTime": 8.375
          },
          {
            "name": "E3",
            "midi": 52,
            "time": 8.375,
            "velocity": 0.7086614173228346,
            "duration": 0.25,
            "frequency": 164.81377845643496,
            "pitch": 52,
            "startTime": 8.375,
            "endTime": 8.625
          },
          {
            "name": "F3",
            "midi": 53,
            "time": 8.625,
            "velocity": 0.7086614173228346,
            "duration": 0.25,
            "frequency": 174.61411571650194,
            "pitch": 53,
            "startTime": 8.625,
            "endTime": 8.875
          },
          {
            "name": "A3",
            "midi": 57,
            "time": 8.875,
            "velocity": 0.7086614173228346,
            "duration": 1,
            "frequency": 220,
            "pitch": 57,
            "startTime": 8.875,
            "endTime": 9.875
          },
          {
            "name": "G3",
            "midi": 55,
            "time": 9.875,
            "velocity": 0.7086614173228346,
            "duration": 0.5,
            "frequency": 195.99771799087463,
            "pitch": 55,
            "startTime": 9.875,
            "endTime": 10.375
          },
          {
            "name": "G3",
            "midi": 55,
            "time": 10.375,
            "velocity": 0.7086614173228346,
            "duration": 0.25,
            "frequency": 195.99771799087463,
            "pitch": 55,
            "startTime": 10.375,
            "endTime": 10.625
          },
          {
            "name": "F3",
            "midi": 53,
            "time": 10.625,
            "velocity": 0.7086614173228346,
            "duration": 0.5,
            "frequency": 174.61411571650194,
            "pitch": 53,
            "startTime": 10.625,
            "endTime": 11.125
          }
        ],
        "controlChanges": {},
        "id": 0,
        "channelNumber": 0,
        "isPercussion": false
      }
    ]
  },
  "aesculus hippocastanum_keyboard": {
    "header": {
      "PPQ": 128,
      "bpm": 120,
      "name": ""
    },
    "startTime": 0,
    "duration": 2.75,
    "tracks": [
      {
        "startTime": 0,
        "duration": 2.75,
        "length": 22,
        "notes": [
          {
            "name": "D3",
            "midi": 50,
            "time": 0,
            "velocity": 0.7086614173228346,
            "duration": 0.125,
            "frequency": 146.8323839587038,
            "pitch": 50,
            "startTime": 0,
            "endTime": 0.125
          },
          {
            "name": "A3",
            "midi": 57,
            "time": 0.125,
            "velocity": 0.7086614173228346,
            "duration": 0.125,
            "frequency": 220,
            "pitch": 57,
            "startTime": 0.125,
            "endTime": 0.25
          },
          {
            "name": "F#3",
            "midi": 54,
            "time": 0.25,
            "velocity": 0.7086614173228346,
            "duration": 0.125,
            "frequency": 184.99721135581723,
            "pitch": 54,
            "startTime": 0.25,
            "endTime": 0.375
          },
          {
            "name": "B3",
            "midi": 59,
            "time": 0.375,
            "velocity": 0.7086614173228346,
            "duration": 0.125,
            "frequency": 246.9416506280621,
            "pitch": 59,
            "startTime": 0.375,
            "endTime": 0.5
          },
          {
            "name": "D5",
            "midi": 74,
            "time": 0.5,
            "velocity": 0.7086614173228346,
            "duration": 0.125,
            "frequency": 587.3295358348151,
            "pitch": 74,
            "startTime": 0.5,
            "endTime": 0.625
          },
          {
            "name": "B5",
            "midi": 83,
            "time": 0.625,
            "velocity": 0.7086614173228346,
            "duration": 0.125,
            "frequency": 987.7666025122484,
            "pitch": 76,
            "startTime": 0.625,
            "endTime": 0.75
          },
          {
            "name": "D5",
            "midi": 74,
            "time": 0.75,
            "velocity": 0.7086614173228346,
            "duration": 0.125,
            "frequency": 587.3295358348151,
            "pitch": 74,
            "startTime": 0.75,
            "endTime": 0.875
          },
          {
            "name": "F#3",
            "midi": 54,
            "time": 0.875,
            "velocity": 0.7086614173228346,
            "duration": 0.125,
            "frequency": 184.99721135581723,
            "pitch": 54,
            "startTime": 0.875,
            "endTime": 1
          },
          {
            "name": "C4",
            "midi": 60,
            "time": 1,
            "velocity": 0.7086614173228346,
            "duration": 0.125,
            "frequency": 261.6255653005986,
            "pitch": 60,
            "startTime": 1,
            "endTime": 1.125
          },
          {
            "name": "B4",
            "midi": 71,
            "time": 1.125,
            "velocity": 0.7086614173228346,
            "duration": 0.125,
            "frequency": 493.8833012561242,
            "pitch": 71,
            "startTime": 1.125,
            "endTime": 1.25
          },
          {
            "name": "F#5",
            "midi": 78,
            "time": 1.25,
            "velocity": 0.7086614173228346,
            "duration": 0.125,
            "frequency": 739.9888454232689,
            "pitch": 76,
            "startTime": 1.25,
            "endTime": 1.375
          },
          {
            "name": "D6",
            "midi": 86,
            "time": 1.375,
            "velocity": 0.7086614173228346,
            "duration": 0.125,
            "frequency": 1174.6590716696303,
            "pitch": 76,
            "startTime": 1.375,
            "endTime": 1.5
          },
          {
            "name": "D6",
            "midi": 86,
            "time": 1.5,
            "velocity": 0.7086614173228346,
            "duration": 0.125,
            "frequency": 1174.6590716696303,
            "pitch": 76,
            "startTime": 1.5,
            "endTime": 1.625
          },
          {
            "name": "A#5",
            "midi": 82,
            "time": 1.625,
            "velocity": 0.7086614173228346,
            "duration": 0.125,
            "frequency": 932.3275230361799,
            "pitch": 76,
            "startTime": 1.625,
            "endTime": 1.75
          },
          {
            "name": "B3",
            "midi": 59,
            "time": 1.75,
            "velocity": 0.7086614173228346,
            "duration": 0.125,
            "frequency": 246.9416506280621,
            "pitch": 59,
            "startTime": 1.75,
            "endTime": 1.875
          },
          {
            "name": "D3",
            "midi": 50,
            "time": 1.875,
            "velocity": 0.7086614173228346,
            "duration": 0.125,
            "frequency": 146.8323839587038,
            "pitch": 50,
            "startTime": 1.875,
            "endTime": 2
          },
          {
            "name": "F#3",
            "midi": 54,
            "time": 2,
            "velocity": 0.7086614173228346,
            "duration": 0.125,
            "frequency": 184.99721135581723,
            "pitch": 54,
            "startTime": 2,
            "endTime": 2.125
          },
          {
            "name": "F#4",
            "midi": 66,
            "time": 2.125,
            "velocity": 0.7086614173228346,
            "duration": 0.125,
            "frequency": 369.99442271163446,
            "pitch": 66,
            "startTime": 2.125,
            "endTime": 2.25
          },
          {
            "name": "D3",
            "midi": 50,
            "time": 2.25,
            "velocity": 0.7086614173228346,
            "duration": 0.125,
            "frequency": 146.8323839587038,
            "pitch": 50,
            "startTime": 2.25,
            "endTime": 2.375
          },
          {
            "name": "C5",
            "midi": 72,
            "time": 2.375,
            "velocity": 0.7086614173228346,
            "duration": 0.125,
            "frequency": 523.2511306011972,
            "pitch": 72,
            "startTime": 2.375,
            "endTime": 2.5
          },
          {
            "name": "D5",
            "midi": 74,
            "time": 2.5,
            "velocity": 0.7086614173228346,
            "duration": 0.125,
            "frequency": 587.3295358348151,
            "pitch": 74,
            "startTime": 2.5,
            "endTime": 2.625
          },
          {
            "name": "E5",
            "midi": 76,
            "time": 2.625,
            "velocity": 0.7086614173228346,
            "duration": 0.125,
            "frequency": 659.2551138257398,
            "pitch": 76,
            "startTime": 2.625,
            "endTime": 2.75
          }
        ],
        "controlChanges": {},
        "id": 0,
        "channelNumber": 0,
        "isPercussion": false
      }
    ]
  },
  "aesculus hippocastanum_chords": {
    "header": {
      "PPQ": 128,
      "bpm": 120,
      "name": ""
    },
    "startTime": 0,
    "duration": 1,
    "tracks": [
      {
        "startTime": 0,
        "duration": 1,
        "length": 21,
        "notes": [
          {
            "name": "C#3",
            "midi": 49,
            "time": 0,
            "velocity": 0.7086614173228346,
            "duration": 0.5,
            "frequency": 138.59131548843604,
            "pitch": 49,
            "startTime": 0,
            "endTime": 0.5
          },
          {
            "name": "D#3",
            "midi": 51,
            "time": 0,
            "velocity": 0.7086614173228346,
            "duration": 0.5,
            "frequency": 155.56349186104043,
            "pitch": 51,
            "startTime": 0,
            "endTime": 0.5
          },
          {
            "name": "G3",
            "midi": 55,
            "time": 0,
            "velocity": 0.7086614173228346,
            "duration": 0.5,
            "frequency": 195.99771799087463,
            "pitch": 55,
            "startTime": 0,
            "endTime": 0.5
          },
          {
            "name": "C4",
            "midi": 60,
            "time": 0,
            "velocity": 0.7086614173228346,
            "duration": 0.5,
            "frequency": 261.6255653005986,
            "pitch": 60,
            "startTime": 0,
            "endTime": 0.5
          },
          {
            "name": "A#4",
            "midi": 70,
            "time": 0,
            "velocity": 0.7086614173228346,
            "duration": 0.5,
            "frequency": 466.1637615180899,
            "pitch": 70,
            "startTime": 0,
            "endTime": 0.5
          },
          {
            "name": "E5",
            "midi": 76,
            "time": 0,
            "velocity": 0.7086614173228346,
            "duration": 0.5,
            "frequency": 659.2551138257398,
            "pitch": 76,
            "startTime": 0,
            "endTime": 0.5
          },
          {
            "name": "A#5",
            "midi": 82,
            "time": 0,
            "velocity": 0.7086614173228346,
            "duration": 0.5,
            "frequency": 932.3275230361799,
            "pitch": 76,
            "startTime": 0,
            "endTime": 0.5
          },
          {
            "name": "G6",
            "midi": 91,
            "time": 0,
            "velocity": 0.7086614173228346,
            "duration": 0.5,
            "frequency": 1567.981743926997,
            "pitch": 76,
            "startTime": 0,
            "endTime": 0.5
          },
          {
            "name": "D3",
            "midi": 50,
            "time": 0.5,
            "velocity": 0.7086614173228346,
            "duration": 0.5,
            "frequency": 146.8323839587038,
            "pitch": 50,
            "startTime": 0.5,
            "endTime": 1
          },
          {
            "name": "F#3",
            "midi": 54,
            "time": 0.5,
            "velocity": 0.7086614173228346,
            "duration": 0.5,
            "frequency": 184.99721135581723,
            "pitch": 54,
            "startTime": 0.5,
            "endTime": 1
          },
          {
            "name": "F4",
            "midi": 65,
            "time": 0.5,
            "velocity": 0.7086614173228346,
            "duration": 0.5,
            "frequency": 349.2282314330039,
            "pitch": 65,
            "startTime": 0.5,
            "endTime": 1
          },
          {
            "name": "F5",
            "midi": 77,
            "time": 0.5,
            "velocity": 0.7086614173228346,
            "duration": 0.5,
            "frequency": 698.4564628660078,
            "pitch": 76,
            "startTime": 0.5,
            "endTime": 1
          },
          {
            "name": "G#5",
            "midi": 80,
            "time": 0.5,
            "velocity": 0.7086614173228346,
            "duration": 0.5,
            "frequency": 830.6093951598903,
            "pitch": 76,
            "startTime": 0.5,
            "endTime": 1
          },
          {
            "name": "C6",
            "midi": 84,
            "time": 0.5,
            "velocity": 0.7086614173228346,
            "duration": 0.5,
            "frequency": 1046.5022612023945,
            "pitch": 76,
            "startTime": 0.5,
            "endTime": 1
          },
          {
            "name": "C#6",
            "midi": 85,
            "time": 0.5,
            "velocity": 0.7086614173228346,
            "duration": 0.5,
            "frequency": 1108.7305239074883,
            "pitch": 76,
            "startTime": 0.5,
            "endTime": 1
          },
          {
            "name": "G6",
            "midi": 91,
            "time": 0.5,
            "velocity": 0.7086614173228346,
            "duration": 0.5,
            "frequency": 1567.981743926997,
            "pitch": 76,
            "startTime": 0.5,
            "endTime": 1
          },
          {
            "name": "A6",
            "midi": 93,
            "time": 0.5,
            "velocity": 0.7086614173228346,
            "duration": 0.5,
            "frequency": 1760,
            "pitch": 76,
            "startTime": 0.5,
            "endTime": 1
          },
          {
            "name": "C#7",
            "midi": 97,
            "time": 0.5,
            "velocity": 0.7086614173228346,
            "duration": 0.5,
            "frequency": 2217.461047814977,
            "pitch": 76,
            "startTime": 0.5,
            "endTime": 1
          },
          {
            "name": "F7",
            "midi": 101,
            "time": 0.5,
            "velocity": 0.7086614173228346,
            "duration": 0.5,
            "frequency": 2793.825851464031,
            "pitch": 76,
            "startTime": 0.5,
            "endTime": 1
          },
          {
            "name": "A#7",
            "midi": 106,
            "time": 0.5,
            "velocity": 0.7086614173228346,
            "duration": 0.5,
            "frequency": 3729.3100921447194,
            "pitch": 76,
            "startTime": 0.5,
            "endTime": 1
          },
          {
            "name": "F8",
            "midi": 113,
            "time": 0.5,
            "velocity": 0.7086614173228346,
            "duration": 0.5,
            "frequency": 5587.651702928062,
            "pitch": 76,
            "startTime": 0.5,
            "endTime": 1
          }
        ],
        "controlChanges": {},
        "id": 0,
        "channelNumber": 0,
        "isPercussion": false
      }
    ]
  },
  "ailanthus altissima_french": {
    "header": {
      "PPQ": 128,
      "bpm": 120,
      "name": ""
    },
    "startTime": 0,
    "duration": 9.625,
    "tracks": [
      {
        "startTime": 0,
        "duration": 9.625,
        "length": 19,
        "notes": [
          {
            "name": "A4",
            "midi": 69,
            "time": 0,
            "velocity": 0.7086614173228346,
            "duration": 1,
            "frequency": 440,
            "pitch": 69,
            "startTime": 0,
            "endTime": 1
          },
          {
            "name": "B4",
            "midi": 71,
            "time": 1,
            "velocity": 0.7086614173228346,
            "duration": 0.5,
            "frequency": 493.8833012561242,
            "pitch": 71,
            "startTime": 1,
            "endTime": 1.5
          },
          {
            "name": "E5",
            "midi": 76,
            "time": 1.5,
            "velocity": 0.7086614173228346,
            "duration": 0.5,
            "frequency": 659.2551138257398,
            "pitch": 76,
            "startTime": 1.5,
            "endTime": 2
          },
          {
            "name": "A5",
            "midi": 81,
            "time": 2,
            "velocity": 0.7086614173228346,
            "duration": 1,
            "frequency": 880,
            "pitch": 76,
            "startTime": 2,
            "endTime": 3
          },
          {
            "name": "G5",
            "midi": 79,
            "time": 3,
            "velocity": 0.7086614173228346,
            "duration": 0.5,
            "frequency": 783.9908719634986,
            "pitch": 76,
            "startTime": 3,
            "endTime": 3.5
          },
          {
            "name": "F5",
            "midi": 77,
            "time": 3.5,
            "velocity": 0.7086614173228346,
            "duration": 0.25,
            "frequency": 698.4564628660078,
            "pitch": 76,
            "startTime": 3.5,
            "endTime": 3.75
          },
          {
            "name": "A5",
            "midi": 81,
            "time": 3.75,
            "velocity": 0.7086614173228346,
            "duration": 0.5,
            "frequency": 880,
            "pitch": 76,
            "startTime": 3.75,
            "endTime": 4.25
          },
          {
            "name": "G5",
            "midi": 79,
            "time": 4.25,
            "velocity": 0.7086614173228346,
            "duration": 0.25,
            "frequency": 783.9908719634986,
            "pitch": 76,
            "startTime": 4.25,
            "endTime": 4.5
          },
          {
            "name": "E5",
            "midi": 76,
            "time": 4.5,
            "velocity": 0.7086614173228346,
            "duration": 0.25,
            "frequency": 659.2551138257398,
            "pitch": 76,
            "startTime": 4.5,
            "endTime": 4.75
          },
          {
            "name": "G5",
            "midi": 79,
            "time": 4.75,
            "velocity": 0.7086614173228346,
            "duration": 0.125,
            "frequency": 783.9908719634986,
            "pitch": 76,
            "startTime": 4.75,
            "endTime": 4.875
          },
          {
            "name": "A5",
            "midi": 81,
            "time": 4.875,
            "velocity": 0.7086614173228346,
            "duration": 1,
            "frequency": 880,
            "pitch": 76,
            "startTime": 4.875,
            "endTime": 5.875
          },
          {
            "name": "E5",
            "midi": 76,
            "time": 5.875,
            "velocity": 0.7086614173228346,
            "duration": 0.5,
            "frequency": 659.2551138257398,
            "pitch": 76,
            "startTime": 5.875,
            "endTime": 6.375
          },
          {
            "name": "F5",
            "midi": 77,
            "time": 6.375,
            "velocity": 0.7086614173228346,
            "duration": 0.25,
            "frequency": 698.4564628660078,
            "pitch": 76,
            "startTime": 6.375,
            "endTime": 6.625
          },
          {
            "name": "B5",
            "midi": 83,
            "time": 6.625,
            "velocity": 0.7086614173228346,
            "duration": 0.5,
            "frequency": 987.7666025122484,
            "pitch": 76,
            "startTime": 6.625,
            "endTime": 7.125
          },
          {
            "name": "E6",
            "midi": 88,
            "time": 7.125,
            "velocity": 0.7086614173228346,
            "duration": 0.25,
            "frequency": 1318.5102276514797,
            "pitch": 76,
            "startTime": 7.125,
            "endTime": 7.375
          },
          {
            "name": "E6",
            "midi": 88,
            "time": 7.375,
            "velocity": 0.7086614173228346,
            "duration": 0.25,
            "frequency": 1318.5102276514797,
            "pitch": 76,
            "startTime": 7.375,
            "endTime": 7.625
          },
          {
            "name": "B5",
            "midi": 83,
            "time": 7.625,
            "velocity": 0.7086614173228346,
            "duration": 0.5,
            "frequency": 987.7666025122484,
            "pitch": 76,
            "startTime": 7.625,
            "endTime": 8.125
          },
          {
            "name": "F5",
            "midi": 77,
            "time": 8.125,
            "velocity": 0.7086614173228346,
            "duration": 0.5,
            "frequency": 698.4564628660078,
            "pitch": 76,
            "startTime": 8.125,
            "endTime": 8.625
          },
          {
            "name": "A5",
            "midi": 81,
            "time": 8.625,
            "velocity": 0.7086614173228346,
            "duration": 1,
            "frequency": 880,
            "pitch": 76,
            "startTime": 8.625,
            "endTime": 9.625
          }
        ],
        "controlChanges": {},
        "id": 0,
        "channelNumber": 0,
        "isPercussion": false
      }
    ]
  },
  "ailanthus altissima_keyboard": {
    "header": {
      "PPQ": 128,
      "bpm": 120,
      "name": ""
    },
    "startTime": 0,
    "duration": 2.375,
    "tracks": [
      {
        "startTime": 0,
        "duration": 2.375,
        "length": 19,
        "notes": [
          {
            "name": "D3",
            "midi": 50,
            "time": 0,
            "velocity": 0.7086614173228346,
            "duration": 0.125,
            "frequency": 146.8323839587038,
            "pitch": 50,
            "startTime": 0,
            "endTime": 0.125
          },
          {
            "name": "F#5",
            "midi": 78,
            "time": 0.125,
            "velocity": 0.7086614173228346,
            "duration": 0.125,
            "frequency": 739.9888454232689,
            "pitch": 76,
            "startTime": 0.125,
            "endTime": 0.25
          },
          {
            "name": "B5",
            "midi": 83,
            "time": 0.25,
            "velocity": 0.7086614173228346,
            "duration": 0.125,
            "frequency": 987.7666025122484,
            "pitch": 76,
            "startTime": 0.25,
            "endTime": 0.375
          },
          {
            "name": "D3",
            "midi": 50,
            "time": 0.375,
            "velocity": 0.7086614173228346,
            "duration": 0.125,
            "frequency": 146.8323839587038,
            "pitch": 50,
            "startTime": 0.375,
            "endTime": 0.5
          },
          {
            "name": "C5",
            "midi": 72,
            "time": 0.5,
            "velocity": 0.7086614173228346,
            "duration": 0.125,
            "frequency": 523.2511306011972,
            "pitch": 72,
            "startTime": 0.5,
            "endTime": 0.625
          },
          {
            "name": "F#4",
            "midi": 66,
            "time": 0.625,
            "velocity": 0.7086614173228346,
            "duration": 0.125,
            "frequency": 369.99442271163446,
            "pitch": 66,
            "startTime": 0.625,
            "endTime": 0.75
          },
          {
            "name": "B4",
            "midi": 71,
            "time": 0.75,
            "velocity": 0.7086614173228346,
            "duration": 0.125,
            "frequency": 493.8833012561242,
            "pitch": 71,
            "startTime": 0.75,
            "endTime": 0.875
          },
          {
            "name": "D5",
            "midi": 74,
            "time": 0.875,
            "velocity": 0.7086614173228346,
            "duration": 0.125,
            "frequency": 587.3295358348151,
            "pitch": 74,
            "startTime": 0.875,
            "endTime": 1
          },
          {
            "name": "F#3",
            "midi": 54,
            "time": 1,
            "velocity": 0.7086614173228346,
            "duration": 0.125,
            "frequency": 184.99721135581723,
            "pitch": 54,
            "startTime": 1,
            "endTime": 1.125
          },
          {
            "name": "C4",
            "midi": 60,
            "time": 1.125,
            "velocity": 0.7086614173228346,
            "duration": 0.125,
            "frequency": 261.6255653005986,
            "pitch": 60,
            "startTime": 1.125,
            "endTime": 1.25
          },
          {
            "name": "D3",
            "midi": 50,
            "time": 1.25,
            "velocity": 0.7086614173228346,
            "duration": 0.125,
            "frequency": 146.8323839587038,
            "pitch": 50,
            "startTime": 1.25,
            "endTime": 1.375
          },
          {
            "name": "B5",
            "midi": 83,
            "time": 1.375,
            "velocity": 0.7086614173228346,
            "duration": 0.125,
            "frequency": 987.7666025122484,
            "pitch": 76,
            "startTime": 1.375,
            "endTime": 1.5
          },
          {
            "name": "F#4",
            "midi": 66,
            "time": 1.5,
            "velocity": 0.7086614173228346,
            "duration": 0.125,
            "frequency": 369.99442271163446,
            "pitch": 66,
            "startTime": 1.5,
            "endTime": 1.625
          },
          {
            "name": "F#5",
            "midi": 78,
            "time": 1.625,
            "velocity": 0.7086614173228346,
            "duration": 0.125,
            "frequency": 739.9888454232689,
            "pitch": 76,
            "startTime": 1.625,
            "endTime": 1.75
          },
          {
            "name": "F#3",
            "midi": 54,
            "time": 1.75,
            "velocity": 0.7086614173228346,
            "duration": 0.125,
            "frequency": 184.99721135581723,
            "pitch": 54,
            "startTime": 1.75,
            "endTime": 1.875
          },
          {
            "name": "F#3",
            "midi": 54,
            "time": 1.875,
            "velocity": 0.7086614173228346,
            "duration": 0.125,
            "frequency": 184.99721135581723,
            "pitch": 54,
            "startTime": 1.875,
            "endTime": 2
          },
          {
            "name": "F#5",
            "midi": 78,
            "time": 2,
            "velocity": 0.7086614173228346,
            "duration": 0.125,
            "frequency": 739.9888454232689,
            "pitch": 76,
            "startTime": 2,
            "endTime": 2.125
          },
          {
            "name": "E5",
            "midi": 76,
            "time": 2.125,
            "velocity": 0.7086614173228346,
            "duration": 0.125,
            "frequency": 659.2551138257398,
            "pitch": 76,
            "startTime": 2.125,
            "endTime": 2.25
          },
          {
            "name": "D3",
            "midi": 50,
            "time": 2.25,
            "velocity": 0.7086614173228346,
            "duration": 0.125,
            "frequency": 146.8323839587038,
            "pitch": 50,
            "startTime": 2.25,
            "endTime": 2.375
          }
        ],
        "controlChanges": {},
        "id": 0,
        "channelNumber": 0,
        "isPercussion": false
      }
    ]
  },
  "ailanthus altissima_chords": {
    "header": {
      "PPQ": 128,
      "bpm": 120,
      "name": ""
    },
    "startTime": 0,
    "duration": 1,
    "tracks": [
      {
        "startTime": 0,
        "duration": 1,
        "length": 18,
        "notes": [
          {
            "name": "C#3",
            "midi": 49,
            "time": 0,
            "velocity": 0.7086614173228346,
            "duration": 0.5,
            "frequency": 138.59131548843604,
            "pitch": 49,
            "startTime": 0,
            "endTime": 0.5
          },
          {
            "name": "F#3",
            "midi": 54,
            "time": 0,
            "velocity": 0.7086614173228346,
            "duration": 0.5,
            "frequency": 184.99721135581723,
            "pitch": 54,
            "startTime": 0,
            "endTime": 0.5
          },
          {
            "name": "E4",
            "midi": 64,
            "time": 0,
            "velocity": 0.7086614173228346,
            "duration": 0.5,
            "frequency": 329.6275569128699,
            "pitch": 64,
            "startTime": 0,
            "endTime": 0.5
          },
          {
            "name": "C#5",
            "midi": 73,
            "time": 0,
            "velocity": 0.7086614173228346,
            "duration": 0.5,
            "frequency": 554.3652619537442,
            "pitch": 73,
            "startTime": 0,
            "endTime": 0.5
          },
          {
            "name": "F5",
            "midi": 77,
            "time": 0,
            "velocity": 0.7086614173228346,
            "duration": 0.5,
            "frequency": 698.4564628660078,
            "pitch": 76,
            "startTime": 0,
            "endTime": 0.5
          },
          {
            "name": "A5",
            "midi": 81,
            "time": 0,
            "velocity": 0.7086614173228346,
            "duration": 0.5,
            "frequency": 880,
            "pitch": 76,
            "startTime": 0,
            "endTime": 0.5
          },
          {
            "name": "D6",
            "midi": 86,
            "time": 0,
            "velocity": 0.7086614173228346,
            "duration": 0.5,
            "frequency": 1174.6590716696303,
            "pitch": 76,
            "startTime": 0,
            "endTime": 0.5
          },
          {
            "name": "A#6",
            "midi": 94,
            "time": 0,
            "velocity": 0.7086614173228346,
            "duration": 0.5,
            "frequency": 1864.6550460723597,
            "pitch": 76,
            "startTime": 0,
            "endTime": 0.5
          },
          {
            "name": "G7",
            "midi": 103,
            "time": 0,
            "velocity": 0.7086614173228346,
            "duration": 0.5,
            "frequency": 3135.9634878539946,
            "pitch": 76,
            "startTime": 0,
            "endTime": 0.5
          },
          {
            "name": "C#3",
            "midi": 49,
            "time": 0.5,
            "velocity": 0.7086614173228346,
            "duration": 0.5,
            "frequency": 138.59131548843604,
            "pitch": 49,
            "startTime": 0.5,
            "endTime": 1
          },
          {
            "name": "E3",
            "midi": 52,
            "time": 0.5,
            "velocity": 0.7086614173228346,
            "duration": 0.5,
            "frequency": 164.81377845643496,
            "pitch": 52,
            "startTime": 0.5,
            "endTime": 1
          },
          {
            "name": "A3",
            "midi": 57,
            "time": 0.5,
            "velocity": 0.7086614173228346,
            "duration": 0.5,
            "frequency": 220,
            "pitch": 57,
            "startTime": 0.5,
            "endTime": 1
          },
          {
            "name": "F#4",
            "midi": 66,
            "time": 0.5,
            "velocity": 0.7086614173228346,
            "duration": 0.5,
            "frequency": 369.99442271163446,
            "pitch": 66,
            "startTime": 0.5,
            "endTime": 1
          },
          {
            "name": "G4",
            "midi": 67,
            "time": 0.5,
            "velocity": 0.7086614173228346,
            "duration": 0.5,
            "frequency": 391.99543598174927,
            "pitch": 67,
            "startTime": 0.5,
            "endTime": 1
          },
          {
            "name": "G5",
            "midi": 79,
            "time": 0.5,
            "velocity": 0.7086614173228346,
            "duration": 0.5,
            "frequency": 783.9908719634986,
            "pitch": 76,
            "startTime": 0.5,
            "endTime": 1
          },
          {
            "name": "F#6",
            "midi": 90,
            "time": 0.5,
            "velocity": 0.7086614173228346,
            "duration": 0.5,
            "frequency": 1479.9776908465378,
            "pitch": 76,
            "startTime": 0.5,
            "endTime": 1
          },
          {
            "name": "F7",
            "midi": 101,
            "time": 0.5,
            "velocity": 0.7086614173228346,
            "duration": 0.5,
            "frequency": 2793.825851464031,
            "pitch": 76,
            "startTime": 0.5,
            "endTime": 1
          },
          {
            "name": "C#8",
            "midi": 109,
            "time": 0.5,
            "velocity": 0.7086614173228346,
            "duration": 0.5,
            "frequency": 4434.922095629954,
            "pitch": 76,
            "startTime": 0.5,
            "endTime": 1
          }
        ],
        "controlChanges": {},
        "id": 0,
        "channelNumber": 0,
        "isPercussion": false
      }
    ]
  },
  "alnus glutinosa_french": {
    "header": {
      "PPQ": 128,
      "bpm": 120,
      "name": ""
    },
    "startTime": 0,
    "duration": 7.125,
    "tracks": [
      {
        "startTime": 0,
        "duration": 7.125,
        "length": 15,
        "notes": [
          {
            "name": "A4",
            "midi": 69,
            "time": 0,
            "velocity": 0.7086614173228346,
            "duration": 1,
            "frequency": 440,
            "pitch": 69,
            "startTime": 0,
            "endTime": 1
          },
          {
            "name": "E4",
            "midi": 64,
            "time": 1,
            "velocity": 0.7086614173228346,
            "duration": 0.5,
            "frequency": 329.6275569128699,
            "pitch": 64,
            "startTime": 1,
            "endTime": 1.5
          },
          {
            "name": "G4",
            "midi": 67,
            "time": 1.5,
            "velocity": 0.7086614173228346,
            "duration": 0.5,
            "frequency": 391.99543598174927,
            "pitch": 67,
            "startTime": 1.5,
            "endTime": 2
          },
          {
            "name": "G4",
            "midi": 67,
            "time": 2,
            "velocity": 0.7086614173228346,
            "duration": 0.25,
            "frequency": 391.99543598174927,
            "pitch": 67,
            "startTime": 2,
            "endTime": 2.25
          },
          {
            "name": "E4",
            "midi": 64,
            "time": 2.25,
            "velocity": 0.7086614173228346,
            "duration": 0.25,
            "frequency": 329.6275569128699,
            "pitch": 64,
            "startTime": 2.25,
            "endTime": 2.5
          },
          {
            "name": "G4",
            "midi": 67,
            "time": 2.5,
            "velocity": 0.7086614173228346,
            "duration": 0.125,
            "frequency": 391.99543598174927,
            "pitch": 67,
            "startTime": 2.5,
            "endTime": 2.625
          },
          {
            "name": "G4",
            "midi": 67,
            "time": 2.625,
            "velocity": 0.7086614173228346,
            "duration": 1,
            "frequency": 391.99543598174927,
            "pitch": 67,
            "startTime": 2.625,
            "endTime": 3.625
          },
          {
            "name": "E4",
            "midi": 64,
            "time": 3.625,
            "velocity": 0.7086614173228346,
            "duration": 0.5,
            "frequency": 329.6275569128699,
            "pitch": 64,
            "startTime": 3.625,
            "endTime": 4.125
          },
          {
            "name": "G4",
            "midi": 67,
            "time": 4.125,
            "velocity": 0.7086614173228346,
            "duration": 0.25,
            "frequency": 391.99543598174927,
            "pitch": 67,
            "startTime": 4.125,
            "endTime": 4.375
          },
          {
            "name": "F4",
            "midi": 65,
            "time": 4.375,
            "velocity": 0.7086614173228346,
            "duration": 0.25,
            "frequency": 349.2282314330039,
            "pitch": 65,
            "startTime": 4.375,
            "endTime": 4.625
          },
          {
            "name": "B4",
            "midi": 71,
            "time": 4.625,
            "velocity": 0.7086614173228346,
            "duration": 0.5,
            "frequency": 493.8833012561242,
            "pitch": 71,
            "startTime": 4.625,
            "endTime": 5.125
          },
          {
            "name": "G4",
            "midi": 67,
            "time": 5.125,
            "velocity": 0.7086614173228346,
            "duration": 0.5,
            "frequency": 391.99543598174927,
            "pitch": 67,
            "startTime": 5.125,
            "endTime": 5.625
          },
          {
            "name": "A4",
            "midi": 69,
            "time": 5.625,
            "velocity": 0.7086614173228346,
            "duration": 0.25,
            "frequency": 440,
            "pitch": 69,
            "startTime": 5.625,
            "endTime": 5.875
          },
          {
            "name": "E4",
            "midi": 64,
            "time": 5.875,
            "velocity": 0.7086614173228346,
            "duration": 0.25,
            "frequency": 329.6275569128699,
            "pitch": 64,
            "startTime": 5.875,
            "endTime": 6.125
          },
          {
            "name": "A4",
            "midi": 69,
            "time": 6.125,
            "velocity": 0.7086614173228346,
            "duration": 1,
            "frequency": 440,
            "pitch": 69,
            "startTime": 6.125,
            "endTime": 7.125
          }
        ],
        "controlChanges": {},
        "id": 0,
        "channelNumber": 0,
        "isPercussion": false
      }
    ]
  },
  "alnus glutinosa_keyboard": {
    "header": {
      "PPQ": 128,
      "bpm": 120,
      "name": ""
    },
    "startTime": 0,
    "duration": 1.875,
    "tracks": [
      {
        "startTime": 0,
        "duration": 1.875,
        "length": 15,
        "notes": [
          {
            "name": "D3",
            "midi": 50,
            "time": 0,
            "velocity": 0.7086614173228346,
            "duration": 0.125,
            "frequency": 146.8323839587038,
            "pitch": 50,
            "startTime": 0,
            "endTime": 0.125
          },
          {
            "name": "B5",
            "midi": 83,
            "time": 0.125,
            "velocity": 0.7086614173228346,
            "duration": 0.125,
            "frequency": 987.7666025122484,
            "pitch": 76,
            "startTime": 0.125,
            "endTime": 0.25
          },
          {
            "name": "C5",
            "midi": 72,
            "time": 0.25,
            "velocity": 0.7086614173228346,
            "duration": 0.125,
            "frequency": 523.2511306011972,
            "pitch": 72,
            "startTime": 0.25,
            "endTime": 0.375
          },
          {
            "name": "D5",
            "midi": 74,
            "time": 0.375,
            "velocity": 0.7086614173228346,
            "duration": 0.125,
            "frequency": 587.3295358348151,
            "pitch": 74,
            "startTime": 0.375,
            "endTime": 0.5
          },
          {
            "name": "F#3",
            "midi": 54,
            "time": 0.5,
            "velocity": 0.7086614173228346,
            "duration": 0.125,
            "frequency": 184.99721135581723,
            "pitch": 54,
            "startTime": 0.5,
            "endTime": 0.625
          },
          {
            "name": "C4",
            "midi": 60,
            "time": 0.625,
            "velocity": 0.7086614173228346,
            "duration": 0.125,
            "frequency": 261.6255653005986,
            "pitch": 60,
            "startTime": 0.625,
            "endTime": 0.75
          },
          {
            "name": "G4",
            "midi": 67,
            "time": 0.75,
            "velocity": 0.7086614173228346,
            "duration": 0.125,
            "frequency": 391.99543598174927,
            "pitch": 67,
            "startTime": 0.75,
            "endTime": 0.875
          },
          {
            "name": "B5",
            "midi": 83,
            "time": 0.875,
            "velocity": 0.7086614173228346,
            "duration": 0.125,
            "frequency": 987.7666025122484,
            "pitch": 76,
            "startTime": 0.875,
            "endTime": 1
          },
          {
            "name": "D5",
            "midi": 74,
            "time": 1,
            "velocity": 0.7086614173228346,
            "duration": 0.125,
            "frequency": 587.3295358348151,
            "pitch": 74,
            "startTime": 1,
            "endTime": 1.125
          },
          {
            "name": "F#4",
            "midi": 66,
            "time": 1.125,
            "velocity": 0.7086614173228346,
            "duration": 0.125,
            "frequency": 369.99442271163446,
            "pitch": 66,
            "startTime": 1.125,
            "endTime": 1.25
          },
          {
            "name": "F#5",
            "midi": 78,
            "time": 1.25,
            "velocity": 0.7086614173228346,
            "duration": 0.125,
            "frequency": 739.9888454232689,
            "pitch": 76,
            "startTime": 1.25,
            "endTime": 1.375
          },
          {
            "name": "C5",
            "midi": 72,
            "time": 1.375,
            "velocity": 0.7086614173228346,
            "duration": 0.125,
            "frequency": 523.2511306011972,
            "pitch": 72,
            "startTime": 1.375,
            "endTime": 1.5
          },
          {
            "name": "A#5",
            "midi": 82,
            "time": 1.5,
            "velocity": 0.7086614173228346,
            "duration": 0.125,
            "frequency": 932.3275230361799,
            "pitch": 76,
            "startTime": 1.5,
            "endTime": 1.625
          },
          {
            "name": "F#3",
            "midi": 54,
            "time": 1.625,
            "velocity": 0.7086614173228346,
            "duration": 0.125,
            "frequency": 184.99721135581723,
            "pitch": 54,
            "startTime": 1.625,
            "endTime": 1.75
          },
          {
            "name": "D3",
            "midi": 50,
            "time": 1.75,
            "velocity": 0.7086614173228346,
            "duration": 0.125,
            "frequency": 146.8323839587038,
            "pitch": 50,
            "startTime": 1.75,
            "endTime": 1.875
          }
        ],
        "controlChanges": {},
        "id": 0,
        "channelNumber": 0,
        "isPercussion": false
      }
    ]
  },
  "alnus glutinosa_chords": {
    "header": {
      "PPQ": 128,
      "bpm": 120,
      "name": ""
    },
    "startTime": 0,
    "duration": 1,
    "tracks": [
      {
        "startTime": 0,
        "duration": 1,
        "length": 14,
        "notes": [
          {
            "name": "C#3",
            "midi": 49,
            "time": 0,
            "velocity": 0.7086614173228346,
            "duration": 0.5,
            "frequency": 138.59131548843604,
            "pitch": 49,
            "startTime": 0,
            "endTime": 0.5
          },
          {
            "name": "E3",
            "midi": 52,
            "time": 0,
            "velocity": 0.7086614173228346,
            "duration": 0.5,
            "frequency": 164.81377845643496,
            "pitch": 52,
            "startTime": 0,
            "endTime": 0.5
          },
          {
            "name": "F3",
            "midi": 53,
            "time": 0,
            "velocity": 0.7086614173228346,
            "duration": 0.5,
            "frequency": 174.61411571650194,
            "pitch": 53,
            "startTime": 0,
            "endTime": 0.5
          },
          {
            "name": "A#3",
            "midi": 58,
            "time": 0,
            "velocity": 0.7086614173228346,
            "duration": 0.5,
            "frequency": 233.08188075904496,
            "pitch": 58,
            "startTime": 0,
            "endTime": 0.5
          },
          {
            "name": "G4",
            "midi": 67,
            "time": 0,
            "velocity": 0.7086614173228346,
            "duration": 0.5,
            "frequency": 391.99543598174927,
            "pitch": 67,
            "startTime": 0,
            "endTime": 0.5
          },
          {
            "name": "D3",
            "midi": 50,
            "time": 0.5,
            "velocity": 0.7086614173228346,
            "duration": 0.5,
            "frequency": 146.8323839587038,
            "pitch": 50,
            "startTime": 0.5,
            "endTime": 1
          },
          {
            "name": "E3",
            "midi": 52,
            "time": 0.5,
            "velocity": 0.7086614173228346,
            "duration": 0.5,
            "frequency": 164.81377845643496,
            "pitch": 52,
            "startTime": 0.5,
            "endTime": 1
          },
          {
            "name": "A#3",
            "midi": 58,
            "time": 0.5,
            "velocity": 0.7086614173228346,
            "duration": 0.5,
            "frequency": 233.08188075904496,
            "pitch": 58,
            "startTime": 0.5,
            "endTime": 1
          },
          {
            "name": "A4",
            "midi": 69,
            "time": 0.5,
            "velocity": 0.7086614173228346,
            "duration": 0.5,
            "frequency": 440,
            "pitch": 69,
            "startTime": 0.5,
            "endTime": 1
          },
          {
            "name": "F#5",
            "midi": 78,
            "time": 0.5,
            "velocity": 0.7086614173228346,
            "duration": 0.5,
            "frequency": 739.9888454232689,
            "pitch": 76,
            "startTime": 0.5,
            "endTime": 1
          },
          {
            "name": "F6",
            "midi": 89,
            "time": 0.5,
            "velocity": 0.7086614173228346,
            "duration": 0.5,
            "frequency": 1396.9129257320155,
            "pitch": 76,
            "startTime": 0.5,
            "endTime": 1
          },
          {
            "name": "G#6",
            "midi": 92,
            "time": 0.5,
            "velocity": 0.7086614173228346,
            "duration": 0.5,
            "frequency": 1661.2187903197805,
            "pitch": 76,
            "startTime": 0.5,
            "endTime": 1
          },
          {
            "name": "G7",
            "midi": 103,
            "time": 0.5,
            "velocity": 0.7086614173228346,
            "duration": 0.5,
            "frequency": 3135.9634878539946,
            "pitch": 76,
            "startTime": 0.5,
            "endTime": 1
          },
          {
            "name": "C#8",
            "midi": 109,
            "time": 0.5,
            "velocity": 0.7086614173228346,
            "duration": 0.5,
            "frequency": 4434.922095629954,
            "pitch": 76,
            "startTime": 0.5,
            "endTime": 1
          }
        ],
        "controlChanges": {},
        "id": 0,
        "channelNumber": 0,
        "isPercussion": false
      }
    ]
  },
  "amelanchier lamarckii_french": {
    "header": {
      "PPQ": 128,
      "bpm": 120,
      "name": ""
    },
    "startTime": 0,
    "duration": 13.625,
    "tracks": [
      {
        "startTime": 0,
        "duration": 13.625,
        "length": 21,
        "notes": [
          {
            "name": "A4",
            "midi": 69,
            "time": 0,
            "velocity": 0.7086614173228346,
            "duration": 1,
            "frequency": 440,
            "pitch": 69,
            "startTime": 0,
            "endTime": 1
          },
          {
            "name": "F4",
            "midi": 65,
            "time": 1,
            "velocity": 0.7086614173228346,
            "duration": 0.5,
            "frequency": 349.2282314330039,
            "pitch": 65,
            "startTime": 1,
            "endTime": 1.5
          },
          {
            "name": "E4",
            "midi": 64,
            "time": 1.5,
            "velocity": 0.7086614173228346,
            "duration": 1,
            "frequency": 329.6275569128699,
            "pitch": 64,
            "startTime": 1.5,
            "endTime": 2.5
          },
          {
            "name": "E4",
            "midi": 64,
            "time": 2.5,
            "velocity": 0.7086614173228346,
            "duration": 0.5,
            "frequency": 329.6275569128699,
            "pitch": 64,
            "startTime": 2.5,
            "endTime": 3
          },
          {
            "name": "A4",
            "midi": 69,
            "time": 3,
            "velocity": 0.7086614173228346,
            "duration": 1,
            "frequency": 440,
            "pitch": 69,
            "startTime": 3,
            "endTime": 4
          },
          {
            "name": "G4",
            "midi": 67,
            "time": 4,
            "velocity": 0.7086614173228346,
            "duration": 0.5,
            "frequency": 391.99543598174927,
            "pitch": 67,
            "startTime": 4,
            "endTime": 4.5
          },
          {
            "name": "C5",
            "midi": 72,
            "time": 4.5,
            "velocity": 0.7086614173228346,
            "duration": 1,
            "frequency": 523.2511306011972,
            "pitch": 72,
            "startTime": 4.5,
            "endTime": 5.5
          },
          {
            "name": "A4",
            "midi": 69,
            "time": 5.5,
            "velocity": 0.7086614173228346,
            "duration": 0.5,
            "frequency": 440,
            "pitch": 69,
            "startTime": 5.5,
            "endTime": 6
          },
          {
            "name": "B4",
            "midi": 71,
            "time": 6,
            "velocity": 0.7086614173228346,
            "duration": 0.5,
            "frequency": 493.8833012561242,
            "pitch": 71,
            "startTime": 6,
            "endTime": 6.5
          },
          {
            "name": "E5",
            "midi": 76,
            "time": 6.5,
            "velocity": 0.7086614173228346,
            "duration": 1,
            "frequency": 659.2551138257398,
            "pitch": 76,
            "startTime": 6.5,
            "endTime": 7.5
          },
          {
            "name": "D5",
            "midi": 74,
            "time": 7.5,
            "velocity": 0.7086614173228346,
            "duration": 0.25,
            "frequency": 587.3295358348151,
            "pitch": 74,
            "startTime": 7.5,
            "endTime": 7.75
          },
          {
            "name": "G5",
            "midi": 79,
            "time": 7.75,
            "velocity": 0.7086614173228346,
            "duration": 0.125,
            "frequency": 783.9908719634986,
            "pitch": 76,
            "startTime": 7.75,
            "endTime": 7.875
          },
          {
            "name": "E5",
            "midi": 76,
            "time": 7.875,
            "velocity": 0.7086614173228346,
            "duration": 0.5,
            "frequency": 659.2551138257398,
            "pitch": 76,
            "startTime": 7.875,
            "endTime": 8.375
          },
          {
            "name": "A5",
            "midi": 81,
            "time": 8.375,
            "velocity": 0.7086614173228346,
            "duration": 1,
            "frequency": 880,
            "pitch": 76,
            "startTime": 8.375,
            "endTime": 9.375
          },
          {
            "name": "F5",
            "midi": 77,
            "time": 9.375,
            "velocity": 0.7086614173228346,
            "duration": 0.5,
            "frequency": 698.4564628660078,
            "pitch": 76,
            "startTime": 9.375,
            "endTime": 9.875
          },
          {
            "name": "A5",
            "midi": 81,
            "time": 9.875,
            "velocity": 0.7086614173228346,
            "duration": 1,
            "frequency": 880,
            "pitch": 76,
            "startTime": 9.875,
            "endTime": 10.875
          },
          {
            "name": "D6",
            "midi": 86,
            "time": 10.875,
            "velocity": 0.7086614173228346,
            "duration": 0.25,
            "frequency": 1174.6590716696303,
            "pitch": 76,
            "startTime": 10.875,
            "endTime": 11.125
          },
          {
            "name": "C6",
            "midi": 84,
            "time": 11.125,
            "velocity": 0.7086614173228346,
            "duration": 1,
            "frequency": 1046.5022612023945,
            "pitch": 76,
            "startTime": 11.125,
            "endTime": 12.125
          },
          {
            "name": "D6",
            "midi": 86,
            "time": 12.125,
            "velocity": 0.7086614173228346,
            "duration": 0.5,
            "frequency": 1174.6590716696303,
            "pitch": 76,
            "startTime": 12.125,
            "endTime": 12.625
          },
          {
            "name": "B5",
            "midi": 83,
            "time": 12.625,
            "velocity": 0.7086614173228346,
            "duration": 0.5,
            "frequency": 987.7666025122484,
            "pitch": 76,
            "startTime": 12.625,
            "endTime": 13.125
          },
          {
            "name": "B5",
            "midi": 83,
            "time": 13.125,
            "velocity": 0.7086614173228346,
            "duration": 0.5,
            "frequency": 987.7666025122484,
            "pitch": 76,
            "startTime": 13.125,
            "endTime": 13.625
          }
        ],
        "controlChanges": {},
        "id": 0,
        "channelNumber": 0,
        "isPercussion": false
      }
    ]
  },
  "amelanchier lamarckii_keyboard": {
    "header": {
      "PPQ": 128,
      "bpm": 120,
      "name": ""
    },
    "startTime": 0,
    "duration": 2.625,
    "tracks": [
      {
        "startTime": 0,
        "duration": 2.625,
        "length": 21,
        "notes": [
          {
            "name": "D3",
            "midi": 50,
            "time": 0,
            "velocity": 0.7086614173228346,
            "duration": 0.125,
            "frequency": 146.8323839587038,
            "pitch": 50,
            "startTime": 0,
            "endTime": 0.125
          },
          {
            "name": "E5",
            "midi": 76,
            "time": 0.125,
            "velocity": 0.7086614173228346,
            "duration": 0.125,
            "frequency": 659.2551138257398,
            "pitch": 76,
            "startTime": 0.125,
            "endTime": 0.25
          },
          {
            "name": "A3",
            "midi": 57,
            "time": 0.25,
            "velocity": 0.7086614173228346,
            "duration": 0.125,
            "frequency": 220,
            "pitch": 57,
            "startTime": 0.25,
            "endTime": 0.375
          },
          {
            "name": "B5",
            "midi": 83,
            "time": 0.375,
            "velocity": 0.7086614173228346,
            "duration": 0.125,
            "frequency": 987.7666025122484,
            "pitch": 76,
            "startTime": 0.375,
            "endTime": 0.5
          },
          {
            "name": "D3",
            "midi": 50,
            "time": 0.5,
            "velocity": 0.7086614173228346,
            "duration": 0.125,
            "frequency": 146.8323839587038,
            "pitch": 50,
            "startTime": 0.5,
            "endTime": 0.625
          },
          {
            "name": "C5",
            "midi": 72,
            "time": 0.625,
            "velocity": 0.7086614173228346,
            "duration": 0.125,
            "frequency": 523.2511306011972,
            "pitch": 72,
            "startTime": 0.625,
            "endTime": 0.75
          },
          {
            "name": "B3",
            "midi": 59,
            "time": 0.75,
            "velocity": 0.7086614173228346,
            "duration": 0.125,
            "frequency": 246.9416506280621,
            "pitch": 59,
            "startTime": 0.75,
            "endTime": 0.875
          },
          {
            "name": "B4",
            "midi": 71,
            "time": 0.875,
            "velocity": 0.7086614173228346,
            "duration": 0.125,
            "frequency": 493.8833012561242,
            "pitch": 71,
            "startTime": 0.875,
            "endTime": 1
          },
          {
            "name": "F#5",
            "midi": 78,
            "time": 1,
            "velocity": 0.7086614173228346,
            "duration": 0.125,
            "frequency": 739.9888454232689,
            "pitch": 76,
            "startTime": 1,
            "endTime": 1.125
          },
          {
            "name": "A3",
            "midi": 57,
            "time": 1.125,
            "velocity": 0.7086614173228346,
            "duration": 0.125,
            "frequency": 220,
            "pitch": 57,
            "startTime": 1.125,
            "endTime": 1.25
          },
          {
            "name": "D4",
            "midi": 62,
            "time": 1.25,
            "velocity": 0.7086614173228346,
            "duration": 0.125,
            "frequency": 293.6647679174076,
            "pitch": 62,
            "startTime": 1.25,
            "endTime": 1.375
          },
          {
            "name": "C4",
            "midi": 60,
            "time": 1.375,
            "velocity": 0.7086614173228346,
            "duration": 0.125,
            "frequency": 261.6255653005986,
            "pitch": 60,
            "startTime": 1.375,
            "endTime": 1.5
          },
          {
            "name": "B5",
            "midi": 83,
            "time": 1.5,
            "velocity": 0.7086614173228346,
            "duration": 0.125,
            "frequency": 987.7666025122484,
            "pitch": 76,
            "startTime": 1.5,
            "endTime": 1.625
          },
          {
            "name": "D3",
            "midi": 50,
            "time": 1.625,
            "velocity": 0.7086614173228346,
            "duration": 0.125,
            "frequency": 146.8323839587038,
            "pitch": 50,
            "startTime": 1.625,
            "endTime": 1.75
          },
          {
            "name": "E5",
            "midi": 76,
            "time": 1.75,
            "velocity": 0.7086614173228346,
            "duration": 0.125,
            "frequency": 659.2551138257398,
            "pitch": 76,
            "startTime": 1.75,
            "endTime": 1.875
          },
          {
            "name": "D3",
            "midi": 50,
            "time": 1.875,
            "velocity": 0.7086614173228346,
            "duration": 0.125,
            "frequency": 146.8323839587038,
            "pitch": 50,
            "startTime": 1.875,
            "endTime": 2
          },
          {
            "name": "D4",
            "midi": 62,
            "time": 2,
            "velocity": 0.7086614173228346,
            "duration": 0.125,
            "frequency": 293.6647679174076,
            "pitch": 62,
            "startTime": 2,
            "endTime": 2.125
          },
          {
            "name": "B3",
            "midi": 59,
            "time": 2.125,
            "velocity": 0.7086614173228346,
            "duration": 0.125,
            "frequency": 246.9416506280621,
            "pitch": 59,
            "startTime": 2.125,
            "endTime": 2.25
          },
          {
            "name": "G5",
            "midi": 79,
            "time": 2.25,
            "velocity": 0.7086614173228346,
            "duration": 0.125,
            "frequency": 783.9908719634986,
            "pitch": 76,
            "startTime": 2.25,
            "endTime": 2.375
          },
          {
            "name": "F#5",
            "midi": 78,
            "time": 2.375,
            "velocity": 0.7086614173228346,
            "duration": 0.125,
            "frequency": 739.9888454232689,
            "pitch": 76,
            "startTime": 2.375,
            "endTime": 2.5
          },
          {
            "name": "F#5",
            "midi": 78,
            "time": 2.5,
            "velocity": 0.7086614173228346,
            "duration": 0.125,
            "frequency": 739.9888454232689,
            "pitch": 76,
            "startTime": 2.5,
            "endTime": 2.625
          }
        ],
        "controlChanges": {},
        "id": 0,
        "channelNumber": 0,
        "isPercussion": false
      }
    ]
  },
  "amelanchier lamarckii_chords": {
    "header": {
      "PPQ": 128,
      "bpm": 120,
      "name": ""
    },
    "startTime": 0,
    "duration": 1,
    "tracks": [
      {
        "startTime": 0,
        "duration": 1,
        "length": 20,
        "notes": [
          {
            "name": "C#3",
            "midi": 49,
            "time": 0,
            "velocity": 0.7086614173228346,
            "duration": 0.5,
            "frequency": 138.59131548843604,
            "pitch": 49,
            "startTime": 0,
            "endTime": 0.5
          },
          {
            "name": "F3",
            "midi": 53,
            "time": 0,
            "velocity": 0.7086614173228346,
            "duration": 0.5,
            "frequency": 174.61411571650194,
            "pitch": 53,
            "startTime": 0,
            "endTime": 0.5
          },
          {
            "name": "D#4",
            "midi": 63,
            "time": 0,
            "velocity": 0.7086614173228346,
            "duration": 0.5,
            "frequency": 311.12698372208087,
            "pitch": 63,
            "startTime": 0,
            "endTime": 0.5
          },
          {
            "name": "E4",
            "midi": 64,
            "time": 0,
            "velocity": 0.7086614173228346,
            "duration": 0.5,
            "frequency": 329.6275569128699,
            "pitch": 64,
            "startTime": 0,
            "endTime": 0.5
          },
          {
            "name": "C#5",
            "midi": 73,
            "time": 0,
            "velocity": 0.7086614173228346,
            "duration": 0.5,
            "frequency": 554.3652619537442,
            "pitch": 73,
            "startTime": 0,
            "endTime": 0.5
          },
          {
            "name": "F5",
            "midi": 77,
            "time": 0,
            "velocity": 0.7086614173228346,
            "duration": 0.5,
            "frequency": 698.4564628660078,
            "pitch": 76,
            "startTime": 0,
            "endTime": 0.5
          },
          {
            "name": "C6",
            "midi": 84,
            "time": 0,
            "velocity": 0.7086614173228346,
            "duration": 0.5,
            "frequency": 1046.5022612023945,
            "pitch": 76,
            "startTime": 0,
            "endTime": 0.5
          },
          {
            "name": "D6",
            "midi": 86,
            "time": 0,
            "velocity": 0.7086614173228346,
            "duration": 0.5,
            "frequency": 1174.6590716696303,
            "pitch": 76,
            "startTime": 0,
            "endTime": 0.5
          },
          {
            "name": "F#6",
            "midi": 90,
            "time": 0,
            "velocity": 0.7086614173228346,
            "duration": 0.5,
            "frequency": 1479.9776908465378,
            "pitch": 76,
            "startTime": 0,
            "endTime": 0.5
          },
          {
            "name": "D#7",
            "midi": 99,
            "time": 0,
            "velocity": 0.7086614173228346,
            "duration": 0.5,
            "frequency": 2489.015869776647,
            "pitch": 76,
            "startTime": 0,
            "endTime": 0.5
          },
          {
            "name": "G7",
            "midi": 103,
            "time": 0,
            "velocity": 0.7086614173228346,
            "duration": 0.5,
            "frequency": 3135.9634878539946,
            "pitch": 76,
            "startTime": 0,
            "endTime": 0.5
          },
          {
            "name": "E3",
            "midi": 52,
            "time": 0.5,
            "velocity": 0.7086614173228346,
            "duration": 0.5,
            "frequency": 164.81377845643496,
            "pitch": 52,
            "startTime": 0.5,
            "endTime": 1
          },
          {
            "name": "C#4",
            "midi": 61,
            "time": 0.5,
            "velocity": 0.7086614173228346,
            "duration": 0.5,
            "frequency": 277.1826309768721,
            "pitch": 61,
            "startTime": 0.5,
            "endTime": 1
          },
          {
            "name": "F4",
            "midi": 65,
            "time": 0.5,
            "velocity": 0.7086614173228346,
            "duration": 0.5,
            "frequency": 349.2282314330039,
            "pitch": 65,
            "startTime": 0.5,
            "endTime": 1
          },
          {
            "name": "C#5",
            "midi": 73,
            "time": 0.5,
            "velocity": 0.7086614173228346,
            "duration": 0.5,
            "frequency": 554.3652619537442,
            "pitch": 73,
            "startTime": 0.5,
            "endTime": 1
          },
          {
            "name": "G5",
            "midi": 79,
            "time": 0.5,
            "velocity": 0.7086614173228346,
            "duration": 0.5,
            "frequency": 783.9908719634986,
            "pitch": 76,
            "startTime": 0.5,
            "endTime": 1
          },
          {
            "name": "C6",
            "midi": 84,
            "time": 0.5,
            "velocity": 0.7086614173228346,
            "duration": 0.5,
            "frequency": 1046.5022612023945,
            "pitch": 76,
            "startTime": 0.5,
            "endTime": 1
          },
          {
            "name": "E6",
            "midi": 88,
            "time": 0.5,
            "velocity": 0.7086614173228346,
            "duration": 0.5,
            "frequency": 1318.5102276514797,
            "pitch": 76,
            "startTime": 0.5,
            "endTime": 1
          },
          {
            "name": "F#6",
            "midi": 90,
            "time": 0.5,
            "velocity": 0.7086614173228346,
            "duration": 0.5,
            "frequency": 1479.9776908465378,
            "pitch": 76,
            "startTime": 0.5,
            "endTime": 1
          },
          {
            "name": "F#7",
            "midi": 102,
            "time": 0.5,
            "velocity": 0.7086614173228346,
            "duration": 0.5,
            "frequency": 2959.9553816930757,
            "pitch": 76,
            "startTime": 0.5,
            "endTime": 1
          }
        ],
        "controlChanges": {},
        "id": 0,
        "channelNumber": 0,
        "isPercussion": false
      }
    ]
  },
  "betula albosinensis_french": {
    "header": {
      "PPQ": 128,
      "bpm": 120,
      "name": ""
    },
    "startTime": 0,
    "duration": 10.625,
    "tracks": [
      {
        "startTime": 0,
        "duration": 10.625,
        "length": 19,
        "notes": [
          {
            "name": "B4",
            "midi": 71,
            "time": 0,
            "velocity": 0.7086614173228346,
            "duration": 1,
            "frequency": 493.8833012561242,
            "pitch": 71,
            "startTime": 0,
            "endTime": 1
          },
          {
            "name": "E5",
            "midi": 76,
            "time": 1,
            "velocity": 0.7086614173228346,
            "duration": 1,
            "frequency": 659.2551138257398,
            "pitch": 76,
            "startTime": 1,
            "endTime": 2
          },
          {
            "name": "F5",
            "midi": 77,
            "time": 2,
            "velocity": 0.7086614173228346,
            "duration": 0.25,
            "frequency": 698.4564628660078,
            "pitch": 76,
            "startTime": 2,
            "endTime": 2.25
          },
          {
            "name": "G5",
            "midi": 79,
            "time": 2.25,
            "velocity": 0.7086614173228346,
            "duration": 0.25,
            "frequency": 783.9908719634986,
            "pitch": 76,
            "startTime": 2.25,
            "endTime": 2.5
          },
          {
            "name": "E5",
            "midi": 76,
            "time": 2.5,
            "velocity": 0.7086614173228346,
            "duration": 0.5,
            "frequency": 659.2551138257398,
            "pitch": 76,
            "startTime": 2.5,
            "endTime": 3
          },
          {
            "name": "A5",
            "midi": 81,
            "time": 3,
            "velocity": 0.7086614173228346,
            "duration": 1,
            "frequency": 880,
            "pitch": 76,
            "startTime": 3,
            "endTime": 4
          },
          {
            "name": "G5",
            "midi": 79,
            "time": 4,
            "velocity": 0.7086614173228346,
            "duration": 0.125,
            "frequency": 783.9908719634986,
            "pitch": 76,
            "startTime": 4,
            "endTime": 4.125
          },
          {
            "name": "A5",
            "midi": 81,
            "time": 4.125,
            "velocity": 0.7086614173228346,
            "duration": 1,
            "frequency": 880,
            "pitch": 76,
            "startTime": 4.125,
            "endTime": 5.125
          },
          {
            "name": "E5",
            "midi": 76,
            "time": 5.125,
            "velocity": 0.7086614173228346,
            "duration": 0.5,
            "frequency": 659.2551138257398,
            "pitch": 76,
            "startTime": 5.125,
            "endTime": 5.625
          },
          {
            "name": "B4",
            "midi": 71,
            "time": 5.625,
            "velocity": 0.7086614173228346,
            "duration": 1,
            "frequency": 493.8833012561242,
            "pitch": 71,
            "startTime": 5.625,
            "endTime": 6.625
          },
          {
            "name": "A4",
            "midi": 69,
            "time": 6.625,
            "velocity": 0.7086614173228346,
            "duration": 0.25,
            "frequency": 440,
            "pitch": 69,
            "startTime": 6.625,
            "endTime": 6.875
          },
          {
            "name": "E4",
            "midi": 64,
            "time": 6.875,
            "velocity": 0.7086614173228346,
            "duration": 0.25,
            "frequency": 329.6275569128699,
            "pitch": 64,
            "startTime": 6.875,
            "endTime": 7.125
          },
          {
            "name": "B3",
            "midi": 59,
            "time": 7.125,
            "velocity": 0.7086614173228346,
            "duration": 0.5,
            "frequency": 246.9416506280621,
            "pitch": 59,
            "startTime": 7.125,
            "endTime": 7.625
          },
          {
            "name": "G3",
            "midi": 55,
            "time": 7.625,
            "velocity": 0.7086614173228346,
            "duration": 0.5,
            "frequency": 195.99771799087463,
            "pitch": 55,
            "startTime": 7.625,
            "endTime": 8.125
          },
          {
            "name": "E3",
            "midi": 52,
            "time": 8.125,
            "velocity": 0.7086614173228346,
            "duration": 1,
            "frequency": 164.81377845643496,
            "pitch": 52,
            "startTime": 8.125,
            "endTime": 9.125
          },
          {
            "name": "G3",
            "midi": 55,
            "time": 9.125,
            "velocity": 0.7086614173228346,
            "duration": 0.5,
            "frequency": 195.99771799087463,
            "pitch": 55,
            "startTime": 9.125,
            "endTime": 9.625
          },
          {
            "name": "E3",
            "midi": 52,
            "time": 9.625,
            "velocity": 0.7086614173228346,
            "duration": 0.25,
            "frequency": 164.81377845643496,
            "pitch": 52,
            "startTime": 9.625,
            "endTime": 9.875
          },
          {
            "name": "B2",
            "midi": 47,
            "time": 9.875,
            "velocity": 0.7086614173228346,
            "duration": 0.5,
            "frequency": 123.47082531403105,
            "pitch": 47,
            "startTime": 9.875,
            "endTime": 10.375
          },
          {
            "name": "E3",
            "midi": 52,
            "time": 10.375,
            "velocity": 0.7086614173228346,
            "duration": 0.25,
            "frequency": 164.81377845643496,
            "pitch": 52,
            "startTime": 10.375,
            "endTime": 10.625
          }
        ],
        "controlChanges": {},
        "id": 0,
        "channelNumber": 0,
        "isPercussion": false
      }
    ]
  },
  "betula albosinensis_keyboard": {
    "header": {
      "PPQ": 128,
      "bpm": 120,
      "name": ""
    },
    "startTime": 0,
    "duration": 2.375,
    "tracks": [
      {
        "startTime": 0,
        "duration": 2.375,
        "length": 19,
        "notes": [
          {
            "name": "G#4",
            "midi": 68,
            "time": 0,
            "velocity": 0.7086614173228346,
            "duration": 0.125,
            "frequency": 415.3046975799451,
            "pitch": 68,
            "startTime": 0,
            "endTime": 0.125
          },
          {
            "name": "A3",
            "midi": 57,
            "time": 0.125,
            "velocity": 0.7086614173228346,
            "duration": 0.125,
            "frequency": 220,
            "pitch": 57,
            "startTime": 0.125,
            "endTime": 0.25
          },
          {
            "name": "F#4",
            "midi": 66,
            "time": 0.25,
            "velocity": 0.7086614173228346,
            "duration": 0.125,
            "frequency": 369.99442271163446,
            "pitch": 66,
            "startTime": 0.25,
            "endTime": 0.375
          },
          {
            "name": "D5",
            "midi": 74,
            "time": 0.375,
            "velocity": 0.7086614173228346,
            "duration": 0.125,
            "frequency": 587.3295358348151,
            "pitch": 74,
            "startTime": 0.375,
            "endTime": 0.5
          },
          {
            "name": "B5",
            "midi": 83,
            "time": 0.5,
            "velocity": 0.7086614173228346,
            "duration": 0.125,
            "frequency": 987.7666025122484,
            "pitch": 76,
            "startTime": 0.5,
            "endTime": 0.625
          },
          {
            "name": "D3",
            "midi": 50,
            "time": 0.625,
            "velocity": 0.7086614173228346,
            "duration": 0.125,
            "frequency": 146.8323839587038,
            "pitch": 50,
            "startTime": 0.625,
            "endTime": 0.75
          },
          {
            "name": "C4",
            "midi": 60,
            "time": 0.75,
            "velocity": 0.7086614173228346,
            "duration": 0.125,
            "frequency": 261.6255653005986,
            "pitch": 60,
            "startTime": 0.75,
            "endTime": 0.875
          },
          {
            "name": "D3",
            "midi": 50,
            "time": 0.875,
            "velocity": 0.7086614173228346,
            "duration": 0.125,
            "frequency": 146.8323839587038,
            "pitch": 50,
            "startTime": 0.875,
            "endTime": 1
          },
          {
            "name": "B5",
            "midi": 83,
            "time": 1,
            "velocity": 0.7086614173228346,
            "duration": 0.125,
            "frequency": 987.7666025122484,
            "pitch": 76,
            "startTime": 1,
            "endTime": 1.125
          },
          {
            "name": "G#4",
            "midi": 68,
            "time": 1.125,
            "velocity": 0.7086614173228346,
            "duration": 0.125,
            "frequency": 415.3046975799451,
            "pitch": 68,
            "startTime": 1.125,
            "endTime": 1.25
          },
          {
            "name": "A#5",
            "midi": 82,
            "time": 1.25,
            "velocity": 0.7086614173228346,
            "duration": 0.125,
            "frequency": 932.3275230361799,
            "pitch": 76,
            "startTime": 1.25,
            "endTime": 1.375
          },
          {
            "name": "F#3",
            "midi": 54,
            "time": 1.375,
            "velocity": 0.7086614173228346,
            "duration": 0.125,
            "frequency": 184.99721135581723,
            "pitch": 54,
            "startTime": 1.375,
            "endTime": 1.5
          },
          {
            "name": "F#5",
            "midi": 78,
            "time": 1.5,
            "velocity": 0.7086614173228346,
            "duration": 0.125,
            "frequency": 739.9888454232689,
            "pitch": 76,
            "startTime": 1.5,
            "endTime": 1.625
          },
          {
            "name": "C5",
            "midi": 72,
            "time": 1.625,
            "velocity": 0.7086614173228346,
            "duration": 0.125,
            "frequency": 523.2511306011972,
            "pitch": 72,
            "startTime": 1.625,
            "endTime": 1.75
          },
          {
            "name": "A3",
            "midi": 57,
            "time": 1.75,
            "velocity": 0.7086614173228346,
            "duration": 0.125,
            "frequency": 220,
            "pitch": 57,
            "startTime": 1.75,
            "endTime": 1.875
          },
          {
            "name": "C5",
            "midi": 72,
            "time": 1.875,
            "velocity": 0.7086614173228346,
            "duration": 0.125,
            "frequency": 523.2511306011972,
            "pitch": 72,
            "startTime": 1.875,
            "endTime": 2
          },
          {
            "name": "F#3",
            "midi": 54,
            "time": 2,
            "velocity": 0.7086614173228346,
            "duration": 0.125,
            "frequency": 184.99721135581723,
            "pitch": 54,
            "startTime": 2,
            "endTime": 2.125
          },
          {
            "name": "F#5",
            "midi": 78,
            "time": 2.125,
            "velocity": 0.7086614173228346,
            "duration": 0.125,
            "frequency": 739.9888454232689,
            "pitch": 76,
            "startTime": 2.125,
            "endTime": 2.25
          },
          {
            "name": "F#3",
            "midi": 54,
            "time": 2.25,
            "velocity": 0.7086614173228346,
            "duration": 0.125,
            "frequency": 184.99721135581723,
            "pitch": 54,
            "startTime": 2.25,
            "endTime": 2.375
          }
        ],
        "controlChanges": {},
        "id": 0,
        "channelNumber": 0,
        "isPercussion": false
      }
    ]
  },
  "betula albosinensis_chords": {
    "header": {
      "PPQ": 128,
      "bpm": 120,
      "name": ""
    },
    "startTime": 0,
    "duration": 1,
    "tracks": [
      {
        "startTime": 0,
        "duration": 1,
        "length": 18,
        "notes": [
          {
            "name": "C3",
            "midi": 48,
            "time": 0,
            "velocity": 0.7086614173228346,
            "duration": 0.5,
            "frequency": 130.8127826502993,
            "pitch": 48,
            "startTime": 0,
            "endTime": 0.5
          },
          {
            "name": "D#3",
            "midi": 51,
            "time": 0,
            "velocity": 0.7086614173228346,
            "duration": 0.5,
            "frequency": 155.56349186104043,
            "pitch": 51,
            "startTime": 0,
            "endTime": 0.5
          },
          {
            "name": "A3",
            "midi": 57,
            "time": 0,
            "velocity": 0.7086614173228346,
            "duration": 0.5,
            "frequency": 220,
            "pitch": 57,
            "startTime": 0,
            "endTime": 0.5
          },
          {
            "name": "A#3",
            "midi": 58,
            "time": 0,
            "velocity": 0.7086614173228346,
            "duration": 0.5,
            "frequency": 233.08188075904496,
            "pitch": 58,
            "startTime": 0,
            "endTime": 0.5
          },
          {
            "name": "E4",
            "midi": 64,
            "time": 0,
            "velocity": 0.7086614173228346,
            "duration": 0.5,
            "frequency": 329.6275569128699,
            "pitch": 64,
            "startTime": 0,
            "endTime": 0.5
          },
          {
            "name": "C#5",
            "midi": 73,
            "time": 0,
            "velocity": 0.7086614173228346,
            "duration": 0.5,
            "frequency": 554.3652619537442,
            "pitch": 73,
            "startTime": 0,
            "endTime": 0.5
          },
          {
            "name": "C#3",
            "midi": 49,
            "time": 0.5,
            "velocity": 0.7086614173228346,
            "duration": 0.5,
            "frequency": 138.59131548843604,
            "pitch": 49,
            "startTime": 0.5,
            "endTime": 1
          },
          {
            "name": "E3",
            "midi": 52,
            "time": 0.5,
            "velocity": 0.7086614173228346,
            "duration": 0.5,
            "frequency": 164.81377845643496,
            "pitch": 52,
            "startTime": 0.5,
            "endTime": 1
          },
          {
            "name": "C4",
            "midi": 60,
            "time": 0.5,
            "velocity": 0.7086614173228346,
            "duration": 0.5,
            "frequency": 261.6255653005986,
            "pitch": 60,
            "startTime": 0.5,
            "endTime": 1
          },
          {
            "name": "G#4",
            "midi": 68,
            "time": 0.5,
            "velocity": 0.7086614173228346,
            "duration": 0.5,
            "frequency": 415.3046975799451,
            "pitch": 68,
            "startTime": 0.5,
            "endTime": 1
          },
          {
            "name": "G5",
            "midi": 79,
            "time": 0.5,
            "velocity": 0.7086614173228346,
            "duration": 0.5,
            "frequency": 783.9908719634986,
            "pitch": 76,
            "startTime": 0.5,
            "endTime": 1
          },
          {
            "name": "F#6",
            "midi": 90,
            "time": 0.5,
            "velocity": 0.7086614173228346,
            "duration": 0.5,
            "frequency": 1479.9776908465378,
            "pitch": 76,
            "startTime": 0.5,
            "endTime": 1
          },
          {
            "name": "F7",
            "midi": 101,
            "time": 0.5,
            "velocity": 0.7086614173228346,
            "duration": 0.5,
            "frequency": 2793.825851464031,
            "pitch": 76,
            "startTime": 0.5,
            "endTime": 1
          },
          {
            "name": "D#8",
            "midi": 111,
            "time": 0.5,
            "velocity": 0.7086614173228346,
            "duration": 0.5,
            "frequency": 4978.031739553294,
            "pitch": 76,
            "startTime": 0.5,
            "endTime": 1
          },
          {
            "name": "F8",
            "midi": 113,
            "time": 0.5,
            "velocity": 0.7086614173228346,
            "duration": 0.5,
            "frequency": 5587.651702928062,
            "pitch": 76,
            "startTime": 0.5,
            "endTime": 1
          },
          {
            "name": "G8",
            "midi": 115,
            "time": 0.5,
            "velocity": 0.7086614173228346,
            "duration": 0.5,
            "frequency": 6271.926975707989,
            "pitch": 76,
            "startTime": 0.5,
            "endTime": 1
          },
          {
            "name": "F#9",
            "midi": 126,
            "time": 0.5,
            "velocity": 0.7086614173228346,
            "duration": 0.5,
            "frequency": 11839.821526772303,
            "pitch": 76,
            "startTime": 0.5,
            "endTime": 1
          },
          {
            "name": "G9",
            "midi": 127,
            "time": 0.5,
            "velocity": 0.7086614173228346,
            "duration": 0.5,
            "frequency": 12543.853951415975,
            "pitch": 76,
            "startTime": 0.5,
            "endTime": 1
          }
        ],
        "controlChanges": {},
        "id": 0,
        "channelNumber": 0,
        "isPercussion": false
      }
    ]
  },
  "betula ermanii_french": {
    "header": {
      "PPQ": 128,
      "bpm": 120,
      "name": ""
    },
    "startTime": 0,
    "duration": 8.375,
    "tracks": [
      {
        "startTime": 0,
        "duration": 8.375,
        "length": 14,
        "notes": [
          {
            "name": "B4",
            "midi": 71,
            "time": 0,
            "velocity": 0.7086614173228346,
            "duration": 1,
            "frequency": 493.8833012561242,
            "pitch": 71,
            "startTime": 0,
            "endTime": 1
          },
          {
            "name": "E5",
            "midi": 76,
            "time": 1,
            "velocity": 0.7086614173228346,
            "duration": 1,
            "frequency": 659.2551138257398,
            "pitch": 76,
            "startTime": 1,
            "endTime": 2
          },
          {
            "name": "F5",
            "midi": 77,
            "time": 2,
            "velocity": 0.7086614173228346,
            "duration": 0.25,
            "frequency": 698.4564628660078,
            "pitch": 76,
            "startTime": 2,
            "endTime": 2.25
          },
          {
            "name": "G5",
            "midi": 79,
            "time": 2.25,
            "velocity": 0.7086614173228346,
            "duration": 0.25,
            "frequency": 783.9908719634986,
            "pitch": 76,
            "startTime": 2.25,
            "endTime": 2.5
          },
          {
            "name": "E5",
            "midi": 76,
            "time": 2.5,
            "velocity": 0.7086614173228346,
            "duration": 0.5,
            "frequency": 659.2551138257398,
            "pitch": 76,
            "startTime": 2.5,
            "endTime": 3
          },
          {
            "name": "A5",
            "midi": 81,
            "time": 3,
            "velocity": 0.7086614173228346,
            "duration": 1,
            "frequency": 880,
            "pitch": 76,
            "startTime": 3,
            "endTime": 4
          },
          {
            "name": "G5",
            "midi": 79,
            "time": 4,
            "velocity": 0.7086614173228346,
            "duration": 0.125,
            "frequency": 783.9908719634986,
            "pitch": 76,
            "startTime": 4,
            "endTime": 4.125
          },
          {
            "name": "E5",
            "midi": 76,
            "time": 4.125,
            "velocity": 0.7086614173228346,
            "duration": 1,
            "frequency": 659.2551138257398,
            "pitch": 76,
            "startTime": 4.125,
            "endTime": 5.125
          },
          {
            "name": "D5",
            "midi": 74,
            "time": 5.125,
            "velocity": 0.7086614173228346,
            "duration": 0.25,
            "frequency": 587.3295358348151,
            "pitch": 74,
            "startTime": 5.125,
            "endTime": 5.375
          },
          {
            "name": "F5",
            "midi": 77,
            "time": 5.375,
            "velocity": 0.7086614173228346,
            "duration": 0.5,
            "frequency": 698.4564628660078,
            "pitch": 76,
            "startTime": 5.375,
            "endTime": 5.875
          },
          {
            "name": "A5",
            "midi": 81,
            "time": 5.875,
            "velocity": 0.7086614173228346,
            "duration": 1,
            "frequency": 880,
            "pitch": 76,
            "startTime": 5.875,
            "endTime": 6.875
          },
          {
            "name": "G5",
            "midi": 79,
            "time": 6.875,
            "velocity": 0.7086614173228346,
            "duration": 0.5,
            "frequency": 783.9908719634986,
            "pitch": 76,
            "startTime": 6.875,
            "endTime": 7.375
          },
          {
            "name": "B5",
            "midi": 83,
            "time": 7.375,
            "velocity": 0.7086614173228346,
            "duration": 0.5,
            "frequency": 987.7666025122484,
            "pitch": 76,
            "startTime": 7.375,
            "endTime": 7.875
          },
          {
            "name": "B5",
            "midi": 83,
            "time": 7.875,
            "velocity": 0.7086614173228346,
            "duration": 0.5,
            "frequency": 987.7666025122484,
            "pitch": 76,
            "startTime": 7.875,
            "endTime": 8.375
          }
        ],
        "controlChanges": {},
        "id": 0,
        "channelNumber": 0,
        "isPercussion": false
      }
    ]
  },
  "betula ermanii_keyboard": {
    "header": {
      "PPQ": 128,
      "bpm": 120,
      "name": ""
    },
    "startTime": 0,
    "duration": 1.75,
    "tracks": [
      {
        "startTime": 0,
        "duration": 1.75,
        "length": 14,
        "notes": [
          {
            "name": "G#4",
            "midi": 68,
            "time": 0,
            "velocity": 0.7086614173228346,
            "duration": 0.125,
            "frequency": 415.3046975799451,
            "pitch": 68,
            "startTime": 0,
            "endTime": 0.125
          },
          {
            "name": "A3",
            "midi": 57,
            "time": 0.125,
            "velocity": 0.7086614173228346,
            "duration": 0.125,
            "frequency": 220,
            "pitch": 57,
            "startTime": 0.125,
            "endTime": 0.25
          },
          {
            "name": "F#4",
            "midi": 66,
            "time": 0.25,
            "velocity": 0.7086614173228346,
            "duration": 0.125,
            "frequency": 369.99442271163446,
            "pitch": 66,
            "startTime": 0.25,
            "endTime": 0.375
          },
          {
            "name": "D5",
            "midi": 74,
            "time": 0.375,
            "velocity": 0.7086614173228346,
            "duration": 0.125,
            "frequency": 587.3295358348151,
            "pitch": 74,
            "startTime": 0.375,
            "endTime": 0.5
          },
          {
            "name": "B5",
            "midi": 83,
            "time": 0.5,
            "velocity": 0.7086614173228346,
            "duration": 0.125,
            "frequency": 987.7666025122484,
            "pitch": 76,
            "startTime": 0.5,
            "endTime": 0.625
          },
          {
            "name": "D3",
            "midi": 50,
            "time": 0.625,
            "velocity": 0.7086614173228346,
            "duration": 0.125,
            "frequency": 146.8323839587038,
            "pitch": 50,
            "startTime": 0.625,
            "endTime": 0.75
          },
          {
            "name": "C4",
            "midi": 60,
            "time": 0.75,
            "velocity": 0.7086614173228346,
            "duration": 0.125,
            "frequency": 261.6255653005986,
            "pitch": 60,
            "startTime": 0.75,
            "endTime": 0.875
          },
          {
            "name": "A3",
            "midi": 57,
            "time": 0.875,
            "velocity": 0.7086614173228346,
            "duration": 0.125,
            "frequency": 220,
            "pitch": 57,
            "startTime": 0.875,
            "endTime": 1
          },
          {
            "name": "D4",
            "midi": 62,
            "time": 1,
            "velocity": 0.7086614173228346,
            "duration": 0.125,
            "frequency": 293.6647679174076,
            "pitch": 62,
            "startTime": 1,
            "endTime": 1.125
          },
          {
            "name": "E5",
            "midi": 76,
            "time": 1.125,
            "velocity": 0.7086614173228346,
            "duration": 0.125,
            "frequency": 659.2551138257398,
            "pitch": 76,
            "startTime": 1.125,
            "endTime": 1.25
          },
          {
            "name": "D3",
            "midi": 50,
            "time": 1.25,
            "velocity": 0.7086614173228346,
            "duration": 0.125,
            "frequency": 146.8323839587038,
            "pitch": 50,
            "startTime": 1.25,
            "endTime": 1.375
          },
          {
            "name": "C5",
            "midi": 72,
            "time": 1.375,
            "velocity": 0.7086614173228346,
            "duration": 0.125,
            "frequency": 523.2511306011972,
            "pitch": 72,
            "startTime": 1.375,
            "endTime": 1.5
          },
          {
            "name": "F#5",
            "midi": 78,
            "time": 1.5,
            "velocity": 0.7086614173228346,
            "duration": 0.125,
            "frequency": 739.9888454232689,
            "pitch": 76,
            "startTime": 1.5,
            "endTime": 1.625
          },
          {
            "name": "F#5",
            "midi": 78,
            "time": 1.625,
            "velocity": 0.7086614173228346,
            "duration": 0.125,
            "frequency": 739.9888454232689,
            "pitch": 76,
            "startTime": 1.625,
            "endTime": 1.75
          }
        ],
        "controlChanges": {},
        "id": 0,
        "channelNumber": 0,
        "isPercussion": false
      }
    ]
  },
  "betula ermanii_chords": {
    "header": {
      "PPQ": 128,
      "bpm": 120,
      "name": ""
    },
    "startTime": 0,
    "duration": 1,
    "tracks": [
      {
        "startTime": 0,
        "duration": 1,
        "length": 13,
        "notes": [
          {
            "name": "C3",
            "midi": 48,
            "time": 0,
            "velocity": 0.7086614173228346,
            "duration": 0.5,
            "frequency": 130.8127826502993,
            "pitch": 48,
            "startTime": 0,
            "endTime": 0.5
          },
          {
            "name": "D#3",
            "midi": 51,
            "time": 0,
            "velocity": 0.7086614173228346,
            "duration": 0.5,
            "frequency": 155.56349186104043,
            "pitch": 51,
            "startTime": 0,
            "endTime": 0.5
          },
          {
            "name": "A3",
            "midi": 57,
            "time": 0,
            "velocity": 0.7086614173228346,
            "duration": 0.5,
            "frequency": 220,
            "pitch": 57,
            "startTime": 0,
            "endTime": 0.5
          },
          {
            "name": "A#3",
            "midi": 58,
            "time": 0,
            "velocity": 0.7086614173228346,
            "duration": 0.5,
            "frequency": 233.08188075904496,
            "pitch": 58,
            "startTime": 0,
            "endTime": 0.5
          },
          {
            "name": "E4",
            "midi": 64,
            "time": 0,
            "velocity": 0.7086614173228346,
            "duration": 0.5,
            "frequency": 329.6275569128699,
            "pitch": 64,
            "startTime": 0,
            "endTime": 0.5
          },
          {
            "name": "C#5",
            "midi": 73,
            "time": 0,
            "velocity": 0.7086614173228346,
            "duration": 0.5,
            "frequency": 554.3652619537442,
            "pitch": 73,
            "startTime": 0,
            "endTime": 0.5
          },
          {
            "name": "D#3",
            "midi": 51,
            "time": 0.5,
            "velocity": 0.7086614173228346,
            "duration": 0.5,
            "frequency": 155.56349186104043,
            "pitch": 51,
            "startTime": 0.5,
            "endTime": 1
          },
          {
            "name": "G3",
            "midi": 55,
            "time": 0.5,
            "velocity": 0.7086614173228346,
            "duration": 0.5,
            "frequency": 195.99771799087463,
            "pitch": 55,
            "startTime": 0.5,
            "endTime": 1
          },
          {
            "name": "F4",
            "midi": 65,
            "time": 0.5,
            "velocity": 0.7086614173228346,
            "duration": 0.5,
            "frequency": 349.2282314330039,
            "pitch": 65,
            "startTime": 0.5,
            "endTime": 1
          },
          {
            "name": "C#5",
            "midi": 73,
            "time": 0.5,
            "velocity": 0.7086614173228346,
            "duration": 0.5,
            "frequency": 554.3652619537442,
            "pitch": 73,
            "startTime": 0.5,
            "endTime": 1
          },
          {
            "name": "F5",
            "midi": 77,
            "time": 0.5,
            "velocity": 0.7086614173228346,
            "duration": 0.5,
            "frequency": 698.4564628660078,
            "pitch": 76,
            "startTime": 0.5,
            "endTime": 1
          },
          {
            "name": "F#5",
            "midi": 78,
            "time": 0.5,
            "velocity": 0.7086614173228346,
            "duration": 0.5,
            "frequency": 739.9888454232689,
            "pitch": 76,
            "startTime": 0.5,
            "endTime": 1
          },
          {
            "name": "F#6",
            "midi": 90,
            "time": 0.5,
            "velocity": 0.7086614173228346,
            "duration": 0.5,
            "frequency": 1479.9776908465378,
            "pitch": 76,
            "startTime": 0.5,
            "endTime": 1
          }
        ],
        "controlChanges": {},
        "id": 0,
        "channelNumber": 0,
        "isPercussion": false
      }
    ]
  },
  "betula jacquemontii_french": {
    "header": {
      "PPQ": 128,
      "bpm": 120,
      "name": ""
    },
    "startTime": 0,
    "duration": 10.625,
    "tracks": [
      {
        "startTime": 0,
        "duration": 10.625,
        "length": 19,
        "notes": [
          {
            "name": "B4",
            "midi": 71,
            "time": 0,
            "velocity": 0.7086614173228346,
            "duration": 1,
            "frequency": 493.8833012561242,
            "pitch": 71,
            "startTime": 0,
            "endTime": 1
          },
          {
            "name": "E5",
            "midi": 76,
            "time": 1,
            "velocity": 0.7086614173228346,
            "duration": 1,
            "frequency": 659.2551138257398,
            "pitch": 76,
            "startTime": 1,
            "endTime": 2
          },
          {
            "name": "F5",
            "midi": 77,
            "time": 2,
            "velocity": 0.7086614173228346,
            "duration": 0.25,
            "frequency": 698.4564628660078,
            "pitch": 76,
            "startTime": 2,
            "endTime": 2.25
          },
          {
            "name": "G5",
            "midi": 79,
            "time": 2.25,
            "velocity": 0.7086614173228346,
            "duration": 0.25,
            "frequency": 783.9908719634986,
            "pitch": 76,
            "startTime": 2.25,
            "endTime": 2.5
          },
          {
            "name": "E5",
            "midi": 76,
            "time": 2.5,
            "velocity": 0.7086614173228346,
            "duration": 0.5,
            "frequency": 659.2551138257398,
            "pitch": 76,
            "startTime": 2.5,
            "endTime": 3
          },
          {
            "name": "A5",
            "midi": 81,
            "time": 3,
            "velocity": 0.7086614173228346,
            "duration": 1,
            "frequency": 880,
            "pitch": 76,
            "startTime": 3,
            "endTime": 4
          },
          {
            "name": "G5",
            "midi": 79,
            "time": 4,
            "velocity": 0.7086614173228346,
            "duration": 0.125,
            "frequency": 783.9908719634986,
            "pitch": 76,
            "startTime": 4,
            "endTime": 4.125
          },
          {
            "name": "C6",
            "midi": 84,
            "time": 4.125,
            "velocity": 0.7086614173228346,
            "duration": 0.5,
            "frequency": 1046.5022612023945,
            "pitch": 76,
            "startTime": 4.125,
            "endTime": 4.625
          },
          {
            "name": "A5",
            "midi": 81,
            "time": 4.625,
            "velocity": 0.7086614173228346,
            "duration": 1,
            "frequency": 880,
            "pitch": 76,
            "startTime": 4.625,
            "endTime": 5.625
          },
          {
            "name": "C6",
            "midi": 84,
            "time": 5.625,
            "velocity": 0.7086614173228346,
            "duration": 1,
            "frequency": 1046.5022612023945,
            "pitch": 76,
            "startTime": 5.625,
            "endTime": 6.625
          },
          {
            "name": "C6",
            "midi": 84,
            "time": 6.625,
            "velocity": 0.7086614173228346,
            "duration": 0.25,
            "frequency": 1046.5022612023945,
            "pitch": 76,
            "startTime": 6.625,
            "endTime": 6.875
          },
          {
            "name": "G5",
            "midi": 79,
            "time": 6.875,
            "velocity": 0.7086614173228346,
            "duration": 0.25,
            "frequency": 783.9908719634986,
            "pitch": 76,
            "startTime": 6.875,
            "endTime": 7.125
          },
          {
            "name": "E5",
            "midi": 76,
            "time": 7.125,
            "velocity": 0.7086614173228346,
            "duration": 1,
            "frequency": 659.2551138257398,
            "pitch": 76,
            "startTime": 7.125,
            "endTime": 8.125
          },
          {
            "name": "F5",
            "midi": 77,
            "time": 8.125,
            "velocity": 0.7086614173228346,
            "duration": 0.5,
            "frequency": 698.4564628660078,
            "pitch": 76,
            "startTime": 8.125,
            "endTime": 8.625
          },
          {
            "name": "A5",
            "midi": 81,
            "time": 8.625,
            "velocity": 0.7086614173228346,
            "duration": 0.25,
            "frequency": 880,
            "pitch": 76,
            "startTime": 8.625,
            "endTime": 8.875
          },
          {
            "name": "G5",
            "midi": 79,
            "time": 8.875,
            "velocity": 0.7086614173228346,
            "duration": 0.5,
            "frequency": 783.9908719634986,
            "pitch": 76,
            "startTime": 8.875,
            "endTime": 9.375
          },
          {
            "name": "F5",
            "midi": 77,
            "time": 9.375,
            "velocity": 0.7086614173228346,
            "duration": 0.25,
            "frequency": 698.4564628660078,
            "pitch": 76,
            "startTime": 9.375,
            "endTime": 9.625
          },
          {
            "name": "B5",
            "midi": 83,
            "time": 9.625,
            "velocity": 0.7086614173228346,
            "duration": 0.5,
            "frequency": 987.7666025122484,
            "pitch": 76,
            "startTime": 9.625,
            "endTime": 10.125
          },
          {
            "name": "B5",
            "midi": 83,
            "time": 10.125,
            "velocity": 0.7086614173228346,
            "duration": 0.5,
            "frequency": 987.7666025122484,
            "pitch": 76,
            "startTime": 10.125,
            "endTime": 10.625
          }
        ],
        "controlChanges": {},
        "id": 0,
        "channelNumber": 0,
        "isPercussion": false
      }
    ]
  },
  "betula jacquemontii_keyboard": {
    "header": {
      "PPQ": 128,
      "bpm": 120,
      "name": ""
    },
    "startTime": 0,
    "duration": 2.375,
    "tracks": [
      {
        "startTime": 0,
        "duration": 2.375,
        "length": 19,
        "notes": [
          {
            "name": "G#4",
            "midi": 68,
            "time": 0,
            "velocity": 0.7086614173228346,
            "duration": 0.125,
            "frequency": 415.3046975799451,
            "pitch": 68,
            "startTime": 0,
            "endTime": 0.125
          },
          {
            "name": "A3",
            "midi": 57,
            "time": 0.125,
            "velocity": 0.7086614173228346,
            "duration": 0.125,
            "frequency": 220,
            "pitch": 57,
            "startTime": 0.125,
            "endTime": 0.25
          },
          {
            "name": "F#4",
            "midi": 66,
            "time": 0.25,
            "velocity": 0.7086614173228346,
            "duration": 0.125,
            "frequency": 369.99442271163446,
            "pitch": 66,
            "startTime": 0.25,
            "endTime": 0.375
          },
          {
            "name": "D5",
            "midi": 74,
            "time": 0.375,
            "velocity": 0.7086614173228346,
            "duration": 0.125,
            "frequency": 587.3295358348151,
            "pitch": 74,
            "startTime": 0.375,
            "endTime": 0.5
          },
          {
            "name": "B5",
            "midi": 83,
            "time": 0.5,
            "velocity": 0.7086614173228346,
            "duration": 0.125,
            "frequency": 987.7666025122484,
            "pitch": 76,
            "startTime": 0.5,
            "endTime": 0.625
          },
          {
            "name": "D3",
            "midi": 50,
            "time": 0.625,
            "velocity": 0.7086614173228346,
            "duration": 0.125,
            "frequency": 146.8323839587038,
            "pitch": 50,
            "startTime": 0.625,
            "endTime": 0.75
          },
          {
            "name": "C4",
            "midi": 60,
            "time": 0.75,
            "velocity": 0.7086614173228346,
            "duration": 0.125,
            "frequency": 261.6255653005986,
            "pitch": 60,
            "startTime": 0.75,
            "endTime": 0.875
          },
          {
            "name": "D#5",
            "midi": 75,
            "time": 0.875,
            "velocity": 0.7086614173228346,
            "duration": 0.125,
            "frequency": 622.2539674441618,
            "pitch": 75,
            "startTime": 0.875,
            "endTime": 1
          },
          {
            "name": "D3",
            "midi": 50,
            "time": 1,
            "velocity": 0.7086614173228346,
            "duration": 0.125,
            "frequency": 146.8323839587038,
            "pitch": 50,
            "startTime": 1,
            "endTime": 1.125
          },
          {
            "name": "B3",
            "midi": 59,
            "time": 1.125,
            "velocity": 0.7086614173228346,
            "duration": 0.125,
            "frequency": 246.9416506280621,
            "pitch": 59,
            "startTime": 1.125,
            "endTime": 1.25
          },
          {
            "name": "C#3",
            "midi": 49,
            "time": 1.25,
            "velocity": 0.7086614173228346,
            "duration": 0.125,
            "frequency": 138.59131548843604,
            "pitch": 49,
            "startTime": 1.25,
            "endTime": 1.375
          },
          {
            "name": "D5",
            "midi": 74,
            "time": 1.375,
            "velocity": 0.7086614173228346,
            "duration": 0.125,
            "frequency": 587.3295358348151,
            "pitch": 74,
            "startTime": 1.375,
            "endTime": 1.5
          },
          {
            "name": "A3",
            "midi": 57,
            "time": 1.5,
            "velocity": 0.7086614173228346,
            "duration": 0.125,
            "frequency": 220,
            "pitch": 57,
            "startTime": 1.5,
            "endTime": 1.625
          },
          {
            "name": "E5",
            "midi": 76,
            "time": 1.625,
            "velocity": 0.7086614173228346,
            "duration": 0.125,
            "frequency": 659.2551138257398,
            "pitch": 76,
            "startTime": 1.625,
            "endTime": 1.75
          },
          {
            "name": "A#5",
            "midi": 82,
            "time": 1.75,
            "velocity": 0.7086614173228346,
            "duration": 0.125,
            "frequency": 932.3275230361799,
            "pitch": 76,
            "startTime": 1.75,
            "endTime": 1.875
          },
          {
            "name": "C5",
            "midi": 72,
            "time": 1.875,
            "velocity": 0.7086614173228346,
            "duration": 0.125,
            "frequency": 523.2511306011972,
            "pitch": 72,
            "startTime": 1.875,
            "endTime": 2
          },
          {
            "name": "F#4",
            "midi": 66,
            "time": 2,
            "velocity": 0.7086614173228346,
            "duration": 0.125,
            "frequency": 369.99442271163446,
            "pitch": 66,
            "startTime": 2,
            "endTime": 2.125
          },
          {
            "name": "F#5",
            "midi": 78,
            "time": 2.125,
            "velocity": 0.7086614173228346,
            "duration": 0.125,
            "frequency": 739.9888454232689,
            "pitch": 76,
            "startTime": 2.125,
            "endTime": 2.25
          },
          {
            "name": "F#5",
            "midi": 78,
            "time": 2.25,
            "velocity": 0.7086614173228346,
            "duration": 0.125,
            "frequency": 739.9888454232689,
            "pitch": 76,
            "startTime": 2.25,
            "endTime": 2.375
          }
        ],
        "controlChanges": {},
        "id": 0,
        "channelNumber": 0,
        "isPercussion": false
      }
    ]
  },
  "betula jacquemontii_chords": {
    "header": {
      "PPQ": 128,
      "bpm": 120,
      "name": ""
    },
    "startTime": 0,
    "duration": 1,
    "tracks": [
      {
        "startTime": 0,
        "duration": 1,
        "length": 18,
        "notes": [
          {
            "name": "C3",
            "midi": 48,
            "time": 0,
            "velocity": 0.7086614173228346,
            "duration": 0.5,
            "frequency": 130.8127826502993,
            "pitch": 48,
            "startTime": 0,
            "endTime": 0.5
          },
          {
            "name": "D#3",
            "midi": 51,
            "time": 0,
            "velocity": 0.7086614173228346,
            "duration": 0.5,
            "frequency": 155.56349186104043,
            "pitch": 51,
            "startTime": 0,
            "endTime": 0.5
          },
          {
            "name": "A3",
            "midi": 57,
            "time": 0,
            "velocity": 0.7086614173228346,
            "duration": 0.5,
            "frequency": 220,
            "pitch": 57,
            "startTime": 0,
            "endTime": 0.5
          },
          {
            "name": "A#3",
            "midi": 58,
            "time": 0,
            "velocity": 0.7086614173228346,
            "duration": 0.5,
            "frequency": 233.08188075904496,
            "pitch": 58,
            "startTime": 0,
            "endTime": 0.5
          },
          {
            "name": "E4",
            "midi": 64,
            "time": 0,
            "velocity": 0.7086614173228346,
            "duration": 0.5,
            "frequency": 329.6275569128699,
            "pitch": 64,
            "startTime": 0,
            "endTime": 0.5
          },
          {
            "name": "C#5",
            "midi": 73,
            "time": 0,
            "velocity": 0.7086614173228346,
            "duration": 0.5,
            "frequency": 554.3652619537442,
            "pitch": 73,
            "startTime": 0,
            "endTime": 0.5
          },
          {
            "name": "E3",
            "midi": 52,
            "time": 0.5,
            "velocity": 0.7086614173228346,
            "duration": 0.5,
            "frequency": 164.81377845643496,
            "pitch": 52,
            "startTime": 0.5,
            "endTime": 1
          },
          {
            "name": "C#4",
            "midi": 61,
            "time": 0.5,
            "velocity": 0.7086614173228346,
            "duration": 0.5,
            "frequency": 277.1826309768721,
            "pitch": 61,
            "startTime": 0.5,
            "endTime": 1
          },
          {
            "name": "C5",
            "midi": 72,
            "time": 0.5,
            "velocity": 0.7086614173228346,
            "duration": 0.5,
            "frequency": 523.2511306011972,
            "pitch": 72,
            "startTime": 0.5,
            "endTime": 1
          },
          {
            "name": "G5",
            "midi": 79,
            "time": 0.5,
            "velocity": 0.7086614173228346,
            "duration": 0.5,
            "frequency": 783.9908719634986,
            "pitch": 76,
            "startTime": 0.5,
            "endTime": 1
          },
          {
            "name": "A#5",
            "midi": 82,
            "time": 0.5,
            "velocity": 0.7086614173228346,
            "duration": 0.5,
            "frequency": 932.3275230361799,
            "pitch": 76,
            "startTime": 0.5,
            "endTime": 1
          },
          {
            "name": "D#6",
            "midi": 87,
            "time": 0.5,
            "velocity": 0.7086614173228346,
            "duration": 0.5,
            "frequency": 1244.5079348883235,
            "pitch": 76,
            "startTime": 0.5,
            "endTime": 1
          },
          {
            "name": "F6",
            "midi": 89,
            "time": 0.5,
            "velocity": 0.7086614173228346,
            "duration": 0.5,
            "frequency": 1396.9129257320155,
            "pitch": 76,
            "startTime": 0.5,
            "endTime": 1
          },
          {
            "name": "G#6",
            "midi": 92,
            "time": 0.5,
            "velocity": 0.7086614173228346,
            "duration": 0.5,
            "frequency": 1661.2187903197805,
            "pitch": 76,
            "startTime": 0.5,
            "endTime": 1
          },
          {
            "name": "F7",
            "midi": 101,
            "time": 0.5,
            "velocity": 0.7086614173228346,
            "duration": 0.5,
            "frequency": 2793.825851464031,
            "pitch": 76,
            "startTime": 0.5,
            "endTime": 1
          },
          {
            "name": "A7",
            "midi": 105,
            "time": 0.5,
            "velocity": 0.7086614173228346,
            "duration": 0.5,
            "frequency": 3520,
            "pitch": 76,
            "startTime": 0.5,
            "endTime": 1
          },
          {
            "name": "F#8",
            "midi": 114,
            "time": 0.5,
            "velocity": 0.7086614173228346,
            "duration": 0.5,
            "frequency": 5919.910763386151,
            "pitch": 76,
            "startTime": 0.5,
            "endTime": 1
          },
          {
            "name": "F#9",
            "midi": 126,
            "time": 0.5,
            "velocity": 0.7086614173228346,
            "duration": 0.5,
            "frequency": 11839.821526772303,
            "pitch": 76,
            "startTime": 0.5,
            "endTime": 1
          }
        ],
        "controlChanges": {},
        "id": 0,
        "channelNumber": 0,
        "isPercussion": false
      }
    ]
  },
  "betula nigra_french": {
    "header": {
      "PPQ": 128,
      "bpm": 120,
      "name": ""
    },
    "startTime": 0,
    "duration": 7.375,
    "tracks": [
      {
        "startTime": 0,
        "duration": 7.375,
        "length": 12,
        "notes": [
          {
            "name": "B4",
            "midi": 71,
            "time": 0,
            "velocity": 0.7086614173228346,
            "duration": 1,
            "frequency": 493.8833012561242,
            "pitch": 71,
            "startTime": 0,
            "endTime": 1
          },
          {
            "name": "E5",
            "midi": 76,
            "time": 1,
            "velocity": 0.7086614173228346,
            "duration": 1,
            "frequency": 659.2551138257398,
            "pitch": 76,
            "startTime": 1,
            "endTime": 2
          },
          {
            "name": "F5",
            "midi": 77,
            "time": 2,
            "velocity": 0.7086614173228346,
            "duration": 0.25,
            "frequency": 698.4564628660078,
            "pitch": 76,
            "startTime": 2,
            "endTime": 2.25
          },
          {
            "name": "G5",
            "midi": 79,
            "time": 2.25,
            "velocity": 0.7086614173228346,
            "duration": 0.25,
            "frequency": 783.9908719634986,
            "pitch": 76,
            "startTime": 2.25,
            "endTime": 2.5
          },
          {
            "name": "E5",
            "midi": 76,
            "time": 2.5,
            "velocity": 0.7086614173228346,
            "duration": 0.5,
            "frequency": 659.2551138257398,
            "pitch": 76,
            "startTime": 2.5,
            "endTime": 3
          },
          {
            "name": "A5",
            "midi": 81,
            "time": 3,
            "velocity": 0.7086614173228346,
            "duration": 1,
            "frequency": 880,
            "pitch": 76,
            "startTime": 3,
            "endTime": 4
          },
          {
            "name": "G5",
            "midi": 79,
            "time": 4,
            "velocity": 0.7086614173228346,
            "duration": 0.125,
            "frequency": 783.9908719634986,
            "pitch": 76,
            "startTime": 4,
            "endTime": 4.125
          },
          {
            "name": "G5",
            "midi": 79,
            "time": 4.125,
            "velocity": 0.7086614173228346,
            "duration": 0.5,
            "frequency": 783.9908719634986,
            "pitch": 76,
            "startTime": 4.125,
            "endTime": 4.625
          },
          {
            "name": "B5",
            "midi": 83,
            "time": 4.625,
            "velocity": 0.7086614173228346,
            "duration": 0.5,
            "frequency": 987.7666025122484,
            "pitch": 76,
            "startTime": 4.625,
            "endTime": 5.125
          },
          {
            "name": "G5",
            "midi": 79,
            "time": 5.125,
            "velocity": 0.7086614173228346,
            "duration": 1,
            "frequency": 783.9908719634986,
            "pitch": 76,
            "startTime": 5.125,
            "endTime": 6.125
          },
          {
            "name": "D5",
            "midi": 74,
            "time": 6.125,
            "velocity": 0.7086614173228346,
            "duration": 0.25,
            "frequency": 587.3295358348151,
            "pitch": 74,
            "startTime": 6.125,
            "endTime": 6.375
          },
          {
            "name": "A4",
            "midi": 69,
            "time": 6.375,
            "velocity": 0.7086614173228346,
            "duration": 1,
            "frequency": 440,
            "pitch": 69,
            "startTime": 6.375,
            "endTime": 7.375
          }
        ],
        "controlChanges": {},
        "id": 0,
        "channelNumber": 0,
        "isPercussion": false
      }
    ]
  },
  "betula nigra_keyboard": {
    "header": {
      "PPQ": 128,
      "bpm": 120,
      "name": ""
    },
    "startTime": 0,
    "duration": 1.5,
    "tracks": [
      {
        "startTime": 0,
        "duration": 1.5,
        "length": 12,
        "notes": [
          {
            "name": "G#4",
            "midi": 68,
            "time": 0,
            "velocity": 0.7086614173228346,
            "duration": 0.125,
            "frequency": 415.3046975799451,
            "pitch": 68,
            "startTime": 0,
            "endTime": 0.125
          },
          {
            "name": "A3",
            "midi": 57,
            "time": 0.125,
            "velocity": 0.7086614173228346,
            "duration": 0.125,
            "frequency": 220,
            "pitch": 57,
            "startTime": 0.125,
            "endTime": 0.25
          },
          {
            "name": "F#4",
            "midi": 66,
            "time": 0.25,
            "velocity": 0.7086614173228346,
            "duration": 0.125,
            "frequency": 369.99442271163446,
            "pitch": 66,
            "startTime": 0.25,
            "endTime": 0.375
          },
          {
            "name": "D5",
            "midi": 74,
            "time": 0.375,
            "velocity": 0.7086614173228346,
            "duration": 0.125,
            "frequency": 587.3295358348151,
            "pitch": 74,
            "startTime": 0.375,
            "endTime": 0.5
          },
          {
            "name": "B5",
            "midi": 83,
            "time": 0.5,
            "velocity": 0.7086614173228346,
            "duration": 0.125,
            "frequency": 987.7666025122484,
            "pitch": 76,
            "startTime": 0.5,
            "endTime": 0.625
          },
          {
            "name": "D3",
            "midi": 50,
            "time": 0.625,
            "velocity": 0.7086614173228346,
            "duration": 0.125,
            "frequency": 146.8323839587038,
            "pitch": 50,
            "startTime": 0.625,
            "endTime": 0.75
          },
          {
            "name": "C4",
            "midi": 60,
            "time": 0.75,
            "velocity": 0.7086614173228346,
            "duration": 0.125,
            "frequency": 261.6255653005986,
            "pitch": 60,
            "startTime": 0.75,
            "endTime": 0.875
          },
          {
            "name": "C5",
            "midi": 72,
            "time": 0.875,
            "velocity": 0.7086614173228346,
            "duration": 0.125,
            "frequency": 523.2511306011972,
            "pitch": 72,
            "startTime": 0.875,
            "endTime": 1
          },
          {
            "name": "F#5",
            "midi": 78,
            "time": 1,
            "velocity": 0.7086614173228346,
            "duration": 0.125,
            "frequency": 739.9888454232689,
            "pitch": 76,
            "startTime": 1,
            "endTime": 1.125
          },
          {
            "name": "G4",
            "midi": 67,
            "time": 1.125,
            "velocity": 0.7086614173228346,
            "duration": 0.125,
            "frequency": 391.99543598174927,
            "pitch": 67,
            "startTime": 1.125,
            "endTime": 1.25
          },
          {
            "name": "D4",
            "midi": 62,
            "time": 1.25,
            "velocity": 0.7086614173228346,
            "duration": 0.125,
            "frequency": 293.6647679174076,
            "pitch": 62,
            "startTime": 1.25,
            "endTime": 1.375
          },
          {
            "name": "D3",
            "midi": 50,
            "time": 1.375,
            "velocity": 0.7086614173228346,
            "duration": 0.125,
            "frequency": 146.8323839587038,
            "pitch": 50,
            "startTime": 1.375,
            "endTime": 1.5
          }
        ],
        "controlChanges": {},
        "id": 0,
        "channelNumber": 0,
        "isPercussion": false
      }
    ]
  },
  "betula nigra_chords": {
    "header": {
      "PPQ": 128,
      "bpm": 120,
      "name": ""
    },
    "startTime": 0,
    "duration": 1,
    "tracks": [
      {
        "startTime": 0,
        "duration": 1,
        "length": 11,
        "notes": [
          {
            "name": "C3",
            "midi": 48,
            "time": 0,
            "velocity": 0.7086614173228346,
            "duration": 0.5,
            "frequency": 130.8127826502993,
            "pitch": 48,
            "startTime": 0,
            "endTime": 0.5
          },
          {
            "name": "D#3",
            "midi": 51,
            "time": 0,
            "velocity": 0.7086614173228346,
            "duration": 0.5,
            "frequency": 155.56349186104043,
            "pitch": 51,
            "startTime": 0,
            "endTime": 0.5
          },
          {
            "name": "A3",
            "midi": 57,
            "time": 0,
            "velocity": 0.7086614173228346,
            "duration": 0.5,
            "frequency": 220,
            "pitch": 57,
            "startTime": 0,
            "endTime": 0.5
          },
          {
            "name": "A#3",
            "midi": 58,
            "time": 0,
            "velocity": 0.7086614173228346,
            "duration": 0.5,
            "frequency": 233.08188075904496,
            "pitch": 58,
            "startTime": 0,
            "endTime": 0.5
          },
          {
            "name": "E4",
            "midi": 64,
            "time": 0,
            "velocity": 0.7086614173228346,
            "duration": 0.5,
            "frequency": 329.6275569128699,
            "pitch": 64,
            "startTime": 0,
            "endTime": 0.5
          },
          {
            "name": "C#5",
            "midi": 73,
            "time": 0,
            "velocity": 0.7086614173228346,
            "duration": 0.5,
            "frequency": 554.3652619537442,
            "pitch": 73,
            "startTime": 0,
            "endTime": 0.5
          },
          {
            "name": "F3",
            "midi": 53,
            "time": 0.5,
            "velocity": 0.7086614173228346,
            "duration": 0.5,
            "frequency": 174.61411571650194,
            "pitch": 53,
            "startTime": 0.5,
            "endTime": 1
          },
          {
            "name": "F#3",
            "midi": 54,
            "time": 0.5,
            "velocity": 0.7086614173228346,
            "duration": 0.5,
            "frequency": 184.99721135581723,
            "pitch": 54,
            "startTime": 0.5,
            "endTime": 1
          },
          {
            "name": "D4",
            "midi": 62,
            "time": 0.5,
            "velocity": 0.7086614173228346,
            "duration": 0.5,
            "frequency": 293.6647679174076,
            "pitch": 62,
            "startTime": 0.5,
            "endTime": 1
          },
          {
            "name": "G4",
            "midi": 67,
            "time": 0.5,
            "velocity": 0.7086614173228346,
            "duration": 0.5,
            "frequency": 391.99543598174927,
            "pitch": 67,
            "startTime": 0.5,
            "endTime": 1
          },
          {
            "name": "C#5",
            "midi": 73,
            "time": 0.5,
            "velocity": 0.7086614173228346,
            "duration": 0.5,
            "frequency": 554.3652619537442,
            "pitch": 73,
            "startTime": 0.5,
            "endTime": 1
          }
        ],
        "controlChanges": {},
        "id": 0,
        "channelNumber": 0,
        "isPercussion": false
      }
    ]
  },
  "betula pendula_french": {
    "header": {
      "PPQ": 128,
      "bpm": 120,
      "name": ""
    },
    "startTime": 0,
    "duration": 8.625,
    "tracks": [
      {
        "startTime": 0,
        "duration": 8.625,
        "length": 14,
        "notes": [
          {
            "name": "B4",
            "midi": 71,
            "time": 0,
            "velocity": 0.7086614173228346,
            "duration": 1,
            "frequency": 493.8833012561242,
            "pitch": 71,
            "startTime": 0,
            "endTime": 1
          },
          {
            "name": "E5",
            "midi": 76,
            "time": 1,
            "velocity": 0.7086614173228346,
            "duration": 1,
            "frequency": 659.2551138257398,
            "pitch": 76,
            "startTime": 1,
            "endTime": 2
          },
          {
            "name": "F5",
            "midi": 77,
            "time": 2,
            "velocity": 0.7086614173228346,
            "duration": 0.25,
            "frequency": 698.4564628660078,
            "pitch": 76,
            "startTime": 2,
            "endTime": 2.25
          },
          {
            "name": "G5",
            "midi": 79,
            "time": 2.25,
            "velocity": 0.7086614173228346,
            "duration": 0.25,
            "frequency": 783.9908719634986,
            "pitch": 76,
            "startTime": 2.25,
            "endTime": 2.5
          },
          {
            "name": "E5",
            "midi": 76,
            "time": 2.5,
            "velocity": 0.7086614173228346,
            "duration": 0.5,
            "frequency": 659.2551138257398,
            "pitch": 76,
            "startTime": 2.5,
            "endTime": 3
          },
          {
            "name": "A5",
            "midi": 81,
            "time": 3,
            "velocity": 0.7086614173228346,
            "duration": 1,
            "frequency": 880,
            "pitch": 76,
            "startTime": 3,
            "endTime": 4
          },
          {
            "name": "G5",
            "midi": 79,
            "time": 4,
            "velocity": 0.7086614173228346,
            "duration": 0.125,
            "frequency": 783.9908719634986,
            "pitch": 76,
            "startTime": 4,
            "endTime": 4.125
          },
          {
            "name": "B5",
            "midi": 83,
            "time": 4.125,
            "velocity": 0.7086614173228346,
            "duration": 0.25,
            "frequency": 987.7666025122484,
            "pitch": 76,
            "startTime": 4.125,
            "endTime": 4.375
          },
          {
            "name": "E6",
            "midi": 88,
            "time": 4.375,
            "velocity": 0.7086614173228346,
            "duration": 1,
            "frequency": 1318.5102276514797,
            "pitch": 76,
            "startTime": 4.375,
            "endTime": 5.375
          },
          {
            "name": "G6",
            "midi": 91,
            "time": 5.375,
            "velocity": 0.7086614173228346,
            "duration": 0.5,
            "frequency": 1567.981743926997,
            "pitch": 76,
            "startTime": 5.375,
            "endTime": 5.875
          },
          {
            "name": "D6",
            "midi": 86,
            "time": 5.875,
            "velocity": 0.7086614173228346,
            "duration": 1,
            "frequency": 1174.6590716696303,
            "pitch": 76,
            "startTime": 5.875,
            "endTime": 6.875
          },
          {
            "name": "G6",
            "midi": 91,
            "time": 6.875,
            "velocity": 0.7086614173228346,
            "duration": 0.25,
            "frequency": 1567.981743926997,
            "pitch": 76,
            "startTime": 6.875,
            "endTime": 7.125
          },
          {
            "name": "E6",
            "midi": 88,
            "time": 7.125,
            "velocity": 0.7086614173228346,
            "duration": 0.5,
            "frequency": 1318.5102276514797,
            "pitch": 76,
            "startTime": 7.125,
            "endTime": 7.625
          },
          {
            "name": "A6",
            "midi": 93,
            "time": 7.625,
            "velocity": 0.7086614173228346,
            "duration": 1,
            "frequency": 1760,
            "pitch": 76,
            "startTime": 7.625,
            "endTime": 8.625
          }
        ],
        "controlChanges": {},
        "id": 0,
        "channelNumber": 0,
        "isPercussion": false
      }
    ]
  },
  "betula pendula_keyboard": {
    "header": {
      "PPQ": 128,
      "bpm": 120,
      "name": ""
    },
    "startTime": 0,
    "duration": 1.75,
    "tracks": [
      {
        "startTime": 0,
        "duration": 1.75,
        "length": 14,
        "notes": [
          {
            "name": "G#4",
            "midi": 68,
            "time": 0,
            "velocity": 0.7086614173228346,
            "duration": 0.125,
            "frequency": 415.3046975799451,
            "pitch": 68,
            "startTime": 0,
            "endTime": 0.125
          },
          {
            "name": "A3",
            "midi": 57,
            "time": 0.125,
            "velocity": 0.7086614173228346,
            "duration": 0.125,
            "frequency": 220,
            "pitch": 57,
            "startTime": 0.125,
            "endTime": 0.25
          },
          {
            "name": "F#4",
            "midi": 66,
            "time": 0.25,
            "velocity": 0.7086614173228346,
            "duration": 0.125,
            "frequency": 369.99442271163446,
            "pitch": 66,
            "startTime": 0.25,
            "endTime": 0.375
          },
          {
            "name": "D5",
            "midi": 74,
            "time": 0.375,
            "velocity": 0.7086614173228346,
            "duration": 0.125,
            "frequency": 587.3295358348151,
            "pitch": 74,
            "startTime": 0.375,
            "endTime": 0.5
          },
          {
            "name": "B5",
            "midi": 83,
            "time": 0.5,
            "velocity": 0.7086614173228346,
            "duration": 0.125,
            "frequency": 987.7666025122484,
            "pitch": 76,
            "startTime": 0.5,
            "endTime": 0.625
          },
          {
            "name": "D3",
            "midi": 50,
            "time": 0.625,
            "velocity": 0.7086614173228346,
            "duration": 0.125,
            "frequency": 146.8323839587038,
            "pitch": 50,
            "startTime": 0.625,
            "endTime": 0.75
          },
          {
            "name": "C4",
            "midi": 60,
            "time": 0.75,
            "velocity": 0.7086614173228346,
            "duration": 0.125,
            "frequency": 261.6255653005986,
            "pitch": 60,
            "startTime": 0.75,
            "endTime": 0.875
          },
          {
            "name": "D6",
            "midi": 86,
            "time": 0.875,
            "velocity": 0.7086614173228346,
            "duration": 0.125,
            "frequency": 1174.6590716696303,
            "pitch": 76,
            "startTime": 0.875,
            "endTime": 1
          },
          {
            "name": "A3",
            "midi": 57,
            "time": 1,
            "velocity": 0.7086614173228346,
            "duration": 0.125,
            "frequency": 220,
            "pitch": 57,
            "startTime": 1,
            "endTime": 1.125
          },
          {
            "name": "C5",
            "midi": 72,
            "time": 1.125,
            "velocity": 0.7086614173228346,
            "duration": 0.125,
            "frequency": 523.2511306011972,
            "pitch": 72,
            "startTime": 1.125,
            "endTime": 1.25
          },
          {
            "name": "A#3",
            "midi": 58,
            "time": 1.25,
            "velocity": 0.7086614173228346,
            "duration": 0.125,
            "frequency": 233.08188075904496,
            "pitch": 58,
            "startTime": 1.25,
            "endTime": 1.375
          },
          {
            "name": "D5",
            "midi": 74,
            "time": 1.375,
            "velocity": 0.7086614173228346,
            "duration": 0.125,
            "frequency": 587.3295358348151,
            "pitch": 74,
            "startTime": 1.375,
            "endTime": 1.5
          },
          {
            "name": "B5",
            "midi": 83,
            "time": 1.5,
            "velocity": 0.7086614173228346,
            "duration": 0.125,
            "frequency": 987.7666025122484,
            "pitch": 76,
            "startTime": 1.5,
            "endTime": 1.625
          },
          {
            "name": "D3",
            "midi": 50,
            "time": 1.625,
            "velocity": 0.7086614173228346,
            "duration": 0.125,
            "frequency": 146.8323839587038,
            "pitch": 50,
            "startTime": 1.625,
            "endTime": 1.75
          }
        ],
        "controlChanges": {},
        "id": 0,
        "channelNumber": 0,
        "isPercussion": false
      }
    ]
  },
  "betula pendula_chords": {
    "header": {
      "PPQ": 128,
      "bpm": 120,
      "name": ""
    },
    "startTime": 0,
    "duration": 1,
    "tracks": [
      {
        "startTime": 0,
        "duration": 1,
        "length": 13,
        "notes": [
          {
            "name": "C3",
            "midi": 48,
            "time": 0,
            "velocity": 0.7086614173228346,
            "duration": 0.5,
            "frequency": 130.8127826502993,
            "pitch": 48,
            "startTime": 0,
            "endTime": 0.5
          },
          {
            "name": "D#3",
            "midi": 51,
            "time": 0,
            "velocity": 0.7086614173228346,
            "duration": 0.5,
            "frequency": 155.56349186104043,
            "pitch": 51,
            "startTime": 0,
            "endTime": 0.5
          },
          {
            "name": "A3",
            "midi": 57,
            "time": 0,
            "velocity": 0.7086614173228346,
            "duration": 0.5,
            "frequency": 220,
            "pitch": 57,
            "startTime": 0,
            "endTime": 0.5
          },
          {
            "name": "A#3",
            "midi": 58,
            "time": 0,
            "velocity": 0.7086614173228346,
            "duration": 0.5,
            "frequency": 233.08188075904496,
            "pitch": 58,
            "startTime": 0,
            "endTime": 0.5
          },
          {
            "name": "E4",
            "midi": 64,
            "time": 0,
            "velocity": 0.7086614173228346,
            "duration": 0.5,
            "frequency": 329.6275569128699,
            "pitch": 64,
            "startTime": 0,
            "endTime": 0.5
          },
          {
            "name": "C#5",
            "midi": 73,
            "time": 0,
            "velocity": 0.7086614173228346,
            "duration": 0.5,
            "frequency": 554.3652619537442,
            "pitch": 73,
            "startTime": 0,
            "endTime": 0.5
          },
          {
            "name": "F3",
            "midi": 53,
            "time": 0.5,
            "velocity": 0.7086614173228346,
            "duration": 0.5,
            "frequency": 174.61411571650194,
            "pitch": 53,
            "startTime": 0.5,
            "endTime": 1
          },
          {
            "name": "D#4",
            "midi": 63,
            "time": 0.5,
            "velocity": 0.7086614173228346,
            "duration": 0.5,
            "frequency": 311.12698372208087,
            "pitch": 63,
            "startTime": 0.5,
            "endTime": 1
          },
          {
            "name": "F4",
            "midi": 65,
            "time": 0.5,
            "velocity": 0.7086614173228346,
            "duration": 0.5,
            "frequency": 349.2282314330039,
            "pitch": 65,
            "startTime": 0.5,
            "endTime": 1
          },
          {
            "name": "C5",
            "midi": 72,
            "time": 0.5,
            "velocity": 0.7086614173228346,
            "duration": 0.5,
            "frequency": 523.2511306011972,
            "pitch": 72,
            "startTime": 0.5,
            "endTime": 1
          },
          {
            "name": "A#5",
            "midi": 82,
            "time": 0.5,
            "velocity": 0.7086614173228346,
            "duration": 0.5,
            "frequency": 932.3275230361799,
            "pitch": 76,
            "startTime": 0.5,
            "endTime": 1
          },
          {
            "name": "E6",
            "midi": 88,
            "time": 0.5,
            "velocity": 0.7086614173228346,
            "duration": 0.5,
            "frequency": 1318.5102276514797,
            "pitch": 76,
            "startTime": 0.5,
            "endTime": 1
          },
          {
            "name": "C#7",
            "midi": 97,
            "time": 0.5,
            "velocity": 0.7086614173228346,
            "duration": 0.5,
            "frequency": 2217.461047814977,
            "pitch": 76,
            "startTime": 0.5,
            "endTime": 1
          }
        ],
        "controlChanges": {},
        "id": 0,
        "channelNumber": 0,
        "isPercussion": false
      }
    ]
  },
  "betula pendula dalecarlica_french": {
    "header": {
      "PPQ": 128,
      "bpm": 120,
      "name": ""
    },
    "startTime": 0,
    "duration": 17.5,
    "tracks": [
      {
        "startTime": 0,
        "duration": 17.5,
        "length": 26,
        "notes": [
          {
            "name": "B4",
            "midi": 71,
            "time": 0,
            "velocity": 0.7086614173228346,
            "duration": 1,
            "frequency": 493.8833012561242,
            "pitch": 71,
            "startTime": 0,
            "endTime": 1
          },
          {
            "name": "E5",
            "midi": 76,
            "time": 1,
            "velocity": 0.7086614173228346,
            "duration": 1,
            "frequency": 659.2551138257398,
            "pitch": 76,
            "startTime": 1,
            "endTime": 2
          },
          {
            "name": "F5",
            "midi": 77,
            "time": 2,
            "velocity": 0.7086614173228346,
            "duration": 0.25,
            "frequency": 698.4564628660078,
            "pitch": 76,
            "startTime": 2,
            "endTime": 2.25
          },
          {
            "name": "G5",
            "midi": 79,
            "time": 2.25,
            "velocity": 0.7086614173228346,
            "duration": 0.25,
            "frequency": 783.9908719634986,
            "pitch": 76,
            "startTime": 2.25,
            "endTime": 2.5
          },
          {
            "name": "E5",
            "midi": 76,
            "time": 2.5,
            "velocity": 0.7086614173228346,
            "duration": 0.5,
            "frequency": 659.2551138257398,
            "pitch": 76,
            "startTime": 2.5,
            "endTime": 3
          },
          {
            "name": "A5",
            "midi": 81,
            "time": 3,
            "velocity": 0.7086614173228346,
            "duration": 1,
            "frequency": 880,
            "pitch": 76,
            "startTime": 3,
            "endTime": 4
          },
          {
            "name": "G5",
            "midi": 79,
            "time": 4,
            "velocity": 0.7086614173228346,
            "duration": 0.125,
            "frequency": 783.9908719634986,
            "pitch": 76,
            "startTime": 4,
            "endTime": 4.125
          },
          {
            "name": "B5",
            "midi": 83,
            "time": 4.125,
            "velocity": 0.7086614173228346,
            "duration": 0.25,
            "frequency": 987.7666025122484,
            "pitch": 76,
            "startTime": 4.125,
            "endTime": 4.375
          },
          {
            "name": "E6",
            "midi": 88,
            "time": 4.375,
            "velocity": 0.7086614173228346,
            "duration": 1,
            "frequency": 1318.5102276514797,
            "pitch": 76,
            "startTime": 4.375,
            "endTime": 5.375
          },
          {
            "name": "G6",
            "midi": 91,
            "time": 5.375,
            "velocity": 0.7086614173228346,
            "duration": 0.5,
            "frequency": 1567.981743926997,
            "pitch": 76,
            "startTime": 5.375,
            "endTime": 5.875
          },
          {
            "name": "D6",
            "midi": 86,
            "time": 5.875,
            "velocity": 0.7086614173228346,
            "duration": 1,
            "frequency": 1174.6590716696303,
            "pitch": 76,
            "startTime": 5.875,
            "endTime": 6.875
          },
          {
            "name": "G6",
            "midi": 91,
            "time": 6.875,
            "velocity": 0.7086614173228346,
            "duration": 0.25,
            "frequency": 1567.981743926997,
            "pitch": 76,
            "startTime": 6.875,
            "endTime": 7.125
          },
          {
            "name": "E6",
            "midi": 88,
            "time": 7.125,
            "velocity": 0.7086614173228346,
            "duration": 0.5,
            "frequency": 1318.5102276514797,
            "pitch": 76,
            "startTime": 7.125,
            "endTime": 7.625
          },
          {
            "name": "A6",
            "midi": 93,
            "time": 7.625,
            "velocity": 0.7086614173228346,
            "duration": 1,
            "frequency": 1760,
            "pitch": 76,
            "startTime": 7.625,
            "endTime": 8.625
          },
          {
            "name": "G6",
            "midi": 91,
            "time": 8.625,
            "velocity": 0.7086614173228346,
            "duration": 0.125,
            "frequency": 1567.981743926997,
            "pitch": 76,
            "startTime": 8.625,
            "endTime": 8.75
          },
          {
            "name": "D6",
            "midi": 86,
            "time": 8.75,
            "velocity": 0.7086614173228346,
            "duration": 1,
            "frequency": 1174.6590716696303,
            "pitch": 76,
            "startTime": 8.75,
            "endTime": 9.75
          },
          {
            "name": "A5",
            "midi": 81,
            "time": 9.75,
            "velocity": 0.7086614173228346,
            "duration": 1,
            "frequency": 880,
            "pitch": 76,
            "startTime": 9.75,
            "endTime": 10.75
          },
          {
            "name": "E5",
            "midi": 76,
            "time": 10.75,
            "velocity": 0.7086614173228346,
            "duration": 0.5,
            "frequency": 659.2551138257398,
            "pitch": 76,
            "startTime": 10.75,
            "endTime": 11.25
          },
          {
            "name": "E5",
            "midi": 76,
            "time": 11.25,
            "velocity": 0.7086614173228346,
            "duration": 1,
            "frequency": 659.2551138257398,
            "pitch": 76,
            "startTime": 11.25,
            "endTime": 12.25
          },
          {
            "name": "C5",
            "midi": 72,
            "time": 12.25,
            "velocity": 0.7086614173228346,
            "duration": 1,
            "frequency": 523.2511306011972,
            "pitch": 72,
            "startTime": 12.25,
            "endTime": 13.25
          },
          {
            "name": "A4",
            "midi": 69,
            "time": 13.25,
            "velocity": 0.7086614173228346,
            "duration": 1,
            "frequency": 440,
            "pitch": 69,
            "startTime": 13.25,
            "endTime": 14.25
          },
          {
            "name": "D5",
            "midi": 74,
            "time": 14.25,
            "velocity": 0.7086614173228346,
            "duration": 0.25,
            "frequency": 587.3295358348151,
            "pitch": 74,
            "startTime": 14.25,
            "endTime": 14.5
          },
          {
            "name": "E5",
            "midi": 76,
            "time": 14.5,
            "velocity": 0.7086614173228346,
            "duration": 0.5,
            "frequency": 659.2551138257398,
            "pitch": 76,
            "startTime": 14.5,
            "endTime": 15
          },
          {
            "name": "B4",
            "midi": 71,
            "time": 15,
            "velocity": 0.7086614173228346,
            "duration": 0.5,
            "frequency": 493.8833012561242,
            "pitch": 71,
            "startTime": 15,
            "endTime": 15.5
          },
          {
            "name": "C5",
            "midi": 72,
            "time": 15.5,
            "velocity": 0.7086614173228346,
            "duration": 1,
            "frequency": 523.2511306011972,
            "pitch": 72,
            "startTime": 15.5,
            "endTime": 16.5
          },
          {
            "name": "A4",
            "midi": 69,
            "time": 16.5,
            "velocity": 0.7086614173228346,
            "duration": 1,
            "frequency": 440,
            "pitch": 69,
            "startTime": 16.5,
            "endTime": 17.5
          }
        ],
        "controlChanges": {},
        "id": 0,
        "channelNumber": 0,
        "isPercussion": false
      }
    ]
  },
  "betula pendula dalecarlica_keyboard": {
    "header": {
      "PPQ": 128,
      "bpm": 120,
      "name": ""
    },
    "startTime": 0,
    "duration": 3.25,
    "tracks": [
      {
        "startTime": 0,
        "duration": 3.25,
        "length": 26,
        "notes": [
          {
            "name": "G#4",
            "midi": 68,
            "time": 0,
            "velocity": 0.7086614173228346,
            "duration": 0.125,
            "frequency": 415.3046975799451,
            "pitch": 68,
            "startTime": 0,
            "endTime": 0.125
          },
          {
            "name": "A3",
            "midi": 57,
            "time": 0.125,
            "velocity": 0.7086614173228346,
            "duration": 0.125,
            "frequency": 220,
            "pitch": 57,
            "startTime": 0.125,
            "endTime": 0.25
          },
          {
            "name": "F#4",
            "midi": 66,
            "time": 0.25,
            "velocity": 0.7086614173228346,
            "duration": 0.125,
            "frequency": 369.99442271163446,
            "pitch": 66,
            "startTime": 0.25,
            "endTime": 0.375
          },
          {
            "name": "D5",
            "midi": 74,
            "time": 0.375,
            "velocity": 0.7086614173228346,
            "duration": 0.125,
            "frequency": 587.3295358348151,
            "pitch": 74,
            "startTime": 0.375,
            "endTime": 0.5
          },
          {
            "name": "B5",
            "midi": 83,
            "time": 0.5,
            "velocity": 0.7086614173228346,
            "duration": 0.125,
            "frequency": 987.7666025122484,
            "pitch": 76,
            "startTime": 0.5,
            "endTime": 0.625
          },
          {
            "name": "D3",
            "midi": 50,
            "time": 0.625,
            "velocity": 0.7086614173228346,
            "duration": 0.125,
            "frequency": 146.8323839587038,
            "pitch": 50,
            "startTime": 0.625,
            "endTime": 0.75
          },
          {
            "name": "C4",
            "midi": 60,
            "time": 0.75,
            "velocity": 0.7086614173228346,
            "duration": 0.125,
            "frequency": 261.6255653005986,
            "pitch": 60,
            "startTime": 0.75,
            "endTime": 0.875
          },
          {
            "name": "D6",
            "midi": 86,
            "time": 0.875,
            "velocity": 0.7086614173228346,
            "duration": 0.125,
            "frequency": 1174.6590716696303,
            "pitch": 76,
            "startTime": 0.875,
            "endTime": 1
          },
          {
            "name": "A3",
            "midi": 57,
            "time": 1,
            "velocity": 0.7086614173228346,
            "duration": 0.125,
            "frequency": 220,
            "pitch": 57,
            "startTime": 1,
            "endTime": 1.125
          },
          {
            "name": "C5",
            "midi": 72,
            "time": 1.125,
            "velocity": 0.7086614173228346,
            "duration": 0.125,
            "frequency": 523.2511306011972,
            "pitch": 72,
            "startTime": 1.125,
            "endTime": 1.25
          },
          {
            "name": "A#3",
            "midi": 58,
            "time": 1.25,
            "velocity": 0.7086614173228346,
            "duration": 0.125,
            "frequency": 233.08188075904496,
            "pitch": 58,
            "startTime": 1.25,
            "endTime": 1.375
          },
          {
            "name": "D5",
            "midi": 74,
            "time": 1.375,
            "velocity": 0.7086614173228346,
            "duration": 0.125,
            "frequency": 587.3295358348151,
            "pitch": 74,
            "startTime": 1.375,
            "endTime": 1.5
          },
          {
            "name": "B5",
            "midi": 83,
            "time": 1.5,
            "velocity": 0.7086614173228346,
            "duration": 0.125,
            "frequency": 987.7666025122484,
            "pitch": 76,
            "startTime": 1.5,
            "endTime": 1.625
          },
          {
            "name": "D3",
            "midi": 50,
            "time": 1.625,
            "velocity": 0.7086614173228346,
            "duration": 0.125,
            "frequency": 146.8323839587038,
            "pitch": 50,
            "startTime": 1.625,
            "endTime": 1.75
          },
          {
            "name": "C4",
            "midi": 60,
            "time": 1.75,
            "velocity": 0.7086614173228346,
            "duration": 0.125,
            "frequency": 261.6255653005986,
            "pitch": 60,
            "startTime": 1.75,
            "endTime": 1.875
          },
          {
            "name": "A#3",
            "midi": 58,
            "time": 1.875,
            "velocity": 0.7086614173228346,
            "duration": 0.125,
            "frequency": 233.08188075904496,
            "pitch": 58,
            "startTime": 1.875,
            "endTime": 2
          },
          {
            "name": "D3",
            "midi": 50,
            "time": 2,
            "velocity": 0.7086614173228346,
            "duration": 0.125,
            "frequency": 146.8323839587038,
            "pitch": 50,
            "startTime": 2,
            "endTime": 2.125
          },
          {
            "name": "B5",
            "midi": 83,
            "time": 2.125,
            "velocity": 0.7086614173228346,
            "duration": 0.125,
            "frequency": 987.7666025122484,
            "pitch": 76,
            "startTime": 2.125,
            "endTime": 2.25
          },
          {
            "name": "A3",
            "midi": 57,
            "time": 2.25,
            "velocity": 0.7086614173228346,
            "duration": 0.125,
            "frequency": 220,
            "pitch": 57,
            "startTime": 2.25,
            "endTime": 2.375
          },
          {
            "name": "B3",
            "midi": 59,
            "time": 2.375,
            "velocity": 0.7086614173228346,
            "duration": 0.125,
            "frequency": 246.9416506280621,
            "pitch": 59,
            "startTime": 2.375,
            "endTime": 2.5
          },
          {
            "name": "D3",
            "midi": 50,
            "time": 2.5,
            "velocity": 0.7086614173228346,
            "duration": 0.125,
            "frequency": 146.8323839587038,
            "pitch": 50,
            "startTime": 2.5,
            "endTime": 2.625
          },
          {
            "name": "D4",
            "midi": 62,
            "time": 2.625,
            "velocity": 0.7086614173228346,
            "duration": 0.125,
            "frequency": 293.6647679174076,
            "pitch": 62,
            "startTime": 2.625,
            "endTime": 2.75
          },
          {
            "name": "B5",
            "midi": 83,
            "time": 2.75,
            "velocity": 0.7086614173228346,
            "duration": 0.125,
            "frequency": 987.7666025122484,
            "pitch": 76,
            "startTime": 2.75,
            "endTime": 2.875
          },
          {
            "name": "F#5",
            "midi": 78,
            "time": 2.875,
            "velocity": 0.7086614173228346,
            "duration": 0.125,
            "frequency": 739.9888454232689,
            "pitch": 76,
            "startTime": 2.875,
            "endTime": 3
          },
          {
            "name": "B3",
            "midi": 59,
            "time": 3,
            "velocity": 0.7086614173228346,
            "duration": 0.125,
            "frequency": 246.9416506280621,
            "pitch": 59,
            "startTime": 3,
            "endTime": 3.125
          },
          {
            "name": "D3",
            "midi": 50,
            "time": 3.125,
            "velocity": 0.7086614173228346,
            "duration": 0.125,
            "frequency": 146.8323839587038,
            "pitch": 50,
            "startTime": 3.125,
            "endTime": 3.25
          }
        ],
        "controlChanges": {},
        "id": 0,
        "channelNumber": 0,
        "isPercussion": false
      }
    ]
  },
  "betula pendula dalecarlica_chords": {
    "header": {
      "PPQ": 128,
      "bpm": 120,
      "name": ""
    },
    "startTime": 0,
    "duration": 1.5,
    "tracks": [
      {
        "startTime": 0,
        "duration": 1.5,
        "length": 24,
        "notes": [
          {
            "name": "C3",
            "midi": 48,
            "time": 0,
            "velocity": 0.7086614173228346,
            "duration": 0.5,
            "frequency": 130.8127826502993,
            "pitch": 48,
            "startTime": 0,
            "endTime": 0.5
          },
          {
            "name": "D#3",
            "midi": 51,
            "time": 0,
            "velocity": 0.7086614173228346,
            "duration": 0.5,
            "frequency": 155.56349186104043,
            "pitch": 51,
            "startTime": 0,
            "endTime": 0.5
          },
          {
            "name": "A3",
            "midi": 57,
            "time": 0,
            "velocity": 0.7086614173228346,
            "duration": 0.5,
            "frequency": 220,
            "pitch": 57,
            "startTime": 0,
            "endTime": 0.5
          },
          {
            "name": "A#3",
            "midi": 58,
            "time": 0,
            "velocity": 0.7086614173228346,
            "duration": 0.5,
            "frequency": 233.08188075904496,
            "pitch": 58,
            "startTime": 0,
            "endTime": 0.5
          },
          {
            "name": "E4",
            "midi": 64,
            "time": 0,
            "velocity": 0.7086614173228346,
            "duration": 0.5,
            "frequency": 329.6275569128699,
            "pitch": 64,
            "startTime": 0,
            "endTime": 0.5
          },
          {
            "name": "C#5",
            "midi": 73,
            "time": 0,
            "velocity": 0.7086614173228346,
            "duration": 0.5,
            "frequency": 554.3652619537442,
            "pitch": 73,
            "startTime": 0,
            "endTime": 0.5
          },
          {
            "name": "F3",
            "midi": 53,
            "time": 0.5,
            "velocity": 0.7086614173228346,
            "duration": 0.5,
            "frequency": 174.61411571650194,
            "pitch": 53,
            "startTime": 0.5,
            "endTime": 1
          },
          {
            "name": "D#4",
            "midi": 63,
            "time": 0.5,
            "velocity": 0.7086614173228346,
            "duration": 0.5,
            "frequency": 311.12698372208087,
            "pitch": 63,
            "startTime": 0.5,
            "endTime": 1
          },
          {
            "name": "F4",
            "midi": 65,
            "time": 0.5,
            "velocity": 0.7086614173228346,
            "duration": 0.5,
            "frequency": 349.2282314330039,
            "pitch": 65,
            "startTime": 0.5,
            "endTime": 1
          },
          {
            "name": "C5",
            "midi": 72,
            "time": 0.5,
            "velocity": 0.7086614173228346,
            "duration": 0.5,
            "frequency": 523.2511306011972,
            "pitch": 72,
            "startTime": 0.5,
            "endTime": 1
          },
          {
            "name": "A#5",
            "midi": 82,
            "time": 0.5,
            "velocity": 0.7086614173228346,
            "duration": 0.5,
            "frequency": 932.3275230361799,
            "pitch": 76,
            "startTime": 0.5,
            "endTime": 1
          },
          {
            "name": "E6",
            "midi": 88,
            "time": 0.5,
            "velocity": 0.7086614173228346,
            "duration": 0.5,
            "frequency": 1318.5102276514797,
            "pitch": 76,
            "startTime": 0.5,
            "endTime": 1
          },
          {
            "name": "C#7",
            "midi": 97,
            "time": 0.5,
            "velocity": 0.7086614173228346,
            "duration": 0.5,
            "frequency": 2217.461047814977,
            "pitch": 76,
            "startTime": 0.5,
            "endTime": 1
          },
          {
            "name": "C3",
            "midi": 48,
            "time": 1,
            "velocity": 0.7086614173228346,
            "duration": 0.5,
            "frequency": 130.8127826502993,
            "pitch": 48,
            "startTime": 1,
            "endTime": 1.5
          },
          {
            "name": "C#3",
            "midi": 49,
            "time": 1,
            "velocity": 0.7086614173228346,
            "duration": 0.5,
            "frequency": 138.59131548843604,
            "pitch": 49,
            "startTime": 1,
            "endTime": 1.5
          },
          {
            "name": "E3",
            "midi": 52,
            "time": 1,
            "velocity": 0.7086614173228346,
            "duration": 0.5,
            "frequency": 164.81377845643496,
            "pitch": 52,
            "startTime": 1,
            "endTime": 1.5
          },
          {
            "name": "D#4",
            "midi": 63,
            "time": 1,
            "velocity": 0.7086614173228346,
            "duration": 0.5,
            "frequency": 311.12698372208087,
            "pitch": 63,
            "startTime": 1,
            "endTime": 1.5
          },
          {
            "name": "C5",
            "midi": 72,
            "time": 1,
            "velocity": 0.7086614173228346,
            "duration": 0.5,
            "frequency": 523.2511306011972,
            "pitch": 72,
            "startTime": 1,
            "endTime": 1.5
          },
          {
            "name": "C#5",
            "midi": 73,
            "time": 1,
            "velocity": 0.7086614173228346,
            "duration": 0.5,
            "frequency": 554.3652619537442,
            "pitch": 73,
            "startTime": 1,
            "endTime": 1.5
          },
          {
            "name": "G5",
            "midi": 79,
            "time": 1,
            "velocity": 0.7086614173228346,
            "duration": 0.5,
            "frequency": 783.9908719634986,
            "pitch": 76,
            "startTime": 1,
            "endTime": 1.5
          },
          {
            "name": "E6",
            "midi": 88,
            "time": 1,
            "velocity": 0.7086614173228346,
            "duration": 0.5,
            "frequency": 1318.5102276514797,
            "pitch": 76,
            "startTime": 1,
            "endTime": 1.5
          },
          {
            "name": "F#6",
            "midi": 90,
            "time": 1,
            "velocity": 0.7086614173228346,
            "duration": 0.5,
            "frequency": 1479.9776908465378,
            "pitch": 76,
            "startTime": 1,
            "endTime": 1.5
          },
          {
            "name": "C7",
            "midi": 96,
            "time": 1,
            "velocity": 0.7086614173228346,
            "duration": 0.5,
            "frequency": 2093.004522404789,
            "pitch": 76,
            "startTime": 1,
            "endTime": 1.5
          },
          {
            "name": "C#7",
            "midi": 97,
            "time": 1,
            "velocity": 0.7086614173228346,
            "duration": 0.5,
            "frequency": 2217.461047814977,
            "pitch": 76,
            "startTime": 1,
            "endTime": 1.5
          }
        ],
        "controlChanges": {},
        "id": 0,
        "channelNumber": 0,
        "isPercussion": false
      }
    ]
  },
  "betula utilis_french": {
    "header": {
      "PPQ": 128,
      "bpm": 120,
      "name": ""
    },
    "startTime": 0,
    "duration": 6.375,
    "tracks": [
      {
        "startTime": 0,
        "duration": 6.375,
        "length": 13,
        "notes": [
          {
            "name": "B4",
            "midi": 71,
            "time": 0,
            "velocity": 0.7086614173228346,
            "duration": 1,
            "frequency": 493.8833012561242,
            "pitch": 71,
            "startTime": 0,
            "endTime": 1
          },
          {
            "name": "E5",
            "midi": 76,
            "time": 1,
            "velocity": 0.7086614173228346,
            "duration": 1,
            "frequency": 659.2551138257398,
            "pitch": 76,
            "startTime": 1,
            "endTime": 2
          },
          {
            "name": "F5",
            "midi": 77,
            "time": 2,
            "velocity": 0.7086614173228346,
            "duration": 0.25,
            "frequency": 698.4564628660078,
            "pitch": 76,
            "startTime": 2,
            "endTime": 2.25
          },
          {
            "name": "G5",
            "midi": 79,
            "time": 2.25,
            "velocity": 0.7086614173228346,
            "duration": 0.25,
            "frequency": 783.9908719634986,
            "pitch": 76,
            "startTime": 2.25,
            "endTime": 2.5
          },
          {
            "name": "E5",
            "midi": 76,
            "time": 2.5,
            "velocity": 0.7086614173228346,
            "duration": 0.5,
            "frequency": 659.2551138257398,
            "pitch": 76,
            "startTime": 2.5,
            "endTime": 3
          },
          {
            "name": "A5",
            "midi": 81,
            "time": 3,
            "velocity": 0.7086614173228346,
            "duration": 1,
            "frequency": 880,
            "pitch": 76,
            "startTime": 3,
            "endTime": 4
          },
          {
            "name": "G5",
            "midi": 79,
            "time": 4,
            "velocity": 0.7086614173228346,
            "duration": 0.125,
            "frequency": 783.9908719634986,
            "pitch": 76,
            "startTime": 4,
            "endTime": 4.125
          },
          {
            "name": "G5",
            "midi": 79,
            "time": 4.125,
            "velocity": 0.7086614173228346,
            "duration": 0.25,
            "frequency": 783.9908719634986,
            "pitch": 76,
            "startTime": 4.125,
            "endTime": 4.375
          },
          {
            "name": "F5",
            "midi": 77,
            "time": 4.375,
            "velocity": 0.7086614173228346,
            "duration": 0.25,
            "frequency": 698.4564628660078,
            "pitch": 76,
            "startTime": 4.375,
            "endTime": 4.625
          },
          {
            "name": "B5",
            "midi": 83,
            "time": 4.625,
            "velocity": 0.7086614173228346,
            "duration": 0.5,
            "frequency": 987.7666025122484,
            "pitch": 76,
            "startTime": 4.625,
            "endTime": 5.125
          },
          {
            "name": "E6",
            "midi": 88,
            "time": 5.125,
            "velocity": 0.7086614173228346,
            "duration": 0.5,
            "frequency": 1318.5102276514797,
            "pitch": 76,
            "startTime": 5.125,
            "endTime": 5.625
          },
          {
            "name": "B5",
            "midi": 83,
            "time": 5.625,
            "velocity": 0.7086614173228346,
            "duration": 0.5,
            "frequency": 987.7666025122484,
            "pitch": 76,
            "startTime": 5.625,
            "endTime": 6.125
          },
          {
            "name": "E6",
            "midi": 88,
            "time": 6.125,
            "velocity": 0.7086614173228346,
            "duration": 0.25,
            "frequency": 1318.5102276514797,
            "pitch": 76,
            "startTime": 6.125,
            "endTime": 6.375
          }
        ],
        "controlChanges": {},
        "id": 0,
        "channelNumber": 0,
        "isPercussion": false
      }
    ]
  },
  "betula utilis_keyboard": {
    "header": {
      "PPQ": 128,
      "bpm": 120,
      "name": ""
    },
    "startTime": 0,
    "duration": 1.625,
    "tracks": [
      {
        "startTime": 0,
        "duration": 1.625,
        "length": 13,
        "notes": [
          {
            "name": "G#4",
            "midi": 68,
            "time": 0,
            "velocity": 0.7086614173228346,
            "duration": 0.125,
            "frequency": 415.3046975799451,
            "pitch": 68,
            "startTime": 0,
            "endTime": 0.125
          },
          {
            "name": "A3",
            "midi": 57,
            "time": 0.125,
            "velocity": 0.7086614173228346,
            "duration": 0.125,
            "frequency": 220,
            "pitch": 57,
            "startTime": 0.125,
            "endTime": 0.25
          },
          {
            "name": "F#4",
            "midi": 66,
            "time": 0.25,
            "velocity": 0.7086614173228346,
            "duration": 0.125,
            "frequency": 369.99442271163446,
            "pitch": 66,
            "startTime": 0.25,
            "endTime": 0.375
          },
          {
            "name": "D5",
            "midi": 74,
            "time": 0.375,
            "velocity": 0.7086614173228346,
            "duration": 0.125,
            "frequency": 587.3295358348151,
            "pitch": 74,
            "startTime": 0.375,
            "endTime": 0.5
          },
          {
            "name": "B5",
            "midi": 83,
            "time": 0.5,
            "velocity": 0.7086614173228346,
            "duration": 0.125,
            "frequency": 987.7666025122484,
            "pitch": 76,
            "startTime": 0.5,
            "endTime": 0.625
          },
          {
            "name": "D3",
            "midi": 50,
            "time": 0.625,
            "velocity": 0.7086614173228346,
            "duration": 0.125,
            "frequency": 146.8323839587038,
            "pitch": 50,
            "startTime": 0.625,
            "endTime": 0.75
          },
          {
            "name": "C4",
            "midi": 60,
            "time": 0.75,
            "velocity": 0.7086614173228346,
            "duration": 0.125,
            "frequency": 261.6255653005986,
            "pitch": 60,
            "startTime": 0.75,
            "endTime": 0.875
          },
          {
            "name": "D5",
            "midi": 74,
            "time": 0.875,
            "velocity": 0.7086614173228346,
            "duration": 0.125,
            "frequency": 587.3295358348151,
            "pitch": 74,
            "startTime": 0.875,
            "endTime": 1
          },
          {
            "name": "F#4",
            "midi": 66,
            "time": 1,
            "velocity": 0.7086614173228346,
            "duration": 0.125,
            "frequency": 369.99442271163446,
            "pitch": 66,
            "startTime": 1,
            "endTime": 1.125
          },
          {
            "name": "F#5",
            "midi": 78,
            "time": 1.125,
            "velocity": 0.7086614173228346,
            "duration": 0.125,
            "frequency": 739.9888454232689,
            "pitch": 76,
            "startTime": 1.125,
            "endTime": 1.25
          },
          {
            "name": "B5",
            "midi": 83,
            "time": 1.25,
            "velocity": 0.7086614173228346,
            "duration": 0.125,
            "frequency": 987.7666025122484,
            "pitch": 76,
            "startTime": 1.25,
            "endTime": 1.375
          },
          {
            "name": "F#5",
            "midi": 78,
            "time": 1.375,
            "velocity": 0.7086614173228346,
            "duration": 0.125,
            "frequency": 739.9888454232689,
            "pitch": 76,
            "startTime": 1.375,
            "endTime": 1.5
          },
          {
            "name": "F#3",
            "midi": 54,
            "time": 1.5,
            "velocity": 0.7086614173228346,
            "duration": 0.125,
            "frequency": 184.99721135581723,
            "pitch": 54,
            "startTime": 1.5,
            "endTime": 1.625
          }
        ],
        "controlChanges": {},
        "id": 0,
        "channelNumber": 0,
        "isPercussion": false
      }
    ]
  },
  "betula utilis_chords": {
    "header": {
      "PPQ": 128,
      "bpm": 120,
      "name": ""
    },
    "startTime": 0,
    "duration": 1,
    "tracks": [
      {
        "startTime": 0,
        "duration": 1,
        "length": 12,
        "notes": [
          {
            "name": "C3",
            "midi": 48,
            "time": 0,
            "velocity": 0.7086614173228346,
            "duration": 0.5,
            "frequency": 130.8127826502993,
            "pitch": 48,
            "startTime": 0,
            "endTime": 0.5
          },
          {
            "name": "D#3",
            "midi": 51,
            "time": 0,
            "velocity": 0.7086614173228346,
            "duration": 0.5,
            "frequency": 155.56349186104043,
            "pitch": 51,
            "startTime": 0,
            "endTime": 0.5
          },
          {
            "name": "A3",
            "midi": 57,
            "time": 0,
            "velocity": 0.7086614173228346,
            "duration": 0.5,
            "frequency": 220,
            "pitch": 57,
            "startTime": 0,
            "endTime": 0.5
          },
          {
            "name": "A#3",
            "midi": 58,
            "time": 0,
            "velocity": 0.7086614173228346,
            "duration": 0.5,
            "frequency": 233.08188075904496,
            "pitch": 58,
            "startTime": 0,
            "endTime": 0.5
          },
          {
            "name": "E4",
            "midi": 64,
            "time": 0,
            "velocity": 0.7086614173228346,
            "duration": 0.5,
            "frequency": 329.6275569128699,
            "pitch": 64,
            "startTime": 0,
            "endTime": 0.5
          },
          {
            "name": "C#5",
            "midi": 73,
            "time": 0,
            "velocity": 0.7086614173228346,
            "duration": 0.5,
            "frequency": 554.3652619537442,
            "pitch": 73,
            "startTime": 0,
            "endTime": 0.5
          },
          {
            "name": "A#3",
            "midi": 58,
            "time": 0.5,
            "velocity": 0.7086614173228346,
            "duration": 0.5,
            "frequency": 233.08188075904496,
            "pitch": 58,
            "startTime": 0.5,
            "endTime": 1
          },
          {
            "name": "A4",
            "midi": 69,
            "time": 0.5,
            "velocity": 0.7086614173228346,
            "duration": 0.5,
            "frequency": 440,
            "pitch": 69,
            "startTime": 0.5,
            "endTime": 1
          },
          {
            "name": "F#5",
            "midi": 78,
            "time": 0.5,
            "velocity": 0.7086614173228346,
            "duration": 0.5,
            "frequency": 739.9888454232689,
            "pitch": 76,
            "startTime": 0.5,
            "endTime": 1
          },
          {
            "name": "E6",
            "midi": 88,
            "time": 0.5,
            "velocity": 0.7086614173228346,
            "duration": 0.5,
            "frequency": 1318.5102276514797,
            "pitch": 76,
            "startTime": 0.5,
            "endTime": 1
          },
          {
            "name": "F#6",
            "midi": 90,
            "time": 0.5,
            "velocity": 0.7086614173228346,
            "duration": 0.5,
            "frequency": 1479.9776908465378,
            "pitch": 76,
            "startTime": 0.5,
            "endTime": 1
          },
          {
            "name": "G6",
            "midi": 91,
            "time": 0.5,
            "velocity": 0.7086614173228346,
            "duration": 0.5,
            "frequency": 1567.981743926997,
            "pitch": 76,
            "startTime": 0.5,
            "endTime": 1
          }
        ],
        "controlChanges": {},
        "id": 0,
        "channelNumber": 0,
        "isPercussion": false
      }
    ]
  },
  "carpinus betulus_french": {
    "header": {
      "PPQ": 128,
      "bpm": 120,
      "name": ""
    },
    "startTime": 0,
    "duration": 7.625,
    "tracks": [
      {
        "startTime": 0,
        "duration": 7.625,
        "length": 16,
        "notes": [
          {
            "name": "C5",
            "midi": 72,
            "time": 0,
            "velocity": 0.7086614173228346,
            "duration": 1,
            "frequency": 523.2511306011972,
            "pitch": 72,
            "startTime": 0,
            "endTime": 1
          },
          {
            "name": "A4",
            "midi": 69,
            "time": 1,
            "velocity": 0.7086614173228346,
            "duration": 1,
            "frequency": 440,
            "pitch": 69,
            "startTime": 1,
            "endTime": 2
          },
          {
            "name": "D5",
            "midi": 74,
            "time": 2,
            "velocity": 0.7086614173228346,
            "duration": 0.25,
            "frequency": 587.3295358348151,
            "pitch": 74,
            "startTime": 2,
            "endTime": 2.25
          },
          {
            "name": "B4",
            "midi": 71,
            "time": 2.25,
            "velocity": 0.7086614173228346,
            "duration": 0.25,
            "frequency": 493.8833012561242,
            "pitch": 71,
            "startTime": 2.25,
            "endTime": 2.5
          },
          {
            "name": "B4",
            "midi": 71,
            "time": 2.5,
            "velocity": 0.7086614173228346,
            "duration": 0.5,
            "frequency": 493.8833012561242,
            "pitch": 71,
            "startTime": 2.5,
            "endTime": 3
          },
          {
            "name": "G4",
            "midi": 67,
            "time": 3,
            "velocity": 0.7086614173228346,
            "duration": 0.5,
            "frequency": 391.99543598174927,
            "pitch": 67,
            "startTime": 3,
            "endTime": 3.5
          },
          {
            "name": "G4",
            "midi": 67,
            "time": 3.5,
            "velocity": 0.7086614173228346,
            "duration": 0.25,
            "frequency": 391.99543598174927,
            "pitch": 67,
            "startTime": 3.5,
            "endTime": 3.75
          },
          {
            "name": "E4",
            "midi": 64,
            "time": 3.75,
            "velocity": 0.7086614173228346,
            "duration": 0.25,
            "frequency": 329.6275569128699,
            "pitch": 64,
            "startTime": 3.75,
            "endTime": 4
          },
          {
            "name": "G4",
            "midi": 67,
            "time": 4,
            "velocity": 0.7086614173228346,
            "duration": 0.125,
            "frequency": 391.99543598174927,
            "pitch": 67,
            "startTime": 4,
            "endTime": 4.125
          },
          {
            "name": "B4",
            "midi": 71,
            "time": 4.125,
            "velocity": 0.7086614173228346,
            "duration": 1,
            "frequency": 493.8833012561242,
            "pitch": 71,
            "startTime": 4.125,
            "endTime": 5.125
          },
          {
            "name": "E5",
            "midi": 76,
            "time": 5.125,
            "velocity": 0.7086614173228346,
            "duration": 1,
            "frequency": 659.2551138257398,
            "pitch": 76,
            "startTime": 5.125,
            "endTime": 6.125
          },
          {
            "name": "F5",
            "midi": 77,
            "time": 6.125,
            "velocity": 0.7086614173228346,
            "duration": 0.25,
            "frequency": 698.4564628660078,
            "pitch": 76,
            "startTime": 6.125,
            "endTime": 6.375
          },
          {
            "name": "G5",
            "midi": 79,
            "time": 6.375,
            "velocity": 0.7086614173228346,
            "duration": 0.25,
            "frequency": 783.9908719634986,
            "pitch": 76,
            "startTime": 6.375,
            "endTime": 6.625
          },
          {
            "name": "E5",
            "midi": 76,
            "time": 6.625,
            "velocity": 0.7086614173228346,
            "duration": 0.5,
            "frequency": 659.2551138257398,
            "pitch": 76,
            "startTime": 6.625,
            "endTime": 7.125
          },
          {
            "name": "G5",
            "midi": 79,
            "time": 7.125,
            "velocity": 0.7086614173228346,
            "duration": 0.25,
            "frequency": 783.9908719634986,
            "pitch": 76,
            "startTime": 7.125,
            "endTime": 7.375
          },
          {
            "name": "E5",
            "midi": 76,
            "time": 7.375,
            "velocity": 0.7086614173228346,
            "duration": 0.25,
            "frequency": 659.2551138257398,
            "pitch": 76,
            "startTime": 7.375,
            "endTime": 7.625
          }
        ],
        "controlChanges": {},
        "id": 0,
        "channelNumber": 0,
        "isPercussion": false
      }
    ]
  },
  "carpinus betulus_keyboard": {
    "header": {
      "PPQ": 128,
      "bpm": 120,
      "name": ""
    },
    "startTime": 0,
    "duration": 2,
    "tracks": [
      {
        "startTime": 0,
        "duration": 2,
        "length": 16,
        "notes": [
          {
            "name": "B3",
            "midi": 59,
            "time": 0,
            "velocity": 0.7086614173228346,
            "duration": 0.125,
            "frequency": 246.9416506280621,
            "pitch": 59,
            "startTime": 0,
            "endTime": 0.125
          },
          {
            "name": "D3",
            "midi": 50,
            "time": 0.125,
            "velocity": 0.7086614173228346,
            "duration": 0.125,
            "frequency": 146.8323839587038,
            "pitch": 50,
            "startTime": 0.125,
            "endTime": 0.25
          },
          {
            "name": "D4",
            "midi": 62,
            "time": 0.25,
            "velocity": 0.7086614173228346,
            "duration": 0.125,
            "frequency": 293.6647679174076,
            "pitch": 62,
            "startTime": 0.25,
            "endTime": 0.375
          },
          {
            "name": "D6",
            "midi": 86,
            "time": 0.375,
            "velocity": 0.7086614173228346,
            "duration": 0.125,
            "frequency": 1174.6590716696303,
            "pitch": 76,
            "startTime": 0.375,
            "endTime": 0.5
          },
          {
            "name": "F#5",
            "midi": 78,
            "time": 0.5,
            "velocity": 0.7086614173228346,
            "duration": 0.125,
            "frequency": 739.9888454232689,
            "pitch": 76,
            "startTime": 0.5,
            "endTime": 0.625
          },
          {
            "name": "C5",
            "midi": 72,
            "time": 0.625,
            "velocity": 0.7086614173228346,
            "duration": 0.125,
            "frequency": 523.2511306011972,
            "pitch": 72,
            "startTime": 0.625,
            "endTime": 0.75
          },
          {
            "name": "D5",
            "midi": 74,
            "time": 0.75,
            "velocity": 0.7086614173228346,
            "duration": 0.125,
            "frequency": 587.3295358348151,
            "pitch": 74,
            "startTime": 0.75,
            "endTime": 0.875
          },
          {
            "name": "F#3",
            "midi": 54,
            "time": 0.875,
            "velocity": 0.7086614173228346,
            "duration": 0.125,
            "frequency": 184.99721135581723,
            "pitch": 54,
            "startTime": 0.875,
            "endTime": 1
          },
          {
            "name": "C4",
            "midi": 60,
            "time": 1,
            "velocity": 0.7086614173228346,
            "duration": 0.125,
            "frequency": 261.6255653005986,
            "pitch": 60,
            "startTime": 1,
            "endTime": 1.125
          },
          {
            "name": "G#4",
            "midi": 68,
            "time": 1.125,
            "velocity": 0.7086614173228346,
            "duration": 0.125,
            "frequency": 415.3046975799451,
            "pitch": 68,
            "startTime": 1.125,
            "endTime": 1.25
          },
          {
            "name": "A3",
            "midi": 57,
            "time": 1.25,
            "velocity": 0.7086614173228346,
            "duration": 0.125,
            "frequency": 220,
            "pitch": 57,
            "startTime": 1.25,
            "endTime": 1.375
          },
          {
            "name": "F#4",
            "midi": 66,
            "time": 1.375,
            "velocity": 0.7086614173228346,
            "duration": 0.125,
            "frequency": 369.99442271163446,
            "pitch": 66,
            "startTime": 1.375,
            "endTime": 1.5
          },
          {
            "name": "D5",
            "midi": 74,
            "time": 1.5,
            "velocity": 0.7086614173228346,
            "duration": 0.125,
            "frequency": 587.3295358348151,
            "pitch": 74,
            "startTime": 1.5,
            "endTime": 1.625
          },
          {
            "name": "B5",
            "midi": 83,
            "time": 1.625,
            "velocity": 0.7086614173228346,
            "duration": 0.125,
            "frequency": 987.7666025122484,
            "pitch": 76,
            "startTime": 1.625,
            "endTime": 1.75
          },
          {
            "name": "D5",
            "midi": 74,
            "time": 1.75,
            "velocity": 0.7086614173228346,
            "duration": 0.125,
            "frequency": 587.3295358348151,
            "pitch": 74,
            "startTime": 1.75,
            "endTime": 1.875
          },
          {
            "name": "F#3",
            "midi": 54,
            "time": 1.875,
            "velocity": 0.7086614173228346,
            "duration": 0.125,
            "frequency": 184.99721135581723,
            "pitch": 54,
            "startTime": 1.875,
            "endTime": 2
          }
        ],
        "controlChanges": {},
        "id": 0,
        "channelNumber": 0,
        "isPercussion": false
      }
    ]
  },
  "carpinus betulus_chords": {
    "header": {
      "PPQ": 128,
      "bpm": 120,
      "name": ""
    },
    "startTime": 0,
    "duration": 1,
    "tracks": [
      {
        "startTime": 0,
        "duration": 1,
        "length": 15,
        "notes": [
          {
            "name": "C3",
            "midi": 48,
            "time": 0,
            "velocity": 0.7086614173228346,
            "duration": 0.5,
            "frequency": 130.8127826502993,
            "pitch": 48,
            "startTime": 0,
            "endTime": 0.5
          },
          {
            "name": "C#3",
            "midi": 49,
            "time": 0,
            "velocity": 0.7086614173228346,
            "duration": 0.5,
            "frequency": 138.59131548843604,
            "pitch": 49,
            "startTime": 0,
            "endTime": 0.5
          },
          {
            "name": "G3",
            "midi": 55,
            "time": 0,
            "velocity": 0.7086614173228346,
            "duration": 0.5,
            "frequency": 195.99771799087463,
            "pitch": 55,
            "startTime": 0,
            "endTime": 0.5
          },
          {
            "name": "F4",
            "midi": 65,
            "time": 0,
            "velocity": 0.7086614173228346,
            "duration": 0.5,
            "frequency": 349.2282314330039,
            "pitch": 65,
            "startTime": 0,
            "endTime": 0.5
          },
          {
            "name": "F#4",
            "midi": 66,
            "time": 0,
            "velocity": 0.7086614173228346,
            "duration": 0.5,
            "frequency": 369.99442271163446,
            "pitch": 66,
            "startTime": 0,
            "endTime": 0.5
          },
          {
            "name": "F5",
            "midi": 77,
            "time": 0,
            "velocity": 0.7086614173228346,
            "duration": 0.5,
            "frequency": 698.4564628660078,
            "pitch": 76,
            "startTime": 0,
            "endTime": 0.5
          },
          {
            "name": "A#5",
            "midi": 82,
            "time": 0,
            "velocity": 0.7086614173228346,
            "duration": 0.5,
            "frequency": 932.3275230361799,
            "pitch": 76,
            "startTime": 0,
            "endTime": 0.5
          },
          {
            "name": "G6",
            "midi": 91,
            "time": 0,
            "velocity": 0.7086614173228346,
            "duration": 0.5,
            "frequency": 1567.981743926997,
            "pitch": 76,
            "startTime": 0,
            "endTime": 0.5
          },
          {
            "name": "C3",
            "midi": 48,
            "time": 0.5,
            "velocity": 0.7086614173228346,
            "duration": 0.5,
            "frequency": 130.8127826502993,
            "pitch": 48,
            "startTime": 0.5,
            "endTime": 1
          },
          {
            "name": "D#3",
            "midi": 51,
            "time": 0.5,
            "velocity": 0.7086614173228346,
            "duration": 0.5,
            "frequency": 155.56349186104043,
            "pitch": 51,
            "startTime": 0.5,
            "endTime": 1
          },
          {
            "name": "A3",
            "midi": 57,
            "time": 0.5,
            "velocity": 0.7086614173228346,
            "duration": 0.5,
            "frequency": 220,
            "pitch": 57,
            "startTime": 0.5,
            "endTime": 1
          },
          {
            "name": "A#3",
            "midi": 58,
            "time": 0.5,
            "velocity": 0.7086614173228346,
            "duration": 0.5,
            "frequency": 233.08188075904496,
            "pitch": 58,
            "startTime": 0.5,
            "endTime": 1
          },
          {
            "name": "E4",
            "midi": 64,
            "time": 0.5,
            "velocity": 0.7086614173228346,
            "duration": 0.5,
            "frequency": 329.6275569128699,
            "pitch": 64,
            "startTime": 0.5,
            "endTime": 1
          },
          {
            "name": "A#4",
            "midi": 70,
            "time": 0.5,
            "velocity": 0.7086614173228346,
            "duration": 0.5,
            "frequency": 466.1637615180899,
            "pitch": 70,
            "startTime": 0.5,
            "endTime": 1
          },
          {
            "name": "G5",
            "midi": 79,
            "time": 0.5,
            "velocity": 0.7086614173228346,
            "duration": 0.5,
            "frequency": 783.9908719634986,
            "pitch": 76,
            "startTime": 0.5,
            "endTime": 1
          }
        ],
        "controlChanges": {},
        "id": 0,
        "channelNumber": 0,
        "isPercussion": false
      }
    ]
  },
  "castanea sativa_french": {
    "header": {
      "PPQ": 128,
      "bpm": 120,
      "name": ""
    },
    "startTime": 0,
    "duration": 9.25,
    "tracks": [
      {
        "startTime": 0,
        "duration": 9.25,
        "length": 15,
        "notes": [
          {
            "name": "C5",
            "midi": 72,
            "time": 0,
            "velocity": 0.7086614173228346,
            "duration": 1,
            "frequency": 523.2511306011972,
            "pitch": 72,
            "startTime": 0,
            "endTime": 1
          },
          {
            "name": "A4",
            "midi": 69,
            "time": 1,
            "velocity": 0.7086614173228346,
            "duration": 1,
            "frequency": 440,
            "pitch": 69,
            "startTime": 1,
            "endTime": 2
          },
          {
            "name": "E4",
            "midi": 64,
            "time": 2,
            "velocity": 0.7086614173228346,
            "duration": 0.25,
            "frequency": 329.6275569128699,
            "pitch": 64,
            "startTime": 2,
            "endTime": 2.25
          },
          {
            "name": "F4",
            "midi": 65,
            "time": 2.25,
            "velocity": 0.7086614173228346,
            "duration": 0.25,
            "frequency": 349.2282314330039,
            "pitch": 65,
            "startTime": 2.25,
            "endTime": 2.5
          },
          {
            "name": "A4",
            "midi": 69,
            "time": 2.5,
            "velocity": 0.7086614173228346,
            "duration": 1,
            "frequency": 440,
            "pitch": 69,
            "startTime": 2.5,
            "endTime": 3.5
          },
          {
            "name": "G4",
            "midi": 67,
            "time": 3.5,
            "velocity": 0.7086614173228346,
            "duration": 0.5,
            "frequency": 391.99543598174927,
            "pitch": 67,
            "startTime": 3.5,
            "endTime": 4
          },
          {
            "name": "E4",
            "midi": 64,
            "time": 4,
            "velocity": 0.7086614173228346,
            "duration": 1,
            "frequency": 329.6275569128699,
            "pitch": 64,
            "startTime": 4,
            "endTime": 5
          },
          {
            "name": "A4",
            "midi": 69,
            "time": 5,
            "velocity": 0.7086614173228346,
            "duration": 1,
            "frequency": 440,
            "pitch": 69,
            "startTime": 5,
            "endTime": 6
          },
          {
            "name": "G4",
            "midi": 67,
            "time": 6,
            "velocity": 0.7086614173228346,
            "duration": 0.125,
            "frequency": 391.99543598174927,
            "pitch": 67,
            "startTime": 6,
            "endTime": 6.125
          },
          {
            "name": "E4",
            "midi": 64,
            "time": 6.125,
            "velocity": 0.7086614173228346,
            "duration": 0.25,
            "frequency": 329.6275569128699,
            "pitch": 64,
            "startTime": 6.125,
            "endTime": 6.375
          },
          {
            "name": "A4",
            "midi": 69,
            "time": 6.375,
            "velocity": 0.7086614173228346,
            "duration": 1,
            "frequency": 440,
            "pitch": 69,
            "startTime": 6.375,
            "endTime": 7.375
          },
          {
            "name": "F4",
            "midi": 65,
            "time": 7.375,
            "velocity": 0.7086614173228346,
            "duration": 0.25,
            "frequency": 349.2282314330039,
            "pitch": 65,
            "startTime": 7.375,
            "endTime": 7.625
          },
          {
            "name": "B4",
            "midi": 71,
            "time": 7.625,
            "velocity": 0.7086614173228346,
            "duration": 0.5,
            "frequency": 493.8833012561242,
            "pitch": 71,
            "startTime": 7.625,
            "endTime": 8.125
          },
          {
            "name": "A4",
            "midi": 69,
            "time": 8.125,
            "velocity": 0.7086614173228346,
            "duration": 0.125,
            "frequency": 440,
            "pitch": 69,
            "startTime": 8.125,
            "endTime": 8.25
          },
          {
            "name": "A4",
            "midi": 69,
            "time": 8.25,
            "velocity": 0.7086614173228346,
            "duration": 1,
            "frequency": 440,
            "pitch": 69,
            "startTime": 8.25,
            "endTime": 9.25
          }
        ],
        "controlChanges": {},
        "id": 0,
        "channelNumber": 0,
        "isPercussion": false
      }
    ]
  },
  "castanea sativa_keyboard": {
    "header": {
      "PPQ": 128,
      "bpm": 120,
      "name": ""
    },
    "startTime": 0,
    "duration": 1.875,
    "tracks": [
      {
        "startTime": 0,
        "duration": 1.875,
        "length": 15,
        "notes": [
          {
            "name": "B3",
            "midi": 59,
            "time": 0,
            "velocity": 0.7086614173228346,
            "duration": 0.125,
            "frequency": 246.9416506280621,
            "pitch": 59,
            "startTime": 0,
            "endTime": 0.125
          },
          {
            "name": "D3",
            "midi": 50,
            "time": 0.125,
            "velocity": 0.7086614173228346,
            "duration": 0.125,
            "frequency": 146.8323839587038,
            "pitch": 50,
            "startTime": 0.125,
            "endTime": 0.25
          },
          {
            "name": "F#3",
            "midi": 54,
            "time": 0.25,
            "velocity": 0.7086614173228346,
            "duration": 0.125,
            "frequency": 184.99721135581723,
            "pitch": 54,
            "startTime": 0.25,
            "endTime": 0.375
          },
          {
            "name": "F#4",
            "midi": 66,
            "time": 0.375,
            "velocity": 0.7086614173228346,
            "duration": 0.125,
            "frequency": 369.99442271163446,
            "pitch": 66,
            "startTime": 0.375,
            "endTime": 0.5
          },
          {
            "name": "D3",
            "midi": 50,
            "time": 0.5,
            "velocity": 0.7086614173228346,
            "duration": 0.125,
            "frequency": 146.8323839587038,
            "pitch": 50,
            "startTime": 0.5,
            "endTime": 0.625
          },
          {
            "name": "C5",
            "midi": 72,
            "time": 0.625,
            "velocity": 0.7086614173228346,
            "duration": 0.125,
            "frequency": 523.2511306011972,
            "pitch": 72,
            "startTime": 0.625,
            "endTime": 0.75
          },
          {
            "name": "A3",
            "midi": 57,
            "time": 0.75,
            "velocity": 0.7086614173228346,
            "duration": 0.125,
            "frequency": 220,
            "pitch": 57,
            "startTime": 0.75,
            "endTime": 0.875
          },
          {
            "name": "D3",
            "midi": 50,
            "time": 0.875,
            "velocity": 0.7086614173228346,
            "duration": 0.125,
            "frequency": 146.8323839587038,
            "pitch": 50,
            "startTime": 0.875,
            "endTime": 1
          },
          {
            "name": "C4",
            "midi": 60,
            "time": 1,
            "velocity": 0.7086614173228346,
            "duration": 0.125,
            "frequency": 261.6255653005986,
            "pitch": 60,
            "startTime": 1,
            "endTime": 1.125
          },
          {
            "name": "F#3",
            "midi": 54,
            "time": 1.125,
            "velocity": 0.7086614173228346,
            "duration": 0.125,
            "frequency": 184.99721135581723,
            "pitch": 54,
            "startTime": 1.125,
            "endTime": 1.25
          },
          {
            "name": "D3",
            "midi": 50,
            "time": 1.25,
            "velocity": 0.7086614173228346,
            "duration": 0.125,
            "frequency": 146.8323839587038,
            "pitch": 50,
            "startTime": 1.25,
            "endTime": 1.375
          },
          {
            "name": "F#4",
            "midi": 66,
            "time": 1.375,
            "velocity": 0.7086614173228346,
            "duration": 0.125,
            "frequency": 369.99442271163446,
            "pitch": 66,
            "startTime": 1.375,
            "endTime": 1.5
          },
          {
            "name": "F#5",
            "midi": 78,
            "time": 1.5,
            "velocity": 0.7086614173228346,
            "duration": 0.125,
            "frequency": 739.9888454232689,
            "pitch": 76,
            "startTime": 1.5,
            "endTime": 1.625
          },
          {
            "name": "E4",
            "midi": 64,
            "time": 1.625,
            "velocity": 0.7086614173228346,
            "duration": 0.125,
            "frequency": 329.6275569128699,
            "pitch": 64,
            "startTime": 1.625,
            "endTime": 1.75
          },
          {
            "name": "D3",
            "midi": 50,
            "time": 1.75,
            "velocity": 0.7086614173228346,
            "duration": 0.125,
            "frequency": 146.8323839587038,
            "pitch": 50,
            "startTime": 1.75,
            "endTime": 1.875
          }
        ],
        "controlChanges": {},
        "id": 0,
        "channelNumber": 0,
        "isPercussion": false
      }
    ]
  },
  "castanea sativa_chords": {
    "header": {
      "PPQ": 128,
      "bpm": 120,
      "name": ""
    },
    "startTime": 0,
    "duration": 1,
    "tracks": [
      {
        "startTime": 0,
        "duration": 1,
        "length": 14,
        "notes": [
          {
            "name": "C3",
            "midi": 48,
            "time": 0,
            "velocity": 0.7086614173228346,
            "duration": 0.5,
            "frequency": 130.8127826502993,
            "pitch": 48,
            "startTime": 0,
            "endTime": 0.5
          },
          {
            "name": "C#3",
            "midi": 49,
            "time": 0,
            "velocity": 0.7086614173228346,
            "duration": 0.5,
            "frequency": 138.59131548843604,
            "pitch": 49,
            "startTime": 0,
            "endTime": 0.5
          },
          {
            "name": "G3",
            "midi": 55,
            "time": 0,
            "velocity": 0.7086614173228346,
            "duration": 0.5,
            "frequency": 195.99771799087463,
            "pitch": 55,
            "startTime": 0,
            "endTime": 0.5
          },
          {
            "name": "A3",
            "midi": 57,
            "time": 0,
            "velocity": 0.7086614173228346,
            "duration": 0.5,
            "frequency": 220,
            "pitch": 57,
            "startTime": 0,
            "endTime": 0.5
          },
          {
            "name": "C#4",
            "midi": 61,
            "time": 0,
            "velocity": 0.7086614173228346,
            "duration": 0.5,
            "frequency": 277.1826309768721,
            "pitch": 61,
            "startTime": 0,
            "endTime": 0.5
          },
          {
            "name": "F4",
            "midi": 65,
            "time": 0,
            "velocity": 0.7086614173228346,
            "duration": 0.5,
            "frequency": 349.2282314330039,
            "pitch": 65,
            "startTime": 0,
            "endTime": 0.5
          },
          {
            "name": "D#5",
            "midi": 75,
            "time": 0,
            "velocity": 0.7086614173228346,
            "duration": 0.5,
            "frequency": 622.2539674441618,
            "pitch": 75,
            "startTime": 0,
            "endTime": 0.5
          },
          {
            "name": "C#6",
            "midi": 85,
            "time": 0,
            "velocity": 0.7086614173228346,
            "duration": 0.5,
            "frequency": 1108.7305239074883,
            "pitch": 76,
            "startTime": 0,
            "endTime": 0.5
          },
          {
            "name": "G3",
            "midi": 55,
            "time": 0.5,
            "velocity": 0.7086614173228346,
            "duration": 0.5,
            "frequency": 195.99771799087463,
            "pitch": 55,
            "startTime": 0.5,
            "endTime": 1
          },
          {
            "name": "C#4",
            "midi": 61,
            "time": 0.5,
            "velocity": 0.7086614173228346,
            "duration": 0.5,
            "frequency": 277.1826309768721,
            "pitch": 61,
            "startTime": 0.5,
            "endTime": 1
          },
          {
            "name": "A4",
            "midi": 69,
            "time": 0.5,
            "velocity": 0.7086614173228346,
            "duration": 0.5,
            "frequency": 440,
            "pitch": 69,
            "startTime": 0.5,
            "endTime": 1
          },
          {
            "name": "F#5",
            "midi": 78,
            "time": 0.5,
            "velocity": 0.7086614173228346,
            "duration": 0.5,
            "frequency": 739.9888454232689,
            "pitch": 76,
            "startTime": 0.5,
            "endTime": 1
          },
          {
            "name": "A5",
            "midi": 81,
            "time": 0.5,
            "velocity": 0.7086614173228346,
            "duration": 0.5,
            "frequency": 880,
            "pitch": 76,
            "startTime": 0.5,
            "endTime": 1
          },
          {
            "name": "C#6",
            "midi": 85,
            "time": 0.5,
            "velocity": 0.7086614173228346,
            "duration": 0.5,
            "frequency": 1108.7305239074883,
            "pitch": 76,
            "startTime": 0.5,
            "endTime": 1
          }
        ],
        "controlChanges": {},
        "id": 0,
        "channelNumber": 0,
        "isPercussion": false
      }
    ]
  },
  "catalpa bignonioides_french": {
    "header": {
      "PPQ": 128,
      "bpm": 120,
      "name": ""
    },
    "startTime": 0,
    "duration": 12.375,
    "tracks": [
      {
        "startTime": 0,
        "duration": 12.375,
        "length": 20,
        "notes": [
          {
            "name": "C5",
            "midi": 72,
            "time": 0,
            "velocity": 0.7086614173228346,
            "duration": 1,
            "frequency": 523.2511306011972,
            "pitch": 72,
            "startTime": 0,
            "endTime": 1
          },
          {
            "name": "A4",
            "midi": 69,
            "time": 1,
            "velocity": 0.7086614173228346,
            "duration": 1,
            "frequency": 440,
            "pitch": 69,
            "startTime": 1,
            "endTime": 2
          },
          {
            "name": "F4",
            "midi": 65,
            "time": 2,
            "velocity": 0.7086614173228346,
            "duration": 0.25,
            "frequency": 349.2282314330039,
            "pitch": 65,
            "startTime": 2,
            "endTime": 2.25
          },
          {
            "name": "A4",
            "midi": 69,
            "time": 2.25,
            "velocity": 0.7086614173228346,
            "duration": 1,
            "frequency": 440,
            "pitch": 69,
            "startTime": 2.25,
            "endTime": 3.25
          },
          {
            "name": "E4",
            "midi": 64,
            "time": 3.25,
            "velocity": 0.7086614173228346,
            "duration": 0.5,
            "frequency": 329.6275569128699,
            "pitch": 64,
            "startTime": 3.25,
            "endTime": 3.75
          },
          {
            "name": "B3",
            "midi": 59,
            "time": 3.75,
            "velocity": 0.7086614173228346,
            "duration": 0.25,
            "frequency": 246.9416506280621,
            "pitch": 59,
            "startTime": 3.75,
            "endTime": 4
          },
          {
            "name": "A3",
            "midi": 57,
            "time": 4,
            "velocity": 0.7086614173228346,
            "duration": 1,
            "frequency": 220,
            "pitch": 57,
            "startTime": 4,
            "endTime": 5
          },
          {
            "name": "G3",
            "midi": 55,
            "time": 5,
            "velocity": 0.7086614173228346,
            "duration": 0.125,
            "frequency": 195.99771799087463,
            "pitch": 55,
            "startTime": 5,
            "endTime": 5.125
          },
          {
            "name": "B3",
            "midi": 59,
            "time": 5.125,
            "velocity": 0.7086614173228346,
            "duration": 1,
            "frequency": 246.9416506280621,
            "pitch": 59,
            "startTime": 5.125,
            "endTime": 6.125
          },
          {
            "name": "B3",
            "midi": 59,
            "time": 6.125,
            "velocity": 0.7086614173228346,
            "duration": 0.5,
            "frequency": 246.9416506280621,
            "pitch": 59,
            "startTime": 6.125,
            "endTime": 6.625
          },
          {
            "name": "G3",
            "midi": 55,
            "time": 6.625,
            "velocity": 0.7086614173228346,
            "duration": 1,
            "frequency": 195.99771799087463,
            "pitch": 55,
            "startTime": 6.625,
            "endTime": 7.625
          },
          {
            "name": "G3",
            "midi": 55,
            "time": 7.625,
            "velocity": 0.7086614173228346,
            "duration": 0.5,
            "frequency": 195.99771799087463,
            "pitch": 55,
            "startTime": 7.625,
            "endTime": 8.125
          },
          {
            "name": "A3",
            "midi": 57,
            "time": 8.125,
            "velocity": 0.7086614173228346,
            "duration": 0.25,
            "frequency": 220,
            "pitch": 57,
            "startTime": 8.125,
            "endTime": 8.375
          },
          {
            "name": "G3",
            "midi": 55,
            "time": 8.375,
            "velocity": 0.7086614173228346,
            "duration": 0.5,
            "frequency": 195.99771799087463,
            "pitch": 55,
            "startTime": 8.375,
            "endTime": 8.875
          },
          {
            "name": "B3",
            "midi": 59,
            "time": 8.875,
            "velocity": 0.7086614173228346,
            "duration": 0.5,
            "frequency": 246.9416506280621,
            "pitch": 59,
            "startTime": 8.875,
            "endTime": 9.375
          },
          {
            "name": "A3",
            "midi": 57,
            "time": 9.375,
            "velocity": 0.7086614173228346,
            "duration": 0.25,
            "frequency": 220,
            "pitch": 57,
            "startTime": 9.375,
            "endTime": 9.625
          },
          {
            "name": "B3",
            "midi": 59,
            "time": 9.625,
            "velocity": 0.7086614173228346,
            "duration": 0.5,
            "frequency": 246.9416506280621,
            "pitch": 59,
            "startTime": 9.625,
            "endTime": 10.125
          },
          {
            "name": "D4",
            "midi": 62,
            "time": 10.125,
            "velocity": 0.7086614173228346,
            "duration": 1,
            "frequency": 293.6647679174076,
            "pitch": 62,
            "startTime": 10.125,
            "endTime": 11.125
          },
          {
            "name": "E4",
            "midi": 64,
            "time": 11.125,
            "velocity": 0.7086614173228346,
            "duration": 1,
            "frequency": 329.6275569128699,
            "pitch": 64,
            "startTime": 11.125,
            "endTime": 12.125
          },
          {
            "name": "E4",
            "midi": 64,
            "time": 12.125,
            "velocity": 0.7086614173228346,
            "duration": 0.25,
            "frequency": 329.6275569128699,
            "pitch": 64,
            "startTime": 12.125,
            "endTime": 12.375
          }
        ],
        "controlChanges": {},
        "id": 0,
        "channelNumber": 0,
        "isPercussion": false
      }
    ]
  },
  "catalpa bignonioides_keyboard": {
    "header": {
      "PPQ": 128,
      "bpm": 120,
      "name": ""
    },
    "startTime": 0,
    "duration": 2.5,
    "tracks": [
      {
        "startTime": 0,
        "duration": 2.5,
        "length": 20,
        "notes": [
          {
            "name": "B3",
            "midi": 59,
            "time": 0,
            "velocity": 0.7086614173228346,
            "duration": 0.125,
            "frequency": 246.9416506280621,
            "pitch": 59,
            "startTime": 0,
            "endTime": 0.125
          },
          {
            "name": "D3",
            "midi": 50,
            "time": 0.125,
            "velocity": 0.7086614173228346,
            "duration": 0.125,
            "frequency": 146.8323839587038,
            "pitch": 50,
            "startTime": 0.125,
            "endTime": 0.25
          },
          {
            "name": "F#4",
            "midi": 66,
            "time": 0.25,
            "velocity": 0.7086614173228346,
            "duration": 0.125,
            "frequency": 369.99442271163446,
            "pitch": 66,
            "startTime": 0.25,
            "endTime": 0.375
          },
          {
            "name": "D3",
            "midi": 50,
            "time": 0.375,
            "velocity": 0.7086614173228346,
            "duration": 0.125,
            "frequency": 146.8323839587038,
            "pitch": 50,
            "startTime": 0.375,
            "endTime": 0.5
          },
          {
            "name": "B5",
            "midi": 83,
            "time": 0.5,
            "velocity": 0.7086614173228346,
            "duration": 0.125,
            "frequency": 987.7666025122484,
            "pitch": 76,
            "startTime": 0.5,
            "endTime": 0.625
          },
          {
            "name": "D6",
            "midi": 86,
            "time": 0.625,
            "velocity": 0.7086614173228346,
            "duration": 0.125,
            "frequency": 1174.6590716696303,
            "pitch": 76,
            "startTime": 0.625,
            "endTime": 0.75
          },
          {
            "name": "D3",
            "midi": 50,
            "time": 0.75,
            "velocity": 0.7086614173228346,
            "duration": 0.125,
            "frequency": 146.8323839587038,
            "pitch": 50,
            "startTime": 0.75,
            "endTime": 0.875
          },
          {
            "name": "C4",
            "midi": 60,
            "time": 0.875,
            "velocity": 0.7086614173228346,
            "duration": 0.125,
            "frequency": 261.6255653005986,
            "pitch": 60,
            "startTime": 0.875,
            "endTime": 1
          },
          {
            "name": "G#4",
            "midi": 68,
            "time": 1,
            "velocity": 0.7086614173228346,
            "duration": 0.125,
            "frequency": 415.3046975799451,
            "pitch": 68,
            "startTime": 1,
            "endTime": 1.125
          },
          {
            "name": "F#5",
            "midi": 78,
            "time": 1.125,
            "velocity": 0.7086614173228346,
            "duration": 0.125,
            "frequency": 739.9888454232689,
            "pitch": 76,
            "startTime": 1.125,
            "endTime": 1.25
          },
          {
            "name": "G4",
            "midi": 67,
            "time": 1.25,
            "velocity": 0.7086614173228346,
            "duration": 0.125,
            "frequency": 391.99543598174927,
            "pitch": 67,
            "startTime": 1.25,
            "endTime": 1.375
          },
          {
            "name": "C5",
            "midi": 72,
            "time": 1.375,
            "velocity": 0.7086614173228346,
            "duration": 0.125,
            "frequency": 523.2511306011972,
            "pitch": 72,
            "startTime": 1.375,
            "endTime": 1.5
          },
          {
            "name": "A#5",
            "midi": 82,
            "time": 1.5,
            "velocity": 0.7086614173228346,
            "duration": 0.125,
            "frequency": 932.3275230361799,
            "pitch": 76,
            "startTime": 1.5,
            "endTime": 1.625
          },
          {
            "name": "C5",
            "midi": 72,
            "time": 1.625,
            "velocity": 0.7086614173228346,
            "duration": 0.125,
            "frequency": 523.2511306011972,
            "pitch": 72,
            "startTime": 1.625,
            "endTime": 1.75
          },
          {
            "name": "F#5",
            "midi": 78,
            "time": 1.75,
            "velocity": 0.7086614173228346,
            "duration": 0.125,
            "frequency": 739.9888454232689,
            "pitch": 76,
            "startTime": 1.75,
            "endTime": 1.875
          },
          {
            "name": "A#5",
            "midi": 82,
            "time": 1.875,
            "velocity": 0.7086614173228346,
            "duration": 0.125,
            "frequency": 932.3275230361799,
            "pitch": 76,
            "startTime": 1.875,
            "endTime": 2
          },
          {
            "name": "F#5",
            "midi": 78,
            "time": 2,
            "velocity": 0.7086614173228346,
            "duration": 0.125,
            "frequency": 739.9888454232689,
            "pitch": 76,
            "startTime": 2,
            "endTime": 2.125
          },
          {
            "name": "A#3",
            "midi": 58,
            "time": 2.125,
            "velocity": 0.7086614173228346,
            "duration": 0.125,
            "frequency": 233.08188075904496,
            "pitch": 58,
            "startTime": 2.125,
            "endTime": 2.25
          },
          {
            "name": "A3",
            "midi": 57,
            "time": 2.25,
            "velocity": 0.7086614173228346,
            "duration": 0.125,
            "frequency": 220,
            "pitch": 57,
            "startTime": 2.25,
            "endTime": 2.375
          },
          {
            "name": "F#3",
            "midi": 54,
            "time": 2.375,
            "velocity": 0.7086614173228346,
            "duration": 0.125,
            "frequency": 184.99721135581723,
            "pitch": 54,
            "startTime": 2.375,
            "endTime": 2.5
          }
        ],
        "controlChanges": {},
        "id": 0,
        "channelNumber": 0,
        "isPercussion": false
      }
    ]
  },
  "catalpa bignonioides_chords": {
    "header": {
      "PPQ": 128,
      "bpm": 120,
      "name": ""
    },
    "startTime": 0,
    "duration": 1,
    "tracks": [
      {
        "startTime": 0,
        "duration": 1,
        "length": 19,
        "notes": [
          {
            "name": "C3",
            "midi": 48,
            "time": 0,
            "velocity": 0.7086614173228346,
            "duration": 0.5,
            "frequency": 130.8127826502993,
            "pitch": 48,
            "startTime": 0,
            "endTime": 0.5
          },
          {
            "name": "C#3",
            "midi": 49,
            "time": 0,
            "velocity": 0.7086614173228346,
            "duration": 0.5,
            "frequency": 138.59131548843604,
            "pitch": 49,
            "startTime": 0,
            "endTime": 0.5
          },
          {
            "name": "A3",
            "midi": 57,
            "time": 0,
            "velocity": 0.7086614173228346,
            "duration": 0.5,
            "frequency": 220,
            "pitch": 57,
            "startTime": 0,
            "endTime": 0.5
          },
          {
            "name": "C#4",
            "midi": 61,
            "time": 0,
            "velocity": 0.7086614173228346,
            "duration": 0.5,
            "frequency": 277.1826309768721,
            "pitch": 61,
            "startTime": 0,
            "endTime": 0.5
          },
          {
            "name": "E4",
            "midi": 64,
            "time": 0,
            "velocity": 0.7086614173228346,
            "duration": 0.5,
            "frequency": 329.6275569128699,
            "pitch": 64,
            "startTime": 0,
            "endTime": 0.5
          },
          {
            "name": "F4",
            "midi": 65,
            "time": 0,
            "velocity": 0.7086614173228346,
            "duration": 0.5,
            "frequency": 349.2282314330039,
            "pitch": 65,
            "startTime": 0,
            "endTime": 0.5
          },
          {
            "name": "C#5",
            "midi": 73,
            "time": 0,
            "velocity": 0.7086614173228346,
            "duration": 0.5,
            "frequency": 554.3652619537442,
            "pitch": 73,
            "startTime": 0,
            "endTime": 0.5
          },
          {
            "name": "C3",
            "midi": 48,
            "time": 0.5,
            "velocity": 0.7086614173228346,
            "duration": 0.5,
            "frequency": 130.8127826502993,
            "pitch": 48,
            "startTime": 0.5,
            "endTime": 1
          },
          {
            "name": "F#3",
            "midi": 54,
            "time": 0.5,
            "velocity": 0.7086614173228346,
            "duration": 0.5,
            "frequency": 184.99721135581723,
            "pitch": 54,
            "startTime": 0.5,
            "endTime": 1
          },
          {
            "name": "D4",
            "midi": 62,
            "time": 0.5,
            "velocity": 0.7086614173228346,
            "duration": 0.5,
            "frequency": 293.6647679174076,
            "pitch": 62,
            "startTime": 0.5,
            "endTime": 1
          },
          {
            "name": "F4",
            "midi": 65,
            "time": 0.5,
            "velocity": 0.7086614173228346,
            "duration": 0.5,
            "frequency": 349.2282314330039,
            "pitch": 65,
            "startTime": 0.5,
            "endTime": 1
          },
          {
            "name": "G#4",
            "midi": 68,
            "time": 0.5,
            "velocity": 0.7086614173228346,
            "duration": 0.5,
            "frequency": 415.3046975799451,
            "pitch": 68,
            "startTime": 0.5,
            "endTime": 1
          },
          {
            "name": "F5",
            "midi": 77,
            "time": 0.5,
            "velocity": 0.7086614173228346,
            "duration": 0.5,
            "frequency": 698.4564628660078,
            "pitch": 76,
            "startTime": 0.5,
            "endTime": 1
          },
          {
            "name": "F#5",
            "midi": 78,
            "time": 0.5,
            "velocity": 0.7086614173228346,
            "duration": 0.5,
            "frequency": 739.9888454232689,
            "pitch": 76,
            "startTime": 0.5,
            "endTime": 1
          },
          {
            "name": "G#5",
            "midi": 80,
            "time": 0.5,
            "velocity": 0.7086614173228346,
            "duration": 0.5,
            "frequency": 830.6093951598903,
            "pitch": 76,
            "startTime": 0.5,
            "endTime": 1
          },
          {
            "name": "F#6",
            "midi": 90,
            "time": 0.5,
            "velocity": 0.7086614173228346,
            "duration": 0.5,
            "frequency": 1479.9776908465378,
            "pitch": 76,
            "startTime": 0.5,
            "endTime": 1
          },
          {
            "name": "C7",
            "midi": 96,
            "time": 0.5,
            "velocity": 0.7086614173228346,
            "duration": 0.5,
            "frequency": 2093.004522404789,
            "pitch": 76,
            "startTime": 0.5,
            "endTime": 1
          },
          {
            "name": "D#7",
            "midi": 99,
            "time": 0.5,
            "velocity": 0.7086614173228346,
            "duration": 0.5,
            "frequency": 2489.015869776647,
            "pitch": 76,
            "startTime": 0.5,
            "endTime": 1
          },
          {
            "name": "G7",
            "midi": 103,
            "time": 0.5,
            "velocity": 0.7086614173228346,
            "duration": 0.5,
            "frequency": 3135.9634878539946,
            "pitch": 76,
            "startTime": 0.5,
            "endTime": 1
          }
        ],
        "controlChanges": {},
        "id": 0,
        "channelNumber": 0,
        "isPercussion": false
      }
    ]
  },
  "cedrus atlantica_french": {
    "header": {
      "PPQ": 128,
      "bpm": 120,
      "name": ""
    },
    "startTime": 0,
    "duration": 9.875,
    "tracks": [
      {
        "startTime": 0,
        "duration": 9.875,
        "length": 16,
        "notes": [
          {
            "name": "C5",
            "midi": 72,
            "time": 0,
            "velocity": 0.7086614173228346,
            "duration": 1,
            "frequency": 523.2511306011972,
            "pitch": 72,
            "startTime": 0,
            "endTime": 1
          },
          {
            "name": "E5",
            "midi": 76,
            "time": 1,
            "velocity": 0.7086614173228346,
            "duration": 1,
            "frequency": 659.2551138257398,
            "pitch": 76,
            "startTime": 1,
            "endTime": 2
          },
          {
            "name": "D5",
            "midi": 74,
            "time": 2,
            "velocity": 0.7086614173228346,
            "duration": 1,
            "frequency": 587.3295358348151,
            "pitch": 74,
            "startTime": 2,
            "endTime": 3
          },
          {
            "name": "D5",
            "midi": 74,
            "time": 3,
            "velocity": 0.7086614173228346,
            "duration": 0.25,
            "frequency": 587.3295358348151,
            "pitch": 74,
            "startTime": 3,
            "endTime": 3.25
          },
          {
            "name": "G5",
            "midi": 79,
            "time": 3.25,
            "velocity": 0.7086614173228346,
            "duration": 0.25,
            "frequency": 783.9908719634986,
            "pitch": 76,
            "startTime": 3.25,
            "endTime": 3.5
          },
          {
            "name": "E5",
            "midi": 76,
            "time": 3.5,
            "velocity": 0.7086614173228346,
            "duration": 0.25,
            "frequency": 659.2551138257398,
            "pitch": 76,
            "startTime": 3.5,
            "endTime": 3.75
          },
          {
            "name": "G5",
            "midi": 79,
            "time": 3.75,
            "velocity": 0.7086614173228346,
            "duration": 0.125,
            "frequency": 783.9908719634986,
            "pitch": 76,
            "startTime": 3.75,
            "endTime": 3.875
          },
          {
            "name": "A5",
            "midi": 81,
            "time": 3.875,
            "velocity": 0.7086614173228346,
            "duration": 1,
            "frequency": 880,
            "pitch": 76,
            "startTime": 3.875,
            "endTime": 4.875
          },
          {
            "name": "F5",
            "midi": 77,
            "time": 4.875,
            "velocity": 0.7086614173228346,
            "duration": 0.25,
            "frequency": 698.4564628660078,
            "pitch": 76,
            "startTime": 4.875,
            "endTime": 5.125
          },
          {
            "name": "E5",
            "midi": 76,
            "time": 5.125,
            "velocity": 0.7086614173228346,
            "duration": 0.5,
            "frequency": 659.2551138257398,
            "pitch": 76,
            "startTime": 5.125,
            "endTime": 5.625
          },
          {
            "name": "A5",
            "midi": 81,
            "time": 5.625,
            "velocity": 0.7086614173228346,
            "duration": 1,
            "frequency": 880,
            "pitch": 76,
            "startTime": 5.625,
            "endTime": 6.625
          },
          {
            "name": "G5",
            "midi": 79,
            "time": 6.625,
            "velocity": 0.7086614173228346,
            "duration": 0.5,
            "frequency": 783.9908719634986,
            "pitch": 76,
            "startTime": 6.625,
            "endTime": 7.125
          },
          {
            "name": "F5",
            "midi": 77,
            "time": 7.125,
            "velocity": 0.7086614173228346,
            "duration": 0.25,
            "frequency": 698.4564628660078,
            "pitch": 76,
            "startTime": 7.125,
            "endTime": 7.375
          },
          {
            "name": "B5",
            "midi": 83,
            "time": 7.375,
            "velocity": 0.7086614173228346,
            "duration": 0.5,
            "frequency": 987.7666025122484,
            "pitch": 76,
            "startTime": 7.375,
            "endTime": 7.875
          },
          {
            "name": "C6",
            "midi": 84,
            "time": 7.875,
            "velocity": 0.7086614173228346,
            "duration": 1,
            "frequency": 1046.5022612023945,
            "pitch": 76,
            "startTime": 7.875,
            "endTime": 8.875
          },
          {
            "name": "A5",
            "midi": 81,
            "time": 8.875,
            "velocity": 0.7086614173228346,
            "duration": 1,
            "frequency": 880,
            "pitch": 76,
            "startTime": 8.875,
            "endTime": 9.875
          }
        ],
        "controlChanges": {},
        "id": 0,
        "channelNumber": 0,
        "isPercussion": false
      }
    ]
  },
  "cedrus atlantica_keyboard": {
    "header": {
      "PPQ": 128,
      "bpm": 120,
      "name": ""
    },
    "startTime": 0,
    "duration": 2,
    "tracks": [
      {
        "startTime": 0,
        "duration": 2,
        "length": 16,
        "notes": [
          {
            "name": "B3",
            "midi": 59,
            "time": 0,
            "velocity": 0.7086614173228346,
            "duration": 0.125,
            "frequency": 246.9416506280621,
            "pitch": 59,
            "startTime": 0,
            "endTime": 0.125
          },
          {
            "name": "A3",
            "midi": 57,
            "time": 0.125,
            "velocity": 0.7086614173228346,
            "duration": 0.125,
            "frequency": 220,
            "pitch": 57,
            "startTime": 0.125,
            "endTime": 0.25
          },
          {
            "name": "A#3",
            "midi": 58,
            "time": 0.25,
            "velocity": 0.7086614173228346,
            "duration": 0.125,
            "frequency": 233.08188075904496,
            "pitch": 58,
            "startTime": 0.25,
            "endTime": 0.375
          },
          {
            "name": "D4",
            "midi": 62,
            "time": 0.375,
            "velocity": 0.7086614173228346,
            "duration": 0.125,
            "frequency": 293.6647679174076,
            "pitch": 62,
            "startTime": 0.375,
            "endTime": 0.5
          },
          {
            "name": "D5",
            "midi": 74,
            "time": 0.5,
            "velocity": 0.7086614173228346,
            "duration": 0.125,
            "frequency": 587.3295358348151,
            "pitch": 74,
            "startTime": 0.5,
            "endTime": 0.625
          },
          {
            "name": "F#3",
            "midi": 54,
            "time": 0.625,
            "velocity": 0.7086614173228346,
            "duration": 0.125,
            "frequency": 184.99721135581723,
            "pitch": 54,
            "startTime": 0.625,
            "endTime": 0.75
          },
          {
            "name": "C4",
            "midi": 60,
            "time": 0.75,
            "velocity": 0.7086614173228346,
            "duration": 0.125,
            "frequency": 261.6255653005986,
            "pitch": 60,
            "startTime": 0.75,
            "endTime": 0.875
          },
          {
            "name": "D3",
            "midi": 50,
            "time": 0.875,
            "velocity": 0.7086614173228346,
            "duration": 0.125,
            "frequency": 146.8323839587038,
            "pitch": 50,
            "startTime": 0.875,
            "endTime": 1
          },
          {
            "name": "F#4",
            "midi": 66,
            "time": 1,
            "velocity": 0.7086614173228346,
            "duration": 0.125,
            "frequency": 369.99442271163446,
            "pitch": 66,
            "startTime": 1,
            "endTime": 1.125
          },
          {
            "name": "B5",
            "midi": 83,
            "time": 1.125,
            "velocity": 0.7086614173228346,
            "duration": 0.125,
            "frequency": 987.7666025122484,
            "pitch": 76,
            "startTime": 1.125,
            "endTime": 1.25
          },
          {
            "name": "D3",
            "midi": 50,
            "time": 1.25,
            "velocity": 0.7086614173228346,
            "duration": 0.125,
            "frequency": 146.8323839587038,
            "pitch": 50,
            "startTime": 1.25,
            "endTime": 1.375
          },
          {
            "name": "C5",
            "midi": 72,
            "time": 1.375,
            "velocity": 0.7086614173228346,
            "duration": 0.125,
            "frequency": 523.2511306011972,
            "pitch": 72,
            "startTime": 1.375,
            "endTime": 1.5
          },
          {
            "name": "F#4",
            "midi": 66,
            "time": 1.5,
            "velocity": 0.7086614173228346,
            "duration": 0.125,
            "frequency": 369.99442271163446,
            "pitch": 66,
            "startTime": 1.5,
            "endTime": 1.625
          },
          {
            "name": "F#5",
            "midi": 78,
            "time": 1.625,
            "velocity": 0.7086614173228346,
            "duration": 0.125,
            "frequency": 739.9888454232689,
            "pitch": 76,
            "startTime": 1.625,
            "endTime": 1.75
          },
          {
            "name": "B3",
            "midi": 59,
            "time": 1.75,
            "velocity": 0.7086614173228346,
            "duration": 0.125,
            "frequency": 246.9416506280621,
            "pitch": 59,
            "startTime": 1.75,
            "endTime": 1.875
          },
          {
            "name": "D3",
            "midi": 50,
            "time": 1.875,
            "velocity": 0.7086614173228346,
            "duration": 0.125,
            "frequency": 146.8323839587038,
            "pitch": 50,
            "startTime": 1.875,
            "endTime": 2
          }
        ],
        "controlChanges": {},
        "id": 0,
        "channelNumber": 0,
        "isPercussion": false
      }
    ]
  },
  "cedrus atlantica_chords": {
    "header": {
      "PPQ": 128,
      "bpm": 120,
      "name": ""
    },
    "startTime": 0,
    "duration": 1,
    "tracks": [
      {
        "startTime": 0,
        "duration": 1,
        "length": 15,
        "notes": [
          {
            "name": "C3",
            "midi": 48,
            "time": 0,
            "velocity": 0.7086614173228346,
            "duration": 0.5,
            "frequency": 130.8127826502993,
            "pitch": 48,
            "startTime": 0,
            "endTime": 0.5
          },
          {
            "name": "D#3",
            "midi": 51,
            "time": 0,
            "velocity": 0.7086614173228346,
            "duration": 0.5,
            "frequency": 155.56349186104043,
            "pitch": 51,
            "startTime": 0,
            "endTime": 0.5
          },
          {
            "name": "C4",
            "midi": 60,
            "time": 0,
            "velocity": 0.7086614173228346,
            "duration": 0.5,
            "frequency": 261.6255653005986,
            "pitch": 60,
            "startTime": 0,
            "endTime": 0.5
          },
          {
            "name": "G4",
            "midi": 67,
            "time": 0,
            "velocity": 0.7086614173228346,
            "duration": 0.5,
            "frequency": 391.99543598174927,
            "pitch": 67,
            "startTime": 0,
            "endTime": 0.5
          },
          {
            "name": "A#4",
            "midi": 70,
            "time": 0,
            "velocity": 0.7086614173228346,
            "duration": 0.5,
            "frequency": 466.1637615180899,
            "pitch": 70,
            "startTime": 0,
            "endTime": 0.5
          },
          {
            "name": "G5",
            "midi": 79,
            "time": 0,
            "velocity": 0.7086614173228346,
            "duration": 0.5,
            "frequency": 783.9908719634986,
            "pitch": 76,
            "startTime": 0,
            "endTime": 0.5
          },
          {
            "name": "C#3",
            "midi": 49,
            "time": 0.5,
            "velocity": 0.7086614173228346,
            "duration": 0.5,
            "frequency": 138.59131548843604,
            "pitch": 49,
            "startTime": 0.5,
            "endTime": 1
          },
          {
            "name": "A3",
            "midi": 57,
            "time": 0.5,
            "velocity": 0.7086614173228346,
            "duration": 0.5,
            "frequency": 220,
            "pitch": 57,
            "startTime": 0.5,
            "endTime": 1
          },
          {
            "name": "E4",
            "midi": 64,
            "time": 0.5,
            "velocity": 0.7086614173228346,
            "duration": 0.5,
            "frequency": 329.6275569128699,
            "pitch": 64,
            "startTime": 0.5,
            "endTime": 1
          },
          {
            "name": "C#5",
            "midi": 73,
            "time": 0.5,
            "velocity": 0.7086614173228346,
            "duration": 0.5,
            "frequency": 554.3652619537442,
            "pitch": 73,
            "startTime": 0.5,
            "endTime": 1
          },
          {
            "name": "F5",
            "midi": 77,
            "time": 0.5,
            "velocity": 0.7086614173228346,
            "duration": 0.5,
            "frequency": 698.4564628660078,
            "pitch": 76,
            "startTime": 0.5,
            "endTime": 1
          },
          {
            "name": "A5",
            "midi": 81,
            "time": 0.5,
            "velocity": 0.7086614173228346,
            "duration": 0.5,
            "frequency": 880,
            "pitch": 76,
            "startTime": 0.5,
            "endTime": 1
          },
          {
            "name": "F#6",
            "midi": 90,
            "time": 0.5,
            "velocity": 0.7086614173228346,
            "duration": 0.5,
            "frequency": 1479.9776908465378,
            "pitch": 76,
            "startTime": 0.5,
            "endTime": 1
          },
          {
            "name": "C7",
            "midi": 96,
            "time": 0.5,
            "velocity": 0.7086614173228346,
            "duration": 0.5,
            "frequency": 2093.004522404789,
            "pitch": 76,
            "startTime": 0.5,
            "endTime": 1
          },
          {
            "name": "C#7",
            "midi": 97,
            "time": 0.5,
            "velocity": 0.7086614173228346,
            "duration": 0.5,
            "frequency": 2217.461047814977,
            "pitch": 76,
            "startTime": 0.5,
            "endTime": 1
          }
        ],
        "controlChanges": {},
        "id": 0,
        "channelNumber": 0,
        "isPercussion": false
      }
    ]
  },
  "cedrus deodara_french": {
    "header": {
      "PPQ": 128,
      "bpm": 120,
      "name": ""
    },
    "startTime": 0,
    "duration": 9.375,
    "tracks": [
      {
        "startTime": 0,
        "duration": 9.375,
        "length": 14,
        "notes": [
          {
            "name": "C5",
            "midi": 72,
            "time": 0,
            "velocity": 0.7086614173228346,
            "duration": 1,
            "frequency": 523.2511306011972,
            "pitch": 72,
            "startTime": 0,
            "endTime": 1
          },
          {
            "name": "E5",
            "midi": 76,
            "time": 1,
            "velocity": 0.7086614173228346,
            "duration": 1,
            "frequency": 659.2551138257398,
            "pitch": 76,
            "startTime": 1,
            "endTime": 2
          },
          {
            "name": "D5",
            "midi": 74,
            "time": 2,
            "velocity": 0.7086614173228346,
            "duration": 1,
            "frequency": 587.3295358348151,
            "pitch": 74,
            "startTime": 2,
            "endTime": 3
          },
          {
            "name": "D5",
            "midi": 74,
            "time": 3,
            "velocity": 0.7086614173228346,
            "duration": 0.25,
            "frequency": 587.3295358348151,
            "pitch": 74,
            "startTime": 3,
            "endTime": 3.25
          },
          {
            "name": "G5",
            "midi": 79,
            "time": 3.25,
            "velocity": 0.7086614173228346,
            "duration": 0.25,
            "frequency": 783.9908719634986,
            "pitch": 76,
            "startTime": 3.25,
            "endTime": 3.5
          },
          {
            "name": "E5",
            "midi": 76,
            "time": 3.5,
            "velocity": 0.7086614173228346,
            "duration": 0.25,
            "frequency": 659.2551138257398,
            "pitch": 76,
            "startTime": 3.5,
            "endTime": 3.75
          },
          {
            "name": "G5",
            "midi": 79,
            "time": 3.75,
            "velocity": 0.7086614173228346,
            "duration": 0.125,
            "frequency": 783.9908719634986,
            "pitch": 76,
            "startTime": 3.75,
            "endTime": 3.875
          },
          {
            "name": "D5",
            "midi": 74,
            "time": 3.875,
            "velocity": 0.7086614173228346,
            "duration": 1,
            "frequency": 587.3295358348151,
            "pitch": 74,
            "startTime": 3.875,
            "endTime": 4.875
          },
          {
            "name": "E5",
            "midi": 76,
            "time": 4.875,
            "velocity": 0.7086614173228346,
            "duration": 1,
            "frequency": 659.2551138257398,
            "pitch": 76,
            "startTime": 4.875,
            "endTime": 5.875
          },
          {
            "name": "A5",
            "midi": 81,
            "time": 5.875,
            "velocity": 0.7086614173228346,
            "duration": 0.25,
            "frequency": 880,
            "pitch": 76,
            "startTime": 5.875,
            "endTime": 6.125
          },
          {
            "name": "D6",
            "midi": 86,
            "time": 6.125,
            "velocity": 0.7086614173228346,
            "duration": 1,
            "frequency": 1174.6590716696303,
            "pitch": 76,
            "startTime": 6.125,
            "endTime": 7.125
          },
          {
            "name": "A5",
            "midi": 81,
            "time": 7.125,
            "velocity": 0.7086614173228346,
            "duration": 1,
            "frequency": 880,
            "pitch": 76,
            "startTime": 7.125,
            "endTime": 8.125
          },
          {
            "name": "D6",
            "midi": 86,
            "time": 8.125,
            "velocity": 0.7086614173228346,
            "duration": 0.25,
            "frequency": 1174.6590716696303,
            "pitch": 76,
            "startTime": 8.125,
            "endTime": 8.375
          },
          {
            "name": "A5",
            "midi": 81,
            "time": 8.375,
            "velocity": 0.7086614173228346,
            "duration": 1,
            "frequency": 880,
            "pitch": 76,
            "startTime": 8.375,
            "endTime": 9.375
          }
        ],
        "controlChanges": {},
        "id": 0,
        "channelNumber": 0,
        "isPercussion": false
      }
    ]
  },
  "cedrus deodara_keyboard": {
    "header": {
      "PPQ": 128,
      "bpm": 120,
      "name": ""
    },
    "startTime": 0,
    "duration": 1.75,
    "tracks": [
      {
        "startTime": 0,
        "duration": 1.75,
        "length": 14,
        "notes": [
          {
            "name": "B3",
            "midi": 59,
            "time": 0,
            "velocity": 0.7086614173228346,
            "duration": 0.125,
            "frequency": 246.9416506280621,
            "pitch": 59,
            "startTime": 0,
            "endTime": 0.125
          },
          {
            "name": "A3",
            "midi": 57,
            "time": 0.125,
            "velocity": 0.7086614173228346,
            "duration": 0.125,
            "frequency": 220,
            "pitch": 57,
            "startTime": 0.125,
            "endTime": 0.25
          },
          {
            "name": "A#3",
            "midi": 58,
            "time": 0.25,
            "velocity": 0.7086614173228346,
            "duration": 0.125,
            "frequency": 233.08188075904496,
            "pitch": 58,
            "startTime": 0.25,
            "endTime": 0.375
          },
          {
            "name": "D4",
            "midi": 62,
            "time": 0.375,
            "velocity": 0.7086614173228346,
            "duration": 0.125,
            "frequency": 293.6647679174076,
            "pitch": 62,
            "startTime": 0.375,
            "endTime": 0.5
          },
          {
            "name": "D5",
            "midi": 74,
            "time": 0.5,
            "velocity": 0.7086614173228346,
            "duration": 0.125,
            "frequency": 587.3295358348151,
            "pitch": 74,
            "startTime": 0.5,
            "endTime": 0.625
          },
          {
            "name": "F#3",
            "midi": 54,
            "time": 0.625,
            "velocity": 0.7086614173228346,
            "duration": 0.125,
            "frequency": 184.99721135581723,
            "pitch": 54,
            "startTime": 0.625,
            "endTime": 0.75
          },
          {
            "name": "C4",
            "midi": 60,
            "time": 0.75,
            "velocity": 0.7086614173228346,
            "duration": 0.125,
            "frequency": 261.6255653005986,
            "pitch": 60,
            "startTime": 0.75,
            "endTime": 0.875
          },
          {
            "name": "A#3",
            "midi": 58,
            "time": 0.875,
            "velocity": 0.7086614173228346,
            "duration": 0.125,
            "frequency": 233.08188075904496,
            "pitch": 58,
            "startTime": 0.875,
            "endTime": 1
          },
          {
            "name": "A3",
            "midi": 57,
            "time": 1,
            "velocity": 0.7086614173228346,
            "duration": 0.125,
            "frequency": 220,
            "pitch": 57,
            "startTime": 1,
            "endTime": 1.125
          },
          {
            "name": "A#5",
            "midi": 82,
            "time": 1.125,
            "velocity": 0.7086614173228346,
            "duration": 0.125,
            "frequency": 932.3275230361799,
            "pitch": 76,
            "startTime": 1.125,
            "endTime": 1.25
          },
          {
            "name": "A#3",
            "midi": 58,
            "time": 1.25,
            "velocity": 0.7086614173228346,
            "duration": 0.125,
            "frequency": 233.08188075904496,
            "pitch": 58,
            "startTime": 1.25,
            "endTime": 1.375
          },
          {
            "name": "D3",
            "midi": 50,
            "time": 1.375,
            "velocity": 0.7086614173228346,
            "duration": 0.125,
            "frequency": 146.8323839587038,
            "pitch": 50,
            "startTime": 1.375,
            "endTime": 1.5
          },
          {
            "name": "D4",
            "midi": 62,
            "time": 1.5,
            "velocity": 0.7086614173228346,
            "duration": 0.125,
            "frequency": 293.6647679174076,
            "pitch": 62,
            "startTime": 1.5,
            "endTime": 1.625
          },
          {
            "name": "D3",
            "midi": 50,
            "time": 1.625,
            "velocity": 0.7086614173228346,
            "duration": 0.125,
            "frequency": 146.8323839587038,
            "pitch": 50,
            "startTime": 1.625,
            "endTime": 1.75
          }
        ],
        "controlChanges": {},
        "id": 0,
        "channelNumber": 0,
        "isPercussion": false
      }
    ]
  },
  "cedrus deodara_chords": {
    "header": {
      "PPQ": 128,
      "bpm": 120,
      "name": ""
    },
    "startTime": 0,
    "duration": 1,
    "tracks": [
      {
        "startTime": 0,
        "duration": 1,
        "length": 13,
        "notes": [
          {
            "name": "C3",
            "midi": 48,
            "time": 0,
            "velocity": 0.7086614173228346,
            "duration": 0.5,
            "frequency": 130.8127826502993,
            "pitch": 48,
            "startTime": 0,
            "endTime": 0.5
          },
          {
            "name": "D#3",
            "midi": 51,
            "time": 0,
            "velocity": 0.7086614173228346,
            "duration": 0.5,
            "frequency": 155.56349186104043,
            "pitch": 51,
            "startTime": 0,
            "endTime": 0.5
          },
          {
            "name": "C4",
            "midi": 60,
            "time": 0,
            "velocity": 0.7086614173228346,
            "duration": 0.5,
            "frequency": 261.6255653005986,
            "pitch": 60,
            "startTime": 0,
            "endTime": 0.5
          },
          {
            "name": "G4",
            "midi": 67,
            "time": 0,
            "velocity": 0.7086614173228346,
            "duration": 0.5,
            "frequency": 391.99543598174927,
            "pitch": 67,
            "startTime": 0,
            "endTime": 0.5
          },
          {
            "name": "A#4",
            "midi": 70,
            "time": 0,
            "velocity": 0.7086614173228346,
            "duration": 0.5,
            "frequency": 466.1637615180899,
            "pitch": 70,
            "startTime": 0,
            "endTime": 0.5
          },
          {
            "name": "G5",
            "midi": 79,
            "time": 0,
            "velocity": 0.7086614173228346,
            "duration": 0.5,
            "frequency": 783.9908719634986,
            "pitch": 76,
            "startTime": 0,
            "endTime": 0.5
          },
          {
            "name": "C3",
            "midi": 48,
            "time": 0.5,
            "velocity": 0.7086614173228346,
            "duration": 0.5,
            "frequency": 130.8127826502993,
            "pitch": 48,
            "startTime": 0.5,
            "endTime": 1
          },
          {
            "name": "D#3",
            "midi": 51,
            "time": 0.5,
            "velocity": 0.7086614173228346,
            "duration": 0.5,
            "frequency": 155.56349186104043,
            "pitch": 51,
            "startTime": 0.5,
            "endTime": 1
          },
          {
            "name": "G#3",
            "midi": 56,
            "time": 0.5,
            "velocity": 0.7086614173228346,
            "duration": 0.5,
            "frequency": 207.65234878997256,
            "pitch": 56,
            "startTime": 0.5,
            "endTime": 1
          },
          {
            "name": "C4",
            "midi": 60,
            "time": 0.5,
            "velocity": 0.7086614173228346,
            "duration": 0.5,
            "frequency": 261.6255653005986,
            "pitch": 60,
            "startTime": 0.5,
            "endTime": 1
          },
          {
            "name": "C#4",
            "midi": 61,
            "time": 0.5,
            "velocity": 0.7086614173228346,
            "duration": 0.5,
            "frequency": 277.1826309768721,
            "pitch": 61,
            "startTime": 0.5,
            "endTime": 1
          },
          {
            "name": "G4",
            "midi": 67,
            "time": 0.5,
            "velocity": 0.7086614173228346,
            "duration": 0.5,
            "frequency": 391.99543598174927,
            "pitch": 67,
            "startTime": 0.5,
            "endTime": 1
          },
          {
            "name": "C#5",
            "midi": 73,
            "time": 0.5,
            "velocity": 0.7086614173228346,
            "duration": 0.5,
            "frequency": 554.3652619537442,
            "pitch": 73,
            "startTime": 0.5,
            "endTime": 1
          }
        ],
        "controlChanges": {},
        "id": 0,
        "channelNumber": 0,
        "isPercussion": false
      }
    ]
  },
  "chamaecyparis lawsoniana_french": {
    "header": {
      "PPQ": 128,
      "bpm": 120,
      "name": ""
    },
    "startTime": 0,
    "duration": 14.125,
    "tracks": [
      {
        "startTime": 0,
        "duration": 14.125,
        "length": 24,
        "notes": [
          {
            "name": "C5",
            "midi": 72,
            "time": 0,
            "velocity": 0.7086614173228346,
            "duration": 1,
            "frequency": 523.2511306011972,
            "pitch": 72,
            "startTime": 0,
            "endTime": 1
          },
          {
            "name": "A4",
            "midi": 69,
            "time": 1,
            "velocity": 0.7086614173228346,
            "duration": 0.5,
            "frequency": 440,
            "pitch": 69,
            "startTime": 1,
            "endTime": 1.5
          },
          {
            "name": "A4",
            "midi": 69,
            "time": 1.5,
            "velocity": 0.7086614173228346,
            "duration": 1,
            "frequency": 440,
            "pitch": 69,
            "startTime": 1.5,
            "endTime": 2.5
          },
          {
            "name": "F4",
            "midi": 65,
            "time": 2.5,
            "velocity": 0.7086614173228346,
            "duration": 0.5,
            "frequency": 349.2282314330039,
            "pitch": 65,
            "startTime": 2.5,
            "endTime": 3
          },
          {
            "name": "A4",
            "midi": 69,
            "time": 3,
            "velocity": 0.7086614173228346,
            "duration": 1,
            "frequency": 440,
            "pitch": 69,
            "startTime": 3,
            "endTime": 4
          },
          {
            "name": "E4",
            "midi": 64,
            "time": 4,
            "velocity": 0.7086614173228346,
            "duration": 1,
            "frequency": 329.6275569128699,
            "pitch": 64,
            "startTime": 4,
            "endTime": 5
          },
          {
            "name": "C4",
            "midi": 60,
            "time": 5,
            "velocity": 0.7086614173228346,
            "duration": 1,
            "frequency": 261.6255653005986,
            "pitch": 60,
            "startTime": 5,
            "endTime": 6
          },
          {
            "name": "D4",
            "midi": 62,
            "time": 6,
            "velocity": 0.7086614173228346,
            "duration": 0.125,
            "frequency": 293.6647679174076,
            "pitch": 62,
            "startTime": 6,
            "endTime": 6.125
          },
          {
            "name": "B3",
            "midi": 59,
            "time": 6.125,
            "velocity": 0.7086614173228346,
            "duration": 0.25,
            "frequency": 246.9416506280621,
            "pitch": 59,
            "startTime": 6.125,
            "endTime": 6.375
          },
          {
            "name": "A3",
            "midi": 57,
            "time": 6.375,
            "velocity": 0.7086614173228346,
            "duration": 1,
            "frequency": 220,
            "pitch": 57,
            "startTime": 6.375,
            "endTime": 7.375
          },
          {
            "name": "D4",
            "midi": 62,
            "time": 7.375,
            "velocity": 0.7086614173228346,
            "duration": 0.25,
            "frequency": 293.6647679174076,
            "pitch": 62,
            "startTime": 7.375,
            "endTime": 7.625
          },
          {
            "name": "B3",
            "midi": 59,
            "time": 7.625,
            "velocity": 0.7086614173228346,
            "duration": 0.5,
            "frequency": 246.9416506280621,
            "pitch": 59,
            "startTime": 7.625,
            "endTime": 8.125
          },
          {
            "name": "E4",
            "midi": 64,
            "time": 8.125,
            "velocity": 0.7086614173228346,
            "duration": 0.25,
            "frequency": 329.6275569128699,
            "pitch": 64,
            "startTime": 8.125,
            "endTime": 8.375
          },
          {
            "name": "G4",
            "midi": 67,
            "time": 8.375,
            "velocity": 0.7086614173228346,
            "duration": 0.125,
            "frequency": 391.99543598174927,
            "pitch": 67,
            "startTime": 8.375,
            "endTime": 8.5
          },
          {
            "name": "E4",
            "midi": 64,
            "time": 8.5,
            "velocity": 0.7086614173228346,
            "duration": 0.5,
            "frequency": 329.6275569128699,
            "pitch": 64,
            "startTime": 8.5,
            "endTime": 9
          },
          {
            "name": "A4",
            "midi": 69,
            "time": 9,
            "velocity": 0.7086614173228346,
            "duration": 1,
            "frequency": 440,
            "pitch": 69,
            "startTime": 9,
            "endTime": 10
          },
          {
            "name": "B4",
            "midi": 71,
            "time": 10,
            "velocity": 0.7086614173228346,
            "duration": 0.125,
            "frequency": 493.8833012561242,
            "pitch": 71,
            "startTime": 10,
            "endTime": 10.125
          },
          {
            "name": "E5",
            "midi": 76,
            "time": 10.125,
            "velocity": 0.7086614173228346,
            "duration": 0.25,
            "frequency": 659.2551138257398,
            "pitch": 76,
            "startTime": 10.125,
            "endTime": 10.375
          },
          {
            "name": "A5",
            "midi": 81,
            "time": 10.375,
            "velocity": 0.7086614173228346,
            "duration": 0.25,
            "frequency": 880,
            "pitch": 76,
            "startTime": 10.375,
            "endTime": 10.625
          },
          {
            "name": "G5",
            "midi": 79,
            "time": 10.625,
            "velocity": 0.7086614173228346,
            "duration": 0.5,
            "frequency": 783.9908719634986,
            "pitch": 76,
            "startTime": 10.625,
            "endTime": 11.125
          },
          {
            "name": "B5",
            "midi": 83,
            "time": 11.125,
            "velocity": 0.7086614173228346,
            "duration": 0.5,
            "frequency": 987.7666025122484,
            "pitch": 76,
            "startTime": 11.125,
            "endTime": 11.625
          },
          {
            "name": "A5",
            "midi": 81,
            "time": 11.625,
            "velocity": 0.7086614173228346,
            "duration": 1,
            "frequency": 880,
            "pitch": 76,
            "startTime": 11.625,
            "endTime": 12.625
          },
          {
            "name": "G5",
            "midi": 79,
            "time": 12.625,
            "velocity": 0.7086614173228346,
            "duration": 0.5,
            "frequency": 783.9908719634986,
            "pitch": 76,
            "startTime": 12.625,
            "endTime": 13.125
          },
          {
            "name": "A5",
            "midi": 81,
            "time": 13.125,
            "velocity": 0.7086614173228346,
            "duration": 1,
            "frequency": 880,
            "pitch": 76,
            "startTime": 13.125,
            "endTime": 14.125
          }
        ],
        "controlChanges": {},
        "id": 0,
        "channelNumber": 0,
        "isPercussion": false
      }
    ]
  },
  "chamaecyparis lawsoniana_keyboard": {
    "header": {
      "PPQ": 128,
      "bpm": 120,
      "name": ""
    },
    "startTime": 0,
    "duration": 3,
    "tracks": [
      {
        "startTime": 0,
        "duration": 3,
        "length": 24,
        "notes": [
          {
            "name": "B3",
            "midi": 59,
            "time": 0,
            "velocity": 0.7086614173228346,
            "duration": 0.125,
            "frequency": 246.9416506280621,
            "pitch": 59,
            "startTime": 0,
            "endTime": 0.125
          },
          {
            "name": "B4",
            "midi": 71,
            "time": 0.125,
            "velocity": 0.7086614173228346,
            "duration": 0.125,
            "frequency": 493.8833012561242,
            "pitch": 71,
            "startTime": 0.125,
            "endTime": 0.25
          },
          {
            "name": "D3",
            "midi": 50,
            "time": 0.25,
            "velocity": 0.7086614173228346,
            "duration": 0.125,
            "frequency": 146.8323839587038,
            "pitch": 50,
            "startTime": 0.25,
            "endTime": 0.375
          },
          {
            "name": "E5",
            "midi": 76,
            "time": 0.375,
            "velocity": 0.7086614173228346,
            "duration": 0.125,
            "frequency": 659.2551138257398,
            "pitch": 76,
            "startTime": 0.375,
            "endTime": 0.5
          },
          {
            "name": "D3",
            "midi": 50,
            "time": 0.5,
            "velocity": 0.7086614173228346,
            "duration": 0.125,
            "frequency": 146.8323839587038,
            "pitch": 50,
            "startTime": 0.5,
            "endTime": 0.625
          },
          {
            "name": "A3",
            "midi": 57,
            "time": 0.625,
            "velocity": 0.7086614173228346,
            "duration": 0.125,
            "frequency": 220,
            "pitch": 57,
            "startTime": 0.625,
            "endTime": 0.75
          },
          {
            "name": "B3",
            "midi": 59,
            "time": 0.75,
            "velocity": 0.7086614173228346,
            "duration": 0.125,
            "frequency": 246.9416506280621,
            "pitch": 59,
            "startTime": 0.75,
            "endTime": 0.875
          },
          {
            "name": "A#4",
            "midi": 70,
            "time": 0.875,
            "velocity": 0.7086614173228346,
            "duration": 0.125,
            "frequency": 466.1637615180899,
            "pitch": 70,
            "startTime": 0.875,
            "endTime": 1
          },
          {
            "name": "D6",
            "midi": 86,
            "time": 1,
            "velocity": 0.7086614173228346,
            "duration": 0.125,
            "frequency": 1174.6590716696303,
            "pitch": 76,
            "startTime": 1,
            "endTime": 1.125
          },
          {
            "name": "D3",
            "midi": 50,
            "time": 1.125,
            "velocity": 0.7086614173228346,
            "duration": 0.125,
            "frequency": 146.8323839587038,
            "pitch": 50,
            "startTime": 1.125,
            "endTime": 1.25
          },
          {
            "name": "D4",
            "midi": 62,
            "time": 1.25,
            "velocity": 0.7086614173228346,
            "duration": 0.125,
            "frequency": 293.6647679174076,
            "pitch": 62,
            "startTime": 1.25,
            "endTime": 1.375
          },
          {
            "name": "F#5",
            "midi": 78,
            "time": 1.375,
            "velocity": 0.7086614173228346,
            "duration": 0.125,
            "frequency": 739.9888454232689,
            "pitch": 76,
            "startTime": 1.375,
            "endTime": 1.5
          },
          {
            "name": "F#3",
            "midi": 54,
            "time": 1.5,
            "velocity": 0.7086614173228346,
            "duration": 0.125,
            "frequency": 184.99721135581723,
            "pitch": 54,
            "startTime": 1.5,
            "endTime": 1.625
          },
          {
            "name": "C4",
            "midi": 60,
            "time": 1.625,
            "velocity": 0.7086614173228346,
            "duration": 0.125,
            "frequency": 261.6255653005986,
            "pitch": 60,
            "startTime": 1.625,
            "endTime": 1.75
          },
          {
            "name": "B5",
            "midi": 83,
            "time": 1.75,
            "velocity": 0.7086614173228346,
            "duration": 0.125,
            "frequency": 987.7666025122484,
            "pitch": 76,
            "startTime": 1.75,
            "endTime": 1.875
          },
          {
            "name": "D3",
            "midi": 50,
            "time": 1.875,
            "velocity": 0.7086614173228346,
            "duration": 0.125,
            "frequency": 146.8323839587038,
            "pitch": 50,
            "startTime": 1.875,
            "endTime": 2
          },
          {
            "name": "F3",
            "midi": 53,
            "time": 2,
            "velocity": 0.7086614173228346,
            "duration": 0.125,
            "frequency": 174.61411571650194,
            "pitch": 53,
            "startTime": 2,
            "endTime": 2.125
          },
          {
            "name": "F#3",
            "midi": 54,
            "time": 2.125,
            "velocity": 0.7086614173228346,
            "duration": 0.125,
            "frequency": 184.99721135581723,
            "pitch": 54,
            "startTime": 2.125,
            "endTime": 2.25
          },
          {
            "name": "A#5",
            "midi": 82,
            "time": 2.25,
            "velocity": 0.7086614173228346,
            "duration": 0.125,
            "frequency": 932.3275230361799,
            "pitch": 76,
            "startTime": 2.25,
            "endTime": 2.375
          },
          {
            "name": "C5",
            "midi": 72,
            "time": 2.375,
            "velocity": 0.7086614173228346,
            "duration": 0.125,
            "frequency": 523.2511306011972,
            "pitch": 72,
            "startTime": 2.375,
            "endTime": 2.5
          },
          {
            "name": "F#5",
            "midi": 78,
            "time": 2.5,
            "velocity": 0.7086614173228346,
            "duration": 0.125,
            "frequency": 739.9888454232689,
            "pitch": 76,
            "startTime": 2.5,
            "endTime": 2.625
          },
          {
            "name": "D3",
            "midi": 50,
            "time": 2.625,
            "velocity": 0.7086614173228346,
            "duration": 0.125,
            "frequency": 146.8323839587038,
            "pitch": 50,
            "startTime": 2.625,
            "endTime": 2.75
          },
          {
            "name": "C5",
            "midi": 72,
            "time": 2.75,
            "velocity": 0.7086614173228346,
            "duration": 0.125,
            "frequency": 523.2511306011972,
            "pitch": 72,
            "startTime": 2.75,
            "endTime": 2.875
          },
          {
            "name": "D3",
            "midi": 50,
            "time": 2.875,
            "velocity": 0.7086614173228346,
            "duration": 0.125,
            "frequency": 146.8323839587038,
            "pitch": 50,
            "startTime": 2.875,
            "endTime": 3
          }
        ],
        "controlChanges": {},
        "id": 0,
        "channelNumber": 0,
        "isPercussion": false
      }
    ]
  },
  "chamaecyparis lawsoniana_chords": {
    "header": {
      "PPQ": 128,
      "bpm": 120,
      "name": ""
    },
    "startTime": 0,
    "duration": 1,
    "tracks": [
      {
        "startTime": 0,
        "duration": 1,
        "length": 23,
        "notes": [
          {
            "name": "C3",
            "midi": 48,
            "time": 0,
            "velocity": 0.7086614173228346,
            "duration": 0.5,
            "frequency": 130.8127826502993,
            "pitch": 48,
            "startTime": 0,
            "endTime": 0.5
          },
          {
            "name": "D3",
            "midi": 50,
            "time": 0,
            "velocity": 0.7086614173228346,
            "duration": 0.5,
            "frequency": 146.8323839587038,
            "pitch": 50,
            "startTime": 0,
            "endTime": 0.5
          },
          {
            "name": "C#4",
            "midi": 61,
            "time": 0,
            "velocity": 0.7086614173228346,
            "duration": 0.5,
            "frequency": 277.1826309768721,
            "pitch": 61,
            "startTime": 0,
            "endTime": 0.5
          },
          {
            "name": "F4",
            "midi": 65,
            "time": 0,
            "velocity": 0.7086614173228346,
            "duration": 0.5,
            "frequency": 349.2282314330039,
            "pitch": 65,
            "startTime": 0,
            "endTime": 0.5
          },
          {
            "name": "C#5",
            "midi": 73,
            "time": 0,
            "velocity": 0.7086614173228346,
            "duration": 0.5,
            "frequency": 554.3652619537442,
            "pitch": 73,
            "startTime": 0,
            "endTime": 0.5
          },
          {
            "name": "D#5",
            "midi": 75,
            "time": 0,
            "velocity": 0.7086614173228346,
            "duration": 0.5,
            "frequency": 622.2539674441618,
            "pitch": 75,
            "startTime": 0,
            "endTime": 0.5
          },
          {
            "name": "C6",
            "midi": 84,
            "time": 0,
            "velocity": 0.7086614173228346,
            "duration": 0.5,
            "frequency": 1046.5022612023945,
            "pitch": 76,
            "startTime": 0,
            "endTime": 0.5
          },
          {
            "name": "B6",
            "midi": 95,
            "time": 0,
            "velocity": 0.7086614173228346,
            "duration": 0.5,
            "frequency": 1975.5332050244963,
            "pitch": 76,
            "startTime": 0,
            "endTime": 0.5
          },
          {
            "name": "F7",
            "midi": 101,
            "time": 0,
            "velocity": 0.7086614173228346,
            "duration": 0.5,
            "frequency": 2793.825851464031,
            "pitch": 76,
            "startTime": 0,
            "endTime": 0.5
          },
          {
            "name": "C#8",
            "midi": 109,
            "time": 0,
            "velocity": 0.7086614173228346,
            "duration": 0.5,
            "frequency": 4434.922095629954,
            "pitch": 76,
            "startTime": 0,
            "endTime": 0.5
          },
          {
            "name": "G8",
            "midi": 115,
            "time": 0,
            "velocity": 0.7086614173228346,
            "duration": 0.5,
            "frequency": 6271.926975707989,
            "pitch": 76,
            "startTime": 0,
            "endTime": 0.5
          },
          {
            "name": "F#9",
            "midi": 126,
            "time": 0,
            "velocity": 0.7086614173228346,
            "duration": 0.5,
            "frequency": 11839.821526772303,
            "pitch": 76,
            "startTime": 0,
            "endTime": 0.5
          },
          {
            "name": "G9",
            "midi": 127,
            "time": 0,
            "velocity": 0.7086614173228346,
            "duration": 0.5,
            "frequency": 12543.853951415975,
            "pitch": 76,
            "startTime": 0,
            "endTime": 0.5
          },
          {
            "name": "E3",
            "midi": 52,
            "time": 0.5,
            "velocity": 0.7086614173228346,
            "duration": 0.5,
            "frequency": 164.81377845643496,
            "pitch": 52,
            "startTime": 0.5,
            "endTime": 1
          },
          {
            "name": "C#4",
            "midi": 61,
            "time": 0.5,
            "velocity": 0.7086614173228346,
            "duration": 0.5,
            "frequency": 277.1826309768721,
            "pitch": 61,
            "startTime": 0.5,
            "endTime": 1
          },
          {
            "name": "A4",
            "midi": 69,
            "time": 0.5,
            "velocity": 0.7086614173228346,
            "duration": 0.5,
            "frequency": 440,
            "pitch": 69,
            "startTime": 0.5,
            "endTime": 1
          },
          {
            "name": "G5",
            "midi": 79,
            "time": 0.5,
            "velocity": 0.7086614173228346,
            "duration": 0.5,
            "frequency": 783.9908719634986,
            "pitch": 76,
            "startTime": 0.5,
            "endTime": 1
          },
          {
            "name": "G#5",
            "midi": 80,
            "time": 0.5,
            "velocity": 0.7086614173228346,
            "duration": 0.5,
            "frequency": 830.6093951598903,
            "pitch": 76,
            "startTime": 0.5,
            "endTime": 1
          },
          {
            "name": "F6",
            "midi": 89,
            "time": 0.5,
            "velocity": 0.7086614173228346,
            "duration": 0.5,
            "frequency": 1396.9129257320155,
            "pitch": 76,
            "startTime": 0.5,
            "endTime": 1
          },
          {
            "name": "F#6",
            "midi": 90,
            "time": 0.5,
            "velocity": 0.7086614173228346,
            "duration": 0.5,
            "frequency": 1479.9776908465378,
            "pitch": 76,
            "startTime": 0.5,
            "endTime": 1
          },
          {
            "name": "C#7",
            "midi": 97,
            "time": 0.5,
            "velocity": 0.7086614173228346,
            "duration": 0.5,
            "frequency": 2217.461047814977,
            "pitch": 76,
            "startTime": 0.5,
            "endTime": 1
          },
          {
            "name": "F7",
            "midi": 101,
            "time": 0.5,
            "velocity": 0.7086614173228346,
            "duration": 0.5,
            "frequency": 2793.825851464031,
            "pitch": 76,
            "startTime": 0.5,
            "endTime": 1
          },
          {
            "name": "C#8",
            "midi": 109,
            "time": 0.5,
            "velocity": 0.7086614173228346,
            "duration": 0.5,
            "frequency": 4434.922095629954,
            "pitch": 76,
            "startTime": 0.5,
            "endTime": 1
          }
        ],
        "controlChanges": {},
        "id": 0,
        "channelNumber": 0,
        "isPercussion": false
      }
    ]
  },
  "corylus colurna_french": {
    "header": {
      "PPQ": 128,
      "bpm": 120,
      "name": ""
    },
    "startTime": 0,
    "duration": 6.5,
    "tracks": [
      {
        "startTime": 0,
        "duration": 6.5,
        "length": 15,
        "notes": [
          {
            "name": "C5",
            "midi": 72,
            "time": 0,
            "velocity": 0.7086614173228346,
            "duration": 1,
            "frequency": 523.2511306011972,
            "pitch": 72,
            "startTime": 0,
            "endTime": 1
          },
          {
            "name": "A4",
            "midi": 69,
            "time": 1,
            "velocity": 0.7086614173228346,
            "duration": 0.25,
            "frequency": 440,
            "pitch": 69,
            "startTime": 1,
            "endTime": 1.25
          },
          {
            "name": "D5",
            "midi": 74,
            "time": 1.25,
            "velocity": 0.7086614173228346,
            "duration": 0.25,
            "frequency": 587.3295358348151,
            "pitch": 74,
            "startTime": 1.25,
            "endTime": 1.5
          },
          {
            "name": "D5",
            "midi": 74,
            "time": 1.5,
            "velocity": 0.7086614173228346,
            "duration": 0.125,
            "frequency": 587.3295358348151,
            "pitch": 74,
            "startTime": 1.5,
            "endTime": 1.625
          },
          {
            "name": "E5",
            "midi": 76,
            "time": 1.625,
            "velocity": 0.7086614173228346,
            "duration": 0.5,
            "frequency": 659.2551138257398,
            "pitch": 76,
            "startTime": 1.625,
            "endTime": 2.125
          },
          {
            "name": "G5",
            "midi": 79,
            "time": 2.125,
            "velocity": 0.7086614173228346,
            "duration": 0.25,
            "frequency": 783.9908719634986,
            "pitch": 76,
            "startTime": 2.125,
            "endTime": 2.375
          },
          {
            "name": "E5",
            "midi": 76,
            "time": 2.375,
            "velocity": 0.7086614173228346,
            "duration": 0.25,
            "frequency": 659.2551138257398,
            "pitch": 76,
            "startTime": 2.375,
            "endTime": 2.625
          },
          {
            "name": "G5",
            "midi": 79,
            "time": 2.625,
            "velocity": 0.7086614173228346,
            "duration": 0.125,
            "frequency": 783.9908719634986,
            "pitch": 76,
            "startTime": 2.625,
            "endTime": 2.75
          },
          {
            "name": "C6",
            "midi": 84,
            "time": 2.75,
            "velocity": 0.7086614173228346,
            "duration": 1,
            "frequency": 1046.5022612023945,
            "pitch": 76,
            "startTime": 2.75,
            "endTime": 3.75
          },
          {
            "name": "A5",
            "midi": 81,
            "time": 3.75,
            "velocity": 0.7086614173228346,
            "duration": 0.25,
            "frequency": 880,
            "pitch": 76,
            "startTime": 3.75,
            "endTime": 4
          },
          {
            "name": "E5",
            "midi": 76,
            "time": 4,
            "velocity": 0.7086614173228346,
            "duration": 0.5,
            "frequency": 659.2551138257398,
            "pitch": 76,
            "startTime": 4,
            "endTime": 4.5
          },
          {
            "name": "G5",
            "midi": 79,
            "time": 4.5,
            "velocity": 0.7086614173228346,
            "duration": 0.25,
            "frequency": 783.9908719634986,
            "pitch": 76,
            "startTime": 4.5,
            "endTime": 4.75
          },
          {
            "name": "D5",
            "midi": 74,
            "time": 4.75,
            "velocity": 0.7086614173228346,
            "duration": 0.25,
            "frequency": 587.3295358348151,
            "pitch": 74,
            "startTime": 4.75,
            "endTime": 5
          },
          {
            "name": "G5",
            "midi": 79,
            "time": 5,
            "velocity": 0.7086614173228346,
            "duration": 0.5,
            "frequency": 783.9908719634986,
            "pitch": 76,
            "startTime": 5,
            "endTime": 5.5
          },
          {
            "name": "A5",
            "midi": 81,
            "time": 5.5,
            "velocity": 0.7086614173228346,
            "duration": 1,
            "frequency": 880,
            "pitch": 76,
            "startTime": 5.5,
            "endTime": 6.5
          }
        ],
        "controlChanges": {},
        "id": 0,
        "channelNumber": 0,
        "isPercussion": false
      }
    ]
  },
  "corylus colurna_keyboard": {
    "header": {
      "PPQ": 128,
      "bpm": 120,
      "name": ""
    },
    "startTime": 0,
    "duration": 1.875,
    "tracks": [
      {
        "startTime": 0,
        "duration": 1.875,
        "length": 15,
        "notes": [
          {
            "name": "B3",
            "midi": 59,
            "time": 0,
            "velocity": 0.7086614173228346,
            "duration": 0.125,
            "frequency": 246.9416506280621,
            "pitch": 59,
            "startTime": 0,
            "endTime": 0.125
          },
          {
            "name": "A#5",
            "midi": 82,
            "time": 0.125,
            "velocity": 0.7086614173228346,
            "duration": 0.125,
            "frequency": 932.3275230361799,
            "pitch": 76,
            "startTime": 0.125,
            "endTime": 0.25
          },
          {
            "name": "D4",
            "midi": 62,
            "time": 0.25,
            "velocity": 0.7086614173228346,
            "duration": 0.125,
            "frequency": 293.6647679174076,
            "pitch": 62,
            "startTime": 0.25,
            "endTime": 0.375
          },
          {
            "name": "A#4",
            "midi": 70,
            "time": 0.375,
            "velocity": 0.7086614173228346,
            "duration": 0.125,
            "frequency": 466.1637615180899,
            "pitch": 70,
            "startTime": 0.375,
            "endTime": 0.5
          },
          {
            "name": "B5",
            "midi": 83,
            "time": 0.5,
            "velocity": 0.7086614173228346,
            "duration": 0.125,
            "frequency": 987.7666025122484,
            "pitch": 76,
            "startTime": 0.5,
            "endTime": 0.625
          },
          {
            "name": "D5",
            "midi": 74,
            "time": 0.625,
            "velocity": 0.7086614173228346,
            "duration": 0.125,
            "frequency": 587.3295358348151,
            "pitch": 74,
            "startTime": 0.625,
            "endTime": 0.75
          },
          {
            "name": "F#3",
            "midi": 54,
            "time": 0.75,
            "velocity": 0.7086614173228346,
            "duration": 0.125,
            "frequency": 184.99721135581723,
            "pitch": 54,
            "startTime": 0.75,
            "endTime": 0.875
          },
          {
            "name": "C4",
            "midi": 60,
            "time": 0.875,
            "velocity": 0.7086614173228346,
            "duration": 0.125,
            "frequency": 261.6255653005986,
            "pitch": 60,
            "startTime": 0.875,
            "endTime": 1
          },
          {
            "name": "B3",
            "midi": 59,
            "time": 1,
            "velocity": 0.7086614173228346,
            "duration": 0.125,
            "frequency": 246.9416506280621,
            "pitch": 59,
            "startTime": 1,
            "endTime": 1.125
          },
          {
            "name": "A#5",
            "midi": 82,
            "time": 1.125,
            "velocity": 0.7086614173228346,
            "duration": 0.125,
            "frequency": 932.3275230361799,
            "pitch": 76,
            "startTime": 1.125,
            "endTime": 1.25
          },
          {
            "name": "B5",
            "midi": 83,
            "time": 1.25,
            "velocity": 0.7086614173228346,
            "duration": 0.125,
            "frequency": 987.7666025122484,
            "pitch": 76,
            "startTime": 1.25,
            "endTime": 1.375
          },
          {
            "name": "D5",
            "midi": 74,
            "time": 1.375,
            "velocity": 0.7086614173228346,
            "duration": 0.125,
            "frequency": 587.3295358348151,
            "pitch": 74,
            "startTime": 1.375,
            "endTime": 1.5
          },
          {
            "name": "D4",
            "midi": 62,
            "time": 1.5,
            "velocity": 0.7086614173228346,
            "duration": 0.125,
            "frequency": 293.6647679174076,
            "pitch": 62,
            "startTime": 1.5,
            "endTime": 1.625
          },
          {
            "name": "C5",
            "midi": 72,
            "time": 1.625,
            "velocity": 0.7086614173228346,
            "duration": 0.125,
            "frequency": 523.2511306011972,
            "pitch": 72,
            "startTime": 1.625,
            "endTime": 1.75
          },
          {
            "name": "D3",
            "midi": 50,
            "time": 1.75,
            "velocity": 0.7086614173228346,
            "duration": 0.125,
            "frequency": 146.8323839587038,
            "pitch": 50,
            "startTime": 1.75,
            "endTime": 1.875
          }
        ],
        "controlChanges": {},
        "id": 0,
        "channelNumber": 0,
        "isPercussion": false
      }
    ]
  },
  "corylus colurna_chords": {
    "header": {
      "PPQ": 128,
      "bpm": 120,
      "name": ""
    },
    "startTime": 0,
    "duration": 1,
    "tracks": [
      {
        "startTime": 0,
        "duration": 1,
        "length": 14,
        "notes": [
          {
            "name": "C3",
            "midi": 48,
            "time": 0,
            "velocity": 0.7086614173228346,
            "duration": 0.5,
            "frequency": 130.8127826502993,
            "pitch": 48,
            "startTime": 0,
            "endTime": 0.5
          },
          {
            "name": "G#3",
            "midi": 56,
            "time": 0,
            "velocity": 0.7086614173228346,
            "duration": 0.5,
            "frequency": 207.65234878997256,
            "pitch": 56,
            "startTime": 0,
            "endTime": 0.5
          },
          {
            "name": "G4",
            "midi": 67,
            "time": 0,
            "velocity": 0.7086614173228346,
            "duration": 0.5,
            "frequency": 391.99543598174927,
            "pitch": 67,
            "startTime": 0,
            "endTime": 0.5
          },
          {
            "name": "B4",
            "midi": 71,
            "time": 0,
            "velocity": 0.7086614173228346,
            "duration": 0.5,
            "frequency": 493.8833012561242,
            "pitch": 71,
            "startTime": 0,
            "endTime": 0.5
          },
          {
            "name": "E5",
            "midi": 76,
            "time": 0,
            "velocity": 0.7086614173228346,
            "duration": 0.5,
            "frequency": 659.2551138257398,
            "pitch": 76,
            "startTime": 0,
            "endTime": 0.5
          },
          {
            "name": "A#5",
            "midi": 82,
            "time": 0,
            "velocity": 0.7086614173228346,
            "duration": 0.5,
            "frequency": 932.3275230361799,
            "pitch": 76,
            "startTime": 0,
            "endTime": 0.5
          },
          {
            "name": "G6",
            "midi": 91,
            "time": 0,
            "velocity": 0.7086614173228346,
            "duration": 0.5,
            "frequency": 1567.981743926997,
            "pitch": 76,
            "startTime": 0,
            "endTime": 0.5
          },
          {
            "name": "C3",
            "midi": 48,
            "time": 0.5,
            "velocity": 0.7086614173228346,
            "duration": 0.5,
            "frequency": 130.8127826502993,
            "pitch": 48,
            "startTime": 0.5,
            "endTime": 1
          },
          {
            "name": "G#3",
            "midi": 56,
            "time": 0.5,
            "velocity": 0.7086614173228346,
            "duration": 0.5,
            "frequency": 207.65234878997256,
            "pitch": 56,
            "startTime": 0.5,
            "endTime": 1
          },
          {
            "name": "E4",
            "midi": 64,
            "time": 0.5,
            "velocity": 0.7086614173228346,
            "duration": 0.5,
            "frequency": 329.6275569128699,
            "pitch": 64,
            "startTime": 0.5,
            "endTime": 1
          },
          {
            "name": "A#4",
            "midi": 70,
            "time": 0.5,
            "velocity": 0.7086614173228346,
            "duration": 0.5,
            "frequency": 466.1637615180899,
            "pitch": 70,
            "startTime": 0.5,
            "endTime": 1
          },
          {
            "name": "G5",
            "midi": 79,
            "time": 0.5,
            "velocity": 0.7086614173228346,
            "duration": 0.5,
            "frequency": 783.9908719634986,
            "pitch": 76,
            "startTime": 0.5,
            "endTime": 1
          },
          {
            "name": "F6",
            "midi": 89,
            "time": 0.5,
            "velocity": 0.7086614173228346,
            "duration": 0.5,
            "frequency": 1396.9129257320155,
            "pitch": 76,
            "startTime": 0.5,
            "endTime": 1
          },
          {
            "name": "C#7",
            "midi": 97,
            "time": 0.5,
            "velocity": 0.7086614173228346,
            "duration": 0.5,
            "frequency": 2217.461047814977,
            "pitch": 76,
            "startTime": 0.5,
            "endTime": 1
          }
        ],
        "controlChanges": {},
        "id": 0,
        "channelNumber": 0,
        "isPercussion": false
      }
    ]
  },
  "cotoneaster_french": {
    "header": {
      "PPQ": 128,
      "bpm": 120,
      "name": ""
    },
    "startTime": 0,
    "duration": 6,
    "tracks": [
      {
        "startTime": 0,
        "duration": 6,
        "length": 11,
        "notes": [
          {
            "name": "C5",
            "midi": 72,
            "time": 0,
            "velocity": 0.7086614173228346,
            "duration": 1,
            "frequency": 523.2511306011972,
            "pitch": 72,
            "startTime": 0,
            "endTime": 1
          },
          {
            "name": "A4",
            "midi": 69,
            "time": 1,
            "velocity": 0.7086614173228346,
            "duration": 0.25,
            "frequency": 440,
            "pitch": 69,
            "startTime": 1,
            "endTime": 1.25
          },
          {
            "name": "F4",
            "midi": 65,
            "time": 1.25,
            "velocity": 0.7086614173228346,
            "duration": 0.25,
            "frequency": 349.2282314330039,
            "pitch": 65,
            "startTime": 1.25,
            "endTime": 1.5
          },
          {
            "name": "A4",
            "midi": 69,
            "time": 1.5,
            "velocity": 0.7086614173228346,
            "duration": 0.25,
            "frequency": 440,
            "pitch": 69,
            "startTime": 1.5,
            "endTime": 1.75
          },
          {
            "name": "G4",
            "midi": 67,
            "time": 1.75,
            "velocity": 0.7086614173228346,
            "duration": 0.5,
            "frequency": 391.99543598174927,
            "pitch": 67,
            "startTime": 1.75,
            "endTime": 2.25
          },
          {
            "name": "E4",
            "midi": 64,
            "time": 2.25,
            "velocity": 0.7086614173228346,
            "duration": 1,
            "frequency": 329.6275569128699,
            "pitch": 64,
            "startTime": 2.25,
            "endTime": 3.25
          },
          {
            "name": "A4",
            "midi": 69,
            "time": 3.25,
            "velocity": 0.7086614173228346,
            "duration": 1,
            "frequency": 440,
            "pitch": 69,
            "startTime": 3.25,
            "endTime": 4.25
          },
          {
            "name": "E4",
            "midi": 64,
            "time": 4.25,
            "velocity": 0.7086614173228346,
            "duration": 0.25,
            "frequency": 329.6275569128699,
            "pitch": 64,
            "startTime": 4.25,
            "endTime": 4.5
          },
          {
            "name": "F4",
            "midi": 65,
            "time": 4.5,
            "velocity": 0.7086614173228346,
            "duration": 0.25,
            "frequency": 349.2282314330039,
            "pitch": 65,
            "startTime": 4.5,
            "endTime": 4.75
          },
          {
            "name": "E4",
            "midi": 64,
            "time": 4.75,
            "velocity": 0.7086614173228346,
            "duration": 1,
            "frequency": 329.6275569128699,
            "pitch": 64,
            "startTime": 4.75,
            "endTime": 5.75
          },
          {
            "name": "D4",
            "midi": 62,
            "time": 5.75,
            "velocity": 0.7086614173228346,
            "duration": 0.25,
            "frequency": 293.6647679174076,
            "pitch": 62,
            "startTime": 5.75,
            "endTime": 6
          }
        ],
        "controlChanges": {},
        "id": 0,
        "channelNumber": 0,
        "isPercussion": false
      }
    ]
  },
  "cotoneaster_keyboard": {
    "header": {
      "PPQ": 128,
      "bpm": 120,
      "name": ""
    },
    "startTime": 0,
    "duration": 1.375,
    "tracks": [
      {
        "startTime": 0,
        "duration": 1.375,
        "length": 11,
        "notes": [
          {
            "name": "B3",
            "midi": 59,
            "time": 0,
            "velocity": 0.7086614173228346,
            "duration": 0.125,
            "frequency": 246.9416506280621,
            "pitch": 59,
            "startTime": 0,
            "endTime": 0.125
          },
          {
            "name": "A#5",
            "midi": 82,
            "time": 0.125,
            "velocity": 0.7086614173228346,
            "duration": 0.125,
            "frequency": 932.3275230361799,
            "pitch": 76,
            "startTime": 0.125,
            "endTime": 0.25
          },
          {
            "name": "F#4",
            "midi": 66,
            "time": 0.25,
            "velocity": 0.7086614173228346,
            "duration": 0.125,
            "frequency": 369.99442271163446,
            "pitch": 66,
            "startTime": 0.25,
            "endTime": 0.375
          },
          {
            "name": "A#5",
            "midi": 82,
            "time": 0.375,
            "velocity": 0.7086614173228346,
            "duration": 0.125,
            "frequency": 932.3275230361799,
            "pitch": 76,
            "startTime": 0.375,
            "endTime": 0.5
          },
          {
            "name": "C5",
            "midi": 72,
            "time": 0.5,
            "velocity": 0.7086614173228346,
            "duration": 0.125,
            "frequency": 523.2511306011972,
            "pitch": 72,
            "startTime": 0.5,
            "endTime": 0.625
          },
          {
            "name": "A3",
            "midi": 57,
            "time": 0.625,
            "velocity": 0.7086614173228346,
            "duration": 0.125,
            "frequency": 220,
            "pitch": 57,
            "startTime": 0.625,
            "endTime": 0.75
          },
          {
            "name": "D3",
            "midi": 50,
            "time": 0.75,
            "velocity": 0.7086614173228346,
            "duration": 0.125,
            "frequency": 146.8323839587038,
            "pitch": 50,
            "startTime": 0.75,
            "endTime": 0.875
          },
          {
            "name": "F#3",
            "midi": 54,
            "time": 0.875,
            "velocity": 0.7086614173228346,
            "duration": 0.125,
            "frequency": 184.99721135581723,
            "pitch": 54,
            "startTime": 0.875,
            "endTime": 1
          },
          {
            "name": "F#4",
            "midi": 66,
            "time": 1,
            "velocity": 0.7086614173228346,
            "duration": 0.125,
            "frequency": 369.99442271163446,
            "pitch": 66,
            "startTime": 1,
            "endTime": 1.125
          },
          {
            "name": "A3",
            "midi": 57,
            "time": 1.125,
            "velocity": 0.7086614173228346,
            "duration": 0.125,
            "frequency": 220,
            "pitch": 57,
            "startTime": 1.125,
            "endTime": 1.25
          },
          {
            "name": "D4",
            "midi": 62,
            "time": 1.25,
            "velocity": 0.7086614173228346,
            "duration": 0.125,
            "frequency": 293.6647679174076,
            "pitch": 62,
            "startTime": 1.25,
            "endTime": 1.375
          }
        ],
        "controlChanges": {},
        "id": 0,
        "channelNumber": 0,
        "isPercussion": false
      }
    ]
  },
  "cotoneaster_chords": {
    "header": {
      "PPQ": 128,
      "bpm": 120,
      "name": ""
    },
    "startTime": 0,
    "duration": 0.5,
    "tracks": [
      {
        "startTime": 0,
        "duration": 0.5,
        "length": 11,
        "notes": [
          {
            "name": "C3",
            "midi": 48,
            "time": 0,
            "velocity": 0.7086614173228346,
            "duration": 0.5,
            "frequency": 130.8127826502993,
            "pitch": 48,
            "startTime": 0,
            "endTime": 0.5
          },
          {
            "name": "G#3",
            "midi": 56,
            "time": 0,
            "velocity": 0.7086614173228346,
            "duration": 0.5,
            "frequency": 207.65234878997256,
            "pitch": 56,
            "startTime": 0,
            "endTime": 0.5
          },
          {
            "name": "A3",
            "midi": 57,
            "time": 0,
            "velocity": 0.7086614173228346,
            "duration": 0.5,
            "frequency": 220,
            "pitch": 57,
            "startTime": 0,
            "endTime": 0.5
          },
          {
            "name": "G#4",
            "midi": 68,
            "time": 0,
            "velocity": 0.7086614173228346,
            "duration": 0.5,
            "frequency": 415.3046975799451,
            "pitch": 68,
            "startTime": 0,
            "endTime": 0.5
          },
          {
            "name": "F5",
            "midi": 77,
            "time": 0,
            "velocity": 0.7086614173228346,
            "duration": 0.5,
            "frequency": 698.4564628660078,
            "pitch": 76,
            "startTime": 0,
            "endTime": 0.5
          },
          {
            "name": "D#6",
            "midi": 87,
            "time": 0,
            "velocity": 0.7086614173228346,
            "duration": 0.5,
            "frequency": 1244.5079348883235,
            "pitch": 76,
            "startTime": 0,
            "endTime": 0.5
          },
          {
            "name": "C#7",
            "midi": 97,
            "time": 0,
            "velocity": 0.7086614173228346,
            "duration": 0.5,
            "frequency": 2217.461047814977,
            "pitch": 76,
            "startTime": 0,
            "endTime": 0.5
          },
          {
            "name": "G7",
            "midi": 103,
            "time": 0,
            "velocity": 0.7086614173228346,
            "duration": 0.5,
            "frequency": 3135.9634878539946,
            "pitch": 76,
            "startTime": 0,
            "endTime": 0.5
          },
          {
            "name": "A7",
            "midi": 105,
            "time": 0,
            "velocity": 0.7086614173228346,
            "duration": 0.5,
            "frequency": 3520,
            "pitch": 76,
            "startTime": 0,
            "endTime": 0.5
          },
          {
            "name": "D#8",
            "midi": 111,
            "time": 0,
            "velocity": 0.7086614173228346,
            "duration": 0.5,
            "frequency": 4978.031739553294,
            "pitch": 76,
            "startTime": 0,
            "endTime": 0.5
          },
          {
            "name": "G8",
            "midi": 115,
            "time": 0,
            "velocity": 0.7086614173228346,
            "duration": 0.5,
            "frequency": 6271.926975707989,
            "pitch": 76,
            "startTime": 0,
            "endTime": 0.5
          }
        ],
        "controlChanges": {},
        "id": 0,
        "channelNumber": 0,
        "isPercussion": false
      }
    ]
  },
  "crataegus monogyna_french": {
    "header": {
      "PPQ": 128,
      "bpm": 120,
      "name": ""
    },
    "startTime": 0,
    "duration": 10.25,
    "tracks": [
      {
        "startTime": 0,
        "duration": 10.25,
        "length": 18,
        "notes": [
          {
            "name": "C5",
            "midi": 72,
            "time": 0,
            "velocity": 0.7086614173228346,
            "duration": 1,
            "frequency": 523.2511306011972,
            "pitch": 72,
            "startTime": 0,
            "endTime": 1
          },
          {
            "name": "D5",
            "midi": 74,
            "time": 1,
            "velocity": 0.7086614173228346,
            "duration": 0.25,
            "frequency": 587.3295358348151,
            "pitch": 74,
            "startTime": 1,
            "endTime": 1.25
          },
          {
            "name": "A4",
            "midi": 69,
            "time": 1.25,
            "velocity": 0.7086614173228346,
            "duration": 1,
            "frequency": 440,
            "pitch": 69,
            "startTime": 1.25,
            "endTime": 2.25
          },
          {
            "name": "F4",
            "midi": 65,
            "time": 2.25,
            "velocity": 0.7086614173228346,
            "duration": 0.25,
            "frequency": 349.2282314330039,
            "pitch": 65,
            "startTime": 2.25,
            "endTime": 2.5
          },
          {
            "name": "A4",
            "midi": 69,
            "time": 2.5,
            "velocity": 0.7086614173228346,
            "duration": 1,
            "frequency": 440,
            "pitch": 69,
            "startTime": 2.5,
            "endTime": 3.5
          },
          {
            "name": "E4",
            "midi": 64,
            "time": 3.5,
            "velocity": 0.7086614173228346,
            "duration": 1,
            "frequency": 329.6275569128699,
            "pitch": 64,
            "startTime": 3.5,
            "endTime": 4.5
          },
          {
            "name": "G4",
            "midi": 67,
            "time": 4.5,
            "velocity": 0.7086614173228346,
            "duration": 1,
            "frequency": 391.99543598174927,
            "pitch": 67,
            "startTime": 4.5,
            "endTime": 5.5
          },
          {
            "name": "G4",
            "midi": 67,
            "time": 5.5,
            "velocity": 0.7086614173228346,
            "duration": 0.25,
            "frequency": 391.99543598174927,
            "pitch": 67,
            "startTime": 5.5,
            "endTime": 5.75
          },
          {
            "name": "E4",
            "midi": 64,
            "time": 5.75,
            "velocity": 0.7086614173228346,
            "duration": 0.25,
            "frequency": 329.6275569128699,
            "pitch": 64,
            "startTime": 5.75,
            "endTime": 6
          },
          {
            "name": "G4",
            "midi": 67,
            "time": 6,
            "velocity": 0.7086614173228346,
            "duration": 0.125,
            "frequency": 391.99543598174927,
            "pitch": 67,
            "startTime": 6,
            "endTime": 6.125
          },
          {
            "name": "F4",
            "midi": 65,
            "time": 6.125,
            "velocity": 0.7086614173228346,
            "duration": 0.5,
            "frequency": 349.2282314330039,
            "pitch": 65,
            "startTime": 6.125,
            "endTime": 6.625
          },
          {
            "name": "A4",
            "midi": 69,
            "time": 6.625,
            "velocity": 0.7086614173228346,
            "duration": 0.25,
            "frequency": 440,
            "pitch": 69,
            "startTime": 6.625,
            "endTime": 6.875
          },
          {
            "name": "G4",
            "midi": 67,
            "time": 6.875,
            "velocity": 0.7086614173228346,
            "duration": 0.5,
            "frequency": 391.99543598174927,
            "pitch": 67,
            "startTime": 6.875,
            "endTime": 7.375
          },
          {
            "name": "A4",
            "midi": 69,
            "time": 7.375,
            "velocity": 0.7086614173228346,
            "duration": 0.25,
            "frequency": 440,
            "pitch": 69,
            "startTime": 7.375,
            "endTime": 7.625
          },
          {
            "name": "G4",
            "midi": 67,
            "time": 7.625,
            "velocity": 0.7086614173228346,
            "duration": 1,
            "frequency": 391.99543598174927,
            "pitch": 67,
            "startTime": 7.625,
            "endTime": 8.625
          },
          {
            "name": "D4",
            "midi": 62,
            "time": 8.625,
            "velocity": 0.7086614173228346,
            "duration": 0.125,
            "frequency": 293.6647679174076,
            "pitch": 62,
            "startTime": 8.625,
            "endTime": 8.75
          },
          {
            "name": "G4",
            "midi": 67,
            "time": 8.75,
            "velocity": 0.7086614173228346,
            "duration": 0.5,
            "frequency": 391.99543598174927,
            "pitch": 67,
            "startTime": 8.75,
            "endTime": 9.25
          },
          {
            "name": "A4",
            "midi": 69,
            "time": 9.25,
            "velocity": 0.7086614173228346,
            "duration": 1,
            "frequency": 440,
            "pitch": 69,
            "startTime": 9.25,
            "endTime": 10.25
          }
        ],
        "controlChanges": {},
        "id": 0,
        "channelNumber": 0,
        "isPercussion": false
      }
    ]
  },
  "crataegus monogyna_keyboard": {
    "header": {
      "PPQ": 128,
      "bpm": 120,
      "name": ""
    },
    "startTime": 0,
    "duration": 2.25,
    "tracks": [
      {
        "startTime": 0,
        "duration": 2.25,
        "length": 18,
        "notes": [
          {
            "name": "B3",
            "midi": 59,
            "time": 0,
            "velocity": 0.7086614173228346,
            "duration": 0.125,
            "frequency": 246.9416506280621,
            "pitch": 59,
            "startTime": 0,
            "endTime": 0.125
          },
          {
            "name": "D4",
            "midi": 62,
            "time": 0.125,
            "velocity": 0.7086614173228346,
            "duration": 0.125,
            "frequency": 293.6647679174076,
            "pitch": 62,
            "startTime": 0.125,
            "endTime": 0.25
          },
          {
            "name": "D3",
            "midi": 50,
            "time": 0.25,
            "velocity": 0.7086614173228346,
            "duration": 0.125,
            "frequency": 146.8323839587038,
            "pitch": 50,
            "startTime": 0.25,
            "endTime": 0.375
          },
          {
            "name": "F#4",
            "midi": 66,
            "time": 0.375,
            "velocity": 0.7086614173228346,
            "duration": 0.125,
            "frequency": 369.99442271163446,
            "pitch": 66,
            "startTime": 0.375,
            "endTime": 0.5
          },
          {
            "name": "D3",
            "midi": 50,
            "time": 0.5,
            "velocity": 0.7086614173228346,
            "duration": 0.125,
            "frequency": 146.8323839587038,
            "pitch": 50,
            "startTime": 0.5,
            "endTime": 0.625
          },
          {
            "name": "A3",
            "midi": 57,
            "time": 0.625,
            "velocity": 0.7086614173228346,
            "duration": 0.125,
            "frequency": 220,
            "pitch": 57,
            "startTime": 0.625,
            "endTime": 0.75
          },
          {
            "name": "G4",
            "midi": 67,
            "time": 0.75,
            "velocity": 0.7086614173228346,
            "duration": 0.125,
            "frequency": 391.99543598174927,
            "pitch": 67,
            "startTime": 0.75,
            "endTime": 0.875
          },
          {
            "name": "D5",
            "midi": 74,
            "time": 0.875,
            "velocity": 0.7086614173228346,
            "duration": 0.125,
            "frequency": 587.3295358348151,
            "pitch": 74,
            "startTime": 0.875,
            "endTime": 1
          },
          {
            "name": "F#3",
            "midi": 54,
            "time": 1,
            "velocity": 0.7086614173228346,
            "duration": 0.125,
            "frequency": 184.99721135581723,
            "pitch": 54,
            "startTime": 1,
            "endTime": 1.125
          },
          {
            "name": "C4",
            "midi": 60,
            "time": 1.125,
            "velocity": 0.7086614173228346,
            "duration": 0.125,
            "frequency": 261.6255653005986,
            "pitch": 60,
            "startTime": 1.125,
            "endTime": 1.25
          },
          {
            "name": "E5",
            "midi": 76,
            "time": 1.25,
            "velocity": 0.7086614173228346,
            "duration": 0.125,
            "frequency": 659.2551138257398,
            "pitch": 76,
            "startTime": 1.25,
            "endTime": 1.375
          },
          {
            "name": "A#5",
            "midi": 82,
            "time": 1.375,
            "velocity": 0.7086614173228346,
            "duration": 0.125,
            "frequency": 932.3275230361799,
            "pitch": 76,
            "startTime": 1.375,
            "endTime": 1.5
          },
          {
            "name": "C5",
            "midi": 72,
            "time": 1.5,
            "velocity": 0.7086614173228346,
            "duration": 0.125,
            "frequency": 523.2511306011972,
            "pitch": 72,
            "startTime": 1.5,
            "endTime": 1.625
          },
          {
            "name": "A#5",
            "midi": 82,
            "time": 1.625,
            "velocity": 0.7086614173228346,
            "duration": 0.125,
            "frequency": 932.3275230361799,
            "pitch": 76,
            "startTime": 1.625,
            "endTime": 1.75
          },
          {
            "name": "G4",
            "midi": 67,
            "time": 1.75,
            "velocity": 0.7086614173228346,
            "duration": 0.125,
            "frequency": 391.99543598174927,
            "pitch": 67,
            "startTime": 1.75,
            "endTime": 1.875
          },
          {
            "name": "A#4",
            "midi": 70,
            "time": 1.875,
            "velocity": 0.7086614173228346,
            "duration": 0.125,
            "frequency": 466.1637615180899,
            "pitch": 70,
            "startTime": 1.875,
            "endTime": 2
          },
          {
            "name": "C5",
            "midi": 72,
            "time": 2,
            "velocity": 0.7086614173228346,
            "duration": 0.125,
            "frequency": 523.2511306011972,
            "pitch": 72,
            "startTime": 2,
            "endTime": 2.125
          },
          {
            "name": "D3",
            "midi": 50,
            "time": 2.125,
            "velocity": 0.7086614173228346,
            "duration": 0.125,
            "frequency": 146.8323839587038,
            "pitch": 50,
            "startTime": 2.125,
            "endTime": 2.25
          }
        ],
        "controlChanges": {},
        "id": 0,
        "channelNumber": 0,
        "isPercussion": false
      }
    ]
  },
  "crataegus monogyna_chords": {
    "header": {
      "PPQ": 128,
      "bpm": 120,
      "name": ""
    },
    "startTime": 0,
    "duration": 1,
    "tracks": [
      {
        "startTime": 0,
        "duration": 1,
        "length": 17,
        "notes": [
          {
            "name": "C3",
            "midi": 48,
            "time": 0,
            "velocity": 0.7086614173228346,
            "duration": 0.5,
            "frequency": 130.8127826502993,
            "pitch": 48,
            "startTime": 0,
            "endTime": 0.5
          },
          {
            "name": "G3",
            "midi": 55,
            "time": 0,
            "velocity": 0.7086614173228346,
            "duration": 0.5,
            "frequency": 195.99771799087463,
            "pitch": 55,
            "startTime": 0,
            "endTime": 0.5
          },
          {
            "name": "C#4",
            "midi": 61,
            "time": 0,
            "velocity": 0.7086614173228346,
            "duration": 0.5,
            "frequency": 277.1826309768721,
            "pitch": 61,
            "startTime": 0,
            "endTime": 0.5
          },
          {
            "name": "A4",
            "midi": 69,
            "time": 0,
            "velocity": 0.7086614173228346,
            "duration": 0.5,
            "frequency": 440,
            "pitch": 69,
            "startTime": 0,
            "endTime": 0.5
          },
          {
            "name": "C#5",
            "midi": 73,
            "time": 0,
            "velocity": 0.7086614173228346,
            "duration": 0.5,
            "frequency": 554.3652619537442,
            "pitch": 73,
            "startTime": 0,
            "endTime": 0.5
          },
          {
            "name": "D#5",
            "midi": 75,
            "time": 0,
            "velocity": 0.7086614173228346,
            "duration": 0.5,
            "frequency": 622.2539674441618,
            "pitch": 75,
            "startTime": 0,
            "endTime": 0.5
          },
          {
            "name": "D6",
            "midi": 86,
            "time": 0,
            "velocity": 0.7086614173228346,
            "duration": 0.5,
            "frequency": 1174.6590716696303,
            "pitch": 76,
            "startTime": 0,
            "endTime": 0.5
          },
          {
            "name": "A#6",
            "midi": 94,
            "time": 0,
            "velocity": 0.7086614173228346,
            "duration": 0.5,
            "frequency": 1864.6550460723597,
            "pitch": 76,
            "startTime": 0,
            "endTime": 0.5
          },
          {
            "name": "G7",
            "midi": 103,
            "time": 0,
            "velocity": 0.7086614173228346,
            "duration": 0.5,
            "frequency": 3135.9634878539946,
            "pitch": 76,
            "startTime": 0,
            "endTime": 0.5
          },
          {
            "name": "F3",
            "midi": 53,
            "time": 0.5,
            "velocity": 0.7086614173228346,
            "duration": 0.5,
            "frequency": 174.61411571650194,
            "pitch": 53,
            "startTime": 0.5,
            "endTime": 1
          },
          {
            "name": "G#3",
            "midi": 56,
            "time": 0.5,
            "velocity": 0.7086614173228346,
            "duration": 0.5,
            "frequency": 207.65234878997256,
            "pitch": 56,
            "startTime": 0.5,
            "endTime": 1
          },
          {
            "name": "F4",
            "midi": 65,
            "time": 0.5,
            "velocity": 0.7086614173228346,
            "duration": 0.5,
            "frequency": 349.2282314330039,
            "pitch": 65,
            "startTime": 0.5,
            "endTime": 1
          },
          {
            "name": "G#4",
            "midi": 68,
            "time": 0.5,
            "velocity": 0.7086614173228346,
            "duration": 0.5,
            "frequency": 415.3046975799451,
            "pitch": 68,
            "startTime": 0.5,
            "endTime": 1
          },
          {
            "name": "D5",
            "midi": 74,
            "time": 0.5,
            "velocity": 0.7086614173228346,
            "duration": 0.5,
            "frequency": 587.3295358348151,
            "pitch": 74,
            "startTime": 0.5,
            "endTime": 1
          },
          {
            "name": "B5",
            "midi": 83,
            "time": 0.5,
            "velocity": 0.7086614173228346,
            "duration": 0.5,
            "frequency": 987.7666025122484,
            "pitch": 76,
            "startTime": 0.5,
            "endTime": 1
          },
          {
            "name": "F6",
            "midi": 89,
            "time": 0.5,
            "velocity": 0.7086614173228346,
            "duration": 0.5,
            "frequency": 1396.9129257320155,
            "pitch": 76,
            "startTime": 0.5,
            "endTime": 1
          },
          {
            "name": "C#7",
            "midi": 97,
            "time": 0.5,
            "velocity": 0.7086614173228346,
            "duration": 0.5,
            "frequency": 2217.461047814977,
            "pitch": 76,
            "startTime": 0.5,
            "endTime": 1
          }
        ],
        "controlChanges": {},
        "id": 0,
        "channelNumber": 0,
        "isPercussion": false
      }
    ]
  },
  "cupressus nootkatensis_french": {
    "header": {
      "PPQ": 128,
      "bpm": 120,
      "name": ""
    },
    "startTime": 0,
    "duration": 9.375,
    "tracks": [
      {
        "startTime": 0,
        "duration": 9.375,
        "length": 22,
        "notes": [
          {
            "name": "C5",
            "midi": 72,
            "time": 0,
            "velocity": 0.7086614173228346,
            "duration": 1,
            "frequency": 523.2511306011972,
            "pitch": 72,
            "startTime": 0,
            "endTime": 1
          },
          {
            "name": "G4",
            "midi": 67,
            "time": 1,
            "velocity": 0.7086614173228346,
            "duration": 0.25,
            "frequency": 391.99543598174927,
            "pitch": 67,
            "startTime": 1,
            "endTime": 1.25
          },
          {
            "name": "B4",
            "midi": 71,
            "time": 1.25,
            "velocity": 0.7086614173228346,
            "duration": 0.25,
            "frequency": 493.8833012561242,
            "pitch": 71,
            "startTime": 1.25,
            "endTime": 1.5
          },
          {
            "name": "D5",
            "midi": 74,
            "time": 1.5,
            "velocity": 0.7086614173228346,
            "duration": 0.25,
            "frequency": 587.3295358348151,
            "pitch": 74,
            "startTime": 1.5,
            "endTime": 1.75
          },
          {
            "name": "E5",
            "midi": 76,
            "time": 1.75,
            "velocity": 0.7086614173228346,
            "duration": 1,
            "frequency": 659.2551138257398,
            "pitch": 76,
            "startTime": 1.75,
            "endTime": 2.75
          },
          {
            "name": "E5",
            "midi": 76,
            "time": 2.75,
            "velocity": 0.7086614173228346,
            "duration": 0.25,
            "frequency": 659.2551138257398,
            "pitch": 76,
            "startTime": 2.75,
            "endTime": 3
          },
          {
            "name": "E5",
            "midi": 76,
            "time": 3,
            "velocity": 0.7086614173228346,
            "duration": 0.25,
            "frequency": 659.2551138257398,
            "pitch": 76,
            "startTime": 3,
            "endTime": 3.25
          },
          {
            "name": "G5",
            "midi": 79,
            "time": 3.25,
            "velocity": 0.7086614173228346,
            "duration": 0.25,
            "frequency": 783.9908719634986,
            "pitch": 76,
            "startTime": 3.25,
            "endTime": 3.5
          },
          {
            "name": "E5",
            "midi": 76,
            "time": 3.5,
            "velocity": 0.7086614173228346,
            "duration": 0.25,
            "frequency": 659.2551138257398,
            "pitch": 76,
            "startTime": 3.5,
            "endTime": 3.75
          },
          {
            "name": "G5",
            "midi": 79,
            "time": 3.75,
            "velocity": 0.7086614173228346,
            "duration": 0.125,
            "frequency": 783.9908719634986,
            "pitch": 76,
            "startTime": 3.75,
            "endTime": 3.875
          },
          {
            "name": "G5",
            "midi": 79,
            "time": 3.875,
            "velocity": 0.7086614173228346,
            "duration": 0.5,
            "frequency": 783.9908719634986,
            "pitch": 76,
            "startTime": 3.875,
            "endTime": 4.375
          },
          {
            "name": "A5",
            "midi": 81,
            "time": 4.375,
            "velocity": 0.7086614173228346,
            "duration": 0.25,
            "frequency": 880,
            "pitch": 76,
            "startTime": 4.375,
            "endTime": 4.625
          },
          {
            "name": "A5",
            "midi": 81,
            "time": 4.625,
            "velocity": 0.7086614173228346,
            "duration": 0.25,
            "frequency": 880,
            "pitch": 76,
            "startTime": 4.625,
            "endTime": 4.875
          },
          {
            "name": "F5",
            "midi": 77,
            "time": 4.875,
            "velocity": 0.7086614173228346,
            "duration": 0.25,
            "frequency": 698.4564628660078,
            "pitch": 76,
            "startTime": 4.875,
            "endTime": 5.125
          },
          {
            "name": "D5",
            "midi": 74,
            "time": 5.125,
            "velocity": 0.7086614173228346,
            "duration": 0.5,
            "frequency": 587.3295358348151,
            "pitch": 74,
            "startTime": 5.125,
            "endTime": 5.625
          },
          {
            "name": "A4",
            "midi": 69,
            "time": 5.625,
            "velocity": 0.7086614173228346,
            "duration": 1,
            "frequency": 440,
            "pitch": 69,
            "startTime": 5.625,
            "endTime": 6.625
          },
          {
            "name": "F4",
            "midi": 65,
            "time": 6.625,
            "velocity": 0.7086614173228346,
            "duration": 0.25,
            "frequency": 349.2282314330039,
            "pitch": 65,
            "startTime": 6.625,
            "endTime": 6.875
          },
          {
            "name": "E4",
            "midi": 64,
            "time": 6.875,
            "velocity": 0.7086614173228346,
            "duration": 1,
            "frequency": 329.6275569128699,
            "pitch": 64,
            "startTime": 6.875,
            "endTime": 7.875
          },
          {
            "name": "G4",
            "midi": 67,
            "time": 7.875,
            "velocity": 0.7086614173228346,
            "duration": 0.5,
            "frequency": 391.99543598174927,
            "pitch": 67,
            "startTime": 7.875,
            "endTime": 8.375
          },
          {
            "name": "E4",
            "midi": 64,
            "time": 8.375,
            "velocity": 0.7086614173228346,
            "duration": 0.25,
            "frequency": 329.6275569128699,
            "pitch": 64,
            "startTime": 8.375,
            "endTime": 8.625
          },
          {
            "name": "B3",
            "midi": 59,
            "time": 8.625,
            "velocity": 0.7086614173228346,
            "duration": 0.5,
            "frequency": 246.9416506280621,
            "pitch": 59,
            "startTime": 8.625,
            "endTime": 9.125
          },
          {
            "name": "E4",
            "midi": 64,
            "time": 9.125,
            "velocity": 0.7086614173228346,
            "duration": 0.25,
            "frequency": 329.6275569128699,
            "pitch": 64,
            "startTime": 9.125,
            "endTime": 9.375
          }
        ],
        "controlChanges": {},
        "id": 0,
        "channelNumber": 0,
        "isPercussion": false
      }
    ]
  },
  "cupressus nootkatensis_keyboard": {
    "header": {
      "PPQ": 128,
      "bpm": 120,
      "name": ""
    },
    "startTime": 0,
    "duration": 2.75,
    "tracks": [
      {
        "startTime": 0,
        "duration": 2.75,
        "length": 22,
        "notes": [
          {
            "name": "B3",
            "midi": 59,
            "time": 0,
            "velocity": 0.7086614173228346,
            "duration": 0.125,
            "frequency": 246.9416506280621,
            "pitch": 59,
            "startTime": 0,
            "endTime": 0.125
          },
          {
            "name": "D5",
            "midi": 74,
            "time": 0.125,
            "velocity": 0.7086614173228346,
            "duration": 0.125,
            "frequency": 587.3295358348151,
            "pitch": 74,
            "startTime": 0.125,
            "endTime": 0.25
          },
          {
            "name": "D6",
            "midi": 86,
            "time": 0.25,
            "velocity": 0.7086614173228346,
            "duration": 0.125,
            "frequency": 1174.6590716696303,
            "pitch": 76,
            "startTime": 0.25,
            "endTime": 0.375
          },
          {
            "name": "D4",
            "midi": 62,
            "time": 0.375,
            "velocity": 0.7086614173228346,
            "duration": 0.125,
            "frequency": 293.6647679174076,
            "pitch": 62,
            "startTime": 0.375,
            "endTime": 0.5
          },
          {
            "name": "A3",
            "midi": 57,
            "time": 0.5,
            "velocity": 0.7086614173228346,
            "duration": 0.125,
            "frequency": 220,
            "pitch": 57,
            "startTime": 0.5,
            "endTime": 0.625
          },
          {
            "name": "F#3",
            "midi": 54,
            "time": 0.625,
            "velocity": 0.7086614173228346,
            "duration": 0.125,
            "frequency": 184.99721135581723,
            "pitch": 54,
            "startTime": 0.625,
            "endTime": 0.75
          },
          {
            "name": "F#3",
            "midi": 54,
            "time": 0.75,
            "velocity": 0.7086614173228346,
            "duration": 0.125,
            "frequency": 184.99721135581723,
            "pitch": 54,
            "startTime": 0.75,
            "endTime": 0.875
          },
          {
            "name": "D5",
            "midi": 74,
            "time": 0.875,
            "velocity": 0.7086614173228346,
            "duration": 0.125,
            "frequency": 587.3295358348151,
            "pitch": 74,
            "startTime": 0.875,
            "endTime": 1
          },
          {
            "name": "F#3",
            "midi": 54,
            "time": 1,
            "velocity": 0.7086614173228346,
            "duration": 0.125,
            "frequency": 184.99721135581723,
            "pitch": 54,
            "startTime": 1,
            "endTime": 1.125
          },
          {
            "name": "C4",
            "midi": 60,
            "time": 1.125,
            "velocity": 0.7086614173228346,
            "duration": 0.125,
            "frequency": 261.6255653005986,
            "pitch": 60,
            "startTime": 1.125,
            "endTime": 1.25
          },
          {
            "name": "C5",
            "midi": 72,
            "time": 1.25,
            "velocity": 0.7086614173228346,
            "duration": 0.125,
            "frequency": 523.2511306011972,
            "pitch": 72,
            "startTime": 1.25,
            "endTime": 1.375
          },
          {
            "name": "A#5",
            "midi": 82,
            "time": 1.375,
            "velocity": 0.7086614173228346,
            "duration": 0.125,
            "frequency": 932.3275230361799,
            "pitch": 76,
            "startTime": 1.375,
            "endTime": 1.5
          },
          {
            "name": "A#5",
            "midi": 82,
            "time": 1.5,
            "velocity": 0.7086614173228346,
            "duration": 0.125,
            "frequency": 932.3275230361799,
            "pitch": 76,
            "startTime": 1.5,
            "endTime": 1.625
          },
          {
            "name": "F#4",
            "midi": 66,
            "time": 1.625,
            "velocity": 0.7086614173228346,
            "duration": 0.125,
            "frequency": 369.99442271163446,
            "pitch": 66,
            "startTime": 1.625,
            "endTime": 1.75
          },
          {
            "name": "G5",
            "midi": 79,
            "time": 1.75,
            "velocity": 0.7086614173228346,
            "duration": 0.125,
            "frequency": 783.9908719634986,
            "pitch": 76,
            "startTime": 1.75,
            "endTime": 1.875
          },
          {
            "name": "D3",
            "midi": 50,
            "time": 1.875,
            "velocity": 0.7086614173228346,
            "duration": 0.125,
            "frequency": 146.8323839587038,
            "pitch": 50,
            "startTime": 1.875,
            "endTime": 2
          },
          {
            "name": "F#4",
            "midi": 66,
            "time": 2,
            "velocity": 0.7086614173228346,
            "duration": 0.125,
            "frequency": 369.99442271163446,
            "pitch": 66,
            "startTime": 2,
            "endTime": 2.125
          },
          {
            "name": "A3",
            "midi": 57,
            "time": 2.125,
            "velocity": 0.7086614173228346,
            "duration": 0.125,
            "frequency": 220,
            "pitch": 57,
            "startTime": 2.125,
            "endTime": 2.25
          },
          {
            "name": "C5",
            "midi": 72,
            "time": 2.25,
            "velocity": 0.7086614173228346,
            "duration": 0.125,
            "frequency": 523.2511306011972,
            "pitch": 72,
            "startTime": 2.25,
            "endTime": 2.375
          },
          {
            "name": "F#3",
            "midi": 54,
            "time": 2.375,
            "velocity": 0.7086614173228346,
            "duration": 0.125,
            "frequency": 184.99721135581723,
            "pitch": 54,
            "startTime": 2.375,
            "endTime": 2.5
          },
          {
            "name": "F#5",
            "midi": 78,
            "time": 2.5,
            "velocity": 0.7086614173228346,
            "duration": 0.125,
            "frequency": 739.9888454232689,
            "pitch": 76,
            "startTime": 2.5,
            "endTime": 2.625
          },
          {
            "name": "F#3",
            "midi": 54,
            "time": 2.625,
            "velocity": 0.7086614173228346,
            "duration": 0.125,
            "frequency": 184.99721135581723,
            "pitch": 54,
            "startTime": 2.625,
            "endTime": 2.75
          }
        ],
        "controlChanges": {},
        "id": 0,
        "channelNumber": 0,
        "isPercussion": false
      }
    ]
  },
  "cupressus nootkatensis_chords": {
    "header": {
      "PPQ": 128,
      "bpm": 120,
      "name": ""
    },
    "startTime": 0,
    "duration": 1,
    "tracks": [
      {
        "startTime": 0,
        "duration": 1,
        "length": 21,
        "notes": [
          {
            "name": "C3",
            "midi": 48,
            "time": 0,
            "velocity": 0.7086614173228346,
            "duration": 0.5,
            "frequency": 130.8127826502993,
            "pitch": 48,
            "startTime": 0,
            "endTime": 0.5
          },
          {
            "name": "A#3",
            "midi": 58,
            "time": 0,
            "velocity": 0.7086614173228346,
            "duration": 0.5,
            "frequency": 233.08188075904496,
            "pitch": 58,
            "startTime": 0,
            "endTime": 0.5
          },
          {
            "name": "F4",
            "midi": 65,
            "time": 0,
            "velocity": 0.7086614173228346,
            "duration": 0.5,
            "frequency": 349.2282314330039,
            "pitch": 65,
            "startTime": 0,
            "endTime": 0.5
          },
          {
            "name": "G4",
            "midi": 67,
            "time": 0,
            "velocity": 0.7086614173228346,
            "duration": 0.5,
            "frequency": 391.99543598174927,
            "pitch": 67,
            "startTime": 0,
            "endTime": 0.5
          },
          {
            "name": "D#5",
            "midi": 75,
            "time": 0,
            "velocity": 0.7086614173228346,
            "duration": 0.5,
            "frequency": 622.2539674441618,
            "pitch": 75,
            "startTime": 0,
            "endTime": 0.5
          },
          {
            "name": "G5",
            "midi": 79,
            "time": 0,
            "velocity": 0.7086614173228346,
            "duration": 0.5,
            "frequency": 783.9908719634986,
            "pitch": 76,
            "startTime": 0,
            "endTime": 0.5
          },
          {
            "name": "G6",
            "midi": 91,
            "time": 0,
            "velocity": 0.7086614173228346,
            "duration": 0.5,
            "frequency": 1567.981743926997,
            "pitch": 76,
            "startTime": 0,
            "endTime": 0.5
          },
          {
            "name": "A#6",
            "midi": 94,
            "time": 0,
            "velocity": 0.7086614173228346,
            "duration": 0.5,
            "frequency": 1864.6550460723597,
            "pitch": 76,
            "startTime": 0,
            "endTime": 0.5
          },
          {
            "name": "G7",
            "midi": 103,
            "time": 0,
            "velocity": 0.7086614173228346,
            "duration": 0.5,
            "frequency": 3135.9634878539946,
            "pitch": 76,
            "startTime": 0,
            "endTime": 0.5
          },
          {
            "name": "F3",
            "midi": 53,
            "time": 0.5,
            "velocity": 0.7086614173228346,
            "duration": 0.5,
            "frequency": 174.61411571650194,
            "pitch": 53,
            "startTime": 0.5,
            "endTime": 1
          },
          {
            "name": "G#3",
            "midi": 56,
            "time": 0.5,
            "velocity": 0.7086614173228346,
            "duration": 0.5,
            "frequency": 207.65234878997256,
            "pitch": 56,
            "startTime": 0.5,
            "endTime": 1
          },
          {
            "name": "G#4",
            "midi": 68,
            "time": 0.5,
            "velocity": 0.7086614173228346,
            "duration": 0.5,
            "frequency": 415.3046975799451,
            "pitch": 68,
            "startTime": 0.5,
            "endTime": 1
          },
          {
            "name": "A4",
            "midi": 69,
            "time": 0.5,
            "velocity": 0.7086614173228346,
            "duration": 0.5,
            "frequency": 440,
            "pitch": 69,
            "startTime": 0.5,
            "endTime": 1
          },
          {
            "name": "E5",
            "midi": 76,
            "time": 0.5,
            "velocity": 0.7086614173228346,
            "duration": 0.5,
            "frequency": 659.2551138257398,
            "pitch": 76,
            "startTime": 0.5,
            "endTime": 1
          },
          {
            "name": "C#6",
            "midi": 85,
            "time": 0.5,
            "velocity": 0.7086614173228346,
            "duration": 0.5,
            "frequency": 1108.7305239074883,
            "pitch": 76,
            "startTime": 0.5,
            "endTime": 1
          },
          {
            "name": "A6",
            "midi": 93,
            "time": 0.5,
            "velocity": 0.7086614173228346,
            "duration": 0.5,
            "frequency": 1760,
            "pitch": 76,
            "startTime": 0.5,
            "endTime": 1
          },
          {
            "name": "D#7",
            "midi": 99,
            "time": 0.5,
            "velocity": 0.7086614173228346,
            "duration": 0.5,
            "frequency": 2489.015869776647,
            "pitch": 76,
            "startTime": 0.5,
            "endTime": 1
          },
          {
            "name": "F7",
            "midi": 101,
            "time": 0.5,
            "velocity": 0.7086614173228346,
            "duration": 0.5,
            "frequency": 2793.825851464031,
            "pitch": 76,
            "startTime": 0.5,
            "endTime": 1
          },
          {
            "name": "G7",
            "midi": 103,
            "time": 0.5,
            "velocity": 0.7086614173228346,
            "duration": 0.5,
            "frequency": 3135.9634878539946,
            "pitch": 76,
            "startTime": 0.5,
            "endTime": 1
          },
          {
            "name": "F#8",
            "midi": 114,
            "time": 0.5,
            "velocity": 0.7086614173228346,
            "duration": 0.5,
            "frequency": 5919.910763386151,
            "pitch": 76,
            "startTime": 0.5,
            "endTime": 1
          },
          {
            "name": "G8",
            "midi": 115,
            "time": 0.5,
            "velocity": 0.7086614173228346,
            "duration": 0.5,
            "frequency": 6271.926975707989,
            "pitch": 76,
            "startTime": 0.5,
            "endTime": 1
          }
        ],
        "controlChanges": {},
        "id": 0,
        "channelNumber": 0,
        "isPercussion": false
      }
    ]
  },
  "eucalyptus_french": {
    "header": {
      "PPQ": 128,
      "bpm": 120,
      "name": ""
    },
    "startTime": 0,
    "duration": 4.875,
    "tracks": [
      {
        "startTime": 0,
        "duration": 4.875,
        "length": 10,
        "notes": [
          {
            "name": "E4",
            "midi": 64,
            "time": 0,
            "velocity": 0.7086614173228346,
            "duration": 1,
            "frequency": 329.6275569128699,
            "pitch": 64,
            "startTime": 0,
            "endTime": 1
          },
          {
            "name": "G4",
            "midi": 67,
            "time": 1,
            "velocity": 0.7086614173228346,
            "duration": 0.25,
            "frequency": 391.99543598174927,
            "pitch": 67,
            "startTime": 1,
            "endTime": 1.25
          },
          {
            "name": "C5",
            "midi": 72,
            "time": 1.25,
            "velocity": 0.7086614173228346,
            "duration": 1,
            "frequency": 523.2511306011972,
            "pitch": 72,
            "startTime": 1.25,
            "endTime": 2.25
          },
          {
            "name": "A4",
            "midi": 69,
            "time": 2.25,
            "velocity": 0.7086614173228346,
            "duration": 1,
            "frequency": 440,
            "pitch": 69,
            "startTime": 2.25,
            "endTime": 3.25
          },
          {
            "name": "E4",
            "midi": 64,
            "time": 3.25,
            "velocity": 0.7086614173228346,
            "duration": 0.5,
            "frequency": 329.6275569128699,
            "pitch": 64,
            "startTime": 3.25,
            "endTime": 3.75
          },
          {
            "name": "D4",
            "midi": 62,
            "time": 3.75,
            "velocity": 0.7086614173228346,
            "duration": 0.125,
            "frequency": 293.6647679174076,
            "pitch": 62,
            "startTime": 3.75,
            "endTime": 3.875
          },
          {
            "name": "B3",
            "midi": 59,
            "time": 3.875,
            "velocity": 0.7086614173228346,
            "duration": 0.25,
            "frequency": 246.9416506280621,
            "pitch": 59,
            "startTime": 3.875,
            "endTime": 4.125
          },
          {
            "name": "F3",
            "midi": 53,
            "time": 4.125,
            "velocity": 0.7086614173228346,
            "duration": 0.25,
            "frequency": 174.61411571650194,
            "pitch": 53,
            "startTime": 4.125,
            "endTime": 4.375
          },
          {
            "name": "G3",
            "midi": 55,
            "time": 4.375,
            "velocity": 0.7086614173228346,
            "duration": 0.25,
            "frequency": 195.99771799087463,
            "pitch": 55,
            "startTime": 4.375,
            "endTime": 4.625
          },
          {
            "name": "E3",
            "midi": 52,
            "time": 4.625,
            "velocity": 0.7086614173228346,
            "duration": 0.25,
            "frequency": 164.81377845643496,
            "pitch": 52,
            "startTime": 4.625,
            "endTime": 4.875
          }
        ],
        "controlChanges": {},
        "id": 0,
        "channelNumber": 0,
        "isPercussion": false
      }
    ]
  },
  "eucalyptus_keyboard": {
    "header": {
      "PPQ": 128,
      "bpm": 120,
      "name": ""
    },
    "startTime": 0,
    "duration": 1.25,
    "tracks": [
      {
        "startTime": 0,
        "duration": 1.25,
        "length": 10,
        "notes": [
          {
            "name": "A3",
            "midi": 57,
            "time": 0,
            "velocity": 0.7086614173228346,
            "duration": 0.125,
            "frequency": 220,
            "pitch": 57,
            "startTime": 0,
            "endTime": 0.125
          },
          {
            "name": "D5",
            "midi": 74,
            "time": 0.125,
            "velocity": 0.7086614173228346,
            "duration": 0.125,
            "frequency": 587.3295358348151,
            "pitch": 74,
            "startTime": 0.125,
            "endTime": 0.25
          },
          {
            "name": "B3",
            "midi": 59,
            "time": 0.25,
            "velocity": 0.7086614173228346,
            "duration": 0.125,
            "frequency": 246.9416506280621,
            "pitch": 59,
            "startTime": 0.25,
            "endTime": 0.375
          },
          {
            "name": "D3",
            "midi": 50,
            "time": 0.375,
            "velocity": 0.7086614173228346,
            "duration": 0.125,
            "frequency": 146.8323839587038,
            "pitch": 50,
            "startTime": 0.375,
            "endTime": 0.5
          },
          {
            "name": "B5",
            "midi": 83,
            "time": 0.5,
            "velocity": 0.7086614173228346,
            "duration": 0.125,
            "frequency": 987.7666025122484,
            "pitch": 76,
            "startTime": 0.5,
            "endTime": 0.625
          },
          {
            "name": "A#4",
            "midi": 70,
            "time": 0.625,
            "velocity": 0.7086614173228346,
            "duration": 0.125,
            "frequency": 466.1637615180899,
            "pitch": 70,
            "startTime": 0.625,
            "endTime": 0.75
          },
          {
            "name": "D6",
            "midi": 86,
            "time": 0.75,
            "velocity": 0.7086614173228346,
            "duration": 0.125,
            "frequency": 1174.6590716696303,
            "pitch": 76,
            "startTime": 0.75,
            "endTime": 0.875
          },
          {
            "name": "F#4",
            "midi": 66,
            "time": 0.875,
            "velocity": 0.7086614173228346,
            "duration": 0.125,
            "frequency": 369.99442271163446,
            "pitch": 66,
            "startTime": 0.875,
            "endTime": 1
          },
          {
            "name": "D5",
            "midi": 74,
            "time": 1,
            "velocity": 0.7086614173228346,
            "duration": 0.125,
            "frequency": 587.3295358348151,
            "pitch": 74,
            "startTime": 1,
            "endTime": 1.125
          },
          {
            "name": "F#3",
            "midi": 54,
            "time": 1.125,
            "velocity": 0.7086614173228346,
            "duration": 0.125,
            "frequency": 184.99721135581723,
            "pitch": 54,
            "startTime": 1.125,
            "endTime": 1.25
          }
        ],
        "controlChanges": {},
        "id": 0,
        "channelNumber": 0,
        "isPercussion": false
      }
    ]
  },
  "eucalyptus_chords": {
    "header": {
      "PPQ": 128,
      "bpm": 120,
      "name": ""
    },
    "startTime": 0,
    "duration": 0.5,
    "tracks": [
      {
        "startTime": 0,
        "duration": 0.5,
        "length": 10,
        "notes": [
          {
            "name": "D#3",
            "midi": 51,
            "time": 0,
            "velocity": 0.7086614173228346,
            "duration": 0.5,
            "frequency": 155.56349186104043,
            "pitch": 51,
            "startTime": 0,
            "endTime": 0.5
          },
          {
            "name": "A#3",
            "midi": 58,
            "time": 0,
            "velocity": 0.7086614173228346,
            "duration": 0.5,
            "frequency": 233.08188075904496,
            "pitch": 58,
            "startTime": 0,
            "endTime": 0.5
          },
          {
            "name": "C4",
            "midi": 60,
            "time": 0,
            "velocity": 0.7086614173228346,
            "duration": 0.5,
            "frequency": 261.6255653005986,
            "pitch": 60,
            "startTime": 0,
            "endTime": 0.5
          },
          {
            "name": "C#4",
            "midi": 61,
            "time": 0,
            "velocity": 0.7086614173228346,
            "duration": 0.5,
            "frequency": 277.1826309768721,
            "pitch": 61,
            "startTime": 0,
            "endTime": 0.5
          },
          {
            "name": "E4",
            "midi": 64,
            "time": 0,
            "velocity": 0.7086614173228346,
            "duration": 0.5,
            "frequency": 329.6275569128699,
            "pitch": 64,
            "startTime": 0,
            "endTime": 0.5
          },
          {
            "name": "B4",
            "midi": 71,
            "time": 0,
            "velocity": 0.7086614173228346,
            "duration": 0.5,
            "frequency": 493.8833012561242,
            "pitch": 71,
            "startTime": 0,
            "endTime": 0.5
          },
          {
            "name": "F5",
            "midi": 77,
            "time": 0,
            "velocity": 0.7086614173228346,
            "duration": 0.5,
            "frequency": 698.4564628660078,
            "pitch": 76,
            "startTime": 0,
            "endTime": 0.5
          },
          {
            "name": "A5",
            "midi": 81,
            "time": 0,
            "velocity": 0.7086614173228346,
            "duration": 0.5,
            "frequency": 880,
            "pitch": 76,
            "startTime": 0,
            "endTime": 0.5
          },
          {
            "name": "A#5",
            "midi": 82,
            "time": 0,
            "velocity": 0.7086614173228346,
            "duration": 0.5,
            "frequency": 932.3275230361799,
            "pitch": 76,
            "startTime": 0,
            "endTime": 0.5
          },
          {
            "name": "G6",
            "midi": 91,
            "time": 0,
            "velocity": 0.7086614173228346,
            "duration": 0.5,
            "frequency": 1567.981743926997,
            "pitch": 76,
            "startTime": 0,
            "endTime": 0.5
          }
        ],
        "controlChanges": {},
        "id": 0,
        "channelNumber": 0,
        "isPercussion": false
      }
    ]
  },
  "eucalyptus regnans_french": {
    "header": {
      "PPQ": 128,
      "bpm": 120,
      "name": ""
    },
    "startTime": 0,
    "duration": 9.5,
    "tracks": [
      {
        "startTime": 0,
        "duration": 9.5,
        "length": 18,
        "notes": [
          {
            "name": "E4",
            "midi": 64,
            "time": 0,
            "velocity": 0.7086614173228346,
            "duration": 1,
            "frequency": 329.6275569128699,
            "pitch": 64,
            "startTime": 0,
            "endTime": 1
          },
          {
            "name": "G4",
            "midi": 67,
            "time": 1,
            "velocity": 0.7086614173228346,
            "duration": 0.25,
            "frequency": 391.99543598174927,
            "pitch": 67,
            "startTime": 1,
            "endTime": 1.25
          },
          {
            "name": "C5",
            "midi": 72,
            "time": 1.25,
            "velocity": 0.7086614173228346,
            "duration": 1,
            "frequency": 523.2511306011972,
            "pitch": 72,
            "startTime": 1.25,
            "endTime": 2.25
          },
          {
            "name": "A4",
            "midi": 69,
            "time": 2.25,
            "velocity": 0.7086614173228346,
            "duration": 1,
            "frequency": 440,
            "pitch": 69,
            "startTime": 2.25,
            "endTime": 3.25
          },
          {
            "name": "E4",
            "midi": 64,
            "time": 3.25,
            "velocity": 0.7086614173228346,
            "duration": 0.5,
            "frequency": 329.6275569128699,
            "pitch": 64,
            "startTime": 3.25,
            "endTime": 3.75
          },
          {
            "name": "D4",
            "midi": 62,
            "time": 3.75,
            "velocity": 0.7086614173228346,
            "duration": 0.125,
            "frequency": 293.6647679174076,
            "pitch": 62,
            "startTime": 3.75,
            "endTime": 3.875
          },
          {
            "name": "B3",
            "midi": 59,
            "time": 3.875,
            "velocity": 0.7086614173228346,
            "duration": 0.25,
            "frequency": 246.9416506280621,
            "pitch": 59,
            "startTime": 3.875,
            "endTime": 4.125
          },
          {
            "name": "F3",
            "midi": 53,
            "time": 4.125,
            "velocity": 0.7086614173228346,
            "duration": 0.25,
            "frequency": 174.61411571650194,
            "pitch": 53,
            "startTime": 4.125,
            "endTime": 4.375
          },
          {
            "name": "G3",
            "midi": 55,
            "time": 4.375,
            "velocity": 0.7086614173228346,
            "duration": 0.25,
            "frequency": 195.99771799087463,
            "pitch": 55,
            "startTime": 4.375,
            "endTime": 4.625
          },
          {
            "name": "E3",
            "midi": 52,
            "time": 4.625,
            "velocity": 0.7086614173228346,
            "duration": 0.25,
            "frequency": 164.81377845643496,
            "pitch": 52,
            "startTime": 4.625,
            "endTime": 4.875
          },
          {
            "name": "G3",
            "midi": 55,
            "time": 4.875,
            "velocity": 0.7086614173228346,
            "duration": 0.125,
            "frequency": 195.99771799087463,
            "pitch": 55,
            "startTime": 4.875,
            "endTime": 5
          },
          {
            "name": "D3",
            "midi": 50,
            "time": 5,
            "velocity": 0.7086614173228346,
            "duration": 0.25,
            "frequency": 146.8323839587038,
            "pitch": 50,
            "startTime": 5,
            "endTime": 5.25
          },
          {
            "name": "E3",
            "midi": 52,
            "time": 5.25,
            "velocity": 0.7086614173228346,
            "duration": 1,
            "frequency": 164.81377845643496,
            "pitch": 52,
            "startTime": 5.25,
            "endTime": 6.25
          },
          {
            "name": "G3",
            "midi": 55,
            "time": 6.25,
            "velocity": 0.7086614173228346,
            "duration": 1,
            "frequency": 195.99771799087463,
            "pitch": 55,
            "startTime": 6.25,
            "endTime": 7.25
          },
          {
            "name": "G3",
            "midi": 55,
            "time": 7.25,
            "velocity": 0.7086614173228346,
            "duration": 0.5,
            "frequency": 195.99771799087463,
            "pitch": 55,
            "startTime": 7.25,
            "endTime": 7.75
          },
          {
            "name": "A3",
            "midi": 57,
            "time": 7.75,
            "velocity": 0.7086614173228346,
            "duration": 1,
            "frequency": 220,
            "pitch": 57,
            "startTime": 7.75,
            "endTime": 8.75
          },
          {
            "name": "G3",
            "midi": 55,
            "time": 8.75,
            "velocity": 0.7086614173228346,
            "duration": 0.5,
            "frequency": 195.99771799087463,
            "pitch": 55,
            "startTime": 8.75,
            "endTime": 9.25
          },
          {
            "name": "E3",
            "midi": 52,
            "time": 9.25,
            "velocity": 0.7086614173228346,
            "duration": 0.25,
            "frequency": 164.81377845643496,
            "pitch": 52,
            "startTime": 9.25,
            "endTime": 9.5
          }
        ],
        "controlChanges": {},
        "id": 0,
        "channelNumber": 0,
        "isPercussion": false
      }
    ]
  },
  "eucalyptus regnans_keyboard": {
    "header": {
      "PPQ": 128,
      "bpm": 120,
      "name": ""
    },
    "startTime": 0,
    "duration": 2.25,
    "tracks": [
      {
        "startTime": 0,
        "duration": 2.25,
        "length": 18,
        "notes": [
          {
            "name": "A3",
            "midi": 57,
            "time": 0,
            "velocity": 0.7086614173228346,
            "duration": 0.125,
            "frequency": 220,
            "pitch": 57,
            "startTime": 0,
            "endTime": 0.125
          },
          {
            "name": "D5",
            "midi": 74,
            "time": 0.125,
            "velocity": 0.7086614173228346,
            "duration": 0.125,
            "frequency": 587.3295358348151,
            "pitch": 74,
            "startTime": 0.125,
            "endTime": 0.25
          },
          {
            "name": "B3",
            "midi": 59,
            "time": 0.25,
            "velocity": 0.7086614173228346,
            "duration": 0.125,
            "frequency": 246.9416506280621,
            "pitch": 59,
            "startTime": 0.25,
            "endTime": 0.375
          },
          {
            "name": "D3",
            "midi": 50,
            "time": 0.375,
            "velocity": 0.7086614173228346,
            "duration": 0.125,
            "frequency": 146.8323839587038,
            "pitch": 50,
            "startTime": 0.375,
            "endTime": 0.5
          },
          {
            "name": "B5",
            "midi": 83,
            "time": 0.5,
            "velocity": 0.7086614173228346,
            "duration": 0.125,
            "frequency": 987.7666025122484,
            "pitch": 76,
            "startTime": 0.5,
            "endTime": 0.625
          },
          {
            "name": "A#4",
            "midi": 70,
            "time": 0.625,
            "velocity": 0.7086614173228346,
            "duration": 0.125,
            "frequency": 466.1637615180899,
            "pitch": 70,
            "startTime": 0.625,
            "endTime": 0.75
          },
          {
            "name": "D6",
            "midi": 86,
            "time": 0.75,
            "velocity": 0.7086614173228346,
            "duration": 0.125,
            "frequency": 1174.6590716696303,
            "pitch": 76,
            "startTime": 0.75,
            "endTime": 0.875
          },
          {
            "name": "F#4",
            "midi": 66,
            "time": 0.875,
            "velocity": 0.7086614173228346,
            "duration": 0.125,
            "frequency": 369.99442271163446,
            "pitch": 66,
            "startTime": 0.875,
            "endTime": 1
          },
          {
            "name": "D5",
            "midi": 74,
            "time": 1,
            "velocity": 0.7086614173228346,
            "duration": 0.125,
            "frequency": 587.3295358348151,
            "pitch": 74,
            "startTime": 1,
            "endTime": 1.125
          },
          {
            "name": "F#3",
            "midi": 54,
            "time": 1.125,
            "velocity": 0.7086614173228346,
            "duration": 0.125,
            "frequency": 184.99721135581723,
            "pitch": 54,
            "startTime": 1.125,
            "endTime": 1.25
          },
          {
            "name": "C4",
            "midi": 60,
            "time": 1.25,
            "velocity": 0.7086614173228346,
            "duration": 0.125,
            "frequency": 261.6255653005986,
            "pitch": 60,
            "startTime": 1.25,
            "endTime": 1.375
          },
          {
            "name": "D4",
            "midi": 62,
            "time": 1.375,
            "velocity": 0.7086614173228346,
            "duration": 0.125,
            "frequency": 293.6647679174076,
            "pitch": 62,
            "startTime": 1.375,
            "endTime": 1.5
          },
          {
            "name": "A3",
            "midi": 57,
            "time": 1.5,
            "velocity": 0.7086614173228346,
            "duration": 0.125,
            "frequency": 220,
            "pitch": 57,
            "startTime": 1.5,
            "endTime": 1.625
          },
          {
            "name": "G4",
            "midi": 67,
            "time": 1.625,
            "velocity": 0.7086614173228346,
            "duration": 0.125,
            "frequency": 391.99543598174927,
            "pitch": 67,
            "startTime": 1.625,
            "endTime": 1.75
          },
          {
            "name": "C5",
            "midi": 72,
            "time": 1.75,
            "velocity": 0.7086614173228346,
            "duration": 0.125,
            "frequency": 523.2511306011972,
            "pitch": 72,
            "startTime": 1.75,
            "endTime": 1.875
          },
          {
            "name": "D3",
            "midi": 50,
            "time": 1.875,
            "velocity": 0.7086614173228346,
            "duration": 0.125,
            "frequency": 146.8323839587038,
            "pitch": 50,
            "startTime": 1.875,
            "endTime": 2
          },
          {
            "name": "C5",
            "midi": 72,
            "time": 2,
            "velocity": 0.7086614173228346,
            "duration": 0.125,
            "frequency": 523.2511306011972,
            "pitch": 72,
            "startTime": 2,
            "endTime": 2.125
          },
          {
            "name": "F#3",
            "midi": 54,
            "time": 2.125,
            "velocity": 0.7086614173228346,
            "duration": 0.125,
            "frequency": 184.99721135581723,
            "pitch": 54,
            "startTime": 2.125,
            "endTime": 2.25
          }
        ],
        "controlChanges": {},
        "id": 0,
        "channelNumber": 0,
        "isPercussion": false
      }
    ]
  },
  "eucalyptus regnans_chords": {
    "header": {
      "PPQ": 128,
      "bpm": 120,
      "name": ""
    },
    "startTime": 0,
    "duration": 1,
    "tracks": [
      {
        "startTime": 0,
        "duration": 1,
        "length": 17,
        "notes": [
          {
            "name": "D#3",
            "midi": 51,
            "time": 0,
            "velocity": 0.7086614173228346,
            "duration": 0.5,
            "frequency": 155.56349186104043,
            "pitch": 51,
            "startTime": 0,
            "endTime": 0.5
          },
          {
            "name": "A#3",
            "midi": 58,
            "time": 0,
            "velocity": 0.7086614173228346,
            "duration": 0.5,
            "frequency": 233.08188075904496,
            "pitch": 58,
            "startTime": 0,
            "endTime": 0.5
          },
          {
            "name": "C4",
            "midi": 60,
            "time": 0,
            "velocity": 0.7086614173228346,
            "duration": 0.5,
            "frequency": 261.6255653005986,
            "pitch": 60,
            "startTime": 0,
            "endTime": 0.5
          },
          {
            "name": "C#4",
            "midi": 61,
            "time": 0,
            "velocity": 0.7086614173228346,
            "duration": 0.5,
            "frequency": 277.1826309768721,
            "pitch": 61,
            "startTime": 0,
            "endTime": 0.5
          },
          {
            "name": "E4",
            "midi": 64,
            "time": 0,
            "velocity": 0.7086614173228346,
            "duration": 0.5,
            "frequency": 329.6275569128699,
            "pitch": 64,
            "startTime": 0,
            "endTime": 0.5
          },
          {
            "name": "B4",
            "midi": 71,
            "time": 0,
            "velocity": 0.7086614173228346,
            "duration": 0.5,
            "frequency": 493.8833012561242,
            "pitch": 71,
            "startTime": 0,
            "endTime": 0.5
          },
          {
            "name": "F5",
            "midi": 77,
            "time": 0,
            "velocity": 0.7086614173228346,
            "duration": 0.5,
            "frequency": 698.4564628660078,
            "pitch": 76,
            "startTime": 0,
            "endTime": 0.5
          },
          {
            "name": "A5",
            "midi": 81,
            "time": 0,
            "velocity": 0.7086614173228346,
            "duration": 0.5,
            "frequency": 880,
            "pitch": 76,
            "startTime": 0,
            "endTime": 0.5
          },
          {
            "name": "A#5",
            "midi": 82,
            "time": 0,
            "velocity": 0.7086614173228346,
            "duration": 0.5,
            "frequency": 932.3275230361799,
            "pitch": 76,
            "startTime": 0,
            "endTime": 0.5
          },
          {
            "name": "G6",
            "midi": 91,
            "time": 0,
            "velocity": 0.7086614173228346,
            "duration": 0.5,
            "frequency": 1567.981743926997,
            "pitch": 76,
            "startTime": 0,
            "endTime": 0.5
          },
          {
            "name": "G3",
            "midi": 55,
            "time": 0.5,
            "velocity": 0.7086614173228346,
            "duration": 0.5,
            "frequency": 195.99771799087463,
            "pitch": 55,
            "startTime": 0.5,
            "endTime": 1
          },
          {
            "name": "D#4",
            "midi": 63,
            "time": 0.5,
            "velocity": 0.7086614173228346,
            "duration": 0.5,
            "frequency": 311.12698372208087,
            "pitch": 63,
            "startTime": 0.5,
            "endTime": 1
          },
          {
            "name": "D5",
            "midi": 74,
            "time": 0.5,
            "velocity": 0.7086614173228346,
            "duration": 0.5,
            "frequency": 587.3295358348151,
            "pitch": 74,
            "startTime": 0.5,
            "endTime": 1
          },
          {
            "name": "F5",
            "midi": 77,
            "time": 0.5,
            "velocity": 0.7086614173228346,
            "duration": 0.5,
            "frequency": 698.4564628660078,
            "pitch": 76,
            "startTime": 0.5,
            "endTime": 1
          },
          {
            "name": "C#6",
            "midi": 85,
            "time": 0.5,
            "velocity": 0.7086614173228346,
            "duration": 0.5,
            "frequency": 1108.7305239074883,
            "pitch": 76,
            "startTime": 0.5,
            "endTime": 1
          },
          {
            "name": "F6",
            "midi": 89,
            "time": 0.5,
            "velocity": 0.7086614173228346,
            "duration": 0.5,
            "frequency": 1396.9129257320155,
            "pitch": 76,
            "startTime": 0.5,
            "endTime": 1
          },
          {
            "name": "G6",
            "midi": 91,
            "time": 0.5,
            "velocity": 0.7086614173228346,
            "duration": 0.5,
            "frequency": 1567.981743926997,
            "pitch": 76,
            "startTime": 0.5,
            "endTime": 1
          }
        ],
        "controlChanges": {},
        "id": 0,
        "channelNumber": 0,
        "isPercussion": false
      }
    ]
  },
  "fabaceae_french": {
    "header": {
      "PPQ": 128,
      "bpm": 120,
      "name": ""
    },
    "startTime": 0,
    "duration": 8,
    "tracks": [
      {
        "startTime": 0,
        "duration": 8,
        "length": 8,
        "notes": [
          {
            "name": "F4",
            "midi": 65,
            "time": 0,
            "velocity": 0.7086614173228346,
            "duration": 1,
            "frequency": 349.2282314330039,
            "pitch": 65,
            "startTime": 0,
            "endTime": 1
          },
          {
            "name": "A4",
            "midi": 69,
            "time": 1,
            "velocity": 0.7086614173228346,
            "duration": 1,
            "frequency": 440,
            "pitch": 69,
            "startTime": 1,
            "endTime": 2
          },
          {
            "name": "B4",
            "midi": 71,
            "time": 2,
            "velocity": 0.7086614173228346,
            "duration": 1,
            "frequency": 493.8833012561242,
            "pitch": 71,
            "startTime": 2,
            "endTime": 3
          },
          {
            "name": "A4",
            "midi": 69,
            "time": 3,
            "velocity": 0.7086614173228346,
            "duration": 1,
            "frequency": 440,
            "pitch": 69,
            "startTime": 3,
            "endTime": 4
          },
          {
            "name": "C5",
            "midi": 72,
            "time": 4,
            "velocity": 0.7086614173228346,
            "duration": 1,
            "frequency": 523.2511306011972,
            "pitch": 72,
            "startTime": 4,
            "endTime": 5
          },
          {
            "name": "E5",
            "midi": 76,
            "time": 5,
            "velocity": 0.7086614173228346,
            "duration": 1,
            "frequency": 659.2551138257398,
            "pitch": 76,
            "startTime": 5,
            "endTime": 6
          },
          {
            "name": "A5",
            "midi": 81,
            "time": 6,
            "velocity": 0.7086614173228346,
            "duration": 1,
            "frequency": 880,
            "pitch": 76,
            "startTime": 6,
            "endTime": 7
          },
          {
            "name": "E5",
            "midi": 76,
            "time": 7,
            "velocity": 0.7086614173228346,
            "duration": 1,
            "frequency": 659.2551138257398,
            "pitch": 76,
            "startTime": 7,
            "endTime": 8
          }
        ],
        "controlChanges": {},
        "id": 0,
        "channelNumber": 0,
        "isPercussion": false
      }
    ]
  },
  "fabaceae_keyboard": {
    "header": {
      "PPQ": 128,
      "bpm": 120,
      "name": ""
    },
    "startTime": 0,
    "duration": 1,
    "tracks": [
      {
        "startTime": 0,
        "duration": 1,
        "length": 8,
        "notes": [
          {
            "name": "D#4",
            "midi": 63,
            "time": 0,
            "velocity": 0.7086614173228346,
            "duration": 0.125,
            "frequency": 311.12698372208087,
            "pitch": 63,
            "startTime": 0,
            "endTime": 0.125
          },
          {
            "name": "D3",
            "midi": 50,
            "time": 0.125,
            "velocity": 0.7086614173228346,
            "duration": 0.125,
            "frequency": 146.8323839587038,
            "pitch": 50,
            "startTime": 0.125,
            "endTime": 0.25
          },
          {
            "name": "G#4",
            "midi": 68,
            "time": 0.25,
            "velocity": 0.7086614173228346,
            "duration": 0.125,
            "frequency": 415.3046975799451,
            "pitch": 68,
            "startTime": 0.25,
            "endTime": 0.375
          },
          {
            "name": "D3",
            "midi": 50,
            "time": 0.375,
            "velocity": 0.7086614173228346,
            "duration": 0.125,
            "frequency": 146.8323839587038,
            "pitch": 50,
            "startTime": 0.375,
            "endTime": 0.5
          },
          {
            "name": "B3",
            "midi": 59,
            "time": 0.5,
            "velocity": 0.7086614173228346,
            "duration": 0.125,
            "frequency": 246.9416506280621,
            "pitch": 59,
            "startTime": 0.5,
            "endTime": 0.625
          },
          {
            "name": "A3",
            "midi": 57,
            "time": 0.625,
            "velocity": 0.7086614173228346,
            "duration": 0.125,
            "frequency": 220,
            "pitch": 57,
            "startTime": 0.625,
            "endTime": 0.75
          },
          {
            "name": "D3",
            "midi": 50,
            "time": 0.75,
            "velocity": 0.7086614173228346,
            "duration": 0.125,
            "frequency": 146.8323839587038,
            "pitch": 50,
            "startTime": 0.75,
            "endTime": 0.875
          },
          {
            "name": "A3",
            "midi": 57,
            "time": 0.875,
            "velocity": 0.7086614173228346,
            "duration": 0.125,
            "frequency": 220,
            "pitch": 57,
            "startTime": 0.875,
            "endTime": 1
          }
        ],
        "controlChanges": {},
        "id": 0,
        "channelNumber": 0,
        "isPercussion": false
      }
    ]
  },
  "fabaceae_chords": {
    "header": {
      "PPQ": 128,
      "bpm": 120,
      "name": ""
    },
    "startTime": 0,
    "duration": 0.5,
    "tracks": [
      {
        "startTime": 0,
        "duration": 0.5,
        "length": 8,
        "notes": [
          {
            "name": "D3",
            "midi": 50,
            "time": 0,
            "velocity": 0.7086614173228346,
            "duration": 0.5,
            "frequency": 146.8323839587038,
            "pitch": 50,
            "startTime": 0,
            "endTime": 0.5
          },
          {
            "name": "C#4",
            "midi": 61,
            "time": 0,
            "velocity": 0.7086614173228346,
            "duration": 0.5,
            "frequency": 277.1826309768721,
            "pitch": 61,
            "startTime": 0,
            "endTime": 0.5
          },
          {
            "name": "C5",
            "midi": 72,
            "time": 0,
            "velocity": 0.7086614173228346,
            "duration": 0.5,
            "frequency": 523.2511306011972,
            "pitch": 72,
            "startTime": 0,
            "endTime": 0.5
          },
          {
            "name": "C#5",
            "midi": 73,
            "time": 0,
            "velocity": 0.7086614173228346,
            "duration": 0.5,
            "frequency": 554.3652619537442,
            "pitch": 73,
            "startTime": 0,
            "endTime": 0.5
          },
          {
            "name": "C6",
            "midi": 84,
            "time": 0,
            "velocity": 0.7086614173228346,
            "duration": 0.5,
            "frequency": 1046.5022612023945,
            "pitch": 76,
            "startTime": 0,
            "endTime": 0.5
          },
          {
            "name": "D#6",
            "midi": 87,
            "time": 0,
            "velocity": 0.7086614173228346,
            "duration": 0.5,
            "frequency": 1244.5079348883235,
            "pitch": 76,
            "startTime": 0,
            "endTime": 0.5
          },
          {
            "name": "C#7",
            "midi": 97,
            "time": 0,
            "velocity": 0.7086614173228346,
            "duration": 0.5,
            "frequency": 2217.461047814977,
            "pitch": 76,
            "startTime": 0,
            "endTime": 0.5
          },
          {
            "name": "D#7",
            "midi": 99,
            "time": 0,
            "velocity": 0.7086614173228346,
            "duration": 0.5,
            "frequency": 2489.015869776647,
            "pitch": 76,
            "startTime": 0,
            "endTime": 0.5
          }
        ],
        "controlChanges": {},
        "id": 0,
        "channelNumber": 0,
        "isPercussion": false
      }
    ]
  },
  "fagus sylvatica_french": {
    "header": {
      "PPQ": 128,
      "bpm": 120,
      "name": ""
    },
    "startTime": 0,
    "duration": 8.375,
    "tracks": [
      {
        "startTime": 0,
        "duration": 8.375,
        "length": 15,
        "notes": [
          {
            "name": "F4",
            "midi": 65,
            "time": 0,
            "velocity": 0.7086614173228346,
            "duration": 1,
            "frequency": 349.2282314330039,
            "pitch": 65,
            "startTime": 0,
            "endTime": 1
          },
          {
            "name": "A4",
            "midi": 69,
            "time": 1,
            "velocity": 0.7086614173228346,
            "duration": 1,
            "frequency": 440,
            "pitch": 69,
            "startTime": 1,
            "endTime": 2
          },
          {
            "name": "G4",
            "midi": 67,
            "time": 2,
            "velocity": 0.7086614173228346,
            "duration": 1,
            "frequency": 391.99543598174927,
            "pitch": 67,
            "startTime": 2,
            "endTime": 3
          },
          {
            "name": "G4",
            "midi": 67,
            "time": 3,
            "velocity": 0.7086614173228346,
            "duration": 0.25,
            "frequency": 391.99543598174927,
            "pitch": 67,
            "startTime": 3,
            "endTime": 3.25
          },
          {
            "name": "E4",
            "midi": 64,
            "time": 3.25,
            "velocity": 0.7086614173228346,
            "duration": 0.25,
            "frequency": 329.6275569128699,
            "pitch": 64,
            "startTime": 3.25,
            "endTime": 3.5
          },
          {
            "name": "G4",
            "midi": 67,
            "time": 3.5,
            "velocity": 0.7086614173228346,
            "duration": 0.125,
            "frequency": 391.99543598174927,
            "pitch": 67,
            "startTime": 3.5,
            "endTime": 3.625
          },
          {
            "name": "E4",
            "midi": 64,
            "time": 3.625,
            "velocity": 0.7086614173228346,
            "duration": 0.25,
            "frequency": 329.6275569128699,
            "pitch": 64,
            "startTime": 3.625,
            "endTime": 3.875
          },
          {
            "name": "D4",
            "midi": 62,
            "time": 3.875,
            "velocity": 0.7086614173228346,
            "duration": 0.125,
            "frequency": 293.6647679174076,
            "pitch": 62,
            "startTime": 3.875,
            "endTime": 4
          },
          {
            "name": "E4",
            "midi": 64,
            "time": 4,
            "velocity": 0.7086614173228346,
            "duration": 0.5,
            "frequency": 329.6275569128699,
            "pitch": 64,
            "startTime": 4,
            "endTime": 4.5
          },
          {
            "name": "A4",
            "midi": 69,
            "time": 4.5,
            "velocity": 0.7086614173228346,
            "duration": 0.125,
            "frequency": 440,
            "pitch": 69,
            "startTime": 4.5,
            "endTime": 4.625
          },
          {
            "name": "A4",
            "midi": 69,
            "time": 4.625,
            "velocity": 0.7086614173228346,
            "duration": 1,
            "frequency": 440,
            "pitch": 69,
            "startTime": 4.625,
            "endTime": 5.625
          },
          {
            "name": "F4",
            "midi": 65,
            "time": 5.625,
            "velocity": 0.7086614173228346,
            "duration": 0.25,
            "frequency": 349.2282314330039,
            "pitch": 65,
            "startTime": 5.625,
            "endTime": 5.875
          },
          {
            "name": "B4",
            "midi": 71,
            "time": 5.875,
            "velocity": 0.7086614173228346,
            "duration": 0.5,
            "frequency": 493.8833012561242,
            "pitch": 71,
            "startTime": 5.875,
            "endTime": 6.375
          },
          {
            "name": "C5",
            "midi": 72,
            "time": 6.375,
            "velocity": 0.7086614173228346,
            "duration": 1,
            "frequency": 523.2511306011972,
            "pitch": 72,
            "startTime": 6.375,
            "endTime": 7.375
          },
          {
            "name": "A4",
            "midi": 69,
            "time": 7.375,
            "velocity": 0.7086614173228346,
            "duration": 1,
            "frequency": 440,
            "pitch": 69,
            "startTime": 7.375,
            "endTime": 8.375
          }
        ],
        "controlChanges": {},
        "id": 0,
        "channelNumber": 0,
        "isPercussion": false
      }
    ]
  },
  "fagus sylvatica_keyboard": {
    "header": {
      "PPQ": 128,
      "bpm": 120,
      "name": ""
    },
    "startTime": 0,
    "duration": 1.875,
    "tracks": [
      {
        "startTime": 0,
        "duration": 1.875,
        "length": 15,
        "notes": [
          {
            "name": "D#4",
            "midi": 63,
            "time": 0,
            "velocity": 0.7086614173228346,
            "duration": 0.125,
            "frequency": 311.12698372208087,
            "pitch": 63,
            "startTime": 0,
            "endTime": 0.125
          },
          {
            "name": "D3",
            "midi": 50,
            "time": 0.125,
            "velocity": 0.7086614173228346,
            "duration": 0.125,
            "frequency": 146.8323839587038,
            "pitch": 50,
            "startTime": 0.125,
            "endTime": 0.25
          },
          {
            "name": "G4",
            "midi": 67,
            "time": 0.25,
            "velocity": 0.7086614173228346,
            "duration": 0.125,
            "frequency": 391.99543598174927,
            "pitch": 67,
            "startTime": 0.25,
            "endTime": 0.375
          },
          {
            "name": "D5",
            "midi": 74,
            "time": 0.375,
            "velocity": 0.7086614173228346,
            "duration": 0.125,
            "frequency": 587.3295358348151,
            "pitch": 74,
            "startTime": 0.375,
            "endTime": 0.5
          },
          {
            "name": "F#3",
            "midi": 54,
            "time": 0.5,
            "velocity": 0.7086614173228346,
            "duration": 0.125,
            "frequency": 184.99721135581723,
            "pitch": 54,
            "startTime": 0.5,
            "endTime": 0.625
          },
          {
            "name": "C4",
            "midi": 60,
            "time": 0.625,
            "velocity": 0.7086614173228346,
            "duration": 0.125,
            "frequency": 261.6255653005986,
            "pitch": 60,
            "startTime": 0.625,
            "endTime": 0.75
          },
          {
            "name": "F#3",
            "midi": 54,
            "time": 0.75,
            "velocity": 0.7086614173228346,
            "duration": 0.125,
            "frequency": 184.99721135581723,
            "pitch": 54,
            "startTime": 0.75,
            "endTime": 0.875
          },
          {
            "name": "A#4",
            "midi": 70,
            "time": 0.875,
            "velocity": 0.7086614173228346,
            "duration": 0.125,
            "frequency": 466.1637615180899,
            "pitch": 70,
            "startTime": 0.875,
            "endTime": 1
          },
          {
            "name": "B5",
            "midi": 83,
            "time": 1,
            "velocity": 0.7086614173228346,
            "duration": 0.125,
            "frequency": 987.7666025122484,
            "pitch": 76,
            "startTime": 1,
            "endTime": 1.125
          },
          {
            "name": "E4",
            "midi": 64,
            "time": 1.125,
            "velocity": 0.7086614173228346,
            "duration": 0.125,
            "frequency": 329.6275569128699,
            "pitch": 64,
            "startTime": 1.125,
            "endTime": 1.25
          },
          {
            "name": "D3",
            "midi": 50,
            "time": 1.25,
            "velocity": 0.7086614173228346,
            "duration": 0.125,
            "frequency": 146.8323839587038,
            "pitch": 50,
            "startTime": 1.25,
            "endTime": 1.375
          },
          {
            "name": "F#4",
            "midi": 66,
            "time": 1.375,
            "velocity": 0.7086614173228346,
            "duration": 0.125,
            "frequency": 369.99442271163446,
            "pitch": 66,
            "startTime": 1.375,
            "endTime": 1.5
          },
          {
            "name": "F#5",
            "midi": 78,
            "time": 1.5,
            "velocity": 0.7086614173228346,
            "duration": 0.125,
            "frequency": 739.9888454232689,
            "pitch": 76,
            "startTime": 1.5,
            "endTime": 1.625
          },
          {
            "name": "B3",
            "midi": 59,
            "time": 1.625,
            "velocity": 0.7086614173228346,
            "duration": 0.125,
            "frequency": 246.9416506280621,
            "pitch": 59,
            "startTime": 1.625,
            "endTime": 1.75
          },
          {
            "name": "D3",
            "midi": 50,
            "time": 1.75,
            "velocity": 0.7086614173228346,
            "duration": 0.125,
            "frequency": 146.8323839587038,
            "pitch": 50,
            "startTime": 1.75,
            "endTime": 1.875
          }
        ],
        "controlChanges": {},
        "id": 0,
        "channelNumber": 0,
        "isPercussion": false
      }
    ]
  },
  "fagus sylvatica_chords": {
    "header": {
      "PPQ": 128,
      "bpm": 120,
      "name": ""
    },
    "startTime": 0,
    "duration": 1,
    "tracks": [
      {
        "startTime": 0,
        "duration": 1,
        "length": 14,
        "notes": [
          {
            "name": "D3",
            "midi": 50,
            "time": 0,
            "velocity": 0.7086614173228346,
            "duration": 0.5,
            "frequency": 146.8323839587038,
            "pitch": 50,
            "startTime": 0,
            "endTime": 0.5
          },
          {
            "name": "C#4",
            "midi": 61,
            "time": 0,
            "velocity": 0.7086614173228346,
            "duration": 0.5,
            "frequency": 277.1826309768721,
            "pitch": 61,
            "startTime": 0,
            "endTime": 0.5
          },
          {
            "name": "D4",
            "midi": 62,
            "time": 0,
            "velocity": 0.7086614173228346,
            "duration": 0.5,
            "frequency": 293.6647679174076,
            "pitch": 62,
            "startTime": 0,
            "endTime": 0.5
          },
          {
            "name": "A#4",
            "midi": 70,
            "time": 0,
            "velocity": 0.7086614173228346,
            "duration": 0.5,
            "frequency": 466.1637615180899,
            "pitch": 70,
            "startTime": 0,
            "endTime": 0.5
          },
          {
            "name": "G5",
            "midi": 79,
            "time": 0,
            "velocity": 0.7086614173228346,
            "duration": 0.5,
            "frequency": 783.9908719634986,
            "pitch": 76,
            "startTime": 0,
            "endTime": 0.5
          },
          {
            "name": "G3",
            "midi": 55,
            "time": 0.5,
            "velocity": 0.7086614173228346,
            "duration": 0.5,
            "frequency": 195.99771799087463,
            "pitch": 55,
            "startTime": 0.5,
            "endTime": 1
          },
          {
            "name": "B3",
            "midi": 59,
            "time": 0.5,
            "velocity": 0.7086614173228346,
            "duration": 0.5,
            "frequency": 246.9416506280621,
            "pitch": 59,
            "startTime": 0.5,
            "endTime": 1
          },
          {
            "name": "E4",
            "midi": 64,
            "time": 0.5,
            "velocity": 0.7086614173228346,
            "duration": 0.5,
            "frequency": 329.6275569128699,
            "pitch": 64,
            "startTime": 0.5,
            "endTime": 1
          },
          {
            "name": "A4",
            "midi": 69,
            "time": 0.5,
            "velocity": 0.7086614173228346,
            "duration": 0.5,
            "frequency": 440,
            "pitch": 69,
            "startTime": 0.5,
            "endTime": 1
          },
          {
            "name": "C#5",
            "midi": 73,
            "time": 0.5,
            "velocity": 0.7086614173228346,
            "duration": 0.5,
            "frequency": 554.3652619537442,
            "pitch": 73,
            "startTime": 0.5,
            "endTime": 1
          },
          {
            "name": "A5",
            "midi": 81,
            "time": 0.5,
            "velocity": 0.7086614173228346,
            "duration": 0.5,
            "frequency": 880,
            "pitch": 76,
            "startTime": 0.5,
            "endTime": 1
          },
          {
            "name": "F#6",
            "midi": 90,
            "time": 0.5,
            "velocity": 0.7086614173228346,
            "duration": 0.5,
            "frequency": 1479.9776908465378,
            "pitch": 76,
            "startTime": 0.5,
            "endTime": 1
          },
          {
            "name": "C7",
            "midi": 96,
            "time": 0.5,
            "velocity": 0.7086614173228346,
            "duration": 0.5,
            "frequency": 2093.004522404789,
            "pitch": 76,
            "startTime": 0.5,
            "endTime": 1
          },
          {
            "name": "C#7",
            "midi": 97,
            "time": 0.5,
            "velocity": 0.7086614173228346,
            "duration": 0.5,
            "frequency": 2217.461047814977,
            "pitch": 76,
            "startTime": 0.5,
            "endTime": 1
          }
        ],
        "controlChanges": {},
        "id": 0,
        "channelNumber": 0,
        "isPercussion": false
      }
    ]
  },
  "fraxinus excelsior_french": {
    "header": {
      "PPQ": 128,
      "bpm": 120,
      "name": ""
    },
    "startTime": 0,
    "duration": 8.875,
    "tracks": [
      {
        "startTime": 0,
        "duration": 8.875,
        "length": 18,
        "notes": [
          {
            "name": "F4",
            "midi": 65,
            "time": 0,
            "velocity": 0.7086614173228346,
            "duration": 1,
            "frequency": 349.2282314330039,
            "pitch": 65,
            "startTime": 0,
            "endTime": 1
          },
          {
            "name": "D4",
            "midi": 62,
            "time": 1,
            "velocity": 0.7086614173228346,
            "duration": 0.25,
            "frequency": 293.6647679174076,
            "pitch": 62,
            "startTime": 1,
            "endTime": 1.25
          },
          {
            "name": "A3",
            "midi": 57,
            "time": 1.25,
            "velocity": 0.7086614173228346,
            "duration": 1,
            "frequency": 220,
            "pitch": 57,
            "startTime": 1.25,
            "endTime": 2.25
          },
          {
            "name": "C4",
            "midi": 60,
            "time": 2.25,
            "velocity": 0.7086614173228346,
            "duration": 0.125,
            "frequency": 261.6255653005986,
            "pitch": 60,
            "startTime": 2.25,
            "endTime": 2.375
          },
          {
            "name": "B3",
            "midi": 59,
            "time": 2.375,
            "velocity": 0.7086614173228346,
            "duration": 0.5,
            "frequency": 246.9416506280621,
            "pitch": 59,
            "startTime": 2.375,
            "endTime": 2.875
          },
          {
            "name": "G3",
            "midi": 55,
            "time": 2.875,
            "velocity": 0.7086614173228346,
            "duration": 0.5,
            "frequency": 195.99771799087463,
            "pitch": 55,
            "startTime": 2.875,
            "endTime": 3.375
          },
          {
            "name": "G3",
            "midi": 55,
            "time": 3.375,
            "velocity": 0.7086614173228346,
            "duration": 0.25,
            "frequency": 195.99771799087463,
            "pitch": 55,
            "startTime": 3.375,
            "endTime": 3.625
          },
          {
            "name": "E3",
            "midi": 52,
            "time": 3.625,
            "velocity": 0.7086614173228346,
            "duration": 0.25,
            "frequency": 164.81377845643496,
            "pitch": 52,
            "startTime": 3.625,
            "endTime": 3.875
          },
          {
            "name": "G3",
            "midi": 55,
            "time": 3.875,
            "velocity": 0.7086614173228346,
            "duration": 0.125,
            "frequency": 195.99771799087463,
            "pitch": 55,
            "startTime": 3.875,
            "endTime": 4
          },
          {
            "name": "E3",
            "midi": 52,
            "time": 4,
            "velocity": 0.7086614173228346,
            "duration": 1,
            "frequency": 164.81377845643496,
            "pitch": 52,
            "startTime": 4,
            "endTime": 5
          },
          {
            "name": "C3",
            "midi": 48,
            "time": 5,
            "velocity": 0.7086614173228346,
            "duration": 0.125,
            "frequency": 130.8127826502993,
            "pitch": 48,
            "startTime": 5,
            "endTime": 5.125
          },
          {
            "name": "C3",
            "midi": 48,
            "time": 5.125,
            "velocity": 0.7086614173228346,
            "duration": 1,
            "frequency": 130.8127826502993,
            "pitch": 48,
            "startTime": 5.125,
            "endTime": 6.125
          },
          {
            "name": "E3",
            "midi": 52,
            "time": 6.125,
            "velocity": 0.7086614173228346,
            "duration": 1,
            "frequency": 164.81377845643496,
            "pitch": 52,
            "startTime": 6.125,
            "endTime": 7.125
          },
          {
            "name": "E3",
            "midi": 52,
            "time": 7.125,
            "velocity": 0.7086614173228346,
            "duration": 0.5,
            "frequency": 164.81377845643496,
            "pitch": 52,
            "startTime": 7.125,
            "endTime": 7.625
          },
          {
            "name": "E3",
            "midi": 52,
            "time": 7.625,
            "velocity": 0.7086614173228346,
            "duration": 0.25,
            "frequency": 164.81377845643496,
            "pitch": 52,
            "startTime": 7.625,
            "endTime": 7.875
          },
          {
            "name": "B2",
            "midi": 47,
            "time": 7.875,
            "velocity": 0.7086614173228346,
            "duration": 0.5,
            "frequency": 123.47082531403105,
            "pitch": 47,
            "startTime": 7.875,
            "endTime": 8.375
          },
          {
            "name": "A2",
            "midi": 45,
            "time": 8.375,
            "velocity": 0.7086614173228346,
            "duration": 0.25,
            "frequency": 110,
            "pitch": 45,
            "startTime": 8.375,
            "endTime": 8.625
          },
          {
            "name": "D3",
            "midi": 50,
            "time": 8.625,
            "velocity": 0.7086614173228346,
            "duration": 0.25,
            "frequency": 146.8323839587038,
            "pitch": 50,
            "startTime": 8.625,
            "endTime": 8.875
          }
        ],
        "controlChanges": {},
        "id": 0,
        "channelNumber": 0,
        "isPercussion": false
      }
    ]
  },
  "fraxinus excelsior_keyboard": {
    "header": {
      "PPQ": 128,
      "bpm": 120,
      "name": ""
    },
    "startTime": 0,
    "duration": 2.25,
    "tracks": [
      {
        "startTime": 0,
        "duration": 2.25,
        "length": 18,
        "notes": [
          {
            "name": "D#4",
            "midi": 63,
            "time": 0,
            "velocity": 0.7086614173228346,
            "duration": 0.125,
            "frequency": 311.12698372208087,
            "pitch": 63,
            "startTime": 0,
            "endTime": 0.125
          },
          {
            "name": "D4",
            "midi": 62,
            "time": 0.125,
            "velocity": 0.7086614173228346,
            "duration": 0.125,
            "frequency": 293.6647679174076,
            "pitch": 62,
            "startTime": 0.125,
            "endTime": 0.25
          },
          {
            "name": "D3",
            "midi": 50,
            "time": 0.25,
            "velocity": 0.7086614173228346,
            "duration": 0.125,
            "frequency": 146.8323839587038,
            "pitch": 50,
            "startTime": 0.25,
            "endTime": 0.375
          },
          {
            "name": "G3",
            "midi": 55,
            "time": 0.375,
            "velocity": 0.7086614173228346,
            "duration": 0.125,
            "frequency": 195.99771799087463,
            "pitch": 55,
            "startTime": 0.375,
            "endTime": 0.5
          },
          {
            "name": "F#5",
            "midi": 78,
            "time": 0.5,
            "velocity": 0.7086614173228346,
            "duration": 0.125,
            "frequency": 739.9888454232689,
            "pitch": 76,
            "startTime": 0.5,
            "endTime": 0.625
          },
          {
            "name": "C5",
            "midi": 72,
            "time": 0.625,
            "velocity": 0.7086614173228346,
            "duration": 0.125,
            "frequency": 523.2511306011972,
            "pitch": 72,
            "startTime": 0.625,
            "endTime": 0.75
          },
          {
            "name": "D5",
            "midi": 74,
            "time": 0.75,
            "velocity": 0.7086614173228346,
            "duration": 0.125,
            "frequency": 587.3295358348151,
            "pitch": 74,
            "startTime": 0.75,
            "endTime": 0.875
          },
          {
            "name": "F#3",
            "midi": 54,
            "time": 0.875,
            "velocity": 0.7086614173228346,
            "duration": 0.125,
            "frequency": 184.99721135581723,
            "pitch": 54,
            "startTime": 0.875,
            "endTime": 1
          },
          {
            "name": "C4",
            "midi": 60,
            "time": 1,
            "velocity": 0.7086614173228346,
            "duration": 0.125,
            "frequency": 261.6255653005986,
            "pitch": 60,
            "startTime": 1,
            "endTime": 1.125
          },
          {
            "name": "A3",
            "midi": 57,
            "time": 1.125,
            "velocity": 0.7086614173228346,
            "duration": 0.125,
            "frequency": 220,
            "pitch": 57,
            "startTime": 1.125,
            "endTime": 1.25
          },
          {
            "name": "G3",
            "midi": 55,
            "time": 1.25,
            "velocity": 0.7086614173228346,
            "duration": 0.125,
            "frequency": 195.99771799087463,
            "pitch": 55,
            "startTime": 1.25,
            "endTime": 1.375
          },
          {
            "name": "B3",
            "midi": 59,
            "time": 1.375,
            "velocity": 0.7086614173228346,
            "duration": 0.125,
            "frequency": 246.9416506280621,
            "pitch": 59,
            "startTime": 1.375,
            "endTime": 1.5
          },
          {
            "name": "A3",
            "midi": 57,
            "time": 1.5,
            "velocity": 0.7086614173228346,
            "duration": 0.125,
            "frequency": 220,
            "pitch": 57,
            "startTime": 1.5,
            "endTime": 1.625
          },
          {
            "name": "B5",
            "midi": 83,
            "time": 1.625,
            "velocity": 0.7086614173228346,
            "duration": 0.125,
            "frequency": 987.7666025122484,
            "pitch": 76,
            "startTime": 1.625,
            "endTime": 1.75
          },
          {
            "name": "F#3",
            "midi": 54,
            "time": 1.75,
            "velocity": 0.7086614173228346,
            "duration": 0.125,
            "frequency": 184.99721135581723,
            "pitch": 54,
            "startTime": 1.75,
            "endTime": 1.875
          },
          {
            "name": "F#5",
            "midi": 78,
            "time": 1.875,
            "velocity": 0.7086614173228346,
            "duration": 0.125,
            "frequency": 739.9888454232689,
            "pitch": 76,
            "startTime": 1.875,
            "endTime": 2
          },
          {
            "name": "A#5",
            "midi": 82,
            "time": 2,
            "velocity": 0.7086614173228346,
            "duration": 0.125,
            "frequency": 932.3275230361799,
            "pitch": 76,
            "startTime": 2,
            "endTime": 2.125
          },
          {
            "name": "D4",
            "midi": 62,
            "time": 2.125,
            "velocity": 0.7086614173228346,
            "duration": 0.125,
            "frequency": 293.6647679174076,
            "pitch": 62,
            "startTime": 2.125,
            "endTime": 2.25
          }
        ],
        "controlChanges": {},
        "id": 0,
        "channelNumber": 0,
        "isPercussion": false
      }
    ]
  },
  "fraxinus excelsior_chords": {
    "header": {
      "PPQ": 128,
      "bpm": 120,
      "name": ""
    },
    "startTime": 0,
    "duration": 1,
    "tracks": [
      {
        "startTime": 0,
        "duration": 1,
        "length": 17,
        "notes": [
          {
            "name": "D3",
            "midi": 50,
            "time": 0,
            "velocity": 0.7086614173228346,
            "duration": 0.5,
            "frequency": 146.8323839587038,
            "pitch": 50,
            "startTime": 0,
            "endTime": 0.5
          },
          {
            "name": "G3",
            "midi": 55,
            "time": 0,
            "velocity": 0.7086614173228346,
            "duration": 0.5,
            "frequency": 195.99771799087463,
            "pitch": 55,
            "startTime": 0,
            "endTime": 0.5
          },
          {
            "name": "C#4",
            "midi": 61,
            "time": 0,
            "velocity": 0.7086614173228346,
            "duration": 0.5,
            "frequency": 277.1826309768721,
            "pitch": 61,
            "startTime": 0,
            "endTime": 0.5
          },
          {
            "name": "B4",
            "midi": 71,
            "time": 0,
            "velocity": 0.7086614173228346,
            "duration": 0.5,
            "frequency": 493.8833012561242,
            "pitch": 71,
            "startTime": 0,
            "endTime": 0.5
          },
          {
            "name": "F#5",
            "midi": 78,
            "time": 0,
            "velocity": 0.7086614173228346,
            "duration": 0.5,
            "frequency": 739.9888454232689,
            "pitch": 76,
            "startTime": 0,
            "endTime": 0.5
          },
          {
            "name": "F6",
            "midi": 89,
            "time": 0,
            "velocity": 0.7086614173228346,
            "duration": 0.5,
            "frequency": 1396.9129257320155,
            "pitch": 76,
            "startTime": 0,
            "endTime": 0.5
          },
          {
            "name": "A#6",
            "midi": 94,
            "time": 0,
            "velocity": 0.7086614173228346,
            "duration": 0.5,
            "frequency": 1864.6550460723597,
            "pitch": 76,
            "startTime": 0,
            "endTime": 0.5
          },
          {
            "name": "G7",
            "midi": 103,
            "time": 0,
            "velocity": 0.7086614173228346,
            "duration": 0.5,
            "frequency": 3135.9634878539946,
            "pitch": 76,
            "startTime": 0,
            "endTime": 0.5
          },
          {
            "name": "D#3",
            "midi": 51,
            "time": 0.5,
            "velocity": 0.7086614173228346,
            "duration": 0.5,
            "frequency": 155.56349186104043,
            "pitch": 51,
            "startTime": 0.5,
            "endTime": 1
          },
          {
            "name": "B3",
            "midi": 59,
            "time": 0.5,
            "velocity": 0.7086614173228346,
            "duration": 0.5,
            "frequency": 246.9416506280621,
            "pitch": 59,
            "startTime": 0.5,
            "endTime": 1
          },
          {
            "name": "C4",
            "midi": 60,
            "time": 0.5,
            "velocity": 0.7086614173228346,
            "duration": 0.5,
            "frequency": 261.6255653005986,
            "pitch": 60,
            "startTime": 0.5,
            "endTime": 1
          },
          {
            "name": "D#4",
            "midi": 63,
            "time": 0.5,
            "velocity": 0.7086614173228346,
            "duration": 0.5,
            "frequency": 311.12698372208087,
            "pitch": 63,
            "startTime": 0.5,
            "endTime": 1
          },
          {
            "name": "E4",
            "midi": 64,
            "time": 0.5,
            "velocity": 0.7086614173228346,
            "duration": 0.5,
            "frequency": 329.6275569128699,
            "pitch": 64,
            "startTime": 0.5,
            "endTime": 1
          },
          {
            "name": "G4",
            "midi": 67,
            "time": 0.5,
            "velocity": 0.7086614173228346,
            "duration": 0.5,
            "frequency": 391.99543598174927,
            "pitch": 67,
            "startTime": 0.5,
            "endTime": 1
          },
          {
            "name": "F#5",
            "midi": 78,
            "time": 0.5,
            "velocity": 0.7086614173228346,
            "duration": 0.5,
            "frequency": 739.9888454232689,
            "pitch": 76,
            "startTime": 0.5,
            "endTime": 1
          },
          {
            "name": "G#5",
            "midi": 80,
            "time": 0.5,
            "velocity": 0.7086614173228346,
            "duration": 0.5,
            "frequency": 830.6093951598903,
            "pitch": 76,
            "startTime": 0.5,
            "endTime": 1
          },
          {
            "name": "G6",
            "midi": 91,
            "time": 0.5,
            "velocity": 0.7086614173228346,
            "duration": 0.5,
            "frequency": 1567.981743926997,
            "pitch": 76,
            "startTime": 0.5,
            "endTime": 1
          }
        ],
        "controlChanges": {},
        "id": 0,
        "channelNumber": 0,
        "isPercussion": false
      }
    ]
  },
  "fraxinus ornus_french": {
    "header": {
      "PPQ": 128,
      "bpm": 120,
      "name": ""
    },
    "startTime": 0,
    "duration": 5.5,
    "tracks": [
      {
        "startTime": 0,
        "duration": 5.5,
        "length": 14,
        "notes": [
          {
            "name": "F4",
            "midi": 65,
            "time": 0,
            "velocity": 0.7086614173228346,
            "duration": 1,
            "frequency": 349.2282314330039,
            "pitch": 65,
            "startTime": 0,
            "endTime": 1
          },
          {
            "name": "D4",
            "midi": 62,
            "time": 1,
            "velocity": 0.7086614173228346,
            "duration": 0.25,
            "frequency": 293.6647679174076,
            "pitch": 62,
            "startTime": 1,
            "endTime": 1.25
          },
          {
            "name": "A3",
            "midi": 57,
            "time": 1.25,
            "velocity": 0.7086614173228346,
            "duration": 1,
            "frequency": 220,
            "pitch": 57,
            "startTime": 1.25,
            "endTime": 2.25
          },
          {
            "name": "C4",
            "midi": 60,
            "time": 2.25,
            "velocity": 0.7086614173228346,
            "duration": 0.125,
            "frequency": 261.6255653005986,
            "pitch": 60,
            "startTime": 2.25,
            "endTime": 2.375
          },
          {
            "name": "B3",
            "midi": 59,
            "time": 2.375,
            "velocity": 0.7086614173228346,
            "duration": 0.5,
            "frequency": 246.9416506280621,
            "pitch": 59,
            "startTime": 2.375,
            "endTime": 2.875
          },
          {
            "name": "G3",
            "midi": 55,
            "time": 2.875,
            "velocity": 0.7086614173228346,
            "duration": 0.5,
            "frequency": 195.99771799087463,
            "pitch": 55,
            "startTime": 2.875,
            "endTime": 3.375
          },
          {
            "name": "G3",
            "midi": 55,
            "time": 3.375,
            "velocity": 0.7086614173228346,
            "duration": 0.25,
            "frequency": 195.99771799087463,
            "pitch": 55,
            "startTime": 3.375,
            "endTime": 3.625
          },
          {
            "name": "E3",
            "midi": 52,
            "time": 3.625,
            "velocity": 0.7086614173228346,
            "duration": 0.25,
            "frequency": 164.81377845643496,
            "pitch": 52,
            "startTime": 3.625,
            "endTime": 3.875
          },
          {
            "name": "G3",
            "midi": 55,
            "time": 3.875,
            "velocity": 0.7086614173228346,
            "duration": 0.125,
            "frequency": 195.99771799087463,
            "pitch": 55,
            "startTime": 3.875,
            "endTime": 4
          },
          {
            "name": "A3",
            "midi": 57,
            "time": 4,
            "velocity": 0.7086614173228346,
            "duration": 0.25,
            "frequency": 220,
            "pitch": 57,
            "startTime": 4,
            "endTime": 4.25
          },
          {
            "name": "D4",
            "midi": 62,
            "time": 4.25,
            "velocity": 0.7086614173228346,
            "duration": 0.25,
            "frequency": 293.6647679174076,
            "pitch": 62,
            "startTime": 4.25,
            "endTime": 4.5
          },
          {
            "name": "G4",
            "midi": 67,
            "time": 4.5,
            "velocity": 0.7086614173228346,
            "duration": 0.5,
            "frequency": 391.99543598174927,
            "pitch": 67,
            "startTime": 4.5,
            "endTime": 5
          },
          {
            "name": "G4",
            "midi": 67,
            "time": 5,
            "velocity": 0.7086614173228346,
            "duration": 0.25,
            "frequency": 391.99543598174927,
            "pitch": 67,
            "startTime": 5,
            "endTime": 5.25
          },
          {
            "name": "E4",
            "midi": 64,
            "time": 5.25,
            "velocity": 0.7086614173228346,
            "duration": 0.25,
            "frequency": 329.6275569128699,
            "pitch": 64,
            "startTime": 5.25,
            "endTime": 5.5
          }
        ],
        "controlChanges": {},
        "id": 0,
        "channelNumber": 0,
        "isPercussion": false
      }
    ]
  },
  "fraxinus ornus_keyboard": {
    "header": {
      "PPQ": 128,
      "bpm": 120,
      "name": ""
    },
    "startTime": 0,
    "duration": 1.75,
    "tracks": [
      {
        "startTime": 0,
        "duration": 1.75,
        "length": 14,
        "notes": [
          {
            "name": "D#4",
            "midi": 63,
            "time": 0,
            "velocity": 0.7086614173228346,
            "duration": 0.125,
            "frequency": 311.12698372208087,
            "pitch": 63,
            "startTime": 0,
            "endTime": 0.125
          },
          {
            "name": "D4",
            "midi": 62,
            "time": 0.125,
            "velocity": 0.7086614173228346,
            "duration": 0.125,
            "frequency": 293.6647679174076,
            "pitch": 62,
            "startTime": 0.125,
            "endTime": 0.25
          },
          {
            "name": "D3",
            "midi": 50,
            "time": 0.25,
            "velocity": 0.7086614173228346,
            "duration": 0.125,
            "frequency": 146.8323839587038,
            "pitch": 50,
            "startTime": 0.25,
            "endTime": 0.375
          },
          {
            "name": "G3",
            "midi": 55,
            "time": 0.375,
            "velocity": 0.7086614173228346,
            "duration": 0.125,
            "frequency": 195.99771799087463,
            "pitch": 55,
            "startTime": 0.375,
            "endTime": 0.5
          },
          {
            "name": "F#5",
            "midi": 78,
            "time": 0.5,
            "velocity": 0.7086614173228346,
            "duration": 0.125,
            "frequency": 739.9888454232689,
            "pitch": 76,
            "startTime": 0.5,
            "endTime": 0.625
          },
          {
            "name": "C5",
            "midi": 72,
            "time": 0.625,
            "velocity": 0.7086614173228346,
            "duration": 0.125,
            "frequency": 523.2511306011972,
            "pitch": 72,
            "startTime": 0.625,
            "endTime": 0.75
          },
          {
            "name": "D5",
            "midi": 74,
            "time": 0.75,
            "velocity": 0.7086614173228346,
            "duration": 0.125,
            "frequency": 587.3295358348151,
            "pitch": 74,
            "startTime": 0.75,
            "endTime": 0.875
          },
          {
            "name": "F#3",
            "midi": 54,
            "time": 0.875,
            "velocity": 0.7086614173228346,
            "duration": 0.125,
            "frequency": 184.99721135581723,
            "pitch": 54,
            "startTime": 0.875,
            "endTime": 1
          },
          {
            "name": "C4",
            "midi": 60,
            "time": 1,
            "velocity": 0.7086614173228346,
            "duration": 0.125,
            "frequency": 261.6255653005986,
            "pitch": 60,
            "startTime": 1,
            "endTime": 1.125
          },
          {
            "name": "A#5",
            "midi": 82,
            "time": 1.125,
            "velocity": 0.7086614173228346,
            "duration": 0.125,
            "frequency": 932.3275230361799,
            "pitch": 76,
            "startTime": 1.125,
            "endTime": 1.25
          },
          {
            "name": "D4",
            "midi": 62,
            "time": 1.25,
            "velocity": 0.7086614173228346,
            "duration": 0.125,
            "frequency": 293.6647679174076,
            "pitch": 62,
            "startTime": 1.25,
            "endTime": 1.375
          },
          {
            "name": "C5",
            "midi": 72,
            "time": 1.375,
            "velocity": 0.7086614173228346,
            "duration": 0.125,
            "frequency": 523.2511306011972,
            "pitch": 72,
            "startTime": 1.375,
            "endTime": 1.5
          },
          {
            "name": "D5",
            "midi": 74,
            "time": 1.5,
            "velocity": 0.7086614173228346,
            "duration": 0.125,
            "frequency": 587.3295358348151,
            "pitch": 74,
            "startTime": 1.5,
            "endTime": 1.625
          },
          {
            "name": "F#3",
            "midi": 54,
            "time": 1.625,
            "velocity": 0.7086614173228346,
            "duration": 0.125,
            "frequency": 184.99721135581723,
            "pitch": 54,
            "startTime": 1.625,
            "endTime": 1.75
          }
        ],
        "controlChanges": {},
        "id": 0,
        "channelNumber": 0,
        "isPercussion": false
      }
    ]
  },
  "fraxinus ornus_chords": {
    "header": {
      "PPQ": 128,
      "bpm": 120,
      "name": ""
    },
    "startTime": 0,
    "duration": 1,
    "tracks": [
      {
        "startTime": 0,
        "duration": 1,
        "length": 13,
        "notes": [
          {
            "name": "D3",
            "midi": 50,
            "time": 0,
            "velocity": 0.7086614173228346,
            "duration": 0.5,
            "frequency": 146.8323839587038,
            "pitch": 50,
            "startTime": 0,
            "endTime": 0.5
          },
          {
            "name": "G3",
            "midi": 55,
            "time": 0,
            "velocity": 0.7086614173228346,
            "duration": 0.5,
            "frequency": 195.99771799087463,
            "pitch": 55,
            "startTime": 0,
            "endTime": 0.5
          },
          {
            "name": "C#4",
            "midi": 61,
            "time": 0,
            "velocity": 0.7086614173228346,
            "duration": 0.5,
            "frequency": 277.1826309768721,
            "pitch": 61,
            "startTime": 0,
            "endTime": 0.5
          },
          {
            "name": "B4",
            "midi": 71,
            "time": 0,
            "velocity": 0.7086614173228346,
            "duration": 0.5,
            "frequency": 493.8833012561242,
            "pitch": 71,
            "startTime": 0,
            "endTime": 0.5
          },
          {
            "name": "F#5",
            "midi": 78,
            "time": 0,
            "velocity": 0.7086614173228346,
            "duration": 0.5,
            "frequency": 739.9888454232689,
            "pitch": 76,
            "startTime": 0,
            "endTime": 0.5
          },
          {
            "name": "F6",
            "midi": 89,
            "time": 0,
            "velocity": 0.7086614173228346,
            "duration": 0.5,
            "frequency": 1396.9129257320155,
            "pitch": 76,
            "startTime": 0,
            "endTime": 0.5
          },
          {
            "name": "A#6",
            "midi": 94,
            "time": 0,
            "velocity": 0.7086614173228346,
            "duration": 0.5,
            "frequency": 1864.6550460723597,
            "pitch": 76,
            "startTime": 0,
            "endTime": 0.5
          },
          {
            "name": "G7",
            "midi": 103,
            "time": 0,
            "velocity": 0.7086614173228346,
            "duration": 0.5,
            "frequency": 3135.9634878539946,
            "pitch": 76,
            "startTime": 0,
            "endTime": 0.5
          },
          {
            "name": "G#3",
            "midi": 56,
            "time": 0.5,
            "velocity": 0.7086614173228346,
            "duration": 0.5,
            "frequency": 207.65234878997256,
            "pitch": 56,
            "startTime": 0.5,
            "endTime": 1
          },
          {
            "name": "G4",
            "midi": 67,
            "time": 0.5,
            "velocity": 0.7086614173228346,
            "duration": 0.5,
            "frequency": 391.99543598174927,
            "pitch": 67,
            "startTime": 0.5,
            "endTime": 1
          },
          {
            "name": "F5",
            "midi": 77,
            "time": 0.5,
            "velocity": 0.7086614173228346,
            "duration": 0.5,
            "frequency": 698.4564628660078,
            "pitch": 76,
            "startTime": 0.5,
            "endTime": 1
          },
          {
            "name": "A#5",
            "midi": 82,
            "time": 0.5,
            "velocity": 0.7086614173228346,
            "duration": 0.5,
            "frequency": 932.3275230361799,
            "pitch": 76,
            "startTime": 0.5,
            "endTime": 1
          },
          {
            "name": "G6",
            "midi": 91,
            "time": 0.5,
            "velocity": 0.7086614173228346,
            "duration": 0.5,
            "frequency": 1567.981743926997,
            "pitch": 76,
            "startTime": 0.5,
            "endTime": 1
          }
        ],
        "controlChanges": {},
        "id": 0,
        "channelNumber": 0,
        "isPercussion": false
      }
    ]
  },
  "fraxinus pendula_french": {
    "header": {
      "PPQ": 128,
      "bpm": 120,
      "name": ""
    },
    "startTime": 0,
    "duration": 8.5,
    "tracks": [
      {
        "startTime": 0,
        "duration": 8.5,
        "length": 16,
        "notes": [
          {
            "name": "F4",
            "midi": 65,
            "time": 0,
            "velocity": 0.7086614173228346,
            "duration": 1,
            "frequency": 349.2282314330039,
            "pitch": 65,
            "startTime": 0,
            "endTime": 1
          },
          {
            "name": "D4",
            "midi": 62,
            "time": 1,
            "velocity": 0.7086614173228346,
            "duration": 0.25,
            "frequency": 293.6647679174076,
            "pitch": 62,
            "startTime": 1,
            "endTime": 1.25
          },
          {
            "name": "A3",
            "midi": 57,
            "time": 1.25,
            "velocity": 0.7086614173228346,
            "duration": 1,
            "frequency": 220,
            "pitch": 57,
            "startTime": 1.25,
            "endTime": 2.25
          },
          {
            "name": "C4",
            "midi": 60,
            "time": 2.25,
            "velocity": 0.7086614173228346,
            "duration": 0.125,
            "frequency": 261.6255653005986,
            "pitch": 60,
            "startTime": 2.25,
            "endTime": 2.375
          },
          {
            "name": "B3",
            "midi": 59,
            "time": 2.375,
            "velocity": 0.7086614173228346,
            "duration": 0.5,
            "frequency": 246.9416506280621,
            "pitch": 59,
            "startTime": 2.375,
            "endTime": 2.875
          },
          {
            "name": "G3",
            "midi": 55,
            "time": 2.875,
            "velocity": 0.7086614173228346,
            "duration": 0.5,
            "frequency": 195.99771799087463,
            "pitch": 55,
            "startTime": 2.875,
            "endTime": 3.375
          },
          {
            "name": "G3",
            "midi": 55,
            "time": 3.375,
            "velocity": 0.7086614173228346,
            "duration": 0.25,
            "frequency": 195.99771799087463,
            "pitch": 55,
            "startTime": 3.375,
            "endTime": 3.625
          },
          {
            "name": "E3",
            "midi": 52,
            "time": 3.625,
            "velocity": 0.7086614173228346,
            "duration": 0.25,
            "frequency": 164.81377845643496,
            "pitch": 52,
            "startTime": 3.625,
            "endTime": 3.875
          },
          {
            "name": "G3",
            "midi": 55,
            "time": 3.875,
            "velocity": 0.7086614173228346,
            "duration": 0.125,
            "frequency": 195.99771799087463,
            "pitch": 55,
            "startTime": 3.875,
            "endTime": 4
          },
          {
            "name": "B3",
            "midi": 59,
            "time": 4,
            "velocity": 0.7086614173228346,
            "duration": 0.25,
            "frequency": 246.9416506280621,
            "pitch": 59,
            "startTime": 4,
            "endTime": 4.25
          },
          {
            "name": "E4",
            "midi": 64,
            "time": 4.25,
            "velocity": 0.7086614173228346,
            "duration": 1,
            "frequency": 329.6275569128699,
            "pitch": 64,
            "startTime": 4.25,
            "endTime": 5.25
          },
          {
            "name": "G4",
            "midi": 67,
            "time": 5.25,
            "velocity": 0.7086614173228346,
            "duration": 0.5,
            "frequency": 391.99543598174927,
            "pitch": 67,
            "startTime": 5.25,
            "endTime": 5.75
          },
          {
            "name": "D4",
            "midi": 62,
            "time": 5.75,
            "velocity": 0.7086614173228346,
            "duration": 1,
            "frequency": 293.6647679174076,
            "pitch": 62,
            "startTime": 5.75,
            "endTime": 6.75
          },
          {
            "name": "G4",
            "midi": 67,
            "time": 6.75,
            "velocity": 0.7086614173228346,
            "duration": 0.25,
            "frequency": 391.99543598174927,
            "pitch": 67,
            "startTime": 6.75,
            "endTime": 7
          },
          {
            "name": "E4",
            "midi": 64,
            "time": 7,
            "velocity": 0.7086614173228346,
            "duration": 0.5,
            "frequency": 329.6275569128699,
            "pitch": 64,
            "startTime": 7,
            "endTime": 7.5
          },
          {
            "name": "A4",
            "midi": 69,
            "time": 7.5,
            "velocity": 0.7086614173228346,
            "duration": 1,
            "frequency": 440,
            "pitch": 69,
            "startTime": 7.5,
            "endTime": 8.5
          }
        ],
        "controlChanges": {},
        "id": 0,
        "channelNumber": 0,
        "isPercussion": false
      }
    ]
  },
  "fraxinus pendula_keyboard": {
    "header": {
      "PPQ": 128,
      "bpm": 120,
      "name": ""
    },
    "startTime": 0,
    "duration": 2,
    "tracks": [
      {
        "startTime": 0,
        "duration": 2,
        "length": 16,
        "notes": [
          {
            "name": "D#4",
            "midi": 63,
            "time": 0,
            "velocity": 0.7086614173228346,
            "duration": 0.125,
            "frequency": 311.12698372208087,
            "pitch": 63,
            "startTime": 0,
            "endTime": 0.125
          },
          {
            "name": "D4",
            "midi": 62,
            "time": 0.125,
            "velocity": 0.7086614173228346,
            "duration": 0.125,
            "frequency": 293.6647679174076,
            "pitch": 62,
            "startTime": 0.125,
            "endTime": 0.25
          },
          {
            "name": "D3",
            "midi": 50,
            "time": 0.25,
            "velocity": 0.7086614173228346,
            "duration": 0.125,
            "frequency": 146.8323839587038,
            "pitch": 50,
            "startTime": 0.25,
            "endTime": 0.375
          },
          {
            "name": "G3",
            "midi": 55,
            "time": 0.375,
            "velocity": 0.7086614173228346,
            "duration": 0.125,
            "frequency": 195.99771799087463,
            "pitch": 55,
            "startTime": 0.375,
            "endTime": 0.5
          },
          {
            "name": "F#5",
            "midi": 78,
            "time": 0.5,
            "velocity": 0.7086614173228346,
            "duration": 0.125,
            "frequency": 739.9888454232689,
            "pitch": 76,
            "startTime": 0.5,
            "endTime": 0.625
          },
          {
            "name": "C5",
            "midi": 72,
            "time": 0.625,
            "velocity": 0.7086614173228346,
            "duration": 0.125,
            "frequency": 523.2511306011972,
            "pitch": 72,
            "startTime": 0.625,
            "endTime": 0.75
          },
          {
            "name": "D5",
            "midi": 74,
            "time": 0.75,
            "velocity": 0.7086614173228346,
            "duration": 0.125,
            "frequency": 587.3295358348151,
            "pitch": 74,
            "startTime": 0.75,
            "endTime": 0.875
          },
          {
            "name": "F#3",
            "midi": 54,
            "time": 0.875,
            "velocity": 0.7086614173228346,
            "duration": 0.125,
            "frequency": 184.99721135581723,
            "pitch": 54,
            "startTime": 0.875,
            "endTime": 1
          },
          {
            "name": "C4",
            "midi": 60,
            "time": 1,
            "velocity": 0.7086614173228346,
            "duration": 0.125,
            "frequency": 261.6255653005986,
            "pitch": 60,
            "startTime": 1,
            "endTime": 1.125
          },
          {
            "name": "D6",
            "midi": 86,
            "time": 1.125,
            "velocity": 0.7086614173228346,
            "duration": 0.125,
            "frequency": 1174.6590716696303,
            "pitch": 76,
            "startTime": 1.125,
            "endTime": 1.25
          },
          {
            "name": "A3",
            "midi": 57,
            "time": 1.25,
            "velocity": 0.7086614173228346,
            "duration": 0.125,
            "frequency": 220,
            "pitch": 57,
            "startTime": 1.25,
            "endTime": 1.375
          },
          {
            "name": "C5",
            "midi": 72,
            "time": 1.375,
            "velocity": 0.7086614173228346,
            "duration": 0.125,
            "frequency": 523.2511306011972,
            "pitch": 72,
            "startTime": 1.375,
            "endTime": 1.5
          },
          {
            "name": "A#3",
            "midi": 58,
            "time": 1.5,
            "velocity": 0.7086614173228346,
            "duration": 0.125,
            "frequency": 233.08188075904496,
            "pitch": 58,
            "startTime": 1.5,
            "endTime": 1.625
          },
          {
            "name": "D5",
            "midi": 74,
            "time": 1.625,
            "velocity": 0.7086614173228346,
            "duration": 0.125,
            "frequency": 587.3295358348151,
            "pitch": 74,
            "startTime": 1.625,
            "endTime": 1.75
          },
          {
            "name": "B5",
            "midi": 83,
            "time": 1.75,
            "velocity": 0.7086614173228346,
            "duration": 0.125,
            "frequency": 987.7666025122484,
            "pitch": 76,
            "startTime": 1.75,
            "endTime": 1.875
          },
          {
            "name": "D3",
            "midi": 50,
            "time": 1.875,
            "velocity": 0.7086614173228346,
            "duration": 0.125,
            "frequency": 146.8323839587038,
            "pitch": 50,
            "startTime": 1.875,
            "endTime": 2
          }
        ],
        "controlChanges": {},
        "id": 0,
        "channelNumber": 0,
        "isPercussion": false
      }
    ]
  },
  "fraxinus pendula_chords": {
    "header": {
      "PPQ": 128,
      "bpm": 120,
      "name": ""
    },
    "startTime": 0,
    "duration": 1,
    "tracks": [
      {
        "startTime": 0,
        "duration": 1,
        "length": 15,
        "notes": [
          {
            "name": "D3",
            "midi": 50,
            "time": 0,
            "velocity": 0.7086614173228346,
            "duration": 0.5,
            "frequency": 146.8323839587038,
            "pitch": 50,
            "startTime": 0,
            "endTime": 0.5
          },
          {
            "name": "G3",
            "midi": 55,
            "time": 0,
            "velocity": 0.7086614173228346,
            "duration": 0.5,
            "frequency": 195.99771799087463,
            "pitch": 55,
            "startTime": 0,
            "endTime": 0.5
          },
          {
            "name": "C#4",
            "midi": 61,
            "time": 0,
            "velocity": 0.7086614173228346,
            "duration": 0.5,
            "frequency": 277.1826309768721,
            "pitch": 61,
            "startTime": 0,
            "endTime": 0.5
          },
          {
            "name": "B4",
            "midi": 71,
            "time": 0,
            "velocity": 0.7086614173228346,
            "duration": 0.5,
            "frequency": 493.8833012561242,
            "pitch": 71,
            "startTime": 0,
            "endTime": 0.5
          },
          {
            "name": "F#5",
            "midi": 78,
            "time": 0,
            "velocity": 0.7086614173228346,
            "duration": 0.5,
            "frequency": 739.9888454232689,
            "pitch": 76,
            "startTime": 0,
            "endTime": 0.5
          },
          {
            "name": "F6",
            "midi": 89,
            "time": 0,
            "velocity": 0.7086614173228346,
            "duration": 0.5,
            "frequency": 1396.9129257320155,
            "pitch": 76,
            "startTime": 0,
            "endTime": 0.5
          },
          {
            "name": "A#6",
            "midi": 94,
            "time": 0,
            "velocity": 0.7086614173228346,
            "duration": 0.5,
            "frequency": 1864.6550460723597,
            "pitch": 76,
            "startTime": 0,
            "endTime": 0.5
          },
          {
            "name": "G7",
            "midi": 103,
            "time": 0,
            "velocity": 0.7086614173228346,
            "duration": 0.5,
            "frequency": 3135.9634878539946,
            "pitch": 76,
            "startTime": 0,
            "endTime": 0.5
          },
          {
            "name": "F3",
            "midi": 53,
            "time": 0.5,
            "velocity": 0.7086614173228346,
            "duration": 0.5,
            "frequency": 174.61411571650194,
            "pitch": 53,
            "startTime": 0.5,
            "endTime": 1
          },
          {
            "name": "D#4",
            "midi": 63,
            "time": 0.5,
            "velocity": 0.7086614173228346,
            "duration": 0.5,
            "frequency": 311.12698372208087,
            "pitch": 63,
            "startTime": 0.5,
            "endTime": 1
          },
          {
            "name": "F4",
            "midi": 65,
            "time": 0.5,
            "velocity": 0.7086614173228346,
            "duration": 0.5,
            "frequency": 349.2282314330039,
            "pitch": 65,
            "startTime": 0.5,
            "endTime": 1
          },
          {
            "name": "C5",
            "midi": 72,
            "time": 0.5,
            "velocity": 0.7086614173228346,
            "duration": 0.5,
            "frequency": 523.2511306011972,
            "pitch": 72,
            "startTime": 0.5,
            "endTime": 1
          },
          {
            "name": "A#5",
            "midi": 82,
            "time": 0.5,
            "velocity": 0.7086614173228346,
            "duration": 0.5,
            "frequency": 932.3275230361799,
            "pitch": 76,
            "startTime": 0.5,
            "endTime": 1
          },
          {
            "name": "E6",
            "midi": 88,
            "time": 0.5,
            "velocity": 0.7086614173228346,
            "duration": 0.5,
            "frequency": 1318.5102276514797,
            "pitch": 76,
            "startTime": 0.5,
            "endTime": 1
          },
          {
            "name": "C#7",
            "midi": 97,
            "time": 0.5,
            "velocity": 0.7086614173228346,
            "duration": 0.5,
            "frequency": 2217.461047814977,
            "pitch": 76,
            "startTime": 0.5,
            "endTime": 1
          }
        ],
        "controlChanges": {},
        "id": 0,
        "channelNumber": 0,
        "isPercussion": false
      }
    ]
  },
  "ilex aquifolium_french": {
    "header": {
      "PPQ": 128,
      "bpm": 120,
      "name": ""
    },
    "startTime": 0,
    "duration": 7.25,
    "tracks": [
      {
        "startTime": 0,
        "duration": 7.25,
        "length": 15,
        "notes": [
          {
            "name": "B4",
            "midi": 71,
            "time": 0,
            "velocity": 0.7086614173228346,
            "duration": 0.5,
            "frequency": 493.8833012561242,
            "pitch": 71,
            "startTime": 0,
            "endTime": 0.5
          },
          {
            "name": "E5",
            "midi": 76,
            "time": 0.5,
            "velocity": 0.7086614173228346,
            "duration": 0.5,
            "frequency": 659.2551138257398,
            "pitch": 76,
            "startTime": 0.5,
            "endTime": 1
          },
          {
            "name": "E5",
            "midi": 76,
            "time": 1,
            "velocity": 0.7086614173228346,
            "duration": 1,
            "frequency": 659.2551138257398,
            "pitch": 76,
            "startTime": 1,
            "endTime": 2
          },
          {
            "name": "C5",
            "midi": 72,
            "time": 2,
            "velocity": 0.7086614173228346,
            "duration": 0.125,
            "frequency": 523.2511306011972,
            "pitch": 72,
            "startTime": 2,
            "endTime": 2.125
          },
          {
            "name": "G4",
            "midi": 67,
            "time": 2.125,
            "velocity": 0.7086614173228346,
            "duration": 0.125,
            "frequency": 391.99543598174927,
            "pitch": 67,
            "startTime": 2.125,
            "endTime": 2.25
          },
          {
            "name": "A4",
            "midi": 69,
            "time": 2.25,
            "velocity": 0.7086614173228346,
            "duration": 1,
            "frequency": 440,
            "pitch": 69,
            "startTime": 2.25,
            "endTime": 3.25
          },
          {
            "name": "C5",
            "midi": 72,
            "time": 3.25,
            "velocity": 0.7086614173228346,
            "duration": 0.25,
            "frequency": 523.2511306011972,
            "pitch": 72,
            "startTime": 3.25,
            "endTime": 3.5
          },
          {
            "name": "G4",
            "midi": 67,
            "time": 3.5,
            "velocity": 0.7086614173228346,
            "duration": 0.25,
            "frequency": 391.99543598174927,
            "pitch": 67,
            "startTime": 3.5,
            "endTime": 3.75
          },
          {
            "name": "B4",
            "midi": 71,
            "time": 3.75,
            "velocity": 0.7086614173228346,
            "duration": 0.5,
            "frequency": 493.8833012561242,
            "pitch": 71,
            "startTime": 3.75,
            "endTime": 4.25
          },
          {
            "name": "F4",
            "midi": 65,
            "time": 4.25,
            "velocity": 0.7086614173228346,
            "duration": 1,
            "frequency": 349.2282314330039,
            "pitch": 65,
            "startTime": 4.25,
            "endTime": 5.25
          },
          {
            "name": "A4",
            "midi": 69,
            "time": 5.25,
            "velocity": 0.7086614173228346,
            "duration": 0.25,
            "frequency": 440,
            "pitch": 69,
            "startTime": 5.25,
            "endTime": 5.5
          },
          {
            "name": "E4",
            "midi": 64,
            "time": 5.5,
            "velocity": 0.7086614173228346,
            "duration": 0.5,
            "frequency": 329.6275569128699,
            "pitch": 64,
            "startTime": 5.5,
            "endTime": 6
          },
          {
            "name": "B3",
            "midi": 59,
            "time": 6,
            "velocity": 0.7086614173228346,
            "duration": 0.5,
            "frequency": 246.9416506280621,
            "pitch": 59,
            "startTime": 6,
            "endTime": 6.5
          },
          {
            "name": "G3",
            "midi": 55,
            "time": 6.5,
            "velocity": 0.7086614173228346,
            "duration": 0.25,
            "frequency": 195.99771799087463,
            "pitch": 55,
            "startTime": 6.5,
            "endTime": 6.75
          },
          {
            "name": "F3",
            "midi": 53,
            "time": 6.75,
            "velocity": 0.7086614173228346,
            "duration": 0.5,
            "frequency": 174.61411571650194,
            "pitch": 53,
            "startTime": 6.75,
            "endTime": 7.25
          }
        ],
        "controlChanges": {},
        "id": 0,
        "channelNumber": 0,
        "isPercussion": false
      }
    ]
  },
  "ilex aquifolium_keyboard": {
    "header": {
      "PPQ": 128,
      "bpm": 120,
      "name": ""
    },
    "startTime": 0,
    "duration": 1.875,
    "tracks": [
      {
        "startTime": 0,
        "duration": 1.875,
        "length": 15,
        "notes": [
          {
            "name": "F#5",
            "midi": 78,
            "time": 0,
            "velocity": 0.7086614173228346,
            "duration": 0.125,
            "frequency": 739.9888454232689,
            "pitch": 76,
            "startTime": 0,
            "endTime": 0.125
          },
          {
            "name": "B5",
            "midi": 83,
            "time": 0.125,
            "velocity": 0.7086614173228346,
            "duration": 0.125,
            "frequency": 987.7666025122484,
            "pitch": 76,
            "startTime": 0.125,
            "endTime": 0.25
          },
          {
            "name": "A3",
            "midi": 57,
            "time": 0.25,
            "velocity": 0.7086614173228346,
            "duration": 0.125,
            "frequency": 220,
            "pitch": 57,
            "startTime": 0.25,
            "endTime": 0.375
          },
          {
            "name": "G3",
            "midi": 55,
            "time": 0.375,
            "velocity": 0.7086614173228346,
            "duration": 0.125,
            "frequency": 195.99771799087463,
            "pitch": 55,
            "startTime": 0.375,
            "endTime": 0.5
          },
          {
            "name": "C4",
            "midi": 60,
            "time": 0.5,
            "velocity": 0.7086614173228346,
            "duration": 0.125,
            "frequency": 261.6255653005986,
            "pitch": 60,
            "startTime": 0.5,
            "endTime": 0.625
          },
          {
            "name": "D3",
            "midi": 50,
            "time": 0.625,
            "velocity": 0.7086614173228346,
            "duration": 0.125,
            "frequency": 146.8323839587038,
            "pitch": 50,
            "startTime": 0.625,
            "endTime": 0.75
          },
          {
            "name": "C#3",
            "midi": 49,
            "time": 0.75,
            "velocity": 0.7086614173228346,
            "duration": 0.125,
            "frequency": 138.59131548843604,
            "pitch": 49,
            "startTime": 0.75,
            "endTime": 0.875
          },
          {
            "name": "D5",
            "midi": 74,
            "time": 0.875,
            "velocity": 0.7086614173228346,
            "duration": 0.125,
            "frequency": 587.3295358348151,
            "pitch": 74,
            "startTime": 0.875,
            "endTime": 1
          },
          {
            "name": "F#5",
            "midi": 78,
            "time": 1,
            "velocity": 0.7086614173228346,
            "duration": 0.125,
            "frequency": 739.9888454232689,
            "pitch": 76,
            "startTime": 1,
            "endTime": 1.125
          },
          {
            "name": "D#4",
            "midi": 63,
            "time": 1.125,
            "velocity": 0.7086614173228346,
            "duration": 0.125,
            "frequency": 311.12698372208087,
            "pitch": 63,
            "startTime": 1.125,
            "endTime": 1.25
          },
          {
            "name": "A#5",
            "midi": 82,
            "time": 1.25,
            "velocity": 0.7086614173228346,
            "duration": 0.125,
            "frequency": 932.3275230361799,
            "pitch": 76,
            "startTime": 1.25,
            "endTime": 1.375
          },
          {
            "name": "B5",
            "midi": 83,
            "time": 1.375,
            "velocity": 0.7086614173228346,
            "duration": 0.125,
            "frequency": 987.7666025122484,
            "pitch": 76,
            "startTime": 1.375,
            "endTime": 1.5
          },
          {
            "name": "F#5",
            "midi": 78,
            "time": 1.5,
            "velocity": 0.7086614173228346,
            "duration": 0.125,
            "frequency": 739.9888454232689,
            "pitch": 76,
            "startTime": 1.5,
            "endTime": 1.625
          },
          {
            "name": "D5",
            "midi": 74,
            "time": 1.625,
            "velocity": 0.7086614173228346,
            "duration": 0.125,
            "frequency": 587.3295358348151,
            "pitch": 74,
            "startTime": 1.625,
            "endTime": 1.75
          },
          {
            "name": "E5",
            "midi": 76,
            "time": 1.75,
            "velocity": 0.7086614173228346,
            "duration": 0.125,
            "frequency": 659.2551138257398,
            "pitch": 76,
            "startTime": 1.75,
            "endTime": 1.875
          }
        ],
        "controlChanges": {},
        "id": 0,
        "channelNumber": 0,
        "isPercussion": false
      }
    ]
  },
  "ilex aquifolium_chords": {
    "header": {
      "PPQ": 128,
      "bpm": 120,
      "name": ""
    },
    "startTime": 0,
    "duration": 1,
    "tracks": [
      {
        "startTime": 0,
        "duration": 1,
        "length": 14,
        "notes": [
          {
            "name": "F#3",
            "midi": 54,
            "time": 0,
            "velocity": 0.7086614173228346,
            "duration": 0.5,
            "frequency": 184.99721135581723,
            "pitch": 54,
            "startTime": 0,
            "endTime": 0.5
          },
          {
            "name": "E4",
            "midi": 64,
            "time": 0,
            "velocity": 0.7086614173228346,
            "duration": 0.5,
            "frequency": 329.6275569128699,
            "pitch": 64,
            "startTime": 0,
            "endTime": 0.5
          },
          {
            "name": "D#5",
            "midi": 75,
            "time": 0,
            "velocity": 0.7086614173228346,
            "duration": 0.5,
            "frequency": 622.2539674441618,
            "pitch": 75,
            "startTime": 0,
            "endTime": 0.5
          },
          {
            "name": "B5",
            "midi": 83,
            "time": 0,
            "velocity": 0.7086614173228346,
            "duration": 0.5,
            "frequency": 987.7666025122484,
            "pitch": 76,
            "startTime": 0,
            "endTime": 0.5
          },
          {
            "name": "C#3",
            "midi": 49,
            "time": 0.5,
            "velocity": 0.7086614173228346,
            "duration": 0.5,
            "frequency": 138.59131548843604,
            "pitch": 49,
            "startTime": 0.5,
            "endTime": 1
          },
          {
            "name": "G3",
            "midi": 55,
            "time": 0.5,
            "velocity": 0.7086614173228346,
            "duration": 0.5,
            "frequency": 195.99771799087463,
            "pitch": 55,
            "startTime": 0.5,
            "endTime": 1
          },
          {
            "name": "A#3",
            "midi": 58,
            "time": 0.5,
            "velocity": 0.7086614173228346,
            "duration": 0.5,
            "frequency": 233.08188075904496,
            "pitch": 58,
            "startTime": 0.5,
            "endTime": 1
          },
          {
            "name": "F#4",
            "midi": 66,
            "time": 0.5,
            "velocity": 0.7086614173228346,
            "duration": 0.5,
            "frequency": 369.99442271163446,
            "pitch": 66,
            "startTime": 0.5,
            "endTime": 1
          },
          {
            "name": "D5",
            "midi": 74,
            "time": 0.5,
            "velocity": 0.7086614173228346,
            "duration": 0.5,
            "frequency": 587.3295358348151,
            "pitch": 74,
            "startTime": 0.5,
            "endTime": 1
          },
          {
            "name": "G#5",
            "midi": 80,
            "time": 0.5,
            "velocity": 0.7086614173228346,
            "duration": 0.5,
            "frequency": 830.6093951598903,
            "pitch": 76,
            "startTime": 0.5,
            "endTime": 1
          },
          {
            "name": "E6",
            "midi": 88,
            "time": 0.5,
            "velocity": 0.7086614173228346,
            "duration": 0.5,
            "frequency": 1318.5102276514797,
            "pitch": 76,
            "startTime": 0.5,
            "endTime": 1
          },
          {
            "name": "F#6",
            "midi": 90,
            "time": 0.5,
            "velocity": 0.7086614173228346,
            "duration": 0.5,
            "frequency": 1479.9776908465378,
            "pitch": 76,
            "startTime": 0.5,
            "endTime": 1
          },
          {
            "name": "A#6",
            "midi": 94,
            "time": 0.5,
            "velocity": 0.7086614173228346,
            "duration": 0.5,
            "frequency": 1864.6550460723597,
            "pitch": 76,
            "startTime": 0.5,
            "endTime": 1
          },
          {
            "name": "F7",
            "midi": 101,
            "time": 0.5,
            "velocity": 0.7086614173228346,
            "duration": 0.5,
            "frequency": 2793.825851464031,
            "pitch": 76,
            "startTime": 0.5,
            "endTime": 1
          }
        ],
        "controlChanges": {},
        "id": 0,
        "channelNumber": 0,
        "isPercussion": false
      }
    ]
  },
  "juniperus communis_french": {
    "header": {
      "PPQ": 128,
      "bpm": 120,
      "name": ""
    },
    "startTime": 0,
    "duration": 7.625,
    "tracks": [
      {
        "startTime": 0,
        "duration": 7.625,
        "length": 18,
        "notes": [
          {
            "name": "C5",
            "midi": 72,
            "time": 0,
            "velocity": 0.7086614173228346,
            "duration": 0.5,
            "frequency": 523.2511306011972,
            "pitch": 72,
            "startTime": 0,
            "endTime": 0.5
          },
          {
            "name": "G4",
            "midi": 67,
            "time": 0.5,
            "velocity": 0.7086614173228346,
            "duration": 0.25,
            "frequency": 391.99543598174927,
            "pitch": 67,
            "startTime": 0.5,
            "endTime": 0.75
          },
          {
            "name": "G4",
            "midi": 67,
            "time": 0.75,
            "velocity": 0.7086614173228346,
            "duration": 0.5,
            "frequency": 391.99543598174927,
            "pitch": 67,
            "startTime": 0.75,
            "endTime": 1.25
          },
          {
            "name": "B4",
            "midi": 71,
            "time": 1.25,
            "velocity": 0.7086614173228346,
            "duration": 0.5,
            "frequency": 493.8833012561242,
            "pitch": 71,
            "startTime": 1.25,
            "endTime": 1.75
          },
          {
            "name": "B4",
            "midi": 71,
            "time": 1.75,
            "velocity": 0.7086614173228346,
            "duration": 0.25,
            "frequency": 493.8833012561242,
            "pitch": 71,
            "startTime": 1.75,
            "endTime": 2
          },
          {
            "name": "E5",
            "midi": 76,
            "time": 2,
            "velocity": 0.7086614173228346,
            "duration": 1,
            "frequency": 659.2551138257398,
            "pitch": 76,
            "startTime": 2,
            "endTime": 3
          },
          {
            "name": "D5",
            "midi": 74,
            "time": 3,
            "velocity": 0.7086614173228346,
            "duration": 0.25,
            "frequency": 587.3295358348151,
            "pitch": 74,
            "startTime": 3,
            "endTime": 3.25
          },
          {
            "name": "G5",
            "midi": 79,
            "time": 3.25,
            "velocity": 0.7086614173228346,
            "duration": 0.25,
            "frequency": 783.9908719634986,
            "pitch": 76,
            "startTime": 3.25,
            "endTime": 3.5
          },
          {
            "name": "E5",
            "midi": 76,
            "time": 3.5,
            "velocity": 0.7086614173228346,
            "duration": 0.25,
            "frequency": 659.2551138257398,
            "pitch": 76,
            "startTime": 3.5,
            "endTime": 3.75
          },
          {
            "name": "G5",
            "midi": 79,
            "time": 3.75,
            "velocity": 0.7086614173228346,
            "duration": 0.125,
            "frequency": 783.9908719634986,
            "pitch": 76,
            "startTime": 3.75,
            "endTime": 3.875
          },
          {
            "name": "C6",
            "midi": 84,
            "time": 3.875,
            "velocity": 0.7086614173228346,
            "duration": 1,
            "frequency": 1046.5022612023945,
            "pitch": 76,
            "startTime": 3.875,
            "endTime": 4.875
          },
          {
            "name": "A5",
            "midi": 81,
            "time": 4.875,
            "velocity": 0.7086614173228346,
            "duration": 0.25,
            "frequency": 880,
            "pitch": 76,
            "startTime": 4.875,
            "endTime": 5.125
          },
          {
            "name": "F5",
            "midi": 77,
            "time": 5.125,
            "velocity": 0.7086614173228346,
            "duration": 0.5,
            "frequency": 698.4564628660078,
            "pitch": 76,
            "startTime": 5.125,
            "endTime": 5.625
          },
          {
            "name": "F5",
            "midi": 77,
            "time": 5.625,
            "velocity": 0.7086614173228346,
            "duration": 0.5,
            "frequency": 698.4564628660078,
            "pitch": 76,
            "startTime": 5.625,
            "endTime": 6.125
          },
          {
            "name": "G5",
            "midi": 79,
            "time": 6.125,
            "velocity": 0.7086614173228346,
            "duration": 0.25,
            "frequency": 783.9908719634986,
            "pitch": 76,
            "startTime": 6.125,
            "endTime": 6.375
          },
          {
            "name": "G5",
            "midi": 79,
            "time": 6.375,
            "velocity": 0.7086614173228346,
            "duration": 0.5,
            "frequency": 783.9908719634986,
            "pitch": 76,
            "startTime": 6.375,
            "endTime": 6.875
          },
          {
            "name": "B5",
            "midi": 83,
            "time": 6.875,
            "velocity": 0.7086614173228346,
            "duration": 0.5,
            "frequency": 987.7666025122484,
            "pitch": 76,
            "startTime": 6.875,
            "endTime": 7.375
          },
          {
            "name": "E6",
            "midi": 88,
            "time": 7.375,
            "velocity": 0.7086614173228346,
            "duration": 0.25,
            "frequency": 1318.5102276514797,
            "pitch": 76,
            "startTime": 7.375,
            "endTime": 7.625
          }
        ],
        "controlChanges": {},
        "id": 0,
        "channelNumber": 0,
        "isPercussion": false
      }
    ]
  },
  "juniperus communis_keyboard": {
    "header": {
      "PPQ": 128,
      "bpm": 120,
      "name": ""
    },
    "startTime": 0,
    "duration": 2.25,
    "tracks": [
      {
        "startTime": 0,
        "duration": 2.25,
        "length": 18,
        "notes": [
          {
            "name": "D#5",
            "midi": 75,
            "time": 0,
            "velocity": 0.7086614173228346,
            "duration": 0.125,
            "frequency": 622.2539674441618,
            "pitch": 75,
            "startTime": 0,
            "endTime": 0.125
          },
          {
            "name": "D5",
            "midi": 74,
            "time": 0.125,
            "velocity": 0.7086614173228346,
            "duration": 0.125,
            "frequency": 587.3295358348151,
            "pitch": 74,
            "startTime": 0.125,
            "endTime": 0.25
          },
          {
            "name": "C5",
            "midi": 72,
            "time": 0.25,
            "velocity": 0.7086614173228346,
            "duration": 0.125,
            "frequency": 523.2511306011972,
            "pitch": 72,
            "startTime": 0.25,
            "endTime": 0.375
          },
          {
            "name": "F#5",
            "midi": 78,
            "time": 0.375,
            "velocity": 0.7086614173228346,
            "duration": 0.125,
            "frequency": 739.9888454232689,
            "pitch": 76,
            "startTime": 0.375,
            "endTime": 0.5
          },
          {
            "name": "D6",
            "midi": 86,
            "time": 0.5,
            "velocity": 0.7086614173228346,
            "duration": 0.125,
            "frequency": 1174.6590716696303,
            "pitch": 76,
            "startTime": 0.5,
            "endTime": 0.625
          },
          {
            "name": "A3",
            "midi": 57,
            "time": 0.625,
            "velocity": 0.7086614173228346,
            "duration": 0.125,
            "frequency": 220,
            "pitch": 57,
            "startTime": 0.625,
            "endTime": 0.75
          },
          {
            "name": "D4",
            "midi": 62,
            "time": 0.75,
            "velocity": 0.7086614173228346,
            "duration": 0.125,
            "frequency": 293.6647679174076,
            "pitch": 62,
            "startTime": 0.75,
            "endTime": 0.875
          },
          {
            "name": "D5",
            "midi": 74,
            "time": 0.875,
            "velocity": 0.7086614173228346,
            "duration": 0.125,
            "frequency": 587.3295358348151,
            "pitch": 74,
            "startTime": 0.875,
            "endTime": 1
          },
          {
            "name": "F#3",
            "midi": 54,
            "time": 1,
            "velocity": 0.7086614173228346,
            "duration": 0.125,
            "frequency": 184.99721135581723,
            "pitch": 54,
            "startTime": 1,
            "endTime": 1.125
          },
          {
            "name": "C4",
            "midi": 60,
            "time": 1.125,
            "velocity": 0.7086614173228346,
            "duration": 0.125,
            "frequency": 261.6255653005986,
            "pitch": 60,
            "startTime": 1.125,
            "endTime": 1.25
          },
          {
            "name": "B3",
            "midi": 59,
            "time": 1.25,
            "velocity": 0.7086614173228346,
            "duration": 0.125,
            "frequency": 246.9416506280621,
            "pitch": 59,
            "startTime": 1.25,
            "endTime": 1.375
          },
          {
            "name": "A#5",
            "midi": 82,
            "time": 1.375,
            "velocity": 0.7086614173228346,
            "duration": 0.125,
            "frequency": 932.3275230361799,
            "pitch": 76,
            "startTime": 1.375,
            "endTime": 1.5
          },
          {
            "name": "E5",
            "midi": 76,
            "time": 1.5,
            "velocity": 0.7086614173228346,
            "duration": 0.125,
            "frequency": 659.2551138257398,
            "pitch": 76,
            "startTime": 1.5,
            "endTime": 1.625
          },
          {
            "name": "E5",
            "midi": 76,
            "time": 1.625,
            "velocity": 0.7086614173228346,
            "duration": 0.125,
            "frequency": 659.2551138257398,
            "pitch": 76,
            "startTime": 1.625,
            "endTime": 1.75
          },
          {
            "name": "D5",
            "midi": 74,
            "time": 1.75,
            "velocity": 0.7086614173228346,
            "duration": 0.125,
            "frequency": 587.3295358348151,
            "pitch": 74,
            "startTime": 1.75,
            "endTime": 1.875
          },
          {
            "name": "C5",
            "midi": 72,
            "time": 1.875,
            "velocity": 0.7086614173228346,
            "duration": 0.125,
            "frequency": 523.2511306011972,
            "pitch": 72,
            "startTime": 1.875,
            "endTime": 2
          },
          {
            "name": "F#5",
            "midi": 78,
            "time": 2,
            "velocity": 0.7086614173228346,
            "duration": 0.125,
            "frequency": 739.9888454232689,
            "pitch": 76,
            "startTime": 2,
            "endTime": 2.125
          },
          {
            "name": "F#3",
            "midi": 54,
            "time": 2.125,
            "velocity": 0.7086614173228346,
            "duration": 0.125,
            "frequency": 184.99721135581723,
            "pitch": 54,
            "startTime": 2.125,
            "endTime": 2.25
          }
        ],
        "controlChanges": {},
        "id": 0,
        "channelNumber": 0,
        "isPercussion": false
      }
    ]
  },
  "juniperus communis_chords": {
    "header": {
      "PPQ": 128,
      "bpm": 120,
      "name": ""
    },
    "startTime": 0,
    "duration": 1,
    "tracks": [
      {
        "startTime": 0,
        "duration": 1,
        "length": 17,
        "notes": [
          {
            "name": "E3",
            "midi": 52,
            "time": 0,
            "velocity": 0.7086614173228346,
            "duration": 0.5,
            "frequency": 164.81377845643496,
            "pitch": 52,
            "startTime": 0,
            "endTime": 0.5
          },
          {
            "name": "A#3",
            "midi": 58,
            "time": 0,
            "velocity": 0.7086614173228346,
            "duration": 0.5,
            "frequency": 233.08188075904496,
            "pitch": 58,
            "startTime": 0,
            "endTime": 0.5
          },
          {
            "name": "F4",
            "midi": 65,
            "time": 0,
            "velocity": 0.7086614173228346,
            "duration": 0.5,
            "frequency": 349.2282314330039,
            "pitch": 65,
            "startTime": 0,
            "endTime": 0.5
          },
          {
            "name": "F#4",
            "midi": 66,
            "time": 0,
            "velocity": 0.7086614173228346,
            "duration": 0.5,
            "frequency": 369.99442271163446,
            "pitch": 66,
            "startTime": 0,
            "endTime": 0.5
          },
          {
            "name": "F5",
            "midi": 77,
            "time": 0,
            "velocity": 0.7086614173228346,
            "duration": 0.5,
            "frequency": 698.4564628660078,
            "pitch": 76,
            "startTime": 0,
            "endTime": 0.5
          },
          {
            "name": "D#6",
            "midi": 87,
            "time": 0,
            "velocity": 0.7086614173228346,
            "duration": 0.5,
            "frequency": 1244.5079348883235,
            "pitch": 76,
            "startTime": 0,
            "endTime": 0.5
          },
          {
            "name": "G6",
            "midi": 91,
            "time": 0,
            "velocity": 0.7086614173228346,
            "duration": 0.5,
            "frequency": 1567.981743926997,
            "pitch": 76,
            "startTime": 0,
            "endTime": 0.5
          },
          {
            "name": "A#6",
            "midi": 94,
            "time": 0,
            "velocity": 0.7086614173228346,
            "duration": 0.5,
            "frequency": 1864.6550460723597,
            "pitch": 76,
            "startTime": 0,
            "endTime": 0.5
          },
          {
            "name": "G7",
            "midi": 103,
            "time": 0,
            "velocity": 0.7086614173228346,
            "duration": 0.5,
            "frequency": 3135.9634878539946,
            "pitch": 76,
            "startTime": 0,
            "endTime": 0.5
          },
          {
            "name": "C3",
            "midi": 48,
            "time": 0.5,
            "velocity": 0.7086614173228346,
            "duration": 0.5,
            "frequency": 130.8127826502993,
            "pitch": 48,
            "startTime": 0.5,
            "endTime": 1
          },
          {
            "name": "G#3",
            "midi": 56,
            "time": 0.5,
            "velocity": 0.7086614173228346,
            "duration": 0.5,
            "frequency": 207.65234878997256,
            "pitch": 56,
            "startTime": 0.5,
            "endTime": 1
          },
          {
            "name": "F4",
            "midi": 65,
            "time": 0.5,
            "velocity": 0.7086614173228346,
            "duration": 0.5,
            "frequency": 349.2282314330039,
            "pitch": 65,
            "startTime": 0.5,
            "endTime": 1
          },
          {
            "name": "F5",
            "midi": 77,
            "time": 0.5,
            "velocity": 0.7086614173228346,
            "duration": 0.5,
            "frequency": 698.4564628660078,
            "pitch": 76,
            "startTime": 0.5,
            "endTime": 1
          },
          {
            "name": "A#5",
            "midi": 82,
            "time": 0.5,
            "velocity": 0.7086614173228346,
            "duration": 0.5,
            "frequency": 932.3275230361799,
            "pitch": 76,
            "startTime": 0.5,
            "endTime": 1
          },
          {
            "name": "F6",
            "midi": 89,
            "time": 0.5,
            "velocity": 0.7086614173228346,
            "duration": 0.5,
            "frequency": 1396.9129257320155,
            "pitch": 76,
            "startTime": 0.5,
            "endTime": 1
          },
          {
            "name": "F#6",
            "midi": 90,
            "time": 0.5,
            "velocity": 0.7086614173228346,
            "duration": 0.5,
            "frequency": 1479.9776908465378,
            "pitch": 76,
            "startTime": 0.5,
            "endTime": 1
          },
          {
            "name": "G6",
            "midi": 91,
            "time": 0.5,
            "velocity": 0.7086614173228346,
            "duration": 0.5,
            "frequency": 1567.981743926997,
            "pitch": 76,
            "startTime": 0.5,
            "endTime": 1
          }
        ],
        "controlChanges": {},
        "id": 0,
        "channelNumber": 0,
        "isPercussion": false
      }
    ]
  },
  "koelreuteria_french": {
    "header": {
      "PPQ": 128,
      "bpm": 120,
      "name": ""
    },
    "startTime": 0,
    "duration": 6.75,
    "tracks": [
      {
        "startTime": 0,
        "duration": 6.75,
        "length": 12,
        "notes": [
          {
            "name": "D5",
            "midi": 74,
            "time": 0,
            "velocity": 0.7086614173228346,
            "duration": 0.5,
            "frequency": 587.3295358348151,
            "pitch": 74,
            "startTime": 0,
            "endTime": 0.5
          },
          {
            "name": "A4",
            "midi": 69,
            "time": 0.5,
            "velocity": 0.7086614173228346,
            "duration": 0.25,
            "frequency": 440,
            "pitch": 69,
            "startTime": 0.5,
            "endTime": 0.75
          },
          {
            "name": "E4",
            "midi": 64,
            "time": 0.75,
            "velocity": 0.7086614173228346,
            "duration": 1,
            "frequency": 329.6275569128699,
            "pitch": 64,
            "startTime": 0.75,
            "endTime": 1.75
          },
          {
            "name": "E4",
            "midi": 64,
            "time": 1.75,
            "velocity": 0.7086614173228346,
            "duration": 0.5,
            "frequency": 329.6275569128699,
            "pitch": 64,
            "startTime": 1.75,
            "endTime": 2.25
          },
          {
            "name": "D4",
            "midi": 62,
            "time": 2.25,
            "velocity": 0.7086614173228346,
            "duration": 0.25,
            "frequency": 293.6647679174076,
            "pitch": 62,
            "startTime": 2.25,
            "endTime": 2.5
          },
          {
            "name": "E4",
            "midi": 64,
            "time": 2.5,
            "velocity": 0.7086614173228346,
            "duration": 1,
            "frequency": 329.6275569128699,
            "pitch": 64,
            "startTime": 2.5,
            "endTime": 3.5
          },
          {
            "name": "G4",
            "midi": 67,
            "time": 3.5,
            "velocity": 0.7086614173228346,
            "duration": 0.25,
            "frequency": 391.99543598174927,
            "pitch": 67,
            "startTime": 3.5,
            "endTime": 3.75
          },
          {
            "name": "F4",
            "midi": 65,
            "time": 3.75,
            "velocity": 0.7086614173228346,
            "duration": 0.25,
            "frequency": 349.2282314330039,
            "pitch": 65,
            "startTime": 3.75,
            "endTime": 4
          },
          {
            "name": "E4",
            "midi": 64,
            "time": 4,
            "velocity": 0.7086614173228346,
            "duration": 1,
            "frequency": 329.6275569128699,
            "pitch": 64,
            "startTime": 4,
            "endTime": 5
          },
          {
            "name": "D4",
            "midi": 62,
            "time": 5,
            "velocity": 0.7086614173228346,
            "duration": 0.25,
            "frequency": 293.6647679174076,
            "pitch": 62,
            "startTime": 5,
            "endTime": 5.25
          },
          {
            "name": "B3",
            "midi": 59,
            "time": 5.25,
            "velocity": 0.7086614173228346,
            "duration": 0.5,
            "frequency": 246.9416506280621,
            "pitch": 59,
            "startTime": 5.25,
            "endTime": 5.75
          },
          {
            "name": "A3",
            "midi": 57,
            "time": 5.75,
            "velocity": 0.7086614173228346,
            "duration": 1,
            "frequency": 220,
            "pitch": 57,
            "startTime": 5.75,
            "endTime": 6.75
          }
        ],
        "controlChanges": {},
        "id": 0,
        "channelNumber": 0,
        "isPercussion": false
      }
    ]
  },
  "koelreuteria_keyboard": {
    "header": {
      "PPQ": 128,
      "bpm": 120,
      "name": ""
    },
    "startTime": 0,
    "duration": 1.5,
    "tracks": [
      {
        "startTime": 0,
        "duration": 1.5,
        "length": 12,
        "notes": [
          {
            "name": "G5",
            "midi": 79,
            "time": 0,
            "velocity": 0.7086614173228346,
            "duration": 0.125,
            "frequency": 783.9908719634986,
            "pitch": 76,
            "startTime": 0,
            "endTime": 0.125
          },
          {
            "name": "A#5",
            "midi": 82,
            "time": 0.125,
            "velocity": 0.7086614173228346,
            "duration": 0.125,
            "frequency": 932.3275230361799,
            "pitch": 76,
            "startTime": 0.125,
            "endTime": 0.25
          },
          {
            "name": "A3",
            "midi": 57,
            "time": 0.25,
            "velocity": 0.7086614173228346,
            "duration": 0.125,
            "frequency": 220,
            "pitch": 57,
            "startTime": 0.25,
            "endTime": 0.375
          },
          {
            "name": "B5",
            "midi": 83,
            "time": 0.375,
            "velocity": 0.7086614173228346,
            "duration": 0.125,
            "frequency": 987.7666025122484,
            "pitch": 76,
            "startTime": 0.375,
            "endTime": 0.5
          },
          {
            "name": "D4",
            "midi": 62,
            "time": 0.5,
            "velocity": 0.7086614173228346,
            "duration": 0.125,
            "frequency": 293.6647679174076,
            "pitch": 62,
            "startTime": 0.5,
            "endTime": 0.625
          },
          {
            "name": "A3",
            "midi": 57,
            "time": 0.625,
            "velocity": 0.7086614173228346,
            "duration": 0.125,
            "frequency": 220,
            "pitch": 57,
            "startTime": 0.625,
            "endTime": 0.75
          },
          {
            "name": "D5",
            "midi": 74,
            "time": 0.75,
            "velocity": 0.7086614173228346,
            "duration": 0.125,
            "frequency": 587.3295358348151,
            "pitch": 74,
            "startTime": 0.75,
            "endTime": 0.875
          },
          {
            "name": "F#4",
            "midi": 66,
            "time": 0.875,
            "velocity": 0.7086614173228346,
            "duration": 0.125,
            "frequency": 369.99442271163446,
            "pitch": 66,
            "startTime": 0.875,
            "endTime": 1
          },
          {
            "name": "A3",
            "midi": 57,
            "time": 1,
            "velocity": 0.7086614173228346,
            "duration": 0.125,
            "frequency": 220,
            "pitch": 57,
            "startTime": 1,
            "endTime": 1.125
          },
          {
            "name": "D4",
            "midi": 62,
            "time": 1.125,
            "velocity": 0.7086614173228346,
            "duration": 0.125,
            "frequency": 293.6647679174076,
            "pitch": 62,
            "startTime": 1.125,
            "endTime": 1.25
          },
          {
            "name": "F#5",
            "midi": 78,
            "time": 1.25,
            "velocity": 0.7086614173228346,
            "duration": 0.125,
            "frequency": 739.9888454232689,
            "pitch": 76,
            "startTime": 1.25,
            "endTime": 1.375
          },
          {
            "name": "D3",
            "midi": 50,
            "time": 1.375,
            "velocity": 0.7086614173228346,
            "duration": 0.125,
            "frequency": 146.8323839587038,
            "pitch": 50,
            "startTime": 1.375,
            "endTime": 1.5
          }
        ],
        "controlChanges": {},
        "id": 0,
        "channelNumber": 0,
        "isPercussion": false
      }
    ]
  },
  "koelreuteria_chords": {
    "header": {
      "PPQ": 128,
      "bpm": 120,
      "name": ""
    },
    "startTime": 0,
    "duration": 0.5,
    "tracks": [
      {
        "startTime": 0,
        "duration": 0.5,
        "length": 12,
        "notes": [
          {
            "name": "E3",
            "midi": 52,
            "time": 0,
            "velocity": 0.7086614173228346,
            "duration": 0.5,
            "frequency": 164.81377845643496,
            "pitch": 52,
            "startTime": 0,
            "endTime": 0.5
          },
          {
            "name": "G#3",
            "midi": 56,
            "time": 0,
            "velocity": 0.7086614173228346,
            "duration": 0.5,
            "frequency": 207.65234878997256,
            "pitch": 56,
            "startTime": 0,
            "endTime": 0.5
          },
          {
            "name": "D#4",
            "midi": 63,
            "time": 0,
            "velocity": 0.7086614173228346,
            "duration": 0.5,
            "frequency": 311.12698372208087,
            "pitch": 63,
            "startTime": 0,
            "endTime": 0.5
          },
          {
            "name": "E4",
            "midi": 64,
            "time": 0,
            "velocity": 0.7086614173228346,
            "duration": 0.5,
            "frequency": 329.6275569128699,
            "pitch": 64,
            "startTime": 0,
            "endTime": 0.5
          },
          {
            "name": "G4",
            "midi": 67,
            "time": 0,
            "velocity": 0.7086614173228346,
            "duration": 0.5,
            "frequency": 391.99543598174927,
            "pitch": 67,
            "startTime": 0,
            "endTime": 0.5
          },
          {
            "name": "D#5",
            "midi": 75,
            "time": 0,
            "velocity": 0.7086614173228346,
            "duration": 0.5,
            "frequency": 622.2539674441618,
            "pitch": 75,
            "startTime": 0,
            "endTime": 0.5
          },
          {
            "name": "A#5",
            "midi": 82,
            "time": 0,
            "velocity": 0.7086614173228346,
            "duration": 0.5,
            "frequency": 932.3275230361799,
            "pitch": 76,
            "startTime": 0,
            "endTime": 0.5
          },
          {
            "name": "A6",
            "midi": 93,
            "time": 0,
            "velocity": 0.7086614173228346,
            "duration": 0.5,
            "frequency": 1760,
            "pitch": 76,
            "startTime": 0,
            "endTime": 0.5
          },
          {
            "name": "D#7",
            "midi": 99,
            "time": 0,
            "velocity": 0.7086614173228346,
            "duration": 0.5,
            "frequency": 2489.015869776647,
            "pitch": 76,
            "startTime": 0,
            "endTime": 0.5
          },
          {
            "name": "G7",
            "midi": 103,
            "time": 0,
            "velocity": 0.7086614173228346,
            "duration": 0.5,
            "frequency": 3135.9634878539946,
            "pitch": 76,
            "startTime": 0,
            "endTime": 0.5
          },
          {
            "name": "F#8",
            "midi": 114,
            "time": 0,
            "velocity": 0.7086614173228346,
            "duration": 0.5,
            "frequency": 5919.910763386151,
            "pitch": 76,
            "startTime": 0,
            "endTime": 0.5
          },
          {
            "name": "C#9",
            "midi": 121,
            "time": 0,
            "velocity": 0.7086614173228346,
            "duration": 0.5,
            "frequency": 8869.844191259906,
            "pitch": 76,
            "startTime": 0,
            "endTime": 0.5
          }
        ],
        "controlChanges": {},
        "id": 0,
        "channelNumber": 0,
        "isPercussion": false
      }
    ]
  },
  "laburnum anagyroides_french": {
    "header": {
      "PPQ": 128,
      "bpm": 120,
      "name": ""
    },
    "startTime": 0,
    "duration": 11.25,
    "tracks": [
      {
        "startTime": 0,
        "duration": 11.25,
        "length": 20,
        "notes": [
          {
            "name": "E4",
            "midi": 64,
            "time": 0,
            "velocity": 0.7086614173228346,
            "duration": 0.5,
            "frequency": 329.6275569128699,
            "pitch": 64,
            "startTime": 0,
            "endTime": 0.5
          },
          {
            "name": "A4",
            "midi": 69,
            "time": 0.5,
            "velocity": 0.7086614173228346,
            "duration": 1,
            "frequency": 440,
            "pitch": 69,
            "startTime": 0.5,
            "endTime": 1.5
          },
          {
            "name": "B4",
            "midi": 71,
            "time": 1.5,
            "velocity": 0.7086614173228346,
            "duration": 1,
            "frequency": 493.8833012561242,
            "pitch": 71,
            "startTime": 1.5,
            "endTime": 2.5
          },
          {
            "name": "G4",
            "midi": 67,
            "time": 2.5,
            "velocity": 0.7086614173228346,
            "duration": 0.25,
            "frequency": 391.99543598174927,
            "pitch": 67,
            "startTime": 2.5,
            "endTime": 2.75
          },
          {
            "name": "D4",
            "midi": 62,
            "time": 2.75,
            "velocity": 0.7086614173228346,
            "duration": 0.25,
            "frequency": 293.6647679174076,
            "pitch": 62,
            "startTime": 2.75,
            "endTime": 3
          },
          {
            "name": "G4",
            "midi": 67,
            "time": 3,
            "velocity": 0.7086614173228346,
            "duration": 0.5,
            "frequency": 391.99543598174927,
            "pitch": 67,
            "startTime": 3,
            "endTime": 3.5
          },
          {
            "name": "G4",
            "midi": 67,
            "time": 3.5,
            "velocity": 0.7086614173228346,
            "duration": 0.25,
            "frequency": 391.99543598174927,
            "pitch": 67,
            "startTime": 3.5,
            "endTime": 3.75
          },
          {
            "name": "F4",
            "midi": 65,
            "time": 3.75,
            "velocity": 0.7086614173228346,
            "duration": 0.5,
            "frequency": 349.2282314330039,
            "pitch": 65,
            "startTime": 3.75,
            "endTime": 4.25
          },
          {
            "name": "G4",
            "midi": 67,
            "time": 4.25,
            "velocity": 0.7086614173228346,
            "duration": 0.125,
            "frequency": 391.99543598174927,
            "pitch": 67,
            "startTime": 4.25,
            "endTime": 4.375
          },
          {
            "name": "A4",
            "midi": 69,
            "time": 4.375,
            "velocity": 0.7086614173228346,
            "duration": 1,
            "frequency": 440,
            "pitch": 69,
            "startTime": 4.375,
            "endTime": 5.375
          },
          {
            "name": "G4",
            "midi": 67,
            "time": 5.375,
            "velocity": 0.7086614173228346,
            "duration": 0.5,
            "frequency": 391.99543598174927,
            "pitch": 67,
            "startTime": 5.375,
            "endTime": 5.875
          },
          {
            "name": "A4",
            "midi": 69,
            "time": 5.875,
            "velocity": 0.7086614173228346,
            "duration": 1,
            "frequency": 440,
            "pitch": 69,
            "startTime": 5.875,
            "endTime": 6.875
          },
          {
            "name": "G4",
            "midi": 67,
            "time": 6.875,
            "velocity": 0.7086614173228346,
            "duration": 1,
            "frequency": 391.99543598174927,
            "pitch": 67,
            "startTime": 6.875,
            "endTime": 7.875
          },
          {
            "name": "D4",
            "midi": 62,
            "time": 7.875,
            "velocity": 0.7086614173228346,
            "duration": 0.125,
            "frequency": 293.6647679174076,
            "pitch": 62,
            "startTime": 7.875,
            "endTime": 8
          },
          {
            "name": "D4",
            "midi": 62,
            "time": 8,
            "velocity": 0.7086614173228346,
            "duration": 0.25,
            "frequency": 293.6647679174076,
            "pitch": 62,
            "startTime": 8,
            "endTime": 8.25
          },
          {
            "name": "A3",
            "midi": 57,
            "time": 8.25,
            "velocity": 0.7086614173228346,
            "duration": 0.25,
            "frequency": 220,
            "pitch": 57,
            "startTime": 8.25,
            "endTime": 8.5
          },
          {
            "name": "B3",
            "midi": 59,
            "time": 8.5,
            "velocity": 0.7086614173228346,
            "duration": 0.5,
            "frequency": 246.9416506280621,
            "pitch": 59,
            "startTime": 8.5,
            "endTime": 9
          },
          {
            "name": "D4",
            "midi": 62,
            "time": 9,
            "velocity": 0.7086614173228346,
            "duration": 1,
            "frequency": 293.6647679174076,
            "pitch": 62,
            "startTime": 9,
            "endTime": 10
          },
          {
            "name": "E4",
            "midi": 64,
            "time": 10,
            "velocity": 0.7086614173228346,
            "duration": 1,
            "frequency": 329.6275569128699,
            "pitch": 64,
            "startTime": 10,
            "endTime": 11
          },
          {
            "name": "E4",
            "midi": 64,
            "time": 11,
            "velocity": 0.7086614173228346,
            "duration": 0.25,
            "frequency": 329.6275569128699,
            "pitch": 64,
            "startTime": 11,
            "endTime": 11.25
          }
        ],
        "controlChanges": {},
        "id": 0,
        "channelNumber": 0,
        "isPercussion": false
      }
    ]
  },
  "laburnum anagyroides_keyboard": {
    "header": {
      "PPQ": 128,
      "bpm": 120,
      "name": ""
    },
    "startTime": 0,
    "duration": 2.5,
    "tracks": [
      {
        "startTime": 0,
        "duration": 2.5,
        "length": 20,
        "notes": [
          {
            "name": "B5",
            "midi": 83,
            "time": 0,
            "velocity": 0.7086614173228346,
            "duration": 0.125,
            "frequency": 987.7666025122484,
            "pitch": 76,
            "startTime": 0,
            "endTime": 0.125
          },
          {
            "name": "D3",
            "midi": 50,
            "time": 0.125,
            "velocity": 0.7086614173228346,
            "duration": 0.125,
            "frequency": 146.8323839587038,
            "pitch": 50,
            "startTime": 0.125,
            "endTime": 0.25
          },
          {
            "name": "G#4",
            "midi": 68,
            "time": 0.25,
            "velocity": 0.7086614173228346,
            "duration": 0.125,
            "frequency": 415.3046975799451,
            "pitch": 68,
            "startTime": 0.25,
            "endTime": 0.375
          },
          {
            "name": "D5",
            "midi": 74,
            "time": 0.375,
            "velocity": 0.7086614173228346,
            "duration": 0.125,
            "frequency": 587.3295358348151,
            "pitch": 74,
            "startTime": 0.375,
            "endTime": 0.5
          },
          {
            "name": "D4",
            "midi": 62,
            "time": 0.5,
            "velocity": 0.7086614173228346,
            "duration": 0.125,
            "frequency": 293.6647679174076,
            "pitch": 62,
            "startTime": 0.5,
            "endTime": 0.625
          },
          {
            "name": "C5",
            "midi": 72,
            "time": 0.625,
            "velocity": 0.7086614173228346,
            "duration": 0.125,
            "frequency": 523.2511306011972,
            "pitch": 72,
            "startTime": 0.625,
            "endTime": 0.75
          },
          {
            "name": "D5",
            "midi": 74,
            "time": 0.75,
            "velocity": 0.7086614173228346,
            "duration": 0.125,
            "frequency": 587.3295358348151,
            "pitch": 74,
            "startTime": 0.75,
            "endTime": 0.875
          },
          {
            "name": "E5",
            "midi": 76,
            "time": 0.875,
            "velocity": 0.7086614173228346,
            "duration": 0.125,
            "frequency": 659.2551138257398,
            "pitch": 76,
            "startTime": 0.875,
            "endTime": 1
          },
          {
            "name": "C4",
            "midi": 60,
            "time": 1,
            "velocity": 0.7086614173228346,
            "duration": 0.125,
            "frequency": 261.6255653005986,
            "pitch": 60,
            "startTime": 1,
            "endTime": 1.125
          },
          {
            "name": "D3",
            "midi": 50,
            "time": 1.125,
            "velocity": 0.7086614173228346,
            "duration": 0.125,
            "frequency": 146.8323839587038,
            "pitch": 50,
            "startTime": 1.125,
            "endTime": 1.25
          },
          {
            "name": "C5",
            "midi": 72,
            "time": 1.25,
            "velocity": 0.7086614173228346,
            "duration": 0.125,
            "frequency": 523.2511306011972,
            "pitch": 72,
            "startTime": 1.25,
            "endTime": 1.375
          },
          {
            "name": "D3",
            "midi": 50,
            "time": 1.375,
            "velocity": 0.7086614173228346,
            "duration": 0.125,
            "frequency": 146.8323839587038,
            "pitch": 50,
            "startTime": 1.375,
            "endTime": 1.5
          },
          {
            "name": "G4",
            "midi": 67,
            "time": 1.5,
            "velocity": 0.7086614173228346,
            "duration": 0.125,
            "frequency": 391.99543598174927,
            "pitch": 67,
            "startTime": 1.5,
            "endTime": 1.625
          },
          {
            "name": "A#4",
            "midi": 70,
            "time": 1.625,
            "velocity": 0.7086614173228346,
            "duration": 0.125,
            "frequency": 466.1637615180899,
            "pitch": 70,
            "startTime": 1.625,
            "endTime": 1.75
          },
          {
            "name": "D4",
            "midi": 62,
            "time": 1.75,
            "velocity": 0.7086614173228346,
            "duration": 0.125,
            "frequency": 293.6647679174076,
            "pitch": 62,
            "startTime": 1.75,
            "endTime": 1.875
          },
          {
            "name": "A#5",
            "midi": 82,
            "time": 1.875,
            "velocity": 0.7086614173228346,
            "duration": 0.125,
            "frequency": 932.3275230361799,
            "pitch": 76,
            "startTime": 1.875,
            "endTime": 2
          },
          {
            "name": "F#5",
            "midi": 78,
            "time": 2,
            "velocity": 0.7086614173228346,
            "duration": 0.125,
            "frequency": 739.9888454232689,
            "pitch": 76,
            "startTime": 2,
            "endTime": 2.125
          },
          {
            "name": "A#3",
            "midi": 58,
            "time": 2.125,
            "velocity": 0.7086614173228346,
            "duration": 0.125,
            "frequency": 233.08188075904496,
            "pitch": 58,
            "startTime": 2.125,
            "endTime": 2.25
          },
          {
            "name": "A3",
            "midi": 57,
            "time": 2.25,
            "velocity": 0.7086614173228346,
            "duration": 0.125,
            "frequency": 220,
            "pitch": 57,
            "startTime": 2.25,
            "endTime": 2.375
          },
          {
            "name": "F#3",
            "midi": 54,
            "time": 2.375,
            "velocity": 0.7086614173228346,
            "duration": 0.125,
            "frequency": 184.99721135581723,
            "pitch": 54,
            "startTime": 2.375,
            "endTime": 2.5
          }
        ],
        "controlChanges": {},
        "id": 0,
        "channelNumber": 0,
        "isPercussion": false
      }
    ]
  },
  "laburnum anagyroides_chords": {
    "header": {
      "PPQ": 128,
      "bpm": 120,
      "name": ""
    },
    "startTime": 0,
    "duration": 1,
    "tracks": [
      {
        "startTime": 0,
        "duration": 1,
        "length": 19,
        "notes": [
          {
            "name": "E3",
            "midi": 52,
            "time": 0,
            "velocity": 0.7086614173228346,
            "duration": 0.5,
            "frequency": 164.81377845643496,
            "pitch": 52,
            "startTime": 0,
            "endTime": 0.5
          },
          {
            "name": "C#4",
            "midi": 61,
            "time": 0,
            "velocity": 0.7086614173228346,
            "duration": 0.5,
            "frequency": 277.1826309768721,
            "pitch": 61,
            "startTime": 0,
            "endTime": 0.5
          },
          {
            "name": "C5",
            "midi": 72,
            "time": 0,
            "velocity": 0.7086614173228346,
            "duration": 0.5,
            "frequency": 523.2511306011972,
            "pitch": 72,
            "startTime": 0,
            "endTime": 0.5
          },
          {
            "name": "A#5",
            "midi": 82,
            "time": 0,
            "velocity": 0.7086614173228346,
            "duration": 0.5,
            "frequency": 932.3275230361799,
            "pitch": 76,
            "startTime": 0,
            "endTime": 0.5
          },
          {
            "name": "G6",
            "midi": 91,
            "time": 0,
            "velocity": 0.7086614173228346,
            "duration": 0.5,
            "frequency": 1567.981743926997,
            "pitch": 76,
            "startTime": 0,
            "endTime": 0.5
          },
          {
            "name": "F7",
            "midi": 101,
            "time": 0,
            "velocity": 0.7086614173228346,
            "duration": 0.5,
            "frequency": 2793.825851464031,
            "pitch": 76,
            "startTime": 0,
            "endTime": 0.5
          },
          {
            "name": "A#7",
            "midi": 106,
            "time": 0,
            "velocity": 0.7086614173228346,
            "duration": 0.5,
            "frequency": 3729.3100921447194,
            "pitch": 76,
            "startTime": 0,
            "endTime": 0.5
          },
          {
            "name": "F8",
            "midi": 113,
            "time": 0,
            "velocity": 0.7086614173228346,
            "duration": 0.5,
            "frequency": 5587.651702928062,
            "pitch": 76,
            "startTime": 0,
            "endTime": 0.5
          },
          {
            "name": "C#3",
            "midi": 49,
            "time": 0.5,
            "velocity": 0.7086614173228346,
            "duration": 0.5,
            "frequency": 138.59131548843604,
            "pitch": 49,
            "startTime": 0.5,
            "endTime": 1
          },
          {
            "name": "F3",
            "midi": 53,
            "time": 0.5,
            "velocity": 0.7086614173228346,
            "duration": 0.5,
            "frequency": 174.61411571650194,
            "pitch": 53,
            "startTime": 0.5,
            "endTime": 1
          },
          {
            "name": "C#4",
            "midi": 61,
            "time": 0.5,
            "velocity": 0.7086614173228346,
            "duration": 0.5,
            "frequency": 277.1826309768721,
            "pitch": 61,
            "startTime": 0.5,
            "endTime": 1
          },
          {
            "name": "D4",
            "midi": 62,
            "time": 0.5,
            "velocity": 0.7086614173228346,
            "duration": 0.5,
            "frequency": 293.6647679174076,
            "pitch": 62,
            "startTime": 0.5,
            "endTime": 1
          },
          {
            "name": "B4",
            "midi": 71,
            "time": 0.5,
            "velocity": 0.7086614173228346,
            "duration": 0.5,
            "frequency": 493.8833012561242,
            "pitch": 71,
            "startTime": 0.5,
            "endTime": 1
          },
          {
            "name": "G5",
            "midi": 79,
            "time": 0.5,
            "velocity": 0.7086614173228346,
            "duration": 0.5,
            "frequency": 783.9908719634986,
            "pitch": 76,
            "startTime": 0.5,
            "endTime": 1
          },
          {
            "name": "G#5",
            "midi": 80,
            "time": 0.5,
            "velocity": 0.7086614173228346,
            "duration": 0.5,
            "frequency": 830.6093951598903,
            "pitch": 76,
            "startTime": 0.5,
            "endTime": 1
          },
          {
            "name": "F#6",
            "midi": 90,
            "time": 0.5,
            "velocity": 0.7086614173228346,
            "duration": 0.5,
            "frequency": 1479.9776908465378,
            "pitch": 76,
            "startTime": 0.5,
            "endTime": 1
          },
          {
            "name": "C7",
            "midi": 96,
            "time": 0.5,
            "velocity": 0.7086614173228346,
            "duration": 0.5,
            "frequency": 2093.004522404789,
            "pitch": 76,
            "startTime": 0.5,
            "endTime": 1
          },
          {
            "name": "D#7",
            "midi": 99,
            "time": 0.5,
            "velocity": 0.7086614173228346,
            "duration": 0.5,
            "frequency": 2489.015869776647,
            "pitch": 76,
            "startTime": 0.5,
            "endTime": 1
          },
          {
            "name": "G7",
            "midi": 103,
            "time": 0.5,
            "velocity": 0.7086614173228346,
            "duration": 0.5,
            "frequency": 3135.9634878539946,
            "pitch": 76,
            "startTime": 0.5,
            "endTime": 1
          }
        ],
        "controlChanges": {},
        "id": 0,
        "channelNumber": 0,
        "isPercussion": false
      }
    ]
  },
  "larix decidua_french": {
    "header": {
      "PPQ": 128,
      "bpm": 120,
      "name": ""
    },
    "startTime": 0,
    "duration": 8.25,
    "tracks": [
      {
        "startTime": 0,
        "duration": 8.25,
        "length": 13,
        "notes": [
          {
            "name": "E4",
            "midi": 64,
            "time": 0,
            "velocity": 0.7086614173228346,
            "duration": 0.5,
            "frequency": 329.6275569128699,
            "pitch": 64,
            "startTime": 0,
            "endTime": 0.5
          },
          {
            "name": "A4",
            "midi": 69,
            "time": 0.5,
            "velocity": 0.7086614173228346,
            "duration": 1,
            "frequency": 440,
            "pitch": 69,
            "startTime": 0.5,
            "endTime": 1.5
          },
          {
            "name": "D5",
            "midi": 74,
            "time": 1.5,
            "velocity": 0.7086614173228346,
            "duration": 0.25,
            "frequency": 587.3295358348151,
            "pitch": 74,
            "startTime": 1.5,
            "endTime": 1.75
          },
          {
            "name": "B4",
            "midi": 71,
            "time": 1.75,
            "velocity": 0.7086614173228346,
            "duration": 0.5,
            "frequency": 493.8833012561242,
            "pitch": 71,
            "startTime": 1.75,
            "endTime": 2.25
          },
          {
            "name": "C5",
            "midi": 72,
            "time": 2.25,
            "velocity": 0.7086614173228346,
            "duration": 0.125,
            "frequency": 523.2511306011972,
            "pitch": 72,
            "startTime": 2.25,
            "endTime": 2.375
          },
          {
            "name": "G4",
            "midi": 67,
            "time": 2.375,
            "velocity": 0.7086614173228346,
            "duration": 0.125,
            "frequency": 391.99543598174927,
            "pitch": 67,
            "startTime": 2.375,
            "endTime": 2.5
          },
          {
            "name": "D4",
            "midi": 62,
            "time": 2.5,
            "velocity": 0.7086614173228346,
            "duration": 1,
            "frequency": 293.6647679174076,
            "pitch": 62,
            "startTime": 2.5,
            "endTime": 3.5
          },
          {
            "name": "E4",
            "midi": 64,
            "time": 3.5,
            "velocity": 0.7086614173228346,
            "duration": 1,
            "frequency": 329.6275569128699,
            "pitch": 64,
            "startTime": 3.5,
            "endTime": 4.5
          },
          {
            "name": "C4",
            "midi": 60,
            "time": 4.5,
            "velocity": 0.7086614173228346,
            "duration": 1,
            "frequency": 261.6255653005986,
            "pitch": 60,
            "startTime": 4.5,
            "endTime": 5.5
          },
          {
            "name": "B3",
            "midi": 59,
            "time": 5.5,
            "velocity": 0.7086614173228346,
            "duration": 0.5,
            "frequency": 246.9416506280621,
            "pitch": 59,
            "startTime": 5.5,
            "endTime": 6
          },
          {
            "name": "D4",
            "midi": 62,
            "time": 6,
            "velocity": 0.7086614173228346,
            "duration": 1,
            "frequency": 293.6647679174076,
            "pitch": 62,
            "startTime": 6,
            "endTime": 7
          },
          {
            "name": "G4",
            "midi": 67,
            "time": 7,
            "velocity": 0.7086614173228346,
            "duration": 0.25,
            "frequency": 391.99543598174927,
            "pitch": 67,
            "startTime": 7,
            "endTime": 7.25
          },
          {
            "name": "A4",
            "midi": 69,
            "time": 7.25,
            "velocity": 0.7086614173228346,
            "duration": 1,
            "frequency": 440,
            "pitch": 69,
            "startTime": 7.25,
            "endTime": 8.25
          }
        ],
        "controlChanges": {},
        "id": 0,
        "channelNumber": 0,
        "isPercussion": false
      }
    ]
  },
  "larix decidua_keyboard": {
    "header": {
      "PPQ": 128,
      "bpm": 120,
      "name": ""
    },
    "startTime": 0,
    "duration": 1.625,
    "tracks": [
      {
        "startTime": 0,
        "duration": 1.625,
        "length": 13,
        "notes": [
          {
            "name": "B5",
            "midi": 83,
            "time": 0,
            "velocity": 0.7086614173228346,
            "duration": 0.125,
            "frequency": 987.7666025122484,
            "pitch": 76,
            "startTime": 0,
            "endTime": 0.125
          },
          {
            "name": "D3",
            "midi": 50,
            "time": 0.125,
            "velocity": 0.7086614173228346,
            "duration": 0.125,
            "frequency": 146.8323839587038,
            "pitch": 50,
            "startTime": 0.125,
            "endTime": 0.25
          },
          {
            "name": "D4",
            "midi": 62,
            "time": 0.25,
            "velocity": 0.7086614173228346,
            "duration": 0.125,
            "frequency": 293.6647679174076,
            "pitch": 62,
            "startTime": 0.25,
            "endTime": 0.375
          },
          {
            "name": "F#5",
            "midi": 78,
            "time": 0.375,
            "velocity": 0.7086614173228346,
            "duration": 0.125,
            "frequency": 739.9888454232689,
            "pitch": 76,
            "startTime": 0.375,
            "endTime": 0.5
          },
          {
            "name": "G3",
            "midi": 55,
            "time": 0.5,
            "velocity": 0.7086614173228346,
            "duration": 0.125,
            "frequency": 195.99771799087463,
            "pitch": 55,
            "startTime": 0.5,
            "endTime": 0.625
          },
          {
            "name": "C4",
            "midi": 60,
            "time": 0.625,
            "velocity": 0.7086614173228346,
            "duration": 0.125,
            "frequency": 261.6255653005986,
            "pitch": 60,
            "startTime": 0.625,
            "endTime": 0.75
          },
          {
            "name": "A#3",
            "midi": 58,
            "time": 0.75,
            "velocity": 0.7086614173228346,
            "duration": 0.125,
            "frequency": 233.08188075904496,
            "pitch": 58,
            "startTime": 0.75,
            "endTime": 0.875
          },
          {
            "name": "A3",
            "midi": 57,
            "time": 0.875,
            "velocity": 0.7086614173228346,
            "duration": 0.125,
            "frequency": 220,
            "pitch": 57,
            "startTime": 0.875,
            "endTime": 1
          },
          {
            "name": "B3",
            "midi": 59,
            "time": 1,
            "velocity": 0.7086614173228346,
            "duration": 0.125,
            "frequency": 246.9416506280621,
            "pitch": 59,
            "startTime": 1,
            "endTime": 1.125
          },
          {
            "name": "F#5",
            "midi": 78,
            "time": 1.125,
            "velocity": 0.7086614173228346,
            "duration": 0.125,
            "frequency": 739.9888454232689,
            "pitch": 76,
            "startTime": 1.125,
            "endTime": 1.25
          },
          {
            "name": "A#3",
            "midi": 58,
            "time": 1.25,
            "velocity": 0.7086614173228346,
            "duration": 0.125,
            "frequency": 233.08188075904496,
            "pitch": 58,
            "startTime": 1.25,
            "endTime": 1.375
          },
          {
            "name": "D5",
            "midi": 74,
            "time": 1.375,
            "velocity": 0.7086614173228346,
            "duration": 0.125,
            "frequency": 587.3295358348151,
            "pitch": 74,
            "startTime": 1.375,
            "endTime": 1.5
          },
          {
            "name": "D3",
            "midi": 50,
            "time": 1.5,
            "velocity": 0.7086614173228346,
            "duration": 0.125,
            "frequency": 146.8323839587038,
            "pitch": 50,
            "startTime": 1.5,
            "endTime": 1.625
          }
        ],
        "controlChanges": {},
        "id": 0,
        "channelNumber": 0,
        "isPercussion": false
      }
    ]
  },
  "larix decidua_chords": {
    "header": {
      "PPQ": 128,
      "bpm": 120,
      "name": ""
    },
    "startTime": 0,
    "duration": 1,
    "tracks": [
      {
        "startTime": 0,
        "duration": 1,
        "length": 12,
        "notes": [
          {
            "name": "E3",
            "midi": 52,
            "time": 0,
            "velocity": 0.7086614173228346,
            "duration": 0.5,
            "frequency": 164.81377845643496,
            "pitch": 52,
            "startTime": 0,
            "endTime": 0.5
          },
          {
            "name": "C#4",
            "midi": 61,
            "time": 0,
            "velocity": 0.7086614173228346,
            "duration": 0.5,
            "frequency": 277.1826309768721,
            "pitch": 61,
            "startTime": 0,
            "endTime": 0.5
          },
          {
            "name": "G4",
            "midi": 67,
            "time": 0,
            "velocity": 0.7086614173228346,
            "duration": 0.5,
            "frequency": 391.99543598174927,
            "pitch": 67,
            "startTime": 0,
            "endTime": 0.5
          },
          {
            "name": "F#5",
            "midi": 78,
            "time": 0,
            "velocity": 0.7086614173228346,
            "duration": 0.5,
            "frequency": 739.9888454232689,
            "pitch": 76,
            "startTime": 0,
            "endTime": 0.5
          },
          {
            "name": "B5",
            "midi": 83,
            "time": 0,
            "velocity": 0.7086614173228346,
            "duration": 0.5,
            "frequency": 987.7666025122484,
            "pitch": 76,
            "startTime": 0,
            "endTime": 0.5
          },
          {
            "name": "C3",
            "midi": 48,
            "time": 0.5,
            "velocity": 0.7086614173228346,
            "duration": 0.5,
            "frequency": 130.8127826502993,
            "pitch": 48,
            "startTime": 0.5,
            "endTime": 1
          },
          {
            "name": "D#3",
            "midi": 51,
            "time": 0.5,
            "velocity": 0.7086614173228346,
            "duration": 0.5,
            "frequency": 155.56349186104043,
            "pitch": 51,
            "startTime": 0.5,
            "endTime": 1
          },
          {
            "name": "C4",
            "midi": 60,
            "time": 0.5,
            "velocity": 0.7086614173228346,
            "duration": 0.5,
            "frequency": 261.6255653005986,
            "pitch": 60,
            "startTime": 0.5,
            "endTime": 1
          },
          {
            "name": "F#4",
            "midi": 66,
            "time": 0.5,
            "velocity": 0.7086614173228346,
            "duration": 0.5,
            "frequency": 369.99442271163446,
            "pitch": 66,
            "startTime": 0.5,
            "endTime": 1
          },
          {
            "name": "C5",
            "midi": 72,
            "time": 0.5,
            "velocity": 0.7086614173228346,
            "duration": 0.5,
            "frequency": 523.2511306011972,
            "pitch": 72,
            "startTime": 0.5,
            "endTime": 1
          },
          {
            "name": "A#5",
            "midi": 82,
            "time": 0.5,
            "velocity": 0.7086614173228346,
            "duration": 0.5,
            "frequency": 932.3275230361799,
            "pitch": 76,
            "startTime": 0.5,
            "endTime": 1
          },
          {
            "name": "C#6",
            "midi": 85,
            "time": 0.5,
            "velocity": 0.7086614173228346,
            "duration": 0.5,
            "frequency": 1108.7305239074883,
            "pitch": 76,
            "startTime": 0.5,
            "endTime": 1
          }
        ],
        "controlChanges": {},
        "id": 0,
        "channelNumber": 0,
        "isPercussion": false
      }
    ]
  },
  "laurus nobilis_french": {
    "header": {
      "PPQ": 128,
      "bpm": 120,
      "name": ""
    },
    "startTime": 0,
    "duration": 6.125,
    "tracks": [
      {
        "startTime": 0,
        "duration": 6.125,
        "length": 14,
        "notes": [
          {
            "name": "E4",
            "midi": 64,
            "time": 0,
            "velocity": 0.7086614173228346,
            "duration": 0.5,
            "frequency": 329.6275569128699,
            "pitch": 64,
            "startTime": 0,
            "endTime": 0.5
          },
          {
            "name": "A4",
            "midi": 69,
            "time": 0.5,
            "velocity": 0.7086614173228346,
            "duration": 1,
            "frequency": 440,
            "pitch": 69,
            "startTime": 0.5,
            "endTime": 1.5
          },
          {
            "name": "G4",
            "midi": 67,
            "time": 1.5,
            "velocity": 0.7086614173228346,
            "duration": 0.25,
            "frequency": 391.99543598174927,
            "pitch": 67,
            "startTime": 1.5,
            "endTime": 1.75
          },
          {
            "name": "D4",
            "midi": 62,
            "time": 1.75,
            "velocity": 0.7086614173228346,
            "duration": 0.25,
            "frequency": 293.6647679174076,
            "pitch": 62,
            "startTime": 1.75,
            "endTime": 2
          },
          {
            "name": "G4",
            "midi": 67,
            "time": 2,
            "velocity": 0.7086614173228346,
            "duration": 0.25,
            "frequency": 391.99543598174927,
            "pitch": 67,
            "startTime": 2,
            "endTime": 2.25
          },
          {
            "name": "E4",
            "midi": 64,
            "time": 2.25,
            "velocity": 0.7086614173228346,
            "duration": 0.25,
            "frequency": 329.6275569128699,
            "pitch": 64,
            "startTime": 2.25,
            "endTime": 2.5
          },
          {
            "name": "G4",
            "midi": 67,
            "time": 2.5,
            "velocity": 0.7086614173228346,
            "duration": 0.125,
            "frequency": 391.99543598174927,
            "pitch": 67,
            "startTime": 2.5,
            "endTime": 2.625
          },
          {
            "name": "G4",
            "midi": 67,
            "time": 2.625,
            "velocity": 0.7086614173228346,
            "duration": 0.5,
            "frequency": 391.99543598174927,
            "pitch": 67,
            "startTime": 2.625,
            "endTime": 3.125
          },
          {
            "name": "A4",
            "midi": 69,
            "time": 3.125,
            "velocity": 0.7086614173228346,
            "duration": 0.25,
            "frequency": 440,
            "pitch": 69,
            "startTime": 3.125,
            "endTime": 3.375
          },
          {
            "name": "B4",
            "midi": 71,
            "time": 3.375,
            "velocity": 0.7086614173228346,
            "duration": 1,
            "frequency": 493.8833012561242,
            "pitch": 71,
            "startTime": 3.375,
            "endTime": 4.375
          },
          {
            "name": "B4",
            "midi": 71,
            "time": 4.375,
            "velocity": 0.7086614173228346,
            "duration": 0.5,
            "frequency": 493.8833012561242,
            "pitch": 71,
            "startTime": 4.375,
            "endTime": 4.875
          },
          {
            "name": "E5",
            "midi": 76,
            "time": 4.875,
            "velocity": 0.7086614173228346,
            "duration": 0.5,
            "frequency": 659.2551138257398,
            "pitch": 76,
            "startTime": 4.875,
            "endTime": 5.375
          },
          {
            "name": "B4",
            "midi": 71,
            "time": 5.375,
            "velocity": 0.7086614173228346,
            "duration": 0.5,
            "frequency": 493.8833012561242,
            "pitch": 71,
            "startTime": 5.375,
            "endTime": 5.875
          },
          {
            "name": "E5",
            "midi": 76,
            "time": 5.875,
            "velocity": 0.7086614173228346,
            "duration": 0.25,
            "frequency": 659.2551138257398,
            "pitch": 76,
            "startTime": 5.875,
            "endTime": 6.125
          }
        ],
        "controlChanges": {},
        "id": 0,
        "channelNumber": 0,
        "isPercussion": false
      }
    ]
  },
  "laurus nobilis_keyboard": {
    "header": {
      "PPQ": 128,
      "bpm": 120,
      "name": ""
    },
    "startTime": 0,
    "duration": 1.75,
    "tracks": [
      {
        "startTime": 0,
        "duration": 1.75,
        "length": 14,
        "notes": [
          {
            "name": "B5",
            "midi": 83,
            "time": 0,
            "velocity": 0.7086614173228346,
            "duration": 0.125,
            "frequency": 987.7666025122484,
            "pitch": 76,
            "startTime": 0,
            "endTime": 0.125
          },
          {
            "name": "D3",
            "midi": 50,
            "time": 0.125,
            "velocity": 0.7086614173228346,
            "duration": 0.125,
            "frequency": 146.8323839587038,
            "pitch": 50,
            "startTime": 0.125,
            "endTime": 0.25
          },
          {
            "name": "D5",
            "midi": 74,
            "time": 0.25,
            "velocity": 0.7086614173228346,
            "duration": 0.125,
            "frequency": 587.3295358348151,
            "pitch": 74,
            "startTime": 0.25,
            "endTime": 0.375
          },
          {
            "name": "D4",
            "midi": 62,
            "time": 0.375,
            "velocity": 0.7086614173228346,
            "duration": 0.125,
            "frequency": 293.6647679174076,
            "pitch": 62,
            "startTime": 0.375,
            "endTime": 0.5
          },
          {
            "name": "D5",
            "midi": 74,
            "time": 0.5,
            "velocity": 0.7086614173228346,
            "duration": 0.125,
            "frequency": 587.3295358348151,
            "pitch": 74,
            "startTime": 0.5,
            "endTime": 0.625
          },
          {
            "name": "F#3",
            "midi": 54,
            "time": 0.625,
            "velocity": 0.7086614173228346,
            "duration": 0.125,
            "frequency": 184.99721135581723,
            "pitch": 54,
            "startTime": 0.625,
            "endTime": 0.75
          },
          {
            "name": "C4",
            "midi": 60,
            "time": 0.75,
            "velocity": 0.7086614173228346,
            "duration": 0.125,
            "frequency": 261.6255653005986,
            "pitch": 60,
            "startTime": 0.75,
            "endTime": 0.875
          },
          {
            "name": "C5",
            "midi": 72,
            "time": 0.875,
            "velocity": 0.7086614173228346,
            "duration": 0.125,
            "frequency": 523.2511306011972,
            "pitch": 72,
            "startTime": 0.875,
            "endTime": 1
          },
          {
            "name": "A#5",
            "midi": 82,
            "time": 1,
            "velocity": 0.7086614173228346,
            "duration": 0.125,
            "frequency": 932.3275230361799,
            "pitch": 76,
            "startTime": 1,
            "endTime": 1.125
          },
          {
            "name": "G#4",
            "midi": 68,
            "time": 1.125,
            "velocity": 0.7086614173228346,
            "duration": 0.125,
            "frequency": 415.3046975799451,
            "pitch": 68,
            "startTime": 1.125,
            "endTime": 1.25
          },
          {
            "name": "F#5",
            "midi": 78,
            "time": 1.25,
            "velocity": 0.7086614173228346,
            "duration": 0.125,
            "frequency": 739.9888454232689,
            "pitch": 76,
            "startTime": 1.25,
            "endTime": 1.375
          },
          {
            "name": "B5",
            "midi": 83,
            "time": 1.375,
            "velocity": 0.7086614173228346,
            "duration": 0.125,
            "frequency": 987.7666025122484,
            "pitch": 76,
            "startTime": 1.375,
            "endTime": 1.5
          },
          {
            "name": "F#5",
            "midi": 78,
            "time": 1.5,
            "velocity": 0.7086614173228346,
            "duration": 0.125,
            "frequency": 739.9888454232689,
            "pitch": 76,
            "startTime": 1.5,
            "endTime": 1.625
          },
          {
            "name": "F#3",
            "midi": 54,
            "time": 1.625,
            "velocity": 0.7086614173228346,
            "duration": 0.125,
            "frequency": 184.99721135581723,
            "pitch": 54,
            "startTime": 1.625,
            "endTime": 1.75
          }
        ],
        "controlChanges": {},
        "id": 0,
        "channelNumber": 0,
        "isPercussion": false
      }
    ]
  },
  "laurus nobilis_chords": {
    "header": {
      "PPQ": 128,
      "bpm": 120,
      "name": ""
    },
    "startTime": 0,
    "duration": 1,
    "tracks": [
      {
        "startTime": 0,
        "duration": 1,
        "length": 13,
        "notes": [
          {
            "name": "E3",
            "midi": 52,
            "time": 0,
            "velocity": 0.7086614173228346,
            "duration": 0.5,
            "frequency": 164.81377845643496,
            "pitch": 52,
            "startTime": 0,
            "endTime": 0.5
          },
          {
            "name": "C#4",
            "midi": 61,
            "time": 0,
            "velocity": 0.7086614173228346,
            "duration": 0.5,
            "frequency": 277.1826309768721,
            "pitch": 61,
            "startTime": 0,
            "endTime": 0.5
          },
          {
            "name": "A#4",
            "midi": 70,
            "time": 0,
            "velocity": 0.7086614173228346,
            "duration": 0.5,
            "frequency": 466.1637615180899,
            "pitch": 70,
            "startTime": 0,
            "endTime": 0.5
          },
          {
            "name": "G5",
            "midi": 79,
            "time": 0,
            "velocity": 0.7086614173228346,
            "duration": 0.5,
            "frequency": 783.9908719634986,
            "pitch": 76,
            "startTime": 0,
            "endTime": 0.5
          },
          {
            "name": "A#5",
            "midi": 82,
            "time": 0,
            "velocity": 0.7086614173228346,
            "duration": 0.5,
            "frequency": 932.3275230361799,
            "pitch": 76,
            "startTime": 0,
            "endTime": 0.5
          },
          {
            "name": "G6",
            "midi": 91,
            "time": 0,
            "velocity": 0.7086614173228346,
            "duration": 0.5,
            "frequency": 1567.981743926997,
            "pitch": 76,
            "startTime": 0,
            "endTime": 0.5
          },
          {
            "name": "F3",
            "midi": 53,
            "time": 0.5,
            "velocity": 0.7086614173228346,
            "duration": 0.5,
            "frequency": 174.61411571650194,
            "pitch": 53,
            "startTime": 0.5,
            "endTime": 1
          },
          {
            "name": "G#3",
            "midi": 56,
            "time": 0.5,
            "velocity": 0.7086614173228346,
            "duration": 0.5,
            "frequency": 207.65234878997256,
            "pitch": 56,
            "startTime": 0.5,
            "endTime": 1
          },
          {
            "name": "C4",
            "midi": 60,
            "time": 0.5,
            "velocity": 0.7086614173228346,
            "duration": 0.5,
            "frequency": 261.6255653005986,
            "pitch": 60,
            "startTime": 0.5,
            "endTime": 1
          },
          {
            "name": "F#4",
            "midi": 66,
            "time": 0.5,
            "velocity": 0.7086614173228346,
            "duration": 0.5,
            "frequency": 369.99442271163446,
            "pitch": 66,
            "startTime": 0.5,
            "endTime": 1
          },
          {
            "name": "E5",
            "midi": 76,
            "time": 0.5,
            "velocity": 0.7086614173228346,
            "duration": 0.5,
            "frequency": 659.2551138257398,
            "pitch": 76,
            "startTime": 0.5,
            "endTime": 1
          },
          {
            "name": "F#5",
            "midi": 78,
            "time": 0.5,
            "velocity": 0.7086614173228346,
            "duration": 0.5,
            "frequency": 739.9888454232689,
            "pitch": 76,
            "startTime": 0.5,
            "endTime": 1
          },
          {
            "name": "G5",
            "midi": 79,
            "time": 0.5,
            "velocity": 0.7086614173228346,
            "duration": 0.5,
            "frequency": 783.9908719634986,
            "pitch": 76,
            "startTime": 0.5,
            "endTime": 1
          }
        ],
        "controlChanges": {},
        "id": 0,
        "channelNumber": 0,
        "isPercussion": false
      }
    ]
  },
  "liquidambar_french": {
    "header": {
      "PPQ": 128,
      "bpm": 120,
      "name": ""
    },
    "startTime": 0,
    "duration": 6.75,
    "tracks": [
      {
        "startTime": 0,
        "duration": 6.75,
        "length": 11,
        "notes": [
          {
            "name": "E4",
            "midi": 64,
            "time": 0,
            "velocity": 0.7086614173228346,
            "duration": 0.5,
            "frequency": 329.6275569128699,
            "pitch": 64,
            "startTime": 0,
            "endTime": 0.5
          },
          {
            "name": "B3",
            "midi": 59,
            "time": 0.5,
            "velocity": 0.7086614173228346,
            "duration": 0.5,
            "frequency": 246.9416506280621,
            "pitch": 59,
            "startTime": 0.5,
            "endTime": 1
          },
          {
            "name": "C4",
            "midi": 60,
            "time": 1,
            "velocity": 0.7086614173228346,
            "duration": 0.25,
            "frequency": 261.6255653005986,
            "pitch": 60,
            "startTime": 1,
            "endTime": 1.25
          },
          {
            "name": "G3",
            "midi": 55,
            "time": 1.25,
            "velocity": 0.7086614173228346,
            "duration": 0.25,
            "frequency": 195.99771799087463,
            "pitch": 55,
            "startTime": 1.25,
            "endTime": 1.5
          },
          {
            "name": "B3",
            "midi": 59,
            "time": 1.5,
            "velocity": 0.7086614173228346,
            "duration": 0.5,
            "frequency": 246.9416506280621,
            "pitch": 59,
            "startTime": 1.5,
            "endTime": 2
          },
          {
            "name": "D4",
            "midi": 62,
            "time": 2,
            "velocity": 0.7086614173228346,
            "duration": 1,
            "frequency": 293.6647679174076,
            "pitch": 62,
            "startTime": 2,
            "endTime": 3
          },
          {
            "name": "A3",
            "midi": 57,
            "time": 3,
            "velocity": 0.7086614173228346,
            "duration": 1,
            "frequency": 220,
            "pitch": 57,
            "startTime": 3,
            "endTime": 4
          },
          {
            "name": "F3",
            "midi": 53,
            "time": 4,
            "velocity": 0.7086614173228346,
            "duration": 0.5,
            "frequency": 174.61411571650194,
            "pitch": 53,
            "startTime": 4,
            "endTime": 4.5
          },
          {
            "name": "B3",
            "midi": 59,
            "time": 4.5,
            "velocity": 0.7086614173228346,
            "duration": 1,
            "frequency": 246.9416506280621,
            "pitch": 59,
            "startTime": 4.5,
            "endTime": 5.5
          },
          {
            "name": "A3",
            "midi": 57,
            "time": 5.5,
            "velocity": 0.7086614173228346,
            "duration": 1,
            "frequency": 220,
            "pitch": 57,
            "startTime": 5.5,
            "endTime": 6.5
          },
          {
            "name": "D4",
            "midi": 62,
            "time": 6.5,
            "velocity": 0.7086614173228346,
            "duration": 0.25,
            "frequency": 293.6647679174076,
            "pitch": 62,
            "startTime": 6.5,
            "endTime": 6.75
          }
        ],
        "controlChanges": {},
        "id": 0,
        "channelNumber": 0,
        "isPercussion": false
      }
    ]
  },
  "liquidambar_keyboard": {
    "header": {
      "PPQ": 128,
      "bpm": 120,
      "name": ""
    },
    "startTime": 0,
    "duration": 1.375,
    "tracks": [
      {
        "startTime": 0,
        "duration": 1.375,
        "length": 11,
        "notes": [
          {
            "name": "B5",
            "midi": 83,
            "time": 0,
            "velocity": 0.7086614173228346,
            "duration": 0.125,
            "frequency": 987.7666025122484,
            "pitch": 76,
            "startTime": 0,
            "endTime": 0.125
          },
          {
            "name": "F#5",
            "midi": 78,
            "time": 0.125,
            "velocity": 0.7086614173228346,
            "duration": 0.125,
            "frequency": 739.9888454232689,
            "pitch": 76,
            "startTime": 0.125,
            "endTime": 0.25
          },
          {
            "name": "C#3",
            "midi": 49,
            "time": 0.25,
            "velocity": 0.7086614173228346,
            "duration": 0.125,
            "frequency": 138.59131548843604,
            "pitch": 49,
            "startTime": 0.25,
            "endTime": 0.375
          },
          {
            "name": "D5",
            "midi": 74,
            "time": 0.375,
            "velocity": 0.7086614173228346,
            "duration": 0.125,
            "frequency": 587.3295358348151,
            "pitch": 74,
            "startTime": 0.375,
            "endTime": 0.5
          },
          {
            "name": "F#5",
            "midi": 78,
            "time": 0.5,
            "velocity": 0.7086614173228346,
            "duration": 0.125,
            "frequency": 739.9888454232689,
            "pitch": 76,
            "startTime": 0.5,
            "endTime": 0.625
          },
          {
            "name": "A#3",
            "midi": 58,
            "time": 0.625,
            "velocity": 0.7086614173228346,
            "duration": 0.125,
            "frequency": 233.08188075904496,
            "pitch": 58,
            "startTime": 0.625,
            "endTime": 0.75
          },
          {
            "name": "D3",
            "midi": 50,
            "time": 0.75,
            "velocity": 0.7086614173228346,
            "duration": 0.125,
            "frequency": 146.8323839587038,
            "pitch": 50,
            "startTime": 0.75,
            "endTime": 0.875
          },
          {
            "name": "E5",
            "midi": 76,
            "time": 0.875,
            "velocity": 0.7086614173228346,
            "duration": 0.125,
            "frequency": 659.2551138257398,
            "pitch": 76,
            "startTime": 0.875,
            "endTime": 1
          },
          {
            "name": "G#4",
            "midi": 68,
            "time": 1,
            "velocity": 0.7086614173228346,
            "duration": 0.125,
            "frequency": 415.3046975799451,
            "pitch": 68,
            "startTime": 1,
            "endTime": 1.125
          },
          {
            "name": "D3",
            "midi": 50,
            "time": 1.125,
            "velocity": 0.7086614173228346,
            "duration": 0.125,
            "frequency": 146.8323839587038,
            "pitch": 50,
            "startTime": 1.125,
            "endTime": 1.25
          },
          {
            "name": "D4",
            "midi": 62,
            "time": 1.25,
            "velocity": 0.7086614173228346,
            "duration": 0.125,
            "frequency": 293.6647679174076,
            "pitch": 62,
            "startTime": 1.25,
            "endTime": 1.375
          }
        ],
        "controlChanges": {},
        "id": 0,
        "channelNumber": 0,
        "isPercussion": false
      }
    ]
  },
  "liquidambar_chords": {
    "header": {
      "PPQ": 128,
      "bpm": 120,
      "name": ""
    },
    "startTime": 0,
    "duration": 0.5,
    "tracks": [
      {
        "startTime": 0,
        "duration": 0.5,
        "length": 11,
        "notes": [
          {
            "name": "E3",
            "midi": 52,
            "time": 0,
            "velocity": 0.7086614173228346,
            "duration": 0.5,
            "frequency": 164.81377845643496,
            "pitch": 52,
            "startTime": 0,
            "endTime": 0.5
          },
          {
            "name": "F#3",
            "midi": 54,
            "time": 0,
            "velocity": 0.7086614173228346,
            "duration": 0.5,
            "frequency": 184.99721135581723,
            "pitch": 54,
            "startTime": 0,
            "endTime": 0.5
          },
          {
            "name": "G3",
            "midi": 55,
            "time": 0,
            "velocity": 0.7086614173228346,
            "duration": 0.5,
            "frequency": 195.99771799087463,
            "pitch": 55,
            "startTime": 0,
            "endTime": 0.5
          },
          {
            "name": "A#3",
            "midi": 58,
            "time": 0,
            "velocity": 0.7086614173228346,
            "duration": 0.5,
            "frequency": 233.08188075904496,
            "pitch": 58,
            "startTime": 0,
            "endTime": 0.5
          },
          {
            "name": "F#4",
            "midi": 66,
            "time": 0,
            "velocity": 0.7086614173228346,
            "duration": 0.5,
            "frequency": 369.99442271163446,
            "pitch": 66,
            "startTime": 0,
            "endTime": 0.5
          },
          {
            "name": "C5",
            "midi": 72,
            "time": 0,
            "velocity": 0.7086614173228346,
            "duration": 0.5,
            "frequency": 523.2511306011972,
            "pitch": 72,
            "startTime": 0,
            "endTime": 0.5
          },
          {
            "name": "C#5",
            "midi": 73,
            "time": 0,
            "velocity": 0.7086614173228346,
            "duration": 0.5,
            "frequency": 554.3652619537442,
            "pitch": 73,
            "startTime": 0,
            "endTime": 0.5
          },
          {
            "name": "F5",
            "midi": 77,
            "time": 0,
            "velocity": 0.7086614173228346,
            "duration": 0.5,
            "frequency": 698.4564628660078,
            "pitch": 76,
            "startTime": 0,
            "endTime": 0.5
          },
          {
            "name": "C6",
            "midi": 84,
            "time": 0,
            "velocity": 0.7086614173228346,
            "duration": 0.5,
            "frequency": 1046.5022612023945,
            "pitch": 76,
            "startTime": 0,
            "endTime": 0.5
          },
          {
            "name": "C#6",
            "midi": 85,
            "time": 0,
            "velocity": 0.7086614173228346,
            "duration": 0.5,
            "frequency": 1108.7305239074883,
            "pitch": 76,
            "startTime": 0,
            "endTime": 0.5
          },
          {
            "name": "G6",
            "midi": 91,
            "time": 0,
            "velocity": 0.7086614173228346,
            "duration": 0.5,
            "frequency": 1567.981743926997,
            "pitch": 76,
            "startTime": 0,
            "endTime": 0.5
          }
        ],
        "controlChanges": {},
        "id": 0,
        "channelNumber": 0,
        "isPercussion": false
      }
    ]
  },
  "liriodendron_french": {
    "header": {
      "PPQ": 128,
      "bpm": 120,
      "name": ""
    },
    "startTime": 0,
    "duration": 6.5,
    "tracks": [
      {
        "startTime": 0,
        "duration": 6.5,
        "length": 12,
        "notes": [
          {
            "name": "E4",
            "midi": 64,
            "time": 0,
            "velocity": 0.7086614173228346,
            "duration": 0.5,
            "frequency": 329.6275569128699,
            "pitch": 64,
            "startTime": 0,
            "endTime": 0.5
          },
          {
            "name": "B3",
            "midi": 59,
            "time": 0.5,
            "velocity": 0.7086614173228346,
            "duration": 0.5,
            "frequency": 246.9416506280621,
            "pitch": 59,
            "startTime": 0.5,
            "endTime": 1
          },
          {
            "name": "D4",
            "midi": 62,
            "time": 1,
            "velocity": 0.7086614173228346,
            "duration": 0.25,
            "frequency": 293.6647679174076,
            "pitch": 62,
            "startTime": 1,
            "endTime": 1.25
          },
          {
            "name": "B3",
            "midi": 59,
            "time": 1.25,
            "velocity": 0.7086614173228346,
            "duration": 0.5,
            "frequency": 246.9416506280621,
            "pitch": 59,
            "startTime": 1.25,
            "endTime": 1.75
          },
          {
            "name": "A3",
            "midi": 57,
            "time": 1.75,
            "velocity": 0.7086614173228346,
            "duration": 0.25,
            "frequency": 220,
            "pitch": 57,
            "startTime": 1.75,
            "endTime": 2
          },
          {
            "name": "D4",
            "midi": 62,
            "time": 2,
            "velocity": 0.7086614173228346,
            "duration": 1,
            "frequency": 293.6647679174076,
            "pitch": 62,
            "startTime": 2,
            "endTime": 3
          },
          {
            "name": "E4",
            "midi": 64,
            "time": 3,
            "velocity": 0.7086614173228346,
            "duration": 1,
            "frequency": 329.6275569128699,
            "pitch": 64,
            "startTime": 3,
            "endTime": 4
          },
          {
            "name": "G4",
            "midi": 67,
            "time": 4,
            "velocity": 0.7086614173228346,
            "duration": 0.5,
            "frequency": 391.99543598174927,
            "pitch": 67,
            "startTime": 4,
            "endTime": 4.5
          },
          {
            "name": "D4",
            "midi": 62,
            "time": 4.5,
            "velocity": 0.7086614173228346,
            "duration": 1,
            "frequency": 293.6647679174076,
            "pitch": 62,
            "startTime": 4.5,
            "endTime": 5.5
          },
          {
            "name": "D4",
            "midi": 62,
            "time": 5.5,
            "velocity": 0.7086614173228346,
            "duration": 0.25,
            "frequency": 293.6647679174076,
            "pitch": 62,
            "startTime": 5.5,
            "endTime": 5.75
          },
          {
            "name": "A3",
            "midi": 57,
            "time": 5.75,
            "velocity": 0.7086614173228346,
            "duration": 0.25,
            "frequency": 220,
            "pitch": 57,
            "startTime": 5.75,
            "endTime": 6
          },
          {
            "name": "G3",
            "midi": 55,
            "time": 6,
            "velocity": 0.7086614173228346,
            "duration": 0.5,
            "frequency": 195.99771799087463,
            "pitch": 55,
            "startTime": 6,
            "endTime": 6.5
          }
        ],
        "controlChanges": {},
        "id": 0,
        "channelNumber": 0,
        "isPercussion": false
      }
    ]
  },
  "liriodendron_keyboard": {
    "header": {
      "PPQ": 128,
      "bpm": 120,
      "name": ""
    },
    "startTime": 0,
    "duration": 1.5,
    "tracks": [
      {
        "startTime": 0,
        "duration": 1.5,
        "length": 12,
        "notes": [
          {
            "name": "B5",
            "midi": 83,
            "time": 0,
            "velocity": 0.7086614173228346,
            "duration": 0.125,
            "frequency": 987.7666025122484,
            "pitch": 76,
            "startTime": 0,
            "endTime": 0.125
          },
          {
            "name": "F#5",
            "midi": 78,
            "time": 0.125,
            "velocity": 0.7086614173228346,
            "duration": 0.125,
            "frequency": 739.9888454232689,
            "pitch": 76,
            "startTime": 0.125,
            "endTime": 0.25
          },
          {
            "name": "D4",
            "midi": 62,
            "time": 0.25,
            "velocity": 0.7086614173228346,
            "duration": 0.125,
            "frequency": 293.6647679174076,
            "pitch": 62,
            "startTime": 0.25,
            "endTime": 0.375
          },
          {
            "name": "F#5",
            "midi": 78,
            "time": 0.375,
            "velocity": 0.7086614173228346,
            "duration": 0.125,
            "frequency": 739.9888454232689,
            "pitch": 76,
            "startTime": 0.375,
            "endTime": 0.5
          },
          {
            "name": "A#5",
            "midi": 82,
            "time": 0.5,
            "velocity": 0.7086614173228346,
            "duration": 0.125,
            "frequency": 932.3275230361799,
            "pitch": 76,
            "startTime": 0.5,
            "endTime": 0.625
          },
          {
            "name": "A#3",
            "midi": 58,
            "time": 0.625,
            "velocity": 0.7086614173228346,
            "duration": 0.125,
            "frequency": 233.08188075904496,
            "pitch": 58,
            "startTime": 0.625,
            "endTime": 0.75
          },
          {
            "name": "A3",
            "midi": 57,
            "time": 0.75,
            "velocity": 0.7086614173228346,
            "duration": 0.125,
            "frequency": 220,
            "pitch": 57,
            "startTime": 0.75,
            "endTime": 0.875
          },
          {
            "name": "C5",
            "midi": 72,
            "time": 0.875,
            "velocity": 0.7086614173228346,
            "duration": 0.125,
            "frequency": 523.2511306011972,
            "pitch": 72,
            "startTime": 0.875,
            "endTime": 1
          },
          {
            "name": "A#3",
            "midi": 58,
            "time": 1,
            "velocity": 0.7086614173228346,
            "duration": 0.125,
            "frequency": 233.08188075904496,
            "pitch": 58,
            "startTime": 1,
            "endTime": 1.125
          },
          {
            "name": "D4",
            "midi": 62,
            "time": 1.125,
            "velocity": 0.7086614173228346,
            "duration": 0.125,
            "frequency": 293.6647679174076,
            "pitch": 62,
            "startTime": 1.125,
            "endTime": 1.25
          },
          {
            "name": "A#5",
            "midi": 82,
            "time": 1.25,
            "velocity": 0.7086614173228346,
            "duration": 0.125,
            "frequency": 932.3275230361799,
            "pitch": 76,
            "startTime": 1.25,
            "endTime": 1.375
          },
          {
            "name": "C5",
            "midi": 72,
            "time": 1.375,
            "velocity": 0.7086614173228346,
            "duration": 0.125,
            "frequency": 523.2511306011972,
            "pitch": 72,
            "startTime": 1.375,
            "endTime": 1.5
          }
        ],
        "controlChanges": {},
        "id": 0,
        "channelNumber": 0,
        "isPercussion": false
      }
    ]
  },
  "liriodendron_chords": {
    "header": {
      "PPQ": 128,
      "bpm": 120,
      "name": ""
    },
    "startTime": 0,
    "duration": 0.5,
    "tracks": [
      {
        "startTime": 0,
        "duration": 0.5,
        "length": 12,
        "notes": [
          {
            "name": "E3",
            "midi": 52,
            "time": 0,
            "velocity": 0.7086614173228346,
            "duration": 0.5,
            "frequency": 164.81377845643496,
            "pitch": 52,
            "startTime": 0,
            "endTime": 0.5
          },
          {
            "name": "F#3",
            "midi": 54,
            "time": 0,
            "velocity": 0.7086614173228346,
            "duration": 0.5,
            "frequency": 184.99721135581723,
            "pitch": 54,
            "startTime": 0,
            "endTime": 0.5
          },
          {
            "name": "G3",
            "midi": 55,
            "time": 0,
            "velocity": 0.7086614173228346,
            "duration": 0.5,
            "frequency": 195.99771799087463,
            "pitch": 55,
            "startTime": 0,
            "endTime": 0.5
          },
          {
            "name": "F#4",
            "midi": 66,
            "time": 0,
            "velocity": 0.7086614173228346,
            "duration": 0.5,
            "frequency": 369.99442271163446,
            "pitch": 66,
            "startTime": 0,
            "endTime": 0.5
          },
          {
            "name": "G#4",
            "midi": 68,
            "time": 0,
            "velocity": 0.7086614173228346,
            "duration": 0.5,
            "frequency": 415.3046975799451,
            "pitch": 68,
            "startTime": 0,
            "endTime": 0.5
          },
          {
            "name": "C5",
            "midi": 72,
            "time": 0,
            "velocity": 0.7086614173228346,
            "duration": 0.5,
            "frequency": 523.2511306011972,
            "pitch": 72,
            "startTime": 0,
            "endTime": 0.5
          },
          {
            "name": "D#5",
            "midi": 75,
            "time": 0,
            "velocity": 0.7086614173228346,
            "duration": 0.5,
            "frequency": 622.2539674441618,
            "pitch": 75,
            "startTime": 0,
            "endTime": 0.5
          },
          {
            "name": "F5",
            "midi": 77,
            "time": 0,
            "velocity": 0.7086614173228346,
            "duration": 0.5,
            "frequency": 698.4564628660078,
            "pitch": 76,
            "startTime": 0,
            "endTime": 0.5
          },
          {
            "name": "C6",
            "midi": 84,
            "time": 0,
            "velocity": 0.7086614173228346,
            "duration": 0.5,
            "frequency": 1046.5022612023945,
            "pitch": 76,
            "startTime": 0,
            "endTime": 0.5
          },
          {
            "name": "G6",
            "midi": 91,
            "time": 0,
            "velocity": 0.7086614173228346,
            "duration": 0.5,
            "frequency": 1567.981743926997,
            "pitch": 76,
            "startTime": 0,
            "endTime": 0.5
          },
          {
            "name": "G#6",
            "midi": 92,
            "time": 0,
            "velocity": 0.7086614173228346,
            "duration": 0.5,
            "frequency": 1661.2187903197805,
            "pitch": 76,
            "startTime": 0,
            "endTime": 0.5
          },
          {
            "name": "F7",
            "midi": 101,
            "time": 0,
            "velocity": 0.7086614173228346,
            "duration": 0.5,
            "frequency": 2793.825851464031,
            "pitch": 76,
            "startTime": 0,
            "endTime": 0.5
          }
        ],
        "controlChanges": {},
        "id": 0,
        "channelNumber": 0,
        "isPercussion": false
      }
    ]
  },
  "magnolia_french": {
    "header": {
      "PPQ": 128,
      "bpm": 120,
      "name": ""
    },
    "startTime": 0,
    "duration": 5.25,
    "tracks": [
      {
        "startTime": 0,
        "duration": 5.25,
        "length": 8,
        "notes": [
          {
            "name": "F4",
            "midi": 65,
            "time": 0,
            "velocity": 0.7086614173228346,
            "duration": 0.5,
            "frequency": 349.2282314330039,
            "pitch": 65,
            "startTime": 0,
            "endTime": 0.5
          },
          {
            "name": "A4",
            "midi": 69,
            "time": 0.5,
            "velocity": 0.7086614173228346,
            "duration": 1,
            "frequency": 440,
            "pitch": 69,
            "startTime": 0.5,
            "endTime": 1.5
          },
          {
            "name": "G4",
            "midi": 67,
            "time": 1.5,
            "velocity": 0.7086614173228346,
            "duration": 1,
            "frequency": 391.99543598174927,
            "pitch": 67,
            "startTime": 1.5,
            "endTime": 2.5
          },
          {
            "name": "G4",
            "midi": 67,
            "time": 2.5,
            "velocity": 0.7086614173228346,
            "duration": 0.5,
            "frequency": 391.99543598174927,
            "pitch": 67,
            "startTime": 2.5,
            "endTime": 3
          },
          {
            "name": "A4",
            "midi": 69,
            "time": 3,
            "velocity": 0.7086614173228346,
            "duration": 0.25,
            "frequency": 440,
            "pitch": 69,
            "startTime": 3,
            "endTime": 3.25
          },
          {
            "name": "E4",
            "midi": 64,
            "time": 3.25,
            "velocity": 0.7086614173228346,
            "duration": 0.5,
            "frequency": 329.6275569128699,
            "pitch": 64,
            "startTime": 3.25,
            "endTime": 3.75
          },
          {
            "name": "B3",
            "midi": 59,
            "time": 3.75,
            "velocity": 0.7086614173228346,
            "duration": 0.5,
            "frequency": 246.9416506280621,
            "pitch": 59,
            "startTime": 3.75,
            "endTime": 4.25
          },
          {
            "name": "A3",
            "midi": 57,
            "time": 4.25,
            "velocity": 0.7086614173228346,
            "duration": 1,
            "frequency": 220,
            "pitch": 57,
            "startTime": 4.25,
            "endTime": 5.25
          }
        ],
        "controlChanges": {},
        "id": 0,
        "channelNumber": 0,
        "isPercussion": false
      }
    ]
  },
  "magnolia_keyboard": {
    "header": {
      "PPQ": 128,
      "bpm": 120,
      "name": ""
    },
    "startTime": 0,
    "duration": 1,
    "tracks": [
      {
        "startTime": 0,
        "duration": 1,
        "length": 8,
        "notes": [
          {
            "name": "E5",
            "midi": 76,
            "time": 0,
            "velocity": 0.7086614173228346,
            "duration": 0.125,
            "frequency": 659.2551138257398,
            "pitch": 76,
            "startTime": 0,
            "endTime": 0.125
          },
          {
            "name": "D3",
            "midi": 50,
            "time": 0.125,
            "velocity": 0.7086614173228346,
            "duration": 0.125,
            "frequency": 146.8323839587038,
            "pitch": 50,
            "startTime": 0.125,
            "endTime": 0.25
          },
          {
            "name": "G4",
            "midi": 67,
            "time": 0.25,
            "velocity": 0.7086614173228346,
            "duration": 0.125,
            "frequency": 391.99543598174927,
            "pitch": 67,
            "startTime": 0.25,
            "endTime": 0.375
          },
          {
            "name": "C5",
            "midi": 72,
            "time": 0.375,
            "velocity": 0.7086614173228346,
            "duration": 0.125,
            "frequency": 523.2511306011972,
            "pitch": 72,
            "startTime": 0.375,
            "endTime": 0.5
          },
          {
            "name": "A#5",
            "midi": 82,
            "time": 0.5,
            "velocity": 0.7086614173228346,
            "duration": 0.125,
            "frequency": 932.3275230361799,
            "pitch": 76,
            "startTime": 0.5,
            "endTime": 0.625
          },
          {
            "name": "B5",
            "midi": 83,
            "time": 0.625,
            "velocity": 0.7086614173228346,
            "duration": 0.125,
            "frequency": 987.7666025122484,
            "pitch": 76,
            "startTime": 0.625,
            "endTime": 0.75
          },
          {
            "name": "F#5",
            "midi": 78,
            "time": 0.75,
            "velocity": 0.7086614173228346,
            "duration": 0.125,
            "frequency": 739.9888454232689,
            "pitch": 76,
            "startTime": 0.75,
            "endTime": 0.875
          },
          {
            "name": "D3",
            "midi": 50,
            "time": 0.875,
            "velocity": 0.7086614173228346,
            "duration": 0.125,
            "frequency": 146.8323839587038,
            "pitch": 50,
            "startTime": 0.875,
            "endTime": 1
          }
        ],
        "controlChanges": {},
        "id": 0,
        "channelNumber": 0,
        "isPercussion": false
      }
    ]
  },
  "magnolia_chords": {
    "header": {
      "PPQ": 128,
      "bpm": 120,
      "name": ""
    },
    "startTime": 0,
    "duration": 0.5,
    "tracks": [
      {
        "startTime": 0,
        "duration": 0.5,
        "length": 8,
        "notes": [
          {
            "name": "F3",
            "midi": 53,
            "time": 0,
            "velocity": 0.7086614173228346,
            "duration": 0.5,
            "frequency": 174.61411571650194,
            "pitch": 53,
            "startTime": 0,
            "endTime": 0.5
          },
          {
            "name": "C#4",
            "midi": 61,
            "time": 0,
            "velocity": 0.7086614173228346,
            "duration": 0.5,
            "frequency": 277.1826309768721,
            "pitch": 61,
            "startTime": 0,
            "endTime": 0.5
          },
          {
            "name": "D4",
            "midi": 62,
            "time": 0,
            "velocity": 0.7086614173228346,
            "duration": 0.5,
            "frequency": 293.6647679174076,
            "pitch": 62,
            "startTime": 0,
            "endTime": 0.5
          },
          {
            "name": "F4",
            "midi": 65,
            "time": 0,
            "velocity": 0.7086614173228346,
            "duration": 0.5,
            "frequency": 349.2282314330039,
            "pitch": 65,
            "startTime": 0,
            "endTime": 0.5
          },
          {
            "name": "G#4",
            "midi": 68,
            "time": 0,
            "velocity": 0.7086614173228346,
            "duration": 0.5,
            "frequency": 415.3046975799451,
            "pitch": 68,
            "startTime": 0,
            "endTime": 0.5
          },
          {
            "name": "E5",
            "midi": 76,
            "time": 0,
            "velocity": 0.7086614173228346,
            "duration": 0.5,
            "frequency": 659.2551138257398,
            "pitch": 76,
            "startTime": 0,
            "endTime": 0.5
          },
          {
            "name": "F#5",
            "midi": 78,
            "time": 0,
            "velocity": 0.7086614173228346,
            "duration": 0.5,
            "frequency": 739.9888454232689,
            "pitch": 76,
            "startTime": 0,
            "endTime": 0.5
          },
          {
            "name": "C#6",
            "midi": 85,
            "time": 0,
            "velocity": 0.7086614173228346,
            "duration": 0.5,
            "frequency": 1108.7305239074883,
            "pitch": 76,
            "startTime": 0,
            "endTime": 0.5
          }
        ],
        "controlChanges": {},
        "id": 0,
        "channelNumber": 0,
        "isPercussion": false
      }
    ]
  },
  "malus_french": {
    "header": {
      "PPQ": 128,
      "bpm": 120,
      "name": ""
    },
    "startTime": 0,
    "duration": 2.5,
    "tracks": [
      {
        "startTime": 0,
        "duration": 2.5,
        "length": 5,
        "notes": [
          {
            "name": "F4",
            "midi": 65,
            "time": 0,
            "velocity": 0.7086614173228346,
            "duration": 0.5,
            "frequency": 349.2282314330039,
            "pitch": 65,
            "startTime": 0,
            "endTime": 0.5
          },
          {
            "name": "A4",
            "midi": 69,
            "time": 0.5,
            "velocity": 0.7086614173228346,
            "duration": 1,
            "frequency": 440,
            "pitch": 69,
            "startTime": 0.5,
            "endTime": 1.5
          },
          {
            "name": "E4",
            "midi": 64,
            "time": 1.5,
            "velocity": 0.7086614173228346,
            "duration": 0.5,
            "frequency": 329.6275569128699,
            "pitch": 64,
            "startTime": 1.5,
            "endTime": 2
          },
          {
            "name": "G4",
            "midi": 67,
            "time": 2,
            "velocity": 0.7086614173228346,
            "duration": 0.25,
            "frequency": 391.99543598174927,
            "pitch": 67,
            "startTime": 2,
            "endTime": 2.25
          },
          {
            "name": "E4",
            "midi": 64,
            "time": 2.25,
            "velocity": 0.7086614173228346,
            "duration": 0.25,
            "frequency": 329.6275569128699,
            "pitch": 64,
            "startTime": 2.25,
            "endTime": 2.5
          }
        ],
        "controlChanges": {},
        "id": 0,
        "channelNumber": 0,
        "isPercussion": false
      }
    ]
  },
  "malus_keyboard": {
    "header": {
      "PPQ": 128,
      "bpm": 120,
      "name": ""
    },
    "startTime": 0,
    "duration": 0.625,
    "tracks": [
      {
        "startTime": 0,
        "duration": 0.625,
        "length": 5,
        "notes": [
          {
            "name": "E5",
            "midi": 76,
            "time": 0,
            "velocity": 0.7086614173228346,
            "duration": 0.125,
            "frequency": 659.2551138257398,
            "pitch": 76,
            "startTime": 0,
            "endTime": 0.125
          },
          {
            "name": "D3",
            "midi": 50,
            "time": 0.125,
            "velocity": 0.7086614173228346,
            "duration": 0.125,
            "frequency": 146.8323839587038,
            "pitch": 50,
            "startTime": 0.125,
            "endTime": 0.25
          },
          {
            "name": "B5",
            "midi": 83,
            "time": 0.25,
            "velocity": 0.7086614173228346,
            "duration": 0.125,
            "frequency": 987.7666025122484,
            "pitch": 76,
            "startTime": 0.25,
            "endTime": 0.375
          },
          {
            "name": "D5",
            "midi": 74,
            "time": 0.375,
            "velocity": 0.7086614173228346,
            "duration": 0.125,
            "frequency": 587.3295358348151,
            "pitch": 74,
            "startTime": 0.375,
            "endTime": 0.5
          },
          {
            "name": "F#3",
            "midi": 54,
            "time": 0.5,
            "velocity": 0.7086614173228346,
            "duration": 0.125,
            "frequency": 184.99721135581723,
            "pitch": 54,
            "startTime": 0.5,
            "endTime": 0.625
          }
        ],
        "controlChanges": {},
        "id": 0,
        "channelNumber": 0,
        "isPercussion": false
      }
    ]
  },
  "malus_chords": {
    "header": {
      "PPQ": 128,
      "bpm": 120,
      "name": ""
    },
    "startTime": 0,
    "duration": 0.5,
    "tracks": [
      {
        "startTime": 0,
        "duration": 0.5,
        "length": 5,
        "notes": [
          {
            "name": "F3",
            "midi": 53,
            "time": 0,
            "velocity": 0.7086614173228346,
            "duration": 0.5,
            "frequency": 174.61411571650194,
            "pitch": 53,
            "startTime": 0,
            "endTime": 0.5
          },
          {
            "name": "C#4",
            "midi": 61,
            "time": 0,
            "velocity": 0.7086614173228346,
            "duration": 0.5,
            "frequency": 277.1826309768721,
            "pitch": 61,
            "startTime": 0,
            "endTime": 0.5
          },
          {
            "name": "E4",
            "midi": 64,
            "time": 0,
            "velocity": 0.7086614173228346,
            "duration": 0.5,
            "frequency": 329.6275569128699,
            "pitch": 64,
            "startTime": 0,
            "endTime": 0.5
          },
          {
            "name": "A#4",
            "midi": 70,
            "time": 0,
            "velocity": 0.7086614173228346,
            "duration": 0.5,
            "frequency": 466.1637615180899,
            "pitch": 70,
            "startTime": 0,
            "endTime": 0.5
          },
          {
            "name": "G5",
            "midi": 79,
            "time": 0,
            "velocity": 0.7086614173228346,
            "duration": 0.5,
            "frequency": 783.9908719634986,
            "pitch": 76,
            "startTime": 0,
            "endTime": 0.5
          }
        ],
        "controlChanges": {},
        "id": 0,
        "channelNumber": 0,
        "isPercussion": false
      }
    ]
  },
  "malus sylvestris_french": {
    "header": {
      "PPQ": 128,
      "bpm": 120,
      "name": ""
    },
    "startTime": 0,
    "duration": 6.125,
    "tracks": [
      {
        "startTime": 0,
        "duration": 6.125,
        "length": 16,
        "notes": [
          {
            "name": "F4",
            "midi": 65,
            "time": 0,
            "velocity": 0.7086614173228346,
            "duration": 0.5,
            "frequency": 349.2282314330039,
            "pitch": 65,
            "startTime": 0,
            "endTime": 0.5
          },
          {
            "name": "A4",
            "midi": 69,
            "time": 0.5,
            "velocity": 0.7086614173228346,
            "duration": 1,
            "frequency": 440,
            "pitch": 69,
            "startTime": 0.5,
            "endTime": 1.5
          },
          {
            "name": "E4",
            "midi": 64,
            "time": 1.5,
            "velocity": 0.7086614173228346,
            "duration": 0.5,
            "frequency": 329.6275569128699,
            "pitch": 64,
            "startTime": 1.5,
            "endTime": 2
          },
          {
            "name": "G4",
            "midi": 67,
            "time": 2,
            "velocity": 0.7086614173228346,
            "duration": 0.25,
            "frequency": 391.99543598174927,
            "pitch": 67,
            "startTime": 2,
            "endTime": 2.25
          },
          {
            "name": "E4",
            "midi": 64,
            "time": 2.25,
            "velocity": 0.7086614173228346,
            "duration": 0.25,
            "frequency": 329.6275569128699,
            "pitch": 64,
            "startTime": 2.25,
            "endTime": 2.5
          },
          {
            "name": "G4",
            "midi": 67,
            "time": 2.5,
            "velocity": 0.7086614173228346,
            "duration": 0.125,
            "frequency": 391.99543598174927,
            "pitch": 67,
            "startTime": 2.5,
            "endTime": 2.625
          },
          {
            "name": "E4",
            "midi": 64,
            "time": 2.625,
            "velocity": 0.7086614173228346,
            "duration": 0.25,
            "frequency": 329.6275569128699,
            "pitch": 64,
            "startTime": 2.625,
            "endTime": 2.875
          },
          {
            "name": "D4",
            "midi": 62,
            "time": 2.875,
            "velocity": 0.7086614173228346,
            "duration": 0.125,
            "frequency": 293.6647679174076,
            "pitch": 62,
            "startTime": 2.875,
            "endTime": 3
          },
          {
            "name": "E4",
            "midi": 64,
            "time": 3,
            "velocity": 0.7086614173228346,
            "duration": 0.5,
            "frequency": 329.6275569128699,
            "pitch": 64,
            "startTime": 3,
            "endTime": 3.5
          },
          {
            "name": "A4",
            "midi": 69,
            "time": 3.5,
            "velocity": 0.7086614173228346,
            "duration": 0.125,
            "frequency": 440,
            "pitch": 69,
            "startTime": 3.5,
            "endTime": 3.625
          },
          {
            "name": "E4",
            "midi": 64,
            "time": 3.625,
            "velocity": 0.7086614173228346,
            "duration": 1,
            "frequency": 329.6275569128699,
            "pitch": 64,
            "startTime": 3.625,
            "endTime": 4.625
          },
          {
            "name": "E4",
            "midi": 64,
            "time": 4.625,
            "velocity": 0.7086614173228346,
            "duration": 0.25,
            "frequency": 329.6275569128699,
            "pitch": 64,
            "startTime": 4.625,
            "endTime": 4.875
          },
          {
            "name": "F4",
            "midi": 65,
            "time": 4.875,
            "velocity": 0.7086614173228346,
            "duration": 0.25,
            "frequency": 349.2282314330039,
            "pitch": 65,
            "startTime": 4.875,
            "endTime": 5.125
          },
          {
            "name": "D4",
            "midi": 62,
            "time": 5.125,
            "velocity": 0.7086614173228346,
            "duration": 0.25,
            "frequency": 293.6647679174076,
            "pitch": 62,
            "startTime": 5.125,
            "endTime": 5.375
          },
          {
            "name": "B3",
            "midi": 59,
            "time": 5.375,
            "velocity": 0.7086614173228346,
            "duration": 0.5,
            "frequency": 246.9416506280621,
            "pitch": 59,
            "startTime": 5.375,
            "endTime": 5.875
          },
          {
            "name": "E4",
            "midi": 64,
            "time": 5.875,
            "velocity": 0.7086614173228346,
            "duration": 0.25,
            "frequency": 329.6275569128699,
            "pitch": 64,
            "startTime": 5.875,
            "endTime": 6.125
          }
        ],
        "controlChanges": {},
        "id": 0,
        "channelNumber": 0,
        "isPercussion": false
      }
    ]
  },
  "malus sylvestris_keyboard": {
    "header": {
      "PPQ": 128,
      "bpm": 120,
      "name": ""
    },
    "startTime": 0,
    "duration": 2,
    "tracks": [
      {
        "startTime": 0,
        "duration": 2,
        "length": 16,
        "notes": [
          {
            "name": "E5",
            "midi": 76,
            "time": 0,
            "velocity": 0.7086614173228346,
            "duration": 0.125,
            "frequency": 659.2551138257398,
            "pitch": 76,
            "startTime": 0,
            "endTime": 0.125
          },
          {
            "name": "D3",
            "midi": 50,
            "time": 0.125,
            "velocity": 0.7086614173228346,
            "duration": 0.125,
            "frequency": 146.8323839587038,
            "pitch": 50,
            "startTime": 0.125,
            "endTime": 0.25
          },
          {
            "name": "B5",
            "midi": 83,
            "time": 0.25,
            "velocity": 0.7086614173228346,
            "duration": 0.125,
            "frequency": 987.7666025122484,
            "pitch": 76,
            "startTime": 0.25,
            "endTime": 0.375
          },
          {
            "name": "D5",
            "midi": 74,
            "time": 0.375,
            "velocity": 0.7086614173228346,
            "duration": 0.125,
            "frequency": 587.3295358348151,
            "pitch": 74,
            "startTime": 0.375,
            "endTime": 0.5
          },
          {
            "name": "F#3",
            "midi": 54,
            "time": 0.5,
            "velocity": 0.7086614173228346,
            "duration": 0.125,
            "frequency": 184.99721135581723,
            "pitch": 54,
            "startTime": 0.5,
            "endTime": 0.625
          },
          {
            "name": "C4",
            "midi": 60,
            "time": 0.625,
            "velocity": 0.7086614173228346,
            "duration": 0.125,
            "frequency": 261.6255653005986,
            "pitch": 60,
            "startTime": 0.625,
            "endTime": 0.75
          },
          {
            "name": "F#3",
            "midi": 54,
            "time": 0.75,
            "velocity": 0.7086614173228346,
            "duration": 0.125,
            "frequency": 184.99721135581723,
            "pitch": 54,
            "startTime": 0.75,
            "endTime": 0.875
          },
          {
            "name": "A#4",
            "midi": 70,
            "time": 0.875,
            "velocity": 0.7086614173228346,
            "duration": 0.125,
            "frequency": 466.1637615180899,
            "pitch": 70,
            "startTime": 0.875,
            "endTime": 1
          },
          {
            "name": "B5",
            "midi": 83,
            "time": 1,
            "velocity": 0.7086614173228346,
            "duration": 0.125,
            "frequency": 987.7666025122484,
            "pitch": 76,
            "startTime": 1,
            "endTime": 1.125
          },
          {
            "name": "E4",
            "midi": 64,
            "time": 1.125,
            "velocity": 0.7086614173228346,
            "duration": 0.125,
            "frequency": 329.6275569128699,
            "pitch": 64,
            "startTime": 1.125,
            "endTime": 1.25
          },
          {
            "name": "A3",
            "midi": 57,
            "time": 1.25,
            "velocity": 0.7086614173228346,
            "duration": 0.125,
            "frequency": 220,
            "pitch": 57,
            "startTime": 1.25,
            "endTime": 1.375
          },
          {
            "name": "F#3",
            "midi": 54,
            "time": 1.375,
            "velocity": 0.7086614173228346,
            "duration": 0.125,
            "frequency": 184.99721135581723,
            "pitch": 54,
            "startTime": 1.375,
            "endTime": 1.5
          },
          {
            "name": "F#4",
            "midi": 66,
            "time": 1.5,
            "velocity": 0.7086614173228346,
            "duration": 0.125,
            "frequency": 369.99442271163446,
            "pitch": 66,
            "startTime": 1.5,
            "endTime": 1.625
          },
          {
            "name": "D4",
            "midi": 62,
            "time": 1.625,
            "velocity": 0.7086614173228346,
            "duration": 0.125,
            "frequency": 293.6647679174076,
            "pitch": 62,
            "startTime": 1.625,
            "endTime": 1.75
          },
          {
            "name": "F#5",
            "midi": 78,
            "time": 1.75,
            "velocity": 0.7086614173228346,
            "duration": 0.125,
            "frequency": 739.9888454232689,
            "pitch": 76,
            "startTime": 1.75,
            "endTime": 1.875
          },
          {
            "name": "F#3",
            "midi": 54,
            "time": 1.875,
            "velocity": 0.7086614173228346,
            "duration": 0.125,
            "frequency": 184.99721135581723,
            "pitch": 54,
            "startTime": 1.875,
            "endTime": 2
          }
        ],
        "controlChanges": {},
        "id": 0,
        "channelNumber": 0,
        "isPercussion": false
      }
    ]
  },
  "malus sylvestris_chords": {
    "header": {
      "PPQ": 128,
      "bpm": 120,
      "name": ""
    },
    "startTime": 0,
    "duration": 1,
    "tracks": [
      {
        "startTime": 0,
        "duration": 1,
        "length": 15,
        "notes": [
          {
            "name": "F3",
            "midi": 53,
            "time": 0,
            "velocity": 0.7086614173228346,
            "duration": 0.5,
            "frequency": 174.61411571650194,
            "pitch": 53,
            "startTime": 0,
            "endTime": 0.5
          },
          {
            "name": "C#4",
            "midi": 61,
            "time": 0,
            "velocity": 0.7086614173228346,
            "duration": 0.5,
            "frequency": 277.1826309768721,
            "pitch": 61,
            "startTime": 0,
            "endTime": 0.5
          },
          {
            "name": "E4",
            "midi": 64,
            "time": 0,
            "velocity": 0.7086614173228346,
            "duration": 0.5,
            "frequency": 329.6275569128699,
            "pitch": 64,
            "startTime": 0,
            "endTime": 0.5
          },
          {
            "name": "A#4",
            "midi": 70,
            "time": 0,
            "velocity": 0.7086614173228346,
            "duration": 0.5,
            "frequency": 466.1637615180899,
            "pitch": 70,
            "startTime": 0,
            "endTime": 0.5
          },
          {
            "name": "G5",
            "midi": 79,
            "time": 0,
            "velocity": 0.7086614173228346,
            "duration": 0.5,
            "frequency": 783.9908719634986,
            "pitch": 76,
            "startTime": 0,
            "endTime": 0.5
          },
          {
            "name": "G3",
            "midi": 55,
            "time": 0.5,
            "velocity": 0.7086614173228346,
            "duration": 0.5,
            "frequency": 195.99771799087463,
            "pitch": 55,
            "startTime": 0.5,
            "endTime": 1
          },
          {
            "name": "B3",
            "midi": 59,
            "time": 0.5,
            "velocity": 0.7086614173228346,
            "duration": 0.5,
            "frequency": 246.9416506280621,
            "pitch": 59,
            "startTime": 0.5,
            "endTime": 1
          },
          {
            "name": "E4",
            "midi": 64,
            "time": 0.5,
            "velocity": 0.7086614173228346,
            "duration": 0.5,
            "frequency": 329.6275569128699,
            "pitch": 64,
            "startTime": 0.5,
            "endTime": 1
          },
          {
            "name": "A4",
            "midi": 69,
            "time": 0.5,
            "velocity": 0.7086614173228346,
            "duration": 0.5,
            "frequency": 440,
            "pitch": 69,
            "startTime": 0.5,
            "endTime": 1
          },
          {
            "name": "D#5",
            "midi": 75,
            "time": 0.5,
            "velocity": 0.7086614173228346,
            "duration": 0.5,
            "frequency": 622.2539674441618,
            "pitch": 75,
            "startTime": 0.5,
            "endTime": 1
          },
          {
            "name": "G5",
            "midi": 79,
            "time": 0.5,
            "velocity": 0.7086614173228346,
            "duration": 0.5,
            "frequency": 783.9908719634986,
            "pitch": 76,
            "startTime": 0.5,
            "endTime": 1
          },
          {
            "name": "A5",
            "midi": 81,
            "time": 0.5,
            "velocity": 0.7086614173228346,
            "duration": 0.5,
            "frequency": 880,
            "pitch": 76,
            "startTime": 0.5,
            "endTime": 1
          },
          {
            "name": "G6",
            "midi": 91,
            "time": 0.5,
            "velocity": 0.7086614173228346,
            "duration": 0.5,
            "frequency": 1567.981743926997,
            "pitch": 76,
            "startTime": 0.5,
            "endTime": 1
          },
          {
            "name": "F#7",
            "midi": 102,
            "time": 0.5,
            "velocity": 0.7086614173228346,
            "duration": 0.5,
            "frequency": 2959.9553816930757,
            "pitch": 76,
            "startTime": 0.5,
            "endTime": 1
          },
          {
            "name": "G7",
            "midi": 103,
            "time": 0.5,
            "velocity": 0.7086614173228346,
            "duration": 0.5,
            "frequency": 3135.9634878539946,
            "pitch": 76,
            "startTime": 0.5,
            "endTime": 1
          }
        ],
        "controlChanges": {},
        "id": 0,
        "channelNumber": 0,
        "isPercussion": false
      }
    ]
  },
  "metasequoia glyptostroboides_french": {
    "header": {
      "PPQ": 128,
      "bpm": 120,
      "name": ""
    },
    "startTime": 0,
    "duration": 13.75,
    "tracks": [
      {
        "startTime": 0,
        "duration": 13.75,
        "length": 28,
        "notes": [
          {
            "name": "F4",
            "midi": 65,
            "time": 0,
            "velocity": 0.7086614173228346,
            "duration": 0.5,
            "frequency": 349.2282314330039,
            "pitch": 65,
            "startTime": 0,
            "endTime": 0.5
          },
          {
            "name": "E4",
            "midi": 64,
            "time": 0.5,
            "velocity": 0.7086614173228346,
            "duration": 1,
            "frequency": 329.6275569128699,
            "pitch": 64,
            "startTime": 0.5,
            "endTime": 1.5
          },
          {
            "name": "F4",
            "midi": 65,
            "time": 1.5,
            "velocity": 0.7086614173228346,
            "duration": 0.25,
            "frequency": 349.2282314330039,
            "pitch": 65,
            "startTime": 1.5,
            "endTime": 1.75
          },
          {
            "name": "A4",
            "midi": 69,
            "time": 1.75,
            "velocity": 0.7086614173228346,
            "duration": 1,
            "frequency": 440,
            "pitch": 69,
            "startTime": 1.75,
            "endTime": 2.75
          },
          {
            "name": "E4",
            "midi": 64,
            "time": 2.75,
            "velocity": 0.7086614173228346,
            "duration": 0.25,
            "frequency": 329.6275569128699,
            "pitch": 64,
            "startTime": 2.75,
            "endTime": 3
          },
          {
            "name": "E4",
            "midi": 64,
            "time": 3,
            "velocity": 0.7086614173228346,
            "duration": 1,
            "frequency": 329.6275569128699,
            "pitch": 64,
            "startTime": 3,
            "endTime": 4
          },
          {
            "name": "C4",
            "midi": 60,
            "time": 4,
            "velocity": 0.7086614173228346,
            "duration": 0.25,
            "frequency": 261.6255653005986,
            "pitch": 60,
            "startTime": 4,
            "endTime": 4.25
          },
          {
            "name": "G3",
            "midi": 55,
            "time": 4.25,
            "velocity": 0.7086614173228346,
            "duration": 0.25,
            "frequency": 195.99771799087463,
            "pitch": 55,
            "startTime": 4.25,
            "endTime": 4.5
          },
          {
            "name": "A3",
            "midi": 57,
            "time": 4.5,
            "velocity": 0.7086614173228346,
            "duration": 0.25,
            "frequency": 220,
            "pitch": 57,
            "startTime": 4.5,
            "endTime": 4.75
          },
          {
            "name": "B3",
            "midi": 59,
            "time": 4.75,
            "velocity": 0.7086614173228346,
            "duration": 0.5,
            "frequency": 246.9416506280621,
            "pitch": 59,
            "startTime": 4.75,
            "endTime": 5.25
          },
          {
            "name": "A3",
            "midi": 57,
            "time": 5.25,
            "velocity": 0.7086614173228346,
            "duration": 1,
            "frequency": 220,
            "pitch": 57,
            "startTime": 5.25,
            "endTime": 6.25
          },
          {
            "name": "G3",
            "midi": 55,
            "time": 6.25,
            "velocity": 0.7086614173228346,
            "duration": 0.125,
            "frequency": 195.99771799087463,
            "pitch": 55,
            "startTime": 6.25,
            "endTime": 6.375
          },
          {
            "name": "G3",
            "midi": 55,
            "time": 6.375,
            "velocity": 0.7086614173228346,
            "duration": 1,
            "frequency": 195.99771799087463,
            "pitch": 55,
            "startTime": 6.375,
            "endTime": 7.375
          },
          {
            "name": "E3",
            "midi": 52,
            "time": 7.375,
            "velocity": 0.7086614173228346,
            "duration": 0.5,
            "frequency": 164.81377845643496,
            "pitch": 52,
            "startTime": 7.375,
            "endTime": 7.875
          },
          {
            "name": "D3",
            "midi": 50,
            "time": 7.875,
            "velocity": 0.7086614173228346,
            "duration": 0.125,
            "frequency": 146.8323839587038,
            "pitch": 50,
            "startTime": 7.875,
            "endTime": 8
          },
          {
            "name": "B2",
            "midi": 47,
            "time": 8,
            "velocity": 0.7086614173228346,
            "duration": 0.25,
            "frequency": 123.47082531403105,
            "pitch": 47,
            "startTime": 8,
            "endTime": 8.25
          },
          {
            "name": "F2",
            "midi": 41,
            "time": 8.25,
            "velocity": 0.7086614173228346,
            "duration": 0.25,
            "frequency": 87.30705785825097,
            "pitch": 41,
            "startTime": 8.25,
            "endTime": 8.5
          },
          {
            "name": "A2",
            "midi": 45,
            "time": 8.5,
            "velocity": 0.7086614173228346,
            "duration": 0.25,
            "frequency": 110,
            "pitch": 45,
            "startTime": 8.5,
            "endTime": 8.75
          },
          {
            "name": "E2",
            "midi": 40,
            "time": 8.75,
            "velocity": 0.7086614173228346,
            "duration": 0.25,
            "frequency": 82.40688922821748,
            "pitch": 40,
            "startTime": 8.75,
            "endTime": 9
          },
          {
            "name": "F2",
            "midi": 41,
            "time": 9,
            "velocity": 0.7086614173228346,
            "duration": 0.25,
            "frequency": 87.30705785825097,
            "pitch": 41,
            "startTime": 9,
            "endTime": 9.25
          },
          {
            "name": "D2",
            "midi": 38,
            "time": 9.25,
            "velocity": 0.7086614173228346,
            "duration": 0.25,
            "frequency": 73.41619197935188,
            "pitch": 38,
            "startTime": 9.25,
            "endTime": 9.5
          },
          {
            "name": "A1",
            "midi": 33,
            "time": 9.5,
            "velocity": 0.7086614173228346,
            "duration": 0.25,
            "frequency": 55,
            "pitch": 33,
            "startTime": 9.5,
            "endTime": 9.75
          },
          {
            "name": "B1",
            "midi": 35,
            "time": 9.75,
            "velocity": 0.7086614173228346,
            "duration": 1,
            "frequency": 61.73541265701551,
            "pitch": 35,
            "startTime": 9.75,
            "endTime": 10.75
          },
          {
            "name": "A1",
            "midi": 33,
            "time": 10.75,
            "velocity": 0.7086614173228346,
            "duration": 0.25,
            "frequency": 55,
            "pitch": 33,
            "startTime": 10.75,
            "endTime": 11
          },
          {
            "name": "B1",
            "midi": 35,
            "time": 11,
            "velocity": 0.7086614173228346,
            "duration": 0.5,
            "frequency": 61.73541265701551,
            "pitch": 35,
            "startTime": 11,
            "endTime": 11.5
          },
          {
            "name": "D2",
            "midi": 38,
            "time": 11.5,
            "velocity": 0.7086614173228346,
            "duration": 1,
            "frequency": 73.41619197935188,
            "pitch": 38,
            "startTime": 11.5,
            "endTime": 12.5
          },
          {
            "name": "E2",
            "midi": 40,
            "time": 12.5,
            "velocity": 0.7086614173228346,
            "duration": 1,
            "frequency": 82.40688922821748,
            "pitch": 40,
            "startTime": 12.5,
            "endTime": 13.5
          },
          {
            "name": "E2",
            "midi": 40,
            "time": 13.5,
            "velocity": 0.7086614173228346,
            "duration": 0.25,
            "frequency": 82.40688922821748,
            "pitch": 40,
            "startTime": 13.5,
            "endTime": 13.75
          }
        ],
        "controlChanges": {},
        "id": 0,
        "channelNumber": 0,
        "isPercussion": false
      }
    ]
  },
  "metasequoia glyptostroboides_keyboard": {
    "header": {
      "PPQ": 128,
      "bpm": 120,
      "name": ""
    },
    "startTime": 0,
    "duration": 3.5,
    "tracks": [
      {
        "startTime": 0,
        "duration": 3.5,
        "length": 28,
        "notes": [
          {
            "name": "E5",
            "midi": 76,
            "time": 0,
            "velocity": 0.7086614173228346,
            "duration": 0.125,
            "frequency": 659.2551138257398,
            "pitch": 76,
            "startTime": 0,
            "endTime": 0.125
          },
          {
            "name": "A3",
            "midi": 57,
            "time": 0.125,
            "velocity": 0.7086614173228346,
            "duration": 0.125,
            "frequency": 220,
            "pitch": 57,
            "startTime": 0.125,
            "endTime": 0.25
          },
          {
            "name": "F#4",
            "midi": 66,
            "time": 0.25,
            "velocity": 0.7086614173228346,
            "duration": 0.125,
            "frequency": 369.99442271163446,
            "pitch": 66,
            "startTime": 0.25,
            "endTime": 0.375
          },
          {
            "name": "D3",
            "midi": 50,
            "time": 0.375,
            "velocity": 0.7086614173228346,
            "duration": 0.125,
            "frequency": 146.8323839587038,
            "pitch": 50,
            "startTime": 0.375,
            "endTime": 0.5
          },
          {
            "name": "F#3",
            "midi": 54,
            "time": 0.5,
            "velocity": 0.7086614173228346,
            "duration": 0.125,
            "frequency": 184.99721135581723,
            "pitch": 54,
            "startTime": 0.5,
            "endTime": 0.625
          },
          {
            "name": "A3",
            "midi": 57,
            "time": 0.625,
            "velocity": 0.7086614173228346,
            "duration": 0.125,
            "frequency": 220,
            "pitch": 57,
            "startTime": 0.625,
            "endTime": 0.75
          },
          {
            "name": "C#3",
            "midi": 49,
            "time": 0.75,
            "velocity": 0.7086614173228346,
            "duration": 0.125,
            "frequency": 138.59131548843604,
            "pitch": 49,
            "startTime": 0.75,
            "endTime": 0.875
          },
          {
            "name": "D5",
            "midi": 74,
            "time": 0.875,
            "velocity": 0.7086614173228346,
            "duration": 0.125,
            "frequency": 587.3295358348151,
            "pitch": 74,
            "startTime": 0.875,
            "endTime": 1
          },
          {
            "name": "A#5",
            "midi": 82,
            "time": 1,
            "velocity": 0.7086614173228346,
            "duration": 0.125,
            "frequency": 932.3275230361799,
            "pitch": 76,
            "startTime": 1,
            "endTime": 1.125
          },
          {
            "name": "F#5",
            "midi": 78,
            "time": 1.125,
            "velocity": 0.7086614173228346,
            "duration": 0.125,
            "frequency": 739.9888454232689,
            "pitch": 76,
            "startTime": 1.125,
            "endTime": 1.25
          },
          {
            "name": "D3",
            "midi": 50,
            "time": 1.25,
            "velocity": 0.7086614173228346,
            "duration": 0.125,
            "frequency": 146.8323839587038,
            "pitch": 50,
            "startTime": 1.25,
            "endTime": 1.375
          },
          {
            "name": "C4",
            "midi": 60,
            "time": 1.375,
            "velocity": 0.7086614173228346,
            "duration": 0.125,
            "frequency": 261.6255653005986,
            "pitch": 60,
            "startTime": 1.375,
            "endTime": 1.5
          },
          {
            "name": "G4",
            "midi": 67,
            "time": 1.5,
            "velocity": 0.7086614173228346,
            "duration": 0.125,
            "frequency": 391.99543598174927,
            "pitch": 67,
            "startTime": 1.5,
            "endTime": 1.625
          },
          {
            "name": "B5",
            "midi": 83,
            "time": 1.625,
            "velocity": 0.7086614173228346,
            "duration": 0.125,
            "frequency": 987.7666025122484,
            "pitch": 76,
            "startTime": 1.625,
            "endTime": 1.75
          },
          {
            "name": "A#4",
            "midi": 70,
            "time": 1.75,
            "velocity": 0.7086614173228346,
            "duration": 0.125,
            "frequency": 466.1637615180899,
            "pitch": 70,
            "startTime": 1.75,
            "endTime": 1.875
          },
          {
            "name": "D6",
            "midi": 86,
            "time": 1.875,
            "velocity": 0.7086614173228346,
            "duration": 0.125,
            "frequency": 1174.6590716696303,
            "pitch": 76,
            "startTime": 1.875,
            "endTime": 2
          },
          {
            "name": "F#4",
            "midi": 66,
            "time": 2,
            "velocity": 0.7086614173228346,
            "duration": 0.125,
            "frequency": 369.99442271163446,
            "pitch": 66,
            "startTime": 2,
            "endTime": 2.125
          },
          {
            "name": "A#5",
            "midi": 82,
            "time": 2.125,
            "velocity": 0.7086614173228346,
            "duration": 0.125,
            "frequency": 932.3275230361799,
            "pitch": 76,
            "startTime": 2.125,
            "endTime": 2.25
          },
          {
            "name": "F#3",
            "midi": 54,
            "time": 2.25,
            "velocity": 0.7086614173228346,
            "duration": 0.125,
            "frequency": 184.99721135581723,
            "pitch": 54,
            "startTime": 2.25,
            "endTime": 2.375
          },
          {
            "name": "F#4",
            "midi": 66,
            "time": 2.375,
            "velocity": 0.7086614173228346,
            "duration": 0.125,
            "frequency": 369.99442271163446,
            "pitch": 66,
            "startTime": 2.375,
            "endTime": 2.5
          },
          {
            "name": "D4",
            "midi": 62,
            "time": 2.5,
            "velocity": 0.7086614173228346,
            "duration": 0.125,
            "frequency": 293.6647679174076,
            "pitch": 62,
            "startTime": 2.5,
            "endTime": 2.625
          },
          {
            "name": "A#5",
            "midi": 82,
            "time": 2.625,
            "velocity": 0.7086614173228346,
            "duration": 0.125,
            "frequency": 932.3275230361799,
            "pitch": 76,
            "startTime": 2.625,
            "endTime": 2.75
          },
          {
            "name": "G#4",
            "midi": 68,
            "time": 2.75,
            "velocity": 0.7086614173228346,
            "duration": 0.125,
            "frequency": 415.3046975799451,
            "pitch": 68,
            "startTime": 2.75,
            "endTime": 2.875
          },
          {
            "name": "A#5",
            "midi": 82,
            "time": 2.875,
            "velocity": 0.7086614173228346,
            "duration": 0.125,
            "frequency": 932.3275230361799,
            "pitch": 76,
            "startTime": 2.875,
            "endTime": 3
          },
          {
            "name": "F#5",
            "midi": 78,
            "time": 3,
            "velocity": 0.7086614173228346,
            "duration": 0.125,
            "frequency": 739.9888454232689,
            "pitch": 76,
            "startTime": 3,
            "endTime": 3.125
          },
          {
            "name": "A#3",
            "midi": 58,
            "time": 3.125,
            "velocity": 0.7086614173228346,
            "duration": 0.125,
            "frequency": 233.08188075904496,
            "pitch": 58,
            "startTime": 3.125,
            "endTime": 3.25
          },
          {
            "name": "A3",
            "midi": 57,
            "time": 3.25,
            "velocity": 0.7086614173228346,
            "duration": 0.125,
            "frequency": 220,
            "pitch": 57,
            "startTime": 3.25,
            "endTime": 3.375
          },
          {
            "name": "F#3",
            "midi": 54,
            "time": 3.375,
            "velocity": 0.7086614173228346,
            "duration": 0.125,
            "frequency": 184.99721135581723,
            "pitch": 54,
            "startTime": 3.375,
            "endTime": 3.5
          }
        ],
        "controlChanges": {},
        "id": 0,
        "channelNumber": 0,
        "isPercussion": false
      }
    ]
  },
  "metasequoia glyptostroboides_chords": {
    "header": {
      "PPQ": 128,
      "bpm": 120,
      "name": ""
    },
    "startTime": 0,
    "duration": 1,
    "tracks": [
      {
        "startTime": 0,
        "duration": 1,
        "length": 27,
        "notes": [
          {
            "name": "F3",
            "midi": 53,
            "time": 0,
            "velocity": 0.7086614173228346,
            "duration": 0.5,
            "frequency": 174.61411571650194,
            "pitch": 53,
            "startTime": 0,
            "endTime": 0.5
          },
          {
            "name": "D#4",
            "midi": 63,
            "time": 0,
            "velocity": 0.7086614173228346,
            "duration": 0.5,
            "frequency": 311.12698372208087,
            "pitch": 63,
            "startTime": 0,
            "endTime": 0.5
          },
          {
            "name": "A4",
            "midi": 69,
            "time": 0,
            "velocity": 0.7086614173228346,
            "duration": 0.5,
            "frequency": 440,
            "pitch": 69,
            "startTime": 0,
            "endTime": 0.5
          },
          {
            "name": "C#5",
            "midi": 73,
            "time": 0,
            "velocity": 0.7086614173228346,
            "duration": 0.5,
            "frequency": 554.3652619537442,
            "pitch": 73,
            "startTime": 0,
            "endTime": 0.5
          },
          {
            "name": "G5",
            "midi": 79,
            "time": 0,
            "velocity": 0.7086614173228346,
            "duration": 0.5,
            "frequency": 783.9908719634986,
            "pitch": 76,
            "startTime": 0,
            "endTime": 0.5
          },
          {
            "name": "D#6",
            "midi": 87,
            "time": 0,
            "velocity": 0.7086614173228346,
            "duration": 0.5,
            "frequency": 1244.5079348883235,
            "pitch": 76,
            "startTime": 0,
            "endTime": 0.5
          },
          {
            "name": "G6",
            "midi": 91,
            "time": 0,
            "velocity": 0.7086614173228346,
            "duration": 0.5,
            "frequency": 1567.981743926997,
            "pitch": 76,
            "startTime": 0,
            "endTime": 0.5
          },
          {
            "name": "A#6",
            "midi": 94,
            "time": 0,
            "velocity": 0.7086614173228346,
            "duration": 0.5,
            "frequency": 1864.6550460723597,
            "pitch": 76,
            "startTime": 0,
            "endTime": 0.5
          },
          {
            "name": "G#7",
            "midi": 104,
            "time": 0,
            "velocity": 0.7086614173228346,
            "duration": 0.5,
            "frequency": 3322.437580639561,
            "pitch": 76,
            "startTime": 0,
            "endTime": 0.5
          },
          {
            "name": "F#8",
            "midi": 114,
            "time": 0,
            "velocity": 0.7086614173228346,
            "duration": 0.5,
            "frequency": 5919.910763386151,
            "pitch": 76,
            "startTime": 0,
            "endTime": 0.5
          },
          {
            "name": "C#9",
            "midi": 121,
            "time": 0,
            "velocity": 0.7086614173228346,
            "duration": 0.5,
            "frequency": 8869.844191259906,
            "pitch": 76,
            "startTime": 0,
            "endTime": 0.5
          },
          {
            "name": "D3",
            "midi": 50,
            "time": 0.5,
            "velocity": 0.7086614173228346,
            "duration": 0.5,
            "frequency": 146.8323839587038,
            "pitch": 50,
            "startTime": 0.5,
            "endTime": 1
          },
          {
            "name": "E3",
            "midi": 52,
            "time": 0.5,
            "velocity": 0.7086614173228346,
            "duration": 0.5,
            "frequency": 164.81377845643496,
            "pitch": 52,
            "startTime": 0.5,
            "endTime": 1
          },
          {
            "name": "B3",
            "midi": 59,
            "time": 0.5,
            "velocity": 0.7086614173228346,
            "duration": 0.5,
            "frequency": 246.9416506280621,
            "pitch": 59,
            "startTime": 0.5,
            "endTime": 1
          },
          {
            "name": "F4",
            "midi": 65,
            "time": 0.5,
            "velocity": 0.7086614173228346,
            "duration": 0.5,
            "frequency": 349.2282314330039,
            "pitch": 65,
            "startTime": 0.5,
            "endTime": 1
          },
          {
            "name": "A4",
            "midi": 69,
            "time": 0.5,
            "velocity": 0.7086614173228346,
            "duration": 0.5,
            "frequency": 440,
            "pitch": 69,
            "startTime": 0.5,
            "endTime": 1
          },
          {
            "name": "G#5",
            "midi": 80,
            "time": 0.5,
            "velocity": 0.7086614173228346,
            "duration": 0.5,
            "frequency": 830.6093951598903,
            "pitch": 76,
            "startTime": 0.5,
            "endTime": 1
          },
          {
            "name": "G6",
            "midi": 91,
            "time": 0.5,
            "velocity": 0.7086614173228346,
            "duration": 0.5,
            "frequency": 1567.981743926997,
            "pitch": 76,
            "startTime": 0.5,
            "endTime": 1
          },
          {
            "name": "A6",
            "midi": 93,
            "time": 0.5,
            "velocity": 0.7086614173228346,
            "duration": 0.5,
            "frequency": 1760,
            "pitch": 76,
            "startTime": 0.5,
            "endTime": 1
          },
          {
            "name": "G7",
            "midi": 103,
            "time": 0.5,
            "velocity": 0.7086614173228346,
            "duration": 0.5,
            "frequency": 3135.9634878539946,
            "pitch": 76,
            "startTime": 0.5,
            "endTime": 1
          },
          {
            "name": "G#7",
            "midi": 104,
            "time": 0.5,
            "velocity": 0.7086614173228346,
            "duration": 0.5,
            "frequency": 3322.437580639561,
            "pitch": 76,
            "startTime": 0.5,
            "endTime": 1
          },
          {
            "name": "C8",
            "midi": 108,
            "time": 0.5,
            "velocity": 0.7086614173228346,
            "duration": 0.5,
            "frequency": 4186.009044809578,
            "pitch": 76,
            "startTime": 0.5,
            "endTime": 1
          },
          {
            "name": "G#8",
            "midi": 116,
            "time": 0.5,
            "velocity": 0.7086614173228346,
            "duration": 0.5,
            "frequency": 6644.875161279122,
            "pitch": 76,
            "startTime": 0.5,
            "endTime": 1
          },
          {
            "name": "F#9",
            "midi": 126,
            "time": 0.5,
            "velocity": 0.7086614173228346,
            "duration": 0.5,
            "frequency": 11839.821526772303,
            "pitch": 76,
            "startTime": 0.5,
            "endTime": 1
          },
          {
            "name": "C10",
            "midi": 132,
            "time": 0.5,
            "velocity": 0.7086614173228346,
            "duration": 0.5,
            "frequency": 16744.036179238312,
            "pitch": 76,
            "startTime": 0.5,
            "endTime": 1
          },
          {
            "name": "D#10",
            "midi": 135,
            "time": 0.5,
            "velocity": 0.7086614173228346,
            "duration": 0.5,
            "frequency": 19912.126958213175,
            "pitch": 76,
            "startTime": 0.5,
            "endTime": 1
          },
          {
            "name": "G10",
            "midi": 139,
            "time": 0.5,
            "velocity": 0.7086614173228346,
            "duration": 0.5,
            "frequency": 25087.70790283195,
            "pitch": 76,
            "startTime": 0.5,
            "endTime": 1
          }
        ],
        "controlChanges": {},
        "id": 0,
        "channelNumber": 0,
        "isPercussion": false
      }
    ]
  },
  "nothofagus_french": {
    "header": {
      "PPQ": 128,
      "bpm": 120,
      "name": ""
    },
    "startTime": 0,
    "duration": 5.25,
    "tracks": [
      {
        "startTime": 0,
        "duration": 5.25,
        "length": 10,
        "notes": [
          {
            "name": "G4",
            "midi": 67,
            "time": 0,
            "velocity": 0.7086614173228346,
            "duration": 0.5,
            "frequency": 391.99543598174927,
            "pitch": 67,
            "startTime": 0,
            "endTime": 0.5
          },
          {
            "name": "A4",
            "midi": 69,
            "time": 0.5,
            "velocity": 0.7086614173228346,
            "duration": 0.25,
            "frequency": 440,
            "pitch": 69,
            "startTime": 0.5,
            "endTime": 0.75
          },
          {
            "name": "F4",
            "midi": 65,
            "time": 0.75,
            "velocity": 0.7086614173228346,
            "duration": 0.25,
            "frequency": 349.2282314330039,
            "pitch": 65,
            "startTime": 0.75,
            "endTime": 1
          },
          {
            "name": "A4",
            "midi": 69,
            "time": 1,
            "velocity": 0.7086614173228346,
            "duration": 0.5,
            "frequency": 440,
            "pitch": 69,
            "startTime": 1,
            "endTime": 1.5
          },
          {
            "name": "A4",
            "midi": 69,
            "time": 1.5,
            "velocity": 0.7086614173228346,
            "duration": 0.25,
            "frequency": 440,
            "pitch": 69,
            "startTime": 1.5,
            "endTime": 1.75
          },
          {
            "name": "F4",
            "midi": 65,
            "time": 1.75,
            "velocity": 0.7086614173228346,
            "duration": 1,
            "frequency": 349.2282314330039,
            "pitch": 65,
            "startTime": 1.75,
            "endTime": 2.75
          },
          {
            "name": "A4",
            "midi": 69,
            "time": 2.75,
            "velocity": 0.7086614173228346,
            "duration": 1,
            "frequency": 440,
            "pitch": 69,
            "startTime": 2.75,
            "endTime": 3.75
          },
          {
            "name": "G4",
            "midi": 67,
            "time": 3.75,
            "velocity": 0.7086614173228346,
            "duration": 1,
            "frequency": 391.99543598174927,
            "pitch": 67,
            "startTime": 3.75,
            "endTime": 4.75
          },
          {
            "name": "G4",
            "midi": 67,
            "time": 4.75,
            "velocity": 0.7086614173228346,
            "duration": 0.25,
            "frequency": 391.99543598174927,
            "pitch": 67,
            "startTime": 4.75,
            "endTime": 5
          },
          {
            "name": "E4",
            "midi": 64,
            "time": 5,
            "velocity": 0.7086614173228346,
            "duration": 0.25,
            "frequency": 329.6275569128699,
            "pitch": 64,
            "startTime": 5,
            "endTime": 5.25
          }
        ],
        "controlChanges": {},
        "id": 0,
        "channelNumber": 0,
        "isPercussion": false
      }
    ]
  },
  "nothofagus_keyboard": {
    "header": {
      "PPQ": 128,
      "bpm": 120,
      "name": ""
    },
    "startTime": 0,
    "duration": 1.25,
    "tracks": [
      {
        "startTime": 0,
        "duration": 1.25,
        "length": 10,
        "notes": [
          {
            "name": "C5",
            "midi": 72,
            "time": 0,
            "velocity": 0.7086614173228346,
            "duration": 0.125,
            "frequency": 523.2511306011972,
            "pitch": 72,
            "startTime": 0,
            "endTime": 0.125
          },
          {
            "name": "A#5",
            "midi": 82,
            "time": 0.125,
            "velocity": 0.7086614173228346,
            "duration": 0.125,
            "frequency": 932.3275230361799,
            "pitch": 76,
            "startTime": 0.125,
            "endTime": 0.25
          },
          {
            "name": "F#4",
            "midi": 66,
            "time": 0.25,
            "velocity": 0.7086614173228346,
            "duration": 0.125,
            "frequency": 369.99442271163446,
            "pitch": 66,
            "startTime": 0.25,
            "endTime": 0.375
          },
          {
            "name": "B4",
            "midi": 71,
            "time": 0.375,
            "velocity": 0.7086614173228346,
            "duration": 0.125,
            "frequency": 493.8833012561242,
            "pitch": 71,
            "startTime": 0.375,
            "endTime": 0.5
          },
          {
            "name": "A#5",
            "midi": 82,
            "time": 0.5,
            "velocity": 0.7086614173228346,
            "duration": 0.125,
            "frequency": 932.3275230361799,
            "pitch": 76,
            "startTime": 0.5,
            "endTime": 0.625
          },
          {
            "name": "D#4",
            "midi": 63,
            "time": 0.625,
            "velocity": 0.7086614173228346,
            "duration": 0.125,
            "frequency": 311.12698372208087,
            "pitch": 63,
            "startTime": 0.625,
            "endTime": 0.75
          },
          {
            "name": "D3",
            "midi": 50,
            "time": 0.75,
            "velocity": 0.7086614173228346,
            "duration": 0.125,
            "frequency": 146.8323839587038,
            "pitch": 50,
            "startTime": 0.75,
            "endTime": 0.875
          },
          {
            "name": "G4",
            "midi": 67,
            "time": 0.875,
            "velocity": 0.7086614173228346,
            "duration": 0.125,
            "frequency": 391.99543598174927,
            "pitch": 67,
            "startTime": 0.875,
            "endTime": 1
          },
          {
            "name": "D5",
            "midi": 74,
            "time": 1,
            "velocity": 0.7086614173228346,
            "duration": 0.125,
            "frequency": 587.3295358348151,
            "pitch": 74,
            "startTime": 1,
            "endTime": 1.125
          },
          {
            "name": "F#3",
            "midi": 54,
            "time": 1.125,
            "velocity": 0.7086614173228346,
            "duration": 0.125,
            "frequency": 184.99721135581723,
            "pitch": 54,
            "startTime": 1.125,
            "endTime": 1.25
          }
        ],
        "controlChanges": {},
        "id": 0,
        "channelNumber": 0,
        "isPercussion": false
      }
    ]
  },
  "nothofagus_chords": {
    "header": {
      "PPQ": 128,
      "bpm": 120,
      "name": ""
    },
    "startTime": 0,
    "duration": 0.5,
    "tracks": [
      {
        "startTime": 0,
        "duration": 0.5,
        "length": 10,
        "notes": [
          {
            "name": "F3",
            "midi": 53,
            "time": 0,
            "velocity": 0.7086614173228346,
            "duration": 0.5,
            "frequency": 174.61411571650194,
            "pitch": 53,
            "startTime": 0,
            "endTime": 0.5
          },
          {
            "name": "G#3",
            "midi": 56,
            "time": 0,
            "velocity": 0.7086614173228346,
            "duration": 0.5,
            "frequency": 207.65234878997256,
            "pitch": 56,
            "startTime": 0,
            "endTime": 0.5
          },
          {
            "name": "A3",
            "midi": 57,
            "time": 0,
            "velocity": 0.7086614173228346,
            "duration": 0.5,
            "frequency": 220,
            "pitch": 57,
            "startTime": 0,
            "endTime": 0.5
          },
          {
            "name": "D4",
            "midi": 62,
            "time": 0,
            "velocity": 0.7086614173228346,
            "duration": 0.5,
            "frequency": 293.6647679174076,
            "pitch": 62,
            "startTime": 0,
            "endTime": 0.5
          },
          {
            "name": "G#4",
            "midi": 68,
            "time": 0,
            "velocity": 0.7086614173228346,
            "duration": 0.5,
            "frequency": 415.3046975799451,
            "pitch": 68,
            "startTime": 0,
            "endTime": 0.5
          },
          {
            "name": "D5",
            "midi": 74,
            "time": 0,
            "velocity": 0.7086614173228346,
            "duration": 0.5,
            "frequency": 587.3295358348151,
            "pitch": 74,
            "startTime": 0,
            "endTime": 0.5
          },
          {
            "name": "C#6",
            "midi": 85,
            "time": 0,
            "velocity": 0.7086614173228346,
            "duration": 0.5,
            "frequency": 1108.7305239074883,
            "pitch": 76,
            "startTime": 0,
            "endTime": 0.5
          },
          {
            "name": "D6",
            "midi": 86,
            "time": 0,
            "velocity": 0.7086614173228346,
            "duration": 0.5,
            "frequency": 1174.6590716696303,
            "pitch": 76,
            "startTime": 0,
            "endTime": 0.5
          },
          {
            "name": "A#6",
            "midi": 94,
            "time": 0,
            "velocity": 0.7086614173228346,
            "duration": 0.5,
            "frequency": 1864.6550460723597,
            "pitch": 76,
            "startTime": 0,
            "endTime": 0.5
          },
          {
            "name": "G7",
            "midi": 103,
            "time": 0,
            "velocity": 0.7086614173228346,
            "duration": 0.5,
            "frequency": 3135.9634878539946,
            "pitch": 76,
            "startTime": 0,
            "endTime": 0.5
          }
        ],
        "controlChanges": {},
        "id": 0,
        "channelNumber": 0,
        "isPercussion": false
      }
    ]
  },
  "parrotia persica_french": {
    "header": {
      "PPQ": 128,
      "bpm": 120,
      "name": ""
    },
    "startTime": 0,
    "duration": 8.125,
    "tracks": [
      {
        "startTime": 0,
        "duration": 8.125,
        "length": 16,
        "notes": [
          {
            "name": "B4",
            "midi": 71,
            "time": 0,
            "velocity": 0.7086614173228346,
            "duration": 0.25,
            "frequency": 493.8833012561242,
            "pitch": 71,
            "startTime": 0,
            "endTime": 0.25
          },
          {
            "name": "A4",
            "midi": 69,
            "time": 0.25,
            "velocity": 0.7086614173228346,
            "duration": 1,
            "frequency": 440,
            "pitch": 69,
            "startTime": 0.25,
            "endTime": 1.25
          },
          {
            "name": "D5",
            "midi": 74,
            "time": 1.25,
            "velocity": 0.7086614173228346,
            "duration": 0.25,
            "frequency": 587.3295358348151,
            "pitch": 74,
            "startTime": 1.25,
            "endTime": 1.5
          },
          {
            "name": "D5",
            "midi": 74,
            "time": 1.5,
            "velocity": 0.7086614173228346,
            "duration": 0.25,
            "frequency": 587.3295358348151,
            "pitch": 74,
            "startTime": 1.5,
            "endTime": 1.75
          },
          {
            "name": "A4",
            "midi": 69,
            "time": 1.75,
            "velocity": 0.7086614173228346,
            "duration": 0.25,
            "frequency": 440,
            "pitch": 69,
            "startTime": 1.75,
            "endTime": 2
          },
          {
            "name": "F4",
            "midi": 65,
            "time": 2,
            "velocity": 0.7086614173228346,
            "duration": 0.25,
            "frequency": 349.2282314330039,
            "pitch": 65,
            "startTime": 2,
            "endTime": 2.25
          },
          {
            "name": "B4",
            "midi": 71,
            "time": 2.25,
            "velocity": 0.7086614173228346,
            "duration": 0.5,
            "frequency": 493.8833012561242,
            "pitch": 71,
            "startTime": 2.25,
            "endTime": 2.75
          },
          {
            "name": "A4",
            "midi": 69,
            "time": 2.75,
            "velocity": 0.7086614173228346,
            "duration": 1,
            "frequency": 440,
            "pitch": 69,
            "startTime": 2.75,
            "endTime": 3.75
          },
          {
            "name": "G4",
            "midi": 67,
            "time": 3.75,
            "velocity": 0.7086614173228346,
            "duration": 0.125,
            "frequency": 391.99543598174927,
            "pitch": 67,
            "startTime": 3.75,
            "endTime": 3.875
          },
          {
            "name": "B4",
            "midi": 71,
            "time": 3.875,
            "velocity": 0.7086614173228346,
            "duration": 0.25,
            "frequency": 493.8833012561242,
            "pitch": 71,
            "startTime": 3.875,
            "endTime": 4.125
          },
          {
            "name": "E5",
            "midi": 76,
            "time": 4.125,
            "velocity": 0.7086614173228346,
            "duration": 1,
            "frequency": 659.2551138257398,
            "pitch": 76,
            "startTime": 4.125,
            "endTime": 5.125
          },
          {
            "name": "D5",
            "midi": 74,
            "time": 5.125,
            "velocity": 0.7086614173228346,
            "duration": 0.25,
            "frequency": 587.3295358348151,
            "pitch": 74,
            "startTime": 5.125,
            "endTime": 5.375
          },
          {
            "name": "E5",
            "midi": 76,
            "time": 5.375,
            "velocity": 0.7086614173228346,
            "duration": 0.25,
            "frequency": 659.2551138257398,
            "pitch": 76,
            "startTime": 5.375,
            "endTime": 5.625
          },
          {
            "name": "B4",
            "midi": 71,
            "time": 5.625,
            "velocity": 0.7086614173228346,
            "duration": 0.5,
            "frequency": 493.8833012561242,
            "pitch": 71,
            "startTime": 5.625,
            "endTime": 6.125
          },
          {
            "name": "C5",
            "midi": 72,
            "time": 6.125,
            "velocity": 0.7086614173228346,
            "duration": 1,
            "frequency": 523.2511306011972,
            "pitch": 72,
            "startTime": 6.125,
            "endTime": 7.125
          },
          {
            "name": "A4",
            "midi": 69,
            "time": 7.125,
            "velocity": 0.7086614173228346,
            "duration": 1,
            "frequency": 440,
            "pitch": 69,
            "startTime": 7.125,
            "endTime": 8.125
          }
        ],
        "controlChanges": {},
        "id": 0,
        "channelNumber": 0,
        "isPercussion": false
      }
    ]
  },
  "parrotia persica_keyboard": {
    "header": {
      "PPQ": 128,
      "bpm": 120,
      "name": ""
    },
    "startTime": 0,
    "duration": 2,
    "tracks": [
      {
        "startTime": 0,
        "duration": 2,
        "length": 16,
        "notes": [
          {
            "name": "D6",
            "midi": 86,
            "time": 0,
            "velocity": 0.7086614173228346,
            "duration": 0.125,
            "frequency": 1174.6590716696303,
            "pitch": 76,
            "startTime": 0,
            "endTime": 0.125
          },
          {
            "name": "D3",
            "midi": 50,
            "time": 0.125,
            "velocity": 0.7086614173228346,
            "duration": 0.125,
            "frequency": 146.8323839587038,
            "pitch": 50,
            "startTime": 0.125,
            "endTime": 0.25
          },
          {
            "name": "D4",
            "midi": 62,
            "time": 0.25,
            "velocity": 0.7086614173228346,
            "duration": 0.125,
            "frequency": 293.6647679174076,
            "pitch": 62,
            "startTime": 0.25,
            "endTime": 0.375
          },
          {
            "name": "D4",
            "midi": 62,
            "time": 0.375,
            "velocity": 0.7086614173228346,
            "duration": 0.125,
            "frequency": 293.6647679174076,
            "pitch": 62,
            "startTime": 0.375,
            "endTime": 0.5
          },
          {
            "name": "A#5",
            "midi": 82,
            "time": 0.5,
            "velocity": 0.7086614173228346,
            "duration": 0.125,
            "frequency": 932.3275230361799,
            "pitch": 76,
            "startTime": 0.5,
            "endTime": 0.625
          },
          {
            "name": "F#4",
            "midi": 66,
            "time": 0.625,
            "velocity": 0.7086614173228346,
            "duration": 0.125,
            "frequency": 369.99442271163446,
            "pitch": 66,
            "startTime": 0.625,
            "endTime": 0.75
          },
          {
            "name": "F#5",
            "midi": 78,
            "time": 0.75,
            "velocity": 0.7086614173228346,
            "duration": 0.125,
            "frequency": 739.9888454232689,
            "pitch": 76,
            "startTime": 0.75,
            "endTime": 0.875
          },
          {
            "name": "D3",
            "midi": 50,
            "time": 0.875,
            "velocity": 0.7086614173228346,
            "duration": 0.125,
            "frequency": 146.8323839587038,
            "pitch": 50,
            "startTime": 0.875,
            "endTime": 1
          },
          {
            "name": "C4",
            "midi": 60,
            "time": 1,
            "velocity": 0.7086614173228346,
            "duration": 0.125,
            "frequency": 261.6255653005986,
            "pitch": 60,
            "startTime": 1,
            "endTime": 1.125
          },
          {
            "name": "D6",
            "midi": 86,
            "time": 1.125,
            "velocity": 0.7086614173228346,
            "duration": 0.125,
            "frequency": 1174.6590716696303,
            "pitch": 76,
            "startTime": 1.125,
            "endTime": 1.25
          },
          {
            "name": "A3",
            "midi": 57,
            "time": 1.25,
            "velocity": 0.7086614173228346,
            "duration": 0.125,
            "frequency": 220,
            "pitch": 57,
            "startTime": 1.25,
            "endTime": 1.375
          },
          {
            "name": "D4",
            "midi": 62,
            "time": 1.375,
            "velocity": 0.7086614173228346,
            "duration": 0.125,
            "frequency": 293.6647679174076,
            "pitch": 62,
            "startTime": 1.375,
            "endTime": 1.5
          },
          {
            "name": "F#3",
            "midi": 54,
            "time": 1.5,
            "velocity": 0.7086614173228346,
            "duration": 0.125,
            "frequency": 184.99721135581723,
            "pitch": 54,
            "startTime": 1.5,
            "endTime": 1.625
          },
          {
            "name": "F#5",
            "midi": 78,
            "time": 1.625,
            "velocity": 0.7086614173228346,
            "duration": 0.125,
            "frequency": 739.9888454232689,
            "pitch": 76,
            "startTime": 1.625,
            "endTime": 1.75
          },
          {
            "name": "B3",
            "midi": 59,
            "time": 1.75,
            "velocity": 0.7086614173228346,
            "duration": 0.125,
            "frequency": 246.9416506280621,
            "pitch": 59,
            "startTime": 1.75,
            "endTime": 1.875
          },
          {
            "name": "D3",
            "midi": 50,
            "time": 1.875,
            "velocity": 0.7086614173228346,
            "duration": 0.125,
            "frequency": 146.8323839587038,
            "pitch": 50,
            "startTime": 1.875,
            "endTime": 2
          }
        ],
        "controlChanges": {},
        "id": 0,
        "channelNumber": 0,
        "isPercussion": false
      }
    ]
  },
  "parrotia persica_chords": {
    "header": {
      "PPQ": 128,
      "bpm": 120,
      "name": ""
    },
    "startTime": 0,
    "duration": 1,
    "tracks": [
      {
        "startTime": 0,
        "duration": 1,
        "length": 15,
        "notes": [
          {
            "name": "F3",
            "midi": 53,
            "time": 0,
            "velocity": 0.7086614173228346,
            "duration": 0.5,
            "frequency": 174.61411571650194,
            "pitch": 53,
            "startTime": 0,
            "endTime": 0.5
          },
          {
            "name": "C#4",
            "midi": 61,
            "time": 0,
            "velocity": 0.7086614173228346,
            "duration": 0.5,
            "frequency": 277.1826309768721,
            "pitch": 61,
            "startTime": 0,
            "endTime": 0.5
          },
          {
            "name": "G4",
            "midi": 67,
            "time": 0,
            "velocity": 0.7086614173228346,
            "duration": 0.5,
            "frequency": 391.99543598174927,
            "pitch": 67,
            "startTime": 0,
            "endTime": 0.5
          },
          {
            "name": "G5",
            "midi": 79,
            "time": 0,
            "velocity": 0.7086614173228346,
            "duration": 0.5,
            "frequency": 783.9908719634986,
            "pitch": 76,
            "startTime": 0,
            "endTime": 0.5
          },
          {
            "name": "G#5",
            "midi": 80,
            "time": 0,
            "velocity": 0.7086614173228346,
            "duration": 0.5,
            "frequency": 830.6093951598903,
            "pitch": 76,
            "startTime": 0,
            "endTime": 0.5
          },
          {
            "name": "A5",
            "midi": 81,
            "time": 0,
            "velocity": 0.7086614173228346,
            "duration": 0.5,
            "frequency": 880,
            "pitch": 76,
            "startTime": 0,
            "endTime": 0.5
          },
          {
            "name": "F#6",
            "midi": 90,
            "time": 0,
            "velocity": 0.7086614173228346,
            "duration": 0.5,
            "frequency": 1479.9776908465378,
            "pitch": 76,
            "startTime": 0,
            "endTime": 0.5
          },
          {
            "name": "C#7",
            "midi": 97,
            "time": 0,
            "velocity": 0.7086614173228346,
            "duration": 0.5,
            "frequency": 2217.461047814977,
            "pitch": 76,
            "startTime": 0,
            "endTime": 0.5
          },
          {
            "name": "F3",
            "midi": 53,
            "time": 0.5,
            "velocity": 0.7086614173228346,
            "duration": 0.5,
            "frequency": 174.61411571650194,
            "pitch": 53,
            "startTime": 0.5,
            "endTime": 1
          },
          {
            "name": "D#4",
            "midi": 63,
            "time": 0.5,
            "velocity": 0.7086614173228346,
            "duration": 0.5,
            "frequency": 311.12698372208087,
            "pitch": 63,
            "startTime": 0.5,
            "endTime": 1
          },
          {
            "name": "G4",
            "midi": 67,
            "time": 0.5,
            "velocity": 0.7086614173228346,
            "duration": 0.5,
            "frequency": 391.99543598174927,
            "pitch": 67,
            "startTime": 0.5,
            "endTime": 1
          },
          {
            "name": "G5",
            "midi": 79,
            "time": 0.5,
            "velocity": 0.7086614173228346,
            "duration": 0.5,
            "frequency": 783.9908719634986,
            "pitch": 76,
            "startTime": 0.5,
            "endTime": 1
          },
          {
            "name": "F#6",
            "midi": 90,
            "time": 0.5,
            "velocity": 0.7086614173228346,
            "duration": 0.5,
            "frequency": 1479.9776908465378,
            "pitch": 76,
            "startTime": 0.5,
            "endTime": 1
          },
          {
            "name": "C7",
            "midi": 96,
            "time": 0.5,
            "velocity": 0.7086614173228346,
            "duration": 0.5,
            "frequency": 2093.004522404789,
            "pitch": 76,
            "startTime": 0.5,
            "endTime": 1
          },
          {
            "name": "C#7",
            "midi": 97,
            "time": 0.5,
            "velocity": 0.7086614173228346,
            "duration": 0.5,
            "frequency": 2217.461047814977,
            "pitch": 76,
            "startTime": 0.5,
            "endTime": 1
          }
        ],
        "controlChanges": {},
        "id": 0,
        "channelNumber": 0,
        "isPercussion": false
      }
    ]
  },
  "picea abies_french": {
    "header": {
      "PPQ": 128,
      "bpm": 120,
      "name": ""
    },
    "startTime": 0,
    "duration": 7.625,
    "tracks": [
      {
        "startTime": 0,
        "duration": 7.625,
        "length": 11,
        "notes": [
          {
            "name": "B4",
            "midi": 71,
            "time": 0,
            "velocity": 0.7086614173228346,
            "duration": 0.25,
            "frequency": 493.8833012561242,
            "pitch": 71,
            "startTime": 0,
            "endTime": 0.25
          },
          {
            "name": "B4",
            "midi": 71,
            "time": 0.25,
            "velocity": 0.7086614173228346,
            "duration": 0.5,
            "frequency": 493.8833012561242,
            "pitch": 71,
            "startTime": 0.25,
            "endTime": 0.75
          },
          {
            "name": "C5",
            "midi": 72,
            "time": 0.75,
            "velocity": 0.7086614173228346,
            "duration": 1,
            "frequency": 523.2511306011972,
            "pitch": 72,
            "startTime": 0.75,
            "endTime": 1.75
          },
          {
            "name": "E5",
            "midi": 76,
            "time": 1.75,
            "velocity": 0.7086614173228346,
            "duration": 1,
            "frequency": 659.2551138257398,
            "pitch": 76,
            "startTime": 1.75,
            "endTime": 2.75
          },
          {
            "name": "A5",
            "midi": 81,
            "time": 2.75,
            "velocity": 0.7086614173228346,
            "duration": 1,
            "frequency": 880,
            "pitch": 76,
            "startTime": 2.75,
            "endTime": 3.75
          },
          {
            "name": "G5",
            "midi": 79,
            "time": 3.75,
            "velocity": 0.7086614173228346,
            "duration": 0.125,
            "frequency": 783.9908719634986,
            "pitch": 76,
            "startTime": 3.75,
            "endTime": 3.875
          },
          {
            "name": "A5",
            "midi": 81,
            "time": 3.875,
            "velocity": 0.7086614173228346,
            "duration": 1,
            "frequency": 880,
            "pitch": 76,
            "startTime": 3.875,
            "endTime": 4.875
          },
          {
            "name": "B5",
            "midi": 83,
            "time": 4.875,
            "velocity": 0.7086614173228346,
            "duration": 1,
            "frequency": 987.7666025122484,
            "pitch": 76,
            "startTime": 4.875,
            "endTime": 5.875
          },
          {
            "name": "B5",
            "midi": 83,
            "time": 5.875,
            "velocity": 0.7086614173228346,
            "duration": 0.5,
            "frequency": 987.7666025122484,
            "pitch": 76,
            "startTime": 5.875,
            "endTime": 6.375
          },
          {
            "name": "E6",
            "midi": 88,
            "time": 6.375,
            "velocity": 0.7086614173228346,
            "duration": 1,
            "frequency": 1318.5102276514797,
            "pitch": 76,
            "startTime": 6.375,
            "endTime": 7.375
          },
          {
            "name": "E6",
            "midi": 88,
            "time": 7.375,
            "velocity": 0.7086614173228346,
            "duration": 0.25,
            "frequency": 1318.5102276514797,
            "pitch": 76,
            "startTime": 7.375,
            "endTime": 7.625
          }
        ],
        "controlChanges": {},
        "id": 0,
        "channelNumber": 0,
        "isPercussion": false
      }
    ]
  },
  "picea abies_keyboard": {
    "header": {
      "PPQ": 128,
      "bpm": 120,
      "name": ""
    },
    "startTime": 0,
    "duration": 1.375,
    "tracks": [
      {
        "startTime": 0,
        "duration": 1.375,
        "length": 11,
        "notes": [
          {
            "name": "D6",
            "midi": 86,
            "time": 0,
            "velocity": 0.7086614173228346,
            "duration": 0.125,
            "frequency": 1174.6590716696303,
            "pitch": 76,
            "startTime": 0,
            "endTime": 0.125
          },
          {
            "name": "F#5",
            "midi": 78,
            "time": 0.125,
            "velocity": 0.7086614173228346,
            "duration": 0.125,
            "frequency": 739.9888454232689,
            "pitch": 76,
            "startTime": 0.125,
            "endTime": 0.25
          },
          {
            "name": "B3",
            "midi": 59,
            "time": 0.25,
            "velocity": 0.7086614173228346,
            "duration": 0.125,
            "frequency": 246.9416506280621,
            "pitch": 59,
            "startTime": 0.25,
            "endTime": 0.375
          },
          {
            "name": "A3",
            "midi": 57,
            "time": 0.375,
            "velocity": 0.7086614173228346,
            "duration": 0.125,
            "frequency": 220,
            "pitch": 57,
            "startTime": 0.375,
            "endTime": 0.5
          },
          {
            "name": "D3",
            "midi": 50,
            "time": 0.5,
            "velocity": 0.7086614173228346,
            "duration": 0.125,
            "frequency": 146.8323839587038,
            "pitch": 50,
            "startTime": 0.5,
            "endTime": 0.625
          },
          {
            "name": "C4",
            "midi": 60,
            "time": 0.625,
            "velocity": 0.7086614173228346,
            "duration": 0.125,
            "frequency": 261.6255653005986,
            "pitch": 60,
            "startTime": 0.625,
            "endTime": 0.75
          },
          {
            "name": "D3",
            "midi": 50,
            "time": 0.75,
            "velocity": 0.7086614173228346,
            "duration": 0.125,
            "frequency": 146.8323839587038,
            "pitch": 50,
            "startTime": 0.75,
            "endTime": 0.875
          },
          {
            "name": "G#4",
            "midi": 68,
            "time": 0.875,
            "velocity": 0.7086614173228346,
            "duration": 0.125,
            "frequency": 415.3046975799451,
            "pitch": 68,
            "startTime": 0.875,
            "endTime": 1
          },
          {
            "name": "F#5",
            "midi": 78,
            "time": 1,
            "velocity": 0.7086614173228346,
            "duration": 0.125,
            "frequency": 739.9888454232689,
            "pitch": 76,
            "startTime": 1,
            "endTime": 1.125
          },
          {
            "name": "A3",
            "midi": 57,
            "time": 1.125,
            "velocity": 0.7086614173228346,
            "duration": 0.125,
            "frequency": 220,
            "pitch": 57,
            "startTime": 1.125,
            "endTime": 1.25
          },
          {
            "name": "F#3",
            "midi": 54,
            "time": 1.25,
            "velocity": 0.7086614173228346,
            "duration": 0.125,
            "frequency": 184.99721135581723,
            "pitch": 54,
            "startTime": 1.25,
            "endTime": 1.375
          }
        ],
        "controlChanges": {},
        "id": 0,
        "channelNumber": 0,
        "isPercussion": false
      }
    ]
  },
  "picea abies_chords": {
    "header": {
      "PPQ": 128,
      "bpm": 120,
      "name": ""
    },
    "startTime": 0,
    "duration": 1,
    "tracks": [
      {
        "startTime": 0,
        "duration": 1,
        "length": 10,
        "notes": [
          {
            "name": "F3",
            "midi": 53,
            "time": 0,
            "velocity": 0.7086614173228346,
            "duration": 0.5,
            "frequency": 174.61411571650194,
            "pitch": 53,
            "startTime": 0,
            "endTime": 0.5
          },
          {
            "name": "F#3",
            "midi": 54,
            "time": 0,
            "velocity": 0.7086614173228346,
            "duration": 0.5,
            "frequency": 184.99721135581723,
            "pitch": 54,
            "startTime": 0,
            "endTime": 0.5
          },
          {
            "name": "C4",
            "midi": 60,
            "time": 0,
            "velocity": 0.7086614173228346,
            "duration": 0.5,
            "frequency": 261.6255653005986,
            "pitch": 60,
            "startTime": 0,
            "endTime": 0.5
          },
          {
            "name": "D#4",
            "midi": 63,
            "time": 0,
            "velocity": 0.7086614173228346,
            "duration": 0.5,
            "frequency": 311.12698372208087,
            "pitch": 63,
            "startTime": 0,
            "endTime": 0.5
          },
          {
            "name": "C#5",
            "midi": 73,
            "time": 0,
            "velocity": 0.7086614173228346,
            "duration": 0.5,
            "frequency": 554.3652619537442,
            "pitch": 73,
            "startTime": 0,
            "endTime": 0.5
          },
          {
            "name": "C#3",
            "midi": 49,
            "time": 0.5,
            "velocity": 0.7086614173228346,
            "duration": 0.5,
            "frequency": 138.59131548843604,
            "pitch": 49,
            "startTime": 0.5,
            "endTime": 1
          },
          {
            "name": "C4",
            "midi": 60,
            "time": 0.5,
            "velocity": 0.7086614173228346,
            "duration": 0.5,
            "frequency": 261.6255653005986,
            "pitch": 60,
            "startTime": 0.5,
            "endTime": 1
          },
          {
            "name": "F#4",
            "midi": 66,
            "time": 0.5,
            "velocity": 0.7086614173228346,
            "duration": 0.5,
            "frequency": 369.99442271163446,
            "pitch": 66,
            "startTime": 0.5,
            "endTime": 1
          },
          {
            "name": "D#5",
            "midi": 75,
            "time": 0.5,
            "velocity": 0.7086614173228346,
            "duration": 0.5,
            "frequency": 622.2539674441618,
            "pitch": 75,
            "startTime": 0.5,
            "endTime": 1
          },
          {
            "name": "G5",
            "midi": 79,
            "time": 0.5,
            "velocity": 0.7086614173228346,
            "duration": 0.5,
            "frequency": 783.9908719634986,
            "pitch": 76,
            "startTime": 0.5,
            "endTime": 1
          }
        ],
        "controlChanges": {},
        "id": 0,
        "channelNumber": 0,
        "isPercussion": false
      }
    ]
  },
  "picea pungens_french": {
    "header": {
      "PPQ": 128,
      "bpm": 120,
      "name": ""
    },
    "startTime": 0,
    "duration": 7.625,
    "tracks": [
      {
        "startTime": 0,
        "duration": 7.625,
        "length": 13,
        "notes": [
          {
            "name": "B4",
            "midi": 71,
            "time": 0,
            "velocity": 0.7086614173228346,
            "duration": 0.25,
            "frequency": 493.8833012561242,
            "pitch": 71,
            "startTime": 0,
            "endTime": 0.25
          },
          {
            "name": "B4",
            "midi": 71,
            "time": 0.25,
            "velocity": 0.7086614173228346,
            "duration": 0.5,
            "frequency": 493.8833012561242,
            "pitch": 71,
            "startTime": 0.25,
            "endTime": 0.75
          },
          {
            "name": "C5",
            "midi": 72,
            "time": 0.75,
            "velocity": 0.7086614173228346,
            "duration": 1,
            "frequency": 523.2511306011972,
            "pitch": 72,
            "startTime": 0.75,
            "endTime": 1.75
          },
          {
            "name": "E5",
            "midi": 76,
            "time": 1.75,
            "velocity": 0.7086614173228346,
            "duration": 1,
            "frequency": 659.2551138257398,
            "pitch": 76,
            "startTime": 1.75,
            "endTime": 2.75
          },
          {
            "name": "A5",
            "midi": 81,
            "time": 2.75,
            "velocity": 0.7086614173228346,
            "duration": 1,
            "frequency": 880,
            "pitch": 76,
            "startTime": 2.75,
            "endTime": 3.75
          },
          {
            "name": "G5",
            "midi": 79,
            "time": 3.75,
            "velocity": 0.7086614173228346,
            "duration": 0.125,
            "frequency": 783.9908719634986,
            "pitch": 76,
            "startTime": 3.75,
            "endTime": 3.875
          },
          {
            "name": "B5",
            "midi": 83,
            "time": 3.875,
            "velocity": 0.7086614173228346,
            "duration": 0.25,
            "frequency": 987.7666025122484,
            "pitch": 76,
            "startTime": 3.875,
            "endTime": 4.125
          },
          {
            "name": "G5",
            "midi": 79,
            "time": 4.125,
            "velocity": 0.7086614173228346,
            "duration": 0.25,
            "frequency": 783.9908719634986,
            "pitch": 76,
            "startTime": 4.125,
            "endTime": 4.375
          },
          {
            "name": "G5",
            "midi": 79,
            "time": 4.375,
            "velocity": 0.7086614173228346,
            "duration": 0.5,
            "frequency": 783.9908719634986,
            "pitch": 76,
            "startTime": 4.375,
            "endTime": 4.875
          },
          {
            "name": "G5",
            "midi": 79,
            "time": 4.875,
            "velocity": 0.7086614173228346,
            "duration": 1,
            "frequency": 783.9908719634986,
            "pitch": 76,
            "startTime": 4.875,
            "endTime": 5.875
          },
          {
            "name": "E5",
            "midi": 76,
            "time": 5.875,
            "velocity": 0.7086614173228346,
            "duration": 1,
            "frequency": 659.2551138257398,
            "pitch": 76,
            "startTime": 5.875,
            "endTime": 6.875
          },
          {
            "name": "G5",
            "midi": 79,
            "time": 6.875,
            "velocity": 0.7086614173228346,
            "duration": 0.5,
            "frequency": 783.9908719634986,
            "pitch": 76,
            "startTime": 6.875,
            "endTime": 7.375
          },
          {
            "name": "E5",
            "midi": 76,
            "time": 7.375,
            "velocity": 0.7086614173228346,
            "duration": 0.25,
            "frequency": 659.2551138257398,
            "pitch": 76,
            "startTime": 7.375,
            "endTime": 7.625
          }
        ],
        "controlChanges": {},
        "id": 0,
        "channelNumber": 0,
        "isPercussion": false
      }
    ]
  },
  "picea pungens_keyboard": {
    "header": {
      "PPQ": 128,
      "bpm": 120,
      "name": ""
    },
    "startTime": 0,
    "duration": 1.625,
    "tracks": [
      {
        "startTime": 0,
        "duration": 1.625,
        "length": 13,
        "notes": [
          {
            "name": "D6",
            "midi": 86,
            "time": 0,
            "velocity": 0.7086614173228346,
            "duration": 0.125,
            "frequency": 1174.6590716696303,
            "pitch": 76,
            "startTime": 0,
            "endTime": 0.125
          },
          {
            "name": "F#5",
            "midi": 78,
            "time": 0.125,
            "velocity": 0.7086614173228346,
            "duration": 0.125,
            "frequency": 739.9888454232689,
            "pitch": 76,
            "startTime": 0.125,
            "endTime": 0.25
          },
          {
            "name": "B3",
            "midi": 59,
            "time": 0.25,
            "velocity": 0.7086614173228346,
            "duration": 0.125,
            "frequency": 246.9416506280621,
            "pitch": 59,
            "startTime": 0.25,
            "endTime": 0.375
          },
          {
            "name": "A3",
            "midi": 57,
            "time": 0.375,
            "velocity": 0.7086614173228346,
            "duration": 0.125,
            "frequency": 220,
            "pitch": 57,
            "startTime": 0.375,
            "endTime": 0.5
          },
          {
            "name": "D3",
            "midi": 50,
            "time": 0.5,
            "velocity": 0.7086614173228346,
            "duration": 0.125,
            "frequency": 146.8323839587038,
            "pitch": 50,
            "startTime": 0.5,
            "endTime": 0.625
          },
          {
            "name": "C4",
            "midi": 60,
            "time": 0.625,
            "velocity": 0.7086614173228346,
            "duration": 0.125,
            "frequency": 261.6255653005986,
            "pitch": 60,
            "startTime": 0.625,
            "endTime": 0.75
          },
          {
            "name": "D6",
            "midi": 86,
            "time": 0.75,
            "velocity": 0.7086614173228346,
            "duration": 0.125,
            "frequency": 1174.6590716696303,
            "pitch": 76,
            "startTime": 0.75,
            "endTime": 0.875
          },
          {
            "name": "D5",
            "midi": 74,
            "time": 0.875,
            "velocity": 0.7086614173228346,
            "duration": 0.125,
            "frequency": 587.3295358348151,
            "pitch": 74,
            "startTime": 0.875,
            "endTime": 1
          },
          {
            "name": "C5",
            "midi": 72,
            "time": 1,
            "velocity": 0.7086614173228346,
            "duration": 0.125,
            "frequency": 523.2511306011972,
            "pitch": 72,
            "startTime": 1,
            "endTime": 1.125
          },
          {
            "name": "G4",
            "midi": 67,
            "time": 1.125,
            "velocity": 0.7086614173228346,
            "duration": 0.125,
            "frequency": 391.99543598174927,
            "pitch": 67,
            "startTime": 1.125,
            "endTime": 1.25
          },
          {
            "name": "A3",
            "midi": 57,
            "time": 1.25,
            "velocity": 0.7086614173228346,
            "duration": 0.125,
            "frequency": 220,
            "pitch": 57,
            "startTime": 1.25,
            "endTime": 1.375
          },
          {
            "name": "C5",
            "midi": 72,
            "time": 1.375,
            "velocity": 0.7086614173228346,
            "duration": 0.125,
            "frequency": 523.2511306011972,
            "pitch": 72,
            "startTime": 1.375,
            "endTime": 1.5
          },
          {
            "name": "F#3",
            "midi": 54,
            "time": 1.5,
            "velocity": 0.7086614173228346,
            "duration": 0.125,
            "frequency": 184.99721135581723,
            "pitch": 54,
            "startTime": 1.5,
            "endTime": 1.625
          }
        ],
        "controlChanges": {},
        "id": 0,
        "channelNumber": 0,
        "isPercussion": false
      }
    ]
  },
  "picea pungens_chords": {
    "header": {
      "PPQ": 128,
      "bpm": 120,
      "name": ""
    },
    "startTime": 0,
    "duration": 1,
    "tracks": [
      {
        "startTime": 0,
        "duration": 1,
        "length": 12,
        "notes": [
          {
            "name": "F3",
            "midi": 53,
            "time": 0,
            "velocity": 0.7086614173228346,
            "duration": 0.5,
            "frequency": 174.61411571650194,
            "pitch": 53,
            "startTime": 0,
            "endTime": 0.5
          },
          {
            "name": "F#3",
            "midi": 54,
            "time": 0,
            "velocity": 0.7086614173228346,
            "duration": 0.5,
            "frequency": 184.99721135581723,
            "pitch": 54,
            "startTime": 0,
            "endTime": 0.5
          },
          {
            "name": "C4",
            "midi": 60,
            "time": 0,
            "velocity": 0.7086614173228346,
            "duration": 0.5,
            "frequency": 261.6255653005986,
            "pitch": 60,
            "startTime": 0,
            "endTime": 0.5
          },
          {
            "name": "D#4",
            "midi": 63,
            "time": 0,
            "velocity": 0.7086614173228346,
            "duration": 0.5,
            "frequency": 311.12698372208087,
            "pitch": 63,
            "startTime": 0,
            "endTime": 0.5
          },
          {
            "name": "C#5",
            "midi": 73,
            "time": 0,
            "velocity": 0.7086614173228346,
            "duration": 0.5,
            "frequency": 554.3652619537442,
            "pitch": 73,
            "startTime": 0,
            "endTime": 0.5
          },
          {
            "name": "F3",
            "midi": 53,
            "time": 0.5,
            "velocity": 0.7086614173228346,
            "duration": 0.5,
            "frequency": 174.61411571650194,
            "pitch": 53,
            "startTime": 0.5,
            "endTime": 1
          },
          {
            "name": "A#3",
            "midi": 58,
            "time": 0.5,
            "velocity": 0.7086614173228346,
            "duration": 0.5,
            "frequency": 233.08188075904496,
            "pitch": 58,
            "startTime": 0.5,
            "endTime": 1
          },
          {
            "name": "F4",
            "midi": 65,
            "time": 0.5,
            "velocity": 0.7086614173228346,
            "duration": 0.5,
            "frequency": 349.2282314330039,
            "pitch": 65,
            "startTime": 0.5,
            "endTime": 1
          },
          {
            "name": "D5",
            "midi": 74,
            "time": 0.5,
            "velocity": 0.7086614173228346,
            "duration": 0.5,
            "frequency": 587.3295358348151,
            "pitch": 74,
            "startTime": 0.5,
            "endTime": 1
          },
          {
            "name": "D#5",
            "midi": 75,
            "time": 0.5,
            "velocity": 0.7086614173228346,
            "duration": 0.5,
            "frequency": 622.2539674441618,
            "pitch": 75,
            "startTime": 0.5,
            "endTime": 1
          },
          {
            "name": "F5",
            "midi": 77,
            "time": 0.5,
            "velocity": 0.7086614173228346,
            "duration": 0.5,
            "frequency": 698.4564628660078,
            "pitch": 76,
            "startTime": 0.5,
            "endTime": 1
          },
          {
            "name": "G5",
            "midi": 79,
            "time": 0.5,
            "velocity": 0.7086614173228346,
            "duration": 0.5,
            "frequency": 783.9908719634986,
            "pitch": 76,
            "startTime": 0.5,
            "endTime": 1
          }
        ],
        "controlChanges": {},
        "id": 0,
        "channelNumber": 0,
        "isPercussion": false
      }
    ]
  },
  "pinus contorta_french": {
    "header": {
      "PPQ": 128,
      "bpm": 120,
      "name": ""
    },
    "startTime": 0,
    "duration": 5.625,
    "tracks": [
      {
        "startTime": 0,
        "duration": 5.625,
        "length": 14,
        "notes": [
          {
            "name": "B4",
            "midi": 71,
            "time": 0,
            "velocity": 0.7086614173228346,
            "duration": 0.25,
            "frequency": 493.8833012561242,
            "pitch": 71,
            "startTime": 0,
            "endTime": 0.25
          },
          {
            "name": "B4",
            "midi": 71,
            "time": 0.25,
            "velocity": 0.7086614173228346,
            "duration": 0.5,
            "frequency": 493.8833012561242,
            "pitch": 71,
            "startTime": 0.25,
            "endTime": 0.75
          },
          {
            "name": "G4",
            "midi": 67,
            "time": 0.75,
            "velocity": 0.7086614173228346,
            "duration": 0.5,
            "frequency": 391.99543598174927,
            "pitch": 67,
            "startTime": 0.75,
            "endTime": 1.25
          },
          {
            "name": "G4",
            "midi": 67,
            "time": 1.25,
            "velocity": 0.7086614173228346,
            "duration": 0.25,
            "frequency": 391.99543598174927,
            "pitch": 67,
            "startTime": 1.25,
            "endTime": 1.5
          },
          {
            "name": "E4",
            "midi": 64,
            "time": 1.5,
            "velocity": 0.7086614173228346,
            "duration": 0.25,
            "frequency": 329.6275569128699,
            "pitch": 64,
            "startTime": 1.5,
            "endTime": 1.75
          },
          {
            "name": "G4",
            "midi": 67,
            "time": 1.75,
            "velocity": 0.7086614173228346,
            "duration": 0.125,
            "frequency": 391.99543598174927,
            "pitch": 67,
            "startTime": 1.75,
            "endTime": 1.875
          },
          {
            "name": "C5",
            "midi": 72,
            "time": 1.875,
            "velocity": 0.7086614173228346,
            "duration": 1,
            "frequency": 523.2511306011972,
            "pitch": 72,
            "startTime": 1.875,
            "endTime": 2.875
          },
          {
            "name": "A4",
            "midi": 69,
            "time": 2.875,
            "velocity": 0.7086614173228346,
            "duration": 0.25,
            "frequency": 440,
            "pitch": 69,
            "startTime": 2.875,
            "endTime": 3.125
          },
          {
            "name": "G4",
            "midi": 67,
            "time": 3.125,
            "velocity": 0.7086614173228346,
            "duration": 0.5,
            "frequency": 391.99543598174927,
            "pitch": 67,
            "startTime": 3.125,
            "endTime": 3.625
          },
          {
            "name": "F4",
            "midi": 65,
            "time": 3.625,
            "velocity": 0.7086614173228346,
            "duration": 0.25,
            "frequency": 349.2282314330039,
            "pitch": 65,
            "startTime": 3.625,
            "endTime": 3.875
          },
          {
            "name": "A4",
            "midi": 69,
            "time": 3.875,
            "velocity": 0.7086614173228346,
            "duration": 0.25,
            "frequency": 440,
            "pitch": 69,
            "startTime": 3.875,
            "endTime": 4.125
          },
          {
            "name": "D5",
            "midi": 74,
            "time": 4.125,
            "velocity": 0.7086614173228346,
            "duration": 0.25,
            "frequency": 587.3295358348151,
            "pitch": 74,
            "startTime": 4.125,
            "endTime": 4.375
          },
          {
            "name": "F5",
            "midi": 77,
            "time": 4.375,
            "velocity": 0.7086614173228346,
            "duration": 0.25,
            "frequency": 698.4564628660078,
            "pitch": 76,
            "startTime": 4.375,
            "endTime": 4.625
          },
          {
            "name": "A5",
            "midi": 81,
            "time": 4.625,
            "velocity": 0.7086614173228346,
            "duration": 1,
            "frequency": 880,
            "pitch": 76,
            "startTime": 4.625,
            "endTime": 5.625
          }
        ],
        "controlChanges": {},
        "id": 0,
        "channelNumber": 0,
        "isPercussion": false
      }
    ]
  },
  "pinus contorta_keyboard": {
    "header": {
      "PPQ": 128,
      "bpm": 120,
      "name": ""
    },
    "startTime": 0,
    "duration": 1.75,
    "tracks": [
      {
        "startTime": 0,
        "duration": 1.75,
        "length": 14,
        "notes": [
          {
            "name": "D6",
            "midi": 86,
            "time": 0,
            "velocity": 0.7086614173228346,
            "duration": 0.125,
            "frequency": 1174.6590716696303,
            "pitch": 76,
            "startTime": 0,
            "endTime": 0.125
          },
          {
            "name": "F#5",
            "midi": 78,
            "time": 0.125,
            "velocity": 0.7086614173228346,
            "duration": 0.125,
            "frequency": 739.9888454232689,
            "pitch": 76,
            "startTime": 0.125,
            "endTime": 0.25
          },
          {
            "name": "C5",
            "midi": 72,
            "time": 0.25,
            "velocity": 0.7086614173228346,
            "duration": 0.125,
            "frequency": 523.2511306011972,
            "pitch": 72,
            "startTime": 0.25,
            "endTime": 0.375
          },
          {
            "name": "D5",
            "midi": 74,
            "time": 0.375,
            "velocity": 0.7086614173228346,
            "duration": 0.125,
            "frequency": 587.3295358348151,
            "pitch": 74,
            "startTime": 0.375,
            "endTime": 0.5
          },
          {
            "name": "F#3",
            "midi": 54,
            "time": 0.5,
            "velocity": 0.7086614173228346,
            "duration": 0.125,
            "frequency": 184.99721135581723,
            "pitch": 54,
            "startTime": 0.5,
            "endTime": 0.625
          },
          {
            "name": "C4",
            "midi": 60,
            "time": 0.625,
            "velocity": 0.7086614173228346,
            "duration": 0.125,
            "frequency": 261.6255653005986,
            "pitch": 60,
            "startTime": 0.625,
            "endTime": 0.75
          },
          {
            "name": "B3",
            "midi": 59,
            "time": 0.75,
            "velocity": 0.7086614173228346,
            "duration": 0.125,
            "frequency": 246.9416506280621,
            "pitch": 59,
            "startTime": 0.75,
            "endTime": 0.875
          },
          {
            "name": "A#5",
            "midi": 82,
            "time": 0.875,
            "velocity": 0.7086614173228346,
            "duration": 0.125,
            "frequency": 932.3275230361799,
            "pitch": 76,
            "startTime": 0.875,
            "endTime": 1
          },
          {
            "name": "C5",
            "midi": 72,
            "time": 1,
            "velocity": 0.7086614173228346,
            "duration": 0.125,
            "frequency": 523.2511306011972,
            "pitch": 72,
            "startTime": 1,
            "endTime": 1.125
          },
          {
            "name": "F#4",
            "midi": 66,
            "time": 1.125,
            "velocity": 0.7086614173228346,
            "duration": 0.125,
            "frequency": 369.99442271163446,
            "pitch": 66,
            "startTime": 1.125,
            "endTime": 1.25
          },
          {
            "name": "A#5",
            "midi": 82,
            "time": 1.25,
            "velocity": 0.7086614173228346,
            "duration": 0.125,
            "frequency": 932.3275230361799,
            "pitch": 76,
            "startTime": 1.25,
            "endTime": 1.375
          },
          {
            "name": "D4",
            "midi": 62,
            "time": 1.375,
            "velocity": 0.7086614173228346,
            "duration": 0.125,
            "frequency": 293.6647679174076,
            "pitch": 62,
            "startTime": 1.375,
            "endTime": 1.5
          },
          {
            "name": "F#4",
            "midi": 66,
            "time": 1.5,
            "velocity": 0.7086614173228346,
            "duration": 0.125,
            "frequency": 369.99442271163446,
            "pitch": 66,
            "startTime": 1.5,
            "endTime": 1.625
          },
          {
            "name": "D3",
            "midi": 50,
            "time": 1.625,
            "velocity": 0.7086614173228346,
            "duration": 0.125,
            "frequency": 146.8323839587038,
            "pitch": 50,
            "startTime": 1.625,
            "endTime": 1.75
          }
        ],
        "controlChanges": {},
        "id": 0,
        "channelNumber": 0,
        "isPercussion": false
      }
    ]
  },
  "pinus contorta_chords": {
    "header": {
      "PPQ": 128,
      "bpm": 120,
      "name": ""
    },
    "startTime": 0,
    "duration": 1,
    "tracks": [
      {
        "startTime": 0,
        "duration": 1,
        "length": 13,
        "notes": [
          {
            "name": "F3",
            "midi": 53,
            "time": 0,
            "velocity": 0.7086614173228346,
            "duration": 0.5,
            "frequency": 174.61411571650194,
            "pitch": 53,
            "startTime": 0,
            "endTime": 0.5
          },
          {
            "name": "F#3",
            "midi": 54,
            "time": 0,
            "velocity": 0.7086614173228346,
            "duration": 0.5,
            "frequency": 184.99721135581723,
            "pitch": 54,
            "startTime": 0,
            "endTime": 0.5
          },
          {
            "name": "F4",
            "midi": 65,
            "time": 0,
            "velocity": 0.7086614173228346,
            "duration": 0.5,
            "frequency": 349.2282314330039,
            "pitch": 65,
            "startTime": 0,
            "endTime": 0.5
          },
          {
            "name": "A#4",
            "midi": 70,
            "time": 0,
            "velocity": 0.7086614173228346,
            "duration": 0.5,
            "frequency": 466.1637615180899,
            "pitch": 70,
            "startTime": 0,
            "endTime": 0.5
          },
          {
            "name": "G5",
            "midi": 79,
            "time": 0,
            "velocity": 0.7086614173228346,
            "duration": 0.5,
            "frequency": 783.9908719634986,
            "pitch": 76,
            "startTime": 0,
            "endTime": 0.5
          },
          {
            "name": "C3",
            "midi": 48,
            "time": 0.5,
            "velocity": 0.7086614173228346,
            "duration": 0.5,
            "frequency": 130.8127826502993,
            "pitch": 48,
            "startTime": 0.5,
            "endTime": 1
          },
          {
            "name": "G#3",
            "midi": 56,
            "time": 0.5,
            "velocity": 0.7086614173228346,
            "duration": 0.5,
            "frequency": 207.65234878997256,
            "pitch": 56,
            "startTime": 0.5,
            "endTime": 1
          },
          {
            "name": "F4",
            "midi": 65,
            "time": 0.5,
            "velocity": 0.7086614173228346,
            "duration": 0.5,
            "frequency": 349.2282314330039,
            "pitch": 65,
            "startTime": 0.5,
            "endTime": 1
          },
          {
            "name": "A4",
            "midi": 69,
            "time": 0.5,
            "velocity": 0.7086614173228346,
            "duration": 0.5,
            "frequency": 440,
            "pitch": 69,
            "startTime": 0.5,
            "endTime": 1
          },
          {
            "name": "G#5",
            "midi": 80,
            "time": 0.5,
            "velocity": 0.7086614173228346,
            "duration": 0.5,
            "frequency": 830.6093951598903,
            "pitch": 76,
            "startTime": 0.5,
            "endTime": 1
          },
          {
            "name": "G6",
            "midi": 91,
            "time": 0.5,
            "velocity": 0.7086614173228346,
            "duration": 0.5,
            "frequency": 1567.981743926997,
            "pitch": 76,
            "startTime": 0.5,
            "endTime": 1
          },
          {
            "name": "A6",
            "midi": 93,
            "time": 0.5,
            "velocity": 0.7086614173228346,
            "duration": 0.5,
            "frequency": 1760,
            "pitch": 76,
            "startTime": 0.5,
            "endTime": 1
          },
          {
            "name": "C#7",
            "midi": 97,
            "time": 0.5,
            "velocity": 0.7086614173228346,
            "duration": 0.5,
            "frequency": 2217.461047814977,
            "pitch": 76,
            "startTime": 0.5,
            "endTime": 1
          }
        ],
        "controlChanges": {},
        "id": 0,
        "channelNumber": 0,
        "isPercussion": false
      }
    ]
  },
  "pinus nigra_french": {
    "header": {
      "PPQ": 128,
      "bpm": 120,
      "name": ""
    },
    "startTime": 0,
    "duration": 5.125,
    "tracks": [
      {
        "startTime": 0,
        "duration": 5.125,
        "length": 11,
        "notes": [
          {
            "name": "B4",
            "midi": 71,
            "time": 0,
            "velocity": 0.7086614173228346,
            "duration": 0.25,
            "frequency": 493.8833012561242,
            "pitch": 71,
            "startTime": 0,
            "endTime": 0.25
          },
          {
            "name": "B4",
            "midi": 71,
            "time": 0.25,
            "velocity": 0.7086614173228346,
            "duration": 0.5,
            "frequency": 493.8833012561242,
            "pitch": 71,
            "startTime": 0.25,
            "endTime": 0.75
          },
          {
            "name": "G4",
            "midi": 67,
            "time": 0.75,
            "velocity": 0.7086614173228346,
            "duration": 0.5,
            "frequency": 391.99543598174927,
            "pitch": 67,
            "startTime": 0.75,
            "endTime": 1.25
          },
          {
            "name": "G4",
            "midi": 67,
            "time": 1.25,
            "velocity": 0.7086614173228346,
            "duration": 0.25,
            "frequency": 391.99543598174927,
            "pitch": 67,
            "startTime": 1.25,
            "endTime": 1.5
          },
          {
            "name": "E4",
            "midi": 64,
            "time": 1.5,
            "velocity": 0.7086614173228346,
            "duration": 0.25,
            "frequency": 329.6275569128699,
            "pitch": 64,
            "startTime": 1.5,
            "endTime": 1.75
          },
          {
            "name": "G4",
            "midi": 67,
            "time": 1.75,
            "velocity": 0.7086614173228346,
            "duration": 0.125,
            "frequency": 391.99543598174927,
            "pitch": 67,
            "startTime": 1.75,
            "endTime": 1.875
          },
          {
            "name": "G4",
            "midi": 67,
            "time": 1.875,
            "velocity": 0.7086614173228346,
            "duration": 0.5,
            "frequency": 391.99543598174927,
            "pitch": 67,
            "startTime": 1.875,
            "endTime": 2.375
          },
          {
            "name": "B4",
            "midi": 71,
            "time": 2.375,
            "velocity": 0.7086614173228346,
            "duration": 0.5,
            "frequency": 493.8833012561242,
            "pitch": 71,
            "startTime": 2.375,
            "endTime": 2.875
          },
          {
            "name": "G4",
            "midi": 67,
            "time": 2.875,
            "velocity": 0.7086614173228346,
            "duration": 1,
            "frequency": 391.99543598174927,
            "pitch": 67,
            "startTime": 2.875,
            "endTime": 3.875
          },
          {
            "name": "D4",
            "midi": 62,
            "time": 3.875,
            "velocity": 0.7086614173228346,
            "duration": 0.25,
            "frequency": 293.6647679174076,
            "pitch": 62,
            "startTime": 3.875,
            "endTime": 4.125
          },
          {
            "name": "A3",
            "midi": 57,
            "time": 4.125,
            "velocity": 0.7086614173228346,
            "duration": 1,
            "frequency": 220,
            "pitch": 57,
            "startTime": 4.125,
            "endTime": 5.125
          }
        ],
        "controlChanges": {},
        "id": 0,
        "channelNumber": 0,
        "isPercussion": false
      }
    ]
  },
  "pinus nigra_keyboard": {
    "header": {
      "PPQ": 128,
      "bpm": 120,
      "name": ""
    },
    "startTime": 0,
    "duration": 1.375,
    "tracks": [
      {
        "startTime": 0,
        "duration": 1.375,
        "length": 11,
        "notes": [
          {
            "name": "D6",
            "midi": 86,
            "time": 0,
            "velocity": 0.7086614173228346,
            "duration": 0.125,
            "frequency": 1174.6590716696303,
            "pitch": 76,
            "startTime": 0,
            "endTime": 0.125
          },
          {
            "name": "F#5",
            "midi": 78,
            "time": 0.125,
            "velocity": 0.7086614173228346,
            "duration": 0.125,
            "frequency": 739.9888454232689,
            "pitch": 76,
            "startTime": 0.125,
            "endTime": 0.25
          },
          {
            "name": "C5",
            "midi": 72,
            "time": 0.25,
            "velocity": 0.7086614173228346,
            "duration": 0.125,
            "frequency": 523.2511306011972,
            "pitch": 72,
            "startTime": 0.25,
            "endTime": 0.375
          },
          {
            "name": "D5",
            "midi": 74,
            "time": 0.375,
            "velocity": 0.7086614173228346,
            "duration": 0.125,
            "frequency": 587.3295358348151,
            "pitch": 74,
            "startTime": 0.375,
            "endTime": 0.5
          },
          {
            "name": "F#3",
            "midi": 54,
            "time": 0.5,
            "velocity": 0.7086614173228346,
            "duration": 0.125,
            "frequency": 184.99721135581723,
            "pitch": 54,
            "startTime": 0.5,
            "endTime": 0.625
          },
          {
            "name": "C4",
            "midi": 60,
            "time": 0.625,
            "velocity": 0.7086614173228346,
            "duration": 0.125,
            "frequency": 261.6255653005986,
            "pitch": 60,
            "startTime": 0.625,
            "endTime": 0.75
          },
          {
            "name": "C5",
            "midi": 72,
            "time": 0.75,
            "velocity": 0.7086614173228346,
            "duration": 0.125,
            "frequency": 523.2511306011972,
            "pitch": 72,
            "startTime": 0.75,
            "endTime": 0.875
          },
          {
            "name": "F#5",
            "midi": 78,
            "time": 0.875,
            "velocity": 0.7086614173228346,
            "duration": 0.125,
            "frequency": 739.9888454232689,
            "pitch": 76,
            "startTime": 0.875,
            "endTime": 1
          },
          {
            "name": "G4",
            "midi": 67,
            "time": 1,
            "velocity": 0.7086614173228346,
            "duration": 0.125,
            "frequency": 391.99543598174927,
            "pitch": 67,
            "startTime": 1,
            "endTime": 1.125
          },
          {
            "name": "D4",
            "midi": 62,
            "time": 1.125,
            "velocity": 0.7086614173228346,
            "duration": 0.125,
            "frequency": 293.6647679174076,
            "pitch": 62,
            "startTime": 1.125,
            "endTime": 1.25
          },
          {
            "name": "D3",
            "midi": 50,
            "time": 1.25,
            "velocity": 0.7086614173228346,
            "duration": 0.125,
            "frequency": 146.8323839587038,
            "pitch": 50,
            "startTime": 1.25,
            "endTime": 1.375
          }
        ],
        "controlChanges": {},
        "id": 0,
        "channelNumber": 0,
        "isPercussion": false
      }
    ]
  },
  "pinus nigra_chords": {
    "header": {
      "PPQ": 128,
      "bpm": 120,
      "name": ""
    },
    "startTime": 0,
    "duration": 1,
    "tracks": [
      {
        "startTime": 0,
        "duration": 1,
        "length": 10,
        "notes": [
          {
            "name": "F3",
            "midi": 53,
            "time": 0,
            "velocity": 0.7086614173228346,
            "duration": 0.5,
            "frequency": 174.61411571650194,
            "pitch": 53,
            "startTime": 0,
            "endTime": 0.5
          },
          {
            "name": "F#3",
            "midi": 54,
            "time": 0,
            "velocity": 0.7086614173228346,
            "duration": 0.5,
            "frequency": 184.99721135581723,
            "pitch": 54,
            "startTime": 0,
            "endTime": 0.5
          },
          {
            "name": "F4",
            "midi": 65,
            "time": 0,
            "velocity": 0.7086614173228346,
            "duration": 0.5,
            "frequency": 349.2282314330039,
            "pitch": 65,
            "startTime": 0,
            "endTime": 0.5
          },
          {
            "name": "A#4",
            "midi": 70,
            "time": 0,
            "velocity": 0.7086614173228346,
            "duration": 0.5,
            "frequency": 466.1637615180899,
            "pitch": 70,
            "startTime": 0,
            "endTime": 0.5
          },
          {
            "name": "G5",
            "midi": 79,
            "time": 0,
            "velocity": 0.7086614173228346,
            "duration": 0.5,
            "frequency": 783.9908719634986,
            "pitch": 76,
            "startTime": 0,
            "endTime": 0.5
          },
          {
            "name": "F3",
            "midi": 53,
            "time": 0.5,
            "velocity": 0.7086614173228346,
            "duration": 0.5,
            "frequency": 174.61411571650194,
            "pitch": 53,
            "startTime": 0.5,
            "endTime": 1
          },
          {
            "name": "F#3",
            "midi": 54,
            "time": 0.5,
            "velocity": 0.7086614173228346,
            "duration": 0.5,
            "frequency": 184.99721135581723,
            "pitch": 54,
            "startTime": 0.5,
            "endTime": 1
          },
          {
            "name": "D4",
            "midi": 62,
            "time": 0.5,
            "velocity": 0.7086614173228346,
            "duration": 0.5,
            "frequency": 293.6647679174076,
            "pitch": 62,
            "startTime": 0.5,
            "endTime": 1
          },
          {
            "name": "G4",
            "midi": 67,
            "time": 0.5,
            "velocity": 0.7086614173228346,
            "duration": 0.5,
            "frequency": 391.99543598174927,
            "pitch": 67,
            "startTime": 0.5,
            "endTime": 1
          },
          {
            "name": "C#5",
            "midi": 73,
            "time": 0.5,
            "velocity": 0.7086614173228346,
            "duration": 0.5,
            "frequency": 554.3652619537442,
            "pitch": 73,
            "startTime": 0.5,
            "endTime": 1
          }
        ],
        "controlChanges": {},
        "id": 0,
        "channelNumber": 0,
        "isPercussion": false
      }
    ]
  },
  "pinus radiata_french": {
    "header": {
      "PPQ": 128,
      "bpm": 120,
      "name": ""
    },
    "startTime": 0,
    "duration": 6.875,
    "tracks": [
      {
        "startTime": 0,
        "duration": 6.875,
        "length": 13,
        "notes": [
          {
            "name": "B4",
            "midi": 71,
            "time": 0,
            "velocity": 0.7086614173228346,
            "duration": 0.25,
            "frequency": 493.8833012561242,
            "pitch": 71,
            "startTime": 0,
            "endTime": 0.25
          },
          {
            "name": "B4",
            "midi": 71,
            "time": 0.25,
            "velocity": 0.7086614173228346,
            "duration": 0.5,
            "frequency": 493.8833012561242,
            "pitch": 71,
            "startTime": 0.25,
            "endTime": 0.75
          },
          {
            "name": "G4",
            "midi": 67,
            "time": 0.75,
            "velocity": 0.7086614173228346,
            "duration": 0.5,
            "frequency": 391.99543598174927,
            "pitch": 67,
            "startTime": 0.75,
            "endTime": 1.25
          },
          {
            "name": "G4",
            "midi": 67,
            "time": 1.25,
            "velocity": 0.7086614173228346,
            "duration": 0.25,
            "frequency": 391.99543598174927,
            "pitch": 67,
            "startTime": 1.25,
            "endTime": 1.5
          },
          {
            "name": "E4",
            "midi": 64,
            "time": 1.5,
            "velocity": 0.7086614173228346,
            "duration": 0.25,
            "frequency": 329.6275569128699,
            "pitch": 64,
            "startTime": 1.5,
            "endTime": 1.75
          },
          {
            "name": "G4",
            "midi": 67,
            "time": 1.75,
            "velocity": 0.7086614173228346,
            "duration": 0.125,
            "frequency": 391.99543598174927,
            "pitch": 67,
            "startTime": 1.75,
            "endTime": 1.875
          },
          {
            "name": "D4",
            "midi": 62,
            "time": 1.875,
            "velocity": 0.7086614173228346,
            "duration": 0.25,
            "frequency": 293.6647679174076,
            "pitch": 62,
            "startTime": 1.875,
            "endTime": 2.125
          },
          {
            "name": "A3",
            "midi": 57,
            "time": 2.125,
            "velocity": 0.7086614173228346,
            "duration": 1,
            "frequency": 220,
            "pitch": 57,
            "startTime": 2.125,
            "endTime": 3.125
          },
          {
            "name": "D4",
            "midi": 62,
            "time": 3.125,
            "velocity": 0.7086614173228346,
            "duration": 1,
            "frequency": 293.6647679174076,
            "pitch": 62,
            "startTime": 3.125,
            "endTime": 4.125
          },
          {
            "name": "B3",
            "midi": 59,
            "time": 4.125,
            "velocity": 0.7086614173228346,
            "duration": 0.5,
            "frequency": 246.9416506280621,
            "pitch": 59,
            "startTime": 4.125,
            "endTime": 4.625
          },
          {
            "name": "A3",
            "midi": 57,
            "time": 4.625,
            "velocity": 0.7086614173228346,
            "duration": 1,
            "frequency": 220,
            "pitch": 57,
            "startTime": 4.625,
            "endTime": 5.625
          },
          {
            "name": "F3",
            "midi": 53,
            "time": 5.625,
            "velocity": 0.7086614173228346,
            "duration": 0.25,
            "frequency": 174.61411571650194,
            "pitch": 53,
            "startTime": 5.625,
            "endTime": 5.875
          },
          {
            "name": "A3",
            "midi": 57,
            "time": 5.875,
            "velocity": 0.7086614173228346,
            "duration": 1,
            "frequency": 220,
            "pitch": 57,
            "startTime": 5.875,
            "endTime": 6.875
          }
        ],
        "controlChanges": {},
        "id": 0,
        "channelNumber": 0,
        "isPercussion": false
      }
    ]
  },
  "pinus radiata_keyboard": {
    "header": {
      "PPQ": 128,
      "bpm": 120,
      "name": ""
    },
    "startTime": 0,
    "duration": 1.625,
    "tracks": [
      {
        "startTime": 0,
        "duration": 1.625,
        "length": 13,
        "notes": [
          {
            "name": "D6",
            "midi": 86,
            "time": 0,
            "velocity": 0.7086614173228346,
            "duration": 0.125,
            "frequency": 1174.6590716696303,
            "pitch": 76,
            "startTime": 0,
            "endTime": 0.125
          },
          {
            "name": "F#5",
            "midi": 78,
            "time": 0.125,
            "velocity": 0.7086614173228346,
            "duration": 0.125,
            "frequency": 739.9888454232689,
            "pitch": 76,
            "startTime": 0.125,
            "endTime": 0.25
          },
          {
            "name": "C5",
            "midi": 72,
            "time": 0.25,
            "velocity": 0.7086614173228346,
            "duration": 0.125,
            "frequency": 523.2511306011972,
            "pitch": 72,
            "startTime": 0.25,
            "endTime": 0.375
          },
          {
            "name": "D5",
            "midi": 74,
            "time": 0.375,
            "velocity": 0.7086614173228346,
            "duration": 0.125,
            "frequency": 587.3295358348151,
            "pitch": 74,
            "startTime": 0.375,
            "endTime": 0.5
          },
          {
            "name": "F#3",
            "midi": 54,
            "time": 0.5,
            "velocity": 0.7086614173228346,
            "duration": 0.125,
            "frequency": 184.99721135581723,
            "pitch": 54,
            "startTime": 0.5,
            "endTime": 0.625
          },
          {
            "name": "C4",
            "midi": 60,
            "time": 0.625,
            "velocity": 0.7086614173228346,
            "duration": 0.125,
            "frequency": 261.6255653005986,
            "pitch": 60,
            "startTime": 0.625,
            "endTime": 0.75
          },
          {
            "name": "D4",
            "midi": 62,
            "time": 0.75,
            "velocity": 0.7086614173228346,
            "duration": 0.125,
            "frequency": 293.6647679174076,
            "pitch": 62,
            "startTime": 0.75,
            "endTime": 0.875
          },
          {
            "name": "D3",
            "midi": 50,
            "time": 0.875,
            "velocity": 0.7086614173228346,
            "duration": 0.125,
            "frequency": 146.8323839587038,
            "pitch": 50,
            "startTime": 0.875,
            "endTime": 1
          },
          {
            "name": "A#3",
            "midi": 58,
            "time": 1,
            "velocity": 0.7086614173228346,
            "duration": 0.125,
            "frequency": 233.08188075904496,
            "pitch": 58,
            "startTime": 1,
            "endTime": 1.125
          },
          {
            "name": "F#5",
            "midi": 78,
            "time": 1.125,
            "velocity": 0.7086614173228346,
            "duration": 0.125,
            "frequency": 739.9888454232689,
            "pitch": 76,
            "startTime": 1.125,
            "endTime": 1.25
          },
          {
            "name": "D3",
            "midi": 50,
            "time": 1.25,
            "velocity": 0.7086614173228346,
            "duration": 0.125,
            "frequency": 146.8323839587038,
            "pitch": 50,
            "startTime": 1.25,
            "endTime": 1.375
          },
          {
            "name": "F#4",
            "midi": 66,
            "time": 1.375,
            "velocity": 0.7086614173228346,
            "duration": 0.125,
            "frequency": 369.99442271163446,
            "pitch": 66,
            "startTime": 1.375,
            "endTime": 1.5
          },
          {
            "name": "D3",
            "midi": 50,
            "time": 1.5,
            "velocity": 0.7086614173228346,
            "duration": 0.125,
            "frequency": 146.8323839587038,
            "pitch": 50,
            "startTime": 1.5,
            "endTime": 1.625
          }
        ],
        "controlChanges": {},
        "id": 0,
        "channelNumber": 0,
        "isPercussion": false
      }
    ]
  },
  "pinus radiata_chords": {
    "header": {
      "PPQ": 128,
      "bpm": 120,
      "name": ""
    },
    "startTime": 0,
    "duration": 1,
    "tracks": [
      {
        "startTime": 0,
        "duration": 1,
        "length": 12,
        "notes": [
          {
            "name": "F3",
            "midi": 53,
            "time": 0,
            "velocity": 0.7086614173228346,
            "duration": 0.5,
            "frequency": 174.61411571650194,
            "pitch": 53,
            "startTime": 0,
            "endTime": 0.5
          },
          {
            "name": "F#3",
            "midi": 54,
            "time": 0,
            "velocity": 0.7086614173228346,
            "duration": 0.5,
            "frequency": 184.99721135581723,
            "pitch": 54,
            "startTime": 0,
            "endTime": 0.5
          },
          {
            "name": "F4",
            "midi": 65,
            "time": 0,
            "velocity": 0.7086614173228346,
            "duration": 0.5,
            "frequency": 349.2282314330039,
            "pitch": 65,
            "startTime": 0,
            "endTime": 0.5
          },
          {
            "name": "A#4",
            "midi": 70,
            "time": 0,
            "velocity": 0.7086614173228346,
            "duration": 0.5,
            "frequency": 466.1637615180899,
            "pitch": 70,
            "startTime": 0,
            "endTime": 0.5
          },
          {
            "name": "G5",
            "midi": 79,
            "time": 0,
            "velocity": 0.7086614173228346,
            "duration": 0.5,
            "frequency": 783.9908719634986,
            "pitch": 76,
            "startTime": 0,
            "endTime": 0.5
          },
          {
            "name": "G3",
            "midi": 55,
            "time": 0.5,
            "velocity": 0.7086614173228346,
            "duration": 0.5,
            "frequency": 195.99771799087463,
            "pitch": 55,
            "startTime": 0.5,
            "endTime": 1
          },
          {
            "name": "C#4",
            "midi": 61,
            "time": 0.5,
            "velocity": 0.7086614173228346,
            "duration": 0.5,
            "frequency": 277.1826309768721,
            "pitch": 61,
            "startTime": 0.5,
            "endTime": 1
          },
          {
            "name": "C5",
            "midi": 72,
            "time": 0.5,
            "velocity": 0.7086614173228346,
            "duration": 0.5,
            "frequency": 523.2511306011972,
            "pitch": 72,
            "startTime": 0.5,
            "endTime": 1
          },
          {
            "name": "F#5",
            "midi": 78,
            "time": 0.5,
            "velocity": 0.7086614173228346,
            "duration": 0.5,
            "frequency": 739.9888454232689,
            "pitch": 76,
            "startTime": 0.5,
            "endTime": 1
          },
          {
            "name": "C#6",
            "midi": 85,
            "time": 0.5,
            "velocity": 0.7086614173228346,
            "duration": 0.5,
            "frequency": 1108.7305239074883,
            "pitch": 76,
            "startTime": 0.5,
            "endTime": 1
          },
          {
            "name": "A6",
            "midi": 93,
            "time": 0.5,
            "velocity": 0.7086614173228346,
            "duration": 0.5,
            "frequency": 1760,
            "pitch": 76,
            "startTime": 0.5,
            "endTime": 1
          },
          {
            "name": "C#7",
            "midi": 97,
            "time": 0.5,
            "velocity": 0.7086614173228346,
            "duration": 0.5,
            "frequency": 2217.461047814977,
            "pitch": 76,
            "startTime": 0.5,
            "endTime": 1
          }
        ],
        "controlChanges": {},
        "id": 0,
        "channelNumber": 0,
        "isPercussion": false
      }
    ]
  },
  "pinus sylvestris_french": {
    "header": {
      "PPQ": 128,
      "bpm": 120,
      "name": ""
    },
    "startTime": 0,
    "duration": 5.375,
    "tracks": [
      {
        "startTime": 0,
        "duration": 5.375,
        "length": 16,
        "notes": [
          {
            "name": "B4",
            "midi": 71,
            "time": 0,
            "velocity": 0.7086614173228346,
            "duration": 0.25,
            "frequency": 493.8833012561242,
            "pitch": 71,
            "startTime": 0,
            "endTime": 0.25
          },
          {
            "name": "B4",
            "midi": 71,
            "time": 0.25,
            "velocity": 0.7086614173228346,
            "duration": 0.5,
            "frequency": 493.8833012561242,
            "pitch": 71,
            "startTime": 0.25,
            "endTime": 0.75
          },
          {
            "name": "G4",
            "midi": 67,
            "time": 0.75,
            "velocity": 0.7086614173228346,
            "duration": 0.5,
            "frequency": 391.99543598174927,
            "pitch": 67,
            "startTime": 0.75,
            "endTime": 1.25
          },
          {
            "name": "G4",
            "midi": 67,
            "time": 1.25,
            "velocity": 0.7086614173228346,
            "duration": 0.25,
            "frequency": 391.99543598174927,
            "pitch": 67,
            "startTime": 1.25,
            "endTime": 1.5
          },
          {
            "name": "E4",
            "midi": 64,
            "time": 1.5,
            "velocity": 0.7086614173228346,
            "duration": 0.25,
            "frequency": 329.6275569128699,
            "pitch": 64,
            "startTime": 1.5,
            "endTime": 1.75
          },
          {
            "name": "G4",
            "midi": 67,
            "time": 1.75,
            "velocity": 0.7086614173228346,
            "duration": 0.125,
            "frequency": 391.99543598174927,
            "pitch": 67,
            "startTime": 1.75,
            "endTime": 1.875
          },
          {
            "name": "E4",
            "midi": 64,
            "time": 1.875,
            "velocity": 0.7086614173228346,
            "duration": 0.25,
            "frequency": 329.6275569128699,
            "pitch": 64,
            "startTime": 1.875,
            "endTime": 2.125
          },
          {
            "name": "D4",
            "midi": 62,
            "time": 2.125,
            "velocity": 0.7086614173228346,
            "duration": 0.125,
            "frequency": 293.6647679174076,
            "pitch": 62,
            "startTime": 2.125,
            "endTime": 2.25
          },
          {
            "name": "E4",
            "midi": 64,
            "time": 2.25,
            "velocity": 0.7086614173228346,
            "duration": 0.5,
            "frequency": 329.6275569128699,
            "pitch": 64,
            "startTime": 2.25,
            "endTime": 2.75
          },
          {
            "name": "A4",
            "midi": 69,
            "time": 2.75,
            "velocity": 0.7086614173228346,
            "duration": 0.125,
            "frequency": 440,
            "pitch": 69,
            "startTime": 2.75,
            "endTime": 2.875
          },
          {
            "name": "E4",
            "midi": 64,
            "time": 2.875,
            "velocity": 0.7086614173228346,
            "duration": 1,
            "frequency": 329.6275569128699,
            "pitch": 64,
            "startTime": 2.875,
            "endTime": 3.875
          },
          {
            "name": "E4",
            "midi": 64,
            "time": 3.875,
            "velocity": 0.7086614173228346,
            "duration": 0.25,
            "frequency": 329.6275569128699,
            "pitch": 64,
            "startTime": 3.875,
            "endTime": 4.125
          },
          {
            "name": "F4",
            "midi": 65,
            "time": 4.125,
            "velocity": 0.7086614173228346,
            "duration": 0.25,
            "frequency": 349.2282314330039,
            "pitch": 65,
            "startTime": 4.125,
            "endTime": 4.375
          },
          {
            "name": "D4",
            "midi": 62,
            "time": 4.375,
            "velocity": 0.7086614173228346,
            "duration": 0.25,
            "frequency": 293.6647679174076,
            "pitch": 62,
            "startTime": 4.375,
            "endTime": 4.625
          },
          {
            "name": "B3",
            "midi": 59,
            "time": 4.625,
            "velocity": 0.7086614173228346,
            "duration": 0.5,
            "frequency": 246.9416506280621,
            "pitch": 59,
            "startTime": 4.625,
            "endTime": 5.125
          },
          {
            "name": "E4",
            "midi": 64,
            "time": 5.125,
            "velocity": 0.7086614173228346,
            "duration": 0.25,
            "frequency": 329.6275569128699,
            "pitch": 64,
            "startTime": 5.125,
            "endTime": 5.375
          }
        ],
        "controlChanges": {},
        "id": 0,
        "channelNumber": 0,
        "isPercussion": false
      }
    ]
  },
  "pinus sylvestris_keyboard": {
    "header": {
      "PPQ": 128,
      "bpm": 120,
      "name": ""
    },
    "startTime": 0,
    "duration": 2,
    "tracks": [
      {
        "startTime": 0,
        "duration": 2,
        "length": 16,
        "notes": [
          {
            "name": "D6",
            "midi": 86,
            "time": 0,
            "velocity": 0.7086614173228346,
            "duration": 0.125,
            "frequency": 1174.6590716696303,
            "pitch": 76,
            "startTime": 0,
            "endTime": 0.125
          },
          {
            "name": "F#5",
            "midi": 78,
            "time": 0.125,
            "velocity": 0.7086614173228346,
            "duration": 0.125,
            "frequency": 739.9888454232689,
            "pitch": 76,
            "startTime": 0.125,
            "endTime": 0.25
          },
          {
            "name": "C5",
            "midi": 72,
            "time": 0.25,
            "velocity": 0.7086614173228346,
            "duration": 0.125,
            "frequency": 523.2511306011972,
            "pitch": 72,
            "startTime": 0.25,
            "endTime": 0.375
          },
          {
            "name": "D5",
            "midi": 74,
            "time": 0.375,
            "velocity": 0.7086614173228346,
            "duration": 0.125,
            "frequency": 587.3295358348151,
            "pitch": 74,
            "startTime": 0.375,
            "endTime": 0.5
          },
          {
            "name": "F#3",
            "midi": 54,
            "time": 0.5,
            "velocity": 0.7086614173228346,
            "duration": 0.125,
            "frequency": 184.99721135581723,
            "pitch": 54,
            "startTime": 0.5,
            "endTime": 0.625
          },
          {
            "name": "C4",
            "midi": 60,
            "time": 0.625,
            "velocity": 0.7086614173228346,
            "duration": 0.125,
            "frequency": 261.6255653005986,
            "pitch": 60,
            "startTime": 0.625,
            "endTime": 0.75
          },
          {
            "name": "F#3",
            "midi": 54,
            "time": 0.75,
            "velocity": 0.7086614173228346,
            "duration": 0.125,
            "frequency": 184.99721135581723,
            "pitch": 54,
            "startTime": 0.75,
            "endTime": 0.875
          },
          {
            "name": "A#4",
            "midi": 70,
            "time": 0.875,
            "velocity": 0.7086614173228346,
            "duration": 0.125,
            "frequency": 466.1637615180899,
            "pitch": 70,
            "startTime": 0.875,
            "endTime": 1
          },
          {
            "name": "B5",
            "midi": 83,
            "time": 1,
            "velocity": 0.7086614173228346,
            "duration": 0.125,
            "frequency": 987.7666025122484,
            "pitch": 76,
            "startTime": 1,
            "endTime": 1.125
          },
          {
            "name": "E4",
            "midi": 64,
            "time": 1.125,
            "velocity": 0.7086614173228346,
            "duration": 0.125,
            "frequency": 329.6275569128699,
            "pitch": 64,
            "startTime": 1.125,
            "endTime": 1.25
          },
          {
            "name": "A3",
            "midi": 57,
            "time": 1.25,
            "velocity": 0.7086614173228346,
            "duration": 0.125,
            "frequency": 220,
            "pitch": 57,
            "startTime": 1.25,
            "endTime": 1.375
          },
          {
            "name": "F#3",
            "midi": 54,
            "time": 1.375,
            "velocity": 0.7086614173228346,
            "duration": 0.125,
            "frequency": 184.99721135581723,
            "pitch": 54,
            "startTime": 1.375,
            "endTime": 1.5
          },
          {
            "name": "F#4",
            "midi": 66,
            "time": 1.5,
            "velocity": 0.7086614173228346,
            "duration": 0.125,
            "frequency": 369.99442271163446,
            "pitch": 66,
            "startTime": 1.5,
            "endTime": 1.625
          },
          {
            "name": "D4",
            "midi": 62,
            "time": 1.625,
            "velocity": 0.7086614173228346,
            "duration": 0.125,
            "frequency": 293.6647679174076,
            "pitch": 62,
            "startTime": 1.625,
            "endTime": 1.75
          },
          {
            "name": "F#5",
            "midi": 78,
            "time": 1.75,
            "velocity": 0.7086614173228346,
            "duration": 0.125,
            "frequency": 739.9888454232689,
            "pitch": 76,
            "startTime": 1.75,
            "endTime": 1.875
          },
          {
            "name": "F#3",
            "midi": 54,
            "time": 1.875,
            "velocity": 0.7086614173228346,
            "duration": 0.125,
            "frequency": 184.99721135581723,
            "pitch": 54,
            "startTime": 1.875,
            "endTime": 2
          }
        ],
        "controlChanges": {},
        "id": 0,
        "channelNumber": 0,
        "isPercussion": false
      }
    ]
  },
  "pinus sylvestris_chords": {
    "header": {
      "PPQ": 128,
      "bpm": 120,
      "name": ""
    },
    "startTime": 0,
    "duration": 1,
    "tracks": [
      {
        "startTime": 0,
        "duration": 1,
        "length": 15,
        "notes": [
          {
            "name": "F3",
            "midi": 53,
            "time": 0,
            "velocity": 0.7086614173228346,
            "duration": 0.5,
            "frequency": 174.61411571650194,
            "pitch": 53,
            "startTime": 0,
            "endTime": 0.5
          },
          {
            "name": "F#3",
            "midi": 54,
            "time": 0,
            "velocity": 0.7086614173228346,
            "duration": 0.5,
            "frequency": 184.99721135581723,
            "pitch": 54,
            "startTime": 0,
            "endTime": 0.5
          },
          {
            "name": "F4",
            "midi": 65,
            "time": 0,
            "velocity": 0.7086614173228346,
            "duration": 0.5,
            "frequency": 349.2282314330039,
            "pitch": 65,
            "startTime": 0,
            "endTime": 0.5
          },
          {
            "name": "A#4",
            "midi": 70,
            "time": 0,
            "velocity": 0.7086614173228346,
            "duration": 0.5,
            "frequency": 466.1637615180899,
            "pitch": 70,
            "startTime": 0,
            "endTime": 0.5
          },
          {
            "name": "G5",
            "midi": 79,
            "time": 0,
            "velocity": 0.7086614173228346,
            "duration": 0.5,
            "frequency": 783.9908719634986,
            "pitch": 76,
            "startTime": 0,
            "endTime": 0.5
          },
          {
            "name": "G3",
            "midi": 55,
            "time": 0.5,
            "velocity": 0.7086614173228346,
            "duration": 0.5,
            "frequency": 195.99771799087463,
            "pitch": 55,
            "startTime": 0.5,
            "endTime": 1
          },
          {
            "name": "B3",
            "midi": 59,
            "time": 0.5,
            "velocity": 0.7086614173228346,
            "duration": 0.5,
            "frequency": 246.9416506280621,
            "pitch": 59,
            "startTime": 0.5,
            "endTime": 1
          },
          {
            "name": "E4",
            "midi": 64,
            "time": 0.5,
            "velocity": 0.7086614173228346,
            "duration": 0.5,
            "frequency": 329.6275569128699,
            "pitch": 64,
            "startTime": 0.5,
            "endTime": 1
          },
          {
            "name": "A4",
            "midi": 69,
            "time": 0.5,
            "velocity": 0.7086614173228346,
            "duration": 0.5,
            "frequency": 440,
            "pitch": 69,
            "startTime": 0.5,
            "endTime": 1
          },
          {
            "name": "D#5",
            "midi": 75,
            "time": 0.5,
            "velocity": 0.7086614173228346,
            "duration": 0.5,
            "frequency": 622.2539674441618,
            "pitch": 75,
            "startTime": 0.5,
            "endTime": 1
          },
          {
            "name": "G5",
            "midi": 79,
            "time": 0.5,
            "velocity": 0.7086614173228346,
            "duration": 0.5,
            "frequency": 783.9908719634986,
            "pitch": 76,
            "startTime": 0.5,
            "endTime": 1
          },
          {
            "name": "A5",
            "midi": 81,
            "time": 0.5,
            "velocity": 0.7086614173228346,
            "duration": 0.5,
            "frequency": 880,
            "pitch": 76,
            "startTime": 0.5,
            "endTime": 1
          },
          {
            "name": "G6",
            "midi": 91,
            "time": 0.5,
            "velocity": 0.7086614173228346,
            "duration": 0.5,
            "frequency": 1567.981743926997,
            "pitch": 76,
            "startTime": 0.5,
            "endTime": 1
          },
          {
            "name": "F#7",
            "midi": 102,
            "time": 0.5,
            "velocity": 0.7086614173228346,
            "duration": 0.5,
            "frequency": 2959.9553816930757,
            "pitch": 76,
            "startTime": 0.5,
            "endTime": 1
          },
          {
            "name": "G7",
            "midi": 103,
            "time": 0.5,
            "velocity": 0.7086614173228346,
            "duration": 0.5,
            "frequency": 3135.9634878539946,
            "pitch": 76,
            "startTime": 0.5,
            "endTime": 1
          }
        ],
        "controlChanges": {},
        "id": 0,
        "channelNumber": 0,
        "isPercussion": false
      }
    ]
  },
  "populus alba_french": {
    "header": {
      "PPQ": 128,
      "bpm": 120,
      "name": ""
    },
    "startTime": 0,
    "duration": 5.625,
    "tracks": [
      {
        "startTime": 0,
        "duration": 5.625,
        "length": 12,
        "notes": [
          {
            "name": "B4",
            "midi": 71,
            "time": 0,
            "velocity": 0.7086614173228346,
            "duration": 0.25,
            "frequency": 493.8833012561242,
            "pitch": 71,
            "startTime": 0,
            "endTime": 0.25
          },
          {
            "name": "A4",
            "midi": 69,
            "time": 0.25,
            "velocity": 0.7086614173228346,
            "duration": 0.25,
            "frequency": 440,
            "pitch": 69,
            "startTime": 0.25,
            "endTime": 0.5
          },
          {
            "name": "B4",
            "midi": 71,
            "time": 0.5,
            "velocity": 0.7086614173228346,
            "duration": 0.25,
            "frequency": 493.8833012561242,
            "pitch": 71,
            "startTime": 0.5,
            "endTime": 0.75
          },
          {
            "name": "G4",
            "midi": 67,
            "time": 0.75,
            "velocity": 0.7086614173228346,
            "duration": 0.25,
            "frequency": 391.99543598174927,
            "pitch": 67,
            "startTime": 0.75,
            "endTime": 1
          },
          {
            "name": "E4",
            "midi": 64,
            "time": 1,
            "velocity": 0.7086614173228346,
            "duration": 0.5,
            "frequency": 329.6275569128699,
            "pitch": 64,
            "startTime": 1,
            "endTime": 1.5
          },
          {
            "name": "G4",
            "midi": 67,
            "time": 1.5,
            "velocity": 0.7086614173228346,
            "duration": 0.25,
            "frequency": 391.99543598174927,
            "pitch": 67,
            "startTime": 1.5,
            "endTime": 1.75
          },
          {
            "name": "E4",
            "midi": 64,
            "time": 1.75,
            "velocity": 0.7086614173228346,
            "duration": 0.25,
            "frequency": 329.6275569128699,
            "pitch": 64,
            "startTime": 1.75,
            "endTime": 2
          },
          {
            "name": "G4",
            "midi": 67,
            "time": 2,
            "velocity": 0.7086614173228346,
            "duration": 0.125,
            "frequency": 391.99543598174927,
            "pitch": 67,
            "startTime": 2,
            "endTime": 2.125
          },
          {
            "name": "A4",
            "midi": 69,
            "time": 2.125,
            "velocity": 0.7086614173228346,
            "duration": 1,
            "frequency": 440,
            "pitch": 69,
            "startTime": 2.125,
            "endTime": 3.125
          },
          {
            "name": "E4",
            "midi": 64,
            "time": 3.125,
            "velocity": 0.7086614173228346,
            "duration": 0.5,
            "frequency": 329.6275569128699,
            "pitch": 64,
            "startTime": 3.125,
            "endTime": 3.625
          },
          {
            "name": "B3",
            "midi": 59,
            "time": 3.625,
            "velocity": 0.7086614173228346,
            "duration": 1,
            "frequency": 246.9416506280621,
            "pitch": 59,
            "startTime": 3.625,
            "endTime": 4.625
          },
          {
            "name": "A3",
            "midi": 57,
            "time": 4.625,
            "velocity": 0.7086614173228346,
            "duration": 1,
            "frequency": 220,
            "pitch": 57,
            "startTime": 4.625,
            "endTime": 5.625
          }
        ],
        "controlChanges": {},
        "id": 0,
        "channelNumber": 0,
        "isPercussion": false
      }
    ]
  },
  "populus alba_keyboard": {
    "header": {
      "PPQ": 128,
      "bpm": 120,
      "name": ""
    },
    "startTime": 0,
    "duration": 1.5,
    "tracks": [
      {
        "startTime": 0,
        "duration": 1.5,
        "length": 12,
        "notes": [
          {
            "name": "D6",
            "midi": 86,
            "time": 0,
            "velocity": 0.7086614173228346,
            "duration": 0.125,
            "frequency": 1174.6590716696303,
            "pitch": 76,
            "startTime": 0,
            "endTime": 0.125
          },
          {
            "name": "A#5",
            "midi": 82,
            "time": 0.125,
            "velocity": 0.7086614173228346,
            "duration": 0.125,
            "frequency": 932.3275230361799,
            "pitch": 76,
            "startTime": 0.125,
            "endTime": 0.25
          },
          {
            "name": "D6",
            "midi": 86,
            "time": 0.25,
            "velocity": 0.7086614173228346,
            "duration": 0.125,
            "frequency": 1174.6590716696303,
            "pitch": 76,
            "startTime": 0.25,
            "endTime": 0.375
          },
          {
            "name": "D5",
            "midi": 74,
            "time": 0.375,
            "velocity": 0.7086614173228346,
            "duration": 0.125,
            "frequency": 587.3295358348151,
            "pitch": 74,
            "startTime": 0.375,
            "endTime": 0.5
          },
          {
            "name": "B5",
            "midi": 83,
            "time": 0.5,
            "velocity": 0.7086614173228346,
            "duration": 0.125,
            "frequency": 987.7666025122484,
            "pitch": 76,
            "startTime": 0.5,
            "endTime": 0.625
          },
          {
            "name": "D5",
            "midi": 74,
            "time": 0.625,
            "velocity": 0.7086614173228346,
            "duration": 0.125,
            "frequency": 587.3295358348151,
            "pitch": 74,
            "startTime": 0.625,
            "endTime": 0.75
          },
          {
            "name": "F#3",
            "midi": 54,
            "time": 0.75,
            "velocity": 0.7086614173228346,
            "duration": 0.125,
            "frequency": 184.99721135581723,
            "pitch": 54,
            "startTime": 0.75,
            "endTime": 0.875
          },
          {
            "name": "C4",
            "midi": 60,
            "time": 0.875,
            "velocity": 0.7086614173228346,
            "duration": 0.125,
            "frequency": 261.6255653005986,
            "pitch": 60,
            "startTime": 0.875,
            "endTime": 1
          },
          {
            "name": "D3",
            "midi": 50,
            "time": 1,
            "velocity": 0.7086614173228346,
            "duration": 0.125,
            "frequency": 146.8323839587038,
            "pitch": 50,
            "startTime": 1,
            "endTime": 1.125
          },
          {
            "name": "B5",
            "midi": 83,
            "time": 1.125,
            "velocity": 0.7086614173228346,
            "duration": 0.125,
            "frequency": 987.7666025122484,
            "pitch": 76,
            "startTime": 1.125,
            "endTime": 1.25
          },
          {
            "name": "G#4",
            "midi": 68,
            "time": 1.25,
            "velocity": 0.7086614173228346,
            "duration": 0.125,
            "frequency": 415.3046975799451,
            "pitch": 68,
            "startTime": 1.25,
            "endTime": 1.375
          },
          {
            "name": "D3",
            "midi": 50,
            "time": 1.375,
            "velocity": 0.7086614173228346,
            "duration": 0.125,
            "frequency": 146.8323839587038,
            "pitch": 50,
            "startTime": 1.375,
            "endTime": 1.5
          }
        ],
        "controlChanges": {},
        "id": 0,
        "channelNumber": 0,
        "isPercussion": false
      }
    ]
  },
  "populus alba_chords": {
    "header": {
      "PPQ": 128,
      "bpm": 120,
      "name": ""
    },
    "startTime": 0,
    "duration": 1,
    "tracks": [
      {
        "startTime": 0,
        "duration": 1,
        "length": 11,
        "notes": [
          {
            "name": "F3",
            "midi": 53,
            "time": 0,
            "velocity": 0.7086614173228346,
            "duration": 0.5,
            "frequency": 174.61411571650194,
            "pitch": 53,
            "startTime": 0,
            "endTime": 0.5
          },
          {
            "name": "G#3",
            "midi": 56,
            "time": 0,
            "velocity": 0.7086614173228346,
            "duration": 0.5,
            "frequency": 207.65234878997256,
            "pitch": 56,
            "startTime": 0,
            "endTime": 0.5
          },
          {
            "name": "F4",
            "midi": 65,
            "time": 0,
            "velocity": 0.7086614173228346,
            "duration": 0.5,
            "frequency": 349.2282314330039,
            "pitch": 65,
            "startTime": 0,
            "endTime": 0.5
          },
          {
            "name": "A#4",
            "midi": 70,
            "time": 0,
            "velocity": 0.7086614173228346,
            "duration": 0.5,
            "frequency": 466.1637615180899,
            "pitch": 70,
            "startTime": 0,
            "endTime": 0.5
          },
          {
            "name": "E5",
            "midi": 76,
            "time": 0,
            "velocity": 0.7086614173228346,
            "duration": 0.5,
            "frequency": 659.2551138257398,
            "pitch": 76,
            "startTime": 0,
            "endTime": 0.5
          },
          {
            "name": "A#5",
            "midi": 82,
            "time": 0,
            "velocity": 0.7086614173228346,
            "duration": 0.5,
            "frequency": 932.3275230361799,
            "pitch": 76,
            "startTime": 0,
            "endTime": 0.5
          },
          {
            "name": "G6",
            "midi": 91,
            "time": 0,
            "velocity": 0.7086614173228346,
            "duration": 0.5,
            "frequency": 1567.981743926997,
            "pitch": 76,
            "startTime": 0,
            "endTime": 0.5
          },
          {
            "name": "C#3",
            "midi": 49,
            "time": 0.5,
            "velocity": 0.7086614173228346,
            "duration": 0.5,
            "frequency": 138.59131548843604,
            "pitch": 49,
            "startTime": 0.5,
            "endTime": 1
          },
          {
            "name": "E3",
            "midi": 52,
            "time": 0.5,
            "velocity": 0.7086614173228346,
            "duration": 0.5,
            "frequency": 164.81377845643496,
            "pitch": 52,
            "startTime": 0.5,
            "endTime": 1
          },
          {
            "name": "C4",
            "midi": 60,
            "time": 0.5,
            "velocity": 0.7086614173228346,
            "duration": 0.5,
            "frequency": 261.6255653005986,
            "pitch": 60,
            "startTime": 0.5,
            "endTime": 1
          },
          {
            "name": "C#4",
            "midi": 61,
            "time": 0.5,
            "velocity": 0.7086614173228346,
            "duration": 0.5,
            "frequency": 277.1826309768721,
            "pitch": 61,
            "startTime": 0.5,
            "endTime": 1
          }
        ],
        "controlChanges": {},
        "id": 0,
        "channelNumber": 0,
        "isPercussion": false
      }
    ]
  },
  "populus balsamifera_french": {
    "header": {
      "PPQ": 128,
      "bpm": 120,
      "name": ""
    },
    "startTime": 0,
    "duration": 10.125,
    "tracks": [
      {
        "startTime": 0,
        "duration": 10.125,
        "length": 19,
        "notes": [
          {
            "name": "B4",
            "midi": 71,
            "time": 0,
            "velocity": 0.7086614173228346,
            "duration": 0.25,
            "frequency": 493.8833012561242,
            "pitch": 71,
            "startTime": 0,
            "endTime": 0.25
          },
          {
            "name": "A4",
            "midi": 69,
            "time": 0.25,
            "velocity": 0.7086614173228346,
            "duration": 0.25,
            "frequency": 440,
            "pitch": 69,
            "startTime": 0.25,
            "endTime": 0.5
          },
          {
            "name": "B4",
            "midi": 71,
            "time": 0.5,
            "velocity": 0.7086614173228346,
            "duration": 0.25,
            "frequency": 493.8833012561242,
            "pitch": 71,
            "startTime": 0.5,
            "endTime": 0.75
          },
          {
            "name": "G4",
            "midi": 67,
            "time": 0.75,
            "velocity": 0.7086614173228346,
            "duration": 0.25,
            "frequency": 391.99543598174927,
            "pitch": 67,
            "startTime": 0.75,
            "endTime": 1
          },
          {
            "name": "E4",
            "midi": 64,
            "time": 1,
            "velocity": 0.7086614173228346,
            "duration": 0.5,
            "frequency": 329.6275569128699,
            "pitch": 64,
            "startTime": 1,
            "endTime": 1.5
          },
          {
            "name": "G4",
            "midi": 67,
            "time": 1.5,
            "velocity": 0.7086614173228346,
            "duration": 0.25,
            "frequency": 391.99543598174927,
            "pitch": 67,
            "startTime": 1.5,
            "endTime": 1.75
          },
          {
            "name": "E4",
            "midi": 64,
            "time": 1.75,
            "velocity": 0.7086614173228346,
            "duration": 0.25,
            "frequency": 329.6275569128699,
            "pitch": 64,
            "startTime": 1.75,
            "endTime": 2
          },
          {
            "name": "G4",
            "midi": 67,
            "time": 2,
            "velocity": 0.7086614173228346,
            "duration": 0.125,
            "frequency": 391.99543598174927,
            "pitch": 67,
            "startTime": 2,
            "endTime": 2.125
          },
          {
            "name": "B4",
            "midi": 71,
            "time": 2.125,
            "velocity": 0.7086614173228346,
            "duration": 1,
            "frequency": 493.8833012561242,
            "pitch": 71,
            "startTime": 2.125,
            "endTime": 3.125
          },
          {
            "name": "A4",
            "midi": 69,
            "time": 3.125,
            "velocity": 0.7086614173228346,
            "duration": 1,
            "frequency": 440,
            "pitch": 69,
            "startTime": 3.125,
            "endTime": 4.125
          },
          {
            "name": "E4",
            "midi": 64,
            "time": 4.125,
            "velocity": 0.7086614173228346,
            "duration": 0.5,
            "frequency": 329.6275569128699,
            "pitch": 64,
            "startTime": 4.125,
            "endTime": 4.625
          },
          {
            "name": "E4",
            "midi": 64,
            "time": 4.625,
            "velocity": 0.7086614173228346,
            "duration": 0.25,
            "frequency": 329.6275569128699,
            "pitch": 64,
            "startTime": 4.625,
            "endTime": 4.875
          },
          {
            "name": "A4",
            "midi": 69,
            "time": 4.875,
            "velocity": 0.7086614173228346,
            "duration": 1,
            "frequency": 440,
            "pitch": 69,
            "startTime": 4.875,
            "endTime": 5.875
          },
          {
            "name": "F4",
            "midi": 65,
            "time": 5.875,
            "velocity": 0.7086614173228346,
            "duration": 0.5,
            "frequency": 349.2282314330039,
            "pitch": 65,
            "startTime": 5.875,
            "endTime": 6.375
          },
          {
            "name": "B4",
            "midi": 71,
            "time": 6.375,
            "velocity": 0.7086614173228346,
            "duration": 0.5,
            "frequency": 493.8833012561242,
            "pitch": 71,
            "startTime": 6.375,
            "endTime": 6.875
          },
          {
            "name": "F4",
            "midi": 65,
            "time": 6.875,
            "velocity": 0.7086614173228346,
            "duration": 1,
            "frequency": 349.2282314330039,
            "pitch": 65,
            "startTime": 6.875,
            "endTime": 7.875
          },
          {
            "name": "E4",
            "midi": 64,
            "time": 7.875,
            "velocity": 0.7086614173228346,
            "duration": 1,
            "frequency": 329.6275569128699,
            "pitch": 64,
            "startTime": 7.875,
            "endTime": 8.875
          },
          {
            "name": "D4",
            "midi": 62,
            "time": 8.875,
            "velocity": 0.7086614173228346,
            "duration": 0.25,
            "frequency": 293.6647679174076,
            "pitch": 62,
            "startTime": 8.875,
            "endTime": 9.125
          },
          {
            "name": "A3",
            "midi": 57,
            "time": 9.125,
            "velocity": 0.7086614173228346,
            "duration": 1,
            "frequency": 220,
            "pitch": 57,
            "startTime": 9.125,
            "endTime": 10.125
          }
        ],
        "controlChanges": {},
        "id": 0,
        "channelNumber": 0,
        "isPercussion": false
      }
    ]
  },
  "populus balsamifera_keyboard": {
    "header": {
      "PPQ": 128,
      "bpm": 120,
      "name": ""
    },
    "startTime": 0,
    "duration": 2.375,
    "tracks": [
      {
        "startTime": 0,
        "duration": 2.375,
        "length": 19,
        "notes": [
          {
            "name": "D6",
            "midi": 86,
            "time": 0,
            "velocity": 0.7086614173228346,
            "duration": 0.125,
            "frequency": 1174.6590716696303,
            "pitch": 76,
            "startTime": 0,
            "endTime": 0.125
          },
          {
            "name": "A#5",
            "midi": 82,
            "time": 0.125,
            "velocity": 0.7086614173228346,
            "duration": 0.125,
            "frequency": 932.3275230361799,
            "pitch": 76,
            "startTime": 0.125,
            "endTime": 0.25
          },
          {
            "name": "D6",
            "midi": 86,
            "time": 0.25,
            "velocity": 0.7086614173228346,
            "duration": 0.125,
            "frequency": 1174.6590716696303,
            "pitch": 76,
            "startTime": 0.25,
            "endTime": 0.375
          },
          {
            "name": "D5",
            "midi": 74,
            "time": 0.375,
            "velocity": 0.7086614173228346,
            "duration": 0.125,
            "frequency": 587.3295358348151,
            "pitch": 74,
            "startTime": 0.375,
            "endTime": 0.5
          },
          {
            "name": "B5",
            "midi": 83,
            "time": 0.5,
            "velocity": 0.7086614173228346,
            "duration": 0.125,
            "frequency": 987.7666025122484,
            "pitch": 76,
            "startTime": 0.5,
            "endTime": 0.625
          },
          {
            "name": "D5",
            "midi": 74,
            "time": 0.625,
            "velocity": 0.7086614173228346,
            "duration": 0.125,
            "frequency": 587.3295358348151,
            "pitch": 74,
            "startTime": 0.625,
            "endTime": 0.75
          },
          {
            "name": "F#3",
            "midi": 54,
            "time": 0.75,
            "velocity": 0.7086614173228346,
            "duration": 0.125,
            "frequency": 184.99721135581723,
            "pitch": 54,
            "startTime": 0.75,
            "endTime": 0.875
          },
          {
            "name": "C4",
            "midi": 60,
            "time": 0.875,
            "velocity": 0.7086614173228346,
            "duration": 0.125,
            "frequency": 261.6255653005986,
            "pitch": 60,
            "startTime": 0.875,
            "endTime": 1
          },
          {
            "name": "G#4",
            "midi": 68,
            "time": 1,
            "velocity": 0.7086614173228346,
            "duration": 0.125,
            "frequency": 415.3046975799451,
            "pitch": 68,
            "startTime": 1,
            "endTime": 1.125
          },
          {
            "name": "D3",
            "midi": 50,
            "time": 1.125,
            "velocity": 0.7086614173228346,
            "duration": 0.125,
            "frequency": 146.8323839587038,
            "pitch": 50,
            "startTime": 1.125,
            "endTime": 1.25
          },
          {
            "name": "B5",
            "midi": 83,
            "time": 1.25,
            "velocity": 0.7086614173228346,
            "duration": 0.125,
            "frequency": 987.7666025122484,
            "pitch": 76,
            "startTime": 1.25,
            "endTime": 1.375
          },
          {
            "name": "F#3",
            "midi": 54,
            "time": 1.375,
            "velocity": 0.7086614173228346,
            "duration": 0.125,
            "frequency": 184.99721135581723,
            "pitch": 54,
            "startTime": 1.375,
            "endTime": 1.5
          },
          {
            "name": "D3",
            "midi": 50,
            "time": 1.5,
            "velocity": 0.7086614173228346,
            "duration": 0.125,
            "frequency": 146.8323839587038,
            "pitch": 50,
            "startTime": 1.5,
            "endTime": 1.625
          },
          {
            "name": "E5",
            "midi": 76,
            "time": 1.625,
            "velocity": 0.7086614173228346,
            "duration": 0.125,
            "frequency": 659.2551138257398,
            "pitch": 76,
            "startTime": 1.625,
            "endTime": 1.75
          },
          {
            "name": "F#5",
            "midi": 78,
            "time": 1.75,
            "velocity": 0.7086614173228346,
            "duration": 0.125,
            "frequency": 739.9888454232689,
            "pitch": 76,
            "startTime": 1.75,
            "endTime": 1.875
          },
          {
            "name": "D#4",
            "midi": 63,
            "time": 1.875,
            "velocity": 0.7086614173228346,
            "duration": 0.125,
            "frequency": 311.12698372208087,
            "pitch": 63,
            "startTime": 1.875,
            "endTime": 2
          },
          {
            "name": "A3",
            "midi": 57,
            "time": 2,
            "velocity": 0.7086614173228346,
            "duration": 0.125,
            "frequency": 220,
            "pitch": 57,
            "startTime": 2,
            "endTime": 2.125
          },
          {
            "name": "D4",
            "midi": 62,
            "time": 2.125,
            "velocity": 0.7086614173228346,
            "duration": 0.125,
            "frequency": 293.6647679174076,
            "pitch": 62,
            "startTime": 2.125,
            "endTime": 2.25
          },
          {
            "name": "D3",
            "midi": 50,
            "time": 2.25,
            "velocity": 0.7086614173228346,
            "duration": 0.125,
            "frequency": 146.8323839587038,
            "pitch": 50,
            "startTime": 2.25,
            "endTime": 2.375
          }
        ],
        "controlChanges": {},
        "id": 0,
        "channelNumber": 0,
        "isPercussion": false
      }
    ]
  },
  "populus balsamifera_chords": {
    "header": {
      "PPQ": 128,
      "bpm": 120,
      "name": ""
    },
    "startTime": 0,
    "duration": 1,
    "tracks": [
      {
        "startTime": 0,
        "duration": 1,
        "length": 18,
        "notes": [
          {
            "name": "F3",
            "midi": 53,
            "time": 0,
            "velocity": 0.7086614173228346,
            "duration": 0.5,
            "frequency": 174.61411571650194,
            "pitch": 53,
            "startTime": 0,
            "endTime": 0.5
          },
          {
            "name": "G#3",
            "midi": 56,
            "time": 0,
            "velocity": 0.7086614173228346,
            "duration": 0.5,
            "frequency": 207.65234878997256,
            "pitch": 56,
            "startTime": 0,
            "endTime": 0.5
          },
          {
            "name": "F4",
            "midi": 65,
            "time": 0,
            "velocity": 0.7086614173228346,
            "duration": 0.5,
            "frequency": 349.2282314330039,
            "pitch": 65,
            "startTime": 0,
            "endTime": 0.5
          },
          {
            "name": "A#4",
            "midi": 70,
            "time": 0,
            "velocity": 0.7086614173228346,
            "duration": 0.5,
            "frequency": 466.1637615180899,
            "pitch": 70,
            "startTime": 0,
            "endTime": 0.5
          },
          {
            "name": "E5",
            "midi": 76,
            "time": 0,
            "velocity": 0.7086614173228346,
            "duration": 0.5,
            "frequency": 659.2551138257398,
            "pitch": 76,
            "startTime": 0,
            "endTime": 0.5
          },
          {
            "name": "A#5",
            "midi": 82,
            "time": 0,
            "velocity": 0.7086614173228346,
            "duration": 0.5,
            "frequency": 932.3275230361799,
            "pitch": 76,
            "startTime": 0,
            "endTime": 0.5
          },
          {
            "name": "G6",
            "midi": 91,
            "time": 0,
            "velocity": 0.7086614173228346,
            "duration": 0.5,
            "frequency": 1567.981743926997,
            "pitch": 76,
            "startTime": 0,
            "endTime": 0.5
          },
          {
            "name": "C3",
            "midi": 48,
            "time": 0.5,
            "velocity": 0.7086614173228346,
            "duration": 0.5,
            "frequency": 130.8127826502993,
            "pitch": 48,
            "startTime": 0.5,
            "endTime": 1
          },
          {
            "name": "C#3",
            "midi": 49,
            "time": 0.5,
            "velocity": 0.7086614173228346,
            "duration": 0.5,
            "frequency": 138.59131548843604,
            "pitch": 49,
            "startTime": 0.5,
            "endTime": 1
          },
          {
            "name": "E3",
            "midi": 52,
            "time": 0.5,
            "velocity": 0.7086614173228346,
            "duration": 0.5,
            "frequency": 164.81377845643496,
            "pitch": 52,
            "startTime": 0.5,
            "endTime": 1
          },
          {
            "name": "G3",
            "midi": 55,
            "time": 0.5,
            "velocity": 0.7086614173228346,
            "duration": 0.5,
            "frequency": 195.99771799087463,
            "pitch": 55,
            "startTime": 0.5,
            "endTime": 1
          },
          {
            "name": "C#4",
            "midi": 61,
            "time": 0.5,
            "velocity": 0.7086614173228346,
            "duration": 0.5,
            "frequency": 277.1826309768721,
            "pitch": 61,
            "startTime": 0.5,
            "endTime": 1
          },
          {
            "name": "F4",
            "midi": 65,
            "time": 0.5,
            "velocity": 0.7086614173228346,
            "duration": 0.5,
            "frequency": 349.2282314330039,
            "pitch": 65,
            "startTime": 0.5,
            "endTime": 1
          },
          {
            "name": "F#4",
            "midi": 66,
            "time": 0.5,
            "velocity": 0.7086614173228346,
            "duration": 0.5,
            "frequency": 369.99442271163446,
            "pitch": 66,
            "startTime": 0.5,
            "endTime": 1
          },
          {
            "name": "D5",
            "midi": 74,
            "time": 0.5,
            "velocity": 0.7086614173228346,
            "duration": 0.5,
            "frequency": 587.3295358348151,
            "pitch": 74,
            "startTime": 0.5,
            "endTime": 1
          },
          {
            "name": "D#5",
            "midi": 75,
            "time": 0.5,
            "velocity": 0.7086614173228346,
            "duration": 0.5,
            "frequency": 622.2539674441618,
            "pitch": 75,
            "startTime": 0.5,
            "endTime": 1
          },
          {
            "name": "G5",
            "midi": 79,
            "time": 0.5,
            "velocity": 0.7086614173228346,
            "duration": 0.5,
            "frequency": 783.9908719634986,
            "pitch": 76,
            "startTime": 0.5,
            "endTime": 1
          },
          {
            "name": "C#6",
            "midi": 85,
            "time": 0.5,
            "velocity": 0.7086614173228346,
            "duration": 0.5,
            "frequency": 1108.7305239074883,
            "pitch": 76,
            "startTime": 0.5,
            "endTime": 1
          }
        ],
        "controlChanges": {},
        "id": 0,
        "channelNumber": 0,
        "isPercussion": false
      }
    ]
  },
  "prunus_french": {
    "header": {
      "PPQ": 128,
      "bpm": 120,
      "name": ""
    },
    "startTime": 0,
    "duration": 1.75,
    "tracks": [
      {
        "startTime": 0,
        "duration": 1.75,
        "length": 6,
        "notes": [
          {
            "name": "B4",
            "midi": 71,
            "time": 0,
            "velocity": 0.7086614173228346,
            "duration": 0.25,
            "frequency": 493.8833012561242,
            "pitch": 71,
            "startTime": 0,
            "endTime": 0.25
          },
          {
            "name": "D5",
            "midi": 74,
            "time": 0.25,
            "velocity": 0.7086614173228346,
            "duration": 0.25,
            "frequency": 587.3295358348151,
            "pitch": 74,
            "startTime": 0.25,
            "endTime": 0.5
          },
          {
            "name": "G5",
            "midi": 79,
            "time": 0.5,
            "velocity": 0.7086614173228346,
            "duration": 0.25,
            "frequency": 783.9908719634986,
            "pitch": 76,
            "startTime": 0.5,
            "endTime": 0.75
          },
          {
            "name": "G5",
            "midi": 79,
            "time": 0.75,
            "velocity": 0.7086614173228346,
            "duration": 0.5,
            "frequency": 783.9908719634986,
            "pitch": 76,
            "startTime": 0.75,
            "endTime": 1.25
          },
          {
            "name": "G5",
            "midi": 79,
            "time": 1.25,
            "velocity": 0.7086614173228346,
            "duration": 0.25,
            "frequency": 783.9908719634986,
            "pitch": 76,
            "startTime": 1.25,
            "endTime": 1.5
          },
          {
            "name": "E5",
            "midi": 76,
            "time": 1.5,
            "velocity": 0.7086614173228346,
            "duration": 0.25,
            "frequency": 659.2551138257398,
            "pitch": 76,
            "startTime": 1.5,
            "endTime": 1.75
          }
        ],
        "controlChanges": {},
        "id": 0,
        "channelNumber": 0,
        "isPercussion": false
      }
    ]
  },
  "prunus_keyboard": {
    "header": {
      "PPQ": 128,
      "bpm": 120,
      "name": ""
    },
    "startTime": 0,
    "duration": 0.75,
    "tracks": [
      {
        "startTime": 0,
        "duration": 0.75,
        "length": 6,
        "notes": [
          {
            "name": "D6",
            "midi": 86,
            "time": 0,
            "velocity": 0.7086614173228346,
            "duration": 0.125,
            "frequency": 1174.6590716696303,
            "pitch": 76,
            "startTime": 0,
            "endTime": 0.125
          },
          {
            "name": "D4",
            "midi": 62,
            "time": 0.125,
            "velocity": 0.7086614173228346,
            "duration": 0.125,
            "frequency": 293.6647679174076,
            "pitch": 62,
            "startTime": 0.125,
            "endTime": 0.25
          },
          {
            "name": "D5",
            "midi": 74,
            "time": 0.25,
            "velocity": 0.7086614173228346,
            "duration": 0.125,
            "frequency": 587.3295358348151,
            "pitch": 74,
            "startTime": 0.25,
            "endTime": 0.375
          },
          {
            "name": "C5",
            "midi": 72,
            "time": 0.375,
            "velocity": 0.7086614173228346,
            "duration": 0.125,
            "frequency": 523.2511306011972,
            "pitch": 72,
            "startTime": 0.375,
            "endTime": 0.5
          },
          {
            "name": "D5",
            "midi": 74,
            "time": 0.5,
            "velocity": 0.7086614173228346,
            "duration": 0.125,
            "frequency": 587.3295358348151,
            "pitch": 74,
            "startTime": 0.5,
            "endTime": 0.625
          },
          {
            "name": "F#3",
            "midi": 54,
            "time": 0.625,
            "velocity": 0.7086614173228346,
            "duration": 0.125,
            "frequency": 184.99721135581723,
            "pitch": 54,
            "startTime": 0.625,
            "endTime": 0.75
          }
        ],
        "controlChanges": {},
        "id": 0,
        "channelNumber": 0,
        "isPercussion": false
      }
    ]
  },
  "prunus_chords": {
    "header": {
      "PPQ": 128,
      "bpm": 120,
      "name": ""
    },
    "startTime": 0,
    "duration": 0.5,
    "tracks": [
      {
        "startTime": 0,
        "duration": 0.5,
        "length": 6,
        "notes": [
          {
            "name": "F3",
            "midi": 53,
            "time": 0,
            "velocity": 0.7086614173228346,
            "duration": 0.5,
            "frequency": 174.61411571650194,
            "pitch": 53,
            "startTime": 0,
            "endTime": 0.5
          },
          {
            "name": "G3",
            "midi": 55,
            "time": 0,
            "velocity": 0.7086614173228346,
            "duration": 0.5,
            "frequency": 195.99771799087463,
            "pitch": 55,
            "startTime": 0,
            "endTime": 0.5
          },
          {
            "name": "A#3",
            "midi": 58,
            "time": 0,
            "velocity": 0.7086614173228346,
            "duration": 0.5,
            "frequency": 233.08188075904496,
            "pitch": 58,
            "startTime": 0,
            "endTime": 0.5
          },
          {
            "name": "F4",
            "midi": 65,
            "time": 0,
            "velocity": 0.7086614173228346,
            "duration": 0.5,
            "frequency": 349.2282314330039,
            "pitch": 65,
            "startTime": 0,
            "endTime": 0.5
          },
          {
            "name": "A#4",
            "midi": 70,
            "time": 0,
            "velocity": 0.7086614173228346,
            "duration": 0.5,
            "frequency": 466.1637615180899,
            "pitch": 70,
            "startTime": 0,
            "endTime": 0.5
          },
          {
            "name": "G5",
            "midi": 79,
            "time": 0,
            "velocity": 0.7086614173228346,
            "duration": 0.5,
            "frequency": 783.9908719634986,
            "pitch": 76,
            "startTime": 0,
            "endTime": 0.5
          }
        ],
        "controlChanges": {},
        "id": 0,
        "channelNumber": 0,
        "isPercussion": false
      }
    ]
  },
  "prunus avium_french": {
    "header": {
      "PPQ": 128,
      "bpm": 120,
      "name": ""
    },
    "startTime": 0,
    "duration": 4.25,
    "tracks": [
      {
        "startTime": 0,
        "duration": 4.25,
        "length": 12,
        "notes": [
          {
            "name": "B4",
            "midi": 71,
            "time": 0,
            "velocity": 0.7086614173228346,
            "duration": 0.25,
            "frequency": 493.8833012561242,
            "pitch": 71,
            "startTime": 0,
            "endTime": 0.25
          },
          {
            "name": "D5",
            "midi": 74,
            "time": 0.25,
            "velocity": 0.7086614173228346,
            "duration": 0.25,
            "frequency": 587.3295358348151,
            "pitch": 74,
            "startTime": 0.25,
            "endTime": 0.5
          },
          {
            "name": "G5",
            "midi": 79,
            "time": 0.5,
            "velocity": 0.7086614173228346,
            "duration": 0.25,
            "frequency": 783.9908719634986,
            "pitch": 76,
            "startTime": 0.5,
            "endTime": 0.75
          },
          {
            "name": "G5",
            "midi": 79,
            "time": 0.75,
            "velocity": 0.7086614173228346,
            "duration": 0.5,
            "frequency": 783.9908719634986,
            "pitch": 76,
            "startTime": 0.75,
            "endTime": 1.25
          },
          {
            "name": "G5",
            "midi": 79,
            "time": 1.25,
            "velocity": 0.7086614173228346,
            "duration": 0.25,
            "frequency": 783.9908719634986,
            "pitch": 76,
            "startTime": 1.25,
            "endTime": 1.5
          },
          {
            "name": "E5",
            "midi": 76,
            "time": 1.5,
            "velocity": 0.7086614173228346,
            "duration": 0.25,
            "frequency": 659.2551138257398,
            "pitch": 76,
            "startTime": 1.5,
            "endTime": 1.75
          },
          {
            "name": "G5",
            "midi": 79,
            "time": 1.75,
            "velocity": 0.7086614173228346,
            "duration": 0.125,
            "frequency": 783.9908719634986,
            "pitch": 76,
            "startTime": 1.75,
            "endTime": 1.875
          },
          {
            "name": "A5",
            "midi": 81,
            "time": 1.875,
            "velocity": 0.7086614173228346,
            "duration": 1,
            "frequency": 880,
            "pitch": 76,
            "startTime": 1.875,
            "endTime": 2.875
          },
          {
            "name": "A5",
            "midi": 81,
            "time": 2.875,
            "velocity": 0.7086614173228346,
            "duration": 0.125,
            "frequency": 880,
            "pitch": 76,
            "startTime": 2.875,
            "endTime": 3
          },
          {
            "name": "B5",
            "midi": 83,
            "time": 3,
            "velocity": 0.7086614173228346,
            "duration": 0.5,
            "frequency": 987.7666025122484,
            "pitch": 76,
            "startTime": 3,
            "endTime": 3.5
          },
          {
            "name": "G5",
            "midi": 79,
            "time": 3.5,
            "velocity": 0.7086614173228346,
            "duration": 0.25,
            "frequency": 783.9908719634986,
            "pitch": 76,
            "startTime": 3.5,
            "endTime": 3.75
          },
          {
            "name": "F5",
            "midi": 77,
            "time": 3.75,
            "velocity": 0.7086614173228346,
            "duration": 0.5,
            "frequency": 698.4564628660078,
            "pitch": 76,
            "startTime": 3.75,
            "endTime": 4.25
          }
        ],
        "controlChanges": {},
        "id": 0,
        "channelNumber": 0,
        "isPercussion": false
      }
    ]
  },
  "prunus avium_keyboard": {
    "header": {
      "PPQ": 128,
      "bpm": 120,
      "name": ""
    },
    "startTime": 0,
    "duration": 1.5,
    "tracks": [
      {
        "startTime": 0,
        "duration": 1.5,
        "length": 12,
        "notes": [
          {
            "name": "D6",
            "midi": 86,
            "time": 0,
            "velocity": 0.7086614173228346,
            "duration": 0.125,
            "frequency": 1174.6590716696303,
            "pitch": 76,
            "startTime": 0,
            "endTime": 0.125
          },
          {
            "name": "D4",
            "midi": 62,
            "time": 0.125,
            "velocity": 0.7086614173228346,
            "duration": 0.125,
            "frequency": 293.6647679174076,
            "pitch": 62,
            "startTime": 0.125,
            "endTime": 0.25
          },
          {
            "name": "D5",
            "midi": 74,
            "time": 0.25,
            "velocity": 0.7086614173228346,
            "duration": 0.125,
            "frequency": 587.3295358348151,
            "pitch": 74,
            "startTime": 0.25,
            "endTime": 0.375
          },
          {
            "name": "C5",
            "midi": 72,
            "time": 0.375,
            "velocity": 0.7086614173228346,
            "duration": 0.125,
            "frequency": 523.2511306011972,
            "pitch": 72,
            "startTime": 0.375,
            "endTime": 0.5
          },
          {
            "name": "D5",
            "midi": 74,
            "time": 0.5,
            "velocity": 0.7086614173228346,
            "duration": 0.125,
            "frequency": 587.3295358348151,
            "pitch": 74,
            "startTime": 0.5,
            "endTime": 0.625
          },
          {
            "name": "F#3",
            "midi": 54,
            "time": 0.625,
            "velocity": 0.7086614173228346,
            "duration": 0.125,
            "frequency": 184.99721135581723,
            "pitch": 54,
            "startTime": 0.625,
            "endTime": 0.75
          },
          {
            "name": "C4",
            "midi": 60,
            "time": 0.75,
            "velocity": 0.7086614173228346,
            "duration": 0.125,
            "frequency": 261.6255653005986,
            "pitch": 60,
            "startTime": 0.75,
            "endTime": 0.875
          },
          {
            "name": "D3",
            "midi": 50,
            "time": 0.875,
            "velocity": 0.7086614173228346,
            "duration": 0.125,
            "frequency": 146.8323839587038,
            "pitch": 50,
            "startTime": 0.875,
            "endTime": 1
          },
          {
            "name": "E4",
            "midi": 64,
            "time": 1,
            "velocity": 0.7086614173228346,
            "duration": 0.125,
            "frequency": 329.6275569128699,
            "pitch": 64,
            "startTime": 1,
            "endTime": 1.125
          },
          {
            "name": "F#5",
            "midi": 78,
            "time": 1.125,
            "velocity": 0.7086614173228346,
            "duration": 0.125,
            "frequency": 739.9888454232689,
            "pitch": 76,
            "startTime": 1.125,
            "endTime": 1.25
          },
          {
            "name": "D5",
            "midi": 74,
            "time": 1.25,
            "velocity": 0.7086614173228346,
            "duration": 0.125,
            "frequency": 587.3295358348151,
            "pitch": 74,
            "startTime": 1.25,
            "endTime": 1.375
          },
          {
            "name": "E5",
            "midi": 76,
            "time": 1.375,
            "velocity": 0.7086614173228346,
            "duration": 0.125,
            "frequency": 659.2551138257398,
            "pitch": 76,
            "startTime": 1.375,
            "endTime": 1.5
          }
        ],
        "controlChanges": {},
        "id": 0,
        "channelNumber": 0,
        "isPercussion": false
      }
    ]
  },
  "prunus avium_chords": {
    "header": {
      "PPQ": 128,
      "bpm": 120,
      "name": ""
    },
    "startTime": 0,
    "duration": 1,
    "tracks": [
      {
        "startTime": 0,
        "duration": 1,
        "length": 11,
        "notes": [
          {
            "name": "F3",
            "midi": 53,
            "time": 0,
            "velocity": 0.7086614173228346,
            "duration": 0.5,
            "frequency": 174.61411571650194,
            "pitch": 53,
            "startTime": 0,
            "endTime": 0.5
          },
          {
            "name": "G3",
            "midi": 55,
            "time": 0,
            "velocity": 0.7086614173228346,
            "duration": 0.5,
            "frequency": 195.99771799087463,
            "pitch": 55,
            "startTime": 0,
            "endTime": 0.5
          },
          {
            "name": "A#3",
            "midi": 58,
            "time": 0,
            "velocity": 0.7086614173228346,
            "duration": 0.5,
            "frequency": 233.08188075904496,
            "pitch": 58,
            "startTime": 0,
            "endTime": 0.5
          },
          {
            "name": "F4",
            "midi": 65,
            "time": 0,
            "velocity": 0.7086614173228346,
            "duration": 0.5,
            "frequency": 349.2282314330039,
            "pitch": 65,
            "startTime": 0,
            "endTime": 0.5
          },
          {
            "name": "A#4",
            "midi": 70,
            "time": 0,
            "velocity": 0.7086614173228346,
            "duration": 0.5,
            "frequency": 466.1637615180899,
            "pitch": 70,
            "startTime": 0,
            "endTime": 0.5
          },
          {
            "name": "G5",
            "midi": 79,
            "time": 0,
            "velocity": 0.7086614173228346,
            "duration": 0.5,
            "frequency": 783.9908719634986,
            "pitch": 76,
            "startTime": 0,
            "endTime": 0.5
          },
          {
            "name": "C#3",
            "midi": 49,
            "time": 0.5,
            "velocity": 0.7086614173228346,
            "duration": 0.5,
            "frequency": 138.59131548843604,
            "pitch": 49,
            "startTime": 0.5,
            "endTime": 1
          },
          {
            "name": "A3",
            "midi": 57,
            "time": 0.5,
            "velocity": 0.7086614173228346,
            "duration": 0.5,
            "frequency": 220,
            "pitch": 57,
            "startTime": 0.5,
            "endTime": 1
          },
          {
            "name": "F#4",
            "midi": 66,
            "time": 0.5,
            "velocity": 0.7086614173228346,
            "duration": 0.5,
            "frequency": 369.99442271163446,
            "pitch": 66,
            "startTime": 0.5,
            "endTime": 1
          },
          {
            "name": "A#4",
            "midi": 70,
            "time": 0.5,
            "velocity": 0.7086614173228346,
            "duration": 0.5,
            "frequency": 466.1637615180899,
            "pitch": 70,
            "startTime": 0.5,
            "endTime": 1
          },
          {
            "name": "F5",
            "midi": 77,
            "time": 0.5,
            "velocity": 0.7086614173228346,
            "duration": 0.5,
            "frequency": 698.4564628660078,
            "pitch": 76,
            "startTime": 0.5,
            "endTime": 1
          }
        ],
        "controlChanges": {},
        "id": 0,
        "channelNumber": 0,
        "isPercussion": false
      }
    ]
  },
  "prunus padus_french": {
    "header": {
      "PPQ": 128,
      "bpm": 120,
      "name": ""
    },
    "startTime": 0,
    "duration": 4.625,
    "tracks": [
      {
        "startTime": 0,
        "duration": 4.625,
        "length": 12,
        "notes": [
          {
            "name": "B4",
            "midi": 71,
            "time": 0,
            "velocity": 0.7086614173228346,
            "duration": 0.25,
            "frequency": 493.8833012561242,
            "pitch": 71,
            "startTime": 0,
            "endTime": 0.25
          },
          {
            "name": "D5",
            "midi": 74,
            "time": 0.25,
            "velocity": 0.7086614173228346,
            "duration": 0.25,
            "frequency": 587.3295358348151,
            "pitch": 74,
            "startTime": 0.25,
            "endTime": 0.5
          },
          {
            "name": "G5",
            "midi": 79,
            "time": 0.5,
            "velocity": 0.7086614173228346,
            "duration": 0.25,
            "frequency": 783.9908719634986,
            "pitch": 76,
            "startTime": 0.5,
            "endTime": 0.75
          },
          {
            "name": "G5",
            "midi": 79,
            "time": 0.75,
            "velocity": 0.7086614173228346,
            "duration": 0.5,
            "frequency": 783.9908719634986,
            "pitch": 76,
            "startTime": 0.75,
            "endTime": 1.25
          },
          {
            "name": "G5",
            "midi": 79,
            "time": 1.25,
            "velocity": 0.7086614173228346,
            "duration": 0.25,
            "frequency": 783.9908719634986,
            "pitch": 76,
            "startTime": 1.25,
            "endTime": 1.5
          },
          {
            "name": "E5",
            "midi": 76,
            "time": 1.5,
            "velocity": 0.7086614173228346,
            "duration": 0.25,
            "frequency": 659.2551138257398,
            "pitch": 76,
            "startTime": 1.5,
            "endTime": 1.75
          },
          {
            "name": "G5",
            "midi": 79,
            "time": 1.75,
            "velocity": 0.7086614173228346,
            "duration": 0.125,
            "frequency": 783.9908719634986,
            "pitch": 76,
            "startTime": 1.75,
            "endTime": 1.875
          },
          {
            "name": "B5",
            "midi": 83,
            "time": 1.875,
            "velocity": 0.7086614173228346,
            "duration": 0.25,
            "frequency": 987.7666025122484,
            "pitch": 76,
            "startTime": 1.875,
            "endTime": 2.125
          },
          {
            "name": "A5",
            "midi": 81,
            "time": 2.125,
            "velocity": 0.7086614173228346,
            "duration": 1,
            "frequency": 880,
            "pitch": 76,
            "startTime": 2.125,
            "endTime": 3.125
          },
          {
            "name": "D6",
            "midi": 86,
            "time": 3.125,
            "velocity": 0.7086614173228346,
            "duration": 1,
            "frequency": 1174.6590716696303,
            "pitch": 76,
            "startTime": 3.125,
            "endTime": 4.125
          },
          {
            "name": "G6",
            "midi": 91,
            "time": 4.125,
            "velocity": 0.7086614173228346,
            "duration": 0.25,
            "frequency": 1567.981743926997,
            "pitch": 76,
            "startTime": 4.125,
            "endTime": 4.375
          },
          {
            "name": "E6",
            "midi": 88,
            "time": 4.375,
            "velocity": 0.7086614173228346,
            "duration": 0.25,
            "frequency": 1318.5102276514797,
            "pitch": 76,
            "startTime": 4.375,
            "endTime": 4.625
          }
        ],
        "controlChanges": {},
        "id": 0,
        "channelNumber": 0,
        "isPercussion": false
      }
    ]
  },
  "prunus padus_keyboard": {
    "header": {
      "PPQ": 128,
      "bpm": 120,
      "name": ""
    },
    "startTime": 0,
    "duration": 1.5,
    "tracks": [
      {
        "startTime": 0,
        "duration": 1.5,
        "length": 12,
        "notes": [
          {
            "name": "D6",
            "midi": 86,
            "time": 0,
            "velocity": 0.7086614173228346,
            "duration": 0.125,
            "frequency": 1174.6590716696303,
            "pitch": 76,
            "startTime": 0,
            "endTime": 0.125
          },
          {
            "name": "D4",
            "midi": 62,
            "time": 0.125,
            "velocity": 0.7086614173228346,
            "duration": 0.125,
            "frequency": 293.6647679174076,
            "pitch": 62,
            "startTime": 0.125,
            "endTime": 0.25
          },
          {
            "name": "D5",
            "midi": 74,
            "time": 0.25,
            "velocity": 0.7086614173228346,
            "duration": 0.125,
            "frequency": 587.3295358348151,
            "pitch": 74,
            "startTime": 0.25,
            "endTime": 0.375
          },
          {
            "name": "C5",
            "midi": 72,
            "time": 0.375,
            "velocity": 0.7086614173228346,
            "duration": 0.125,
            "frequency": 523.2511306011972,
            "pitch": 72,
            "startTime": 0.375,
            "endTime": 0.5
          },
          {
            "name": "D5",
            "midi": 74,
            "time": 0.5,
            "velocity": 0.7086614173228346,
            "duration": 0.125,
            "frequency": 587.3295358348151,
            "pitch": 74,
            "startTime": 0.5,
            "endTime": 0.625
          },
          {
            "name": "F#3",
            "midi": 54,
            "time": 0.625,
            "velocity": 0.7086614173228346,
            "duration": 0.125,
            "frequency": 184.99721135581723,
            "pitch": 54,
            "startTime": 0.625,
            "endTime": 0.75
          },
          {
            "name": "C4",
            "midi": 60,
            "time": 0.75,
            "velocity": 0.7086614173228346,
            "duration": 0.125,
            "frequency": 261.6255653005986,
            "pitch": 60,
            "startTime": 0.75,
            "endTime": 0.875
          },
          {
            "name": "D6",
            "midi": 86,
            "time": 0.875,
            "velocity": 0.7086614173228346,
            "duration": 0.125,
            "frequency": 1174.6590716696303,
            "pitch": 76,
            "startTime": 0.875,
            "endTime": 1
          },
          {
            "name": "D3",
            "midi": 50,
            "time": 1,
            "velocity": 0.7086614173228346,
            "duration": 0.125,
            "frequency": 146.8323839587038,
            "pitch": 50,
            "startTime": 1,
            "endTime": 1.125
          },
          {
            "name": "A#3",
            "midi": 58,
            "time": 1.125,
            "velocity": 0.7086614173228346,
            "duration": 0.125,
            "frequency": 233.08188075904496,
            "pitch": 58,
            "startTime": 1.125,
            "endTime": 1.25
          },
          {
            "name": "D5",
            "midi": 74,
            "time": 1.25,
            "velocity": 0.7086614173228346,
            "duration": 0.125,
            "frequency": 587.3295358348151,
            "pitch": 74,
            "startTime": 1.25,
            "endTime": 1.375
          },
          {
            "name": "F#3",
            "midi": 54,
            "time": 1.375,
            "velocity": 0.7086614173228346,
            "duration": 0.125,
            "frequency": 184.99721135581723,
            "pitch": 54,
            "startTime": 1.375,
            "endTime": 1.5
          }
        ],
        "controlChanges": {},
        "id": 0,
        "channelNumber": 0,
        "isPercussion": false
      }
    ]
  },
  "prunus padus_chords": {
    "header": {
      "PPQ": 128,
      "bpm": 120,
      "name": ""
    },
    "startTime": 0,
    "duration": 1,
    "tracks": [
      {
        "startTime": 0,
        "duration": 1,
        "length": 11,
        "notes": [
          {
            "name": "F3",
            "midi": 53,
            "time": 0,
            "velocity": 0.7086614173228346,
            "duration": 0.5,
            "frequency": 174.61411571650194,
            "pitch": 53,
            "startTime": 0,
            "endTime": 0.5
          },
          {
            "name": "G3",
            "midi": 55,
            "time": 0,
            "velocity": 0.7086614173228346,
            "duration": 0.5,
            "frequency": 195.99771799087463,
            "pitch": 55,
            "startTime": 0,
            "endTime": 0.5
          },
          {
            "name": "A#3",
            "midi": 58,
            "time": 0,
            "velocity": 0.7086614173228346,
            "duration": 0.5,
            "frequency": 233.08188075904496,
            "pitch": 58,
            "startTime": 0,
            "endTime": 0.5
          },
          {
            "name": "F4",
            "midi": 65,
            "time": 0,
            "velocity": 0.7086614173228346,
            "duration": 0.5,
            "frequency": 349.2282314330039,
            "pitch": 65,
            "startTime": 0,
            "endTime": 0.5
          },
          {
            "name": "A#4",
            "midi": 70,
            "time": 0,
            "velocity": 0.7086614173228346,
            "duration": 0.5,
            "frequency": 466.1637615180899,
            "pitch": 70,
            "startTime": 0,
            "endTime": 0.5
          },
          {
            "name": "G5",
            "midi": 79,
            "time": 0,
            "velocity": 0.7086614173228346,
            "duration": 0.5,
            "frequency": 783.9908719634986,
            "pitch": 76,
            "startTime": 0,
            "endTime": 0.5
          },
          {
            "name": "F3",
            "midi": 53,
            "time": 0.5,
            "velocity": 0.7086614173228346,
            "duration": 0.5,
            "frequency": 174.61411571650194,
            "pitch": 53,
            "startTime": 0.5,
            "endTime": 1
          },
          {
            "name": "C#4",
            "midi": 61,
            "time": 0.5,
            "velocity": 0.7086614173228346,
            "duration": 0.5,
            "frequency": 277.1826309768721,
            "pitch": 61,
            "startTime": 0.5,
            "endTime": 1
          },
          {
            "name": "C5",
            "midi": 72,
            "time": 0.5,
            "velocity": 0.7086614173228346,
            "duration": 0.5,
            "frequency": 523.2511306011972,
            "pitch": 72,
            "startTime": 0.5,
            "endTime": 1
          },
          {
            "name": "A#5",
            "midi": 82,
            "time": 0.5,
            "velocity": 0.7086614173228346,
            "duration": 0.5,
            "frequency": 932.3275230361799,
            "pitch": 76,
            "startTime": 0.5,
            "endTime": 1
          },
          {
            "name": "G6",
            "midi": 91,
            "time": 0.5,
            "velocity": 0.7086614173228346,
            "duration": 0.5,
            "frequency": 1567.981743926997,
            "pitch": 76,
            "startTime": 0.5,
            "endTime": 1
          }
        ],
        "controlChanges": {},
        "id": 0,
        "channelNumber": 0,
        "isPercussion": false
      }
    ]
  },
  "pterocarya fraxinifolia_french": {
    "header": {
      "PPQ": 128,
      "bpm": 120,
      "name": ""
    },
    "startTime": 0,
    "duration": 12.625,
    "tracks": [
      {
        "startTime": 0,
        "duration": 12.625,
        "length": 23,
        "notes": [
          {
            "name": "B4",
            "midi": 71,
            "time": 0,
            "velocity": 0.7086614173228346,
            "duration": 0.25,
            "frequency": 493.8833012561242,
            "pitch": 71,
            "startTime": 0,
            "endTime": 0.25
          },
          {
            "name": "F4",
            "midi": 65,
            "time": 0.25,
            "velocity": 0.7086614173228346,
            "duration": 0.25,
            "frequency": 349.2282314330039,
            "pitch": 65,
            "startTime": 0.25,
            "endTime": 0.5
          },
          {
            "name": "E4",
            "midi": 64,
            "time": 0.5,
            "velocity": 0.7086614173228346,
            "duration": 1,
            "frequency": 329.6275569128699,
            "pitch": 64,
            "startTime": 0.5,
            "endTime": 1.5
          },
          {
            "name": "D4",
            "midi": 62,
            "time": 1.5,
            "velocity": 0.7086614173228346,
            "duration": 0.25,
            "frequency": 293.6647679174076,
            "pitch": 62,
            "startTime": 1.5,
            "endTime": 1.75
          },
          {
            "name": "A3",
            "midi": 57,
            "time": 1.75,
            "velocity": 0.7086614173228346,
            "duration": 0.25,
            "frequency": 220,
            "pitch": 57,
            "startTime": 1.75,
            "endTime": 2
          },
          {
            "name": "C4",
            "midi": 60,
            "time": 2,
            "velocity": 0.7086614173228346,
            "duration": 1,
            "frequency": 261.6255653005986,
            "pitch": 60,
            "startTime": 2,
            "endTime": 3
          },
          {
            "name": "A3",
            "midi": 57,
            "time": 3,
            "velocity": 0.7086614173228346,
            "duration": 1,
            "frequency": 220,
            "pitch": 57,
            "startTime": 3,
            "endTime": 4
          },
          {
            "name": "D4",
            "midi": 62,
            "time": 4,
            "velocity": 0.7086614173228346,
            "duration": 0.25,
            "frequency": 293.6647679174076,
            "pitch": 62,
            "startTime": 4,
            "endTime": 4.25
          },
          {
            "name": "D4",
            "midi": 62,
            "time": 4.25,
            "velocity": 0.7086614173228346,
            "duration": 0.125,
            "frequency": 293.6647679174076,
            "pitch": 62,
            "startTime": 4.25,
            "endTime": 4.375
          },
          {
            "name": "A3",
            "midi": 57,
            "time": 4.375,
            "velocity": 0.7086614173228346,
            "duration": 1,
            "frequency": 220,
            "pitch": 57,
            "startTime": 4.375,
            "endTime": 5.375
          },
          {
            "name": "G3",
            "midi": 55,
            "time": 5.375,
            "velocity": 0.7086614173228346,
            "duration": 0.125,
            "frequency": 195.99771799087463,
            "pitch": 55,
            "startTime": 5.375,
            "endTime": 5.5
          },
          {
            "name": "F3",
            "midi": 53,
            "time": 5.5,
            "velocity": 0.7086614173228346,
            "duration": 1,
            "frequency": 174.61411571650194,
            "pitch": 53,
            "startTime": 5.5,
            "endTime": 6.5
          },
          {
            "name": "D3",
            "midi": 50,
            "time": 6.5,
            "velocity": 0.7086614173228346,
            "duration": 0.25,
            "frequency": 146.8323839587038,
            "pitch": 50,
            "startTime": 6.5,
            "endTime": 6.75
          },
          {
            "name": "A2",
            "midi": 45,
            "time": 6.75,
            "velocity": 0.7086614173228346,
            "duration": 1,
            "frequency": 110,
            "pitch": 45,
            "startTime": 6.75,
            "endTime": 7.75
          },
          {
            "name": "C3",
            "midi": 48,
            "time": 7.75,
            "velocity": 0.7086614173228346,
            "duration": 0.125,
            "frequency": 130.8127826502993,
            "pitch": 48,
            "startTime": 7.75,
            "endTime": 7.875
          },
          {
            "name": "B2",
            "midi": 47,
            "time": 7.875,
            "velocity": 0.7086614173228346,
            "duration": 0.5,
            "frequency": 123.47082531403105,
            "pitch": 47,
            "startTime": 7.875,
            "endTime": 8.375
          },
          {
            "name": "G2",
            "midi": 43,
            "time": 8.375,
            "velocity": 0.7086614173228346,
            "duration": 0.5,
            "frequency": 97.99885899543733,
            "pitch": 43,
            "startTime": 8.375,
            "endTime": 8.875
          },
          {
            "name": "B2",
            "midi": 47,
            "time": 8.875,
            "velocity": 0.7086614173228346,
            "duration": 0.5,
            "frequency": 123.47082531403105,
            "pitch": 47,
            "startTime": 8.875,
            "endTime": 9.375
          },
          {
            "name": "F2",
            "midi": 41,
            "time": 9.375,
            "velocity": 0.7086614173228346,
            "duration": 1,
            "frequency": 87.30705785825097,
            "pitch": 41,
            "startTime": 9.375,
            "endTime": 10.375
          },
          {
            "name": "A2",
            "midi": 45,
            "time": 10.375,
            "velocity": 0.7086614173228346,
            "duration": 0.25,
            "frequency": 110,
            "pitch": 45,
            "startTime": 10.375,
            "endTime": 10.625
          },
          {
            "name": "E2",
            "midi": 40,
            "time": 10.625,
            "velocity": 0.7086614173228346,
            "duration": 0.5,
            "frequency": 82.40688922821748,
            "pitch": 40,
            "startTime": 10.625,
            "endTime": 11.125
          },
          {
            "name": "B1",
            "midi": 35,
            "time": 11.125,
            "velocity": 0.7086614173228346,
            "duration": 0.5,
            "frequency": 61.73541265701551,
            "pitch": 35,
            "startTime": 11.125,
            "endTime": 11.625
          },
          {
            "name": "A1",
            "midi": 33,
            "time": 11.625,
            "velocity": 0.7086614173228346,
            "duration": 1,
            "frequency": 55,
            "pitch": 33,
            "startTime": 11.625,
            "endTime": 12.625
          }
        ],
        "controlChanges": {},
        "id": 0,
        "channelNumber": 0,
        "isPercussion": false
      }
    ]
  },
  "pterocarya fraxinifolia_keyboard": {
    "header": {
      "PPQ": 128,
      "bpm": 120,
      "name": ""
    },
    "startTime": 0,
    "duration": 2.875,
    "tracks": [
      {
        "startTime": 0,
        "duration": 2.875,
        "length": 23,
        "notes": [
          {
            "name": "D6",
            "midi": 86,
            "time": 0,
            "velocity": 0.7086614173228346,
            "duration": 0.125,
            "frequency": 1174.6590716696303,
            "pitch": 76,
            "startTime": 0,
            "endTime": 0.125
          },
          {
            "name": "F#4",
            "midi": 66,
            "time": 0.125,
            "velocity": 0.7086614173228346,
            "duration": 0.125,
            "frequency": 369.99442271163446,
            "pitch": 66,
            "startTime": 0.125,
            "endTime": 0.25
          },
          {
            "name": "A3",
            "midi": 57,
            "time": 0.25,
            "velocity": 0.7086614173228346,
            "duration": 0.125,
            "frequency": 220,
            "pitch": 57,
            "startTime": 0.25,
            "endTime": 0.375
          },
          {
            "name": "D4",
            "midi": 62,
            "time": 0.375,
            "velocity": 0.7086614173228346,
            "duration": 0.125,
            "frequency": 293.6647679174076,
            "pitch": 62,
            "startTime": 0.375,
            "endTime": 0.5
          },
          {
            "name": "A#5",
            "midi": 82,
            "time": 0.5,
            "velocity": 0.7086614173228346,
            "duration": 0.125,
            "frequency": 932.3275230361799,
            "pitch": 76,
            "startTime": 0.5,
            "endTime": 0.625
          },
          {
            "name": "B3",
            "midi": 59,
            "time": 0.625,
            "velocity": 0.7086614173228346,
            "duration": 0.125,
            "frequency": 246.9416506280621,
            "pitch": 59,
            "startTime": 0.625,
            "endTime": 0.75
          },
          {
            "name": "D3",
            "midi": 50,
            "time": 0.75,
            "velocity": 0.7086614173228346,
            "duration": 0.125,
            "frequency": 146.8323839587038,
            "pitch": 50,
            "startTime": 0.75,
            "endTime": 0.875
          },
          {
            "name": "D4",
            "midi": 62,
            "time": 0.875,
            "velocity": 0.7086614173228346,
            "duration": 0.125,
            "frequency": 293.6647679174076,
            "pitch": 62,
            "startTime": 0.875,
            "endTime": 1
          },
          {
            "name": "A#4",
            "midi": 70,
            "time": 1,
            "velocity": 0.7086614173228346,
            "duration": 0.125,
            "frequency": 466.1637615180899,
            "pitch": 70,
            "startTime": 1,
            "endTime": 1.125
          },
          {
            "name": "D3",
            "midi": 50,
            "time": 1.125,
            "velocity": 0.7086614173228346,
            "duration": 0.125,
            "frequency": 146.8323839587038,
            "pitch": 50,
            "startTime": 1.125,
            "endTime": 1.25
          },
          {
            "name": "C4",
            "midi": 60,
            "time": 1.25,
            "velocity": 0.7086614173228346,
            "duration": 0.125,
            "frequency": 261.6255653005986,
            "pitch": 60,
            "startTime": 1.25,
            "endTime": 1.375
          },
          {
            "name": "D#4",
            "midi": 63,
            "time": 1.375,
            "velocity": 0.7086614173228346,
            "duration": 0.125,
            "frequency": 311.12698372208087,
            "pitch": 63,
            "startTime": 1.375,
            "endTime": 1.5
          },
          {
            "name": "D4",
            "midi": 62,
            "time": 1.5,
            "velocity": 0.7086614173228346,
            "duration": 0.125,
            "frequency": 293.6647679174076,
            "pitch": 62,
            "startTime": 1.5,
            "endTime": 1.625
          },
          {
            "name": "D3",
            "midi": 50,
            "time": 1.625,
            "velocity": 0.7086614173228346,
            "duration": 0.125,
            "frequency": 146.8323839587038,
            "pitch": 50,
            "startTime": 1.625,
            "endTime": 1.75
          },
          {
            "name": "G3",
            "midi": 55,
            "time": 1.75,
            "velocity": 0.7086614173228346,
            "duration": 0.125,
            "frequency": 195.99771799087463,
            "pitch": 55,
            "startTime": 1.75,
            "endTime": 1.875
          },
          {
            "name": "F#5",
            "midi": 78,
            "time": 1.875,
            "velocity": 0.7086614173228346,
            "duration": 0.125,
            "frequency": 739.9888454232689,
            "pitch": 76,
            "startTime": 1.875,
            "endTime": 2
          },
          {
            "name": "C5",
            "midi": 72,
            "time": 2,
            "velocity": 0.7086614173228346,
            "duration": 0.125,
            "frequency": 523.2511306011972,
            "pitch": 72,
            "startTime": 2,
            "endTime": 2.125
          },
          {
            "name": "F#5",
            "midi": 78,
            "time": 2.125,
            "velocity": 0.7086614173228346,
            "duration": 0.125,
            "frequency": 739.9888454232689,
            "pitch": 76,
            "startTime": 2.125,
            "endTime": 2.25
          },
          {
            "name": "D#4",
            "midi": 63,
            "time": 2.25,
            "velocity": 0.7086614173228346,
            "duration": 0.125,
            "frequency": 311.12698372208087,
            "pitch": 63,
            "startTime": 2.25,
            "endTime": 2.375
          },
          {
            "name": "A#5",
            "midi": 82,
            "time": 2.375,
            "velocity": 0.7086614173228346,
            "duration": 0.125,
            "frequency": 932.3275230361799,
            "pitch": 76,
            "startTime": 2.375,
            "endTime": 2.5
          },
          {
            "name": "B5",
            "midi": 83,
            "time": 2.5,
            "velocity": 0.7086614173228346,
            "duration": 0.125,
            "frequency": 987.7666025122484,
            "pitch": 76,
            "startTime": 2.5,
            "endTime": 2.625
          },
          {
            "name": "F#5",
            "midi": 78,
            "time": 2.625,
            "velocity": 0.7086614173228346,
            "duration": 0.125,
            "frequency": 739.9888454232689,
            "pitch": 76,
            "startTime": 2.625,
            "endTime": 2.75
          },
          {
            "name": "D3",
            "midi": 50,
            "time": 2.75,
            "velocity": 0.7086614173228346,
            "duration": 0.125,
            "frequency": 146.8323839587038,
            "pitch": 50,
            "startTime": 2.75,
            "endTime": 2.875
          }
        ],
        "controlChanges": {},
        "id": 0,
        "channelNumber": 0,
        "isPercussion": false
      }
    ]
  },
  "pterocarya fraxinifolia_chords": {
    "header": {
      "PPQ": 128,
      "bpm": 120,
      "name": ""
    },
    "startTime": 0,
    "duration": 1,
    "tracks": [
      {
        "startTime": 0,
        "duration": 1,
        "length": 22,
        "notes": [
          {
            "name": "F3",
            "midi": 53,
            "time": 0,
            "velocity": 0.7086614173228346,
            "duration": 0.5,
            "frequency": 174.61411571650194,
            "pitch": 53,
            "startTime": 0,
            "endTime": 0.5
          },
          {
            "name": "A3",
            "midi": 57,
            "time": 0,
            "velocity": 0.7086614173228346,
            "duration": 0.5,
            "frequency": 220,
            "pitch": 57,
            "startTime": 0,
            "endTime": 0.5
          },
          {
            "name": "D#4",
            "midi": 63,
            "time": 0,
            "velocity": 0.7086614173228346,
            "duration": 0.5,
            "frequency": 311.12698372208087,
            "pitch": 63,
            "startTime": 0,
            "endTime": 0.5
          },
          {
            "name": "G4",
            "midi": 67,
            "time": 0,
            "velocity": 0.7086614173228346,
            "duration": 0.5,
            "frequency": 391.99543598174927,
            "pitch": 67,
            "startTime": 0,
            "endTime": 0.5
          },
          {
            "name": "G#4",
            "midi": 68,
            "time": 0,
            "velocity": 0.7086614173228346,
            "duration": 0.5,
            "frequency": 415.3046975799451,
            "pitch": 68,
            "startTime": 0,
            "endTime": 0.5
          },
          {
            "name": "C5",
            "midi": 72,
            "time": 0,
            "velocity": 0.7086614173228346,
            "duration": 0.5,
            "frequency": 523.2511306011972,
            "pitch": 72,
            "startTime": 0,
            "endTime": 0.5
          },
          {
            "name": "C#5",
            "midi": 73,
            "time": 0,
            "velocity": 0.7086614173228346,
            "duration": 0.5,
            "frequency": 554.3652619537442,
            "pitch": 73,
            "startTime": 0,
            "endTime": 0.5
          },
          {
            "name": "G5",
            "midi": 79,
            "time": 0,
            "velocity": 0.7086614173228346,
            "duration": 0.5,
            "frequency": 783.9908719634986,
            "pitch": 76,
            "startTime": 0,
            "endTime": 0.5
          },
          {
            "name": "B5",
            "midi": 83,
            "time": 0,
            "velocity": 0.7086614173228346,
            "duration": 0.5,
            "frequency": 987.7666025122484,
            "pitch": 76,
            "startTime": 0,
            "endTime": 0.5
          },
          {
            "name": "C#6",
            "midi": 85,
            "time": 0,
            "velocity": 0.7086614173228346,
            "duration": 0.5,
            "frequency": 1108.7305239074883,
            "pitch": 76,
            "startTime": 0,
            "endTime": 0.5
          },
          {
            "name": "D3",
            "midi": 50,
            "time": 0.5,
            "velocity": 0.7086614173228346,
            "duration": 0.5,
            "frequency": 146.8323839587038,
            "pitch": 50,
            "startTime": 0.5,
            "endTime": 1
          },
          {
            "name": "G3",
            "midi": 55,
            "time": 0.5,
            "velocity": 0.7086614173228346,
            "duration": 0.5,
            "frequency": 195.99771799087463,
            "pitch": 55,
            "startTime": 0.5,
            "endTime": 1
          },
          {
            "name": "C#4",
            "midi": 61,
            "time": 0.5,
            "velocity": 0.7086614173228346,
            "duration": 0.5,
            "frequency": 277.1826309768721,
            "pitch": 61,
            "startTime": 0.5,
            "endTime": 1
          },
          {
            "name": "B4",
            "midi": 71,
            "time": 0.5,
            "velocity": 0.7086614173228346,
            "duration": 0.5,
            "frequency": 493.8833012561242,
            "pitch": 71,
            "startTime": 0.5,
            "endTime": 1
          },
          {
            "name": "F#5",
            "midi": 78,
            "time": 0.5,
            "velocity": 0.7086614173228346,
            "duration": 0.5,
            "frequency": 739.9888454232689,
            "pitch": 76,
            "startTime": 0.5,
            "endTime": 1
          },
          {
            "name": "F6",
            "midi": 89,
            "time": 0.5,
            "velocity": 0.7086614173228346,
            "duration": 0.5,
            "frequency": 1396.9129257320155,
            "pitch": 76,
            "startTime": 0.5,
            "endTime": 1
          },
          {
            "name": "F#6",
            "midi": 90,
            "time": 0.5,
            "velocity": 0.7086614173228346,
            "duration": 0.5,
            "frequency": 1479.9776908465378,
            "pitch": 76,
            "startTime": 0.5,
            "endTime": 1
          },
          {
            "name": "D7",
            "midi": 98,
            "time": 0.5,
            "velocity": 0.7086614173228346,
            "duration": 0.5,
            "frequency": 2349.31814333926,
            "pitch": 76,
            "startTime": 0.5,
            "endTime": 1
          },
          {
            "name": "G#7",
            "midi": 104,
            "time": 0.5,
            "velocity": 0.7086614173228346,
            "duration": 0.5,
            "frequency": 3322.437580639561,
            "pitch": 76,
            "startTime": 0.5,
            "endTime": 1
          },
          {
            "name": "E8",
            "midi": 112,
            "time": 0.5,
            "velocity": 0.7086614173228346,
            "duration": 0.5,
            "frequency": 5274.040910605919,
            "pitch": 76,
            "startTime": 0.5,
            "endTime": 1
          },
          {
            "name": "F#8",
            "midi": 114,
            "time": 0.5,
            "velocity": 0.7086614173228346,
            "duration": 0.5,
            "frequency": 5919.910763386151,
            "pitch": 76,
            "startTime": 0.5,
            "endTime": 1
          },
          {
            "name": "C#9",
            "midi": 121,
            "time": 0.5,
            "velocity": 0.7086614173228346,
            "duration": 0.5,
            "frequency": 8869.844191259906,
            "pitch": 76,
            "startTime": 0.5,
            "endTime": 1
          }
        ],
        "controlChanges": {},
        "id": 0,
        "channelNumber": 0,
        "isPercussion": false
      }
    ]
  },
  "pyrus communis_french": {
    "header": {
      "PPQ": 128,
      "bpm": 120,
      "name": ""
    },
    "startTime": 0,
    "duration": 5,
    "tracks": [
      {
        "startTime": 0,
        "duration": 5,
        "length": 14,
        "notes": [
          {
            "name": "B4",
            "midi": 71,
            "time": 0,
            "velocity": 0.7086614173228346,
            "duration": 0.25,
            "frequency": 493.8833012561242,
            "pitch": 71,
            "startTime": 0,
            "endTime": 0.25
          },
          {
            "name": "D5",
            "midi": 74,
            "time": 0.25,
            "velocity": 0.7086614173228346,
            "duration": 0.125,
            "frequency": 587.3295358348151,
            "pitch": 74,
            "startTime": 0.25,
            "endTime": 0.375
          },
          {
            "name": "D5",
            "midi": 74,
            "time": 0.375,
            "velocity": 0.7086614173228346,
            "duration": 0.25,
            "frequency": 587.3295358348151,
            "pitch": 74,
            "startTime": 0.375,
            "endTime": 0.625
          },
          {
            "name": "G5",
            "midi": 79,
            "time": 0.625,
            "velocity": 0.7086614173228346,
            "duration": 0.25,
            "frequency": 783.9908719634986,
            "pitch": 76,
            "startTime": 0.625,
            "endTime": 0.875
          },
          {
            "name": "E5",
            "midi": 76,
            "time": 0.875,
            "velocity": 0.7086614173228346,
            "duration": 0.25,
            "frequency": 659.2551138257398,
            "pitch": 76,
            "startTime": 0.875,
            "endTime": 1.125
          },
          {
            "name": "G5",
            "midi": 79,
            "time": 1.125,
            "velocity": 0.7086614173228346,
            "duration": 0.125,
            "frequency": 783.9908719634986,
            "pitch": 76,
            "startTime": 1.125,
            "endTime": 1.25
          },
          {
            "name": "C6",
            "midi": 84,
            "time": 1.25,
            "velocity": 0.7086614173228346,
            "duration": 1,
            "frequency": 1046.5022612023945,
            "pitch": 76,
            "startTime": 1.25,
            "endTime": 2.25
          },
          {
            "name": "A5",
            "midi": 81,
            "time": 2.25,
            "velocity": 0.7086614173228346,
            "duration": 0.25,
            "frequency": 880,
            "pitch": 76,
            "startTime": 2.25,
            "endTime": 2.5
          },
          {
            "name": "F5",
            "midi": 77,
            "time": 2.5,
            "velocity": 0.7086614173228346,
            "duration": 0.5,
            "frequency": 698.4564628660078,
            "pitch": 76,
            "startTime": 2.5,
            "endTime": 3
          },
          {
            "name": "F5",
            "midi": 77,
            "time": 3,
            "velocity": 0.7086614173228346,
            "duration": 0.5,
            "frequency": 698.4564628660078,
            "pitch": 76,
            "startTime": 3,
            "endTime": 3.5
          },
          {
            "name": "G5",
            "midi": 79,
            "time": 3.5,
            "velocity": 0.7086614173228346,
            "duration": 0.25,
            "frequency": 783.9908719634986,
            "pitch": 76,
            "startTime": 3.5,
            "endTime": 3.75
          },
          {
            "name": "G5",
            "midi": 79,
            "time": 3.75,
            "velocity": 0.7086614173228346,
            "duration": 0.5,
            "frequency": 783.9908719634986,
            "pitch": 76,
            "startTime": 3.75,
            "endTime": 4.25
          },
          {
            "name": "B5",
            "midi": 83,
            "time": 4.25,
            "velocity": 0.7086614173228346,
            "duration": 0.5,
            "frequency": 987.7666025122484,
            "pitch": 76,
            "startTime": 4.25,
            "endTime": 4.75
          },
          {
            "name": "E6",
            "midi": 88,
            "time": 4.75,
            "velocity": 0.7086614173228346,
            "duration": 0.25,
            "frequency": 1318.5102276514797,
            "pitch": 76,
            "startTime": 4.75,
            "endTime": 5
          }
        ],
        "controlChanges": {},
        "id": 0,
        "channelNumber": 0,
        "isPercussion": false
      }
    ]
  },
  "pyrus communis_keyboard": {
    "header": {
      "PPQ": 128,
      "bpm": 120,
      "name": ""
    },
    "startTime": 0,
    "duration": 1.75,
    "tracks": [
      {
        "startTime": 0,
        "duration": 1.75,
        "length": 14,
        "notes": [
          {
            "name": "D6",
            "midi": 86,
            "time": 0,
            "velocity": 0.7086614173228346,
            "duration": 0.125,
            "frequency": 1174.6590716696303,
            "pitch": 76,
            "startTime": 0,
            "endTime": 0.125
          },
          {
            "name": "A#4",
            "midi": 70,
            "time": 0.125,
            "velocity": 0.7086614173228346,
            "duration": 0.125,
            "frequency": 466.1637615180899,
            "pitch": 70,
            "startTime": 0.125,
            "endTime": 0.25
          },
          {
            "name": "D4",
            "midi": 62,
            "time": 0.25,
            "velocity": 0.7086614173228346,
            "duration": 0.125,
            "frequency": 293.6647679174076,
            "pitch": 62,
            "startTime": 0.25,
            "endTime": 0.375
          },
          {
            "name": "D5",
            "midi": 74,
            "time": 0.375,
            "velocity": 0.7086614173228346,
            "duration": 0.125,
            "frequency": 587.3295358348151,
            "pitch": 74,
            "startTime": 0.375,
            "endTime": 0.5
          },
          {
            "name": "F#3",
            "midi": 54,
            "time": 0.5,
            "velocity": 0.7086614173228346,
            "duration": 0.125,
            "frequency": 184.99721135581723,
            "pitch": 54,
            "startTime": 0.5,
            "endTime": 0.625
          },
          {
            "name": "C4",
            "midi": 60,
            "time": 0.625,
            "velocity": 0.7086614173228346,
            "duration": 0.125,
            "frequency": 261.6255653005986,
            "pitch": 60,
            "startTime": 0.625,
            "endTime": 0.75
          },
          {
            "name": "B3",
            "midi": 59,
            "time": 0.75,
            "velocity": 0.7086614173228346,
            "duration": 0.125,
            "frequency": 246.9416506280621,
            "pitch": 59,
            "startTime": 0.75,
            "endTime": 0.875
          },
          {
            "name": "A#5",
            "midi": 82,
            "time": 0.875,
            "velocity": 0.7086614173228346,
            "duration": 0.125,
            "frequency": 932.3275230361799,
            "pitch": 76,
            "startTime": 0.875,
            "endTime": 1
          },
          {
            "name": "E5",
            "midi": 76,
            "time": 1,
            "velocity": 0.7086614173228346,
            "duration": 0.125,
            "frequency": 659.2551138257398,
            "pitch": 76,
            "startTime": 1,
            "endTime": 1.125
          },
          {
            "name": "E5",
            "midi": 76,
            "time": 1.125,
            "velocity": 0.7086614173228346,
            "duration": 0.125,
            "frequency": 659.2551138257398,
            "pitch": 76,
            "startTime": 1.125,
            "endTime": 1.25
          },
          {
            "name": "D5",
            "midi": 74,
            "time": 1.25,
            "velocity": 0.7086614173228346,
            "duration": 0.125,
            "frequency": 587.3295358348151,
            "pitch": 74,
            "startTime": 1.25,
            "endTime": 1.375
          },
          {
            "name": "C5",
            "midi": 72,
            "time": 1.375,
            "velocity": 0.7086614173228346,
            "duration": 0.125,
            "frequency": 523.2511306011972,
            "pitch": 72,
            "startTime": 1.375,
            "endTime": 1.5
          },
          {
            "name": "F#5",
            "midi": 78,
            "time": 1.5,
            "velocity": 0.7086614173228346,
            "duration": 0.125,
            "frequency": 739.9888454232689,
            "pitch": 76,
            "startTime": 1.5,
            "endTime": 1.625
          },
          {
            "name": "F#3",
            "midi": 54,
            "time": 1.625,
            "velocity": 0.7086614173228346,
            "duration": 0.125,
            "frequency": 184.99721135581723,
            "pitch": 54,
            "startTime": 1.625,
            "endTime": 1.75
          }
        ],
        "controlChanges": {},
        "id": 0,
        "channelNumber": 0,
        "isPercussion": false
      }
    ]
  },
  "pyrus communis_chords": {
    "header": {
      "PPQ": 128,
      "bpm": 120,
      "name": ""
    },
    "startTime": 0,
    "duration": 1,
    "tracks": [
      {
        "startTime": 0,
        "duration": 1,
        "length": 13,
        "notes": [
          {
            "name": "F3",
            "midi": 53,
            "time": 0,
            "velocity": 0.7086614173228346,
            "duration": 0.5,
            "frequency": 174.61411571650194,
            "pitch": 53,
            "startTime": 0,
            "endTime": 0.5
          },
          {
            "name": "B3",
            "midi": 59,
            "time": 0,
            "velocity": 0.7086614173228346,
            "duration": 0.5,
            "frequency": 246.9416506280621,
            "pitch": 59,
            "startTime": 0,
            "endTime": 0.5
          },
          {
            "name": "G4",
            "midi": 67,
            "time": 0,
            "velocity": 0.7086614173228346,
            "duration": 0.5,
            "frequency": 391.99543598174927,
            "pitch": 67,
            "startTime": 0,
            "endTime": 0.5
          },
          {
            "name": "A#4",
            "midi": 70,
            "time": 0,
            "velocity": 0.7086614173228346,
            "duration": 0.5,
            "frequency": 466.1637615180899,
            "pitch": 70,
            "startTime": 0,
            "endTime": 0.5
          },
          {
            "name": "G5",
            "midi": 79,
            "time": 0,
            "velocity": 0.7086614173228346,
            "duration": 0.5,
            "frequency": 783.9908719634986,
            "pitch": 76,
            "startTime": 0,
            "endTime": 0.5
          },
          {
            "name": "C3",
            "midi": 48,
            "time": 0.5,
            "velocity": 0.7086614173228346,
            "duration": 0.5,
            "frequency": 130.8127826502993,
            "pitch": 48,
            "startTime": 0.5,
            "endTime": 1
          },
          {
            "name": "G#3",
            "midi": 56,
            "time": 0.5,
            "velocity": 0.7086614173228346,
            "duration": 0.5,
            "frequency": 207.65234878997256,
            "pitch": 56,
            "startTime": 0.5,
            "endTime": 1
          },
          {
            "name": "F4",
            "midi": 65,
            "time": 0.5,
            "velocity": 0.7086614173228346,
            "duration": 0.5,
            "frequency": 349.2282314330039,
            "pitch": 65,
            "startTime": 0.5,
            "endTime": 1
          },
          {
            "name": "F5",
            "midi": 77,
            "time": 0.5,
            "velocity": 0.7086614173228346,
            "duration": 0.5,
            "frequency": 698.4564628660078,
            "pitch": 76,
            "startTime": 0.5,
            "endTime": 1
          },
          {
            "name": "A#5",
            "midi": 82,
            "time": 0.5,
            "velocity": 0.7086614173228346,
            "duration": 0.5,
            "frequency": 932.3275230361799,
            "pitch": 76,
            "startTime": 0.5,
            "endTime": 1
          },
          {
            "name": "F6",
            "midi": 89,
            "time": 0.5,
            "velocity": 0.7086614173228346,
            "duration": 0.5,
            "frequency": 1396.9129257320155,
            "pitch": 76,
            "startTime": 0.5,
            "endTime": 1
          },
          {
            "name": "F#6",
            "midi": 90,
            "time": 0.5,
            "velocity": 0.7086614173228346,
            "duration": 0.5,
            "frequency": 1479.9776908465378,
            "pitch": 76,
            "startTime": 0.5,
            "endTime": 1
          },
          {
            "name": "G6",
            "midi": 91,
            "time": 0.5,
            "velocity": 0.7086614173228346,
            "duration": 0.5,
            "frequency": 1567.981743926997,
            "pitch": 76,
            "startTime": 0.5,
            "endTime": 1
          }
        ],
        "controlChanges": {},
        "id": 0,
        "channelNumber": 0,
        "isPercussion": false
      }
    ]
  },
  "quercus buckleyi_french": {
    "header": {
      "PPQ": 128,
      "bpm": 120,
      "name": ""
    },
    "startTime": 0,
    "duration": 8.25,
    "tracks": [
      {
        "startTime": 0,
        "duration": 8.25,
        "length": 16,
        "notes": [
          {
            "name": "C5",
            "midi": 72,
            "time": 0,
            "velocity": 0.7086614173228346,
            "duration": 0.25,
            "frequency": 523.2511306011972,
            "pitch": 72,
            "startTime": 0,
            "endTime": 0.25
          },
          {
            "name": "G4",
            "midi": 67,
            "time": 0.25,
            "velocity": 0.7086614173228346,
            "duration": 0.25,
            "frequency": 391.99543598174927,
            "pitch": 67,
            "startTime": 0.25,
            "endTime": 0.5
          },
          {
            "name": "E4",
            "midi": 64,
            "time": 0.5,
            "velocity": 0.7086614173228346,
            "duration": 1,
            "frequency": 329.6275569128699,
            "pitch": 64,
            "startTime": 0.5,
            "endTime": 1.5
          },
          {
            "name": "D4",
            "midi": 62,
            "time": 1.5,
            "velocity": 0.7086614173228346,
            "duration": 0.25,
            "frequency": 293.6647679174076,
            "pitch": 62,
            "startTime": 1.5,
            "endTime": 1.75
          },
          {
            "name": "C4",
            "midi": 60,
            "time": 1.75,
            "velocity": 0.7086614173228346,
            "duration": 1,
            "frequency": 261.6255653005986,
            "pitch": 60,
            "startTime": 1.75,
            "endTime": 2.75
          },
          {
            "name": "G3",
            "midi": 55,
            "time": 2.75,
            "velocity": 0.7086614173228346,
            "duration": 0.25,
            "frequency": 195.99771799087463,
            "pitch": 55,
            "startTime": 2.75,
            "endTime": 3
          },
          {
            "name": "E3",
            "midi": 52,
            "time": 3,
            "velocity": 0.7086614173228346,
            "duration": 0.25,
            "frequency": 164.81377845643496,
            "pitch": 52,
            "startTime": 3,
            "endTime": 3.25
          },
          {
            "name": "G3",
            "midi": 55,
            "time": 3.25,
            "velocity": 0.7086614173228346,
            "duration": 0.125,
            "frequency": 195.99771799087463,
            "pitch": 55,
            "startTime": 3.25,
            "endTime": 3.375
          },
          {
            "name": "B3",
            "midi": 59,
            "time": 3.375,
            "velocity": 0.7086614173228346,
            "duration": 1,
            "frequency": 246.9416506280621,
            "pitch": 59,
            "startTime": 3.375,
            "endTime": 4.375
          },
          {
            "name": "G3",
            "midi": 55,
            "time": 4.375,
            "velocity": 0.7086614173228346,
            "duration": 0.25,
            "frequency": 195.99771799087463,
            "pitch": 55,
            "startTime": 4.375,
            "endTime": 4.625
          },
          {
            "name": "C4",
            "midi": 60,
            "time": 4.625,
            "velocity": 0.7086614173228346,
            "duration": 1,
            "frequency": 261.6255653005986,
            "pitch": 60,
            "startTime": 4.625,
            "endTime": 5.625
          },
          {
            "name": "D4",
            "midi": 62,
            "time": 5.625,
            "velocity": 0.7086614173228346,
            "duration": 0.5,
            "frequency": 293.6647679174076,
            "pitch": 62,
            "startTime": 5.625,
            "endTime": 6.125
          },
          {
            "name": "E4",
            "midi": 64,
            "time": 6.125,
            "velocity": 0.7086614173228346,
            "duration": 0.5,
            "frequency": 329.6275569128699,
            "pitch": 64,
            "startTime": 6.125,
            "endTime": 6.625
          },
          {
            "name": "E4",
            "midi": 64,
            "time": 6.625,
            "velocity": 0.7086614173228346,
            "duration": 1,
            "frequency": 329.6275569128699,
            "pitch": 64,
            "startTime": 6.625,
            "endTime": 7.625
          },
          {
            "name": "D4",
            "midi": 62,
            "time": 7.625,
            "velocity": 0.7086614173228346,
            "duration": 0.125,
            "frequency": 293.6647679174076,
            "pitch": 62,
            "startTime": 7.625,
            "endTime": 7.75
          },
          {
            "name": "B3",
            "midi": 59,
            "time": 7.75,
            "velocity": 0.7086614173228346,
            "duration": 0.5,
            "frequency": 246.9416506280621,
            "pitch": 59,
            "startTime": 7.75,
            "endTime": 8.25
          }
        ],
        "controlChanges": {},
        "id": 0,
        "channelNumber": 0,
        "isPercussion": false
      }
    ]
  },
  "quercus buckleyi_keyboard": {
    "header": {
      "PPQ": 128,
      "bpm": 120,
      "name": ""
    },
    "startTime": 0,
    "duration": 2,
    "tracks": [
      {
        "startTime": 0,
        "duration": 2,
        "length": 16,
        "notes": [
          {
            "name": "C#3",
            "midi": 49,
            "time": 0,
            "velocity": 0.7086614173228346,
            "duration": 0.125,
            "frequency": 138.59131548843604,
            "pitch": 49,
            "startTime": 0,
            "endTime": 0.125
          },
          {
            "name": "D5",
            "midi": 74,
            "time": 0.125,
            "velocity": 0.7086614173228346,
            "duration": 0.125,
            "frequency": 587.3295358348151,
            "pitch": 74,
            "startTime": 0.125,
            "endTime": 0.25
          },
          {
            "name": "A3",
            "midi": 57,
            "time": 0.25,
            "velocity": 0.7086614173228346,
            "duration": 0.125,
            "frequency": 220,
            "pitch": 57,
            "startTime": 0.25,
            "endTime": 0.375
          },
          {
            "name": "D4",
            "midi": 62,
            "time": 0.375,
            "velocity": 0.7086614173228346,
            "duration": 0.125,
            "frequency": 293.6647679174076,
            "pitch": 62,
            "startTime": 0.375,
            "endTime": 0.5
          },
          {
            "name": "B3",
            "midi": 59,
            "time": 0.5,
            "velocity": 0.7086614173228346,
            "duration": 0.125,
            "frequency": 246.9416506280621,
            "pitch": 59,
            "startTime": 0.5,
            "endTime": 0.625
          },
          {
            "name": "D5",
            "midi": 74,
            "time": 0.625,
            "velocity": 0.7086614173228346,
            "duration": 0.125,
            "frequency": 587.3295358348151,
            "pitch": 74,
            "startTime": 0.625,
            "endTime": 0.75
          },
          {
            "name": "F#3",
            "midi": 54,
            "time": 0.75,
            "velocity": 0.7086614173228346,
            "duration": 0.125,
            "frequency": 184.99721135581723,
            "pitch": 54,
            "startTime": 0.75,
            "endTime": 0.875
          },
          {
            "name": "C4",
            "midi": 60,
            "time": 0.875,
            "velocity": 0.7086614173228346,
            "duration": 0.125,
            "frequency": 261.6255653005986,
            "pitch": 60,
            "startTime": 0.875,
            "endTime": 1
          },
          {
            "name": "G#4",
            "midi": 68,
            "time": 1,
            "velocity": 0.7086614173228346,
            "duration": 0.125,
            "frequency": 415.3046975799451,
            "pitch": 68,
            "startTime": 1,
            "endTime": 1.125
          },
          {
            "name": "D5",
            "midi": 74,
            "time": 1.125,
            "velocity": 0.7086614173228346,
            "duration": 0.125,
            "frequency": 587.3295358348151,
            "pitch": 74,
            "startTime": 1.125,
            "endTime": 1.25
          },
          {
            "name": "B3",
            "midi": 59,
            "time": 1.25,
            "velocity": 0.7086614173228346,
            "duration": 0.125,
            "frequency": 246.9416506280621,
            "pitch": 59,
            "startTime": 1.25,
            "endTime": 1.375
          },
          {
            "name": "G5",
            "midi": 79,
            "time": 1.375,
            "velocity": 0.7086614173228346,
            "duration": 0.125,
            "frequency": 783.9908719634986,
            "pitch": 76,
            "startTime": 1.375,
            "endTime": 1.5
          },
          {
            "name": "B5",
            "midi": 83,
            "time": 1.5,
            "velocity": 0.7086614173228346,
            "duration": 0.125,
            "frequency": 987.7666025122484,
            "pitch": 76,
            "startTime": 1.5,
            "endTime": 1.625
          },
          {
            "name": "A3",
            "midi": 57,
            "time": 1.625,
            "velocity": 0.7086614173228346,
            "duration": 0.125,
            "frequency": 220,
            "pitch": 57,
            "startTime": 1.625,
            "endTime": 1.75
          },
          {
            "name": "A#4",
            "midi": 70,
            "time": 1.75,
            "velocity": 0.7086614173228346,
            "duration": 0.125,
            "frequency": 466.1637615180899,
            "pitch": 70,
            "startTime": 1.75,
            "endTime": 1.875
          },
          {
            "name": "F#5",
            "midi": 78,
            "time": 1.875,
            "velocity": 0.7086614173228346,
            "duration": 0.125,
            "frequency": 739.9888454232689,
            "pitch": 76,
            "startTime": 1.875,
            "endTime": 2
          }
        ],
        "controlChanges": {},
        "id": 0,
        "channelNumber": 0,
        "isPercussion": false
      }
    ]
  },
  "quercus buckleyi_chords": {
    "header": {
      "PPQ": 128,
      "bpm": 120,
      "name": ""
    },
    "startTime": 0,
    "duration": 1,
    "tracks": [
      {
        "startTime": 0,
        "duration": 1,
        "length": 15,
        "notes": [
          {
            "name": "G3",
            "midi": 55,
            "time": 0,
            "velocity": 0.7086614173228346,
            "duration": 0.5,
            "frequency": 195.99771799087463,
            "pitch": 55,
            "startTime": 0,
            "endTime": 0.5
          },
          {
            "name": "A#3",
            "midi": 58,
            "time": 0,
            "velocity": 0.7086614173228346,
            "duration": 0.5,
            "frequency": 233.08188075904496,
            "pitch": 58,
            "startTime": 0,
            "endTime": 0.5
          },
          {
            "name": "D#4",
            "midi": 63,
            "time": 0,
            "velocity": 0.7086614173228346,
            "duration": 0.5,
            "frequency": 311.12698372208087,
            "pitch": 63,
            "startTime": 0,
            "endTime": 0.5
          },
          {
            "name": "G4",
            "midi": 67,
            "time": 0,
            "velocity": 0.7086614173228346,
            "duration": 0.5,
            "frequency": 391.99543598174927,
            "pitch": 67,
            "startTime": 0,
            "endTime": 0.5
          },
          {
            "name": "C5",
            "midi": 72,
            "time": 0,
            "velocity": 0.7086614173228346,
            "duration": 0.5,
            "frequency": 523.2511306011972,
            "pitch": 72,
            "startTime": 0,
            "endTime": 0.5
          },
          {
            "name": "A#5",
            "midi": 82,
            "time": 0,
            "velocity": 0.7086614173228346,
            "duration": 0.5,
            "frequency": 932.3275230361799,
            "pitch": 76,
            "startTime": 0,
            "endTime": 0.5
          },
          {
            "name": "G6",
            "midi": 91,
            "time": 0,
            "velocity": 0.7086614173228346,
            "duration": 0.5,
            "frequency": 1567.981743926997,
            "pitch": 76,
            "startTime": 0,
            "endTime": 0.5
          },
          {
            "name": "C3",
            "midi": 48,
            "time": 0.5,
            "velocity": 0.7086614173228346,
            "duration": 0.5,
            "frequency": 130.8127826502993,
            "pitch": 48,
            "startTime": 0.5,
            "endTime": 1
          },
          {
            "name": "A#3",
            "midi": 58,
            "time": 0.5,
            "velocity": 0.7086614173228346,
            "duration": 0.5,
            "frequency": 233.08188075904496,
            "pitch": 58,
            "startTime": 0.5,
            "endTime": 1
          },
          {
            "name": "C4",
            "midi": 60,
            "time": 0.5,
            "velocity": 0.7086614173228346,
            "duration": 0.5,
            "frequency": 261.6255653005986,
            "pitch": 60,
            "startTime": 0.5,
            "endTime": 1
          },
          {
            "name": "E4",
            "midi": 64,
            "time": 0.5,
            "velocity": 0.7086614173228346,
            "duration": 0.5,
            "frequency": 329.6275569128699,
            "pitch": 64,
            "startTime": 0.5,
            "endTime": 1
          },
          {
            "name": "E5",
            "midi": 76,
            "time": 0.5,
            "velocity": 0.7086614173228346,
            "duration": 0.5,
            "frequency": 659.2551138257398,
            "pitch": 76,
            "startTime": 0.5,
            "endTime": 1
          },
          {
            "name": "D#6",
            "midi": 87,
            "time": 0.5,
            "velocity": 0.7086614173228346,
            "duration": 0.5,
            "frequency": 1244.5079348883235,
            "pitch": 76,
            "startTime": 0.5,
            "endTime": 1
          },
          {
            "name": "B6",
            "midi": 95,
            "time": 0.5,
            "velocity": 0.7086614173228346,
            "duration": 0.5,
            "frequency": 1975.5332050244963,
            "pitch": 76,
            "startTime": 0.5,
            "endTime": 1
          },
          {
            "name": "F#7",
            "midi": 102,
            "time": 0.5,
            "velocity": 0.7086614173228346,
            "duration": 0.5,
            "frequency": 2959.9553816930757,
            "pitch": 76,
            "startTime": 0.5,
            "endTime": 1
          }
        ],
        "controlChanges": {},
        "id": 0,
        "channelNumber": 0,
        "isPercussion": false
      }
    ]
  },
  "quercus cerris_french": {
    "header": {
      "PPQ": 128,
      "bpm": 120,
      "name": ""
    },
    "startTime": 0,
    "duration": 6.625,
    "tracks": [
      {
        "startTime": 0,
        "duration": 6.625,
        "length": 14,
        "notes": [
          {
            "name": "C5",
            "midi": 72,
            "time": 0,
            "velocity": 0.7086614173228346,
            "duration": 0.25,
            "frequency": 523.2511306011972,
            "pitch": 72,
            "startTime": 0,
            "endTime": 0.25
          },
          {
            "name": "G4",
            "midi": 67,
            "time": 0.25,
            "velocity": 0.7086614173228346,
            "duration": 0.25,
            "frequency": 391.99543598174927,
            "pitch": 67,
            "startTime": 0.25,
            "endTime": 0.5
          },
          {
            "name": "E4",
            "midi": 64,
            "time": 0.5,
            "velocity": 0.7086614173228346,
            "duration": 1,
            "frequency": 329.6275569128699,
            "pitch": 64,
            "startTime": 0.5,
            "endTime": 1.5
          },
          {
            "name": "D4",
            "midi": 62,
            "time": 1.5,
            "velocity": 0.7086614173228346,
            "duration": 0.25,
            "frequency": 293.6647679174076,
            "pitch": 62,
            "startTime": 1.5,
            "endTime": 1.75
          },
          {
            "name": "C4",
            "midi": 60,
            "time": 1.75,
            "velocity": 0.7086614173228346,
            "duration": 1,
            "frequency": 261.6255653005986,
            "pitch": 60,
            "startTime": 1.75,
            "endTime": 2.75
          },
          {
            "name": "G3",
            "midi": 55,
            "time": 2.75,
            "velocity": 0.7086614173228346,
            "duration": 0.25,
            "frequency": 195.99771799087463,
            "pitch": 55,
            "startTime": 2.75,
            "endTime": 3
          },
          {
            "name": "E3",
            "midi": 52,
            "time": 3,
            "velocity": 0.7086614173228346,
            "duration": 0.25,
            "frequency": 164.81377845643496,
            "pitch": 52,
            "startTime": 3,
            "endTime": 3.25
          },
          {
            "name": "G3",
            "midi": 55,
            "time": 3.25,
            "velocity": 0.7086614173228346,
            "duration": 0.125,
            "frequency": 195.99771799087463,
            "pitch": 55,
            "startTime": 3.25,
            "endTime": 3.375
          },
          {
            "name": "C4",
            "midi": 60,
            "time": 3.375,
            "velocity": 0.7086614173228346,
            "duration": 1,
            "frequency": 261.6255653005986,
            "pitch": 60,
            "startTime": 3.375,
            "endTime": 4.375
          },
          {
            "name": "E4",
            "midi": 64,
            "time": 4.375,
            "velocity": 0.7086614173228346,
            "duration": 1,
            "frequency": 329.6275569128699,
            "pitch": 64,
            "startTime": 4.375,
            "endTime": 5.375
          },
          {
            "name": "D4",
            "midi": 62,
            "time": 5.375,
            "velocity": 0.7086614173228346,
            "duration": 0.25,
            "frequency": 293.6647679174076,
            "pitch": 62,
            "startTime": 5.375,
            "endTime": 5.625
          },
          {
            "name": "D4",
            "midi": 62,
            "time": 5.625,
            "velocity": 0.7086614173228346,
            "duration": 0.25,
            "frequency": 293.6647679174076,
            "pitch": 62,
            "startTime": 5.625,
            "endTime": 5.875
          },
          {
            "name": "B3",
            "midi": 59,
            "time": 5.875,
            "velocity": 0.7086614173228346,
            "duration": 0.5,
            "frequency": 246.9416506280621,
            "pitch": 59,
            "startTime": 5.875,
            "endTime": 6.375
          },
          {
            "name": "E4",
            "midi": 64,
            "time": 6.375,
            "velocity": 0.7086614173228346,
            "duration": 0.25,
            "frequency": 329.6275569128699,
            "pitch": 64,
            "startTime": 6.375,
            "endTime": 6.625
          }
        ],
        "controlChanges": {},
        "id": 0,
        "channelNumber": 0,
        "isPercussion": false
      }
    ]
  },
  "quercus cerris_keyboard": {
    "header": {
      "PPQ": 128,
      "bpm": 120,
      "name": ""
    },
    "startTime": 0,
    "duration": 1.75,
    "tracks": [
      {
        "startTime": 0,
        "duration": 1.75,
        "length": 14,
        "notes": [
          {
            "name": "C#3",
            "midi": 49,
            "time": 0,
            "velocity": 0.7086614173228346,
            "duration": 0.125,
            "frequency": 138.59131548843604,
            "pitch": 49,
            "startTime": 0,
            "endTime": 0.125
          },
          {
            "name": "D5",
            "midi": 74,
            "time": 0.125,
            "velocity": 0.7086614173228346,
            "duration": 0.125,
            "frequency": 587.3295358348151,
            "pitch": 74,
            "startTime": 0.125,
            "endTime": 0.25
          },
          {
            "name": "A3",
            "midi": 57,
            "time": 0.25,
            "velocity": 0.7086614173228346,
            "duration": 0.125,
            "frequency": 220,
            "pitch": 57,
            "startTime": 0.25,
            "endTime": 0.375
          },
          {
            "name": "D4",
            "midi": 62,
            "time": 0.375,
            "velocity": 0.7086614173228346,
            "duration": 0.125,
            "frequency": 293.6647679174076,
            "pitch": 62,
            "startTime": 0.375,
            "endTime": 0.5
          },
          {
            "name": "B3",
            "midi": 59,
            "time": 0.5,
            "velocity": 0.7086614173228346,
            "duration": 0.125,
            "frequency": 246.9416506280621,
            "pitch": 59,
            "startTime": 0.5,
            "endTime": 0.625
          },
          {
            "name": "D5",
            "midi": 74,
            "time": 0.625,
            "velocity": 0.7086614173228346,
            "duration": 0.125,
            "frequency": 587.3295358348151,
            "pitch": 74,
            "startTime": 0.625,
            "endTime": 0.75
          },
          {
            "name": "F#3",
            "midi": 54,
            "time": 0.75,
            "velocity": 0.7086614173228346,
            "duration": 0.125,
            "frequency": 184.99721135581723,
            "pitch": 54,
            "startTime": 0.75,
            "endTime": 0.875
          },
          {
            "name": "C4",
            "midi": 60,
            "time": 0.875,
            "velocity": 0.7086614173228346,
            "duration": 0.125,
            "frequency": 261.6255653005986,
            "pitch": 60,
            "startTime": 0.875,
            "endTime": 1
          },
          {
            "name": "B3",
            "midi": 59,
            "time": 1,
            "velocity": 0.7086614173228346,
            "duration": 0.125,
            "frequency": 246.9416506280621,
            "pitch": 59,
            "startTime": 1,
            "endTime": 1.125
          },
          {
            "name": "A3",
            "midi": 57,
            "time": 1.125,
            "velocity": 0.7086614173228346,
            "duration": 0.125,
            "frequency": 220,
            "pitch": 57,
            "startTime": 1.125,
            "endTime": 1.25
          },
          {
            "name": "D4",
            "midi": 62,
            "time": 1.25,
            "velocity": 0.7086614173228346,
            "duration": 0.125,
            "frequency": 293.6647679174076,
            "pitch": 62,
            "startTime": 1.25,
            "endTime": 1.375
          },
          {
            "name": "D4",
            "midi": 62,
            "time": 1.375,
            "velocity": 0.7086614173228346,
            "duration": 0.125,
            "frequency": 293.6647679174076,
            "pitch": 62,
            "startTime": 1.375,
            "endTime": 1.5
          },
          {
            "name": "F#5",
            "midi": 78,
            "time": 1.5,
            "velocity": 0.7086614173228346,
            "duration": 0.125,
            "frequency": 739.9888454232689,
            "pitch": 76,
            "startTime": 1.5,
            "endTime": 1.625
          },
          {
            "name": "F#3",
            "midi": 54,
            "time": 1.625,
            "velocity": 0.7086614173228346,
            "duration": 0.125,
            "frequency": 184.99721135581723,
            "pitch": 54,
            "startTime": 1.625,
            "endTime": 1.75
          }
        ],
        "controlChanges": {},
        "id": 0,
        "channelNumber": 0,
        "isPercussion": false
      }
    ]
  },
  "quercus cerris_chords": {
    "header": {
      "PPQ": 128,
      "bpm": 120,
      "name": ""
    },
    "startTime": 0,
    "duration": 1,
    "tracks": [
      {
        "startTime": 0,
        "duration": 1,
        "length": 13,
        "notes": [
          {
            "name": "G3",
            "midi": 55,
            "time": 0,
            "velocity": 0.7086614173228346,
            "duration": 0.5,
            "frequency": 195.99771799087463,
            "pitch": 55,
            "startTime": 0,
            "endTime": 0.5
          },
          {
            "name": "A#3",
            "midi": 58,
            "time": 0,
            "velocity": 0.7086614173228346,
            "duration": 0.5,
            "frequency": 233.08188075904496,
            "pitch": 58,
            "startTime": 0,
            "endTime": 0.5
          },
          {
            "name": "D#4",
            "midi": 63,
            "time": 0,
            "velocity": 0.7086614173228346,
            "duration": 0.5,
            "frequency": 311.12698372208087,
            "pitch": 63,
            "startTime": 0,
            "endTime": 0.5
          },
          {
            "name": "G4",
            "midi": 67,
            "time": 0,
            "velocity": 0.7086614173228346,
            "duration": 0.5,
            "frequency": 391.99543598174927,
            "pitch": 67,
            "startTime": 0,
            "endTime": 0.5
          },
          {
            "name": "C5",
            "midi": 72,
            "time": 0,
            "velocity": 0.7086614173228346,
            "duration": 0.5,
            "frequency": 523.2511306011972,
            "pitch": 72,
            "startTime": 0,
            "endTime": 0.5
          },
          {
            "name": "A#5",
            "midi": 82,
            "time": 0,
            "velocity": 0.7086614173228346,
            "duration": 0.5,
            "frequency": 932.3275230361799,
            "pitch": 76,
            "startTime": 0,
            "endTime": 0.5
          },
          {
            "name": "G6",
            "midi": 91,
            "time": 0,
            "velocity": 0.7086614173228346,
            "duration": 0.5,
            "frequency": 1567.981743926997,
            "pitch": 76,
            "startTime": 0,
            "endTime": 0.5
          },
          {
            "name": "C3",
            "midi": 48,
            "time": 0.5,
            "velocity": 0.7086614173228346,
            "duration": 0.5,
            "frequency": 130.8127826502993,
            "pitch": 48,
            "startTime": 0.5,
            "endTime": 1
          },
          {
            "name": "D#3",
            "midi": 51,
            "time": 0.5,
            "velocity": 0.7086614173228346,
            "duration": 0.5,
            "frequency": 155.56349186104043,
            "pitch": 51,
            "startTime": 0.5,
            "endTime": 1
          },
          {
            "name": "G3",
            "midi": 55,
            "time": 0.5,
            "velocity": 0.7086614173228346,
            "duration": 0.5,
            "frequency": 195.99771799087463,
            "pitch": 55,
            "startTime": 0.5,
            "endTime": 1
          },
          {
            "name": "G4",
            "midi": 67,
            "time": 0.5,
            "velocity": 0.7086614173228346,
            "duration": 0.5,
            "frequency": 391.99543598174927,
            "pitch": 67,
            "startTime": 0.5,
            "endTime": 1
          },
          {
            "name": "F#5",
            "midi": 78,
            "time": 0.5,
            "velocity": 0.7086614173228346,
            "duration": 0.5,
            "frequency": 739.9888454232689,
            "pitch": 76,
            "startTime": 0.5,
            "endTime": 1
          },
          {
            "name": "G5",
            "midi": 79,
            "time": 0.5,
            "velocity": 0.7086614173228346,
            "duration": 0.5,
            "frequency": 783.9908719634986,
            "pitch": 76,
            "startTime": 0.5,
            "endTime": 1
          }
        ],
        "controlChanges": {},
        "id": 0,
        "channelNumber": 0,
        "isPercussion": false
      }
    ]
  },
  "quercus ilex_french": {
    "header": {
      "PPQ": 128,
      "bpm": 120,
      "name": ""
    },
    "startTime": 0,
    "duration": 5.5,
    "tracks": [
      {
        "startTime": 0,
        "duration": 5.5,
        "length": 12,
        "notes": [
          {
            "name": "C5",
            "midi": 72,
            "time": 0,
            "velocity": 0.7086614173228346,
            "duration": 0.25,
            "frequency": 523.2511306011972,
            "pitch": 72,
            "startTime": 0,
            "endTime": 0.25
          },
          {
            "name": "G4",
            "midi": 67,
            "time": 0.25,
            "velocity": 0.7086614173228346,
            "duration": 0.25,
            "frequency": 391.99543598174927,
            "pitch": 67,
            "startTime": 0.25,
            "endTime": 0.5
          },
          {
            "name": "E4",
            "midi": 64,
            "time": 0.5,
            "velocity": 0.7086614173228346,
            "duration": 1,
            "frequency": 329.6275569128699,
            "pitch": 64,
            "startTime": 0.5,
            "endTime": 1.5
          },
          {
            "name": "D4",
            "midi": 62,
            "time": 1.5,
            "velocity": 0.7086614173228346,
            "duration": 0.25,
            "frequency": 293.6647679174076,
            "pitch": 62,
            "startTime": 1.5,
            "endTime": 1.75
          },
          {
            "name": "C4",
            "midi": 60,
            "time": 1.75,
            "velocity": 0.7086614173228346,
            "duration": 1,
            "frequency": 261.6255653005986,
            "pitch": 60,
            "startTime": 1.75,
            "endTime": 2.75
          },
          {
            "name": "G3",
            "midi": 55,
            "time": 2.75,
            "velocity": 0.7086614173228346,
            "duration": 0.25,
            "frequency": 195.99771799087463,
            "pitch": 55,
            "startTime": 2.75,
            "endTime": 3
          },
          {
            "name": "E3",
            "midi": 52,
            "time": 3,
            "velocity": 0.7086614173228346,
            "duration": 0.25,
            "frequency": 164.81377845643496,
            "pitch": 52,
            "startTime": 3,
            "endTime": 3.25
          },
          {
            "name": "G3",
            "midi": 55,
            "time": 3.25,
            "velocity": 0.7086614173228346,
            "duration": 0.125,
            "frequency": 195.99771799087463,
            "pitch": 55,
            "startTime": 3.25,
            "endTime": 3.375
          },
          {
            "name": "B3",
            "midi": 59,
            "time": 3.375,
            "velocity": 0.7086614173228346,
            "duration": 0.5,
            "frequency": 246.9416506280621,
            "pitch": 59,
            "startTime": 3.375,
            "endTime": 3.875
          },
          {
            "name": "E4",
            "midi": 64,
            "time": 3.875,
            "velocity": 0.7086614173228346,
            "duration": 0.5,
            "frequency": 329.6275569128699,
            "pitch": 64,
            "startTime": 3.875,
            "endTime": 4.375
          },
          {
            "name": "E4",
            "midi": 64,
            "time": 4.375,
            "velocity": 0.7086614173228346,
            "duration": 1,
            "frequency": 329.6275569128699,
            "pitch": 64,
            "startTime": 4.375,
            "endTime": 5.375
          },
          {
            "name": "C4",
            "midi": 60,
            "time": 5.375,
            "velocity": 0.7086614173228346,
            "duration": 0.125,
            "frequency": 261.6255653005986,
            "pitch": 60,
            "startTime": 5.375,
            "endTime": 5.5
          }
        ],
        "controlChanges": {},
        "id": 0,
        "channelNumber": 0,
        "isPercussion": false
      }
    ]
  },
  "quercus ilex_keyboard": {
    "header": {
      "PPQ": 128,
      "bpm": 120,
      "name": ""
    },
    "startTime": 0,
    "duration": 1.5,
    "tracks": [
      {
        "startTime": 0,
        "duration": 1.5,
        "length": 12,
        "notes": [
          {
            "name": "C#3",
            "midi": 49,
            "time": 0,
            "velocity": 0.7086614173228346,
            "duration": 0.125,
            "frequency": 138.59131548843604,
            "pitch": 49,
            "startTime": 0,
            "endTime": 0.125
          },
          {
            "name": "D5",
            "midi": 74,
            "time": 0.125,
            "velocity": 0.7086614173228346,
            "duration": 0.125,
            "frequency": 587.3295358348151,
            "pitch": 74,
            "startTime": 0.125,
            "endTime": 0.25
          },
          {
            "name": "A3",
            "midi": 57,
            "time": 0.25,
            "velocity": 0.7086614173228346,
            "duration": 0.125,
            "frequency": 220,
            "pitch": 57,
            "startTime": 0.25,
            "endTime": 0.375
          },
          {
            "name": "D4",
            "midi": 62,
            "time": 0.375,
            "velocity": 0.7086614173228346,
            "duration": 0.125,
            "frequency": 293.6647679174076,
            "pitch": 62,
            "startTime": 0.375,
            "endTime": 0.5
          },
          {
            "name": "B3",
            "midi": 59,
            "time": 0.5,
            "velocity": 0.7086614173228346,
            "duration": 0.125,
            "frequency": 246.9416506280621,
            "pitch": 59,
            "startTime": 0.5,
            "endTime": 0.625
          },
          {
            "name": "D5",
            "midi": 74,
            "time": 0.625,
            "velocity": 0.7086614173228346,
            "duration": 0.125,
            "frequency": 587.3295358348151,
            "pitch": 74,
            "startTime": 0.625,
            "endTime": 0.75
          },
          {
            "name": "F#3",
            "midi": 54,
            "time": 0.75,
            "velocity": 0.7086614173228346,
            "duration": 0.125,
            "frequency": 184.99721135581723,
            "pitch": 54,
            "startTime": 0.75,
            "endTime": 0.875
          },
          {
            "name": "C4",
            "midi": 60,
            "time": 0.875,
            "velocity": 0.7086614173228346,
            "duration": 0.125,
            "frequency": 261.6255653005986,
            "pitch": 60,
            "startTime": 0.875,
            "endTime": 1
          },
          {
            "name": "F#5",
            "midi": 78,
            "time": 1,
            "velocity": 0.7086614173228346,
            "duration": 0.125,
            "frequency": 739.9888454232689,
            "pitch": 76,
            "startTime": 1,
            "endTime": 1.125
          },
          {
            "name": "B5",
            "midi": 83,
            "time": 1.125,
            "velocity": 0.7086614173228346,
            "duration": 0.125,
            "frequency": 987.7666025122484,
            "pitch": 76,
            "startTime": 1.125,
            "endTime": 1.25
          },
          {
            "name": "A3",
            "midi": 57,
            "time": 1.25,
            "velocity": 0.7086614173228346,
            "duration": 0.125,
            "frequency": 220,
            "pitch": 57,
            "startTime": 1.25,
            "endTime": 1.375
          },
          {
            "name": "G3",
            "midi": 55,
            "time": 1.375,
            "velocity": 0.7086614173228346,
            "duration": 0.125,
            "frequency": 195.99771799087463,
            "pitch": 55,
            "startTime": 1.375,
            "endTime": 1.5
          }
        ],
        "controlChanges": {},
        "id": 0,
        "channelNumber": 0,
        "isPercussion": false
      }
    ]
  },
  "quercus ilex_chords": {
    "header": {
      "PPQ": 128,
      "bpm": 120,
      "name": ""
    },
    "startTime": 0,
    "duration": 1,
    "tracks": [
      {
        "startTime": 0,
        "duration": 1,
        "length": 11,
        "notes": [
          {
            "name": "G3",
            "midi": 55,
            "time": 0,
            "velocity": 0.7086614173228346,
            "duration": 0.5,
            "frequency": 195.99771799087463,
            "pitch": 55,
            "startTime": 0,
            "endTime": 0.5
          },
          {
            "name": "A#3",
            "midi": 58,
            "time": 0,
            "velocity": 0.7086614173228346,
            "duration": 0.5,
            "frequency": 233.08188075904496,
            "pitch": 58,
            "startTime": 0,
            "endTime": 0.5
          },
          {
            "name": "D#4",
            "midi": 63,
            "time": 0,
            "velocity": 0.7086614173228346,
            "duration": 0.5,
            "frequency": 311.12698372208087,
            "pitch": 63,
            "startTime": 0,
            "endTime": 0.5
          },
          {
            "name": "G4",
            "midi": 67,
            "time": 0,
            "velocity": 0.7086614173228346,
            "duration": 0.5,
            "frequency": 391.99543598174927,
            "pitch": 67,
            "startTime": 0,
            "endTime": 0.5
          },
          {
            "name": "C5",
            "midi": 72,
            "time": 0,
            "velocity": 0.7086614173228346,
            "duration": 0.5,
            "frequency": 523.2511306011972,
            "pitch": 72,
            "startTime": 0,
            "endTime": 0.5
          },
          {
            "name": "A#5",
            "midi": 82,
            "time": 0,
            "velocity": 0.7086614173228346,
            "duration": 0.5,
            "frequency": 932.3275230361799,
            "pitch": 76,
            "startTime": 0,
            "endTime": 0.5
          },
          {
            "name": "G6",
            "midi": 91,
            "time": 0,
            "velocity": 0.7086614173228346,
            "duration": 0.5,
            "frequency": 1567.981743926997,
            "pitch": 76,
            "startTime": 0,
            "endTime": 0.5
          },
          {
            "name": "F#3",
            "midi": 54,
            "time": 0.5,
            "velocity": 0.7086614173228346,
            "duration": 0.5,
            "frequency": 184.99721135581723,
            "pitch": 54,
            "startTime": 0.5,
            "endTime": 1
          },
          {
            "name": "E4",
            "midi": 64,
            "time": 0.5,
            "velocity": 0.7086614173228346,
            "duration": 0.5,
            "frequency": 329.6275569128699,
            "pitch": 64,
            "startTime": 0.5,
            "endTime": 1
          },
          {
            "name": "D#5",
            "midi": 75,
            "time": 0.5,
            "velocity": 0.7086614173228346,
            "duration": 0.5,
            "frequency": 622.2539674441618,
            "pitch": 75,
            "startTime": 0.5,
            "endTime": 1
          },
          {
            "name": "B5",
            "midi": 83,
            "time": 0.5,
            "velocity": 0.7086614173228346,
            "duration": 0.5,
            "frequency": 987.7666025122484,
            "pitch": 76,
            "startTime": 0.5,
            "endTime": 1
          }
        ],
        "controlChanges": {},
        "id": 0,
        "channelNumber": 0,
        "isPercussion": false
      }
    ]
  },
  "quercus variabilis_french": {
    "header": {
      "PPQ": 128,
      "bpm": 120,
      "name": ""
    },
    "startTime": 0,
    "duration": 9,
    "tracks": [
      {
        "startTime": 0,
        "duration": 9,
        "length": 18,
        "notes": [
          {
            "name": "C5",
            "midi": 72,
            "time": 0,
            "velocity": 0.7086614173228346,
            "duration": 0.25,
            "frequency": 523.2511306011972,
            "pitch": 72,
            "startTime": 0,
            "endTime": 0.25
          },
          {
            "name": "G4",
            "midi": 67,
            "time": 0.25,
            "velocity": 0.7086614173228346,
            "duration": 0.25,
            "frequency": 391.99543598174927,
            "pitch": 67,
            "startTime": 0.25,
            "endTime": 0.5
          },
          {
            "name": "E4",
            "midi": 64,
            "time": 0.5,
            "velocity": 0.7086614173228346,
            "duration": 1,
            "frequency": 329.6275569128699,
            "pitch": 64,
            "startTime": 0.5,
            "endTime": 1.5
          },
          {
            "name": "D4",
            "midi": 62,
            "time": 1.5,
            "velocity": 0.7086614173228346,
            "duration": 0.25,
            "frequency": 293.6647679174076,
            "pitch": 62,
            "startTime": 1.5,
            "endTime": 1.75
          },
          {
            "name": "C4",
            "midi": 60,
            "time": 1.75,
            "velocity": 0.7086614173228346,
            "duration": 1,
            "frequency": 261.6255653005986,
            "pitch": 60,
            "startTime": 1.75,
            "endTime": 2.75
          },
          {
            "name": "G3",
            "midi": 55,
            "time": 2.75,
            "velocity": 0.7086614173228346,
            "duration": 0.25,
            "frequency": 195.99771799087463,
            "pitch": 55,
            "startTime": 2.75,
            "endTime": 3
          },
          {
            "name": "E3",
            "midi": 52,
            "time": 3,
            "velocity": 0.7086614173228346,
            "duration": 0.25,
            "frequency": 164.81377845643496,
            "pitch": 52,
            "startTime": 3,
            "endTime": 3.25
          },
          {
            "name": "G3",
            "midi": 55,
            "time": 3.25,
            "velocity": 0.7086614173228346,
            "duration": 0.125,
            "frequency": 195.99771799087463,
            "pitch": 55,
            "startTime": 3.25,
            "endTime": 3.375
          },
          {
            "name": "A3",
            "midi": 57,
            "time": 3.375,
            "velocity": 0.7086614173228346,
            "duration": 0.125,
            "frequency": 220,
            "pitch": 57,
            "startTime": 3.375,
            "endTime": 3.5
          },
          {
            "name": "A3",
            "midi": 57,
            "time": 3.5,
            "velocity": 0.7086614173228346,
            "duration": 1,
            "frequency": 220,
            "pitch": 57,
            "startTime": 3.5,
            "endTime": 4.5
          },
          {
            "name": "D4",
            "midi": 62,
            "time": 4.5,
            "velocity": 0.7086614173228346,
            "duration": 0.25,
            "frequency": 293.6647679174076,
            "pitch": 62,
            "startTime": 4.5,
            "endTime": 4.75
          },
          {
            "name": "B3",
            "midi": 59,
            "time": 4.75,
            "velocity": 0.7086614173228346,
            "duration": 0.5,
            "frequency": 246.9416506280621,
            "pitch": 59,
            "startTime": 4.75,
            "endTime": 5.25
          },
          {
            "name": "A3",
            "midi": 57,
            "time": 5.25,
            "velocity": 0.7086614173228346,
            "duration": 1,
            "frequency": 220,
            "pitch": 57,
            "startTime": 5.25,
            "endTime": 6.25
          },
          {
            "name": "B3",
            "midi": 59,
            "time": 6.25,
            "velocity": 0.7086614173228346,
            "duration": 1,
            "frequency": 246.9416506280621,
            "pitch": 59,
            "startTime": 6.25,
            "endTime": 7.25
          },
          {
            "name": "B3",
            "midi": 59,
            "time": 7.25,
            "velocity": 0.7086614173228346,
            "duration": 0.5,
            "frequency": 246.9416506280621,
            "pitch": 59,
            "startTime": 7.25,
            "endTime": 7.75
          },
          {
            "name": "E4",
            "midi": 64,
            "time": 7.75,
            "velocity": 0.7086614173228346,
            "duration": 0.5,
            "frequency": 329.6275569128699,
            "pitch": 64,
            "startTime": 7.75,
            "endTime": 8.25
          },
          {
            "name": "B3",
            "midi": 59,
            "time": 8.25,
            "velocity": 0.7086614173228346,
            "duration": 0.5,
            "frequency": 246.9416506280621,
            "pitch": 59,
            "startTime": 8.25,
            "endTime": 8.75
          },
          {
            "name": "E4",
            "midi": 64,
            "time": 8.75,
            "velocity": 0.7086614173228346,
            "duration": 0.25,
            "frequency": 329.6275569128699,
            "pitch": 64,
            "startTime": 8.75,
            "endTime": 9
          }
        ],
        "controlChanges": {},
        "id": 0,
        "channelNumber": 0,
        "isPercussion": false
      }
    ]
  },
  "quercus variabilis_keyboard": {
    "header": {
      "PPQ": 128,
      "bpm": 120,
      "name": ""
    },
    "startTime": 0,
    "duration": 2.25,
    "tracks": [
      {
        "startTime": 0,
        "duration": 2.25,
        "length": 18,
        "notes": [
          {
            "name": "C#3",
            "midi": 49,
            "time": 0,
            "velocity": 0.7086614173228346,
            "duration": 0.125,
            "frequency": 138.59131548843604,
            "pitch": 49,
            "startTime": 0,
            "endTime": 0.125
          },
          {
            "name": "D5",
            "midi": 74,
            "time": 0.125,
            "velocity": 0.7086614173228346,
            "duration": 0.125,
            "frequency": 587.3295358348151,
            "pitch": 74,
            "startTime": 0.125,
            "endTime": 0.25
          },
          {
            "name": "A3",
            "midi": 57,
            "time": 0.25,
            "velocity": 0.7086614173228346,
            "duration": 0.125,
            "frequency": 220,
            "pitch": 57,
            "startTime": 0.25,
            "endTime": 0.375
          },
          {
            "name": "D4",
            "midi": 62,
            "time": 0.375,
            "velocity": 0.7086614173228346,
            "duration": 0.125,
            "frequency": 293.6647679174076,
            "pitch": 62,
            "startTime": 0.375,
            "endTime": 0.5
          },
          {
            "name": "B3",
            "midi": 59,
            "time": 0.5,
            "velocity": 0.7086614173228346,
            "duration": 0.125,
            "frequency": 246.9416506280621,
            "pitch": 59,
            "startTime": 0.5,
            "endTime": 0.625
          },
          {
            "name": "D5",
            "midi": 74,
            "time": 0.625,
            "velocity": 0.7086614173228346,
            "duration": 0.125,
            "frequency": 587.3295358348151,
            "pitch": 74,
            "startTime": 0.625,
            "endTime": 0.75
          },
          {
            "name": "F#3",
            "midi": 54,
            "time": 0.75,
            "velocity": 0.7086614173228346,
            "duration": 0.125,
            "frequency": 184.99721135581723,
            "pitch": 54,
            "startTime": 0.75,
            "endTime": 0.875
          },
          {
            "name": "C4",
            "midi": 60,
            "time": 0.875,
            "velocity": 0.7086614173228346,
            "duration": 0.125,
            "frequency": 261.6255653005986,
            "pitch": 60,
            "startTime": 0.875,
            "endTime": 1
          },
          {
            "name": "E4",
            "midi": 64,
            "time": 1,
            "velocity": 0.7086614173228346,
            "duration": 0.125,
            "frequency": 329.6275569128699,
            "pitch": 64,
            "startTime": 1,
            "endTime": 1.125
          },
          {
            "name": "D3",
            "midi": 50,
            "time": 1.125,
            "velocity": 0.7086614173228346,
            "duration": 0.125,
            "frequency": 146.8323839587038,
            "pitch": 50,
            "startTime": 1.125,
            "endTime": 1.25
          },
          {
            "name": "D4",
            "midi": 62,
            "time": 1.25,
            "velocity": 0.7086614173228346,
            "duration": 0.125,
            "frequency": 293.6647679174076,
            "pitch": 62,
            "startTime": 1.25,
            "endTime": 1.375
          },
          {
            "name": "F#5",
            "midi": 78,
            "time": 1.375,
            "velocity": 0.7086614173228346,
            "duration": 0.125,
            "frequency": 739.9888454232689,
            "pitch": 76,
            "startTime": 1.375,
            "endTime": 1.5
          },
          {
            "name": "D3",
            "midi": 50,
            "time": 1.5,
            "velocity": 0.7086614173228346,
            "duration": 0.125,
            "frequency": 146.8323839587038,
            "pitch": 50,
            "startTime": 1.5,
            "endTime": 1.625
          },
          {
            "name": "G#4",
            "midi": 68,
            "time": 1.625,
            "velocity": 0.7086614173228346,
            "duration": 0.125,
            "frequency": 415.3046975799451,
            "pitch": 68,
            "startTime": 1.625,
            "endTime": 1.75
          },
          {
            "name": "F#5",
            "midi": 78,
            "time": 1.75,
            "velocity": 0.7086614173228346,
            "duration": 0.125,
            "frequency": 739.9888454232689,
            "pitch": 76,
            "startTime": 1.75,
            "endTime": 1.875
          },
          {
            "name": "B5",
            "midi": 83,
            "time": 1.875,
            "velocity": 0.7086614173228346,
            "duration": 0.125,
            "frequency": 987.7666025122484,
            "pitch": 76,
            "startTime": 1.875,
            "endTime": 2
          },
          {
            "name": "F#5",
            "midi": 78,
            "time": 2,
            "velocity": 0.7086614173228346,
            "duration": 0.125,
            "frequency": 739.9888454232689,
            "pitch": 76,
            "startTime": 2,
            "endTime": 2.125
          },
          {
            "name": "F#3",
            "midi": 54,
            "time": 2.125,
            "velocity": 0.7086614173228346,
            "duration": 0.125,
            "frequency": 184.99721135581723,
            "pitch": 54,
            "startTime": 2.125,
            "endTime": 2.25
          }
        ],
        "controlChanges": {},
        "id": 0,
        "channelNumber": 0,
        "isPercussion": false
      }
    ]
  },
  "quercus variabilis_chords": {
    "header": {
      "PPQ": 128,
      "bpm": 120,
      "name": ""
    },
    "startTime": 0,
    "duration": 1,
    "tracks": [
      {
        "startTime": 0,
        "duration": 1,
        "length": 17,
        "notes": [
          {
            "name": "G3",
            "midi": 55,
            "time": 0,
            "velocity": 0.7086614173228346,
            "duration": 0.5,
            "frequency": 195.99771799087463,
            "pitch": 55,
            "startTime": 0,
            "endTime": 0.5
          },
          {
            "name": "A#3",
            "midi": 58,
            "time": 0,
            "velocity": 0.7086614173228346,
            "duration": 0.5,
            "frequency": 233.08188075904496,
            "pitch": 58,
            "startTime": 0,
            "endTime": 0.5
          },
          {
            "name": "D#4",
            "midi": 63,
            "time": 0,
            "velocity": 0.7086614173228346,
            "duration": 0.5,
            "frequency": 311.12698372208087,
            "pitch": 63,
            "startTime": 0,
            "endTime": 0.5
          },
          {
            "name": "G4",
            "midi": 67,
            "time": 0,
            "velocity": 0.7086614173228346,
            "duration": 0.5,
            "frequency": 391.99543598174927,
            "pitch": 67,
            "startTime": 0,
            "endTime": 0.5
          },
          {
            "name": "C5",
            "midi": 72,
            "time": 0,
            "velocity": 0.7086614173228346,
            "duration": 0.5,
            "frequency": 523.2511306011972,
            "pitch": 72,
            "startTime": 0,
            "endTime": 0.5
          },
          {
            "name": "A#5",
            "midi": 82,
            "time": 0,
            "velocity": 0.7086614173228346,
            "duration": 0.5,
            "frequency": 932.3275230361799,
            "pitch": 76,
            "startTime": 0,
            "endTime": 0.5
          },
          {
            "name": "G6",
            "midi": 91,
            "time": 0,
            "velocity": 0.7086614173228346,
            "duration": 0.5,
            "frequency": 1567.981743926997,
            "pitch": 76,
            "startTime": 0,
            "endTime": 0.5
          },
          {
            "name": "A3",
            "midi": 57,
            "time": 0.5,
            "velocity": 0.7086614173228346,
            "duration": 0.5,
            "frequency": 220,
            "pitch": 57,
            "startTime": 0.5,
            "endTime": 1
          },
          {
            "name": "C#4",
            "midi": 61,
            "time": 0.5,
            "velocity": 0.7086614173228346,
            "duration": 0.5,
            "frequency": 277.1826309768721,
            "pitch": 61,
            "startTime": 0.5,
            "endTime": 1
          },
          {
            "name": "G4",
            "midi": 67,
            "time": 0.5,
            "velocity": 0.7086614173228346,
            "duration": 0.5,
            "frequency": 391.99543598174927,
            "pitch": 67,
            "startTime": 0.5,
            "endTime": 1
          },
          {
            "name": "F#5",
            "midi": 78,
            "time": 0.5,
            "velocity": 0.7086614173228346,
            "duration": 0.5,
            "frequency": 739.9888454232689,
            "pitch": 76,
            "startTime": 0.5,
            "endTime": 1
          },
          {
            "name": "C#6",
            "midi": 85,
            "time": 0.5,
            "velocity": 0.7086614173228346,
            "duration": 0.5,
            "frequency": 1108.7305239074883,
            "pitch": 76,
            "startTime": 0.5,
            "endTime": 1
          },
          {
            "name": "C7",
            "midi": 96,
            "time": 0.5,
            "velocity": 0.7086614173228346,
            "duration": 0.5,
            "frequency": 2093.004522404789,
            "pitch": 76,
            "startTime": 0.5,
            "endTime": 1
          },
          {
            "name": "F#7",
            "midi": 102,
            "time": 0.5,
            "velocity": 0.7086614173228346,
            "duration": 0.5,
            "frequency": 2959.9553816930757,
            "pitch": 76,
            "startTime": 0.5,
            "endTime": 1
          },
          {
            "name": "E8",
            "midi": 112,
            "time": 0.5,
            "velocity": 0.7086614173228346,
            "duration": 0.5,
            "frequency": 5274.040910605919,
            "pitch": 76,
            "startTime": 0.5,
            "endTime": 1
          },
          {
            "name": "F#8",
            "midi": 114,
            "time": 0.5,
            "velocity": 0.7086614173228346,
            "duration": 0.5,
            "frequency": 5919.910763386151,
            "pitch": 76,
            "startTime": 0.5,
            "endTime": 1
          },
          {
            "name": "G8",
            "midi": 115,
            "time": 0.5,
            "velocity": 0.7086614173228346,
            "duration": 0.5,
            "frequency": 6271.926975707989,
            "pitch": 76,
            "startTime": 0.5,
            "endTime": 1
          }
        ],
        "controlChanges": {},
        "id": 0,
        "channelNumber": 0,
        "isPercussion": false
      }
    ]
  },
  "salix babylonica_french": {
    "header": {
      "PPQ": 128,
      "bpm": 120,
      "name": ""
    },
    "startTime": 0,
    "duration": 9.375,
    "tracks": [
      {
        "startTime": 0,
        "duration": 9.375,
        "length": 16,
        "notes": [
          {
            "name": "E4",
            "midi": 64,
            "time": 0,
            "velocity": 0.7086614173228346,
            "duration": 0.25,
            "frequency": 329.6275569128699,
            "pitch": 64,
            "startTime": 0,
            "endTime": 0.25
          },
          {
            "name": "A4",
            "midi": 69,
            "time": 0.25,
            "velocity": 0.7086614173228346,
            "duration": 1,
            "frequency": 440,
            "pitch": 69,
            "startTime": 0.25,
            "endTime": 1.25
          },
          {
            "name": "E4",
            "midi": 64,
            "time": 1.25,
            "velocity": 0.7086614173228346,
            "duration": 0.5,
            "frequency": 329.6275569128699,
            "pitch": 64,
            "startTime": 1.25,
            "endTime": 1.75
          },
          {
            "name": "B3",
            "midi": 59,
            "time": 1.75,
            "velocity": 0.7086614173228346,
            "duration": 0.5,
            "frequency": 246.9416506280621,
            "pitch": 59,
            "startTime": 1.75,
            "endTime": 2.25
          },
          {
            "name": "C4",
            "midi": 60,
            "time": 2.25,
            "velocity": 0.7086614173228346,
            "duration": 0.125,
            "frequency": 261.6255653005986,
            "pitch": 60,
            "startTime": 2.25,
            "endTime": 2.375
          },
          {
            "name": "G3",
            "midi": 55,
            "time": 2.375,
            "velocity": 0.7086614173228346,
            "duration": 0.125,
            "frequency": 195.99771799087463,
            "pitch": 55,
            "startTime": 2.375,
            "endTime": 2.5
          },
          {
            "name": "B3",
            "midi": 59,
            "time": 2.5,
            "velocity": 0.7086614173228346,
            "duration": 1,
            "frequency": 246.9416506280621,
            "pitch": 59,
            "startTime": 2.5,
            "endTime": 3.5
          },
          {
            "name": "A3",
            "midi": 57,
            "time": 3.5,
            "velocity": 0.7086614173228346,
            "duration": 1,
            "frequency": 220,
            "pitch": 57,
            "startTime": 3.5,
            "endTime": 4.5
          },
          {
            "name": "B3",
            "midi": 59,
            "time": 4.5,
            "velocity": 0.7086614173228346,
            "duration": 1,
            "frequency": 246.9416506280621,
            "pitch": 59,
            "startTime": 4.5,
            "endTime": 5.5
          },
          {
            "name": "D4",
            "midi": 62,
            "time": 5.5,
            "velocity": 0.7086614173228346,
            "duration": 0.125,
            "frequency": 293.6647679174076,
            "pitch": 62,
            "startTime": 5.5,
            "endTime": 5.625
          },
          {
            "name": "E4",
            "midi": 64,
            "time": 5.625,
            "velocity": 0.7086614173228346,
            "duration": 0.5,
            "frequency": 329.6275569128699,
            "pitch": 64,
            "startTime": 5.625,
            "endTime": 6.125
          },
          {
            "name": "A4",
            "midi": 69,
            "time": 6.125,
            "velocity": 0.7086614173228346,
            "duration": 0.25,
            "frequency": 440,
            "pitch": 69,
            "startTime": 6.125,
            "endTime": 6.375
          },
          {
            "name": "G4",
            "midi": 67,
            "time": 6.375,
            "velocity": 0.7086614173228346,
            "duration": 0.5,
            "frequency": 391.99543598174927,
            "pitch": 67,
            "startTime": 6.375,
            "endTime": 6.875
          },
          {
            "name": "B4",
            "midi": 71,
            "time": 6.875,
            "velocity": 0.7086614173228346,
            "duration": 0.5,
            "frequency": 493.8833012561242,
            "pitch": 71,
            "startTime": 6.875,
            "endTime": 7.375
          },
          {
            "name": "C5",
            "midi": 72,
            "time": 7.375,
            "velocity": 0.7086614173228346,
            "duration": 1,
            "frequency": 523.2511306011972,
            "pitch": 72,
            "startTime": 7.375,
            "endTime": 8.375
          },
          {
            "name": "A4",
            "midi": 69,
            "time": 8.375,
            "velocity": 0.7086614173228346,
            "duration": 1,
            "frequency": 440,
            "pitch": 69,
            "startTime": 8.375,
            "endTime": 9.375
          }
        ],
        "controlChanges": {},
        "id": 0,
        "channelNumber": 0,
        "isPercussion": false
      }
    ]
  },
  "salix babylonica_keyboard": {
    "header": {
      "PPQ": 128,
      "bpm": 120,
      "name": ""
    },
    "startTime": 0,
    "duration": 2,
    "tracks": [
      {
        "startTime": 0,
        "duration": 2,
        "length": 16,
        "notes": [
          {
            "name": "F#3",
            "midi": 54,
            "time": 0,
            "velocity": 0.7086614173228346,
            "duration": 0.125,
            "frequency": 184.99721135581723,
            "pitch": 54,
            "startTime": 0,
            "endTime": 0.125
          },
          {
            "name": "D3",
            "midi": 50,
            "time": 0.125,
            "velocity": 0.7086614173228346,
            "duration": 0.125,
            "frequency": 146.8323839587038,
            "pitch": 50,
            "startTime": 0.125,
            "endTime": 0.25
          },
          {
            "name": "B5",
            "midi": 83,
            "time": 0.25,
            "velocity": 0.7086614173228346,
            "duration": 0.125,
            "frequency": 987.7666025122484,
            "pitch": 76,
            "startTime": 0.25,
            "endTime": 0.375
          },
          {
            "name": "F#5",
            "midi": 78,
            "time": 0.375,
            "velocity": 0.7086614173228346,
            "duration": 0.125,
            "frequency": 739.9888454232689,
            "pitch": 76,
            "startTime": 0.375,
            "endTime": 0.5
          },
          {
            "name": "G3",
            "midi": 55,
            "time": 0.5,
            "velocity": 0.7086614173228346,
            "duration": 0.125,
            "frequency": 195.99771799087463,
            "pitch": 55,
            "startTime": 0.5,
            "endTime": 0.625
          },
          {
            "name": "C4",
            "midi": 60,
            "time": 0.625,
            "velocity": 0.7086614173228346,
            "duration": 0.125,
            "frequency": 261.6255653005986,
            "pitch": 60,
            "startTime": 0.625,
            "endTime": 0.75
          },
          {
            "name": "G#4",
            "midi": 68,
            "time": 0.75,
            "velocity": 0.7086614173228346,
            "duration": 0.125,
            "frequency": 415.3046975799451,
            "pitch": 68,
            "startTime": 0.75,
            "endTime": 0.875
          },
          {
            "name": "D3",
            "midi": 50,
            "time": 0.875,
            "velocity": 0.7086614173228346,
            "duration": 0.125,
            "frequency": 146.8323839587038,
            "pitch": 50,
            "startTime": 0.875,
            "endTime": 1
          },
          {
            "name": "G#4",
            "midi": 68,
            "time": 1,
            "velocity": 0.7086614173228346,
            "duration": 0.125,
            "frequency": 415.3046975799451,
            "pitch": 68,
            "startTime": 1,
            "endTime": 1.125
          },
          {
            "name": "A#4",
            "midi": 70,
            "time": 1.125,
            "velocity": 0.7086614173228346,
            "duration": 0.125,
            "frequency": 466.1637615180899,
            "pitch": 70,
            "startTime": 1.125,
            "endTime": 1.25
          },
          {
            "name": "B5",
            "midi": 83,
            "time": 1.25,
            "velocity": 0.7086614173228346,
            "duration": 0.125,
            "frequency": 987.7666025122484,
            "pitch": 76,
            "startTime": 1.25,
            "endTime": 1.375
          },
          {
            "name": "A#5",
            "midi": 82,
            "time": 1.375,
            "velocity": 0.7086614173228346,
            "duration": 0.125,
            "frequency": 932.3275230361799,
            "pitch": 76,
            "startTime": 1.375,
            "endTime": 1.5
          },
          {
            "name": "C5",
            "midi": 72,
            "time": 1.5,
            "velocity": 0.7086614173228346,
            "duration": 0.125,
            "frequency": 523.2511306011972,
            "pitch": 72,
            "startTime": 1.5,
            "endTime": 1.625
          },
          {
            "name": "F#5",
            "midi": 78,
            "time": 1.625,
            "velocity": 0.7086614173228346,
            "duration": 0.125,
            "frequency": 739.9888454232689,
            "pitch": 76,
            "startTime": 1.625,
            "endTime": 1.75
          },
          {
            "name": "B3",
            "midi": 59,
            "time": 1.75,
            "velocity": 0.7086614173228346,
            "duration": 0.125,
            "frequency": 246.9416506280621,
            "pitch": 59,
            "startTime": 1.75,
            "endTime": 1.875
          },
          {
            "name": "D3",
            "midi": 50,
            "time": 1.875,
            "velocity": 0.7086614173228346,
            "duration": 0.125,
            "frequency": 146.8323839587038,
            "pitch": 50,
            "startTime": 1.875,
            "endTime": 2
          }
        ],
        "controlChanges": {},
        "id": 0,
        "channelNumber": 0,
        "isPercussion": false
      }
    ]
  },
  "salix babylonica_chords": {
    "header": {
      "PPQ": 128,
      "bpm": 120,
      "name": ""
    },
    "startTime": 0,
    "duration": 1,
    "tracks": [
      {
        "startTime": 0,
        "duration": 1,
        "length": 15,
        "notes": [
          {
            "name": "G3",
            "midi": 55,
            "time": 0,
            "velocity": 0.7086614173228346,
            "duration": 0.5,
            "frequency": 195.99771799087463,
            "pitch": 55,
            "startTime": 0,
            "endTime": 0.5
          },
          {
            "name": "C#4",
            "midi": 61,
            "time": 0,
            "velocity": 0.7086614173228346,
            "duration": 0.5,
            "frequency": 277.1826309768721,
            "pitch": 61,
            "startTime": 0,
            "endTime": 0.5
          },
          {
            "name": "E4",
            "midi": 64,
            "time": 0,
            "velocity": 0.7086614173228346,
            "duration": 0.5,
            "frequency": 329.6275569128699,
            "pitch": 64,
            "startTime": 0,
            "endTime": 0.5
          },
          {
            "name": "F#4",
            "midi": 66,
            "time": 0,
            "velocity": 0.7086614173228346,
            "duration": 0.5,
            "frequency": 369.99442271163446,
            "pitch": 66,
            "startTime": 0,
            "endTime": 0.5
          },
          {
            "name": "B4",
            "midi": 71,
            "time": 0,
            "velocity": 0.7086614173228346,
            "duration": 0.5,
            "frequency": 493.8833012561242,
            "pitch": 71,
            "startTime": 0,
            "endTime": 0.5
          },
          {
            "name": "C3",
            "midi": 48,
            "time": 0.5,
            "velocity": 0.7086614173228346,
            "duration": 0.5,
            "frequency": 130.8127826502993,
            "pitch": 48,
            "startTime": 0.5,
            "endTime": 1
          },
          {
            "name": "C#3",
            "midi": 49,
            "time": 0.5,
            "velocity": 0.7086614173228346,
            "duration": 0.5,
            "frequency": 138.59131548843604,
            "pitch": 49,
            "startTime": 0.5,
            "endTime": 1
          },
          {
            "name": "C4",
            "midi": 60,
            "time": 0.5,
            "velocity": 0.7086614173228346,
            "duration": 0.5,
            "frequency": 261.6255653005986,
            "pitch": 60,
            "startTime": 0.5,
            "endTime": 1
          },
          {
            "name": "B4",
            "midi": 71,
            "time": 0.5,
            "velocity": 0.7086614173228346,
            "duration": 0.5,
            "frequency": 493.8833012561242,
            "pitch": 71,
            "startTime": 0.5,
            "endTime": 1
          },
          {
            "name": "E5",
            "midi": 76,
            "time": 0.5,
            "velocity": 0.7086614173228346,
            "duration": 0.5,
            "frequency": 659.2551138257398,
            "pitch": 76,
            "startTime": 0.5,
            "endTime": 1
          },
          {
            "name": "G#5",
            "midi": 80,
            "time": 0.5,
            "velocity": 0.7086614173228346,
            "duration": 0.5,
            "frequency": 830.6093951598903,
            "pitch": 76,
            "startTime": 0.5,
            "endTime": 1
          },
          {
            "name": "F6",
            "midi": 89,
            "time": 0.5,
            "velocity": 0.7086614173228346,
            "duration": 0.5,
            "frequency": 1396.9129257320155,
            "pitch": 76,
            "startTime": 0.5,
            "endTime": 1
          },
          {
            "name": "F#6",
            "midi": 90,
            "time": 0.5,
            "velocity": 0.7086614173228346,
            "duration": 0.5,
            "frequency": 1479.9776908465378,
            "pitch": 76,
            "startTime": 0.5,
            "endTime": 1
          },
          {
            "name": "C7",
            "midi": 96,
            "time": 0.5,
            "velocity": 0.7086614173228346,
            "duration": 0.5,
            "frequency": 2093.004522404789,
            "pitch": 76,
            "startTime": 0.5,
            "endTime": 1
          },
          {
            "name": "C#7",
            "midi": 97,
            "time": 0.5,
            "velocity": 0.7086614173228346,
            "duration": 0.5,
            "frequency": 2217.461047814977,
            "pitch": 76,
            "startTime": 0.5,
            "endTime": 1
          }
        ],
        "controlChanges": {},
        "id": 0,
        "channelNumber": 0,
        "isPercussion": false
      }
    ]
  },
  "salix caprea_french": {
    "header": {
      "PPQ": 128,
      "bpm": 120,
      "name": ""
    },
    "startTime": 0,
    "duration": 7,
    "tracks": [
      {
        "startTime": 0,
        "duration": 7,
        "length": 12,
        "notes": [
          {
            "name": "E4",
            "midi": 64,
            "time": 0,
            "velocity": 0.7086614173228346,
            "duration": 0.25,
            "frequency": 329.6275569128699,
            "pitch": 64,
            "startTime": 0,
            "endTime": 0.25
          },
          {
            "name": "A4",
            "midi": 69,
            "time": 0.25,
            "velocity": 0.7086614173228346,
            "duration": 1,
            "frequency": 440,
            "pitch": 69,
            "startTime": 0.25,
            "endTime": 1.25
          },
          {
            "name": "E4",
            "midi": 64,
            "time": 1.25,
            "velocity": 0.7086614173228346,
            "duration": 0.5,
            "frequency": 329.6275569128699,
            "pitch": 64,
            "startTime": 1.25,
            "endTime": 1.75
          },
          {
            "name": "B3",
            "midi": 59,
            "time": 1.75,
            "velocity": 0.7086614173228346,
            "duration": 0.5,
            "frequency": 246.9416506280621,
            "pitch": 59,
            "startTime": 1.75,
            "endTime": 2.25
          },
          {
            "name": "C4",
            "midi": 60,
            "time": 2.25,
            "velocity": 0.7086614173228346,
            "duration": 0.125,
            "frequency": 261.6255653005986,
            "pitch": 60,
            "startTime": 2.25,
            "endTime": 2.375
          },
          {
            "name": "G3",
            "midi": 55,
            "time": 2.375,
            "velocity": 0.7086614173228346,
            "duration": 0.125,
            "frequency": 195.99771799087463,
            "pitch": 55,
            "startTime": 2.375,
            "endTime": 2.5
          },
          {
            "name": "C4",
            "midi": 60,
            "time": 2.5,
            "velocity": 0.7086614173228346,
            "duration": 1,
            "frequency": 261.6255653005986,
            "pitch": 60,
            "startTime": 2.5,
            "endTime": 3.5
          },
          {
            "name": "A3",
            "midi": 57,
            "time": 3.5,
            "velocity": 0.7086614173228346,
            "duration": 1,
            "frequency": 220,
            "pitch": 57,
            "startTime": 3.5,
            "endTime": 4.5
          },
          {
            "name": "B3",
            "midi": 59,
            "time": 4.5,
            "velocity": 0.7086614173228346,
            "duration": 0.25,
            "frequency": 246.9416506280621,
            "pitch": 59,
            "startTime": 4.5,
            "endTime": 4.75
          },
          {
            "name": "D4",
            "midi": 62,
            "time": 4.75,
            "velocity": 0.7086614173228346,
            "duration": 0.25,
            "frequency": 293.6647679174076,
            "pitch": 62,
            "startTime": 4.75,
            "endTime": 5
          },
          {
            "name": "E4",
            "midi": 64,
            "time": 5,
            "velocity": 0.7086614173228346,
            "duration": 1,
            "frequency": 329.6275569128699,
            "pitch": 64,
            "startTime": 5,
            "endTime": 6
          },
          {
            "name": "A4",
            "midi": 69,
            "time": 6,
            "velocity": 0.7086614173228346,
            "duration": 1,
            "frequency": 440,
            "pitch": 69,
            "startTime": 6,
            "endTime": 7
          }
        ],
        "controlChanges": {},
        "id": 0,
        "channelNumber": 0,
        "isPercussion": false
      }
    ]
  },
  "salix caprea_keyboard": {
    "header": {
      "PPQ": 128,
      "bpm": 120,
      "name": ""
    },
    "startTime": 0,
    "duration": 1.5,
    "tracks": [
      {
        "startTime": 0,
        "duration": 1.5,
        "length": 12,
        "notes": [
          {
            "name": "F#3",
            "midi": 54,
            "time": 0,
            "velocity": 0.7086614173228346,
            "duration": 0.125,
            "frequency": 184.99721135581723,
            "pitch": 54,
            "startTime": 0,
            "endTime": 0.125
          },
          {
            "name": "D3",
            "midi": 50,
            "time": 0.125,
            "velocity": 0.7086614173228346,
            "duration": 0.125,
            "frequency": 146.8323839587038,
            "pitch": 50,
            "startTime": 0.125,
            "endTime": 0.25
          },
          {
            "name": "B5",
            "midi": 83,
            "time": 0.25,
            "velocity": 0.7086614173228346,
            "duration": 0.125,
            "frequency": 987.7666025122484,
            "pitch": 76,
            "startTime": 0.25,
            "endTime": 0.375
          },
          {
            "name": "F#5",
            "midi": 78,
            "time": 0.375,
            "velocity": 0.7086614173228346,
            "duration": 0.125,
            "frequency": 739.9888454232689,
            "pitch": 76,
            "startTime": 0.375,
            "endTime": 0.5
          },
          {
            "name": "G3",
            "midi": 55,
            "time": 0.5,
            "velocity": 0.7086614173228346,
            "duration": 0.125,
            "frequency": 195.99771799087463,
            "pitch": 55,
            "startTime": 0.5,
            "endTime": 0.625
          },
          {
            "name": "C4",
            "midi": 60,
            "time": 0.625,
            "velocity": 0.7086614173228346,
            "duration": 0.125,
            "frequency": 261.6255653005986,
            "pitch": 60,
            "startTime": 0.625,
            "endTime": 0.75
          },
          {
            "name": "B3",
            "midi": 59,
            "time": 0.75,
            "velocity": 0.7086614173228346,
            "duration": 0.125,
            "frequency": 246.9416506280621,
            "pitch": 59,
            "startTime": 0.75,
            "endTime": 0.875
          },
          {
            "name": "D3",
            "midi": 50,
            "time": 0.875,
            "velocity": 0.7086614173228346,
            "duration": 0.125,
            "frequency": 146.8323839587038,
            "pitch": 50,
            "startTime": 0.875,
            "endTime": 1
          },
          {
            "name": "D6",
            "midi": 86,
            "time": 1,
            "velocity": 0.7086614173228346,
            "duration": 0.125,
            "frequency": 1174.6590716696303,
            "pitch": 76,
            "startTime": 1,
            "endTime": 1.125
          },
          {
            "name": "D4",
            "midi": 62,
            "time": 1.125,
            "velocity": 0.7086614173228346,
            "duration": 0.125,
            "frequency": 293.6647679174076,
            "pitch": 62,
            "startTime": 1.125,
            "endTime": 1.25
          },
          {
            "name": "A3",
            "midi": 57,
            "time": 1.25,
            "velocity": 0.7086614173228346,
            "duration": 0.125,
            "frequency": 220,
            "pitch": 57,
            "startTime": 1.25,
            "endTime": 1.375
          },
          {
            "name": "D3",
            "midi": 50,
            "time": 1.375,
            "velocity": 0.7086614173228346,
            "duration": 0.125,
            "frequency": 146.8323839587038,
            "pitch": 50,
            "startTime": 1.375,
            "endTime": 1.5
          }
        ],
        "controlChanges": {},
        "id": 0,
        "channelNumber": 0,
        "isPercussion": false
      }
    ]
  },
  "salix caprea_chords": {
    "header": {
      "PPQ": 128,
      "bpm": 120,
      "name": ""
    },
    "startTime": 0,
    "duration": 1,
    "tracks": [
      {
        "startTime": 0,
        "duration": 1,
        "length": 11,
        "notes": [
          {
            "name": "G3",
            "midi": 55,
            "time": 0,
            "velocity": 0.7086614173228346,
            "duration": 0.5,
            "frequency": 195.99771799087463,
            "pitch": 55,
            "startTime": 0,
            "endTime": 0.5
          },
          {
            "name": "C#4",
            "midi": 61,
            "time": 0,
            "velocity": 0.7086614173228346,
            "duration": 0.5,
            "frequency": 277.1826309768721,
            "pitch": 61,
            "startTime": 0,
            "endTime": 0.5
          },
          {
            "name": "E4",
            "midi": 64,
            "time": 0,
            "velocity": 0.7086614173228346,
            "duration": 0.5,
            "frequency": 329.6275569128699,
            "pitch": 64,
            "startTime": 0,
            "endTime": 0.5
          },
          {
            "name": "F#4",
            "midi": 66,
            "time": 0,
            "velocity": 0.7086614173228346,
            "duration": 0.5,
            "frequency": 369.99442271163446,
            "pitch": 66,
            "startTime": 0,
            "endTime": 0.5
          },
          {
            "name": "B4",
            "midi": 71,
            "time": 0,
            "velocity": 0.7086614173228346,
            "duration": 0.5,
            "frequency": 493.8833012561242,
            "pitch": 71,
            "startTime": 0,
            "endTime": 0.5
          },
          {
            "name": "C3",
            "midi": 48,
            "time": 0.5,
            "velocity": 0.7086614173228346,
            "duration": 0.5,
            "frequency": 130.8127826502993,
            "pitch": 48,
            "startTime": 0.5,
            "endTime": 1
          },
          {
            "name": "C#3",
            "midi": 49,
            "time": 0.5,
            "velocity": 0.7086614173228346,
            "duration": 0.5,
            "frequency": 138.59131548843604,
            "pitch": 49,
            "startTime": 0.5,
            "endTime": 1
          },
          {
            "name": "F3",
            "midi": 53,
            "time": 0.5,
            "velocity": 0.7086614173228346,
            "duration": 0.5,
            "frequency": 174.61411571650194,
            "pitch": 53,
            "startTime": 0.5,
            "endTime": 1
          },
          {
            "name": "G3",
            "midi": 55,
            "time": 0.5,
            "velocity": 0.7086614173228346,
            "duration": 0.5,
            "frequency": 195.99771799087463,
            "pitch": 55,
            "startTime": 0.5,
            "endTime": 1
          },
          {
            "name": "D#4",
            "midi": 63,
            "time": 0.5,
            "velocity": 0.7086614173228346,
            "duration": 0.5,
            "frequency": 311.12698372208087,
            "pitch": 63,
            "startTime": 0.5,
            "endTime": 1
          },
          {
            "name": "C#5",
            "midi": 73,
            "time": 0.5,
            "velocity": 0.7086614173228346,
            "duration": 0.5,
            "frequency": 554.3652619537442,
            "pitch": 73,
            "startTime": 0.5,
            "endTime": 1
          }
        ],
        "controlChanges": {},
        "id": 0,
        "channelNumber": 0,
        "isPercussion": false
      }
    ]
  },
  "salix triandra_french": {
    "header": {
      "PPQ": 128,
      "bpm": 120,
      "name": ""
    },
    "startTime": 0,
    "duration": 7.25,
    "tracks": [
      {
        "startTime": 0,
        "duration": 7.25,
        "length": 14,
        "notes": [
          {
            "name": "E4",
            "midi": 64,
            "time": 0,
            "velocity": 0.7086614173228346,
            "duration": 0.25,
            "frequency": 329.6275569128699,
            "pitch": 64,
            "startTime": 0,
            "endTime": 0.25
          },
          {
            "name": "A4",
            "midi": 69,
            "time": 0.25,
            "velocity": 0.7086614173228346,
            "duration": 1,
            "frequency": 440,
            "pitch": 69,
            "startTime": 0.25,
            "endTime": 1.25
          },
          {
            "name": "E4",
            "midi": 64,
            "time": 1.25,
            "velocity": 0.7086614173228346,
            "duration": 0.5,
            "frequency": 329.6275569128699,
            "pitch": 64,
            "startTime": 1.25,
            "endTime": 1.75
          },
          {
            "name": "B3",
            "midi": 59,
            "time": 1.75,
            "velocity": 0.7086614173228346,
            "duration": 0.5,
            "frequency": 246.9416506280621,
            "pitch": 59,
            "startTime": 1.75,
            "endTime": 2.25
          },
          {
            "name": "C4",
            "midi": 60,
            "time": 2.25,
            "velocity": 0.7086614173228346,
            "duration": 0.125,
            "frequency": 261.6255653005986,
            "pitch": 60,
            "startTime": 2.25,
            "endTime": 2.375
          },
          {
            "name": "G3",
            "midi": 55,
            "time": 2.375,
            "velocity": 0.7086614173228346,
            "duration": 0.125,
            "frequency": 195.99771799087463,
            "pitch": 55,
            "startTime": 2.375,
            "endTime": 2.5
          },
          {
            "name": "F3",
            "midi": 53,
            "time": 2.5,
            "velocity": 0.7086614173228346,
            "duration": 0.25,
            "frequency": 174.61411571650194,
            "pitch": 53,
            "startTime": 2.5,
            "endTime": 2.75
          },
          {
            "name": "D3",
            "midi": 50,
            "time": 2.75,
            "velocity": 0.7086614173228346,
            "duration": 0.25,
            "frequency": 146.8323839587038,
            "pitch": 50,
            "startTime": 2.75,
            "endTime": 3
          },
          {
            "name": "B2",
            "midi": 47,
            "time": 3,
            "velocity": 0.7086614173228346,
            "duration": 0.5,
            "frequency": 123.47082531403105,
            "pitch": 47,
            "startTime": 3,
            "endTime": 3.5
          },
          {
            "name": "A2",
            "midi": 45,
            "time": 3.5,
            "velocity": 0.7086614173228346,
            "duration": 1,
            "frequency": 110,
            "pitch": 45,
            "startTime": 3.5,
            "endTime": 4.5
          },
          {
            "name": "G2",
            "midi": 43,
            "time": 4.5,
            "velocity": 0.7086614173228346,
            "duration": 0.5,
            "frequency": 97.99885899543733,
            "pitch": 43,
            "startTime": 4.5,
            "endTime": 5
          },
          {
            "name": "D2",
            "midi": 38,
            "time": 5,
            "velocity": 0.7086614173228346,
            "duration": 1,
            "frequency": 73.41619197935188,
            "pitch": 38,
            "startTime": 5,
            "endTime": 6
          },
          {
            "name": "D2",
            "midi": 38,
            "time": 6,
            "velocity": 0.7086614173228346,
            "duration": 0.25,
            "frequency": 73.41619197935188,
            "pitch": 38,
            "startTime": 6,
            "endTime": 6.25
          },
          {
            "name": "A1",
            "midi": 33,
            "time": 6.25,
            "velocity": 0.7086614173228346,
            "duration": 1,
            "frequency": 55,
            "pitch": 33,
            "startTime": 6.25,
            "endTime": 7.25
          }
        ],
        "controlChanges": {},
        "id": 0,
        "channelNumber": 0,
        "isPercussion": false
      }
    ]
  },
  "salix triandra_keyboard": {
    "header": {
      "PPQ": 128,
      "bpm": 120,
      "name": ""
    },
    "startTime": 0,
    "duration": 1.75,
    "tracks": [
      {
        "startTime": 0,
        "duration": 1.75,
        "length": 14,
        "notes": [
          {
            "name": "F#3",
            "midi": 54,
            "time": 0,
            "velocity": 0.7086614173228346,
            "duration": 0.125,
            "frequency": 184.99721135581723,
            "pitch": 54,
            "startTime": 0,
            "endTime": 0.125
          },
          {
            "name": "D3",
            "midi": 50,
            "time": 0.125,
            "velocity": 0.7086614173228346,
            "duration": 0.125,
            "frequency": 146.8323839587038,
            "pitch": 50,
            "startTime": 0.125,
            "endTime": 0.25
          },
          {
            "name": "B5",
            "midi": 83,
            "time": 0.25,
            "velocity": 0.7086614173228346,
            "duration": 0.125,
            "frequency": 987.7666025122484,
            "pitch": 76,
            "startTime": 0.25,
            "endTime": 0.375
          },
          {
            "name": "F#5",
            "midi": 78,
            "time": 0.375,
            "velocity": 0.7086614173228346,
            "duration": 0.125,
            "frequency": 739.9888454232689,
            "pitch": 76,
            "startTime": 0.375,
            "endTime": 0.5
          },
          {
            "name": "G3",
            "midi": 55,
            "time": 0.5,
            "velocity": 0.7086614173228346,
            "duration": 0.125,
            "frequency": 195.99771799087463,
            "pitch": 55,
            "startTime": 0.5,
            "endTime": 0.625
          },
          {
            "name": "C4",
            "midi": 60,
            "time": 0.625,
            "velocity": 0.7086614173228346,
            "duration": 0.125,
            "frequency": 261.6255653005986,
            "pitch": 60,
            "startTime": 0.625,
            "endTime": 0.75
          },
          {
            "name": "F#4",
            "midi": 66,
            "time": 0.75,
            "velocity": 0.7086614173228346,
            "duration": 0.125,
            "frequency": 369.99442271163446,
            "pitch": 66,
            "startTime": 0.75,
            "endTime": 0.875
          },
          {
            "name": "D4",
            "midi": 62,
            "time": 0.875,
            "velocity": 0.7086614173228346,
            "duration": 0.125,
            "frequency": 293.6647679174076,
            "pitch": 62,
            "startTime": 0.875,
            "endTime": 1
          },
          {
            "name": "F#5",
            "midi": 78,
            "time": 1,
            "velocity": 0.7086614173228346,
            "duration": 0.125,
            "frequency": 739.9888454232689,
            "pitch": 76,
            "startTime": 1,
            "endTime": 1.125
          },
          {
            "name": "D3",
            "midi": 50,
            "time": 1.125,
            "velocity": 0.7086614173228346,
            "duration": 0.125,
            "frequency": 146.8323839587038,
            "pitch": 50,
            "startTime": 1.125,
            "endTime": 1.25
          },
          {
            "name": "C5",
            "midi": 72,
            "time": 1.25,
            "velocity": 0.7086614173228346,
            "duration": 0.125,
            "frequency": 523.2511306011972,
            "pitch": 72,
            "startTime": 1.25,
            "endTime": 1.375
          },
          {
            "name": "A#3",
            "midi": 58,
            "time": 1.375,
            "velocity": 0.7086614173228346,
            "duration": 0.125,
            "frequency": 233.08188075904496,
            "pitch": 58,
            "startTime": 1.375,
            "endTime": 1.5
          },
          {
            "name": "D4",
            "midi": 62,
            "time": 1.5,
            "velocity": 0.7086614173228346,
            "duration": 0.125,
            "frequency": 293.6647679174076,
            "pitch": 62,
            "startTime": 1.5,
            "endTime": 1.625
          },
          {
            "name": "D3",
            "midi": 50,
            "time": 1.625,
            "velocity": 0.7086614173228346,
            "duration": 0.125,
            "frequency": 146.8323839587038,
            "pitch": 50,
            "startTime": 1.625,
            "endTime": 1.75
          }
        ],
        "controlChanges": {},
        "id": 0,
        "channelNumber": 0,
        "isPercussion": false
      }
    ]
  },
  "salix triandra_chords": {
    "header": {
      "PPQ": 128,
      "bpm": 120,
      "name": ""
    },
    "startTime": 0,
    "duration": 1,
    "tracks": [
      {
        "startTime": 0,
        "duration": 1,
        "length": 13,
        "notes": [
          {
            "name": "G3",
            "midi": 55,
            "time": 0,
            "velocity": 0.7086614173228346,
            "duration": 0.5,
            "frequency": 195.99771799087463,
            "pitch": 55,
            "startTime": 0,
            "endTime": 0.5
          },
          {
            "name": "C#4",
            "midi": 61,
            "time": 0,
            "velocity": 0.7086614173228346,
            "duration": 0.5,
            "frequency": 277.1826309768721,
            "pitch": 61,
            "startTime": 0,
            "endTime": 0.5
          },
          {
            "name": "E4",
            "midi": 64,
            "time": 0,
            "velocity": 0.7086614173228346,
            "duration": 0.5,
            "frequency": 329.6275569128699,
            "pitch": 64,
            "startTime": 0,
            "endTime": 0.5
          },
          {
            "name": "F#4",
            "midi": 66,
            "time": 0,
            "velocity": 0.7086614173228346,
            "duration": 0.5,
            "frequency": 369.99442271163446,
            "pitch": 66,
            "startTime": 0,
            "endTime": 0.5
          },
          {
            "name": "B4",
            "midi": 71,
            "time": 0,
            "velocity": 0.7086614173228346,
            "duration": 0.5,
            "frequency": 493.8833012561242,
            "pitch": 71,
            "startTime": 0,
            "endTime": 0.5
          },
          {
            "name": "A3",
            "midi": 57,
            "time": 0.5,
            "velocity": 0.7086614173228346,
            "duration": 0.5,
            "frequency": 220,
            "pitch": 57,
            "startTime": 0.5,
            "endTime": 1
          },
          {
            "name": "G4",
            "midi": 67,
            "time": 0.5,
            "velocity": 0.7086614173228346,
            "duration": 0.5,
            "frequency": 391.99543598174927,
            "pitch": 67,
            "startTime": 0.5,
            "endTime": 1
          },
          {
            "name": "F#5",
            "midi": 78,
            "time": 0.5,
            "velocity": 0.7086614173228346,
            "duration": 0.5,
            "frequency": 739.9888454232689,
            "pitch": 76,
            "startTime": 0.5,
            "endTime": 1
          },
          {
            "name": "C#6",
            "midi": 85,
            "time": 0.5,
            "velocity": 0.7086614173228346,
            "duration": 0.5,
            "frequency": 1108.7305239074883,
            "pitch": 76,
            "startTime": 0.5,
            "endTime": 1
          },
          {
            "name": "F6",
            "midi": 89,
            "time": 0.5,
            "velocity": 0.7086614173228346,
            "duration": 0.5,
            "frequency": 1396.9129257320155,
            "pitch": 76,
            "startTime": 0.5,
            "endTime": 1
          },
          {
            "name": "C7",
            "midi": 96,
            "time": 0.5,
            "velocity": 0.7086614173228346,
            "duration": 0.5,
            "frequency": 2093.004522404789,
            "pitch": 76,
            "startTime": 0.5,
            "endTime": 1
          },
          {
            "name": "G7",
            "midi": 103,
            "time": 0.5,
            "velocity": 0.7086614173228346,
            "duration": 0.5,
            "frequency": 3135.9634878539946,
            "pitch": 76,
            "startTime": 0.5,
            "endTime": 1
          },
          {
            "name": "C#8",
            "midi": 109,
            "time": 0.5,
            "velocity": 0.7086614173228346,
            "duration": 0.5,
            "frequency": 4434.922095629954,
            "pitch": 76,
            "startTime": 0.5,
            "endTime": 1
          }
        ],
        "controlChanges": {},
        "id": 0,
        "channelNumber": 0,
        "isPercussion": false
      }
    ]
  },
  "sequoiadendron giganteum_french": {
    "header": {
      "PPQ": 128,
      "bpm": 120,
      "name": ""
    },
    "startTime": 0,
    "duration": 14.125,
    "tracks": [
      {
        "startTime": 0,
        "duration": 14.125,
        "length": 24,
        "notes": [
          {
            "name": "E4",
            "midi": 64,
            "time": 0,
            "velocity": 0.7086614173228346,
            "duration": 0.25,
            "frequency": 329.6275569128699,
            "pitch": 64,
            "startTime": 0,
            "endTime": 0.25
          },
          {
            "name": "E4",
            "midi": 64,
            "time": 0.25,
            "velocity": 0.7086614173228346,
            "duration": 1,
            "frequency": 329.6275569128699,
            "pitch": 64,
            "startTime": 0.25,
            "endTime": 1.25
          },
          {
            "name": "C4",
            "midi": 60,
            "time": 1.25,
            "velocity": 0.7086614173228346,
            "duration": 0.25,
            "frequency": 261.6255653005986,
            "pitch": 60,
            "startTime": 1.25,
            "endTime": 1.5
          },
          {
            "name": "G3",
            "midi": 55,
            "time": 1.5,
            "velocity": 0.7086614173228346,
            "duration": 0.25,
            "frequency": 195.99771799087463,
            "pitch": 55,
            "startTime": 1.5,
            "endTime": 1.75
          },
          {
            "name": "A3",
            "midi": 57,
            "time": 1.75,
            "velocity": 0.7086614173228346,
            "duration": 0.25,
            "frequency": 220,
            "pitch": 57,
            "startTime": 1.75,
            "endTime": 2
          },
          {
            "name": "B3",
            "midi": 59,
            "time": 2,
            "velocity": 0.7086614173228346,
            "duration": 0.5,
            "frequency": 246.9416506280621,
            "pitch": 59,
            "startTime": 2,
            "endTime": 2.5
          },
          {
            "name": "A3",
            "midi": 57,
            "time": 2.5,
            "velocity": 0.7086614173228346,
            "duration": 1,
            "frequency": 220,
            "pitch": 57,
            "startTime": 2.5,
            "endTime": 3.5
          },
          {
            "name": "D4",
            "midi": 62,
            "time": 3.5,
            "velocity": 0.7086614173228346,
            "duration": 1,
            "frequency": 293.6647679174076,
            "pitch": 62,
            "startTime": 3.5,
            "endTime": 4.5
          },
          {
            "name": "E4",
            "midi": 64,
            "time": 4.5,
            "velocity": 0.7086614173228346,
            "duration": 1,
            "frequency": 329.6275569128699,
            "pitch": 64,
            "startTime": 4.5,
            "endTime": 5.5
          },
          {
            "name": "G4",
            "midi": 67,
            "time": 5.5,
            "velocity": 0.7086614173228346,
            "duration": 0.5,
            "frequency": 391.99543598174927,
            "pitch": 67,
            "startTime": 5.5,
            "endTime": 6
          },
          {
            "name": "D4",
            "midi": 62,
            "time": 6,
            "velocity": 0.7086614173228346,
            "duration": 1,
            "frequency": 293.6647679174076,
            "pitch": 62,
            "startTime": 6,
            "endTime": 7
          },
          {
            "name": "D4",
            "midi": 62,
            "time": 7,
            "velocity": 0.7086614173228346,
            "duration": 0.25,
            "frequency": 293.6647679174076,
            "pitch": 62,
            "startTime": 7,
            "endTime": 7.25
          },
          {
            "name": "A3",
            "midi": 57,
            "time": 7.25,
            "velocity": 0.7086614173228346,
            "duration": 0.25,
            "frequency": 220,
            "pitch": 57,
            "startTime": 7.25,
            "endTime": 7.5
          },
          {
            "name": "G3",
            "midi": 55,
            "time": 7.5,
            "velocity": 0.7086614173228346,
            "duration": 0.5,
            "frequency": 195.99771799087463,
            "pitch": 55,
            "startTime": 7.5,
            "endTime": 8
          },
          {
            "name": "G3",
            "midi": 55,
            "time": 8,
            "velocity": 0.7086614173228346,
            "duration": 0.125,
            "frequency": 195.99771799087463,
            "pitch": 55,
            "startTime": 8,
            "endTime": 8.125
          },
          {
            "name": "G3",
            "midi": 55,
            "time": 8.125,
            "velocity": 0.7086614173228346,
            "duration": 1,
            "frequency": 195.99771799087463,
            "pitch": 55,
            "startTime": 8.125,
            "endTime": 9.125
          },
          {
            "name": "B3",
            "midi": 59,
            "time": 9.125,
            "velocity": 0.7086614173228346,
            "duration": 0.5,
            "frequency": 246.9416506280621,
            "pitch": 59,
            "startTime": 9.125,
            "endTime": 9.625
          },
          {
            "name": "G3",
            "midi": 55,
            "time": 9.625,
            "velocity": 0.7086614173228346,
            "duration": 1,
            "frequency": 195.99771799087463,
            "pitch": 55,
            "startTime": 9.625,
            "endTime": 10.625
          },
          {
            "name": "A3",
            "midi": 57,
            "time": 10.625,
            "velocity": 0.7086614173228346,
            "duration": 1,
            "frequency": 220,
            "pitch": 57,
            "startTime": 10.625,
            "endTime": 11.625
          },
          {
            "name": "G3",
            "midi": 55,
            "time": 11.625,
            "velocity": 0.7086614173228346,
            "duration": 0.5,
            "frequency": 195.99771799087463,
            "pitch": 55,
            "startTime": 11.625,
            "endTime": 12.125
          },
          {
            "name": "F3",
            "midi": 53,
            "time": 12.125,
            "velocity": 0.7086614173228346,
            "duration": 0.25,
            "frequency": 174.61411571650194,
            "pitch": 53,
            "startTime": 12.125,
            "endTime": 12.375
          },
          {
            "name": "E3",
            "midi": 52,
            "time": 12.375,
            "velocity": 0.7086614173228346,
            "duration": 1,
            "frequency": 164.81377845643496,
            "pitch": 52,
            "startTime": 12.375,
            "endTime": 13.375
          },
          {
            "name": "G3",
            "midi": 55,
            "time": 13.375,
            "velocity": 0.7086614173228346,
            "duration": 0.25,
            "frequency": 195.99771799087463,
            "pitch": 55,
            "startTime": 13.375,
            "endTime": 13.625
          },
          {
            "name": "F3",
            "midi": 53,
            "time": 13.625,
            "velocity": 0.7086614173228346,
            "duration": 0.5,
            "frequency": 174.61411571650194,
            "pitch": 53,
            "startTime": 13.625,
            "endTime": 14.125
          }
        ],
        "controlChanges": {},
        "id": 0,
        "channelNumber": 0,
        "isPercussion": false
      }
    ]
  },
  "sequoiadendron giganteum_keyboard": {
    "header": {
      "PPQ": 128,
      "bpm": 120,
      "name": ""
    },
    "startTime": 0,
    "duration": 3,
    "tracks": [
      {
        "startTime": 0,
        "duration": 3,
        "length": 24,
        "notes": [
          {
            "name": "F#3",
            "midi": 54,
            "time": 0,
            "velocity": 0.7086614173228346,
            "duration": 0.125,
            "frequency": 184.99721135581723,
            "pitch": 54,
            "startTime": 0,
            "endTime": 0.125
          },
          {
            "name": "A3",
            "midi": 57,
            "time": 0.125,
            "velocity": 0.7086614173228346,
            "duration": 0.125,
            "frequency": 220,
            "pitch": 57,
            "startTime": 0.125,
            "endTime": 0.25
          },
          {
            "name": "C#3",
            "midi": 49,
            "time": 0.25,
            "velocity": 0.7086614173228346,
            "duration": 0.125,
            "frequency": 138.59131548843604,
            "pitch": 49,
            "startTime": 0.25,
            "endTime": 0.375
          },
          {
            "name": "D5",
            "midi": 74,
            "time": 0.375,
            "velocity": 0.7086614173228346,
            "duration": 0.125,
            "frequency": 587.3295358348151,
            "pitch": 74,
            "startTime": 0.375,
            "endTime": 0.5
          },
          {
            "name": "A#5",
            "midi": 82,
            "time": 0.5,
            "velocity": 0.7086614173228346,
            "duration": 0.125,
            "frequency": 932.3275230361799,
            "pitch": 76,
            "startTime": 0.5,
            "endTime": 0.625
          },
          {
            "name": "F#5",
            "midi": 78,
            "time": 0.625,
            "velocity": 0.7086614173228346,
            "duration": 0.125,
            "frequency": 739.9888454232689,
            "pitch": 76,
            "startTime": 0.625,
            "endTime": 0.75
          },
          {
            "name": "D3",
            "midi": 50,
            "time": 0.75,
            "velocity": 0.7086614173228346,
            "duration": 0.125,
            "frequency": 146.8323839587038,
            "pitch": 50,
            "startTime": 0.75,
            "endTime": 0.875
          },
          {
            "name": "A#3",
            "midi": 58,
            "time": 0.875,
            "velocity": 0.7086614173228346,
            "duration": 0.125,
            "frequency": 233.08188075904496,
            "pitch": 58,
            "startTime": 0.875,
            "endTime": 1
          },
          {
            "name": "A3",
            "midi": 57,
            "time": 1,
            "velocity": 0.7086614173228346,
            "duration": 0.125,
            "frequency": 220,
            "pitch": 57,
            "startTime": 1,
            "endTime": 1.125
          },
          {
            "name": "C5",
            "midi": 72,
            "time": 1.125,
            "velocity": 0.7086614173228346,
            "duration": 0.125,
            "frequency": 523.2511306011972,
            "pitch": 72,
            "startTime": 1.125,
            "endTime": 1.25
          },
          {
            "name": "A#3",
            "midi": 58,
            "time": 1.25,
            "velocity": 0.7086614173228346,
            "duration": 0.125,
            "frequency": 233.08188075904496,
            "pitch": 58,
            "startTime": 1.25,
            "endTime": 1.375
          },
          {
            "name": "D4",
            "midi": 62,
            "time": 1.375,
            "velocity": 0.7086614173228346,
            "duration": 0.125,
            "frequency": 293.6647679174076,
            "pitch": 62,
            "startTime": 1.375,
            "endTime": 1.5
          },
          {
            "name": "A#5",
            "midi": 82,
            "time": 1.5,
            "velocity": 0.7086614173228346,
            "duration": 0.125,
            "frequency": 932.3275230361799,
            "pitch": 76,
            "startTime": 1.5,
            "endTime": 1.625
          },
          {
            "name": "C5",
            "midi": 72,
            "time": 1.625,
            "velocity": 0.7086614173228346,
            "duration": 0.125,
            "frequency": 523.2511306011972,
            "pitch": 72,
            "startTime": 1.625,
            "endTime": 1.75
          },
          {
            "name": "C4",
            "midi": 60,
            "time": 1.75,
            "velocity": 0.7086614173228346,
            "duration": 0.125,
            "frequency": 261.6255653005986,
            "pitch": 60,
            "startTime": 1.75,
            "endTime": 1.875
          },
          {
            "name": "G4",
            "midi": 67,
            "time": 1.875,
            "velocity": 0.7086614173228346,
            "duration": 0.125,
            "frequency": 391.99543598174927,
            "pitch": 67,
            "startTime": 1.875,
            "endTime": 2
          },
          {
            "name": "F#5",
            "midi": 78,
            "time": 2,
            "velocity": 0.7086614173228346,
            "duration": 0.125,
            "frequency": 739.9888454232689,
            "pitch": 76,
            "startTime": 2,
            "endTime": 2.125
          },
          {
            "name": "G4",
            "midi": 67,
            "time": 2.125,
            "velocity": 0.7086614173228346,
            "duration": 0.125,
            "frequency": 391.99543598174927,
            "pitch": 67,
            "startTime": 2.125,
            "endTime": 2.25
          },
          {
            "name": "D3",
            "midi": 50,
            "time": 2.25,
            "velocity": 0.7086614173228346,
            "duration": 0.125,
            "frequency": 146.8323839587038,
            "pitch": 50,
            "startTime": 2.25,
            "endTime": 2.375
          },
          {
            "name": "C5",
            "midi": 72,
            "time": 2.375,
            "velocity": 0.7086614173228346,
            "duration": 0.125,
            "frequency": 523.2511306011972,
            "pitch": 72,
            "startTime": 2.375,
            "endTime": 2.5
          },
          {
            "name": "F#4",
            "midi": 66,
            "time": 2.5,
            "velocity": 0.7086614173228346,
            "duration": 0.125,
            "frequency": 369.99442271163446,
            "pitch": 66,
            "startTime": 2.5,
            "endTime": 2.625
          },
          {
            "name": "A3",
            "midi": 57,
            "time": 2.625,
            "velocity": 0.7086614173228346,
            "duration": 0.125,
            "frequency": 220,
            "pitch": 57,
            "startTime": 2.625,
            "endTime": 2.75
          },
          {
            "name": "D5",
            "midi": 74,
            "time": 2.75,
            "velocity": 0.7086614173228346,
            "duration": 0.125,
            "frequency": 587.3295358348151,
            "pitch": 74,
            "startTime": 2.75,
            "endTime": 2.875
          },
          {
            "name": "E5",
            "midi": 76,
            "time": 2.875,
            "velocity": 0.7086614173228346,
            "duration": 0.125,
            "frequency": 659.2551138257398,
            "pitch": 76,
            "startTime": 2.875,
            "endTime": 3
          }
        ],
        "controlChanges": {},
        "id": 0,
        "channelNumber": 0,
        "isPercussion": false
      }
    ]
  },
  "sequoiadendron giganteum_chords": {
    "header": {
      "PPQ": 128,
      "bpm": 120,
      "name": ""
    },
    "startTime": 0,
    "duration": 1,
    "tracks": [
      {
        "startTime": 0,
        "duration": 1,
        "length": 23,
        "notes": [
          {
            "name": "G3",
            "midi": 55,
            "time": 0,
            "velocity": 0.7086614173228346,
            "duration": 0.5,
            "frequency": 195.99771799087463,
            "pitch": 55,
            "startTime": 0,
            "endTime": 0.5
          },
          {
            "name": "D#4",
            "midi": 63,
            "time": 0,
            "velocity": 0.7086614173228346,
            "duration": 0.5,
            "frequency": 311.12698372208087,
            "pitch": 63,
            "startTime": 0,
            "endTime": 0.5
          },
          {
            "name": "G4",
            "midi": 67,
            "time": 0,
            "velocity": 0.7086614173228346,
            "duration": 0.5,
            "frequency": 391.99543598174927,
            "pitch": 67,
            "startTime": 0,
            "endTime": 0.5
          },
          {
            "name": "A#4",
            "midi": 70,
            "time": 0,
            "velocity": 0.7086614173228346,
            "duration": 0.5,
            "frequency": 466.1637615180899,
            "pitch": 70,
            "startTime": 0,
            "endTime": 0.5
          },
          {
            "name": "G#5",
            "midi": 80,
            "time": 0,
            "velocity": 0.7086614173228346,
            "duration": 0.5,
            "frequency": 830.6093951598903,
            "pitch": 76,
            "startTime": 0,
            "endTime": 0.5
          },
          {
            "name": "F#6",
            "midi": 90,
            "time": 0,
            "velocity": 0.7086614173228346,
            "duration": 0.5,
            "frequency": 1479.9776908465378,
            "pitch": 76,
            "startTime": 0,
            "endTime": 0.5
          },
          {
            "name": "C#7",
            "midi": 97,
            "time": 0,
            "velocity": 0.7086614173228346,
            "duration": 0.5,
            "frequency": 2217.461047814977,
            "pitch": 76,
            "startTime": 0,
            "endTime": 0.5
          },
          {
            "name": "C8",
            "midi": 108,
            "time": 0,
            "velocity": 0.7086614173228346,
            "duration": 0.5,
            "frequency": 4186.009044809578,
            "pitch": 76,
            "startTime": 0,
            "endTime": 0.5
          },
          {
            "name": "D#8",
            "midi": 111,
            "time": 0,
            "velocity": 0.7086614173228346,
            "duration": 0.5,
            "frequency": 4978.031739553294,
            "pitch": 76,
            "startTime": 0,
            "endTime": 0.5
          },
          {
            "name": "F8",
            "midi": 113,
            "time": 0,
            "velocity": 0.7086614173228346,
            "duration": 0.5,
            "frequency": 5587.651702928062,
            "pitch": 76,
            "startTime": 0,
            "endTime": 0.5
          },
          {
            "name": "C9",
            "midi": 120,
            "time": 0,
            "velocity": 0.7086614173228346,
            "duration": 0.5,
            "frequency": 8372.018089619156,
            "pitch": 76,
            "startTime": 0,
            "endTime": 0.5
          },
          {
            "name": "G9",
            "midi": 127,
            "time": 0,
            "velocity": 0.7086614173228346,
            "duration": 0.5,
            "frequency": 12543.853951415975,
            "pitch": 76,
            "startTime": 0,
            "endTime": 0.5
          },
          {
            "name": "G#9",
            "midi": 128,
            "time": 0,
            "velocity": 0.7086614173228346,
            "duration": 0.5,
            "frequency": 13289.750322558244,
            "pitch": 76,
            "startTime": 0,
            "endTime": 0.5
          },
          {
            "name": "F10",
            "midi": 137,
            "time": 0,
            "velocity": 0.7086614173228346,
            "duration": 0.5,
            "frequency": 22350.606811712252,
            "pitch": 76,
            "startTime": 0,
            "endTime": 0.5
          },
          {
            "name": "D3",
            "midi": 50,
            "time": 0.5,
            "velocity": 0.7086614173228346,
            "duration": 0.5,
            "frequency": 146.8323839587038,
            "pitch": 50,
            "startTime": 0.5,
            "endTime": 1
          },
          {
            "name": "F#3",
            "midi": 54,
            "time": 0.5,
            "velocity": 0.7086614173228346,
            "duration": 0.5,
            "frequency": 184.99721135581723,
            "pitch": 54,
            "startTime": 0.5,
            "endTime": 1
          },
          {
            "name": "D4",
            "midi": 62,
            "time": 0.5,
            "velocity": 0.7086614173228346,
            "duration": 0.5,
            "frequency": 293.6647679174076,
            "pitch": 62,
            "startTime": 0.5,
            "endTime": 1
          },
          {
            "name": "C#5",
            "midi": 73,
            "time": 0.5,
            "velocity": 0.7086614173228346,
            "duration": 0.5,
            "frequency": 554.3652619537442,
            "pitch": 73,
            "startTime": 0.5,
            "endTime": 1
          },
          {
            "name": "F5",
            "midi": 77,
            "time": 0.5,
            "velocity": 0.7086614173228346,
            "duration": 0.5,
            "frequency": 698.4564628660078,
            "pitch": 76,
            "startTime": 0.5,
            "endTime": 1
          },
          {
            "name": "A5",
            "midi": 81,
            "time": 0.5,
            "velocity": 0.7086614173228346,
            "duration": 0.5,
            "frequency": 880,
            "pitch": 76,
            "startTime": 0.5,
            "endTime": 1
          },
          {
            "name": "D#6",
            "midi": 87,
            "time": 0.5,
            "velocity": 0.7086614173228346,
            "duration": 0.5,
            "frequency": 1244.5079348883235,
            "pitch": 76,
            "startTime": 0.5,
            "endTime": 1
          },
          {
            "name": "A#6",
            "midi": 94,
            "time": 0.5,
            "velocity": 0.7086614173228346,
            "duration": 0.5,
            "frequency": 1864.6550460723597,
            "pitch": 76,
            "startTime": 0.5,
            "endTime": 1
          },
          {
            "name": "F7",
            "midi": 101,
            "time": 0.5,
            "velocity": 0.7086614173228346,
            "duration": 0.5,
            "frequency": 2793.825851464031,
            "pitch": 76,
            "startTime": 0.5,
            "endTime": 1
          }
        ],
        "controlChanges": {},
        "id": 0,
        "channelNumber": 0,
        "isPercussion": false
      }
    ]
  },
  "sorbus mitchellii_french": {
    "header": {
      "PPQ": 128,
      "bpm": 120,
      "name": ""
    },
    "startTime": 0,
    "duration": 8.125,
    "tracks": [
      {
        "startTime": 0,
        "duration": 8.125,
        "length": 17,
        "notes": [
          {
            "name": "E4",
            "midi": 64,
            "time": 0,
            "velocity": 0.7086614173228346,
            "duration": 0.25,
            "frequency": 329.6275569128699,
            "pitch": 64,
            "startTime": 0,
            "endTime": 0.25
          },
          {
            "name": "A4",
            "midi": 69,
            "time": 0.25,
            "velocity": 0.7086614173228346,
            "duration": 0.25,
            "frequency": 440,
            "pitch": 69,
            "startTime": 0.25,
            "endTime": 0.5
          },
          {
            "name": "D5",
            "midi": 74,
            "time": 0.5,
            "velocity": 0.7086614173228346,
            "duration": 0.25,
            "frequency": 587.3295358348151,
            "pitch": 74,
            "startTime": 0.5,
            "endTime": 0.75
          },
          {
            "name": "B4",
            "midi": 71,
            "time": 0.75,
            "velocity": 0.7086614173228346,
            "duration": 1,
            "frequency": 493.8833012561242,
            "pitch": 71,
            "startTime": 0.75,
            "endTime": 1.75
          },
          {
            "name": "G4",
            "midi": 67,
            "time": 1.75,
            "velocity": 0.7086614173228346,
            "duration": 0.25,
            "frequency": 391.99543598174927,
            "pitch": 67,
            "startTime": 1.75,
            "endTime": 2
          },
          {
            "name": "E4",
            "midi": 64,
            "time": 2,
            "velocity": 0.7086614173228346,
            "duration": 0.25,
            "frequency": 329.6275569128699,
            "pitch": 64,
            "startTime": 2,
            "endTime": 2.25
          },
          {
            "name": "G4",
            "midi": 67,
            "time": 2.25,
            "velocity": 0.7086614173228346,
            "duration": 0.125,
            "frequency": 391.99543598174927,
            "pitch": 67,
            "startTime": 2.25,
            "endTime": 2.375
          },
          {
            "name": "F4",
            "midi": 65,
            "time": 2.375,
            "velocity": 0.7086614173228346,
            "duration": 0.5,
            "frequency": 349.2282314330039,
            "pitch": 65,
            "startTime": 2.375,
            "endTime": 2.875
          },
          {
            "name": "B4",
            "midi": 71,
            "time": 2.875,
            "velocity": 0.7086614173228346,
            "duration": 0.5,
            "frequency": 493.8833012561242,
            "pitch": 71,
            "startTime": 2.875,
            "endTime": 3.375
          },
          {
            "name": "F4",
            "midi": 65,
            "time": 3.375,
            "velocity": 0.7086614173228346,
            "duration": 0.25,
            "frequency": 349.2282314330039,
            "pitch": 65,
            "startTime": 3.375,
            "endTime": 3.625
          },
          {
            "name": "C4",
            "midi": 60,
            "time": 3.625,
            "velocity": 0.7086614173228346,
            "duration": 1,
            "frequency": 261.6255653005986,
            "pitch": 60,
            "startTime": 3.625,
            "endTime": 4.625
          },
          {
            "name": "A3",
            "midi": 57,
            "time": 4.625,
            "velocity": 0.7086614173228346,
            "duration": 0.5,
            "frequency": 220,
            "pitch": 57,
            "startTime": 4.625,
            "endTime": 5.125
          },
          {
            "name": "E3",
            "midi": 52,
            "time": 5.125,
            "velocity": 0.7086614173228346,
            "duration": 1,
            "frequency": 164.81377845643496,
            "pitch": 52,
            "startTime": 5.125,
            "endTime": 6.125
          },
          {
            "name": "E3",
            "midi": 52,
            "time": 6.125,
            "velocity": 0.7086614173228346,
            "duration": 0.5,
            "frequency": 164.81377845643496,
            "pitch": 52,
            "startTime": 6.125,
            "endTime": 6.625
          },
          {
            "name": "E3",
            "midi": 52,
            "time": 6.625,
            "velocity": 0.7086614173228346,
            "duration": 0.5,
            "frequency": 164.81377845643496,
            "pitch": 52,
            "startTime": 6.625,
            "endTime": 7.125
          },
          {
            "name": "B2",
            "midi": 47,
            "time": 7.125,
            "velocity": 0.7086614173228346,
            "duration": 0.5,
            "frequency": 123.47082531403105,
            "pitch": 47,
            "startTime": 7.125,
            "endTime": 7.625
          },
          {
            "name": "B2",
            "midi": 47,
            "time": 7.625,
            "velocity": 0.7086614173228346,
            "duration": 0.5,
            "frequency": 123.47082531403105,
            "pitch": 47,
            "startTime": 7.625,
            "endTime": 8.125
          }
        ],
        "controlChanges": {},
        "id": 0,
        "channelNumber": 0,
        "isPercussion": false
      }
    ]
  },
  "sorbus mitchellii_keyboard": {
    "header": {
      "PPQ": 128,
      "bpm": 120,
      "name": ""
    },
    "startTime": 0,
    "duration": 2.125,
    "tracks": [
      {
        "startTime": 0,
        "duration": 2.125,
        "length": 17,
        "notes": [
          {
            "name": "F#3",
            "midi": 54,
            "time": 0,
            "velocity": 0.7086614173228346,
            "duration": 0.125,
            "frequency": 184.99721135581723,
            "pitch": 54,
            "startTime": 0,
            "endTime": 0.125
          },
          {
            "name": "A#5",
            "midi": 82,
            "time": 0.125,
            "velocity": 0.7086614173228346,
            "duration": 0.125,
            "frequency": 932.3275230361799,
            "pitch": 76,
            "startTime": 0.125,
            "endTime": 0.25
          },
          {
            "name": "D4",
            "midi": 62,
            "time": 0.25,
            "velocity": 0.7086614173228346,
            "duration": 0.125,
            "frequency": 293.6647679174076,
            "pitch": 62,
            "startTime": 0.25,
            "endTime": 0.375
          },
          {
            "name": "G#4",
            "midi": 68,
            "time": 0.375,
            "velocity": 0.7086614173228346,
            "duration": 0.125,
            "frequency": 415.3046975799451,
            "pitch": 68,
            "startTime": 0.375,
            "endTime": 0.5
          },
          {
            "name": "D5",
            "midi": 74,
            "time": 0.5,
            "velocity": 0.7086614173228346,
            "duration": 0.125,
            "frequency": 587.3295358348151,
            "pitch": 74,
            "startTime": 0.5,
            "endTime": 0.625
          },
          {
            "name": "F#3",
            "midi": 54,
            "time": 0.625,
            "velocity": 0.7086614173228346,
            "duration": 0.125,
            "frequency": 184.99721135581723,
            "pitch": 54,
            "startTime": 0.625,
            "endTime": 0.75
          },
          {
            "name": "C4",
            "midi": 60,
            "time": 0.75,
            "velocity": 0.7086614173228346,
            "duration": 0.125,
            "frequency": 261.6255653005986,
            "pitch": 60,
            "startTime": 0.75,
            "endTime": 0.875
          },
          {
            "name": "E5",
            "midi": 76,
            "time": 0.875,
            "velocity": 0.7086614173228346,
            "duration": 0.125,
            "frequency": 659.2551138257398,
            "pitch": 76,
            "startTime": 0.875,
            "endTime": 1
          },
          {
            "name": "F#5",
            "midi": 78,
            "time": 1,
            "velocity": 0.7086614173228346,
            "duration": 0.125,
            "frequency": 739.9888454232689,
            "pitch": 76,
            "startTime": 1,
            "endTime": 1.125
          },
          {
            "name": "F#4",
            "midi": 66,
            "time": 1.125,
            "velocity": 0.7086614173228346,
            "duration": 0.125,
            "frequency": 369.99442271163446,
            "pitch": 66,
            "startTime": 1.125,
            "endTime": 1.25
          },
          {
            "name": "B3",
            "midi": 59,
            "time": 1.25,
            "velocity": 0.7086614173228346,
            "duration": 0.125,
            "frequency": 246.9416506280621,
            "pitch": 59,
            "startTime": 1.25,
            "endTime": 1.375
          },
          {
            "name": "B4",
            "midi": 71,
            "time": 1.375,
            "velocity": 0.7086614173228346,
            "duration": 0.125,
            "frequency": 493.8833012561242,
            "pitch": 71,
            "startTime": 1.375,
            "endTime": 1.5
          },
          {
            "name": "A3",
            "midi": 57,
            "time": 1.5,
            "velocity": 0.7086614173228346,
            "duration": 0.125,
            "frequency": 220,
            "pitch": 57,
            "startTime": 1.5,
            "endTime": 1.625
          },
          {
            "name": "B5",
            "midi": 83,
            "time": 1.625,
            "velocity": 0.7086614173228346,
            "duration": 0.125,
            "frequency": 987.7666025122484,
            "pitch": 76,
            "startTime": 1.625,
            "endTime": 1.75
          },
          {
            "name": "B5",
            "midi": 83,
            "time": 1.75,
            "velocity": 0.7086614173228346,
            "duration": 0.125,
            "frequency": 987.7666025122484,
            "pitch": 76,
            "startTime": 1.75,
            "endTime": 1.875
          },
          {
            "name": "F#5",
            "midi": 78,
            "time": 1.875,
            "velocity": 0.7086614173228346,
            "duration": 0.125,
            "frequency": 739.9888454232689,
            "pitch": 76,
            "startTime": 1.875,
            "endTime": 2
          },
          {
            "name": "F#5",
            "midi": 78,
            "time": 2,
            "velocity": 0.7086614173228346,
            "duration": 0.125,
            "frequency": 739.9888454232689,
            "pitch": 76,
            "startTime": 2,
            "endTime": 2.125
          }
        ],
        "controlChanges": {},
        "id": 0,
        "channelNumber": 0,
        "isPercussion": false
      }
    ]
  },
  "sorbus mitchellii_chords": {
    "header": {
      "PPQ": 128,
      "bpm": 120,
      "name": ""
    },
    "startTime": 0,
    "duration": 1,
    "tracks": [
      {
        "startTime": 0,
        "duration": 1,
        "length": 16,
        "notes": [
          {
            "name": "G3",
            "midi": 55,
            "time": 0,
            "velocity": 0.7086614173228346,
            "duration": 0.5,
            "frequency": 195.99771799087463,
            "pitch": 55,
            "startTime": 0,
            "endTime": 0.5
          },
          {
            "name": "G#3",
            "midi": 56,
            "time": 0,
            "velocity": 0.7086614173228346,
            "duration": 0.5,
            "frequency": 207.65234878997256,
            "pitch": 56,
            "startTime": 0,
            "endTime": 0.5
          },
          {
            "name": "G4",
            "midi": 67,
            "time": 0,
            "velocity": 0.7086614173228346,
            "duration": 0.5,
            "frequency": 391.99543598174927,
            "pitch": 67,
            "startTime": 0,
            "endTime": 0.5
          },
          {
            "name": "C5",
            "midi": 72,
            "time": 0,
            "velocity": 0.7086614173228346,
            "duration": 0.5,
            "frequency": 523.2511306011972,
            "pitch": 72,
            "startTime": 0,
            "endTime": 0.5
          },
          {
            "name": "A#5",
            "midi": 82,
            "time": 0,
            "velocity": 0.7086614173228346,
            "duration": 0.5,
            "frequency": 932.3275230361799,
            "pitch": 76,
            "startTime": 0,
            "endTime": 0.5
          },
          {
            "name": "G6",
            "midi": 91,
            "time": 0,
            "velocity": 0.7086614173228346,
            "duration": 0.5,
            "frequency": 1567.981743926997,
            "pitch": 76,
            "startTime": 0,
            "endTime": 0.5
          },
          {
            "name": "F3",
            "midi": 53,
            "time": 0.5,
            "velocity": 0.7086614173228346,
            "duration": 0.5,
            "frequency": 174.61411571650194,
            "pitch": 53,
            "startTime": 0.5,
            "endTime": 1
          },
          {
            "name": "F#3",
            "midi": 54,
            "time": 0.5,
            "velocity": 0.7086614173228346,
            "duration": 0.5,
            "frequency": 184.99721135581723,
            "pitch": 54,
            "startTime": 0.5,
            "endTime": 1
          },
          {
            "name": "A3",
            "midi": 57,
            "time": 0.5,
            "velocity": 0.7086614173228346,
            "duration": 0.5,
            "frequency": 220,
            "pitch": 57,
            "startTime": 0.5,
            "endTime": 1
          },
          {
            "name": "C4",
            "midi": 60,
            "time": 0.5,
            "velocity": 0.7086614173228346,
            "duration": 0.5,
            "frequency": 261.6255653005986,
            "pitch": 60,
            "startTime": 0.5,
            "endTime": 1
          },
          {
            "name": "D4",
            "midi": 62,
            "time": 0.5,
            "velocity": 0.7086614173228346,
            "duration": 0.5,
            "frequency": 293.6647679174076,
            "pitch": 62,
            "startTime": 0.5,
            "endTime": 1
          },
          {
            "name": "D#4",
            "midi": 63,
            "time": 0.5,
            "velocity": 0.7086614173228346,
            "duration": 0.5,
            "frequency": 311.12698372208087,
            "pitch": 63,
            "startTime": 0.5,
            "endTime": 1
          },
          {
            "name": "E4",
            "midi": 64,
            "time": 0.5,
            "velocity": 0.7086614173228346,
            "duration": 0.5,
            "frequency": 329.6275569128699,
            "pitch": 64,
            "startTime": 0.5,
            "endTime": 1
          },
          {
            "name": "E5",
            "midi": 76,
            "time": 0.5,
            "velocity": 0.7086614173228346,
            "duration": 0.5,
            "frequency": 659.2551138257398,
            "pitch": 76,
            "startTime": 0.5,
            "endTime": 1
          },
          {
            "name": "F#5",
            "midi": 78,
            "time": 0.5,
            "velocity": 0.7086614173228346,
            "duration": 0.5,
            "frequency": 739.9888454232689,
            "pitch": 76,
            "startTime": 0.5,
            "endTime": 1
          },
          {
            "name": "F#6",
            "midi": 90,
            "time": 0.5,
            "velocity": 0.7086614173228346,
            "duration": 0.5,
            "frequency": 1479.9776908465378,
            "pitch": 76,
            "startTime": 0.5,
            "endTime": 1
          }
        ],
        "controlChanges": {},
        "id": 0,
        "channelNumber": 0,
        "isPercussion": false
      }
    ]
  },
  "syringa vulgaris_french": {
    "header": {
      "PPQ": 128,
      "bpm": 120,
      "name": ""
    },
    "startTime": 0,
    "duration": 7.625,
    "tracks": [
      {
        "startTime": 0,
        "duration": 7.625,
        "length": 16,
        "notes": [
          {
            "name": "E4",
            "midi": 64,
            "time": 0,
            "velocity": 0.7086614173228346,
            "duration": 0.25,
            "frequency": 329.6275569128699,
            "pitch": 64,
            "startTime": 0,
            "endTime": 0.25
          },
          {
            "name": "D4",
            "midi": 62,
            "time": 0.25,
            "velocity": 0.7086614173228346,
            "duration": 0.125,
            "frequency": 293.6647679174076,
            "pitch": 62,
            "startTime": 0.25,
            "endTime": 0.375
          },
          {
            "name": "D4",
            "midi": 62,
            "time": 0.375,
            "velocity": 0.7086614173228346,
            "duration": 0.25,
            "frequency": 293.6647679174076,
            "pitch": 62,
            "startTime": 0.375,
            "endTime": 0.625
          },
          {
            "name": "B3",
            "midi": 59,
            "time": 0.625,
            "velocity": 0.7086614173228346,
            "duration": 0.5,
            "frequency": 246.9416506280621,
            "pitch": 59,
            "startTime": 0.625,
            "endTime": 1.125
          },
          {
            "name": "G3",
            "midi": 55,
            "time": 1.125,
            "velocity": 0.7086614173228346,
            "duration": 0.5,
            "frequency": 195.99771799087463,
            "pitch": 55,
            "startTime": 1.125,
            "endTime": 1.625
          },
          {
            "name": "G3",
            "midi": 55,
            "time": 1.625,
            "velocity": 0.7086614173228346,
            "duration": 1,
            "frequency": 195.99771799087463,
            "pitch": 55,
            "startTime": 1.625,
            "endTime": 2.625
          },
          {
            "name": "A3",
            "midi": 57,
            "time": 2.625,
            "velocity": 0.7086614173228346,
            "duration": 1,
            "frequency": 220,
            "pitch": 57,
            "startTime": 2.625,
            "endTime": 3.625
          },
          {
            "name": "G3",
            "midi": 55,
            "time": 3.625,
            "velocity": 0.7086614173228346,
            "duration": 0.125,
            "frequency": 195.99771799087463,
            "pitch": 55,
            "startTime": 3.625,
            "endTime": 3.75
          },
          {
            "name": "A3",
            "midi": 57,
            "time": 3.75,
            "velocity": 0.7086614173228346,
            "duration": 0.125,
            "frequency": 220,
            "pitch": 57,
            "startTime": 3.75,
            "endTime": 3.875
          },
          {
            "name": "G3",
            "midi": 55,
            "time": 3.875,
            "velocity": 0.7086614173228346,
            "duration": 0.25,
            "frequency": 195.99771799087463,
            "pitch": 55,
            "startTime": 3.875,
            "endTime": 4.125
          },
          {
            "name": "E3",
            "midi": 52,
            "time": 4.125,
            "velocity": 0.7086614173228346,
            "duration": 0.5,
            "frequency": 164.81377845643496,
            "pitch": 52,
            "startTime": 4.125,
            "endTime": 4.625
          },
          {
            "name": "G3",
            "midi": 55,
            "time": 4.625,
            "velocity": 0.7086614173228346,
            "duration": 1,
            "frequency": 195.99771799087463,
            "pitch": 55,
            "startTime": 4.625,
            "endTime": 5.625
          },
          {
            "name": "A3",
            "midi": 57,
            "time": 5.625,
            "velocity": 0.7086614173228346,
            "duration": 1,
            "frequency": 220,
            "pitch": 57,
            "startTime": 5.625,
            "endTime": 6.625
          },
          {
            "name": "D4",
            "midi": 62,
            "time": 6.625,
            "velocity": 0.7086614173228346,
            "duration": 0.25,
            "frequency": 293.6647679174076,
            "pitch": 62,
            "startTime": 6.625,
            "endTime": 6.875
          },
          {
            "name": "B3",
            "midi": 59,
            "time": 6.875,
            "velocity": 0.7086614173228346,
            "duration": 0.5,
            "frequency": 246.9416506280621,
            "pitch": 59,
            "startTime": 6.875,
            "endTime": 7.375
          },
          {
            "name": "E4",
            "midi": 64,
            "time": 7.375,
            "velocity": 0.7086614173228346,
            "duration": 0.25,
            "frequency": 329.6275569128699,
            "pitch": 64,
            "startTime": 7.375,
            "endTime": 7.625
          }
        ],
        "controlChanges": {},
        "id": 0,
        "channelNumber": 0,
        "isPercussion": false
      }
    ]
  },
  "syringa vulgaris_keyboard": {
    "header": {
      "PPQ": 128,
      "bpm": 120,
      "name": ""
    },
    "startTime": 0,
    "duration": 2,
    "tracks": [
      {
        "startTime": 0,
        "duration": 2,
        "length": 16,
        "notes": [
          {
            "name": "F#3",
            "midi": 54,
            "time": 0,
            "velocity": 0.7086614173228346,
            "duration": 0.125,
            "frequency": 184.99721135581723,
            "pitch": 54,
            "startTime": 0,
            "endTime": 0.125
          },
          {
            "name": "A#4",
            "midi": 70,
            "time": 0.125,
            "velocity": 0.7086614173228346,
            "duration": 0.125,
            "frequency": 466.1637615180899,
            "pitch": 70,
            "startTime": 0.125,
            "endTime": 0.25
          },
          {
            "name": "D4",
            "midi": 62,
            "time": 0.25,
            "velocity": 0.7086614173228346,
            "duration": 0.125,
            "frequency": 293.6647679174076,
            "pitch": 62,
            "startTime": 0.25,
            "endTime": 0.375
          },
          {
            "name": "F#5",
            "midi": 78,
            "time": 0.375,
            "velocity": 0.7086614173228346,
            "duration": 0.125,
            "frequency": 739.9888454232689,
            "pitch": 76,
            "startTime": 0.375,
            "endTime": 0.5
          },
          {
            "name": "C5",
            "midi": 72,
            "time": 0.5,
            "velocity": 0.7086614173228346,
            "duration": 0.125,
            "frequency": 523.2511306011972,
            "pitch": 72,
            "startTime": 0.5,
            "endTime": 0.625
          },
          {
            "name": "G4",
            "midi": 67,
            "time": 0.625,
            "velocity": 0.7086614173228346,
            "duration": 0.125,
            "frequency": 391.99543598174927,
            "pitch": 67,
            "startTime": 0.625,
            "endTime": 0.75
          },
          {
            "name": "D3",
            "midi": 50,
            "time": 0.75,
            "velocity": 0.7086614173228346,
            "duration": 0.125,
            "frequency": 146.8323839587038,
            "pitch": 50,
            "startTime": 0.75,
            "endTime": 0.875
          },
          {
            "name": "C4",
            "midi": 60,
            "time": 0.875,
            "velocity": 0.7086614173228346,
            "duration": 0.125,
            "frequency": 261.6255653005986,
            "pitch": 60,
            "startTime": 0.875,
            "endTime": 1
          },
          {
            "name": "E4",
            "midi": 64,
            "time": 1,
            "velocity": 0.7086614173228346,
            "duration": 0.125,
            "frequency": 329.6275569128699,
            "pitch": 64,
            "startTime": 1,
            "endTime": 1.125
          },
          {
            "name": "D5",
            "midi": 74,
            "time": 1.125,
            "velocity": 0.7086614173228346,
            "duration": 0.125,
            "frequency": 587.3295358348151,
            "pitch": 74,
            "startTime": 1.125,
            "endTime": 1.25
          },
          {
            "name": "B5",
            "midi": 83,
            "time": 1.25,
            "velocity": 0.7086614173228346,
            "duration": 0.125,
            "frequency": 987.7666025122484,
            "pitch": 76,
            "startTime": 1.25,
            "endTime": 1.375
          },
          {
            "name": "G4",
            "midi": 67,
            "time": 1.375,
            "velocity": 0.7086614173228346,
            "duration": 0.125,
            "frequency": 391.99543598174927,
            "pitch": 67,
            "startTime": 1.375,
            "endTime": 1.5
          },
          {
            "name": "D3",
            "midi": 50,
            "time": 1.5,
            "velocity": 0.7086614173228346,
            "duration": 0.125,
            "frequency": 146.8323839587038,
            "pitch": 50,
            "startTime": 1.5,
            "endTime": 1.625
          },
          {
            "name": "D4",
            "midi": 62,
            "time": 1.625,
            "velocity": 0.7086614173228346,
            "duration": 0.125,
            "frequency": 293.6647679174076,
            "pitch": 62,
            "startTime": 1.625,
            "endTime": 1.75
          },
          {
            "name": "F#5",
            "midi": 78,
            "time": 1.75,
            "velocity": 0.7086614173228346,
            "duration": 0.125,
            "frequency": 739.9888454232689,
            "pitch": 76,
            "startTime": 1.75,
            "endTime": 1.875
          },
          {
            "name": "F#3",
            "midi": 54,
            "time": 1.875,
            "velocity": 0.7086614173228346,
            "duration": 0.125,
            "frequency": 184.99721135581723,
            "pitch": 54,
            "startTime": 1.875,
            "endTime": 2
          }
        ],
        "controlChanges": {},
        "id": 0,
        "channelNumber": 0,
        "isPercussion": false
      }
    ]
  },
  "syringa vulgaris_chords": {
    "header": {
      "PPQ": 128,
      "bpm": 120,
      "name": ""
    },
    "startTime": 0,
    "duration": 1,
    "tracks": [
      {
        "startTime": 0,
        "duration": 1,
        "length": 15,
        "notes": [
          {
            "name": "G3",
            "midi": 55,
            "time": 0,
            "velocity": 0.7086614173228346,
            "duration": 0.5,
            "frequency": 195.99771799087463,
            "pitch": 55,
            "startTime": 0,
            "endTime": 0.5
          },
          {
            "name": "B3",
            "midi": 59,
            "time": 0,
            "velocity": 0.7086614173228346,
            "duration": 0.5,
            "frequency": 246.9416506280621,
            "pitch": 59,
            "startTime": 0,
            "endTime": 0.5
          },
          {
            "name": "G4",
            "midi": 67,
            "time": 0,
            "velocity": 0.7086614173228346,
            "duration": 0.5,
            "frequency": 391.99543598174927,
            "pitch": 67,
            "startTime": 0,
            "endTime": 0.5
          },
          {
            "name": "F#5",
            "midi": 78,
            "time": 0,
            "velocity": 0.7086614173228346,
            "duration": 0.5,
            "frequency": 739.9888454232689,
            "pitch": 76,
            "startTime": 0,
            "endTime": 0.5
          },
          {
            "name": "F6",
            "midi": 89,
            "time": 0,
            "velocity": 0.7086614173228346,
            "duration": 0.5,
            "frequency": 1396.9129257320155,
            "pitch": 76,
            "startTime": 0,
            "endTime": 0.5
          },
          {
            "name": "D7",
            "midi": 98,
            "time": 0,
            "velocity": 0.7086614173228346,
            "duration": 0.5,
            "frequency": 2349.31814333926,
            "pitch": 76,
            "startTime": 0,
            "endTime": 0.5
          },
          {
            "name": "C#8",
            "midi": 109,
            "time": 0,
            "velocity": 0.7086614173228346,
            "duration": 0.5,
            "frequency": 4434.922095629954,
            "pitch": 76,
            "startTime": 0,
            "endTime": 0.5
          },
          {
            "name": "A3",
            "midi": 57,
            "time": 0.5,
            "velocity": 0.7086614173228346,
            "duration": 0.5,
            "frequency": 220,
            "pitch": 57,
            "startTime": 0.5,
            "endTime": 1
          },
          {
            "name": "A#3",
            "midi": 58,
            "time": 0.5,
            "velocity": 0.7086614173228346,
            "duration": 0.5,
            "frequency": 233.08188075904496,
            "pitch": 58,
            "startTime": 0.5,
            "endTime": 1
          },
          {
            "name": "E4",
            "midi": 64,
            "time": 0.5,
            "velocity": 0.7086614173228346,
            "duration": 0.5,
            "frequency": 329.6275569128699,
            "pitch": 64,
            "startTime": 0.5,
            "endTime": 1
          },
          {
            "name": "D5",
            "midi": 74,
            "time": 0.5,
            "velocity": 0.7086614173228346,
            "duration": 0.5,
            "frequency": 587.3295358348151,
            "pitch": 74,
            "startTime": 0.5,
            "endTime": 1
          },
          {
            "name": "C#6",
            "midi": 85,
            "time": 0.5,
            "velocity": 0.7086614173228346,
            "duration": 0.5,
            "frequency": 1108.7305239074883,
            "pitch": 76,
            "startTime": 0.5,
            "endTime": 1
          },
          {
            "name": "G6",
            "midi": 91,
            "time": 0.5,
            "velocity": 0.7086614173228346,
            "duration": 0.5,
            "frequency": 1567.981743926997,
            "pitch": 76,
            "startTime": 0.5,
            "endTime": 1
          },
          {
            "name": "F#7",
            "midi": 102,
            "time": 0.5,
            "velocity": 0.7086614173228346,
            "duration": 0.5,
            "frequency": 2959.9553816930757,
            "pitch": 76,
            "startTime": 0.5,
            "endTime": 1
          },
          {
            "name": "G7",
            "midi": 103,
            "time": 0.5,
            "velocity": 0.7086614173228346,
            "duration": 0.5,
            "frequency": 3135.9634878539946,
            "pitch": 76,
            "startTime": 0.5,
            "endTime": 1
          }
        ],
        "controlChanges": {},
        "id": 0,
        "channelNumber": 0,
        "isPercussion": false
      }
    ]
  },
  "taxus baccata_french": {
    "header": {
      "PPQ": 128,
      "bpm": 120,
      "name": ""
    },
    "startTime": 0,
    "duration": 8.25,
    "tracks": [
      {
        "startTime": 0,
        "duration": 8.25,
        "length": 13,
        "notes": [
          {
            "name": "F4",
            "midi": 65,
            "time": 0,
            "velocity": 0.7086614173228346,
            "duration": 0.25,
            "frequency": 349.2282314330039,
            "pitch": 65,
            "startTime": 0,
            "endTime": 0.25
          },
          {
            "name": "A4",
            "midi": 69,
            "time": 0.25,
            "velocity": 0.7086614173228346,
            "duration": 1,
            "frequency": 440,
            "pitch": 69,
            "startTime": 0.25,
            "endTime": 1.25
          },
          {
            "name": "C5",
            "midi": 72,
            "time": 1.25,
            "velocity": 0.7086614173228346,
            "duration": 0.125,
            "frequency": 523.2511306011972,
            "pitch": 72,
            "startTime": 1.25,
            "endTime": 1.375
          },
          {
            "name": "G4",
            "midi": 67,
            "time": 1.375,
            "velocity": 0.7086614173228346,
            "duration": 0.25,
            "frequency": 391.99543598174927,
            "pitch": 67,
            "startTime": 1.375,
            "endTime": 1.625
          },
          {
            "name": "E4",
            "midi": 64,
            "time": 1.625,
            "velocity": 0.7086614173228346,
            "duration": 0.25,
            "frequency": 329.6275569128699,
            "pitch": 64,
            "startTime": 1.625,
            "endTime": 1.875
          },
          {
            "name": "G4",
            "midi": 67,
            "time": 1.875,
            "velocity": 0.7086614173228346,
            "duration": 0.125,
            "frequency": 391.99543598174927,
            "pitch": 67,
            "startTime": 1.875,
            "endTime": 2
          },
          {
            "name": "B4",
            "midi": 71,
            "time": 2,
            "velocity": 0.7086614173228346,
            "duration": 1,
            "frequency": 493.8833012561242,
            "pitch": 71,
            "startTime": 2,
            "endTime": 3
          },
          {
            "name": "A4",
            "midi": 69,
            "time": 3,
            "velocity": 0.7086614173228346,
            "duration": 1,
            "frequency": 440,
            "pitch": 69,
            "startTime": 3,
            "endTime": 4
          },
          {
            "name": "C5",
            "midi": 72,
            "time": 4,
            "velocity": 0.7086614173228346,
            "duration": 1,
            "frequency": 523.2511306011972,
            "pitch": 72,
            "startTime": 4,
            "endTime": 5
          },
          {
            "name": "C5",
            "midi": 72,
            "time": 5,
            "velocity": 0.7086614173228346,
            "duration": 1,
            "frequency": 523.2511306011972,
            "pitch": 72,
            "startTime": 5,
            "endTime": 6
          },
          {
            "name": "A4",
            "midi": 69,
            "time": 6,
            "velocity": 0.7086614173228346,
            "duration": 1,
            "frequency": 440,
            "pitch": 69,
            "startTime": 6,
            "endTime": 7
          },
          {
            "name": "F4",
            "midi": 65,
            "time": 7,
            "velocity": 0.7086614173228346,
            "duration": 0.25,
            "frequency": 349.2282314330039,
            "pitch": 65,
            "startTime": 7,
            "endTime": 7.25
          },
          {
            "name": "A4",
            "midi": 69,
            "time": 7.25,
            "velocity": 0.7086614173228346,
            "duration": 1,
            "frequency": 440,
            "pitch": 69,
            "startTime": 7.25,
            "endTime": 8.25
          }
        ],
        "controlChanges": {},
        "id": 0,
        "channelNumber": 0,
        "isPercussion": false
      }
    ]
  },
  "taxus baccata_keyboard": {
    "header": {
      "PPQ": 128,
      "bpm": 120,
      "name": ""
    },
    "startTime": 0,
    "duration": 1.625,
    "tracks": [
      {
        "startTime": 0,
        "duration": 1.625,
        "length": 13,
        "notes": [
          {
            "name": "F#4",
            "midi": 66,
            "time": 0,
            "velocity": 0.7086614173228346,
            "duration": 0.125,
            "frequency": 369.99442271163446,
            "pitch": 66,
            "startTime": 0,
            "endTime": 0.125
          },
          {
            "name": "D3",
            "midi": 50,
            "time": 0.125,
            "velocity": 0.7086614173228346,
            "duration": 0.125,
            "frequency": 146.8323839587038,
            "pitch": 50,
            "startTime": 0.125,
            "endTime": 0.25
          },
          {
            "name": "G3",
            "midi": 55,
            "time": 0.25,
            "velocity": 0.7086614173228346,
            "duration": 0.125,
            "frequency": 195.99771799087463,
            "pitch": 55,
            "startTime": 0.25,
            "endTime": 0.375
          },
          {
            "name": "D5",
            "midi": 74,
            "time": 0.375,
            "velocity": 0.7086614173228346,
            "duration": 0.125,
            "frequency": 587.3295358348151,
            "pitch": 74,
            "startTime": 0.375,
            "endTime": 0.5
          },
          {
            "name": "F#3",
            "midi": 54,
            "time": 0.5,
            "velocity": 0.7086614173228346,
            "duration": 0.125,
            "frequency": 184.99721135581723,
            "pitch": 54,
            "startTime": 0.5,
            "endTime": 0.625
          },
          {
            "name": "C4",
            "midi": 60,
            "time": 0.625,
            "velocity": 0.7086614173228346,
            "duration": 0.125,
            "frequency": 261.6255653005986,
            "pitch": 60,
            "startTime": 0.625,
            "endTime": 0.75
          },
          {
            "name": "G#4",
            "midi": 68,
            "time": 0.75,
            "velocity": 0.7086614173228346,
            "duration": 0.125,
            "frequency": 415.3046975799451,
            "pitch": 68,
            "startTime": 0.75,
            "endTime": 0.875
          },
          {
            "name": "D3",
            "midi": 50,
            "time": 0.875,
            "velocity": 0.7086614173228346,
            "duration": 0.125,
            "frequency": 146.8323839587038,
            "pitch": 50,
            "startTime": 0.875,
            "endTime": 1
          },
          {
            "name": "B3",
            "midi": 59,
            "time": 1,
            "velocity": 0.7086614173228346,
            "duration": 0.125,
            "frequency": 246.9416506280621,
            "pitch": 59,
            "startTime": 1,
            "endTime": 1.125
          },
          {
            "name": "B3",
            "midi": 59,
            "time": 1.125,
            "velocity": 0.7086614173228346,
            "duration": 0.125,
            "frequency": 246.9416506280621,
            "pitch": 59,
            "startTime": 1.125,
            "endTime": 1.25
          },
          {
            "name": "D3",
            "midi": 50,
            "time": 1.25,
            "velocity": 0.7086614173228346,
            "duration": 0.125,
            "frequency": 146.8323839587038,
            "pitch": 50,
            "startTime": 1.25,
            "endTime": 1.375
          },
          {
            "name": "F#4",
            "midi": 66,
            "time": 1.375,
            "velocity": 0.7086614173228346,
            "duration": 0.125,
            "frequency": 369.99442271163446,
            "pitch": 66,
            "startTime": 1.375,
            "endTime": 1.5
          },
          {
            "name": "D3",
            "midi": 50,
            "time": 1.5,
            "velocity": 0.7086614173228346,
            "duration": 0.125,
            "frequency": 146.8323839587038,
            "pitch": 50,
            "startTime": 1.5,
            "endTime": 1.625
          }
        ],
        "controlChanges": {},
        "id": 0,
        "channelNumber": 0,
        "isPercussion": false
      }
    ]
  },
  "taxus baccata_chords": {
    "header": {
      "PPQ": 128,
      "bpm": 120,
      "name": ""
    },
    "startTime": 0,
    "duration": 1,
    "tracks": [
      {
        "startTime": 0,
        "duration": 1,
        "length": 12,
        "notes": [
          {
            "name": "A3",
            "midi": 57,
            "time": 0,
            "velocity": 0.7086614173228346,
            "duration": 0.5,
            "frequency": 220,
            "pitch": 57,
            "startTime": 0,
            "endTime": 0.5
          },
          {
            "name": "C#4",
            "midi": 61,
            "time": 0,
            "velocity": 0.7086614173228346,
            "duration": 0.5,
            "frequency": 277.1826309768721,
            "pitch": 61,
            "startTime": 0,
            "endTime": 0.5
          },
          {
            "name": "B4",
            "midi": 71,
            "time": 0,
            "velocity": 0.7086614173228346,
            "duration": 0.5,
            "frequency": 493.8833012561242,
            "pitch": 71,
            "startTime": 0,
            "endTime": 0.5
          },
          {
            "name": "A#5",
            "midi": 82,
            "time": 0,
            "velocity": 0.7086614173228346,
            "duration": 0.5,
            "frequency": 932.3275230361799,
            "pitch": 76,
            "startTime": 0,
            "endTime": 0.5
          },
          {
            "name": "G6",
            "midi": 91,
            "time": 0,
            "velocity": 0.7086614173228346,
            "duration": 0.5,
            "frequency": 1567.981743926997,
            "pitch": 76,
            "startTime": 0,
            "endTime": 0.5
          },
          {
            "name": "C3",
            "midi": 48,
            "time": 0.5,
            "velocity": 0.7086614173228346,
            "duration": 0.5,
            "frequency": 130.8127826502993,
            "pitch": 48,
            "startTime": 0.5,
            "endTime": 1
          },
          {
            "name": "C#3",
            "midi": 49,
            "time": 0.5,
            "velocity": 0.7086614173228346,
            "duration": 0.5,
            "frequency": 138.59131548843604,
            "pitch": 49,
            "startTime": 0.5,
            "endTime": 1
          },
          {
            "name": "C4",
            "midi": 60,
            "time": 0.5,
            "velocity": 0.7086614173228346,
            "duration": 0.5,
            "frequency": 261.6255653005986,
            "pitch": 60,
            "startTime": 0.5,
            "endTime": 1
          },
          {
            "name": "C5",
            "midi": 72,
            "time": 0.5,
            "velocity": 0.7086614173228346,
            "duration": 0.5,
            "frequency": 523.2511306011972,
            "pitch": 72,
            "startTime": 0.5,
            "endTime": 1
          },
          {
            "name": "C#5",
            "midi": 73,
            "time": 0.5,
            "velocity": 0.7086614173228346,
            "duration": 0.5,
            "frequency": 554.3652619537442,
            "pitch": 73,
            "startTime": 0.5,
            "endTime": 1
          },
          {
            "name": "A5",
            "midi": 81,
            "time": 0.5,
            "velocity": 0.7086614173228346,
            "duration": 0.5,
            "frequency": 880,
            "pitch": 76,
            "startTime": 0.5,
            "endTime": 1
          },
          {
            "name": "C#6",
            "midi": 85,
            "time": 0.5,
            "velocity": 0.7086614173228346,
            "duration": 0.5,
            "frequency": 1108.7305239074883,
            "pitch": 76,
            "startTime": 0.5,
            "endTime": 1
          }
        ],
        "controlChanges": {},
        "id": 0,
        "channelNumber": 0,
        "isPercussion": false
      }
    ]
  },
  "thuja plicata_french": {
    "header": {
      "PPQ": 128,
      "bpm": 120,
      "name": ""
    },
    "startTime": 0,
    "duration": 7.125,
    "tracks": [
      {
        "startTime": 0,
        "duration": 7.125,
        "length": 13,
        "notes": [
          {
            "name": "F4",
            "midi": 65,
            "time": 0,
            "velocity": 0.7086614173228346,
            "duration": 0.25,
            "frequency": 349.2282314330039,
            "pitch": 65,
            "startTime": 0,
            "endTime": 0.25
          },
          {
            "name": "A4",
            "midi": 69,
            "time": 0.25,
            "velocity": 0.7086614173228346,
            "duration": 0.5,
            "frequency": 440,
            "pitch": 69,
            "startTime": 0.25,
            "endTime": 0.75
          },
          {
            "name": "G4",
            "midi": 67,
            "time": 0.75,
            "velocity": 0.7086614173228346,
            "duration": 0.25,
            "frequency": 391.99543598174927,
            "pitch": 67,
            "startTime": 0.75,
            "endTime": 1
          },
          {
            "name": "C5",
            "midi": 72,
            "time": 1,
            "velocity": 0.7086614173228346,
            "duration": 0.5,
            "frequency": 523.2511306011972,
            "pitch": 72,
            "startTime": 1,
            "endTime": 1.5
          },
          {
            "name": "A4",
            "midi": 69,
            "time": 1.5,
            "velocity": 0.7086614173228346,
            "duration": 1,
            "frequency": 440,
            "pitch": 69,
            "startTime": 1.5,
            "endTime": 2.5
          },
          {
            "name": "G4",
            "midi": 67,
            "time": 2.5,
            "velocity": 0.7086614173228346,
            "duration": 0.125,
            "frequency": 391.99543598174927,
            "pitch": 67,
            "startTime": 2.5,
            "endTime": 2.625
          },
          {
            "name": "B4",
            "midi": 71,
            "time": 2.625,
            "velocity": 0.7086614173228346,
            "duration": 0.25,
            "frequency": 493.8833012561242,
            "pitch": 71,
            "startTime": 2.625,
            "endTime": 2.875
          },
          {
            "name": "E5",
            "midi": 76,
            "time": 2.875,
            "velocity": 0.7086614173228346,
            "duration": 0.5,
            "frequency": 659.2551138257398,
            "pitch": 76,
            "startTime": 2.875,
            "endTime": 3.375
          },
          {
            "name": "B4",
            "midi": 71,
            "time": 3.375,
            "velocity": 0.7086614173228346,
            "duration": 0.5,
            "frequency": 493.8833012561242,
            "pitch": 71,
            "startTime": 3.375,
            "endTime": 3.875
          },
          {
            "name": "C5",
            "midi": 72,
            "time": 3.875,
            "velocity": 0.7086614173228346,
            "duration": 1,
            "frequency": 523.2511306011972,
            "pitch": 72,
            "startTime": 3.875,
            "endTime": 4.875
          },
          {
            "name": "A4",
            "midi": 69,
            "time": 4.875,
            "velocity": 0.7086614173228346,
            "duration": 1,
            "frequency": 440,
            "pitch": 69,
            "startTime": 4.875,
            "endTime": 5.875
          },
          {
            "name": "F4",
            "midi": 65,
            "time": 5.875,
            "velocity": 0.7086614173228346,
            "duration": 0.25,
            "frequency": 349.2282314330039,
            "pitch": 65,
            "startTime": 5.875,
            "endTime": 6.125
          },
          {
            "name": "A4",
            "midi": 69,
            "time": 6.125,
            "velocity": 0.7086614173228346,
            "duration": 1,
            "frequency": 440,
            "pitch": 69,
            "startTime": 6.125,
            "endTime": 7.125
          }
        ],
        "controlChanges": {},
        "id": 0,
        "channelNumber": 0,
        "isPercussion": false
      }
    ]
  },
  "thuja plicata_keyboard": {
    "header": {
      "PPQ": 128,
      "bpm": 120,
      "name": ""
    },
    "startTime": 0,
    "duration": 1.625,
    "tracks": [
      {
        "startTime": 0,
        "duration": 1.625,
        "length": 13,
        "notes": [
          {
            "name": "F#4",
            "midi": 66,
            "time": 0,
            "velocity": 0.7086614173228346,
            "duration": 0.125,
            "frequency": 369.99442271163446,
            "pitch": 66,
            "startTime": 0,
            "endTime": 0.125
          },
          {
            "name": "B4",
            "midi": 71,
            "time": 0.125,
            "velocity": 0.7086614173228346,
            "duration": 0.125,
            "frequency": 493.8833012561242,
            "pitch": 71,
            "startTime": 0.125,
            "endTime": 0.25
          },
          {
            "name": "D5",
            "midi": 74,
            "time": 0.25,
            "velocity": 0.7086614173228346,
            "duration": 0.125,
            "frequency": 587.3295358348151,
            "pitch": 74,
            "startTime": 0.25,
            "endTime": 0.375
          },
          {
            "name": "D#5",
            "midi": 75,
            "time": 0.375,
            "velocity": 0.7086614173228346,
            "duration": 0.125,
            "frequency": 622.2539674441618,
            "pitch": 75,
            "startTime": 0.375,
            "endTime": 0.5
          },
          {
            "name": "D3",
            "midi": 50,
            "time": 0.5,
            "velocity": 0.7086614173228346,
            "duration": 0.125,
            "frequency": 146.8323839587038,
            "pitch": 50,
            "startTime": 0.5,
            "endTime": 0.625
          },
          {
            "name": "C4",
            "midi": 60,
            "time": 0.625,
            "velocity": 0.7086614173228346,
            "duration": 0.125,
            "frequency": 261.6255653005986,
            "pitch": 60,
            "startTime": 0.625,
            "endTime": 0.75
          },
          {
            "name": "D6",
            "midi": 86,
            "time": 0.75,
            "velocity": 0.7086614173228346,
            "duration": 0.125,
            "frequency": 1174.6590716696303,
            "pitch": 76,
            "startTime": 0.75,
            "endTime": 0.875
          },
          {
            "name": "B5",
            "midi": 83,
            "time": 0.875,
            "velocity": 0.7086614173228346,
            "duration": 0.125,
            "frequency": 987.7666025122484,
            "pitch": 76,
            "startTime": 0.875,
            "endTime": 1
          },
          {
            "name": "F#5",
            "midi": 78,
            "time": 1,
            "velocity": 0.7086614173228346,
            "duration": 0.125,
            "frequency": 739.9888454232689,
            "pitch": 76,
            "startTime": 1,
            "endTime": 1.125
          },
          {
            "name": "B3",
            "midi": 59,
            "time": 1.125,
            "velocity": 0.7086614173228346,
            "duration": 0.125,
            "frequency": 246.9416506280621,
            "pitch": 59,
            "startTime": 1.125,
            "endTime": 1.25
          },
          {
            "name": "D3",
            "midi": 50,
            "time": 1.25,
            "velocity": 0.7086614173228346,
            "duration": 0.125,
            "frequency": 146.8323839587038,
            "pitch": 50,
            "startTime": 1.25,
            "endTime": 1.375
          },
          {
            "name": "F#4",
            "midi": 66,
            "time": 1.375,
            "velocity": 0.7086614173228346,
            "duration": 0.125,
            "frequency": 369.99442271163446,
            "pitch": 66,
            "startTime": 1.375,
            "endTime": 1.5
          },
          {
            "name": "D3",
            "midi": 50,
            "time": 1.5,
            "velocity": 0.7086614173228346,
            "duration": 0.125,
            "frequency": 146.8323839587038,
            "pitch": 50,
            "startTime": 1.5,
            "endTime": 1.625
          }
        ],
        "controlChanges": {},
        "id": 0,
        "channelNumber": 0,
        "isPercussion": false
      }
    ]
  },
  "thuja plicata_chords": {
    "header": {
      "PPQ": 128,
      "bpm": 120,
      "name": ""
    },
    "startTime": 0,
    "duration": 1,
    "tracks": [
      {
        "startTime": 0,
        "duration": 1,
        "length": 12,
        "notes": [
          {
            "name": "A3",
            "midi": 57,
            "time": 0,
            "velocity": 0.7086614173228346,
            "duration": 0.5,
            "frequency": 220,
            "pitch": 57,
            "startTime": 0,
            "endTime": 0.5
          },
          {
            "name": "D4",
            "midi": 62,
            "time": 0,
            "velocity": 0.7086614173228346,
            "duration": 0.5,
            "frequency": 293.6647679174076,
            "pitch": 62,
            "startTime": 0,
            "endTime": 0.5
          },
          {
            "name": "A#4",
            "midi": 70,
            "time": 0,
            "velocity": 0.7086614173228346,
            "duration": 0.5,
            "frequency": 466.1637615180899,
            "pitch": 70,
            "startTime": 0,
            "endTime": 0.5
          },
          {
            "name": "E5",
            "midi": 76,
            "time": 0,
            "velocity": 0.7086614173228346,
            "duration": 0.5,
            "frequency": 659.2551138257398,
            "pitch": 76,
            "startTime": 0,
            "endTime": 0.5
          },
          {
            "name": "C#6",
            "midi": 85,
            "time": 0,
            "velocity": 0.7086614173228346,
            "duration": 0.5,
            "frequency": 1108.7305239074883,
            "pitch": 76,
            "startTime": 0,
            "endTime": 0.5
          },
          {
            "name": "F3",
            "midi": 53,
            "time": 0.5,
            "velocity": 0.7086614173228346,
            "duration": 0.5,
            "frequency": 174.61411571650194,
            "pitch": 53,
            "startTime": 0.5,
            "endTime": 1
          },
          {
            "name": "E4",
            "midi": 64,
            "time": 0.5,
            "velocity": 0.7086614173228346,
            "duration": 0.5,
            "frequency": 329.6275569128699,
            "pitch": 64,
            "startTime": 0.5,
            "endTime": 1
          },
          {
            "name": "F#4",
            "midi": 66,
            "time": 0.5,
            "velocity": 0.7086614173228346,
            "duration": 0.5,
            "frequency": 369.99442271163446,
            "pitch": 66,
            "startTime": 0.5,
            "endTime": 1
          },
          {
            "name": "C5",
            "midi": 72,
            "time": 0.5,
            "velocity": 0.7086614173228346,
            "duration": 0.5,
            "frequency": 523.2511306011972,
            "pitch": 72,
            "startTime": 0.5,
            "endTime": 1
          },
          {
            "name": "C#5",
            "midi": 73,
            "time": 0.5,
            "velocity": 0.7086614173228346,
            "duration": 0.5,
            "frequency": 554.3652619537442,
            "pitch": 73,
            "startTime": 0.5,
            "endTime": 1
          },
          {
            "name": "A5",
            "midi": 81,
            "time": 0.5,
            "velocity": 0.7086614173228346,
            "duration": 0.5,
            "frequency": 880,
            "pitch": 76,
            "startTime": 0.5,
            "endTime": 1
          },
          {
            "name": "C#6",
            "midi": 85,
            "time": 0.5,
            "velocity": 0.7086614173228346,
            "duration": 0.5,
            "frequency": 1108.7305239074883,
            "pitch": 76,
            "startTime": 0.5,
            "endTime": 1
          }
        ],
        "controlChanges": {},
        "id": 0,
        "channelNumber": 0,
        "isPercussion": false
      }
    ]
  },
  "tilia cordata_french": {
    "header": {
      "PPQ": 128,
      "bpm": 120,
      "name": ""
    },
    "startTime": 0,
    "duration": 7.625,
    "tracks": [
      {
        "startTime": 0,
        "duration": 7.625,
        "length": 13,
        "notes": [
          {
            "name": "F4",
            "midi": 65,
            "time": 0,
            "velocity": 0.7086614173228346,
            "duration": 0.25,
            "frequency": 349.2282314330039,
            "pitch": 65,
            "startTime": 0,
            "endTime": 0.25
          },
          {
            "name": "B4",
            "midi": 71,
            "time": 0.25,
            "velocity": 0.7086614173228346,
            "duration": 0.5,
            "frequency": 493.8833012561242,
            "pitch": 71,
            "startTime": 0.25,
            "endTime": 0.75
          },
          {
            "name": "E5",
            "midi": 76,
            "time": 0.75,
            "velocity": 0.7086614173228346,
            "duration": 0.5,
            "frequency": 659.2551138257398,
            "pitch": 76,
            "startTime": 0.75,
            "endTime": 1.25
          },
          {
            "name": "B4",
            "midi": 71,
            "time": 1.25,
            "velocity": 0.7086614173228346,
            "duration": 0.5,
            "frequency": 493.8833012561242,
            "pitch": 71,
            "startTime": 1.25,
            "endTime": 1.75
          },
          {
            "name": "A4",
            "midi": 69,
            "time": 1.75,
            "velocity": 0.7086614173228346,
            "duration": 1,
            "frequency": 440,
            "pitch": 69,
            "startTime": 1.75,
            "endTime": 2.75
          },
          {
            "name": "G4",
            "midi": 67,
            "time": 2.75,
            "velocity": 0.7086614173228346,
            "duration": 0.125,
            "frequency": 391.99543598174927,
            "pitch": 67,
            "startTime": 2.75,
            "endTime": 2.875
          },
          {
            "name": "C5",
            "midi": 72,
            "time": 2.875,
            "velocity": 0.7086614173228346,
            "duration": 1,
            "frequency": 523.2511306011972,
            "pitch": 72,
            "startTime": 2.875,
            "endTime": 3.875
          },
          {
            "name": "A4",
            "midi": 69,
            "time": 3.875,
            "velocity": 0.7086614173228346,
            "duration": 0.25,
            "frequency": 440,
            "pitch": 69,
            "startTime": 3.875,
            "endTime": 4.125
          },
          {
            "name": "D5",
            "midi": 74,
            "time": 4.125,
            "velocity": 0.7086614173228346,
            "duration": 0.25,
            "frequency": 587.3295358348151,
            "pitch": 74,
            "startTime": 4.125,
            "endTime": 4.375
          },
          {
            "name": "D5",
            "midi": 74,
            "time": 4.375,
            "velocity": 0.7086614173228346,
            "duration": 1,
            "frequency": 587.3295358348151,
            "pitch": 74,
            "startTime": 4.375,
            "endTime": 5.375
          },
          {
            "name": "A4",
            "midi": 69,
            "time": 5.375,
            "velocity": 0.7086614173228346,
            "duration": 1,
            "frequency": 440,
            "pitch": 69,
            "startTime": 5.375,
            "endTime": 6.375
          },
          {
            "name": "F4",
            "midi": 65,
            "time": 6.375,
            "velocity": 0.7086614173228346,
            "duration": 0.25,
            "frequency": 349.2282314330039,
            "pitch": 65,
            "startTime": 6.375,
            "endTime": 6.625
          },
          {
            "name": "A4",
            "midi": 69,
            "time": 6.625,
            "velocity": 0.7086614173228346,
            "duration": 1,
            "frequency": 440,
            "pitch": 69,
            "startTime": 6.625,
            "endTime": 7.625
          }
        ],
        "controlChanges": {},
        "id": 0,
        "channelNumber": 0,
        "isPercussion": false
      }
    ]
  },
  "tilia cordata_keyboard": {
    "header": {
      "PPQ": 128,
      "bpm": 120,
      "name": ""
    },
    "startTime": 0,
    "duration": 1.625,
    "tracks": [
      {
        "startTime": 0,
        "duration": 1.625,
        "length": 13,
        "notes": [
          {
            "name": "F#4",
            "midi": 66,
            "time": 0,
            "velocity": 0.7086614173228346,
            "duration": 0.125,
            "frequency": 369.99442271163446,
            "pitch": 66,
            "startTime": 0,
            "endTime": 0.125
          },
          {
            "name": "F#5",
            "midi": 78,
            "time": 0.125,
            "velocity": 0.7086614173228346,
            "duration": 0.125,
            "frequency": 739.9888454232689,
            "pitch": 76,
            "startTime": 0.125,
            "endTime": 0.25
          },
          {
            "name": "B5",
            "midi": 83,
            "time": 0.25,
            "velocity": 0.7086614173228346,
            "duration": 0.125,
            "frequency": 987.7666025122484,
            "pitch": 76,
            "startTime": 0.25,
            "endTime": 0.375
          },
          {
            "name": "F#5",
            "midi": 78,
            "time": 0.375,
            "velocity": 0.7086614173228346,
            "duration": 0.125,
            "frequency": 739.9888454232689,
            "pitch": 76,
            "startTime": 0.375,
            "endTime": 0.5
          },
          {
            "name": "D3",
            "midi": 50,
            "time": 0.5,
            "velocity": 0.7086614173228346,
            "duration": 0.125,
            "frequency": 146.8323839587038,
            "pitch": 50,
            "startTime": 0.5,
            "endTime": 0.625
          },
          {
            "name": "C4",
            "midi": 60,
            "time": 0.625,
            "velocity": 0.7086614173228346,
            "duration": 0.125,
            "frequency": 261.6255653005986,
            "pitch": 60,
            "startTime": 0.625,
            "endTime": 0.75
          },
          {
            "name": "B3",
            "midi": 59,
            "time": 0.75,
            "velocity": 0.7086614173228346,
            "duration": 0.125,
            "frequency": 246.9416506280621,
            "pitch": 59,
            "startTime": 0.75,
            "endTime": 0.875
          },
          {
            "name": "A#5",
            "midi": 82,
            "time": 0.875,
            "velocity": 0.7086614173228346,
            "duration": 0.125,
            "frequency": 932.3275230361799,
            "pitch": 76,
            "startTime": 0.875,
            "endTime": 1
          },
          {
            "name": "D4",
            "midi": 62,
            "time": 1,
            "velocity": 0.7086614173228346,
            "duration": 0.125,
            "frequency": 293.6647679174076,
            "pitch": 62,
            "startTime": 1,
            "endTime": 1.125
          },
          {
            "name": "A#3",
            "midi": 58,
            "time": 1.125,
            "velocity": 0.7086614173228346,
            "duration": 0.125,
            "frequency": 233.08188075904496,
            "pitch": 58,
            "startTime": 1.125,
            "endTime": 1.25
          },
          {
            "name": "D3",
            "midi": 50,
            "time": 1.25,
            "velocity": 0.7086614173228346,
            "duration": 0.125,
            "frequency": 146.8323839587038,
            "pitch": 50,
            "startTime": 1.25,
            "endTime": 1.375
          },
          {
            "name": "F#4",
            "midi": 66,
            "time": 1.375,
            "velocity": 0.7086614173228346,
            "duration": 0.125,
            "frequency": 369.99442271163446,
            "pitch": 66,
            "startTime": 1.375,
            "endTime": 1.5
          },
          {
            "name": "D3",
            "midi": 50,
            "time": 1.5,
            "velocity": 0.7086614173228346,
            "duration": 0.125,
            "frequency": 146.8323839587038,
            "pitch": 50,
            "startTime": 1.5,
            "endTime": 1.625
          }
        ],
        "controlChanges": {},
        "id": 0,
        "channelNumber": 0,
        "isPercussion": false
      }
    ]
  },
  "tilia cordata_chords": {
    "header": {
      "PPQ": 128,
      "bpm": 120,
      "name": ""
    },
    "startTime": 0,
    "duration": 1,
    "tracks": [
      {
        "startTime": 0,
        "duration": 1,
        "length": 12,
        "notes": [
          {
            "name": "A3",
            "midi": 57,
            "time": 0,
            "velocity": 0.7086614173228346,
            "duration": 0.5,
            "frequency": 220,
            "pitch": 57,
            "startTime": 0,
            "endTime": 0.5
          },
          {
            "name": "F#4",
            "midi": 66,
            "time": 0,
            "velocity": 0.7086614173228346,
            "duration": 0.5,
            "frequency": 369.99442271163446,
            "pitch": 66,
            "startTime": 0,
            "endTime": 0.5
          },
          {
            "name": "E5",
            "midi": 76,
            "time": 0,
            "velocity": 0.7086614173228346,
            "duration": 0.5,
            "frequency": 659.2551138257398,
            "pitch": 76,
            "startTime": 0,
            "endTime": 0.5
          },
          {
            "name": "F#5",
            "midi": 78,
            "time": 0,
            "velocity": 0.7086614173228346,
            "duration": 0.5,
            "frequency": 739.9888454232689,
            "pitch": 76,
            "startTime": 0,
            "endTime": 0.5
          },
          {
            "name": "C#6",
            "midi": 85,
            "time": 0,
            "velocity": 0.7086614173228346,
            "duration": 0.5,
            "frequency": 1108.7305239074883,
            "pitch": 76,
            "startTime": 0,
            "endTime": 0.5
          },
          {
            "name": "C3",
            "midi": 48,
            "time": 0.5,
            "velocity": 0.7086614173228346,
            "duration": 0.5,
            "frequency": 130.8127826502993,
            "pitch": 48,
            "startTime": 0.5,
            "endTime": 1
          },
          {
            "name": "G#3",
            "midi": 56,
            "time": 0.5,
            "velocity": 0.7086614173228346,
            "duration": 0.5,
            "frequency": 207.65234878997256,
            "pitch": 56,
            "startTime": 0.5,
            "endTime": 1
          },
          {
            "name": "G4",
            "midi": 67,
            "time": 0.5,
            "velocity": 0.7086614173228346,
            "duration": 0.5,
            "frequency": 391.99543598174927,
            "pitch": 67,
            "startTime": 0.5,
            "endTime": 1
          },
          {
            "name": "C5",
            "midi": 72,
            "time": 0.5,
            "velocity": 0.7086614173228346,
            "duration": 0.5,
            "frequency": 523.2511306011972,
            "pitch": 72,
            "startTime": 0.5,
            "endTime": 1
          },
          {
            "name": "C#5",
            "midi": 73,
            "time": 0.5,
            "velocity": 0.7086614173228346,
            "duration": 0.5,
            "frequency": 554.3652619537442,
            "pitch": 73,
            "startTime": 0.5,
            "endTime": 1
          },
          {
            "name": "A5",
            "midi": 81,
            "time": 0.5,
            "velocity": 0.7086614173228346,
            "duration": 0.5,
            "frequency": 880,
            "pitch": 76,
            "startTime": 0.5,
            "endTime": 1
          },
          {
            "name": "C#6",
            "midi": 85,
            "time": 0.5,
            "velocity": 0.7086614173228346,
            "duration": 0.5,
            "frequency": 1108.7305239074883,
            "pitch": 76,
            "startTime": 0.5,
            "endTime": 1
          }
        ],
        "controlChanges": {},
        "id": 0,
        "channelNumber": 0,
        "isPercussion": false
      }
    ]
  },
  "tilia platyphyllos_french": {
    "header": {
      "PPQ": 128,
      "bpm": 120,
      "name": ""
    },
    "startTime": 0,
    "duration": 7.375,
    "tracks": [
      {
        "startTime": 0,
        "duration": 7.375,
        "length": 18,
        "notes": [
          {
            "name": "F4",
            "midi": 65,
            "time": 0,
            "velocity": 0.7086614173228346,
            "duration": 0.25,
            "frequency": 349.2282314330039,
            "pitch": 65,
            "startTime": 0,
            "endTime": 0.25
          },
          {
            "name": "B4",
            "midi": 71,
            "time": 0.25,
            "velocity": 0.7086614173228346,
            "duration": 0.5,
            "frequency": 493.8833012561242,
            "pitch": 71,
            "startTime": 0.25,
            "endTime": 0.75
          },
          {
            "name": "E5",
            "midi": 76,
            "time": 0.75,
            "velocity": 0.7086614173228346,
            "duration": 0.5,
            "frequency": 659.2551138257398,
            "pitch": 76,
            "startTime": 0.75,
            "endTime": 1.25
          },
          {
            "name": "B4",
            "midi": 71,
            "time": 1.25,
            "velocity": 0.7086614173228346,
            "duration": 0.5,
            "frequency": 493.8833012561242,
            "pitch": 71,
            "startTime": 1.25,
            "endTime": 1.75
          },
          {
            "name": "A4",
            "midi": 69,
            "time": 1.75,
            "velocity": 0.7086614173228346,
            "duration": 1,
            "frequency": 440,
            "pitch": 69,
            "startTime": 1.75,
            "endTime": 2.75
          },
          {
            "name": "G4",
            "midi": 67,
            "time": 2.75,
            "velocity": 0.7086614173228346,
            "duration": 0.125,
            "frequency": 391.99543598174927,
            "pitch": 67,
            "startTime": 2.75,
            "endTime": 2.875
          },
          {
            "name": "B4",
            "midi": 71,
            "time": 2.875,
            "velocity": 0.7086614173228346,
            "duration": 0.25,
            "frequency": 493.8833012561242,
            "pitch": 71,
            "startTime": 2.875,
            "endTime": 3.125
          },
          {
            "name": "E5",
            "midi": 76,
            "time": 3.125,
            "velocity": 0.7086614173228346,
            "duration": 0.5,
            "frequency": 659.2551138257398,
            "pitch": 76,
            "startTime": 3.125,
            "endTime": 3.625
          },
          {
            "name": "A5",
            "midi": 81,
            "time": 3.625,
            "velocity": 0.7086614173228346,
            "duration": 1,
            "frequency": 880,
            "pitch": 76,
            "startTime": 3.625,
            "endTime": 4.625
          },
          {
            "name": "F5",
            "midi": 77,
            "time": 4.625,
            "velocity": 0.7086614173228346,
            "duration": 0.25,
            "frequency": 698.4564628660078,
            "pitch": 76,
            "startTime": 4.625,
            "endTime": 4.875
          },
          {
            "name": "D5",
            "midi": 74,
            "time": 4.875,
            "velocity": 0.7086614173228346,
            "duration": 0.125,
            "frequency": 587.3295358348151,
            "pitch": 74,
            "startTime": 4.875,
            "endTime": 5
          },
          {
            "name": "B4",
            "midi": 71,
            "time": 5,
            "velocity": 0.7086614173228346,
            "duration": 0.25,
            "frequency": 493.8833012561242,
            "pitch": 71,
            "startTime": 5,
            "endTime": 5.25
          },
          {
            "name": "A4",
            "midi": 69,
            "time": 5.25,
            "velocity": 0.7086614173228346,
            "duration": 0.5,
            "frequency": 440,
            "pitch": 69,
            "startTime": 5.25,
            "endTime": 5.75
          },
          {
            "name": "D5",
            "midi": 74,
            "time": 5.75,
            "velocity": 0.7086614173228346,
            "duration": 0.125,
            "frequency": 587.3295358348151,
            "pitch": 74,
            "startTime": 5.75,
            "endTime": 5.875
          },
          {
            "name": "E5",
            "midi": 76,
            "time": 5.875,
            "velocity": 0.7086614173228346,
            "duration": 0.5,
            "frequency": 659.2551138257398,
            "pitch": 76,
            "startTime": 5.875,
            "endTime": 6.375
          },
          {
            "name": "E5",
            "midi": 76,
            "time": 6.375,
            "velocity": 0.7086614173228346,
            "duration": 0.5,
            "frequency": 659.2551138257398,
            "pitch": 76,
            "startTime": 6.375,
            "endTime": 6.875
          },
          {
            "name": "A5",
            "midi": 81,
            "time": 6.875,
            "velocity": 0.7086614173228346,
            "duration": 0.25,
            "frequency": 880,
            "pitch": 76,
            "startTime": 6.875,
            "endTime": 7.125
          },
          {
            "name": "E5",
            "midi": 76,
            "time": 7.125,
            "velocity": 0.7086614173228346,
            "duration": 0.25,
            "frequency": 659.2551138257398,
            "pitch": 76,
            "startTime": 7.125,
            "endTime": 7.375
          }
        ],
        "controlChanges": {},
        "id": 0,
        "channelNumber": 0,
        "isPercussion": false
      }
    ]
  },
  "tilia platyphyllos_keyboard": {
    "header": {
      "PPQ": 128,
      "bpm": 120,
      "name": ""
    },
    "startTime": 0,
    "duration": 2.25,
    "tracks": [
      {
        "startTime": 0,
        "duration": 2.25,
        "length": 18,
        "notes": [
          {
            "name": "F#4",
            "midi": 66,
            "time": 0,
            "velocity": 0.7086614173228346,
            "duration": 0.125,
            "frequency": 369.99442271163446,
            "pitch": 66,
            "startTime": 0,
            "endTime": 0.125
          },
          {
            "name": "F#5",
            "midi": 78,
            "time": 0.125,
            "velocity": 0.7086614173228346,
            "duration": 0.125,
            "frequency": 739.9888454232689,
            "pitch": 76,
            "startTime": 0.125,
            "endTime": 0.25
          },
          {
            "name": "B5",
            "midi": 83,
            "time": 0.25,
            "velocity": 0.7086614173228346,
            "duration": 0.125,
            "frequency": 987.7666025122484,
            "pitch": 76,
            "startTime": 0.25,
            "endTime": 0.375
          },
          {
            "name": "F#5",
            "midi": 78,
            "time": 0.375,
            "velocity": 0.7086614173228346,
            "duration": 0.125,
            "frequency": 739.9888454232689,
            "pitch": 76,
            "startTime": 0.375,
            "endTime": 0.5
          },
          {
            "name": "D3",
            "midi": 50,
            "time": 0.5,
            "velocity": 0.7086614173228346,
            "duration": 0.125,
            "frequency": 146.8323839587038,
            "pitch": 50,
            "startTime": 0.5,
            "endTime": 0.625
          },
          {
            "name": "C4",
            "midi": 60,
            "time": 0.625,
            "velocity": 0.7086614173228346,
            "duration": 0.125,
            "frequency": 261.6255653005986,
            "pitch": 60,
            "startTime": 0.625,
            "endTime": 0.75
          },
          {
            "name": "D6",
            "midi": 86,
            "time": 0.75,
            "velocity": 0.7086614173228346,
            "duration": 0.125,
            "frequency": 1174.6590716696303,
            "pitch": 76,
            "startTime": 0.75,
            "endTime": 0.875
          },
          {
            "name": "B5",
            "midi": 83,
            "time": 0.875,
            "velocity": 0.7086614173228346,
            "duration": 0.125,
            "frequency": 987.7666025122484,
            "pitch": 76,
            "startTime": 0.875,
            "endTime": 1
          },
          {
            "name": "D3",
            "midi": 50,
            "time": 1,
            "velocity": 0.7086614173228346,
            "duration": 0.125,
            "frequency": 146.8323839587038,
            "pitch": 50,
            "startTime": 1,
            "endTime": 1.125
          },
          {
            "name": "F#4",
            "midi": 66,
            "time": 1.125,
            "velocity": 0.7086614173228346,
            "duration": 0.125,
            "frequency": 369.99442271163446,
            "pitch": 66,
            "startTime": 1.125,
            "endTime": 1.25
          },
          {
            "name": "A#4",
            "midi": 70,
            "time": 1.25,
            "velocity": 0.7086614173228346,
            "duration": 0.125,
            "frequency": 466.1637615180899,
            "pitch": 70,
            "startTime": 1.25,
            "endTime": 1.375
          },
          {
            "name": "D6",
            "midi": 86,
            "time": 1.375,
            "velocity": 0.7086614173228346,
            "duration": 0.125,
            "frequency": 1174.6590716696303,
            "pitch": 76,
            "startTime": 1.375,
            "endTime": 1.5
          },
          {
            "name": "B4",
            "midi": 71,
            "time": 1.5,
            "velocity": 0.7086614173228346,
            "duration": 0.125,
            "frequency": 493.8833012561242,
            "pitch": 71,
            "startTime": 1.5,
            "endTime": 1.625
          },
          {
            "name": "A#4",
            "midi": 70,
            "time": 1.625,
            "velocity": 0.7086614173228346,
            "duration": 0.125,
            "frequency": 466.1637615180899,
            "pitch": 70,
            "startTime": 1.625,
            "endTime": 1.75
          },
          {
            "name": "B5",
            "midi": 83,
            "time": 1.75,
            "velocity": 0.7086614173228346,
            "duration": 0.125,
            "frequency": 987.7666025122484,
            "pitch": 76,
            "startTime": 1.75,
            "endTime": 1.875
          },
          {
            "name": "B5",
            "midi": 83,
            "time": 1.875,
            "velocity": 0.7086614173228346,
            "duration": 0.125,
            "frequency": 987.7666025122484,
            "pitch": 76,
            "startTime": 1.875,
            "endTime": 2
          },
          {
            "name": "A#5",
            "midi": 82,
            "time": 2,
            "velocity": 0.7086614173228346,
            "duration": 0.125,
            "frequency": 932.3275230361799,
            "pitch": 76,
            "startTime": 2,
            "endTime": 2.125
          },
          {
            "name": "F#3",
            "midi": 54,
            "time": 2.125,
            "velocity": 0.7086614173228346,
            "duration": 0.125,
            "frequency": 184.99721135581723,
            "pitch": 54,
            "startTime": 2.125,
            "endTime": 2.25
          }
        ],
        "controlChanges": {},
        "id": 0,
        "channelNumber": 0,
        "isPercussion": false
      }
    ]
  },
  "tilia platyphyllos_chords": {
    "header": {
      "PPQ": 128,
      "bpm": 120,
      "name": ""
    },
    "startTime": 0,
    "duration": 1,
    "tracks": [
      {
        "startTime": 0,
        "duration": 1,
        "length": 17,
        "notes": [
          {
            "name": "A3",
            "midi": 57,
            "time": 0,
            "velocity": 0.7086614173228346,
            "duration": 0.5,
            "frequency": 220,
            "pitch": 57,
            "startTime": 0,
            "endTime": 0.5
          },
          {
            "name": "F#4",
            "midi": 66,
            "time": 0,
            "velocity": 0.7086614173228346,
            "duration": 0.5,
            "frequency": 369.99442271163446,
            "pitch": 66,
            "startTime": 0,
            "endTime": 0.5
          },
          {
            "name": "E5",
            "midi": 76,
            "time": 0,
            "velocity": 0.7086614173228346,
            "duration": 0.5,
            "frequency": 659.2551138257398,
            "pitch": 76,
            "startTime": 0,
            "endTime": 0.5
          },
          {
            "name": "F#5",
            "midi": 78,
            "time": 0,
            "velocity": 0.7086614173228346,
            "duration": 0.5,
            "frequency": 739.9888454232689,
            "pitch": 76,
            "startTime": 0,
            "endTime": 0.5
          },
          {
            "name": "C#6",
            "midi": 85,
            "time": 0,
            "velocity": 0.7086614173228346,
            "duration": 0.5,
            "frequency": 1108.7305239074883,
            "pitch": 76,
            "startTime": 0,
            "endTime": 0.5
          },
          {
            "name": "F3",
            "midi": 53,
            "time": 0.5,
            "velocity": 0.7086614173228346,
            "duration": 0.5,
            "frequency": 174.61411571650194,
            "pitch": 53,
            "startTime": 0.5,
            "endTime": 1
          },
          {
            "name": "E4",
            "midi": 64,
            "time": 0.5,
            "velocity": 0.7086614173228346,
            "duration": 0.5,
            "frequency": 329.6275569128699,
            "pitch": 64,
            "startTime": 0.5,
            "endTime": 1
          },
          {
            "name": "C#5",
            "midi": 73,
            "time": 0.5,
            "velocity": 0.7086614173228346,
            "duration": 0.5,
            "frequency": 554.3652619537442,
            "pitch": 73,
            "startTime": 0.5,
            "endTime": 1
          },
          {
            "name": "A5",
            "midi": 81,
            "time": 0.5,
            "velocity": 0.7086614173228346,
            "duration": 0.5,
            "frequency": 880,
            "pitch": 76,
            "startTime": 0.5,
            "endTime": 1
          },
          {
            "name": "B5",
            "midi": 83,
            "time": 0.5,
            "velocity": 0.7086614173228346,
            "duration": 0.5,
            "frequency": 987.7666025122484,
            "pitch": 76,
            "startTime": 0.5,
            "endTime": 1
          },
          {
            "name": "F6",
            "midi": 89,
            "time": 0.5,
            "velocity": 0.7086614173228346,
            "duration": 0.5,
            "frequency": 1396.9129257320155,
            "pitch": 76,
            "startTime": 0.5,
            "endTime": 1
          },
          {
            "name": "D7",
            "midi": 98,
            "time": 0.5,
            "velocity": 0.7086614173228346,
            "duration": 0.5,
            "frequency": 2349.31814333926,
            "pitch": 76,
            "startTime": 0.5,
            "endTime": 1
          },
          {
            "name": "B7",
            "midi": 107,
            "time": 0.5,
            "velocity": 0.7086614173228346,
            "duration": 0.5,
            "frequency": 3951.0664100489926,
            "pitch": 76,
            "startTime": 0.5,
            "endTime": 1
          },
          {
            "name": "E8",
            "midi": 112,
            "time": 0.5,
            "velocity": 0.7086614173228346,
            "duration": 0.5,
            "frequency": 5274.040910605919,
            "pitch": 76,
            "startTime": 0.5,
            "endTime": 1
          },
          {
            "name": "E9",
            "midi": 124,
            "time": 0.5,
            "velocity": 0.7086614173228346,
            "duration": 0.5,
            "frequency": 10548.081821211836,
            "pitch": 76,
            "startTime": 0.5,
            "endTime": 1
          },
          {
            "name": "G#9",
            "midi": 128,
            "time": 0.5,
            "velocity": 0.7086614173228346,
            "duration": 0.5,
            "frequency": 13289.750322558244,
            "pitch": 76,
            "startTime": 0.5,
            "endTime": 1
          },
          {
            "name": "G10",
            "midi": 139,
            "time": 0.5,
            "velocity": 0.7086614173228346,
            "duration": 0.5,
            "frequency": 25087.70790283195,
            "pitch": 76,
            "startTime": 0.5,
            "endTime": 1
          }
        ],
        "controlChanges": {},
        "id": 0,
        "channelNumber": 0,
        "isPercussion": false
      }
    ]
  },
  "tilia tomentosa petiolaris_french": {
    "header": {
      "PPQ": 128,
      "bpm": 120,
      "name": ""
    },
    "startTime": 0,
    "duration": 12,
    "tracks": [
      {
        "startTime": 0,
        "duration": 12,
        "length": 26,
        "notes": [
          {
            "name": "F4",
            "midi": 65,
            "time": 0,
            "velocity": 0.7086614173228346,
            "duration": 0.25,
            "frequency": 349.2282314330039,
            "pitch": 65,
            "startTime": 0,
            "endTime": 0.25
          },
          {
            "name": "B4",
            "midi": 71,
            "time": 0.25,
            "velocity": 0.7086614173228346,
            "duration": 0.5,
            "frequency": 493.8833012561242,
            "pitch": 71,
            "startTime": 0.25,
            "endTime": 0.75
          },
          {
            "name": "E5",
            "midi": 76,
            "time": 0.75,
            "velocity": 0.7086614173228346,
            "duration": 0.5,
            "frequency": 659.2551138257398,
            "pitch": 76,
            "startTime": 0.75,
            "endTime": 1.25
          },
          {
            "name": "B4",
            "midi": 71,
            "time": 1.25,
            "velocity": 0.7086614173228346,
            "duration": 0.5,
            "frequency": 493.8833012561242,
            "pitch": 71,
            "startTime": 1.25,
            "endTime": 1.75
          },
          {
            "name": "A4",
            "midi": 69,
            "time": 1.75,
            "velocity": 0.7086614173228346,
            "duration": 1,
            "frequency": 440,
            "pitch": 69,
            "startTime": 1.75,
            "endTime": 2.75
          },
          {
            "name": "G4",
            "midi": 67,
            "time": 2.75,
            "velocity": 0.7086614173228346,
            "duration": 0.125,
            "frequency": 391.99543598174927,
            "pitch": 67,
            "startTime": 2.75,
            "endTime": 2.875
          },
          {
            "name": "F4",
            "midi": 65,
            "time": 2.875,
            "velocity": 0.7086614173228346,
            "duration": 0.25,
            "frequency": 349.2282314330039,
            "pitch": 65,
            "startTime": 2.875,
            "endTime": 3.125
          },
          {
            "name": "A4",
            "midi": 69,
            "time": 3.125,
            "velocity": 0.7086614173228346,
            "duration": 0.25,
            "frequency": 440,
            "pitch": 69,
            "startTime": 3.125,
            "endTime": 3.375
          },
          {
            "name": "F4",
            "midi": 65,
            "time": 3.375,
            "velocity": 0.7086614173228346,
            "duration": 0.5,
            "frequency": 349.2282314330039,
            "pitch": 65,
            "startTime": 3.375,
            "endTime": 3.875
          },
          {
            "name": "E4",
            "midi": 64,
            "time": 3.875,
            "velocity": 0.7086614173228346,
            "duration": 1,
            "frequency": 329.6275569128699,
            "pitch": 64,
            "startTime": 3.875,
            "endTime": 4.875
          },
          {
            "name": "G4",
            "midi": 67,
            "time": 4.875,
            "velocity": 0.7086614173228346,
            "duration": 0.5,
            "frequency": 391.99543598174927,
            "pitch": 67,
            "startTime": 4.875,
            "endTime": 5.375
          },
          {
            "name": "F4",
            "midi": 65,
            "time": 5.375,
            "velocity": 0.7086614173228346,
            "duration": 0.25,
            "frequency": 349.2282314330039,
            "pitch": 65,
            "startTime": 5.375,
            "endTime": 5.625
          },
          {
            "name": "A4",
            "midi": 69,
            "time": 5.625,
            "velocity": 0.7086614173228346,
            "duration": 0.25,
            "frequency": 440,
            "pitch": 69,
            "startTime": 5.625,
            "endTime": 5.875
          },
          {
            "name": "E4",
            "midi": 64,
            "time": 5.875,
            "velocity": 0.7086614173228346,
            "duration": 0.25,
            "frequency": 329.6275569128699,
            "pitch": 64,
            "startTime": 5.875,
            "endTime": 6.125
          },
          {
            "name": "A4",
            "midi": 69,
            "time": 6.125,
            "velocity": 0.7086614173228346,
            "duration": 1,
            "frequency": 440,
            "pitch": 69,
            "startTime": 6.125,
            "endTime": 7.125
          },
          {
            "name": "G4",
            "midi": 67,
            "time": 7.125,
            "velocity": 0.7086614173228346,
            "duration": 0.125,
            "frequency": 391.99543598174927,
            "pitch": 67,
            "startTime": 7.125,
            "endTime": 7.25
          },
          {
            "name": "B4",
            "midi": 71,
            "time": 7.25,
            "velocity": 0.7086614173228346,
            "duration": 0.25,
            "frequency": 493.8833012561242,
            "pitch": 71,
            "startTime": 7.25,
            "endTime": 7.5
          },
          {
            "name": "E5",
            "midi": 76,
            "time": 7.5,
            "velocity": 0.7086614173228346,
            "duration": 1,
            "frequency": 659.2551138257398,
            "pitch": 76,
            "startTime": 7.5,
            "endTime": 8.5
          },
          {
            "name": "F5",
            "midi": 77,
            "time": 8.5,
            "velocity": 0.7086614173228346,
            "duration": 0.25,
            "frequency": 698.4564628660078,
            "pitch": 76,
            "startTime": 8.5,
            "endTime": 8.75
          },
          {
            "name": "B5",
            "midi": 83,
            "time": 8.75,
            "velocity": 0.7086614173228346,
            "duration": 0.5,
            "frequency": 987.7666025122484,
            "pitch": 76,
            "startTime": 8.75,
            "endTime": 9.25
          },
          {
            "name": "A5",
            "midi": 81,
            "time": 9.25,
            "velocity": 0.7086614173228346,
            "duration": 0.25,
            "frequency": 880,
            "pitch": 76,
            "startTime": 9.25,
            "endTime": 9.5
          },
          {
            "name": "E5",
            "midi": 76,
            "time": 9.5,
            "velocity": 0.7086614173228346,
            "duration": 0.5,
            "frequency": 659.2551138257398,
            "pitch": 76,
            "startTime": 9.5,
            "endTime": 10
          },
          {
            "name": "A5",
            "midi": 81,
            "time": 10,
            "velocity": 0.7086614173228346,
            "duration": 1,
            "frequency": 880,
            "pitch": 76,
            "startTime": 10,
            "endTime": 11
          },
          {
            "name": "D6",
            "midi": 86,
            "time": 11,
            "velocity": 0.7086614173228346,
            "duration": 0.25,
            "frequency": 1174.6590716696303,
            "pitch": 76,
            "startTime": 11,
            "endTime": 11.25
          },
          {
            "name": "B5",
            "midi": 83,
            "time": 11.25,
            "velocity": 0.7086614173228346,
            "duration": 0.5,
            "frequency": 987.7666025122484,
            "pitch": 76,
            "startTime": 11.25,
            "endTime": 11.75
          },
          {
            "name": "E6",
            "midi": 88,
            "time": 11.75,
            "velocity": 0.7086614173228346,
            "duration": 0.25,
            "frequency": 1318.5102276514797,
            "pitch": 76,
            "startTime": 11.75,
            "endTime": 12
          }
        ],
        "controlChanges": {},
        "id": 0,
        "channelNumber": 0,
        "isPercussion": false
      }
    ]
  },
  "tilia tomentosa petiolaris_keyboard": {
    "header": {
      "PPQ": 128,
      "bpm": 120,
      "name": ""
    },
    "startTime": 0,
    "duration": 3.25,
    "tracks": [
      {
        "startTime": 0,
        "duration": 3.25,
        "length": 26,
        "notes": [
          {
            "name": "F#4",
            "midi": 66,
            "time": 0,
            "velocity": 0.7086614173228346,
            "duration": 0.125,
            "frequency": 369.99442271163446,
            "pitch": 66,
            "startTime": 0,
            "endTime": 0.125
          },
          {
            "name": "F#5",
            "midi": 78,
            "time": 0.125,
            "velocity": 0.7086614173228346,
            "duration": 0.125,
            "frequency": 739.9888454232689,
            "pitch": 76,
            "startTime": 0.125,
            "endTime": 0.25
          },
          {
            "name": "B5",
            "midi": 83,
            "time": 0.25,
            "velocity": 0.7086614173228346,
            "duration": 0.125,
            "frequency": 987.7666025122484,
            "pitch": 76,
            "startTime": 0.25,
            "endTime": 0.375
          },
          {
            "name": "F#5",
            "midi": 78,
            "time": 0.375,
            "velocity": 0.7086614173228346,
            "duration": 0.125,
            "frequency": 739.9888454232689,
            "pitch": 76,
            "startTime": 0.375,
            "endTime": 0.5
          },
          {
            "name": "D3",
            "midi": 50,
            "time": 0.5,
            "velocity": 0.7086614173228346,
            "duration": 0.125,
            "frequency": 146.8323839587038,
            "pitch": 50,
            "startTime": 0.5,
            "endTime": 0.625
          },
          {
            "name": "C4",
            "midi": 60,
            "time": 0.625,
            "velocity": 0.7086614173228346,
            "duration": 0.125,
            "frequency": 261.6255653005986,
            "pitch": 60,
            "startTime": 0.625,
            "endTime": 0.75
          },
          {
            "name": "F#4",
            "midi": 66,
            "time": 0.75,
            "velocity": 0.7086614173228346,
            "duration": 0.125,
            "frequency": 369.99442271163446,
            "pitch": 66,
            "startTime": 0.75,
            "endTime": 0.875
          },
          {
            "name": "A#5",
            "midi": 82,
            "time": 0.875,
            "velocity": 0.7086614173228346,
            "duration": 0.125,
            "frequency": 932.3275230361799,
            "pitch": 76,
            "startTime": 0.875,
            "endTime": 1
          },
          {
            "name": "E5",
            "midi": 76,
            "time": 1,
            "velocity": 0.7086614173228346,
            "duration": 0.125,
            "frequency": 659.2551138257398,
            "pitch": 76,
            "startTime": 1,
            "endTime": 1.125
          },
          {
            "name": "A3",
            "midi": 57,
            "time": 1.125,
            "velocity": 0.7086614173228346,
            "duration": 0.125,
            "frequency": 220,
            "pitch": 57,
            "startTime": 1.125,
            "endTime": 1.25
          },
          {
            "name": "C5",
            "midi": 72,
            "time": 1.25,
            "velocity": 0.7086614173228346,
            "duration": 0.125,
            "frequency": 523.2511306011972,
            "pitch": 72,
            "startTime": 1.25,
            "endTime": 1.375
          },
          {
            "name": "F#4",
            "midi": 66,
            "time": 1.375,
            "velocity": 0.7086614173228346,
            "duration": 0.125,
            "frequency": 369.99442271163446,
            "pitch": 66,
            "startTime": 1.375,
            "endTime": 1.5
          },
          {
            "name": "A#5",
            "midi": 82,
            "time": 1.5,
            "velocity": 0.7086614173228346,
            "duration": 0.125,
            "frequency": 932.3275230361799,
            "pitch": 76,
            "startTime": 1.5,
            "endTime": 1.625
          },
          {
            "name": "F#3",
            "midi": 54,
            "time": 1.625,
            "velocity": 0.7086614173228346,
            "duration": 0.125,
            "frequency": 184.99721135581723,
            "pitch": 54,
            "startTime": 1.625,
            "endTime": 1.75
          },
          {
            "name": "D3",
            "midi": 50,
            "time": 1.75,
            "velocity": 0.7086614173228346,
            "duration": 0.125,
            "frequency": 146.8323839587038,
            "pitch": 50,
            "startTime": 1.75,
            "endTime": 1.875
          },
          {
            "name": "C4",
            "midi": 60,
            "time": 1.875,
            "velocity": 0.7086614173228346,
            "duration": 0.125,
            "frequency": 261.6255653005986,
            "pitch": 60,
            "startTime": 1.875,
            "endTime": 2
          },
          {
            "name": "D6",
            "midi": 86,
            "time": 2,
            "velocity": 0.7086614173228346,
            "duration": 0.125,
            "frequency": 1174.6590716696303,
            "pitch": 76,
            "startTime": 2,
            "endTime": 2.125
          },
          {
            "name": "A3",
            "midi": 57,
            "time": 2.125,
            "velocity": 0.7086614173228346,
            "duration": 0.125,
            "frequency": 220,
            "pitch": 57,
            "startTime": 2.125,
            "endTime": 2.25
          },
          {
            "name": "F#4",
            "midi": 66,
            "time": 2.25,
            "velocity": 0.7086614173228346,
            "duration": 0.125,
            "frequency": 369.99442271163446,
            "pitch": 66,
            "startTime": 2.25,
            "endTime": 2.375
          },
          {
            "name": "F#5",
            "midi": 78,
            "time": 2.375,
            "velocity": 0.7086614173228346,
            "duration": 0.125,
            "frequency": 739.9888454232689,
            "pitch": 76,
            "startTime": 2.375,
            "endTime": 2.5
          },
          {
            "name": "A#5",
            "midi": 82,
            "time": 2.5,
            "velocity": 0.7086614173228346,
            "duration": 0.125,
            "frequency": 932.3275230361799,
            "pitch": 76,
            "startTime": 2.5,
            "endTime": 2.625
          },
          {
            "name": "B5",
            "midi": 83,
            "time": 2.625,
            "velocity": 0.7086614173228346,
            "duration": 0.125,
            "frequency": 987.7666025122484,
            "pitch": 76,
            "startTime": 2.625,
            "endTime": 2.75
          },
          {
            "name": "D3",
            "midi": 50,
            "time": 2.75,
            "velocity": 0.7086614173228346,
            "duration": 0.125,
            "frequency": 146.8323839587038,
            "pitch": 50,
            "startTime": 2.75,
            "endTime": 2.875
          },
          {
            "name": "D4",
            "midi": 62,
            "time": 2.875,
            "velocity": 0.7086614173228346,
            "duration": 0.125,
            "frequency": 293.6647679174076,
            "pitch": 62,
            "startTime": 2.875,
            "endTime": 3
          },
          {
            "name": "F#5",
            "midi": 78,
            "time": 3,
            "velocity": 0.7086614173228346,
            "duration": 0.125,
            "frequency": 739.9888454232689,
            "pitch": 76,
            "startTime": 3,
            "endTime": 3.125
          },
          {
            "name": "F#3",
            "midi": 54,
            "time": 3.125,
            "velocity": 0.7086614173228346,
            "duration": 0.125,
            "frequency": 184.99721135581723,
            "pitch": 54,
            "startTime": 3.125,
            "endTime": 3.25
          }
        ],
        "controlChanges": {},
        "id": 0,
        "channelNumber": 0,
        "isPercussion": false
      }
    ]
  },
  "tilia tomentosa petiolaris_chords": {
    "header": {
      "PPQ": 128,
      "bpm": 120,
      "name": ""
    },
    "startTime": 0,
    "duration": 1.5,
    "tracks": [
      {
        "startTime": 0,
        "duration": 1.5,
        "length": 24,
        "notes": [
          {
            "name": "A3",
            "midi": 57,
            "time": 0,
            "velocity": 0.7086614173228346,
            "duration": 0.5,
            "frequency": 220,
            "pitch": 57,
            "startTime": 0,
            "endTime": 0.5
          },
          {
            "name": "F#4",
            "midi": 66,
            "time": 0,
            "velocity": 0.7086614173228346,
            "duration": 0.5,
            "frequency": 369.99442271163446,
            "pitch": 66,
            "startTime": 0,
            "endTime": 0.5
          },
          {
            "name": "E5",
            "midi": 76,
            "time": 0,
            "velocity": 0.7086614173228346,
            "duration": 0.5,
            "frequency": 659.2551138257398,
            "pitch": 76,
            "startTime": 0,
            "endTime": 0.5
          },
          {
            "name": "F#5",
            "midi": 78,
            "time": 0,
            "velocity": 0.7086614173228346,
            "duration": 0.5,
            "frequency": 739.9888454232689,
            "pitch": 76,
            "startTime": 0,
            "endTime": 0.5
          },
          {
            "name": "C#6",
            "midi": 85,
            "time": 0,
            "velocity": 0.7086614173228346,
            "duration": 0.5,
            "frequency": 1108.7305239074883,
            "pitch": 76,
            "startTime": 0,
            "endTime": 0.5
          },
          {
            "name": "A3",
            "midi": 57,
            "time": 0.5,
            "velocity": 0.7086614173228346,
            "duration": 0.5,
            "frequency": 220,
            "pitch": 57,
            "startTime": 0.5,
            "endTime": 1
          },
          {
            "name": "G#4",
            "midi": 68,
            "time": 0.5,
            "velocity": 0.7086614173228346,
            "duration": 0.5,
            "frequency": 415.3046975799451,
            "pitch": 68,
            "startTime": 0.5,
            "endTime": 1
          },
          {
            "name": "F5",
            "midi": 77,
            "time": 0.5,
            "velocity": 0.7086614173228346,
            "duration": 0.5,
            "frequency": 698.4564628660078,
            "pitch": 76,
            "startTime": 0.5,
            "endTime": 1
          },
          {
            "name": "D#6",
            "midi": 87,
            "time": 0.5,
            "velocity": 0.7086614173228346,
            "duration": 0.5,
            "frequency": 1244.5079348883235,
            "pitch": 76,
            "startTime": 0.5,
            "endTime": 1
          },
          {
            "name": "F6",
            "midi": 89,
            "time": 0.5,
            "velocity": 0.7086614173228346,
            "duration": 0.5,
            "frequency": 1396.9129257320155,
            "pitch": 76,
            "startTime": 0.5,
            "endTime": 1
          },
          {
            "name": "A6",
            "midi": 93,
            "time": 0.5,
            "velocity": 0.7086614173228346,
            "duration": 0.5,
            "frequency": 1760,
            "pitch": 76,
            "startTime": 0.5,
            "endTime": 1
          },
          {
            "name": "G#7",
            "midi": 104,
            "time": 0.5,
            "velocity": 0.7086614173228346,
            "duration": 0.5,
            "frequency": 3322.437580639561,
            "pitch": 76,
            "startTime": 0.5,
            "endTime": 1
          },
          {
            "name": "G8",
            "midi": 115,
            "time": 0.5,
            "velocity": 0.7086614173228346,
            "duration": 0.5,
            "frequency": 6271.926975707989,
            "pitch": 76,
            "startTime": 0.5,
            "endTime": 1
          },
          {
            "name": "C#9",
            "midi": 121,
            "time": 0.5,
            "velocity": 0.7086614173228346,
            "duration": 0.5,
            "frequency": 8869.844191259906,
            "pitch": 76,
            "startTime": 0.5,
            "endTime": 1
          },
          {
            "name": "F3",
            "midi": 53,
            "time": 1,
            "velocity": 0.7086614173228346,
            "duration": 0.5,
            "frequency": 174.61411571650194,
            "pitch": 53,
            "startTime": 1,
            "endTime": 1.5
          },
          {
            "name": "D#4",
            "midi": 63,
            "time": 1,
            "velocity": 0.7086614173228346,
            "duration": 0.5,
            "frequency": 311.12698372208087,
            "pitch": 63,
            "startTime": 1,
            "endTime": 1.5
          },
          {
            "name": "A4",
            "midi": 69,
            "time": 1,
            "velocity": 0.7086614173228346,
            "duration": 0.5,
            "frequency": 440,
            "pitch": 69,
            "startTime": 1,
            "endTime": 1.5
          },
          {
            "name": "F#5",
            "midi": 78,
            "time": 1,
            "velocity": 0.7086614173228346,
            "duration": 0.5,
            "frequency": 739.9888454232689,
            "pitch": 76,
            "startTime": 1,
            "endTime": 1.5
          },
          {
            "name": "G#5",
            "midi": 80,
            "time": 1,
            "velocity": 0.7086614173228346,
            "duration": 0.5,
            "frequency": 830.6093951598903,
            "pitch": 76,
            "startTime": 1,
            "endTime": 1.5
          },
          {
            "name": "E6",
            "midi": 88,
            "time": 1,
            "velocity": 0.7086614173228346,
            "duration": 0.5,
            "frequency": 1318.5102276514797,
            "pitch": 76,
            "startTime": 1,
            "endTime": 1.5
          },
          {
            "name": "C#7",
            "midi": 97,
            "time": 1,
            "velocity": 0.7086614173228346,
            "duration": 0.5,
            "frequency": 2217.461047814977,
            "pitch": 76,
            "startTime": 1,
            "endTime": 1.5
          },
          {
            "name": "G7",
            "midi": 103,
            "time": 1,
            "velocity": 0.7086614173228346,
            "duration": 0.5,
            "frequency": 3135.9634878539946,
            "pitch": 76,
            "startTime": 1,
            "endTime": 1.5
          },
          {
            "name": "F#8",
            "midi": 114,
            "time": 1,
            "velocity": 0.7086614173228346,
            "duration": 0.5,
            "frequency": 5919.910763386151,
            "pitch": 76,
            "startTime": 1,
            "endTime": 1.5
          },
          {
            "name": "G8",
            "midi": 115,
            "time": 1,
            "velocity": 0.7086614173228346,
            "duration": 0.5,
            "frequency": 6271.926975707989,
            "pitch": 76,
            "startTime": 1,
            "endTime": 1.5
          }
        ],
        "controlChanges": {},
        "id": 0,
        "channelNumber": 0,
        "isPercussion": false
      }
    ]
  },
  "ulmus procera_french": {
    "header": {
      "PPQ": 128,
      "bpm": 120,
      "name": ""
    },
    "startTime": 0,
    "duration": 5.875,
    "tracks": [
      {
        "startTime": 0,
        "duration": 5.875,
        "length": 13,
        "notes": [
          {
            "name": "G4",
            "midi": 67,
            "time": 0,
            "velocity": 0.7086614173228346,
            "duration": 0.25,
            "frequency": 391.99543598174927,
            "pitch": 67,
            "startTime": 0,
            "endTime": 0.25
          },
          {
            "name": "E4",
            "midi": 64,
            "time": 0.25,
            "velocity": 0.7086614173228346,
            "duration": 0.5,
            "frequency": 329.6275569128699,
            "pitch": 64,
            "startTime": 0.25,
            "endTime": 0.75
          },
          {
            "name": "F4",
            "midi": 65,
            "time": 0.75,
            "velocity": 0.7086614173228346,
            "duration": 0.5,
            "frequency": 349.2282314330039,
            "pitch": 65,
            "startTime": 0.75,
            "endTime": 1.25
          },
          {
            "name": "G4",
            "midi": 67,
            "time": 1.25,
            "velocity": 0.7086614173228346,
            "duration": 0.25,
            "frequency": 391.99543598174927,
            "pitch": 67,
            "startTime": 1.25,
            "endTime": 1.5
          },
          {
            "name": "E4",
            "midi": 64,
            "time": 1.5,
            "velocity": 0.7086614173228346,
            "duration": 0.25,
            "frequency": 329.6275569128699,
            "pitch": 64,
            "startTime": 1.5,
            "endTime": 1.75
          },
          {
            "name": "G4",
            "midi": 67,
            "time": 1.75,
            "velocity": 0.7086614173228346,
            "duration": 0.125,
            "frequency": 391.99543598174927,
            "pitch": 67,
            "startTime": 1.75,
            "endTime": 1.875
          },
          {
            "name": "B4",
            "midi": 71,
            "time": 1.875,
            "velocity": 0.7086614173228346,
            "duration": 0.25,
            "frequency": 493.8833012561242,
            "pitch": 71,
            "startTime": 1.875,
            "endTime": 2.125
          },
          {
            "name": "D5",
            "midi": 74,
            "time": 2.125,
            "velocity": 0.7086614173228346,
            "duration": 0.25,
            "frequency": 587.3295358348151,
            "pitch": 74,
            "startTime": 2.125,
            "endTime": 2.375
          },
          {
            "name": "A4",
            "midi": 69,
            "time": 2.375,
            "velocity": 0.7086614173228346,
            "duration": 0.25,
            "frequency": 440,
            "pitch": 69,
            "startTime": 2.375,
            "endTime": 2.625
          },
          {
            "name": "C5",
            "midi": 72,
            "time": 2.625,
            "velocity": 0.7086614173228346,
            "duration": 1,
            "frequency": 523.2511306011972,
            "pitch": 72,
            "startTime": 2.625,
            "endTime": 3.625
          },
          {
            "name": "E5",
            "midi": 76,
            "time": 3.625,
            "velocity": 0.7086614173228346,
            "duration": 1,
            "frequency": 659.2551138257398,
            "pitch": 76,
            "startTime": 3.625,
            "endTime": 4.625
          },
          {
            "name": "D5",
            "midi": 74,
            "time": 4.625,
            "velocity": 0.7086614173228346,
            "duration": 0.25,
            "frequency": 587.3295358348151,
            "pitch": 74,
            "startTime": 4.625,
            "endTime": 4.875
          },
          {
            "name": "A4",
            "midi": 69,
            "time": 4.875,
            "velocity": 0.7086614173228346,
            "duration": 1,
            "frequency": 440,
            "pitch": 69,
            "startTime": 4.875,
            "endTime": 5.875
          }
        ],
        "controlChanges": {},
        "id": 0,
        "channelNumber": 0,
        "isPercussion": false
      }
    ]
  },
  "ulmus procera_keyboard": {
    "header": {
      "PPQ": 128,
      "bpm": 120,
      "name": ""
    },
    "startTime": 0,
    "duration": 1.625,
    "tracks": [
      {
        "startTime": 0,
        "duration": 1.625,
        "length": 13,
        "notes": [
          {
            "name": "D5",
            "midi": 74,
            "time": 0,
            "velocity": 0.7086614173228346,
            "duration": 0.125,
            "frequency": 587.3295358348151,
            "pitch": 74,
            "startTime": 0,
            "endTime": 0.125
          },
          {
            "name": "B5",
            "midi": 83,
            "time": 0.125,
            "velocity": 0.7086614173228346,
            "duration": 0.125,
            "frequency": 987.7666025122484,
            "pitch": 76,
            "startTime": 0.125,
            "endTime": 0.25
          },
          {
            "name": "E5",
            "midi": 76,
            "time": 0.25,
            "velocity": 0.7086614173228346,
            "duration": 0.125,
            "frequency": 659.2551138257398,
            "pitch": 76,
            "startTime": 0.25,
            "endTime": 0.375
          },
          {
            "name": "D5",
            "midi": 74,
            "time": 0.375,
            "velocity": 0.7086614173228346,
            "duration": 0.125,
            "frequency": 587.3295358348151,
            "pitch": 74,
            "startTime": 0.375,
            "endTime": 0.5
          },
          {
            "name": "F#3",
            "midi": 54,
            "time": 0.5,
            "velocity": 0.7086614173228346,
            "duration": 0.125,
            "frequency": 184.99721135581723,
            "pitch": 54,
            "startTime": 0.5,
            "endTime": 0.625
          },
          {
            "name": "C4",
            "midi": 60,
            "time": 0.625,
            "velocity": 0.7086614173228346,
            "duration": 0.125,
            "frequency": 261.6255653005986,
            "pitch": 60,
            "startTime": 0.625,
            "endTime": 0.75
          },
          {
            "name": "D6",
            "midi": 86,
            "time": 0.75,
            "velocity": 0.7086614173228346,
            "duration": 0.125,
            "frequency": 1174.6590716696303,
            "pitch": 76,
            "startTime": 0.75,
            "endTime": 0.875
          },
          {
            "name": "D4",
            "midi": 62,
            "time": 0.875,
            "velocity": 0.7086614173228346,
            "duration": 0.125,
            "frequency": 293.6647679174076,
            "pitch": 62,
            "startTime": 0.875,
            "endTime": 1
          },
          {
            "name": "A#5",
            "midi": 82,
            "time": 1,
            "velocity": 0.7086614173228346,
            "duration": 0.125,
            "frequency": 932.3275230361799,
            "pitch": 76,
            "startTime": 1,
            "endTime": 1.125
          },
          {
            "name": "B3",
            "midi": 59,
            "time": 1.125,
            "velocity": 0.7086614173228346,
            "duration": 0.125,
            "frequency": 246.9416506280621,
            "pitch": 59,
            "startTime": 1.125,
            "endTime": 1.25
          },
          {
            "name": "A3",
            "midi": 57,
            "time": 1.25,
            "velocity": 0.7086614173228346,
            "duration": 0.125,
            "frequency": 220,
            "pitch": 57,
            "startTime": 1.25,
            "endTime": 1.375
          },
          {
            "name": "D4",
            "midi": 62,
            "time": 1.375,
            "velocity": 0.7086614173228346,
            "duration": 0.125,
            "frequency": 293.6647679174076,
            "pitch": 62,
            "startTime": 1.375,
            "endTime": 1.5
          },
          {
            "name": "D3",
            "midi": 50,
            "time": 1.5,
            "velocity": 0.7086614173228346,
            "duration": 0.125,
            "frequency": 146.8323839587038,
            "pitch": 50,
            "startTime": 1.5,
            "endTime": 1.625
          }
        ],
        "controlChanges": {},
        "id": 0,
        "channelNumber": 0,
        "isPercussion": false
      }
    ]
  },
  "ulmus procera_chords": {
    "header": {
      "PPQ": 128,
      "bpm": 120,
      "name": ""
    },
    "startTime": 0,
    "duration": 1,
    "tracks": [
      {
        "startTime": 0,
        "duration": 1,
        "length": 12,
        "notes": [
          {
            "name": "A#3",
            "midi": 58,
            "time": 0,
            "velocity": 0.7086614173228346,
            "duration": 0.5,
            "frequency": 233.08188075904496,
            "pitch": 58,
            "startTime": 0,
            "endTime": 0.5
          },
          {
            "name": "E4",
            "midi": 64,
            "time": 0,
            "velocity": 0.7086614173228346,
            "duration": 0.5,
            "frequency": 329.6275569128699,
            "pitch": 64,
            "startTime": 0,
            "endTime": 0.5
          },
          {
            "name": "F4",
            "midi": 65,
            "time": 0,
            "velocity": 0.7086614173228346,
            "duration": 0.5,
            "frequency": 349.2282314330039,
            "pitch": 65,
            "startTime": 0,
            "endTime": 0.5
          },
          {
            "name": "A#4",
            "midi": 70,
            "time": 0,
            "velocity": 0.7086614173228346,
            "duration": 0.5,
            "frequency": 466.1637615180899,
            "pitch": 70,
            "startTime": 0,
            "endTime": 0.5
          },
          {
            "name": "G5",
            "midi": 79,
            "time": 0,
            "velocity": 0.7086614173228346,
            "duration": 0.5,
            "frequency": 783.9908719634986,
            "pitch": 76,
            "startTime": 0,
            "endTime": 0.5
          },
          {
            "name": "F3",
            "midi": 53,
            "time": 0.5,
            "velocity": 0.7086614173228346,
            "duration": 0.5,
            "frequency": 174.61411571650194,
            "pitch": 53,
            "startTime": 0.5,
            "endTime": 1
          },
          {
            "name": "G3",
            "midi": 55,
            "time": 0.5,
            "velocity": 0.7086614173228346,
            "duration": 0.5,
            "frequency": 195.99771799087463,
            "pitch": 55,
            "startTime": 0.5,
            "endTime": 1
          },
          {
            "name": "G#3",
            "midi": 56,
            "time": 0.5,
            "velocity": 0.7086614173228346,
            "duration": 0.5,
            "frequency": 207.65234878997256,
            "pitch": 56,
            "startTime": 0.5,
            "endTime": 1
          },
          {
            "name": "C4",
            "midi": 60,
            "time": 0.5,
            "velocity": 0.7086614173228346,
            "duration": 0.5,
            "frequency": 261.6255653005986,
            "pitch": 60,
            "startTime": 0.5,
            "endTime": 1
          },
          {
            "name": "D#4",
            "midi": 63,
            "time": 0.5,
            "velocity": 0.7086614173228346,
            "duration": 0.5,
            "frequency": 311.12698372208087,
            "pitch": 63,
            "startTime": 0.5,
            "endTime": 1
          },
          {
            "name": "G4",
            "midi": 67,
            "time": 0.5,
            "velocity": 0.7086614173228346,
            "duration": 0.5,
            "frequency": 391.99543598174927,
            "pitch": 67,
            "startTime": 0.5,
            "endTime": 1
          },
          {
            "name": "C#5",
            "midi": 73,
            "time": 0.5,
            "velocity": 0.7086614173228346,
            "duration": 0.5,
            "frequency": 554.3652619537442,
            "pitch": 73,
            "startTime": 0.5,
            "endTime": 1
          }
        ],
        "controlChanges": {},
        "id": 0,
        "channelNumber": 0,
        "isPercussion": false
      }
    ]
  },
  "unclear_french": {
    "header": {
      "PPQ": 128,
      "bpm": 120,
      "name": ""
    },
    "startTime": 0,
    "duration": 4.5,
    "tracks": [
      {
        "startTime": 0,
        "duration": 4.5,
        "length": 7,
        "notes": [
          {
            "name": "G4",
            "midi": 67,
            "time": 0,
            "velocity": 0.7086614173228346,
            "duration": 0.25,
            "frequency": 391.99543598174927,
            "pitch": 67,
            "startTime": 0,
            "endTime": 0.25
          },
          {
            "name": "G4",
            "midi": 67,
            "time": 0.25,
            "velocity": 0.7086614173228346,
            "duration": 0.5,
            "frequency": 391.99543598174927,
            "pitch": 67,
            "startTime": 0.25,
            "endTime": 0.75
          },
          {
            "name": "C5",
            "midi": 72,
            "time": 0.75,
            "velocity": 0.7086614173228346,
            "duration": 1,
            "frequency": 523.2511306011972,
            "pitch": 72,
            "startTime": 0.75,
            "endTime": 1.75
          },
          {
            "name": "E5",
            "midi": 76,
            "time": 1.75,
            "velocity": 0.7086614173228346,
            "duration": 0.5,
            "frequency": 659.2551138257398,
            "pitch": 76,
            "startTime": 1.75,
            "endTime": 2.25
          },
          {
            "name": "E5",
            "midi": 76,
            "time": 2.25,
            "velocity": 0.7086614173228346,
            "duration": 1,
            "frequency": 659.2551138257398,
            "pitch": 76,
            "startTime": 2.25,
            "endTime": 3.25
          },
          {
            "name": "A5",
            "midi": 81,
            "time": 3.25,
            "velocity": 0.7086614173228346,
            "duration": 1,
            "frequency": 880,
            "pitch": 76,
            "startTime": 3.25,
            "endTime": 4.25
          },
          {
            "name": "D6",
            "midi": 86,
            "time": 4.25,
            "velocity": 0.7086614173228346,
            "duration": 0.25,
            "frequency": 1174.6590716696303,
            "pitch": 76,
            "startTime": 4.25,
            "endTime": 4.5
          }
        ],
        "controlChanges": {},
        "id": 0,
        "channelNumber": 0,
        "isPercussion": false
      }
    ]
  },
  "unclear_keyboard": {
    "header": {
      "PPQ": 128,
      "bpm": 120,
      "name": ""
    },
    "startTime": 0,
    "duration": 0.875,
    "tracks": [
      {
        "startTime": 0,
        "duration": 0.875,
        "length": 7,
        "notes": [
          {
            "name": "D5",
            "midi": 74,
            "time": 0,
            "velocity": 0.7086614173228346,
            "duration": 0.125,
            "frequency": 587.3295358348151,
            "pitch": 74,
            "startTime": 0,
            "endTime": 0.125
          },
          {
            "name": "C5",
            "midi": 72,
            "time": 0.125,
            "velocity": 0.7086614173228346,
            "duration": 0.125,
            "frequency": 523.2511306011972,
            "pitch": 72,
            "startTime": 0.125,
            "endTime": 0.25
          },
          {
            "name": "B3",
            "midi": 59,
            "time": 0.25,
            "velocity": 0.7086614173228346,
            "duration": 0.125,
            "frequency": 246.9416506280621,
            "pitch": 59,
            "startTime": 0.25,
            "endTime": 0.375
          },
          {
            "name": "B5",
            "midi": 83,
            "time": 0.375,
            "velocity": 0.7086614173228346,
            "duration": 0.125,
            "frequency": 987.7666025122484,
            "pitch": 76,
            "startTime": 0.375,
            "endTime": 0.5
          },
          {
            "name": "A3",
            "midi": 57,
            "time": 0.5,
            "velocity": 0.7086614173228346,
            "duration": 0.125,
            "frequency": 220,
            "pitch": 57,
            "startTime": 0.5,
            "endTime": 0.625
          },
          {
            "name": "D3",
            "midi": 50,
            "time": 0.625,
            "velocity": 0.7086614173228346,
            "duration": 0.125,
            "frequency": 146.8323839587038,
            "pitch": 50,
            "startTime": 0.625,
            "endTime": 0.75
          },
          {
            "name": "D4",
            "midi": 62,
            "time": 0.75,
            "velocity": 0.7086614173228346,
            "duration": 0.125,
            "frequency": 293.6647679174076,
            "pitch": 62,
            "startTime": 0.75,
            "endTime": 0.875
          }
        ],
        "controlChanges": {},
        "id": 0,
        "channelNumber": 0,
        "isPercussion": false
      }
    ]
  },
  "unclear_chords": {
    "header": {
      "PPQ": 128,
      "bpm": 120,
      "name": ""
    },
    "startTime": 0,
    "duration": 0.5,
    "tracks": [
      {
        "startTime": 0,
        "duration": 0.5,
        "length": 7,
        "notes": [
          {
            "name": "A#3",
            "midi": 58,
            "time": 0,
            "velocity": 0.7086614173228346,
            "duration": 0.5,
            "frequency": 233.08188075904496,
            "pitch": 58,
            "startTime": 0,
            "endTime": 0.5
          },
          {
            "name": "F4",
            "midi": 65,
            "time": 0,
            "velocity": 0.7086614173228346,
            "duration": 0.5,
            "frequency": 349.2282314330039,
            "pitch": 65,
            "startTime": 0,
            "endTime": 0.5
          },
          {
            "name": "C5",
            "midi": 72,
            "time": 0,
            "velocity": 0.7086614173228346,
            "duration": 0.5,
            "frequency": 523.2511306011972,
            "pitch": 72,
            "startTime": 0,
            "endTime": 0.5
          },
          {
            "name": "E5",
            "midi": 76,
            "time": 0,
            "velocity": 0.7086614173228346,
            "duration": 0.5,
            "frequency": 659.2551138257398,
            "pitch": 76,
            "startTime": 0,
            "endTime": 0.5
          },
          {
            "name": "D#6",
            "midi": 87,
            "time": 0,
            "velocity": 0.7086614173228346,
            "duration": 0.5,
            "frequency": 1244.5079348883235,
            "pitch": 76,
            "startTime": 0,
            "endTime": 0.5
          },
          {
            "name": "C#7",
            "midi": 97,
            "time": 0,
            "velocity": 0.7086614173228346,
            "duration": 0.5,
            "frequency": 2217.461047814977,
            "pitch": 76,
            "startTime": 0,
            "endTime": 0.5
          },
          {
            "name": "G7",
            "midi": 103,
            "time": 0,
            "velocity": 0.7086614173228346,
            "duration": 0.5,
            "frequency": 3135.9634878539946,
            "pitch": 76,
            "startTime": 0,
            "endTime": 0.5
          }
        ],
        "controlChanges": {},
        "id": 0,
        "channelNumber": 0,
        "isPercussion": false
      }
    ]
  }
}
