<?xml version="1.0" encoding="utf-8"?>
<!-- Generator: Adobe Illustrator 24.0.1, SVG Export Plug-In . SVG Version: 6.00 Build 0)  -->
<svg version="1.1" id="Layer_1" xmlns="http://www.w3.org/2000/svg" xmlns:xlink="http://www.w3.org/1999/xlink" x="0px" y="0px"
	 viewBox="0 0 212.6 25.51" style="enable-background:new 0 0 212.6 25.51;" xml:space="preserve">
<style type="text/css">
	.st0{fill:#FFFFFF;}
	.st1{fill:none;stroke:#FFFFFF;}
</style>
<g>
	<g>
		<path class="st0" d="M135.91,8.28c0-5.8-3.68-7.67-9.03-7.67h-7.01v24.31h4.1v-9.03h2.64c1.01,0,1.77-0.03,2.36-0.17l3.61,9.2
			h4.41v-0.14l-4.27-10.24C134.66,13.45,135.91,11.51,135.91,8.28z M126.33,12.1h-2.36V4.46h2.5c3.06,0,5.21,0.76,5.21,3.82
			C131.67,11.33,129.52,12.1,126.33,12.1z M152.54,16.82c0,3.23-1.87,4.48-4.79,4.48c-2.47,0-4.65-0.8-6.74-1.87h-0.14v4.17
			c1.77,0.97,4.17,1.74,7.01,1.74c5.8,0,8.75-3.16,8.75-8.23V0.6h-4.1L152.54,16.82L152.54,16.82z M190.95,11.16l-1.98-0.7
			c-1.98-0.69-3.47-1.39-3.47-3.26c0-2.33,2.15-3.06,4.41-3.06c2.36,0,4.38,0.8,5.69,1.63h0.14V1.64c-1.15-0.76-3.3-1.46-5.8-1.46
			c-4.65,0-8.68,2.36-8.68,7.22c0,3.85,2.19,5.59,5.49,6.74l1.98,0.69c1.98,0.69,3.47,1.39,3.47,3.26c0,2.33-2.15,3.26-4.51,3.26
			c-2.43,0-4.9-0.97-6.35-1.88h-0.14v4.17c1.22,0.83,3.72,1.67,6.46,1.67c5.04,0,8.79-2.74,8.79-7.43
			C196.43,14.04,194.25,12.3,190.95,11.16z"/>
		<rect x="140.87" y="0.6" class="st0" width="4.1" height="15.11"/>
		<polygon class="st0" points="170.01,12.23 179.25,0.74 179.25,0.6 174.14,0.6 166.29,10.64 166.29,0.6 162.2,0.6 162.2,24.91 
			166.29,24.91 166.29,14.01 174.49,24.91 179.59,24.91 179.59,24.77 170.01,12.3 		"/>
	</g>
	<g>
		<path class="st1" d="M15.48,2.72l-1.21,3.44C12.66,5.3,11.08,4.84,9.53,4.8C6.94,4.92,5.59,5.86,5.49,7.61
			c0.16,1.49,1,2.44,2.5,2.87l2.02,0.63c4.04,1.17,6,3.56,5.88,7.18c-0.58,3.76-2.81,5.74-6.67,5.94c-2.82,0.04-5.24-0.61-7.27-1.96
			l1.72-2.99c1.55,0.86,3.31,1.29,5.28,1.27c1.93-0.34,3-1.18,3.2-2.5c-0.02-1.79-1.17-2.93-3.44-3.41l-2.2-0.85
			c-3.04-1.05-4.62-3.11-4.74-6.18C1.93,3.33,4.5,1.2,9.49,1.24C11.78,1.23,13.77,1.72,15.48,2.72z"/>
		<path class="st1" d="M23.23,1.28l4.56,10.65l4.56-10.65h4.13l-6.82,15.14v7.9h-3.92v-7.87L18.92,1.28
			C18.92,1.28,23.23,1.28,23.23,1.28z"/>
		<path class="st1" d="M37.98,24.26l0.97-23.08h4.46l5.13,13.4l4.98-13.36h4.53l0.97,23.05h-3.77l-0.57-15.6l-4.34,11.49h-3.41
			L42.31,8.57l-0.54,15.69C41.77,24.26,37.98,24.26,37.98,24.26z"/>
		<path class="st1" d="M61.81,24.26l0.97-23.08h4.46l5.13,13.4l4.98-13.36h4.53l0.97,23.05h-3.78L78.5,8.67l-4.34,11.49h-3.41
			L66.13,8.57l-0.54,15.69C65.59,24.26,61.81,24.26,61.81,24.26z"/>
		<path class="st1" d="M99.52,5.08H89.51v5.88h7.99v3.56h-8.02v6.21h9.98v3.5H85.64V1.28h13.88V5.08z"/>
		<path class="st1" d="M117.53,1.22v3.77h-5.43v19.34h-3.8V4.99h-5.94V1.22H117.53z"/>
	</g>
</g>
<g>
	<path class="st0" d="M209.39,23.23h2.08v2.08h-2.08V23.23z"/>
	<path class="st0" d="M211.43,21.67h-12.63v-2.09l8.7-5.45h-8.7v-2.08h12.63v1.89l-8.29,5.65h8.29V21.67z"/>
	<path class="st0" d="M198.77,8.36h10.6V2.63h2.09v7.86h-12.69V8.36z"/>
</g>
</svg>
